<?xml version="1.0" encoding="UTF-8" standalone="no"?>
<!DOCTYPE svg PUBLIC "-//W3C//DTD SVG 1.1//EN"
"http://www.w3.org/Graphics/SVG/1.1/DTD/svg11.dtd">
<svg viewBox="0 0 935 1210" version="1.1" xmlns="http://www.w3.org/2000/svg" xmlns:xlink="http://www.w3.org/1999/xlink">
<defs>
<style type="text/css"><![CDATA[
.g0_35{
}
]]></style>
</defs>
<path d="M110,355.1h97.7v-.7H110v.7Z" class="g0_35"/>
<path d="M207.7,355.1h.8v-.7h-.8v.7Z" class="g0_35"/>
<path d="M208.5,355.1h45.4v-.7H208.5v.7Z" class="g0_35"/>
<path d="M253.9,355.1h.7v-.7h-.7v.7Z" class="g0_35"/>
<path d="M254.6,355.1H383.5v-.7H254.6v.7Z" class="g0_35"/>
<path d="M383.5,355.1h.8v-.7h-.8v.7Z" class="g0_35"/>
<path d="M384.3,355.1h97.9v-.7H384.3v.7Z" class="g0_35"/>
<path d="M482.2,355.1h.7v-.7h-.7v.7Z" class="g0_35"/>
<path d="M482.9,355.1H825v-.7H482.9v.7Z" class="g0_35"/>
<path d="M110,418.4h97.7v-.8H110v.8Z" class="g0_35"/>
<path d="M207.7,418.4h.8v-.8h-.8v.8Z" class="g0_35"/>
<path d="M208.5,418.4h45.4v-.8H208.5v.8Z" class="g0_35"/>
<path d="M253.9,418.4h.7v-.8h-.7v.8Z" class="g0_35"/>
<path d="M254.6,418.4H383.5v-.8H254.6v.8Z" class="g0_35"/>
<path d="M383.5,418.4h.8v-.8h-.8v.8Z" class="g0_35"/>
<path d="M384.3,418.4h97.9v-.8H384.3v.8Z" class="g0_35"/>
<path d="M482.2,418.4h.7v-.8h-.7v.8Z" class="g0_35"/>
<path d="M482.9,418.4H825v-.8H482.9v.8Z" class="g0_35"/>
<path d="M110,448.1h97.7v-.8H110v.8Z" class="g0_35"/>
<path d="M207.7,448.1h.8v-.8h-.8v.8Z" class="g0_35"/>
<path d="M208.5,448.1h45.4v-.8H208.5v.8Z" class="g0_35"/>
<path d="M253.9,448.1h.7v-.8h-.7v.8Z" class="g0_35"/>
<path d="M254.6,448.1H383.5v-.8H254.6v.8Z" class="g0_35"/>
<path d="M383.5,448.1h.8v-.8h-.8v.8Z" class="g0_35"/>
<path d="M384.3,448.1h97.9v-.8H384.3v.8Z" class="g0_35"/>
<path d="M482.2,448.1h.7v-.8h-.7v.8Z" class="g0_35"/>
<path d="M482.9,448.1H825v-.8H482.9v.8Z" class="g0_35"/>
<path d="M110,511.5h97.7v-.7H110v.7Z" class="g0_35"/>
<path d="M207.7,511.5h.8v-.7h-.8v.7Z" class="g0_35"/>
<path d="M208.5,511.5h45.4v-.7H208.5v.7Z" class="g0_35"/>
<path d="M253.9,511.5h.7v-.7h-.7v.7Z" class="g0_35"/>
<path d="M254.6,511.5H383.5v-.7H254.6v.7Z" class="g0_35"/>
<path d="M383.5,511.5h.8v-.7h-.8v.7Z" class="g0_35"/>
<path d="M384.3,511.5h97.9v-.7H384.3v.7Z" class="g0_35"/>
<path d="M482.2,511.5h.7v-.7h-.7v.7Z" class="g0_35"/>
<path d="M482.9,511.5H825v-.7H482.9v.7Z" class="g0_35"/>
<path d="M110,574.8h97.7V574H110v.8Z" class="g0_35"/>
<path d="M207.7,574.8h.8V574h-.8v.8Z" class="g0_35"/>
<path d="M208.5,574.8h45.4V574H208.5v.8Z" class="g0_35"/>
<path d="M253.9,574.8h.7V574h-.7v.8Z" class="g0_35"/>
<path d="M254.6,574.8H383.5V574H254.6v.8Z" class="g0_35"/>
<path d="M383.5,574.8h.8V574h-.8v.8Z" class="g0_35"/>
<path d="M384.3,574.8h97.9V574H384.3v.8Z" class="g0_35"/>
<path d="M482.2,574.8h.7V574h-.7v.8Z" class="g0_35"/>
<path d="M482.9,574.8H825V574H482.9v.8Z" class="g0_35"/>
<path d="M110,638.2h97.7v-.8H110v.8Z" class="g0_35"/>
<path d="M207.7,638.2h.8v-.8h-.8v.8Z" class="g0_35"/>
<path d="M208.5,638.2h45.4v-.8H208.5v.8Z" class="g0_35"/>
<path d="M253.9,638.2h.7v-.8h-.7v.8Z" class="g0_35"/>
<path d="M254.6,638.2H383.5v-.8H254.6v.8Z" class="g0_35"/>
<path d="M383.5,638.2h.8v-.8h-.8v.8Z" class="g0_35"/>
<path d="M384.3,638.2h97.9v-.8H384.3v.8Z" class="g0_35"/>
<path d="M482.2,638.2h.7v-.8h-.7v.8Z" class="g0_35"/>
<path d="M482.9,638.2H825v-.8H482.9v.8Z" class="g0_35"/>
<path d="M110,701.4h97.7v-.7H110v.7Z" class="g0_35"/>
<path d="M207.7,701.4h.8v-.7h-.8v.7Z" class="g0_35"/>
<path d="M208.5,701.4h45.4v-.7H208.5v.7Z" class="g0_35"/>
<path d="M253.9,701.4h.7v-.7h-.7v.7Z" class="g0_35"/>
<path d="M254.6,701.4H383.5v-.7H254.6v.7Z" class="g0_35"/>
<path d="M383.5,701.4h.8v-.7h-.8v.7Z" class="g0_35"/>
<path d="M384.3,701.4h97.9v-.7H384.3v.7Z" class="g0_35"/>
<path d="M482.2,701.4h.7v-.7h-.7v.7Z" class="g0_35"/>
<path d="M482.9,701.4H825v-.7H482.9v.7Z" class="g0_35"/>
<path d="M110,764.9h97.7v-.8H110v.8Z" class="g0_35"/>
<path d="M207.7,764.9h.8v-.8h-.8v.8Z" class="g0_35"/>
<path d="M208.5,764.9h45.4v-.8H208.5v.8Z" class="g0_35"/>
<path d="M253.9,764.9h.7v-.8h-.7v.8Z" class="g0_35"/>
<path d="M254.6,764.9H383.5v-.8H254.6v.8Z" class="g0_35"/>
<path d="M383.5,764.9h.8v-.8h-.8v.8Z" class="g0_35"/>
<path d="M384.3,764.9h97.9v-.8H384.3v.8Z" class="g0_35"/>
<path d="M482.2,764.9h.7v-.8h-.7v.8Z" class="g0_35"/>
<path d="M482.9,764.9H825v-.8H482.9v.8Z" class="g0_35"/>
<path d="M110,828.1h97.7v-.7H110v.7Z" class="g0_35"/>
<path d="M207.7,828.1h.8v-.7h-.8v.7Z" class="g0_35"/>
<path d="M208.5,828.1h45.4v-.7H208.5v.7Z" class="g0_35"/>
<path d="M253.9,828.1h.7v-.7h-.7v.7Z" class="g0_35"/>
<path d="M254.6,828.1H383.5v-.7H254.6v.7Z" class="g0_35"/>
<path d="M383.5,828.1h.8v-.7h-.8v.7Z" class="g0_35"/>
<path d="M384.3,828.1h97.9v-.7H384.3v.7Z" class="g0_35"/>
<path d="M482.2,828.1h.7v-.7h-.7v.7Z" class="g0_35"/>
<path d="M482.9,828.1H825v-.7H482.9v.7Z" class="g0_35"/>
<path d="M110,891.6h97.7v-.8H110v.8Z" class="g0_35"/>
<path d="M207.7,891.6h.8v-.8h-.8v.8Z" class="g0_35"/>
<path d="M208.5,891.6h45.4v-.8H208.5v.8Z" class="g0_35"/>
<path d="M253.9,891.6h.7v-.8h-.7v.8Z" class="g0_35"/>
<path d="M254.6,891.6H383.5v-.8H254.6v.8Z" class="g0_35"/>
<path d="M383.5,891.6h.8v-.8h-.8v.8Z" class="g0_35"/>
<path d="M384.3,891.6h97.9v-.8H384.3v.8Z" class="g0_35"/>
<path d="M482.2,891.6h.7v-.8h-.7v.8Z" class="g0_35"/>
<path d="M482.9,891.6H825v-.8H482.9v.8Z" class="g0_35"/>
<path d="M110,954.8h97.7v-.7H110v.7Z" class="g0_35"/>
<path d="M207.7,954.8h.8v-.7h-.8v.7Z" class="g0_35"/>
<path d="M208.5,954.8h45.4v-.7H208.5v.7Z" class="g0_35"/>
<path d="M253.9,954.8h.7v-.7h-.7v.7Z" class="g0_35"/>
<path d="M254.6,954.8H383.5v-.7H254.6v.7Z" class="g0_35"/>
<path d="M383.5,954.8h.8v-.7h-.8v.7Z" class="g0_35"/>
<path d="M384.3,954.8h97.9v-.7H384.3v.7Z" class="g0_35"/>
<path d="M482.2,954.8h.7v-.7h-.7v.7Z" class="g0_35"/>
<path d="M482.9,954.8H825v-.7H482.9v.7Z" class="g0_35"/>
<path d="M110,1018.2h97.7v-.7H110v.7Z" class="g0_35"/>
<path d="M207.7,1018.2h.8v-.7h-.8v.7Z" class="g0_35"/>
<path d="M208.5,1018.2h45.4v-.7H208.5v.7Z" class="g0_35"/>
<path d="M253.9,1018.2h.7v-.7h-.7v.7Z" class="g0_35"/>
<path d="M254.6,1018.2H383.5v-.7H254.6v.7Z" class="g0_35"/>
<path d="M383.5,1018.2h.8v-.7h-.8v.7Z" class="g0_35"/>
<path d="M384.3,1018.2h97.9v-.7H384.3v.7Z" class="g0_35"/>
<path d="M482.2,1018.2h.7v-.7h-.7v.7Z" class="g0_35"/>
<path d="M482.9,1018.2H825v-.7H482.9v.7Z" class="g0_35"/>
<path d="M108.9,1081.7h98.8v-.8H108.9v.8Z" class="g0_35"/>
<path d="M206.6,1081.7h.8v-.8h-.8v.8Z" class="g0_35"/>
<path d="M207.4,1081.7h46.5v-.8H207.4v.8Z" class="g0_35"/>
<path d="M252.8,1081.7h.7v-.8h-.7v.8Z" class="g0_35"/>
<path d="M253.6,1081.7H383.5v-.8H253.6v.8Z" class="g0_35"/>
<path d="M382.4,1081.7h.8v-.8h-.8v.8Z" class="g0_35"/>
<path d="M383.2,1081.7h99v-.8h-99v.8Z" class="g0_35"/>
<path d="M481.1,1081.7h.7v-.8h-.7v.8Z" class="g0_35"/>
<path d="M481.8,1081.7H825v-.8H481.8v.8Z" class="g0_35"/>
</svg>