<?xml version="1.0" encoding="UTF-8" standalone="no"?>
<!DOCTYPE svg PUBLIC "-//W3C//DTD SVG 1.1//EN"
"http://www.w3.org/Graphics/SVG/1.1/DTD/svg11.dtd">
<svg viewBox="0 0 935 1210" version="1.1" xmlns="http://www.w3.org/2000/svg" xmlns:xlink="http://www.w3.org/1999/xlink">
<defs>
<style type="text/css"><![CDATA[
.g0_32{
fill: #00755C;
}
]]></style>
</defs>
<path d="M86.9,66.4H263.6V64.9H86.9v1.5Z" class="g0_32"/>
<path d="M263.6,66.4h1.5V64.9h-1.5v1.5Z" class="g0_32"/>
<path d="M265.1,66.4H849.2V64.9H265.1v1.5Z" class="g0_32"/>
<path d="M85.8,119.9H263.6v-1.5H85.8v1.5Z" class="g0_32"/>
<path d="M262.5,119.9H264v-1.5h-1.5v1.5Z" class="g0_32"/>
<path d="M264,119.9H849.2v-1.5H264v1.5Z" class="g0_32"/>
<path d="M84.7,1113.4H432.3v-.7H84.7v.7Z" class="g0_32"/>
<path d="M432.3,1113.4h.7v-.7h-.7v.7Z" class="g0_32"/>
<path d="M433,1113.4h66.6v-.7H433v.7Z" class="g0_32"/>
<path d="M499.6,1113.4h.7v-.7h-.7v.7Z" class="g0_32"/>
<path d="M500.3,1113.4H847v-.7H500.3v.7Z" class="g0_32"/>
<image preserveAspectRatio="none" x="89" y="67" width="172" height="51" xlink:href="img/1.png"/>
<image preserveAspectRatio="none" x="739" y="1124" width="107" height="41" xlink:href="img/2.png"/>
<path fill-rule="evenodd" d="M87.1,209.9h80.5v-2.2H87.1v2.2Z" class="g0_32"/>
<path d="M167.6,210.1h2.2v-.2h-2.2v.2Z" class="g0_32"/>
<path fill-rule="evenodd" d="M167.6,209.9h2.2v-2.2h-2.2v2.2Z" class="g0_32"/>
<path fill-rule="evenodd" d="M169.8,209.9H752v-2.2H169.8v2.2Z" class="g0_32"/>
<path d="M752,210.1h2.2v-.2H752v.2Z" class="g0_32"/>
<path fill-rule="evenodd" d="M752,209.9h2.2v-2.2H752v2.2Z" class="g0_32"/>
<path fill-rule="evenodd" d="M754.2,209.9h99.6v-2.2H754.2v2.2Z" class="g0_32"/>
<path fill-rule="evenodd" d="M167.6,260.5h2.2V210.1h-2.2v50.4Z" class="g0_32"/>
<path fill-rule="evenodd" d="M752,260.5h2.2V210.1H752v50.4Z" class="g0_32"/>
<path fill-rule="evenodd" d="M87.1,262.7h80.5v-2.2H87.1v2.2Z" class="g0_32"/>
<path fill-rule="evenodd" d="M167.6,262.9h2.2v-2.4h-2.2v2.4Z" class="g0_32"/>
<path fill-rule="evenodd" d="M169.8,262.7H752v-2.2H169.8v2.2Z" class="g0_32"/>
<path fill-rule="evenodd" d="M752,262.9h2.2v-2.4H752v2.4Z" class="g0_32"/>
<path fill-rule="evenodd" d="M754.2,262.7h99.6v-2.2H754.2v2.2Z" class="g0_32"/>
<path fill-rule="evenodd" d="M167.6,368.3h2.2V262.9h-2.2V368.3Z" class="g0_32"/>
<path fill-rule="evenodd" d="M752,368.3h2.2V262.9H752V368.3Z" class="g0_32"/>
<path fill-rule="evenodd" d="M87.1,370.5h80.5v-2.2H87.1v2.2Z" class="g0_32"/>
<path fill-rule="evenodd" d="M167.6,370.7h2.2v-2.4h-2.2v2.4Z" class="g0_32"/>
<path fill-rule="evenodd" d="M169.8,370.5H752v-2.2H169.8v2.2Z" class="g0_32"/>
<path fill-rule="evenodd" d="M752,370.7h2.2v-2.4H752v2.4Z" class="g0_32"/>
<path fill-rule="evenodd" d="M754.2,370.5h99.6v-2.2H754.2v2.2Z" class="g0_32"/>
<path fill-rule="evenodd" d="M167.6,424.2h2.2V370.7h-2.2v53.5Z" class="g0_32"/>
<path fill-rule="evenodd" d="M752,424.2h2.2V370.7H752v53.5Z" class="g0_32"/>
<path fill-rule="evenodd" d="M87.1,426.4h80.5v-2.2H87.1v2.2Z" class="g0_32"/>
<path fill-rule="evenodd" d="M167.6,426.6h2.2v-2.4h-2.2v2.4Z" class="g0_32"/>
<path fill-rule="evenodd" d="M169.8,426.4H752v-2.2H169.8v2.2Z" class="g0_32"/>
<path fill-rule="evenodd" d="M752,426.6h2.2v-2.4H752v2.4Z" class="g0_32"/>
<path fill-rule="evenodd" d="M754.2,426.4h99.6v-2.2H754.2v2.2Z" class="g0_32"/>
<path fill-rule="evenodd" d="M167.6,480.2h2.2V426.6h-2.2v53.6Z" class="g0_32"/>
<path fill-rule="evenodd" d="M752,480.2h2.2V426.6H752v53.6Z" class="g0_32"/>
<path fill-rule="evenodd" d="M87.1,482.4h80.5v-2.2H87.1v2.2Z" class="g0_32"/>
<path fill-rule="evenodd" d="M167.6,482.5h2.2v-2.3h-2.2v2.3Z" class="g0_32"/>
<path fill-rule="evenodd" d="M169.8,482.4H752v-2.2H169.8v2.2Z" class="g0_32"/>
<path fill-rule="evenodd" d="M752,482.5h2.2v-2.3H752v2.3Z" class="g0_32"/>
<path fill-rule="evenodd" d="M754.2,482.4h99.6v-2.2H754.2v2.2Z" class="g0_32"/>
<path fill-rule="evenodd" d="M167.6,535.9h2.2V482.5h-2.2v53.4Z" class="g0_32"/>
<path fill-rule="evenodd" d="M752,535.9h2.2V482.5H752v53.4Z" class="g0_32"/>
<path fill-rule="evenodd" d="M87.1,538.1h80.5v-2.2H87.1v2.2Z" class="g0_32"/>
<path fill-rule="evenodd" d="M167.6,538.3h2.2v-2.4h-2.2v2.4Z" class="g0_32"/>
<path fill-rule="evenodd" d="M169.8,538.1H752v-2.2H169.8v2.2Z" class="g0_32"/>
<path fill-rule="evenodd" d="M752,538.3h2.2v-2.4H752v2.4Z" class="g0_32"/>
<path fill-rule="evenodd" d="M754.2,538.1h99.6v-2.2H754.2v2.2Z" class="g0_32"/>
<path fill-rule="evenodd" d="M167.6,591.8h2.2V538.3h-2.2v53.5Z" class="g0_32"/>
<path fill-rule="evenodd" d="M752,591.8h2.2V538.3H752v53.5Z" class="g0_32"/>
<path fill-rule="evenodd" d="M87.1,594h80.5v-2.2H87.1V594Z" class="g0_32"/>
<path fill-rule="evenodd" d="M167.6,594.2h2.2v-2.4h-2.2v2.4Z" class="g0_32"/>
<path fill-rule="evenodd" d="M169.8,594H752v-2.2H169.8V594Z" class="g0_32"/>
<path fill-rule="evenodd" d="M752,594.2h2.2v-2.4H752v2.4Z" class="g0_32"/>
<path fill-rule="evenodd" d="M754.2,594h99.6v-2.2H754.2V594Z" class="g0_32"/>
<path fill-rule="evenodd" d="M167.6,630.3h2.2V594.2h-2.2v36.1Z" class="g0_32"/>
<path fill-rule="evenodd" d="M752,630.3h2.2V594.2H752v36.1Z" class="g0_32"/>
<path fill-rule="evenodd" d="M87.1,632.5h80.5v-2.2H87.1v2.2Z" class="g0_32"/>
<path fill-rule="evenodd" d="M167.6,632.7h2.2v-2.4h-2.2v2.4Z" class="g0_32"/>
<path fill-rule="evenodd" d="M169.8,632.5H752v-2.2H169.8v2.2Z" class="g0_32"/>
<path fill-rule="evenodd" d="M752,632.7h2.2v-2.4H752v2.4Z" class="g0_32"/>
<path fill-rule="evenodd" d="M754.2,632.5h99.6v-2.2H754.2v2.2Z" class="g0_32"/>
<path fill-rule="evenodd" d="M167.6,651.4h2.2V632.7h-2.2v18.7Z" class="g0_32"/>
<path fill-rule="evenodd" d="M752,651.4h2.2V632.7H752v18.7Z" class="g0_32"/>
<path fill-rule="evenodd" d="M87.1,653.6h80.5v-2.2H87.1v2.2Z" class="g0_32"/>
<path fill-rule="evenodd" d="M167.6,653.8h2.2v-2.4h-2.2v2.4Z" class="g0_32"/>
<path fill-rule="evenodd" d="M169.8,653.6H752v-2.2H169.8v2.2Z" class="g0_32"/>
<path fill-rule="evenodd" d="M752,653.8h2.2v-2.4H752v2.4Z" class="g0_32"/>
<path fill-rule="evenodd" d="M754.2,653.6h99.6v-2.2H754.2v2.2Z" class="g0_32"/>
<path fill-rule="evenodd" d="M167.6,707.3h2.2V653.8h-2.2v53.5Z" class="g0_32"/>
<path fill-rule="evenodd" d="M752,707.3h2.2V653.8H752v53.5Z" class="g0_32"/>
<path fill-rule="evenodd" d="M87.1,709.5h80.5v-2.2H87.1v2.2Z" class="g0_32"/>
<path fill-rule="evenodd" d="M167.6,709.7h2.2v-2.4h-2.2v2.4Z" class="g0_32"/>
<path fill-rule="evenodd" d="M169.8,709.5H752v-2.2H169.8v2.2Z" class="g0_32"/>
<path fill-rule="evenodd" d="M752,709.7h2.2v-2.4H752v2.4Z" class="g0_32"/>
<path fill-rule="evenodd" d="M754.2,709.5h99.6v-2.2H754.2v2.2Z" class="g0_32"/>
<path fill-rule="evenodd" d="M167.6,763h2.2V709.7h-2.2V763Z" class="g0_32"/>
<path fill-rule="evenodd" d="M752,763h2.2V709.7H752V763Z" class="g0_32"/>
<path fill-rule="evenodd" d="M87.1,765.2h80.5V763H87.1v2.2Z" class="g0_32"/>
<path fill-rule="evenodd" d="M167.6,765.4h2.2V763h-2.2v2.4Z" class="g0_32"/>
<path fill-rule="evenodd" d="M169.8,765.2H752V763H169.8v2.2Z" class="g0_32"/>
<path fill-rule="evenodd" d="M752,765.4h2.2V763H752v2.4Z" class="g0_32"/>
<path fill-rule="evenodd" d="M754.2,765.2h99.6V763H754.2v2.2Z" class="g0_32"/>
<path fill-rule="evenodd" d="M167.6,853.6h2.2V765.4h-2.2v88.2Z" class="g0_32"/>
<path fill-rule="evenodd" d="M752,853.6h2.2V765.4H752v88.2Z" class="g0_32"/>
<path fill-rule="evenodd" d="M87.1,855.8h80.5v-2.2H87.1v2.2Z" class="g0_32"/>
<path fill-rule="evenodd" d="M167.6,856h2.2v-2.4h-2.2V856Z" class="g0_32"/>
<path fill-rule="evenodd" d="M169.8,855.8H752v-2.2H169.8v2.2Z" class="g0_32"/>
<path fill-rule="evenodd" d="M752,856h2.2v-2.4H752V856Z" class="g0_32"/>
<path fill-rule="evenodd" d="M754.2,855.8h99.6v-2.2H754.2v2.2Z" class="g0_32"/>
<path fill-rule="evenodd" d="M167.6,909.5h2.2V856h-2.2v53.5Z" class="g0_32"/>
<path fill-rule="evenodd" d="M752,909.5h2.2V856H752v53.5Z" class="g0_32"/>
<path fill-rule="evenodd" d="M87.1,911.7h80.5v-2.2H87.1v2.2Z" class="g0_32"/>
<path fill-rule="evenodd" d="M167.6,911.9h2.2v-2.4h-2.2v2.4Z" class="g0_32"/>
<path fill-rule="evenodd" d="M169.8,911.7H752v-2.2H169.8v2.2Z" class="g0_32"/>
<path fill-rule="evenodd" d="M752,911.9h2.2v-2.4H752v2.4Z" class="g0_32"/>
<path fill-rule="evenodd" d="M754.2,911.7h99.6v-2.2H754.2v2.2Z" class="g0_32"/>
<path fill-rule="evenodd" d="M86,967.6h81.6v-2.2H86v2.2Z" class="g0_32"/>
<path fill-rule="evenodd" d="M167.6,965.4h2.2V911.9h-2.2v53.5Z" class="g0_32"/>
<path fill-rule="evenodd" d="M167.6,967.6h2.2v-2.2h-2.2v2.2Z" class="g0_32"/>
<path fill-rule="evenodd" d="M169.8,967.6H752v-2.2H169.8v2.2Z" class="g0_32"/>
<path fill-rule="evenodd" d="M752,965.4h2.2V911.9H752v53.5Z" class="g0_32"/>
<path fill-rule="evenodd" d="M752,967.6h2.2v-2.2H752v2.2Z" class="g0_32"/>
<path fill-rule="evenodd" d="M754.2,967.6h99.6v-2.2H754.2v2.2Z" class="g0_32"/>
</svg>