<?xml version="1.0" encoding="UTF-8" standalone="no"?>
<!DOCTYPE svg PUBLIC "-//W3C//DTD SVG 1.1//EN"
"http://www.w3.org/Graphics/SVG/1.1/DTD/svg11.dtd">
<svg viewBox="0 0 935 1210" version="1.1" xmlns="http://www.w3.org/2000/svg" xmlns:xlink="http://www.w3.org/1999/xlink">
<defs>
<style type="text/css"><![CDATA[
.g0_62{
fill: #00755C;
}
]]></style>
</defs>
<path d="M86.5,66.5H263.3V65.1H86.5v1.4Z" class="g0_62"/>
<path d="M263.3,66.5h1.4V65.1h-1.4v1.4Z" class="g0_62"/>
<path d="M264.7,66.5H848.8V65.1H264.7v1.4Z" class="g0_62"/>
<path d="M85.4,120.1H263.3v-1.5H85.4v1.5Z" class="g0_62"/>
<path d="M262.2,120.1h1.4v-1.5h-1.4v1.5Z" class="g0_62"/>
<path d="M263.6,120.1H848.8v-1.5H263.6v1.5Z" class="g0_62"/>
<path d="M84.3,1113.8H431.9v-.8H84.3v.8Z" class="g0_62"/>
<path d="M431.9,1113.8h.8v-.8h-.8v.8Z" class="g0_62"/>
<path d="M432.7,1113.8h66.5v-.8H432.7v.8Z" class="g0_62"/>
<path d="M499.2,1113.8h.8v-.8h-.8v.8Z" class="g0_62"/>
<path d="M499.9,1113.8H846.6v-.8H499.9v.8Z" class="g0_62"/>
<image preserveAspectRatio="none" x="87" y="67" width="172" height="51" xlink:href="img/1.png"/>
<image preserveAspectRatio="none" x="741" y="1125" width="106" height="41" xlink:href="img/2.png"/>
<path fill-rule="evenodd" d="M83.8,265.7h70.4v-2.2H83.8v2.2Z" class="g0_62"/>
<path d="M154.2,265.8h2.2v-.1h-2.2v.1Z" class="g0_62"/>
<path fill-rule="evenodd" d="M154.2,265.7h2.2v-2.2h-2.2v2.2Z" class="g0_62"/>
<path fill-rule="evenodd" d="M156.4,265.7H854v-2.2H156.4v2.2Z" class="g0_62"/>
<path fill-rule="evenodd" d="M154.2,293.7h2.2V265.8h-2.2v27.9Z" class="g0_62"/>
<path fill-rule="evenodd" d="M83.8,295.9h70.4v-2.2H83.8v2.2Z" class="g0_62"/>
<path fill-rule="evenodd" d="M154.2,296.1h2.2v-2.4h-2.2v2.4Z" class="g0_62"/>
<path fill-rule="evenodd" d="M156.4,295.9H854v-2.2H156.4v2.2Z" class="g0_62"/>
<path fill-rule="evenodd" d="M154.2,314.8h2.2V296.1h-2.2v18.7Z" class="g0_62"/>
<path fill-rule="evenodd" d="M83.8,317h70.4v-2.2H83.8V317Z" class="g0_62"/>
<path fill-rule="evenodd" d="M154.2,317.2h2.2v-2.4h-2.2v2.4Z" class="g0_62"/>
<path fill-rule="evenodd" d="M156.4,317H854v-2.2H156.4V317Z" class="g0_62"/>
<path fill-rule="evenodd" d="M154.2,351.8h2.2V317.2h-2.2v34.6Z" class="g0_62"/>
<path fill-rule="evenodd" d="M83.8,354h70.4v-2.2H83.8V354Z" class="g0_62"/>
<path fill-rule="evenodd" d="M154.2,354.2h2.2v-2.4h-2.2v2.4Z" class="g0_62"/>
<path fill-rule="evenodd" d="M156.4,354H854v-2.2H156.4V354Z" class="g0_62"/>
<path fill-rule="evenodd" d="M154.2,404.6h2.2V354.2h-2.2v50.4Z" class="g0_62"/>
<path fill-rule="evenodd" d="M83.8,406.8h70.4v-2.2H83.8v2.2Z" class="g0_62"/>
<path fill-rule="evenodd" d="M154.2,407h2.2v-2.4h-2.2V407Z" class="g0_62"/>
<path fill-rule="evenodd" d="M156.4,406.8H854v-2.2H156.4v2.2Z" class="g0_62"/>
<path fill-rule="evenodd" d="M82.7,459.6h71.5v-2.2H82.7v2.2Z" class="g0_62"/>
<path fill-rule="evenodd" d="M154.2,457.4h2.2V407h-2.2v50.4Z" class="g0_62"/>
<path fill-rule="evenodd" d="M154.2,459.6h2.2v-2.2h-2.2v2.2Z" class="g0_62"/>
<path fill-rule="evenodd" d="M156.4,459.6H854v-2.2H156.4v2.2Z" class="g0_62"/>
</svg>