<?xml version="1.0" encoding="UTF-8" standalone="no"?>
<!DOCTYPE svg PUBLIC "-//W3C//DTD SVG 1.1//EN"
"http://www.w3.org/Graphics/SVG/1.1/DTD/svg11.dtd">
<svg viewBox="0 0 1210 935" version="1.1" xmlns="http://www.w3.org/2000/svg" xmlns:xlink="http://www.w3.org/1999/xlink">
<defs>
<style type="text/css"><![CDATA[
.g0_59{
fill: #00755C;
}
]]></style>
</defs>
<path d="M86.9,66.4H263.6V64.9H86.9v1.5Z" class="g0_59"/>
<path d="M263.6,66.4h1.5V64.9h-1.5v1.5Z" class="g0_59"/>
<path d="M265.1,66.4h864.8V64.9H265.1v1.5Z" class="g0_59"/>
<path d="M85.8,119.9H263.6v-1.5H85.8v1.5Z" class="g0_59"/>
<path d="M262.5,119.9H264v-1.5h-1.5v1.5Z" class="g0_59"/>
<path d="M264,119.9h865.9v-1.5H264v1.5Z" class="g0_59"/>
<path d="M84.7,838.2H558.6v-.7H84.7v.7Z" class="g0_59"/>
<path d="M558.6,838.2h.8v-.7h-.8v.7Z" class="g0_59"/>
<path d="M559.3,838.2h91.2v-.7H559.3v.7Z" class="g0_59"/>
<path d="M650.5,838.2h.7v-.7h-.7v.7Z" class="g0_59"/>
<path d="M651.2,838.2h473v-.7h-473v.7Z" class="g0_59"/>
<image preserveAspectRatio="none" x="87" y="67" width="172" height="51" xlink:href="img/1.png"/>
<image preserveAspectRatio="none" x="1019" y="849" width="105" height="41" xlink:href="img/2.png"/>
<path fill-rule="evenodd" d="M86.4,193.6h81v-2.2h-81v2.2Z" class="g0_59"/>
<path d="M167.4,193.8h2.2v-.2h-2.2v.2Z" class="g0_59"/>
<path fill-rule="evenodd" d="M167.4,193.6h2.2v-2.2h-2.2v2.2Z" class="g0_59"/>
<path fill-rule="evenodd" d="M169.6,193.6H485.7v-2.2H169.6v2.2Z" class="g0_59"/>
<path d="M485.7,193.8h2.2v-.2h-2.2v.2Z" class="g0_59"/>
<path fill-rule="evenodd" d="M485.7,193.6h2.2v-2.2h-2.2v2.2Z" class="g0_59"/>
<path fill-rule="evenodd" d="M487.9,193.6H804.1v-2.2H487.9v2.2Z" class="g0_59"/>
<path d="M804.1,193.8h2.2v-.2h-2.2v.2Z" class="g0_59"/>
<path fill-rule="evenodd" d="M804.1,193.6h2.2v-2.2h-2.2v2.2Z" class="g0_59"/>
<path fill-rule="evenodd" d="M806.3,193.6h317.3v-2.2H806.3v2.2Z" class="g0_59"/>
<path fill-rule="evenodd" d="M167.4,221.6h2.2V193.8h-2.2v27.8Z" class="g0_59"/>
<path fill-rule="evenodd" d="M485.7,221.6h2.2V193.8h-2.2v27.8Z" class="g0_59"/>
<path fill-rule="evenodd" d="M804.1,221.6h2.2V193.8h-2.2v27.8Z" class="g0_59"/>
<path fill-rule="evenodd" d="M86.4,223.8h81v-2.2h-81v2.2Z" class="g0_59"/>
<path fill-rule="evenodd" d="M167.4,224h2.2v-2.3h-2.2V224Z" class="g0_59"/>
<path fill-rule="evenodd" d="M169.6,223.8H485.7v-2.2H169.6v2.2Z" class="g0_59"/>
<path fill-rule="evenodd" d="M485.7,224h2.2v-2.3h-2.2V224Z" class="g0_59"/>
<path fill-rule="evenodd" d="M487.9,223.8H804.1v-2.2H487.9v2.2Z" class="g0_59"/>
<path fill-rule="evenodd" d="M804.1,224h2.2v-2.3h-2.2V224Z" class="g0_59"/>
<path fill-rule="evenodd" d="M806.3,223.8h317.3v-2.2H806.3v2.2Z" class="g0_59"/>
<path fill-rule="evenodd" d="M167.4,335.7h2.2V224h-2.2V335.7Z" class="g0_59"/>
<path fill-rule="evenodd" d="M485.7,335.7h2.2V224h-2.2V335.7Z" class="g0_59"/>
<path fill-rule="evenodd" d="M804.1,335.7h2.2V224h-2.2V335.7Z" class="g0_59"/>
<path fill-rule="evenodd" d="M86.4,337.9h81v-2.2h-81v2.2Z" class="g0_59"/>
<path fill-rule="evenodd" d="M167.4,338.1h2.2v-2.4h-2.2v2.4Z" class="g0_59"/>
<path fill-rule="evenodd" d="M169.6,337.9H485.7v-2.2H169.6v2.2Z" class="g0_59"/>
<path fill-rule="evenodd" d="M485.7,338.1h2.2v-2.4h-2.2v2.4Z" class="g0_59"/>
<path fill-rule="evenodd" d="M487.9,337.9H804.1v-2.2H487.9v2.2Z" class="g0_59"/>
<path fill-rule="evenodd" d="M804.1,338.1h2.2v-2.4h-2.2v2.4Z" class="g0_59"/>
<path fill-rule="evenodd" d="M806.3,337.9h317.3v-2.2H806.3v2.2Z" class="g0_59"/>
<path fill-rule="evenodd" d="M167.4,628.8h2.2V338.1h-2.2V628.8Z" class="g0_59"/>
<path fill-rule="evenodd" d="M485.7,628.8h2.2V338.1h-2.2V628.8Z" class="g0_59"/>
<path fill-rule="evenodd" d="M804.1,628.8h2.2V338.1h-2.2V628.8Z" class="g0_59"/>
<path fill-rule="evenodd" d="M86.4,631h81v-2.2h-81V631Z" class="g0_59"/>
<path fill-rule="evenodd" d="M167.4,631.2h2.2v-2.4h-2.2v2.4Z" class="g0_59"/>
<path fill-rule="evenodd" d="M169.6,631H485.7v-2.2H169.6V631Z" class="g0_59"/>
<path fill-rule="evenodd" d="M485.7,631.2h2.2v-2.4h-2.2v2.4Z" class="g0_59"/>
<path fill-rule="evenodd" d="M487.9,631H804.1v-2.2H487.9V631Z" class="g0_59"/>
<path fill-rule="evenodd" d="M804.1,631.2h2.2v-2.4h-2.2v2.4Z" class="g0_59"/>
<path fill-rule="evenodd" d="M806.3,631h317.3v-2.2H806.3V631Z" class="g0_59"/>
<path fill-rule="evenodd" d="M85.2,760.8h82.2v-2.2H85.2v2.2Z" class="g0_59"/>
<path fill-rule="evenodd" d="M167.4,758.6h2.2V631.2h-2.2V758.6Z" class="g0_59"/>
<path fill-rule="evenodd" d="M167.4,760.8h2.2v-2.2h-2.2v2.2Z" class="g0_59"/>
<path fill-rule="evenodd" d="M169.6,760.8H485.7v-2.2H169.6v2.2Z" class="g0_59"/>
<path fill-rule="evenodd" d="M485.7,758.6h2.2V631.2h-2.2V758.6Z" class="g0_59"/>
<path fill-rule="evenodd" d="M485.7,760.8h2.2v-2.2h-2.2v2.2Z" class="g0_59"/>
<path fill-rule="evenodd" d="M487.9,760.8H804.1v-2.2H487.9v2.2Z" class="g0_59"/>
<path fill-rule="evenodd" d="M804.1,758.6h2.2V631.2h-2.2V758.6Z" class="g0_59"/>
<path fill-rule="evenodd" d="M804.1,760.8h2.2v-2.2h-2.2v2.2Z" class="g0_59"/>
<path fill-rule="evenodd" d="M806.3,760.8h317.3v-2.2H806.3v2.2Z" class="g0_59"/>
</svg>