<?xml version="1.0" encoding="UTF-8" standalone="no"?>
<!DOCTYPE svg PUBLIC "-//W3C//DTD SVG 1.1//EN"
"http://www.w3.org/Graphics/SVG/1.1/DTD/svg11.dtd">
<svg viewBox="0 0 1210 935" version="1.1" xmlns="http://www.w3.org/2000/svg" xmlns:xlink="http://www.w3.org/1999/xlink">
<defs>
<style type="text/css"><![CDATA[
.g0_60{
fill: #00755C;
}
]]></style>
</defs>
<path d="M86.9,66.4H263.6V64.9H86.9v1.5Z" class="g0_60"/>
<path d="M263.6,66.4h1.5V64.9h-1.5v1.5Z" class="g0_60"/>
<path d="M265.1,66.4h864.8V64.9H265.1v1.5Z" class="g0_60"/>
<path d="M85.8,119.9H263.6v-1.5H85.8v1.5Z" class="g0_60"/>
<path d="M262.5,119.9H264v-1.5h-1.5v1.5Z" class="g0_60"/>
<path d="M264,119.9h865.9v-1.5H264v1.5Z" class="g0_60"/>
<path d="M84.7,838.2H558.6v-.7H84.7v.7Z" class="g0_60"/>
<path d="M558.6,838.2h.8v-.7h-.8v.7Z" class="g0_60"/>
<path d="M559.3,838.2h91.2v-.7H559.3v.7Z" class="g0_60"/>
<path d="M650.5,838.2h.7v-.7h-.7v.7Z" class="g0_60"/>
<path d="M651.2,838.2h473v-.7h-473v.7Z" class="g0_60"/>
<image preserveAspectRatio="none" x="87" y="67" width="172" height="51" xlink:href="img/1.png"/>
<image preserveAspectRatio="none" x="1019" y="849" width="105" height="41" xlink:href="img/2.png"/>
<path fill-rule="evenodd" d="M86.4,192.3h81v-2.2h-81v2.2Z" class="g0_60"/>
<path d="M167.4,192.5h2.2v-.2h-2.2v.2Z" class="g0_60"/>
<path fill-rule="evenodd" d="M167.4,192.3h2.2v-2.2h-2.2v2.2Z" class="g0_60"/>
<path fill-rule="evenodd" d="M169.6,192.3H485.7v-2.2H169.6v2.2Z" class="g0_60"/>
<path d="M485.7,192.5h2.2v-.2h-2.2v.2Z" class="g0_60"/>
<path fill-rule="evenodd" d="M485.7,192.3h2.2v-2.2h-2.2v2.2Z" class="g0_60"/>
<path fill-rule="evenodd" d="M487.9,192.3H804.1v-2.2H487.9v2.2Z" class="g0_60"/>
<path d="M804.1,192.5h2.2v-.2h-2.2v.2Z" class="g0_60"/>
<path fill-rule="evenodd" d="M804.1,192.3h2.2v-2.2h-2.2v2.2Z" class="g0_60"/>
<path fill-rule="evenodd" d="M806.3,192.3h317.3v-2.2H806.3v2.2Z" class="g0_60"/>
<path fill-rule="evenodd" d="M167.4,220.5h2.2v-28h-2.2v28Z" class="g0_60"/>
<path fill-rule="evenodd" d="M485.7,220.5h2.2v-28h-2.2v28Z" class="g0_60"/>
<path fill-rule="evenodd" d="M804.1,220.5h2.2v-28h-2.2v28Z" class="g0_60"/>
<path fill-rule="evenodd" d="M86.4,222.7h81v-2.2h-81v2.2Z" class="g0_60"/>
<path fill-rule="evenodd" d="M167.4,222.9h2.2v-2.3h-2.2v2.3Z" class="g0_60"/>
<path fill-rule="evenodd" d="M169.6,222.7H485.7v-2.2H169.6v2.2Z" class="g0_60"/>
<path fill-rule="evenodd" d="M485.7,222.9h2.2v-2.3h-2.2v2.3Z" class="g0_60"/>
<path fill-rule="evenodd" d="M487.9,222.7H804.1v-2.2H487.9v2.2Z" class="g0_60"/>
<path fill-rule="evenodd" d="M804.1,222.9h2.2v-2.3h-2.2v2.3Z" class="g0_60"/>
<path fill-rule="evenodd" d="M806.3,222.7h317.3v-2.2H806.3v2.2Z" class="g0_60"/>
<path fill-rule="evenodd" d="M167.4,529.3h2.2V222.9h-2.2V529.3Z" class="g0_60"/>
<path fill-rule="evenodd" d="M485.7,529.3h2.2V222.9h-2.2V529.3Z" class="g0_60"/>
<path fill-rule="evenodd" d="M804.1,529.3h2.2V222.9h-2.2V529.3Z" class="g0_60"/>
<path fill-rule="evenodd" d="M86.4,531.5h81v-2.2h-81v2.2Z" class="g0_60"/>
<path fill-rule="evenodd" d="M167.4,531.7h2.2v-2.4h-2.2v2.4Z" class="g0_60"/>
<path fill-rule="evenodd" d="M169.6,531.5H485.7v-2.2H169.6v2.2Z" class="g0_60"/>
<path fill-rule="evenodd" d="M485.7,531.7h2.2v-2.4h-2.2v2.4Z" class="g0_60"/>
<path fill-rule="evenodd" d="M487.9,531.5H804.1v-2.2H487.9v2.2Z" class="g0_60"/>
<path fill-rule="evenodd" d="M804.1,531.7h2.2v-2.4h-2.2v2.4Z" class="g0_60"/>
<path fill-rule="evenodd" d="M806.3,531.5h317.3v-2.2H806.3v2.2Z" class="g0_60"/>
<path fill-rule="evenodd" d="M167.4,643.3h2.2V531.7h-2.2V643.3Z" class="g0_60"/>
<path fill-rule="evenodd" d="M485.7,643.3h2.2V531.7h-2.2V643.3Z" class="g0_60"/>
<path fill-rule="evenodd" d="M804.1,643.3h2.2V531.7h-2.2V643.3Z" class="g0_60"/>
<path fill-rule="evenodd" d="M86.4,645.5h81v-2.2h-81v2.2Z" class="g0_60"/>
<path fill-rule="evenodd" d="M167.4,645.7h2.2v-2.4h-2.2v2.4Z" class="g0_60"/>
<path fill-rule="evenodd" d="M169.6,645.5H485.7v-2.2H169.6v2.2Z" class="g0_60"/>
<path fill-rule="evenodd" d="M485.7,645.7h2.2v-2.4h-2.2v2.4Z" class="g0_60"/>
<path fill-rule="evenodd" d="M487.9,645.5H804.1v-2.2H487.9v2.2Z" class="g0_60"/>
<path fill-rule="evenodd" d="M804.1,645.7h2.2v-2.4h-2.2v2.4Z" class="g0_60"/>
<path fill-rule="evenodd" d="M806.3,645.5h317.3v-2.2H806.3v2.2Z" class="g0_60"/>
<path fill-rule="evenodd" d="M85.2,748.9h82.2v-2.2H85.2v2.2Z" class="g0_60"/>
<path fill-rule="evenodd" d="M167.4,746.7h2.2v-101h-2.2v101Z" class="g0_60"/>
<path fill-rule="evenodd" d="M167.4,748.9h2.2v-2.2h-2.2v2.2Z" class="g0_60"/>
<path fill-rule="evenodd" d="M169.6,748.9H485.7v-2.2H169.6v2.2Z" class="g0_60"/>
<path fill-rule="evenodd" d="M485.7,746.7h2.2v-101h-2.2v101Z" class="g0_60"/>
<path fill-rule="evenodd" d="M485.7,748.9h2.2v-2.2h-2.2v2.2Z" class="g0_60"/>
<path fill-rule="evenodd" d="M487.9,748.9H804.1v-2.2H487.9v2.2Z" class="g0_60"/>
<path fill-rule="evenodd" d="M804.1,746.7h2.2v-101h-2.2v101Z" class="g0_60"/>
<path fill-rule="evenodd" d="M804.1,748.9h2.2v-2.2h-2.2v2.2Z" class="g0_60"/>
<path fill-rule="evenodd" d="M806.3,748.9h317.3v-2.2H806.3v2.2Z" class="g0_60"/>
</svg>