<?xml version="1.0" encoding="UTF-8" standalone="no"?>
<!DOCTYPE svg PUBLIC "-//W3C//DTD SVG 1.1//EN"
"http://www.w3.org/Graphics/SVG/1.1/DTD/svg11.dtd">
<svg viewBox="0 0 1210 935" version="1.1" xmlns="http://www.w3.org/2000/svg" xmlns:xlink="http://www.w3.org/1999/xlink">
<defs>
<style type="text/css"><![CDATA[
.g0_21{
}
]]></style>
</defs>
<path d="M110,111.1H219.1v-.7H110v.7Z" class="g0_21"/>
<path d="M219.1,111.1h.7v-.7h-.7v.7Z" class="g0_21"/>
<path d="M219.8,111.1H393.6v-.7H219.8v.7Z" class="g0_21"/>
<path d="M393.6,111.1h.8v-.7h-.8v.7Z" class="g0_21"/>
<path d="M394.3,111.1h63.9v-.7H394.3v.7Z" class="g0_21"/>
<path d="M458.2,111.1h.7v-.7h-.7v.7Z" class="g0_21"/>
<path d="M458.9,111.1h89.6v-.7H458.9v.7Z" class="g0_21"/>
<path d="M548.5,111.1h.8v-.7h-.8v.7Z" class="g0_21"/>
<path d="M549.3,111.1H779.9v-.7H549.3v.7Z" class="g0_21"/>
<path d="M779.9,111.1h.7v-.7h-.7v.7Z" class="g0_21"/>
<path d="M780.6,111.1H884.2v-.7H780.6v.7Z" class="g0_21"/>
<path d="M884.2,111.1h.7v-.7h-.7v.7Z" class="g0_21"/>
<path d="M884.9,111.1h137.4v-.7H884.9v.7Z" class="g0_21"/>
<path d="M1022.3,111.1h.7v-.7h-.7v.7Z" class="g0_21"/>
<path d="M1023,111.1h77v-.7h-77v.7Z" class="g0_21"/>
<path d="M110,191.2H219.1v-.7H110v.7Z" class="g0_21"/>
<path d="M219.1,191.2h.7v-.7h-.7v.7Z" class="g0_21"/>
<path d="M219.8,191.2H393.6v-.7H219.8v.7Z" class="g0_21"/>
<path d="M393.6,191.2h.8v-.7h-.8v.7Z" class="g0_21"/>
<path d="M394.3,191.2h63.9v-.7H394.3v.7Z" class="g0_21"/>
<path d="M458.2,191.2h.7v-.7h-.7v.7Z" class="g0_21"/>
<path d="M458.9,191.2h89.6v-.7H458.9v.7Z" class="g0_21"/>
<path d="M548.5,191.2h.8v-.7h-.8v.7Z" class="g0_21"/>
<path d="M549.3,191.2H779.9v-.7H549.3v.7Z" class="g0_21"/>
<path d="M779.9,191.2h.7v-.7h-.7v.7Z" class="g0_21"/>
<path d="M780.6,191.2H884.2v-.7H780.6v.7Z" class="g0_21"/>
<path d="M884.2,191.2h.7v-.7h-.7v.7Z" class="g0_21"/>
<path d="M884.9,191.2h137.4v-.7H884.9v.7Z" class="g0_21"/>
<path d="M1022.3,191.2h.7v-.7h-.7v.7Z" class="g0_21"/>
<path d="M1023,191.2h77v-.7h-77v.7Z" class="g0_21"/>
<path d="M110,220.9H219.1v-.7H110v.7Z" class="g0_21"/>
<path d="M219.1,220.9h.7v-.7h-.7v.7Z" class="g0_21"/>
<path d="M219.8,220.9H393.6v-.7H219.8v.7Z" class="g0_21"/>
<path d="M393.6,220.9h.8v-.7h-.8v.7Z" class="g0_21"/>
<path d="M394.3,220.9h63.9v-.7H394.3v.7Z" class="g0_21"/>
<path d="M458.2,220.9h.7v-.7h-.7v.7Z" class="g0_21"/>
<path d="M458.9,220.9h89.6v-.7H458.9v.7Z" class="g0_21"/>
<path d="M548.5,220.9h.8v-.7h-.8v.7Z" class="g0_21"/>
<path d="M549.3,220.9H779.9v-.7H549.3v.7Z" class="g0_21"/>
<path d="M779.9,220.9h.7v-.7h-.7v.7Z" class="g0_21"/>
<path d="M780.6,220.9H884.2v-.7H780.6v.7Z" class="g0_21"/>
<path d="M884.2,220.9h.7v-.7h-.7v.7Z" class="g0_21"/>
<path d="M884.9,220.9h137.4v-.7H884.9v.7Z" class="g0_21"/>
<path d="M1022.3,220.9h.7v-.7h-.7v.7Z" class="g0_21"/>
<path d="M1023,220.9h77v-.7h-77v.7Z" class="g0_21"/>
<path d="M219.1,301H393.6v-.7H219.1v.7Z" class="g0_21"/>
<path d="M393.6,301h.8v-.7h-.8v.7Z" class="g0_21"/>
<path d="M394.3,301h63.9v-.7H394.3v.7Z" class="g0_21"/>
<path d="M458.2,301h.7v-.7h-.7v.7Z" class="g0_21"/>
<path d="M458.9,301h89.6v-.7H458.9v.7Z" class="g0_21"/>
<path d="M548.5,301h.8v-.7h-.8v.7Z" class="g0_21"/>
<path d="M549.3,301H779.9v-.7H549.3v.7Z" class="g0_21"/>
<path d="M779.9,301h.7v-.7h-.7v.7Z" class="g0_21"/>
<path d="M780.6,301H884.2v-.7H780.6v.7Z" class="g0_21"/>
<path d="M884.2,301h.7v-.7h-.7v.7Z" class="g0_21"/>
<path d="M884.9,301h137.4v-.7H884.9v.7Z" class="g0_21"/>
<path d="M1022.3,301h.7v-.7h-.7v.7Z" class="g0_21"/>
<path d="M1023,301h77v-.7h-77v.7Z" class="g0_21"/>
<path d="M219.1,381.2H393.6v-.8H219.1v.8Z" class="g0_21"/>
<path d="M393.6,381.2h.8v-.8h-.8v.8Z" class="g0_21"/>
<path d="M394.3,381.2h63.9v-.8H394.3v.8Z" class="g0_21"/>
<path d="M458.2,381.2h.7v-.8h-.7v.8Z" class="g0_21"/>
<path d="M458.9,381.2h89.6v-.8H458.9v.8Z" class="g0_21"/>
<path d="M548.5,381.2h.8v-.8h-.8v.8Z" class="g0_21"/>
<path d="M549.3,381.2H779.9v-.8H549.3v.8Z" class="g0_21"/>
<path d="M779.9,381.2h.7v-.8h-.7v.8Z" class="g0_21"/>
<path d="M780.6,381.2H884.2v-.8H780.6v.8Z" class="g0_21"/>
<path d="M884.2,381.2h.7v-.8h-.7v.8Z" class="g0_21"/>
<path d="M884.9,381.2h137.4v-.8H884.9v.8Z" class="g0_21"/>
<path d="M1022.3,381.2h.7v-.8h-.7v.8Z" class="g0_21"/>
<path d="M1023,381.2h77v-.8h-77v.8Z" class="g0_21"/>
<path d="M219.1,461.3H393.6v-.8H219.1v.8Z" class="g0_21"/>
<path d="M393.6,461.3h.8v-.8h-.8v.8Z" class="g0_21"/>
<path d="M394.3,461.3h63.9v-.8H394.3v.8Z" class="g0_21"/>
<path d="M458.2,461.3h.7v-.8h-.7v.8Z" class="g0_21"/>
<path d="M458.9,461.3h89.6v-.8H458.9v.8Z" class="g0_21"/>
<path d="M548.5,461.3h.8v-.8h-.8v.8Z" class="g0_21"/>
<path d="M549.3,461.3H779.9v-.8H549.3v.8Z" class="g0_21"/>
<path d="M779.9,461.3h.7v-.8h-.7v.8Z" class="g0_21"/>
<path d="M780.6,461.3H884.2v-.8H780.6v.8Z" class="g0_21"/>
<path d="M884.2,461.3h.7v-.8h-.7v.8Z" class="g0_21"/>
<path d="M884.9,461.3h137.4v-.8H884.9v.8Z" class="g0_21"/>
<path d="M1022.3,461.3h.7v-.8h-.7v.8Z" class="g0_21"/>
<path d="M1023,461.3h77v-.8h-77v.8Z" class="g0_21"/>
<path d="M219.1,524.7H393.6V524H219.1v.7Z" class="g0_21"/>
<path d="M393.6,524.7h.8V524h-.8v.7Z" class="g0_21"/>
<path d="M394.3,524.7h63.9V524H394.3v.7Z" class="g0_21"/>
<path d="M458.2,524.7h.7V524h-.7v.7Z" class="g0_21"/>
<path d="M458.9,524.7h89.6V524H458.9v.7Z" class="g0_21"/>
<path d="M548.5,524.7h.8V524h-.8v.7Z" class="g0_21"/>
<path d="M549.3,524.7H779.9V524H549.3v.7Z" class="g0_21"/>
<path d="M779.9,524.7h.7V524h-.7v.7Z" class="g0_21"/>
<path d="M780.6,524.7H884.2V524H780.6v.7Z" class="g0_21"/>
<path d="M884.2,524.7h.7V524h-.7v.7Z" class="g0_21"/>
<path d="M884.9,524.7h137.4V524H884.9v.7Z" class="g0_21"/>
<path d="M1022.3,524.7h.7V524h-.7v.7Z" class="g0_21"/>
<path d="M1023,524.7h77V524h-77v.7Z" class="g0_21"/>
<path d="M110,571.3H219.1v-.8H110v.8Z" class="g0_21"/>
<path d="M219.1,571.3h.7v-.8h-.7v.8Z" class="g0_21"/>
<path d="M219.8,571.3H393.6v-.8H219.8v.8Z" class="g0_21"/>
<path d="M393.6,571.3h.8v-.8h-.8v.8Z" class="g0_21"/>
<path d="M394.3,571.3h63.9v-.8H394.3v.8Z" class="g0_21"/>
<path d="M458.2,571.3h.7v-.8h-.7v.8Z" class="g0_21"/>
<path d="M458.9,571.3h89.6v-.8H458.9v.8Z" class="g0_21"/>
<path d="M548.5,571.3h.8v-.8h-.8v.8Z" class="g0_21"/>
<path d="M549.3,571.3H779.9v-.8H549.3v.8Z" class="g0_21"/>
<path d="M779.9,571.3h.7v-.8h-.7v.8Z" class="g0_21"/>
<path d="M780.6,571.3H884.2v-.8H780.6v.8Z" class="g0_21"/>
<path d="M884.2,571.3h.7v-.8h-.7v.8Z" class="g0_21"/>
<path d="M884.9,571.3h137.4v-.8H884.9v.8Z" class="g0_21"/>
<path d="M1022.3,571.3h.7v-.8h-.7v.8Z" class="g0_21"/>
<path d="M1023,571.3h77v-.8h-77v.8Z" class="g0_21"/>
<path d="M219.1,651.4H393.6v-.7H219.1v.7Z" class="g0_21"/>
<path d="M393.6,651.4h.8v-.7h-.8v.7Z" class="g0_21"/>
<path d="M394.3,651.4h63.9v-.7H394.3v.7Z" class="g0_21"/>
<path d="M458.2,651.4h.7v-.7h-.7v.7Z" class="g0_21"/>
<path d="M458.9,651.4h89.6v-.7H458.9v.7Z" class="g0_21"/>
<path d="M548.5,651.4h.8v-.7h-.8v.7Z" class="g0_21"/>
<path d="M549.3,651.4H779.9v-.7H549.3v.7Z" class="g0_21"/>
<path d="M779.9,651.4h.7v-.7h-.7v.7Z" class="g0_21"/>
<path d="M780.6,651.4H884.2v-.7H780.6v.7Z" class="g0_21"/>
<path d="M884.2,651.4h.7v-.7h-.7v.7Z" class="g0_21"/>
<path d="M884.9,651.4h137.4v-.7H884.9v.7Z" class="g0_21"/>
<path d="M1022.3,651.4h.7v-.7h-.7v.7Z" class="g0_21"/>
<path d="M1023,651.4h77v-.7h-77v.7Z" class="g0_21"/>
<path d="M110,815.5H219.1v-.8H110v.8Z" class="g0_21"/>
<path d="M219.1,815.5h.7v-.8h-.7v.8Z" class="g0_21"/>
<path d="M219.8,815.5H393.6v-.8H219.8v.8Z" class="g0_21"/>
<path d="M393.6,815.5h.8v-.8h-.8v.8Z" class="g0_21"/>
<path d="M394.3,815.5h63.9v-.8H394.3v.8Z" class="g0_21"/>
<path d="M458.2,815.5h.7v-.8h-.7v.8Z" class="g0_21"/>
<path d="M458.9,815.5h89.6v-.8H458.9v.8Z" class="g0_21"/>
<path d="M548.5,815.5h.8v-.8h-.8v.8Z" class="g0_21"/>
<path d="M549.3,815.5H779.9v-.8H549.3v.8Z" class="g0_21"/>
<path d="M779.9,815.5h.7v-.8h-.7v.8Z" class="g0_21"/>
<path d="M780.6,815.5H884.2v-.8H780.6v.8Z" class="g0_21"/>
<path d="M884.2,815.5h.7v-.8h-.7v.8Z" class="g0_21"/>
<path d="M884.9,815.5h137.4v-.8H884.9v.8Z" class="g0_21"/>
<path d="M1022.3,815.5h.7v-.8h-.7v.8Z" class="g0_21"/>
<path d="M1023,815.5h77v-.8h-77v.8Z" class="g0_21"/>
</svg>