<?xml version="1.0" encoding="UTF-8" standalone="no"?>
<!DOCTYPE svg PUBLIC "-//W3C//DTD SVG 1.1//EN"
"http://www.w3.org/Graphics/SVG/1.1/DTD/svg11.dtd">
<svg viewBox="0 0 935 1210" version="1.1" xmlns="http://www.w3.org/2000/svg" xmlns:xlink="http://www.w3.org/1999/xlink">
<defs>
<style type="text/css"><![CDATA[
.g0_30{
fill: #00755C;
}
]]></style>
</defs>
<path d="M86.9,66.4H263.6V64.9H86.9v1.5Z" class="g0_30"/>
<path d="M263.6,66.4h1.5V64.9h-1.5v1.5Z" class="g0_30"/>
<path d="M265.1,66.4H849.2V64.9H265.1v1.5Z" class="g0_30"/>
<path d="M85.8,119.9H263.6v-1.5H85.8v1.5Z" class="g0_30"/>
<path d="M262.5,119.9H264v-1.5h-1.5v1.5Z" class="g0_30"/>
<path d="M264,119.9H849.2v-1.5H264v1.5Z" class="g0_30"/>
<path d="M84.7,1113.4H432.3v-.7H84.7v.7Z" class="g0_30"/>
<path d="M432.3,1113.4h.7v-.7h-.7v.7Z" class="g0_30"/>
<path d="M433,1113.4h66.6v-.7H433v.7Z" class="g0_30"/>
<path d="M499.6,1113.4h.7v-.7h-.7v.7Z" class="g0_30"/>
<path d="M500.3,1113.4H847v-.7H500.3v.7Z" class="g0_30"/>
<image preserveAspectRatio="none" x="89" y="67" width="172" height="51" xlink:href="img/1.png"/>
<image preserveAspectRatio="none" x="739" y="1124" width="107" height="41" xlink:href="img/2.png"/>
<path fill-rule="evenodd" d="M87.1,209.9h80.5v-2.2H87.1v2.2Z" class="g0_30"/>
<path d="M167.6,210.1h2.2v-.2h-2.2v.2Z" class="g0_30"/>
<path fill-rule="evenodd" d="M167.6,209.9h2.2v-2.2h-2.2v2.2Z" class="g0_30"/>
<path fill-rule="evenodd" d="M169.8,209.9H752v-2.2H169.8v2.2Z" class="g0_30"/>
<path d="M752,210.1h2.2v-.2H752v.2Z" class="g0_30"/>
<path fill-rule="evenodd" d="M752,209.9h2.2v-2.2H752v2.2Z" class="g0_30"/>
<path fill-rule="evenodd" d="M754.2,209.9h99.6v-2.2H754.2v2.2Z" class="g0_30"/>
<path fill-rule="evenodd" d="M167.6,260.5h2.2V210.1h-2.2v50.4Z" class="g0_30"/>
<path fill-rule="evenodd" d="M752,260.5h2.2V210.1H752v50.4Z" class="g0_30"/>
<path fill-rule="evenodd" d="M87.1,262.7h80.5v-2.2H87.1v2.2Z" class="g0_30"/>
<path fill-rule="evenodd" d="M167.6,262.9h2.2v-2.4h-2.2v2.4Z" class="g0_30"/>
<path fill-rule="evenodd" d="M169.8,262.7H752v-2.2H169.8v2.2Z" class="g0_30"/>
<path fill-rule="evenodd" d="M752,262.9h2.2v-2.4H752v2.4Z" class="g0_30"/>
<path fill-rule="evenodd" d="M754.2,262.7h99.6v-2.2H754.2v2.2Z" class="g0_30"/>
<path fill-rule="evenodd" d="M167.6,314.8h2.2V262.9h-2.2v51.9Z" class="g0_30"/>
<path fill-rule="evenodd" d="M752,314.8h2.2V262.9H752v51.9Z" class="g0_30"/>
<path fill-rule="evenodd" d="M87.1,317h80.5v-2.2H87.1V317Z" class="g0_30"/>
<path fill-rule="evenodd" d="M167.6,317h2.2v-2.2h-2.2V317Z" class="g0_30"/>
<path fill-rule="evenodd" d="M169.8,317H752v-2.2H169.8V317Z" class="g0_30"/>
<path fill-rule="evenodd" d="M752,317h2.2v-2.2H752V317Z" class="g0_30"/>
<path fill-rule="evenodd" d="M754.2,317h99.6v-2.2H754.2V317Z" class="g0_30"/>
<path fill-rule="evenodd" d="M87.1,338.3h80.5v-2.2H87.1v2.2Z" class="g0_30"/>
<path d="M167.6,338.4h2.2v-.1h-2.2v.1Z" class="g0_30"/>
<path fill-rule="evenodd" d="M167.6,338.3h2.2v-2.2h-2.2v2.2Z" class="g0_30"/>
<path fill-rule="evenodd" d="M169.8,338.3H752v-2.2H169.8v2.2Z" class="g0_30"/>
<path d="M752,338.4h2.2v-.1H752v.1Z" class="g0_30"/>
<path fill-rule="evenodd" d="M752,338.3h2.2v-2.2H752v2.2Z" class="g0_30"/>
<path fill-rule="evenodd" d="M754.2,338.3h99.6v-2.2H754.2v2.2Z" class="g0_30"/>
<path fill-rule="evenodd" d="M167.6,372.9h2.2V338.4h-2.2v34.5Z" class="g0_30"/>
<path fill-rule="evenodd" d="M752,372.9h2.2V338.4H752v34.5Z" class="g0_30"/>
<path fill-rule="evenodd" d="M87.1,375.1h80.5v-2.2H87.1v2.2Z" class="g0_30"/>
<path fill-rule="evenodd" d="M167.6,375.3h2.2v-2.4h-2.2v2.4Z" class="g0_30"/>
<path fill-rule="evenodd" d="M169.8,375.1H752v-2.2H169.8v2.2Z" class="g0_30"/>
<path fill-rule="evenodd" d="M752,375.3h2.2v-2.4H752v2.4Z" class="g0_30"/>
<path fill-rule="evenodd" d="M754.2,375.1h99.6v-2.2H754.2v2.2Z" class="g0_30"/>
<path fill-rule="evenodd" d="M167.6,425.7h2.2V375.3h-2.2v50.4Z" class="g0_30"/>
<path fill-rule="evenodd" d="M752,425.7h2.2V375.3H752v50.4Z" class="g0_30"/>
<path fill-rule="evenodd" d="M87.1,427.9h80.5v-2.2H87.1v2.2Z" class="g0_30"/>
<path fill-rule="evenodd" d="M167.6,428.1h2.2v-2.4h-2.2v2.4Z" class="g0_30"/>
<path fill-rule="evenodd" d="M169.8,427.9H752v-2.2H169.8v2.2Z" class="g0_30"/>
<path fill-rule="evenodd" d="M752,428.1h2.2v-2.4H752v2.4Z" class="g0_30"/>
<path fill-rule="evenodd" d="M754.2,427.9h99.6v-2.2H754.2v2.2Z" class="g0_30"/>
<path fill-rule="evenodd" d="M167.6,462.7h2.2V428.1h-2.2v34.6Z" class="g0_30"/>
<path fill-rule="evenodd" d="M752,462.7h2.2V428.1H752v34.6Z" class="g0_30"/>
<path fill-rule="evenodd" d="M87.1,464.9h80.5v-2.2H87.1v2.2Z" class="g0_30"/>
<path fill-rule="evenodd" d="M167.6,465.1h2.2v-2.4h-2.2v2.4Z" class="g0_30"/>
<path fill-rule="evenodd" d="M169.8,464.9H752v-2.2H169.8v2.2Z" class="g0_30"/>
<path fill-rule="evenodd" d="M752,465.1h2.2v-2.4H752v2.4Z" class="g0_30"/>
<path fill-rule="evenodd" d="M754.2,464.9h99.6v-2.2H754.2v2.2Z" class="g0_30"/>
<path fill-rule="evenodd" d="M167.6,499.8h2.2V465.1h-2.2v34.7Z" class="g0_30"/>
<path fill-rule="evenodd" d="M752,499.8h2.2V465.1H752v34.7Z" class="g0_30"/>
<path fill-rule="evenodd" d="M87.1,502h80.5v-2.2H87.1V502Z" class="g0_30"/>
<path fill-rule="evenodd" d="M167.6,502h2.2v-2.2h-2.2V502Z" class="g0_30"/>
<path fill-rule="evenodd" d="M169.8,502H752v-2.2H169.8V502Z" class="g0_30"/>
<path fill-rule="evenodd" d="M752,502h2.2v-2.2H752V502Z" class="g0_30"/>
<path fill-rule="evenodd" d="M754.2,502h99.6v-2.2H754.2V502Z" class="g0_30"/>
<path fill-rule="evenodd" d="M87.1,523H853.8v-2.2H87.1V523Z" class="g0_30"/>
<path fill-rule="evenodd" d="M87.1,544.1h80.5v-2.2H87.1v2.2Z" class="g0_30"/>
<path d="M167.6,544.3h2.2v-.2h-2.2v.2Z" class="g0_30"/>
<path fill-rule="evenodd" d="M167.6,544.1h2.2v-2.2h-2.2v2.2Z" class="g0_30"/>
<path fill-rule="evenodd" d="M169.8,544.1H752v-2.2H169.8v2.2Z" class="g0_30"/>
<path d="M752,544.3h2.2v-.2H752v.2Z" class="g0_30"/>
<path fill-rule="evenodd" d="M752,544.1h2.2v-2.2H752v2.2Z" class="g0_30"/>
<path fill-rule="evenodd" d="M754.2,544.1h99.6v-2.2H754.2v2.2Z" class="g0_30"/>
<path fill-rule="evenodd" d="M167.6,597.9h2.2V544.3h-2.2v53.6Z" class="g0_30"/>
<path fill-rule="evenodd" d="M752,597.9h2.2V544.3H752v53.6Z" class="g0_30"/>
<path fill-rule="evenodd" d="M87.1,600.1h80.5v-2.2H87.1v2.2Z" class="g0_30"/>
<path fill-rule="evenodd" d="M167.6,600.2h2.2v-2.3h-2.2v2.3Z" class="g0_30"/>
<path fill-rule="evenodd" d="M169.8,600.1H752v-2.2H169.8v2.2Z" class="g0_30"/>
<path fill-rule="evenodd" d="M752,600.2h2.2v-2.3H752v2.3Z" class="g0_30"/>
<path fill-rule="evenodd" d="M754.2,600.1h99.6v-2.2H754.2v2.2Z" class="g0_30"/>
<path fill-rule="evenodd" d="M167.6,636.3h2.2V600.2h-2.2v36.1Z" class="g0_30"/>
<path fill-rule="evenodd" d="M752,636.3h2.2V600.2H752v36.1Z" class="g0_30"/>
<path fill-rule="evenodd" d="M87.1,638.5h80.5v-2.2H87.1v2.2Z" class="g0_30"/>
<path fill-rule="evenodd" d="M167.6,638.7h2.2v-2.4h-2.2v2.4Z" class="g0_30"/>
<path fill-rule="evenodd" d="M169.8,638.5H752v-2.2H169.8v2.2Z" class="g0_30"/>
<path fill-rule="evenodd" d="M752,638.7h2.2v-2.4H752v2.4Z" class="g0_30"/>
<path fill-rule="evenodd" d="M754.2,638.5h99.6v-2.2H754.2v2.2Z" class="g0_30"/>
<path fill-rule="evenodd" d="M167.6,673.4h2.2V638.7h-2.2v34.7Z" class="g0_30"/>
<path fill-rule="evenodd" d="M752,673.4h2.2V638.7H752v34.7Z" class="g0_30"/>
<path fill-rule="evenodd" d="M87.1,675.6h80.5v-2.2H87.1v2.2Z" class="g0_30"/>
<path fill-rule="evenodd" d="M167.6,675.8h2.2v-2.4h-2.2v2.4Z" class="g0_30"/>
<path fill-rule="evenodd" d="M169.8,675.6H752v-2.2H169.8v2.2Z" class="g0_30"/>
<path fill-rule="evenodd" d="M752,675.8h2.2v-2.4H752v2.4Z" class="g0_30"/>
<path fill-rule="evenodd" d="M754.2,675.6h99.6v-2.2H754.2v2.2Z" class="g0_30"/>
<path fill-rule="evenodd" d="M167.6,726.2h2.2V675.8h-2.2v50.4Z" class="g0_30"/>
<path fill-rule="evenodd" d="M752,726.2h2.2V675.8H752v50.4Z" class="g0_30"/>
<path fill-rule="evenodd" d="M87.1,728.4h80.5v-2.2H87.1v2.2Z" class="g0_30"/>
<path fill-rule="evenodd" d="M167.6,728.6h2.2v-2.4h-2.2v2.4Z" class="g0_30"/>
<path fill-rule="evenodd" d="M169.8,728.4H752v-2.2H169.8v2.2Z" class="g0_30"/>
<path fill-rule="evenodd" d="M752,728.6h2.2v-2.4H752v2.4Z" class="g0_30"/>
<path fill-rule="evenodd" d="M754.2,728.4h99.6v-2.2H754.2v2.2Z" class="g0_30"/>
<path fill-rule="evenodd" d="M167.6,890.8h2.2V728.6h-2.2V890.8Z" class="g0_30"/>
<path fill-rule="evenodd" d="M752,890.8h2.2V728.6H752V890.8Z" class="g0_30"/>
<path fill-rule="evenodd" d="M87.1,893h80.5v-2.2H87.1V893Z" class="g0_30"/>
<path fill-rule="evenodd" d="M167.6,893h2.2v-2.2h-2.2V893Z" class="g0_30"/>
<path fill-rule="evenodd" d="M169.8,893H752v-2.2H169.8V893Z" class="g0_30"/>
<path fill-rule="evenodd" d="M752,893h2.2v-2.2H752V893Z" class="g0_30"/>
<path fill-rule="evenodd" d="M754.2,893h99.6v-2.2H754.2V893Z" class="g0_30"/>
<path fill-rule="evenodd" d="M87.1,914.3h80.5v-2.2H87.1v2.2Z" class="g0_30"/>
<path d="M167.6,914.5h2.2v-.2h-2.2v.2Z" class="g0_30"/>
<path fill-rule="evenodd" d="M167.6,914.3h2.2v-2.2h-2.2v2.2Z" class="g0_30"/>
<path fill-rule="evenodd" d="M169.8,914.3H752v-2.2H169.8v2.2Z" class="g0_30"/>
<path d="M752,914.5h2.2v-.2H752v.2Z" class="g0_30"/>
<path fill-rule="evenodd" d="M752,914.3h2.2v-2.2H752v2.2Z" class="g0_30"/>
<path fill-rule="evenodd" d="M754.2,914.3h99.6v-2.2H754.2v2.2Z" class="g0_30"/>
<path fill-rule="evenodd" d="M86,1003.2h81.6V1001H86v2.2Z" class="g0_30"/>
<path fill-rule="evenodd" d="M167.6,1001h2.2V914.5h-2.2V1001Z" class="g0_30"/>
<path fill-rule="evenodd" d="M167.6,1003.2h2.2V1001h-2.2v2.2Z" class="g0_30"/>
<path fill-rule="evenodd" d="M169.8,1003.2H752V1001H169.8v2.2Z" class="g0_30"/>
<path fill-rule="evenodd" d="M752,1001h2.2V914.5H752V1001Z" class="g0_30"/>
<path fill-rule="evenodd" d="M752,1003.2h2.2V1001H752v2.2Z" class="g0_30"/>
<path fill-rule="evenodd" d="M754.2,1003.2h99.6V1001H754.2v2.2Z" class="g0_30"/>
</svg>