<?xml version="1.0" encoding="UTF-8" standalone="no"?>
<!DOCTYPE svg PUBLIC "-//W3C//DTD SVG 1.1//EN"
"http://www.w3.org/Graphics/SVG/1.1/DTD/svg11.dtd">
<svg viewBox="0 0 935 1210" version="1.1" xmlns="http://www.w3.org/2000/svg" xmlns:xlink="http://www.w3.org/1999/xlink">
<defs>
<style type="text/css"><![CDATA[
.g0_4{
fill: #00755C;
}
]]></style>
</defs>
<path d="M86.5,66.5H263.3V65.1H86.5v1.4Z" class="g0_4"/>
<path d="M263.3,66.5h1.4V65.1h-1.4v1.4Z" class="g0_4"/>
<path d="M264.7,66.5H848.8V65.1H264.7v1.4Z" class="g0_4"/>
<path d="M85.4,120.1H263.3v-1.5H85.4v1.5Z" class="g0_4"/>
<path d="M262.2,120.1h1.4v-1.5h-1.4v1.5Z" class="g0_4"/>
<path d="M263.6,120.1H848.8v-1.5H263.6v1.5Z" class="g0_4"/>
<path d="M84.3,1113.8H430.1v-.8H84.3v.8Z" class="g0_4"/>
<path d="M430.1,1113.8h.7v-.8h-.7v.8Z" class="g0_4"/>
<path d="M430.8,1113.8H497v-.8H430.8v.8Z" class="g0_4"/>
<path d="M497,1113.8h.8v-.8H497v.8Z" class="g0_4"/>
<path d="M497.7,1113.8H846.6v-.8H497.7v.8Z" class="g0_4"/>
<image preserveAspectRatio="none" x="89" y="67" width="172" height="51" xlink:href="img/1.png"/>
<image preserveAspectRatio="none" x="735" y="1124" width="107" height="42" xlink:href="img/2.png"/>
</svg>