<?xml version="1.0" encoding="UTF-8" standalone="no"?>
<!DOCTYPE svg PUBLIC "-//W3C//DTD SVG 1.1//EN"
"http://www.w3.org/Graphics/SVG/1.1/DTD/svg11.dtd">
<svg viewBox="0 0 935 1210" version="1.1" xmlns="http://www.w3.org/2000/svg" xmlns:xlink="http://www.w3.org/1999/xlink">
<defs>
<style type="text/css"><![CDATA[
.g0_27{
fill: #00755C;
}
]]></style>
</defs>
<path d="M86.9,66.4H263.6V64.9H86.9v1.5Z" class="g0_27"/>
<path d="M263.6,66.4h1.5V64.9h-1.5v1.5Z" class="g0_27"/>
<path d="M265.1,66.4H849.2V64.9H265.1v1.5Z" class="g0_27"/>
<path d="M85.8,119.9H263.6v-1.5H85.8v1.5Z" class="g0_27"/>
<path d="M262.5,119.9H264v-1.5h-1.5v1.5Z" class="g0_27"/>
<path d="M264,119.9H849.2v-1.5H264v1.5Z" class="g0_27"/>
<path d="M84.7,1113.4H432.3v-.7H84.7v.7Z" class="g0_27"/>
<path d="M432.3,1113.4h.7v-.7h-.7v.7Z" class="g0_27"/>
<path d="M433,1113.4h66.6v-.7H433v.7Z" class="g0_27"/>
<path d="M499.6,1113.4h.7v-.7h-.7v.7Z" class="g0_27"/>
<path d="M500.3,1113.4H847v-.7H500.3v.7Z" class="g0_27"/>
<image preserveAspectRatio="none" x="89" y="67" width="172" height="51" xlink:href="img/1.png"/>
<image preserveAspectRatio="none" x="739" y="1124" width="107" height="41" xlink:href="img/2.png"/>
<path fill-rule="evenodd" d="M86.9,211.2H278.3V209H86.9v2.2Z" class="g0_27"/>
<path d="M278.3,211.4h2.2v-.2h-2.2v.2Z" class="g0_27"/>
<path fill-rule="evenodd" d="M278.3,211.2h2.2V209h-2.2v2.2Z" class="g0_27"/>
<path fill-rule="evenodd" d="M280.5,211.2H853.8V209H280.5v2.2Z" class="g0_27"/>
<path fill-rule="evenodd" d="M278.3,230.1h2.2V211.4h-2.2v18.7Z" class="g0_27"/>
<path fill-rule="evenodd" d="M86.9,232.3H278.3v-2.2H86.9v2.2Z" class="g0_27"/>
<path fill-rule="evenodd" d="M278.3,232.3h2.2v-2.2h-2.2v2.2Z" class="g0_27"/>
<path fill-rule="evenodd" d="M280.5,232.3H853.8v-2.2H280.5v2.2Z" class="g0_27"/>
<path fill-rule="evenodd" d="M86.9,253.4H278.3v-2.2H86.9v2.2Z" class="g0_27"/>
<path d="M278.3,253.6h2.2v-.2h-2.2v.2Z" class="g0_27"/>
<path fill-rule="evenodd" d="M278.3,253.4h2.2v-2.2h-2.2v2.2Z" class="g0_27"/>
<path fill-rule="evenodd" d="M280.5,253.4H853.8v-2.2H280.5v2.2Z" class="g0_27"/>
<path fill-rule="evenodd" d="M278.3,338.6h2.2v-85h-2.2v85Z" class="g0_27"/>
<path fill-rule="evenodd" d="M86.9,340.8H278.3v-2.2H86.9v2.2Z" class="g0_27"/>
<path fill-rule="evenodd" d="M278.3,341h2.2v-2.4h-2.2V341Z" class="g0_27"/>
<path fill-rule="evenodd" d="M280.5,340.8H853.8v-2.2H280.5v2.2Z" class="g0_27"/>
<path fill-rule="evenodd" d="M278.3,375.7h2.2V341h-2.2v34.7Z" class="g0_27"/>
<path fill-rule="evenodd" d="M86.9,377.9H278.3v-2.2H86.9v2.2Z" class="g0_27"/>
<path fill-rule="evenodd" d="M278.3,377.9h2.2v-2.2h-2.2v2.2Z" class="g0_27"/>
<path fill-rule="evenodd" d="M280.5,377.9H853.8v-2.2H280.5v2.2Z" class="g0_27"/>
<path fill-rule="evenodd" d="M86.9,398.9H278.3v-2.2H86.9v2.2Z" class="g0_27"/>
<path d="M278.3,399.1h2.2v-.2h-2.2v.2Z" class="g0_27"/>
<path fill-rule="evenodd" d="M278.3,398.9h2.2v-2.2h-2.2v2.2Z" class="g0_27"/>
<path fill-rule="evenodd" d="M280.5,398.9H853.8v-2.2H280.5v2.2Z" class="g0_27"/>
<path fill-rule="evenodd" d="M278.3,449.5h2.2V399.1h-2.2v50.4Z" class="g0_27"/>
<path fill-rule="evenodd" d="M86.9,451.7H278.3v-2.2H86.9v2.2Z" class="g0_27"/>
<path fill-rule="evenodd" d="M278.3,451.9h2.2v-2.4h-2.2v2.4Z" class="g0_27"/>
<path fill-rule="evenodd" d="M280.5,451.7H853.8v-2.2H280.5v2.2Z" class="g0_27"/>
<path fill-rule="evenodd" d="M278.3,470.8h2.2V451.9h-2.2v18.9Z" class="g0_27"/>
<path fill-rule="evenodd" d="M86.9,473H278.3v-2.2H86.9V473Z" class="g0_27"/>
<path fill-rule="evenodd" d="M278.3,473.2h2.2v-2.4h-2.2v2.4Z" class="g0_27"/>
<path fill-rule="evenodd" d="M280.5,473H853.8v-2.2H280.5V473Z" class="g0_27"/>
<path fill-rule="evenodd" d="M278.3,507.7h2.2V473.2h-2.2v34.5Z" class="g0_27"/>
<path fill-rule="evenodd" d="M86.9,509.9H278.3v-2.2H86.9v2.2Z" class="g0_27"/>
<path fill-rule="evenodd" d="M278.3,510h2.2v-2.3h-2.2V510Z" class="g0_27"/>
<path fill-rule="evenodd" d="M280.5,509.9H853.8v-2.2H280.5v2.2Z" class="g0_27"/>
<path fill-rule="evenodd" d="M278.3,544.7h2.2V510h-2.2v34.7Z" class="g0_27"/>
<path fill-rule="evenodd" d="M86.9,546.9H278.3v-2.2H86.9v2.2Z" class="g0_27"/>
<path fill-rule="evenodd" d="M278.3,547.1h2.2v-2.4h-2.2v2.4Z" class="g0_27"/>
<path fill-rule="evenodd" d="M280.5,546.9H853.8v-2.2H280.5v2.2Z" class="g0_27"/>
<path fill-rule="evenodd" d="M85.8,568.2H278.3V566H85.8v2.2Z" class="g0_27"/>
<path fill-rule="evenodd" d="M278.3,566h2.2V547.1h-2.2V566Z" class="g0_27"/>
<path fill-rule="evenodd" d="M278.3,568.2h2.2V566h-2.2v2.2Z" class="g0_27"/>
<path fill-rule="evenodd" d="M280.5,568.2H853.8V566H280.5v2.2Z" class="g0_27"/>
</svg>