<?xml version="1.0" encoding="UTF-8" standalone="no"?>
<!DOCTYPE svg PUBLIC "-//W3C//DTD SVG 1.1//EN"
"http://www.w3.org/Graphics/SVG/1.1/DTD/svg11.dtd">
<svg viewBox="0 0 1210 935" version="1.1" xmlns="http://www.w3.org/2000/svg" xmlns:xlink="http://www.w3.org/1999/xlink">
<defs>
<clipPath id="c0"><path d="M60.1,879.2V88.7H993.7V879.2Z"/></clipPath>
<clipPath id="c1"><path d="M1015,899.8V743.2h159.9V899.8Z"/></clipPath>
<style type="text/css"><![CDATA[
.g0{
fill: none;
stroke: #000000;
stroke-width: 1.466;
stroke-linecap: square;
stroke-linejoin: miter;
}
.g1{
fill: none;
stroke: #FFFFFF;
stroke-width: 0.733;
stroke-linecap: round;
stroke-linejoin: round;
}
.g2{
fill: none;
stroke: #894444;
stroke-width: 1.466;
stroke-linecap: round;
stroke-linejoin: round;
}
.g3{
fill: none;
stroke: #734C00;
stroke-width: 4.766;
stroke-linecap: round;
stroke-linejoin: round;
}
.g4{
fill: none;
stroke: #FFFFFF;
stroke-width: 1.466;
stroke-linecap: round;
stroke-linejoin: round;
}
.g5{
fill: none;
stroke: #FFFFFF;
stroke-width: 2.2;
stroke-linecap: butt;
stroke-linejoin: miter;
}
.g6{
fill: none;
stroke: #DF73FF;
stroke-width: 1.833;
stroke-linecap: round;
stroke-linejoin: round;
}
.g7{
fill: none;
stroke: #98E600;
stroke-width: 1.833;
stroke-linecap: round;
stroke-linejoin: round;
}
.g8{
fill: none;
stroke: #000000;
stroke-width: 4.766;
stroke-linecap: butt;
stroke-linejoin: round;
}
.g9{
fill: none;
stroke: #FFFF00;
stroke-width: 2.566;
stroke-linecap: butt;
stroke-linejoin: round;
}
.ga{
fill: none;
stroke: #FF00C5;
stroke-width: 2.566;
stroke-linecap: butt;
stroke-linejoin: round;
}
.gb{
fill: none;
stroke: #686868;
stroke-width: 2.2;
stroke-linecap: round;
stroke-linejoin: round;
}
.gc{
fill: none;
stroke: #B2B2B2;
stroke-width: 1.099;
stroke-linecap: round;
stroke-linejoin: round;
}
.gd{
fill: none;
stroke: #000000;
stroke-width: 1.466;
stroke-linecap: round;
stroke-linejoin: round;
}
.ge{
fill: #FFFFFF;
stroke: #6E6E6E;
stroke-width: 1.466;
stroke-linecap: round;
stroke-linejoin: round;
}
.gf{
fill: none;
stroke: #FFFFFF;
stroke-width: 2.933;
stroke-linecap: round;
stroke-linejoin: round;
}
.gg{
stroke: #000000;
stroke-width: 1.466;
stroke-linecap: round;
stroke-linejoin: round;
}
.gh{
fill: none;
stroke: #000000;
stroke-width: 0.733;
stroke-linecap: round;
stroke-linejoin: round;
}
.gi{
fill: #BEE8FF;
}
.gj{
fill: #FFEBBE;
stroke: #828282;
stroke-width: 0.733;
stroke-linecap: round;
stroke-linejoin: round;
}
.gk{
fill: #FFEBBE;
stroke: #9C9C9C;
stroke-width: 0.733;
stroke-linecap: round;
stroke-linejoin: round;
}
.gl{
fill: none;
stroke: #894444;
stroke-width: 1.833;
stroke-linecap: round;
stroke-linejoin: round;
}
.gm{
fill: none;
stroke: #000000;
stroke-width: 1.466;
stroke-linecap: butt;
stroke-linejoin: round;
}
.gn{
fill: none;
stroke: #FFFF00;
stroke-width: 1.099;
stroke-linecap: butt;
stroke-linejoin: round;
}
.go{
fill: none;
stroke: #000000;
stroke-width: 2.933;
stroke-linecap: butt;
stroke-linejoin: round;
}
.gp{
fill: none;
stroke: #FFFF00;
stroke-width: 2.2;
stroke-linecap: butt;
stroke-linejoin: round;
}
.gq{
fill: #FFFFFF;
stroke: #000000;
stroke-width: 0.733;
stroke-linecap: round;
stroke-linejoin: round;
}
.gr{
fill: none;
stroke: #005CE6;
stroke-width: 1.466;
stroke-linecap: round;
stroke-linejoin: round;
}
.gs{
fill: none;
stroke: #FF0000;
stroke-width: 1.466;
stroke-linecap: square;
stroke-linejoin: miter;
}
.gt{
fill: none;
stroke: #343434;
stroke-width: 1.099;
stroke-linecap: round;
stroke-linejoin: round;
}
.gu{
fill: none;
stroke: #FFFFFF;
stroke-width: 2.2;
stroke-linecap: round;
stroke-linejoin: round;
}
.gv{
fill: none;
stroke: #000000;
stroke-width: 0.733;
stroke-linecap: square;
stroke-linejoin: miter;
}
.gw{
fill: none;
stroke: #DF73FF;
stroke-width: 2.2;
stroke-linecap: round;
stroke-linejoin: round;
}
.gx{
fill: none;
stroke: #686868;
stroke-width: 2.933;
stroke-linecap: butt;
stroke-linejoin: round;
}
.gy{
fill: none;
stroke: #CCCCCC;
stroke-width: 2.2;
stroke-linecap: butt;
stroke-linejoin: round;
}
.gz{
fill: none;
stroke: #894444;
stroke-width: 1.466;
stroke-linecap: butt;
stroke-linejoin: round;
}
.g10{
fill: none;
stroke: #894444;
stroke-width: 1.466;
stroke-linecap: square;
stroke-linejoin: round;
}
.g11{
fill: none;
stroke: #894444;
stroke-width: 2.566;
stroke-linecap: butt;
stroke-linejoin: round;
}
.g12{
fill: none;
stroke: #FF00C5;
stroke-width: 2.933;
stroke-linecap: butt;
stroke-linejoin: round;
}
.g13{
fill: none;
stroke: #FFFF00;
stroke-width: 2.933;
stroke-linecap: butt;
stroke-linejoin: round;
}
.g14{
fill: none;
stroke: #98E600;
stroke-width: 2.2;
stroke-linecap: round;
stroke-linejoin: round;
}
]]></style>
</defs>
<path d="M41.8,484V66H1177.1V902H41.8V484" class="g0"/>
<image preserveAspectRatio="none" x="60" y="89" width="934" height="302" xlink:href="img/1.png"/>
<image preserveAspectRatio="none" x="60" y="390" width="934" height="302" xlink:href="img/2.png"/>
<image preserveAspectRatio="none" x="60" y="691" width="934" height="189" xlink:href="img/3.png"/>
<g clip-path="url(#c0)">
<path d="M60.1,362.2l453.3,22l-24.2,495M528,88.7L513.4,384.2L60.1,362.2m429.1,517l24.2,-495l480.3,23.9L513.4,384.2L528,88.7" class="g1"/>
</g>
<path d="M849.6,879.2L903.9,734L993.7,491.7" class="g2"/>
<path d="M706.3,532.4l-22,-7.4l-13.2,2.6l-19.5,-7.3l20.2,-51.4l.4,-1.1l37,15.1l.4,.3l.3,.4l.4,.4l.4,.3l.3,.4l.4,.4l.4,.3l.3,.4l.4,.4l.4,.3v.4l.3,.4l.4,.3l.4,.4l.3,.4l.4,.3l.4,.4v.4l.3,.3l.4,.4l.4,.4v.3l.3,.4l.4,.4l.4,.3v.4l.3,.4l.4,.3v.4l.4,.4l.3,.3v.4l.4,.4l.4,.3v.4l.3,.4v.3l.4,.4l.4,.4v.3l.3,.4v.4l.4,.3v.4l.4,.4l.3,.3v.4l.4,.4v.3l.4,.4v.4l.3,.3v.8l.4,.3v.4l.4,.4v.3l.3,.4v.4l.4,.3v.8l.4,.3v.4l.3,.4v.7l.4,.4v.7l.4,.4v.7l.3,.4v.7l.4,.4v1.1l.4,.3V514l.3,.4v1.1l.4,.4V517l.4,.3v1.9l.3,.3v1.9l.4,.3V525l.4,.4v3.7l-1.1,11l-22,-7.7" class="g3"/>
<path d="M706.3,532.4l-22,-7.4l-13.2,2.6l-19.5,-7.3l20.2,-51.4l.4,-1.1l37,15.1l.4,.3l.3,.4l.4,.4l.4,.3l.3,.4l.4,.4l.4,.3l.3,.4l.4,.4l.4,.3v.4l.3,.4l.4,.3l.4,.4l.3,.4l.4,.3l.4,.4v.4l.3,.3l.4,.4l.4,.4v.3l.3,.4l.4,.4l.4,.3v.4l.3,.4l.4,.3v.4l.4,.4l.3,.3v.4l.4,.4l.4,.3v.4l.3,.4v.3l.4,.4l.4,.4v.3l.3,.4v.4l.4,.3v.4l.4,.4l.3,.3v.4l.4,.4v.3l.4,.4v.4l.3,.3v.8l.4,.3v.4l.4,.4v.3l.3,.4v.4l.4,.3v.8l.4,.3v.4l.3,.4v.7l.4,.4v.7l.4,.4v.7l.3,.4v.7l.4,.4v1.1l.4,.3V514l.3,.4v1.1l.4,.4V517l.4,.3v1.9l.3,.3v1.9l.4,.3V525l.4,.4v3.7l-1.1,11l-22,-7.7" class="g4"/>
<path d="M607.2,512.2l-1.1,-.4l3,-1.4l-.8,2.2l-1.1,-.4" class="g5"/>
<path d="M608.3,512.6l-2.2,-.8l3,-1.4l-.8,2.2" class="g6"/>
<path d="M605.4,512.2l.7,-.4l2.2,.8l-1.4,4.4l-3,1.1L597,516.2l-.8,-.3h-.3l-18.7,-6.3l-12.1,-4l-12.1,-4l-27.2,-8.8l-25.3,-9.2l-10.6,-3.7l-12.8,-4.7L462.4,470l-6.2,-2.5l2.5,-6.6l17.6,5.8l128.4,45.9l.7,-.4" class="g5"/>
<path d="M604.7,512.6l1.4,-.8l2.2,.8l-1.4,4.4l-3,1.1L597,516.2l-.8,-.3h-.3l-18.7,-6.3l-12.1,-4l-12.1,-4l-27.2,-8.8l-25.3,-9.2l-10.6,-3.7l-12.8,-4.7L462.4,470l-6.2,-2.5l2.5,-6.6l17.6,5.8l128.4,45.9" class="g6"/>
<path d="M60.1,324.8l2.2,.8l20.6,8l14.3,5.9l24.9,9.2l5.1,2.2l32.7,12.4l13.9,6.3l27.1,10.2l9.6,4.1l-1.5,4.7L60.1,330.3m0,7.4l15.4,5.8l21.7,8.8l108.9,42.6h.3l-6.2,17.2l-.7,-.4L90.6,369.2L69.3,360.4l-9.2,-3.7" class="g5"/>
<path d="M60.1,324.8l2.2,.8l20.6,8l14.3,5.9l24.9,9.2l5.1,2.2l32.7,12.4l13.9,6.3l27.1,10.2l9.6,4.1l-1.5,4.7L60.1,330.3m0,7.4l15.4,5.8l21.7,8.8l108.9,42.6h.3l-6.2,17.2l-.7,-.4L90.6,369.2L69.3,360.4l-9.2,-3.7" class="g6"/>
<path d="M891.8,570.1L836.1,550.3l-66,-23.4L755.4,513.7l-.4,-.4h-.7l-.4,-.4l-64.1,-22l-19.1,-6.6L678.4,462l3.3,-9.9l35.9,14.6L960,556.6l-.7,1.8l-11.8,31.5L891.8,570.1m-6.6,19.5L829.5,569.8L773.4,550l-7,-4.8L758.3,539l-3.6,-4.4l-26.1,-9.2l4.4,10.3l9.2,4.7l25.3,9.6l17.2,5.5l15.1,5.5l40.3,16.1l44.7,16.1l55,17.6l-2.5,6.6l-5.9,-2.5L874.9,595.4L828.7,578.6l-17.2,-7l-46.9,-18L733.8,542.3l-8.5,-5.2l-4.4,-14.3L714,520.3l2.5,-7.4L758,528l21.6,7.3l166.5,59L940.6,609L885.2,589.6" class="g5"/>
<path d="M947.5,589.9L836.1,550.3l-66,-23.4L755.4,513.7l-.4,-.4h-.7l-.4,-.4l-64.1,-22l-19.1,-6.6L678.4,462l3.3,-9.9l35.9,14.6L960,556.6l-.7,1.8l-11.8,31.5M940.6,609L829.5,569.8L773.4,550l-7,-4.8L758.3,539l-3.6,-4.4l-26.1,-9.2l4.4,10.3l9.2,4.7l25.3,9.6l17.2,5.5l15.1,5.5l40.3,16.1l44.7,16.1l55,17.6l-2.5,6.6l-5.9,-2.5L874.9,595.4L828.7,578.6l-17.2,-7l-46.9,-18L733.8,542.3l-8.5,-5.2l-4.4,-14.3L714,520.3l2.5,-7.4L758,528l21.6,7.3l166.5,59L940.6,609" class="g6"/>
<path d="M665.6,482.5L660.8,481l-.7,-.3h-2.2l-.4,.3l-40.7,19.1l-5.2,2.6l8.1,-24.2l30.1,-14l7,-2.5l2.5,-.8l2.6,-.7l2.6,-.4h2.2l2.5,-.3l2.6,.3l2.9,.8l3.7,1.1l-7.7,22.3l-5.1,-1.8m-58,32.3l.7,-2.2l.8,-2.2l42.5,-20.2l3.7,1.5l5.9,1.8l-4.1,1.8l-10.3,4.4l-5.1,1.9l-7.7,4l-4,1.8l-.8,.4l-7.7,3.7l-9.9,4l-.3,.4h-.8l-3.3,1.1h-.3l.7,-2.2" class="g5"/>
<path d="M670.7,484.3L660.8,481l-.8,-.3h-2.2l-.3,.3l-40.7,19.1l-5.2,2.6l8.1,-24.2l30.1,-14l6.9,-2.5l2.6,-.8l2.6,-.7l2.6,-.4h2.2l2.5,-.3l2.6,.3l2.9,.8l3.7,1.1l-7.7,22.3M606.9,517l1.4,-4.4l.8,-2.2l42.5,-20.2l3.7,1.5l5.9,1.8l-4.1,1.8l-10.3,4.4l-5.1,1.9l-7.7,4l-4,1.8l-.8,.4l-7.7,3.7l-9.9,4l-.3,.4h-.8l-3.3,1.1h-.3" class="g6"/>
<path d="M606.1,485.1l3,-1.5l10.6,-5.1l-8.1,24.2l-6.2,2.9l-5.9,-1.5l-18.7,-6.2l-12.1,-4l-12.1,-4.1l-23.8,-7.7l-72.6,-26l6.6,-16.9l71.9,25.7l23.8,7.7l12.1,4l11.7,4.1l16.9,5.8l2.9,-1.4M467.5,463.8l-8.8,-2.9v-.4l17.6,6.2l-8.8,-2.9" class="g5"/>
<path d="M603.2,486.5l5.9,-2.9l10.6,-5.1l-8.1,24.2l-6.2,2.9l-5.9,-1.5l-18.7,-6.2l-12.1,-4l-12.1,-4.1l-23.8,-7.7l-72.6,-26l6.6,-16.9l71.9,25.7l23.8,7.7l12.1,4l11.7,4.1l16.9,5.8M476.3,466.7l-17.6,-5.8v-.4l17.6,6.2" class="g6"/>
<path d="M401.9,435.2L343.2,414.3h-2.9l-.4,.4l-4.7,2.2l123.5,43.6v.4l-2.5,6.6l-6.3,-2.2l-7.7,-3l-11.3,-3.6l-12.5,-4.4l-22.7,-8.1l-12.9,-4.4l-16.5,-6.2l-6.2,-2.2l-9.2,5.8l-12.1,36.7L248.3,444.7l4.4,-13.9L200.2,412.1l6.2,-17.2l109.7,39.2h.4l.7,.4l.7,-.4h.8l.7,-.4l7,-3.3L209,388.6l1.5,-4.7l2.2,.7l.7,.4l16.2,5.8l17.2,6.3l27.5,9.5l24.2,8.8l13.6,-7l-1.9,-.7L320.5,374l90.6,31.1L407.4,418l59.4,21.2l-6.6,16.9L401.9,435.2" class="g5"/>
<path d="M460.2,456.1l-117,-41.8h-2.9l-.4,.4l-4.7,2.2l123.5,43.6v.4l-2.5,6.6l-6.3,-2.2l-7.7,-3l-11.3,-3.6l-12.5,-4.4l-22.7,-8.1l-12.9,-4.4l-16.5,-6.2l-6.2,-2.2l-9.2,5.8l-12.1,36.7L248.3,444.7l4.4,-13.9L200.2,412.1l6.2,-17.2l109.7,39.2h.4l.7,.4l.7,-.4h.8l.7,-.4l7,-3.3L209,388.6l1.5,-4.7l2.2,.7l.7,.4l16.2,5.8l17.2,6.3l27.5,9.5l24.2,8.8l13.6,-7l-1.9,-.7L320.5,374l90.6,31.1L407.4,418l59.4,21.2l-6.6,16.9" class="g6"/>
<path d="M540.5,489.8L476.3,466.7l129.8,45.1l-1.4,.8L540.5,489.8" class="g5"/>
<path d="M604.7,512.6L476.3,466.7l129.8,45.1l-1.4,.8" class="g7"/>
<path d="M60.1,330.3L209,388.6l-2.6,6.3h-.3L97.2,352.3L75.5,343.5L60.1,337.7" class="g5"/>
<path d="M60.1,330.3L209,388.6l-2.6,6.3h-.3L97.2,352.3L75.5,343.5L60.1,337.7" class="g7"/>
<path d="M862.8,565L779.6,535.3L758,528L716.5,512.9l-30,-10.2l-19.5,-7l1.1,-3.3l2.6,-8.1l19.1,6.6l64.1,22l.4,.4h.7l.4,.4l14.7,13.2l177.4,63l-1.4,4.4L862.8,565" class="g5"/>
<path d="M946.1,594.3l-166.5,-59L758,528L716.5,512.9l-30,-10.2l-19.5,-7l1.1,-3.3l2.6,-8.1l19.1,6.6l64.1,22l.4,.4h.7l.4,.4l14.7,13.2l177.4,63l-1.4,4.4" class="g7"/>
<path d="M664.1,494.6l-3,-1.1l-5.8,-1.8l-3.7,-1.5l-42.5,20.2l2.5,-7.7l5.2,-2.6L657.5,481l.3,-.3H660l.8,.3l9.9,3.3l-2.6,8.1l-1.1,3.3l-2.9,-1.1" class="g5"/>
<path d="M667,495.7l-5.8,-2.2l-5.9,-1.8l-3.7,-1.5l-42.5,20.2l2.5,-7.7l5.2,-2.6L657.5,481l.4,-.3h2.2l.7,.3l9.9,3.3l-2.6,8.1l-1.1,3.3" class="g7"/>
<path d="M608.3,504.1l3.3,-1.4l-2.5,7.7l-3,1.4L476.3,466.7l-17.6,-6.2l1.5,-4.4l72.6,26l23.8,7.7l12.1,4.1l12.1,4l18.7,6.2l5.9,1.5l2.9,-1.5" class="g5"/>
<path d="M605.4,505.6l6.2,-2.9l-2.5,7.7l-3,1.4L476.3,466.7l-17.6,-6.2l1.5,-4.4l72.6,26l23.8,7.7l12.1,4.1l12.1,4l18.7,6.2l5.9,1.5" class="g7"/>
<path d="M316.8,434.1h-.7L206.4,394.9l2.6,-6.3l117.4,41.8l-7,3.3l-.7,.4h-.8l-.7,.4l-.4,-.4m80.3,4.4L335.2,416.9l4.7,-2.2l.4,-.4h2.9l117,41.8l-1.5,4.4l-61.6,-22" class="g5"/>
<path d="M317.2,434.5l-.7,-.4h-.4L206.4,394.9l2.6,-6.3l117.4,41.8l-7,3.3l-.7,.4h-.8l-.7,.4m141.5,26L335.2,416.9l4.7,-2.2l.4,-.4h2.9l117,41.8l-1.5,4.4" class="g7"/>
<path d="M60.1,332.9l5.5,2.2l8.1,2.9l2.9,1.1l5.2,2.2l8,3.3l8.1,3l8.1,3.3l8,3.3l8.1,2.9l8.1,3.3l8,3.3l8.1,2.9l8.1,3.3l8,3.3l8.1,3l8.1,3.3l8,2.9l8.1,3.3l8.1,3.3l4.7,1.8l3.3,1.1l8.1,3l8.5,2.9l8,2.9l8.1,3l8.1,2.9l8.4,2.9l8.1,3l8,2.9l8.1,2.9l8.4,2.6l8.1,2.9l8.1,3l8,2.9l.8,.4l7.3,-3.7l7.7,-3.7l8.1,-3.3l8,2.6v.4l8.1,2.5l8.4,3l8.1,2.9l3.7,1.5l4.4,1.4l8,3l8.5,2.9l4.4,1.8l3.6,1.1l8.1,3l5.9,2.2l2.2,.7l8.4,2.9l8.1,3l5.8,2.2l2.2,.7l8.5,2.6l3.3,1.1l4.7,1.8l8.1,2.9l8.1,2.6v.4l8.4,2.5l8.1,3l8,2.9l8.5,2.9l1.1,.4l6.9,2.2l8.5,2.9l2.5,.8l5.5,1.8l8.1,2.6l8.4,2.9l1.9,.7l6.2,1.9l5.9,2.2l2.5,.7l8.1,2.6l1.5,.7l6.6,2.2l8.4,2.6l4,1.4l4.4,.8l1.1,.3l4.4,-1.1l2.6,-1.1l7.3,-3.3l.8,-.3l7.7,-3.3l8,-3.7l6.3,-2.6l1.4,-1.1l1.9,-.7l6.2,-2.9l3.3,-1.1l4.4,-2.2l1.9,-1.1l6.6,2.2l8,2.9l8.1,2.9l5.5,1.9" class="g8"/>
<path d="M60.1,332.9l5.5,2.2l8.1,2.9l2.9,1.1l5.2,2.2l8,3.3l8.1,3l8.1,3.3l8,3.3l8.1,2.9l8.1,3.3l8,3.3l8.1,2.9l8.1,3.3l8,3.3l8.1,3l8.1,3.3l8,2.9l8.1,3.3l8.1,3.3l4.7,1.8l3.3,1.1l8.1,3l8.5,2.9l8,2.9l8.1,3l8.1,2.9l8.4,2.9l8.1,3l8,2.9l8.1,2.9l8.4,2.6l8.1,2.9l8.1,3l8,2.9l.8,.4l7.3,-3.7l7.7,-3.7l8.1,-3.3l8,2.6v.4l8.1,2.5l8.4,3l8.1,2.9l3.7,1.5l4.4,1.4l8,3l8.5,2.9l4.4,1.8l3.6,1.1l8.1,3l5.9,2.2l2.2,.7l8.4,2.9l8.1,3l5.8,2.2l2.2,.7l8.5,2.6l3.3,1.1l4.7,1.8l8.1,2.9l8.1,2.6v.4l8.4,2.5l8.1,3l8,2.9l8.5,2.9l1.1,.4l6.9,2.2l8.5,2.9l2.5,.8l5.5,1.8l8.1,2.6l8.4,2.9l1.9,.7l6.2,1.9l5.9,2.2l2.5,.7l8.1,2.6l1.5,.7l6.6,2.2l8.4,2.6l4,1.4l4.4,.8l1.1,.3l4.4,-1.1l2.6,-1.1l7.3,-3.3l.8,-.3l7.7,-3.3l8,-3.7l6.3,-2.6l1.4,-1.1l1.9,-.7l6.2,-2.9l3.3,-1.1l4.4,-2.2l1.9,-1.1l6.6,2.2l8,2.9l8.1,2.9l5.5,1.9" class="g9"/>
<path d="M689.8,495.3l8,3l8.1,2.5l8.4,3l8.1,2.9l8.1,2.9l8.4,2.6l8.1,2.9l5.5,1.9l2.2,1.8l6.2,5.9l6.6,5.8l6.6,5.5l6.2,5.9l1.1,.7l4.8,3l1.8,.7l4.1,1.1" class="g8"/>
<path d="M689.8,495.3l8,3l8.1,2.5l8.4,3l8.1,2.9l8.1,2.9l8.4,2.6l8.1,2.9l5.5,1.9l2.2,1.8l6.2,5.9l6.6,5.8l6.6,5.5l6.2,5.9l1.1,.7l4.8,3l1.8,.7l4.1,1.1" class="ga"/>
<path d="M606.1,449.9v1.8h2.2l.4,.4v.7h-2.6v2.9H605v-6.6l.4,-.3h3.3v1.1h-2.6m-3.3,-.4l.8,1.1v3.3l-.8,1.1l-1.1,.7h-2.5l-1.1,-.7l-.8,-1.1V451l.8,-1.1l1.1,-.8l1.4,-.3l1.1,.3l1.1,.4m-3.6,4.8l.3,.3h1.9l.3,-.7l.4,-.7v-1.9l-.4,-.7l-.3,-.7h-.8l-1.1,.3l-.3,.4l-.4,.7v2.2l.4,.8m-5.5,-5.5l.3,.3h.4v.4l-1.8,3.7v2.5h-1.5v-2.5l-1.8,-3.7v.4h-1.9v5.8H586v-5.8h-1.9v-.8h.4v-.3h4.4v.3h.7l.4,-.3l.4,.3h.3l.8,1.9l.3,.3v.8l.4,-.8V451l.7,-1.9h.4l.4,-.3m-11,0v.3h.3v6.6h-1.1v-6.6h.4l.4,-.3m-1.9,1.1v.3h-.7l-.4,-.3h-1.4l-.4,.7l-.4,.7l-.3,1.1l.3,1.1l.4,.8l.4,.3h1.8l.4,-.3h.3v1.1h-.3v.3h-3l-.7,-.7l-.7,-1.1l-.4,-1.5l.4,-1.4l.7,-1.1l.7,-.8l1.5,-.3h1.1l.4,.3l.3,.4v.4M614.9,462l.4,.3h.4v6.3l-.4,.3h-1.5l-.3,-.3v-.4L612,464.9l-.4,-.7l-.3,-.8v5.5h-1.1v-6.6l.3,-.3h.8l.3,.3h.4v.4h.4l1.1,2.6l.3,.3v.8l.4,.3v-4.4h.4l.3,-.3m-6.9,.7l.7,1.1v3.3l-.7,1.1l-1.1,.7l-1.5,.4l-1.1,-.4l-1.1,-.7l-.7,-1.1v-2.9l.7,-1.1l1.1,-.8l1.5,-.3l1.1,.3l1.1,.4m-3.3,5.1l.7,.4l1.1,-.4l.4,-.3l.3,-1.1v-1.9l-.3,-.7l-.4,-.7h-.7l-1.1,.3l-.4,.4l-.4,.7v2.2l.4,.8l.4,.3M602.1,462v.3h.4v.8h-1.9v5.8h-1.4v-5.8h-1.9v-.8h.4V462h4.4m-7,0v.3h.4v5.5h2.6v1.1h-3.7v-6.6h.4l.3,-.3m-2.9,0v.3h.4v6.6h-1.1v-6.6h.3l.4,-.3m-2.9,0v.3h.3v6.6h-1.1v-5.8l-2.2,5.5v.3h-1.1v-.3L583,463.1v5.8h-1.1v-6.6l.4,-.3h1.1l.4,.3h.3v.8l1.9,4l1.4,-4v-.4l.4,-.4l.4,-.3h1.1m-11,0l.3,.3h.4l2.2,6.3v.3h-1.5v-.3l-.3,-1.1h-2.6l-.4,1.1v.3h-1.1v-.3l1.9,-6.3h.3l.8,-.3m0,1.4l-1.1,3H579l-.7,-3M573.5,462l.4,.3h.3v6.6h-1.4V466h-2.6v2.9h-1.5v-6.6h.4l.4,-.3l.3,.3h.4v2.6h2.6v-2.6h.3l.4,-.3" class="gb"/>
<path d="M306.6,624.4v.7h-1.1v-.3l-.4,-.4l-.7,.4l-.4,.3l-.4,.8l1.1,-.4l.8,.4l.3,.3l.4,.8v1.4l-.4,.4l-.3,.7l-.4,.4l-1.1,.4l-1.1,-.4l-.7,-.7v-1.5l.3,-1.8l.4,-1.1l1.1,-1.1l1.1,-.4l.7,.4l.4,.3l.4,.4m-3,4.4l.4,.4h.4l.3,-.4l.4,-.7v-.8l-.4,-.7H304l-.4,.7l-.3,.8l.3,.7m-7.3,-5.9l-1.5,6.6h-1.4l1.1,-4.4l-.8,.4l-1.1,.4l.4,-1.1l1.5,-.8l1.1,-1.1h.7m5.5,1.5l-1.1,1.1l-1.1,1.1l-.7,1.8v.8l-.4,.7h-1.1v-.7l.4,-.8l1.1,-1.8l1.1,-2.2h-2.6l.4,-1.1h4v1.1m-24.6,-2.2l1.5,4.8l1.1,-4.4h1.1l-1.5,6.6l-1.1,-.4l-1.8,-4.4l-1.1,4.4h-1.1l1.5,-6.6h1.4m14,1.5l.3,.7v1.1l-.3,1.5l-.4,1.4l-1.1,.8l-1.1,.3h-.7l-.4,-.3l-.4,-.8l-.3,-.7h1.4v.7h1.1l.4,-.7l.4,-.7l-1.1,.3h-.8l-.3,-.3l-.4,-.8v-1.8l.4,-.7l1.1,-.8h1.4l.8,.8m-2.6,2.5l.7,.4l.4,-.4l.4,-.3l.3,-1.1l-.3,-.8h-.4l-.7,.4l-.4,1.1v.7m-15.8,-2.9l-1.1,5.5h-1.4l1.1,-5.5h-1.9l.4,-1.1H275l-.3,1.1h-1.9m14.3,-.4l-.3,1.1h-1.9l-1.4,5.2h-1.1l1.1,-5.5h-1.9l.4,-1.1l5.1,.3m-18.3,0l-1.1,1.1l-.7,1.5l-.8,1.5l-.3,1.1l-.4,.3h-1.1v-.3l.4,-1.1l1.1,-1.9l1.1,-1.8h-2.6l.4,-1.5l4,.4v.7m-5.5,-1.1l-1.5,6.6h-1.4l1.1,-4.7l-.8,.7h-1.1l.4,-1.1l1.5,-.7l1.1,-.8h.7M309.1,227.7l-1.4,6.6h-1.5l1.1,-4.4l-.7,.4l-1.1,.3l.3,-1.4l1.5,-.8l1.1,-.7h.7m7.4,7h-1.1v-.8l.3,-.7l1.1,-1.8l1.1,-1.9l-2.5,-.3v-1.1l4.4,.3v.8l-1.1,1.1l-1.1,1.4l-.8,1.5l-.3,.7v.8m-18.7,-6.3l-1.5,5.5h-1.1l1.1,-5.5h-1.8l.3,-1.1H300l-.4,1.1h-1.8m16.8,.8l-1.1,.7l-1.1,1.5l-.7,1.4v1.1l-.4,.8l-1.1,-.4v-.4l.4,-.7l1.1,-2.2l1.1,-1.8h-2.6v-1.1h4.4v1.1M304,228.4l.4,.8v1.1l-.4,1.4l-.4,1.5l-1.1,.7l-1.1,.4l-.7,-.4h-.4l-.3,-.7l-.4,-.7h1.5v.7h.3l.8,-.4l.3,-.3v-.8l-.7,.4l-.7,-.4l-.4,-.3l-.4,-.4v-1.8l.4,-.8l.7,-.7h1.9l.7,.7m-2.6,1.9v.7h1.1l.4,-.7l.4,-.8l-.4,-.7l-.4,-.4l-.7,.4l-.4,1.5m-15.7,-2.2l-1.5,5.5h-1.1l1.1,-5.5h-1.8l.3,-1.1h5.2l-.4,1.1h-1.8m8,-.8l-1.4,6.6h-1.1l-1.9,-4.7l-1.1,4.4h-1.1l1.5,-6.3h1.5l1.4,4.4l1.1,-4.4h1.1m-17.6,-.7l-1.4,6.6h-1.5l1.1,-4.4l-.7,.4l-1.1,.3l.3,-1.4l1.5,-.8l1.1,-.7h.7m5.5,1.5l-1.1,.7l-.7,1.5l-.7,1.4l-.4,1.1l-.4,.4h-1.1v-.4l.4,-.7l1.1,-2.2l1.1,-1.8h-2.6l.4,-1.1h4v1.1M767.5,635.4v.7h-1.1l-.4,-.3l-.3,-.4l-.4,.4l-.4,.3l-.3,.8l.7,-.4l.7,.4l.8,.3l.3,.8v1.4l-.3,.8l-.4,.3l-.4,.4l-1.1,.4l-1.1,-.4l-.7,-.7v-3.3l.7,-1.1l1.1,-1.1l1.1,-.4l.4,.4l.7,.3l.4,.4m-3.3,4.4l.7,.4h.4l.4,-.4v-.7l.3,-.4l-.3,-1.1h-1.1l-.4,.7v1.5M757.6,635v1.9l-.7,.7l-.8,.7l-.7,.4l-.4,.4l-.3,.3h2.2v1.1h-4.1l.4,-.7l.4,-1.1l.7,-.4l.7,-.7l.4,-.4l.4,-.3l.3,-.4l.4,-.7l-.4,-.4l-.3,-.4l-.8,.4v.4l-.3,.3l-1.1,-.3l.3,-.8l.4,-.3l.7,-.4l.8,-.4l.7,.4l.7,.4l.4,.3m1.8,5.9H758l.3,-.7l.4,-.8l.7,-1.8l1.5,-1.8l-2.9,-.4l.3,-1.1h4.4l-.3,1.1l-.8,1.1l-1.1,1.5l-.7,1.4l-.4,.8v.7m-21.6,-7.7l1.8,4.8l1.1,-4.4h1.1l-1.4,6.6l-1.5,-.4l-1.5,-4.4l-1.1,4.4h-1.4l1.8,-6.6h1.1m14.3,1.5v.7l.4,1.1l-.4,1.5l-.7,1.4l-.8,.8l-1.1,.3h-.7l-.7,-.3l-.4,-.8v-.7h1.1l.4,.7h.7l.4,-.7l.3,-.7l-.7,.3h-.7l-.8,-.3l-.3,-.8v-.7l.3,-1.1l.4,-.7l.7,-.8h1.9l.7,.8m-2.6,2.5l.4,.4l.7,-.4l.4,-.3V635h-.7l-.4,.4l-.4,1.1v.7m-15.7,-2.9l-1.5,5.5h-1.1l1.1,-5.5h-1.8l.3,-1.1H736l-.4,1.1h-1.8m14.3,-.4l-.4,1.1h-1.8l-1.5,5.2h-1.5l1.5,-5.5h-1.8l.3,-1.1l5.2,.3m-23.9,-1.1l-1.8,6.6h-1.1l1.1,-4.7l-1.1,.7h-.7l.3,-1.1l1.5,-.7l1.1,-.8h.7m5.2,1.1l-.8,1.1l-1.1,1.5l-.7,1.5l-.4,1.1v.3H725l.3,-.3l.4,-.8l.7,-2.2l1.5,-1.8H725l.3,-1.1h4.4l-.3,.7M760.2,243.8h-1.5l.4,-.7l.3,-.7l.8,-1.9l1.4,-1.8l-2.9,-.4l.4,-1.1l4.4,.4l-.4,.7l-.7,1.1l-1.1,1.5l-.8,1.5l-.3,.7v.7m-7,-5.8v1.4l-.7,.8l-.8,1.1l-.7,.3l-.4,.4l-.3,.4h2.2v1.1h-4.1l.4,-1.1l.4,-.8l.7,-.3l.7,-.8l.4,-.3l.4,-.4l.3,-.7l.4,-.4l-.4,-.7h-1.1v.3l-.3,.8l-1.1,-.4l.3,-.7l.4,-.8l.7,-.3h.8l.7,.3l.7,.4l.4,.4m4.8,.3l-.8,.8l-1.1,1.4l-.7,1.5l-.4,1.1v.7l-1.4,-.3l.3,-.4l.4,-.7l.7,-2.2l1.5,-1.9h-2.9l.3,-1.1h4.4l-.3,1.1m-10.3,-.7v.7l.4,1.1l-.4,1.5l-.7,1.5l-.8,.7l-1.1,.4l-.7,-.4h-.7l-.4,-.7v-.8h1.1l.4,.8h.3l.4,-.4l.4,-.4l.3,-.7l-.7,.4l-.7,-.4l-.8,-.4l-.3,-.3v-1.1l.3,-.8l.4,-.7l.7,-.7H747l.7,.7m-2.6,2.6l.4,.3l.7,-.3l.4,-.4V238l-.7,-.4l-.4,.4l-.4,1.4v.8m-3.6,-2.6l-1.5,5.5h-1.5l1.5,-5.5h-1.8l.3,-1.1l5.2,.4l-.4,.7h-1.8m-4.1,-1.1l-1.4,6.6h-1.5L733,238.7l-1.1,4h-1.1l1.5,-6.2h1.1l1.8,4.4l1.1,-4.4h1.1m-17.6,-.7l-1.8,6.6h-1.1L718,238l-1.1,.3l-.7,.4l.3,-1.5l1.5,-.3l1.1,-1.1h.7m9.6,1.4l-1.5,5.5h-1.1l1.1,-5.5h-1.8l.3,-1.1l5.2,.4l-.4,.7h-1.8m-4.4,0l-.8,.8l-1.1,1.4l-.7,1.5L722,242v.7l-1.4,-.3l.3,-.4l.4,-.7l.7,-2.2l1.5,-1.9h-2.6v-1.1h4.4l-.3,1.1" class="gc"/>
<path d="M286.8,396l-.4,1.4h.4l1.1,.4l.7,.4l.4,.7l.3,1.1l-.3,1.1l-.4,.7l-1.1,.8h-1.8l-.8,-.4l-.3,-.7l-.4,-.8h1.5l.3,.4l.8,.4h.3l.4,-.4v-.4l.4,-.7l-.4,-.7l-.7,-.4h-.4l-.7,.4l-1.1,-.4l1.1,-4h3.6V396h-2.5m-3.7,0v.7l-.4,.7l-.7,.8l1.1,.7l.4,.7v1.5l-.8,.7l-.7,.8h-2.2l-.7,-.4l-.4,-.7l-.4,-1.1h1.5l.4,.7l.7,.4h.4l.3,-.4l.4,-.7v-.8l-.4,-.3h-.3l-.8,-.4v-1.1l.8,-.4l.3,-.3V396h-1.1l-.3,.7h-1.5l.4,-.7l.3,-.8l.8,-.3l.7,-.4l1.1,.4l.7,.3l.4,.8m-8.8,-.4l.4,1.5l-.4,.7v.4l-1.1,.7h-1.5v3.7h-1.4v-7.7h3.3l.7,.7m-2.6,.4v1.8h1.1v-.4l.4,-.3l-.4,-.8l-.3,-.3h-.8m-2.9,-1.1l-2.6,3.3l3,4.4h-1.9l-2.2,-3.7v3.7h-1.4v-7.7h1.4v2.5l1.9,-2.5h1.8m455.4,87.2l-.3,1.5h1.4l1.1,.4l.4,1.1v1.8l-.7,1.1l-.8,.4l-1.1,.3l-.7,-.3l-.7,-.4l-.8,-.7l-.3,-.8h1.4l.8,.8h.7l.4,-.4l.3,-.4v-1.4l-.7,-.4h-.7l-.4,.4h-1.1l1.1,-4.4h3.3v1.4h-2.6m-9.1,0l-.4,1.5h1.5l1.1,.4l.3,1.1v1.8l-.7,1.1l-.7,.4l-1.1,.3l-.8,-.3l-.7,-.4l-.7,-.7l-.4,-.8H714l.7,.8h1.1l.4,-.4v-1.8l-.8,-.4h-.7l-.4,.4h-1.1l1.1,-4.4h3.3v1.4h-2.5m-3.3,-.3v.7l-.4,1.1l-.7,.7l1.1,.8l.3,.3v.8l-.3,1.1l-.4,.7l-.7,.4l-1.1,.3l-1.1,-.3l-.8,-.4l-.3,-.7l-.4,-1.1h1.5l.3,.7l.8,.4h.3l.4,-.4l.4,-.7v-.4l-.4,-.4l-.7,-.3h-.8v-1.5h1.1l.4,-.4v-.7l-.4,-.4l-.3,-.3l-.4,.3l-.4,.4h-1.4v-.7l.7,-.8l.7,-.3h1.5l.7,.3l.8,.8m-8.8,0v1.8l-.4,.4l-1.1,.7h-.4l-1.1,.4v3.3h-1.4v-7.7h2.5l.8,.3l1.1,.8m-3,.3v1.5h1.1l.4,-.4v-1.1H700m-2.5,-1.4l-2.6,3.3l2.9,4.4H696l-2.6,-3.3v3.3H692v-7.7h1.4v2.5l2.2,-2.5h1.9m23.1,7.7l-.4,.3l-.7,-.3l-.4,-.8l.4,-.3l.7,-.4l.4,.4l.3,.3l-.3,.8m-34.1,14.3l-3.3,7.3l-1.5,-.7l2.9,-5.9h-2.9v-1.5h4.8v.8m-12.1,.7v1.5h1.4l.8,.7l.3,.7l.4,.8l-.4,1.1l-.3,1.1l-1.1,.3l-.8,.4l-1.1,-.4l-.7,-.3l-.7,-.8v-.7h1.4l.4,.7h1.1l.4,-.3v-.4l.3,-.4l-.3,-1.1l-.8,-.3H674l-.4,.7l-1.1,-.4l1.1,-4.4h3.7v1.5h-2.9m-3.3,-.4v.8l-.4,1.1l-.7,.7l1.1,.7l.3,.4v1.8l-.7,.8l-.7,.3l-1.1,.4l-1.1,-.4l-.8,-.3l-.3,-.8l-.4,-1.1h1.5l.3,.8l.8,.3h.3l.4,-.3l.4,-.8v-.3l-.4,-.4l-.7,-.4h-.4v-1.4h.7l.4,-.4v-1.1l-.7,-.4l-.4,.4l-.4,.4h-1.4l.3,-.8l.4,-.3l.7,-.8H670l.3,.4l.8,.7m-8.8,0l.3,1.1l-.3,.8l-.4,.3l-.7,.8l-.8,.3h-.7v3.3h-1.5v-7.7h2.6l.4,.4l1.1,.7m-2.6,.4v1.5h.7l.4,-.4l.4,-.4l-.4,-.7h-1.1m-2.9,-1.5l-2.6,3.3l2.9,4.4h-1.8l-2.2,-3.3v3.3h-1.5v-7.7h1.5v2.6l1.8,-2.6h1.9m23.1,7.7l-.4,.4l-.7,-.4v-1.1l.7,-.3l.4,.3l.3,.4l-.3,.7m147.4,45.9l.3,1.1v.7l-.7,.7l.7,1.1l.4,1.1l-.4,1.1l-.7,1.1H824l-.8,-1.1l-.3,-1.1l.3,-1.1L824,558l-.4,-.7l-.4,-.7l.4,-1.1l.7,-.8l1.1,-.3l1.1,.3l.8,.8m-2.2,1.8l.3,.4l.8,-.4v-1.1l-.8,-.4l-.3,.4l-.4,.4l.4,.7m-.4,3.7l.4,.3h.7l.4,-.3l.3,-.8l-.3,-1.1l-.8,-.3l-.7,.3l-.4,1.1l.4,.8m-8.4,-5.2l-.4,1.5h.4l1.1,.4l.7,.3l.4,.8l.3,1.1l-.3,1.1l-.4,.7l-1.1,.7h-1.8l-.8,-.3l-.3,-.8l-.4,-.7h1.5l.3,.4l.8,.3h.3l.4,-.3v-.4l.4,-.7l-.4,-.8l-.7,-.3h-.4l-.7,.3l-1.1,-.3l1.1,-4.1h3.6v1.1h-2.5m-3.7,0v.8l-.4,1.1l-.7,.3l1.1,.8l.4,.7V561l-.8,.7l-.7,.7h-2.2l-.7,-.3l-.4,-.8l-.4,-1.1h1.5l.4,.8l.7,.3h.4l.3,-.3l.4,-.8v-.7l-.4,-.4h-.3l-.8,-.3v-1.1l.8,-.4l.3,-.4v-1.1H810l-.3,.8h-1.5l.4,-.8l.3,-.7l.8,-.4l.7,-.3l1.1,.3l.4,.4l.7,.7m-8.8,-.3l.4,1.4l-.4,.8v.3l-1.1,.8h-1.5v3.6h-1.4v-7.7h3.3l.7,.8m-2.6,.3v1.9h1.1v-.4l.4,-.4l-.4,-.7l-.3,-.4h-.8m-2.9,-1.1l-2.6,3.3l3,4.4h-1.9l-2.2,-3.6v3.6h-1.4v-7.7h1.4v2.6l1.9,-2.6h1.8m22.7,7.7h-.7V561h1.1l.4,.7l-.4,.7H821" class="gd"/>
<path d="M905,717.2l.7,.7v2.6l-.7,1.1v.3h-.4l-4.7,-1.8l-.4,-.4l.7,-1.4l.8,-1.1l.7,-.8l1.1,-.3l1.1,.3l1.1,.8m-4,2.2l3.6,1.1v-.4l.4,-.7l-.4,-.8l-.3,-.7l-.8,-.4h-1.4l-.8,.4l-.3,.7v.8m-1.9,2.9l5.2,.4h.3v1.1h-1.4l-.8,1.8l.8,.7v1.1h-.8l-4,-3.6V723l.4,-.3v-.4h.3m.4,1.1l1.8,1.8l.8,-1.4l-2.6,-.4m1.8,4.4l.4,.7l.4,1.1v1.1l-.8,1.1l-.7,.8h-1.1l-1.5,-.4l-1.1,-.4l-.7,-1.1v-2.2l.7,-1.1l.8,-.3l1.1,-.4l1.1,.4l1.4,.7m-2.9,3.3l1.1,.4h.7l.4,-.4l.4,-.7v-1.5l-.8,-.4l-.7,-.3h-1.8l-.4,.7l-.4,.7l.4,.8l.7,.3l.4,.4m-.7,2.6v.3l.3,-.3h2.6v.7l-.4,.4h-1.4l-.8,.3h-.3l-.4,.4v.4l2.2,.7v.7l-.4,.4L894,735.9l-.4,-.4l.8,-1.5v-.3l.3,-.4l.4,-.4l.4,-.3h1.1l.3,.3l.4,.4l.4,.4m-2.6,1.4l1.5,.4v-.4l.3,-.7V734h-.3l-.4,-.3h-.4l-.3,.3h-.4v1.1m1.5,5.2l.7,.7l.4,1.1l-.4,1.1l-.4,1.1l-1.1,.7h-.7l-1.5,-.3l-1.1,-.4l-.7,-1.1l-.4,-1.1l.4,-1.1l.4,-1.1l1.1,-.4l.7,-.3l1.5,.3l1.1,.8m-2.6,3.3l.7,.3h.8l.7,-.3l.4,-.8v-.7l-.4,-.4l-.4,-.7l-.7,-.4h-1.5l-.7,.4l-.4,.4v.7l.4,.7l.4,.4l.7,.4m-1.5,2.2v.3l.4,-.3h1.5l.3,.3l.4,.4l.4,.4V748l-.4,.3l-.4,1.5l-.3,.4l-4.8,-1.9h-.4V748l.4,-1.5l.7,-.7l.4,-.4l.4,-.4h.7l.4,.4l.3,.4m-2.2,1.8l1.5,.4l.4,-.8v-.7h-.4l-.4,-.4h-.3l-.4,.4v.4l-.4,.7m2.6,0l-.4,.7l1.5,.4l.4,-.7v-.8l-.4,-.3h-.7l-.4,.3v.4m-3.7,1.5v.3h.4l-.7,2.2l1.1,.4l.7,-1.5v-.3h.4l.3,.3l-.3,1.9l1.4,.3l.8,-1.8h.7v.4l-1.1,2.5v.4h-.4l-4.7,-1.8l-.4,-.4l1.1,-2.9h.7m-1.8,4.4l4.8,1.8h.3v.4l-.3,.7l-.4,.4h-.7l-3,.3H887l.8,.4l.3,.4l3,.7v1.1h-.4l-4.8,-1.8h-.3v-.4l.3,-.7v-.4h.4l.4,-.4h2.9l.4,-.3l-.4,-.4L887,754.2v-.7h.4" class="g4"/>
<path d="M60.1,879.2V88.7H993.7V879.2H60.1Z" class="gd"/>
<path fill-rule="evenodd" d="M84,121l10.6,38.1L82.5,150.3L69.7,158L84,121ZM82.1,105.6l5.5,7.3l.4,-5.5v-.7l-.4,-.4h-.3l-.4,-.3h2.9v.3H88.7l-.3,.4l-.4,8.4h-.4l-5.5,-7.3l-.3,5.1v1.5h1.1v.4l-3,-.4h.8L81,114v-.3l.4,-.8v-6.2l-.4,-.4l-.7,-.3h-.7l.3,-.4h2.2Z" class="ge"/>
<path d="M84,121l10.6,38.1L82.5,150.3L69.7,158L84,121M82.1,105.6l5.5,7.3l.4,-5.5v-.7l-.4,-.4h-.3l-.4,-.3h2.9v.3H88.7l-.3,.4l-.4,8.4h-.4l-5.5,-7.3l-.3,5.1v1.5h1.1v.4l-3,-.4h.8L81,114v-.3l.4,-.8v-6.2l-.4,-.4l-.7,-.3h-.7l.3,-.4h2.2" class="gf"/>
<path fill-rule="evenodd" d="M1048,589.9v-4.4h43.3v4.4H1048Z" class="gg"/>
<path d="M1091.3,589.9v-4.4h43.3v4.4h-43.3ZM1012.1,66V901.2" class="gd"/>
<path d="M1012.1,723h165m-82.5,.4v16.5m-82.5,-33.4h165M1012.1,671h165m-165,-50.3h165m-165,-53.5h165m-165,-436.7h165m-165,20.2h165m-165,112.9h165m-165,13.6h165m-165,463.1h165" class="gh"/>
<path fill-rule="evenodd" d="M1015,899.4V743.2h159.5V899.4H1015Z" class="gi"/>
<g clip-path="url(#c1)">
<path fill-rule="evenodd" d="M1015,899.4V743.2h159.5V899.4H1015Z" class="gi"/>
<path fill-rule="evenodd" d="M1145.6,735.5l-.4,.4v.3l-.4,.8v.3l-.3,.8l-.4,.3l-.7,.8l-.4,2.5l-.4,.4l-.3,1.1l.3,.4l-.3,.7l-.8,.7l-.3,.4v1.1l-.4,.7l-.7,1.1h-.4v.4l-.4,.4l-.3,.7l-.4,.7l-.4,.4h-.3l-.4,.4l-1.1,1.8l-.7,1.8v.8l.7,1.4v.4l.7,1.1l1.5,2.2l.4,.7h1.1l-.4,.4v.4l-.4,.3l-.3,.4l-.8,.7l-1.1,-1.1l.8,-1.1l-1.1,-1.1l-.8,-.7l-.3,-.4l-.8,-.3v-.4h-1.8v.4l-.7,.3l-.4,.8h-.4v.3h-.3l-1.5,1.5v.7h-.7v.4l-.4,.4l-.7,.3v.4l-.4,.4h-.4v.3l-1.1,1.1v.8h.4v.3l-.4,-.3l-.3,.3h-.4v.4l-.7,.7l-.8,1.1l-.7,1.9l-.4,.7l-.3,.7v.8l-.4,.7v.4H1121l-.4,.3l-.7,.4v.4h-.4v.3l-.3,.4l-.4,.7v.8h-.4v.3v-1.1h.4h-.4v-.3v.3h-1.1v-.3h-.3v-.4l-.4,-.4v-1.1h.7v.4v-.4h.4l.4,-.3h-.4V774h-.4l-.3,-.4h-.4l.4,.4v.4h-.8v2.2l-.3,.3l.3,.4v.7l.4,.4h.4v.7h-.4l-.4,.4v-.4h-.3v-.3l-.8,-.4l-.3,-.4h-.4v-.3h-.4v.7h.4v.4h-.4h.4v.3h-.4v.4h-.4v.4h-1.1v.3h-.3v1.1h.3v.4l-.3,.4h-.8v-.4v.7v-.3h-.3v.3h-.8v.8l-.3,.3h-.4l-.7,.4v.4h-.4v.7l-.4,.4v.3h-.3l-.4,.4v-.4h-.4v.8h-.3v.3l.3,-.3v.3l-.3,.4h-.4v.4h-.4v.3l.4,-.3l.4,-.4l.3,-.4h.8v-.3h.3v-.4h-.3v.4v-.8h.3v-.3h.4h-.4v.7l.4,.4v.7v-1.1l-.4,-.4h.4v-.3h.4V785h.3v-.4l.4,-.3h.4l.3,-.4l.4,-.4l-.4,.4l-.3,.4v.3h-.4l.4,.4h-.4v.4h.4V785l.3,.4l-.3,.3v.4l-.4,.4h.4h-.4v.3h.4v-.3h.3v-.8h.4l.7,-.3v-.8h.4v-.3h.7v-.4h.8l.3,-.4l.4,-.3v-.4l.4,-.4h.4l-.4,.4v.7h.4v-1.1h.3v-.3l.8,-.4h.3h-.3v-.4h.3v.4h.4l.4,.4l.3,1.1l.4,1.4v.8l.4,.3l-.4,-.3v-2.2l-.7,-1.1v-.4h-.4l-.4,-.7v-1.5h.4v-.4h.4l.3,.4l.4,.4l.4,.3l.3,.4l.8,.4l.7,.3l.7,-.3h3v-.4h.3l-.3,-.4h.3l.4,-.3h-.4v-.4l.4,-.4l-.4,-.3h.4v-.4h.4h-.4h.4l.3,-.4v.4V778h.4l.4,-.3h.3v-.4l.4,-.4l1.5,-.3l.3,.7v.7l.4,.4l-.4,-1.8l1.1,-.4l.4,1.5v-1.5h.4l.3,1.5v-.8h.4v.8l.4,-.4v-1.1h.7v.4h1.1v.3h.4v-5.8h.3l.4,-.4h2.6v.4l.3,-.4l2.6,-.4l.4,6.6h.3l-.3,-1.1V770h1.4v.7l.4,-.7h.4l.3,4.7v-2.9l.4,-.7l1.1,.3v2.2l.4,.4l.7,-.4v-1.4l1.1,.3v2.6h.4l-.4,-2.6l1.5,-.3v.3l-.8,.4v.7l.4,.4h.4l.3,.4l.4,-.4l.4,.4v.3l.3,-.7h1.1l.4,-.4v-.3v.3v-.3l.4,.3l.3,.4l.4,.7h.4v.4h.7l.4,.4l.3,.7l.4,.4h.4v.7v-.7l-.4,-.4l-.7,-.7l-.4,-.4l-.4,-.4h-.3l-.4,-.3l-.4,-.4l-.3,-.4v-.3h-.8l-.3,-.4l-.4,-.4l-.7,-.3h-1.1l-1.1,-.8l-1.1,-.3h-.4l-.4,-.4l-2.9,-2.9l.7,-.8l-1.4,-1.8l-1.9,-1.8l-.3,.3v-.3l.3,-.4v-.4l.4,-.3v-.4h.4v-.4l.3,.4l.4,.7l.4,.4l.3,.4l.4,.7l.7,1.1l.8,.7l1.1,1.1l1.4,1.1l.8,.8l2.5,1.8l1.5,1.1l.4,.4v.3l.3,.4l1.1,.4l1.1,.7l1.9,1.1l.3,.4l.8,.3l.7,.4h.4v.4v-.4v.4l1.1,.3h2.5l.4,-.3h.4l.3,-.4h1.1v-.4h3l.3,.4h.8l.3,.4h2.2l.4,.3h2.2v-.3h1.1v-.4h1.1l.4,-.4l.3,-.3h3l.3,-.4h1.1l.8,.4h1.1l.7,.3V907.1H1006.9V735.5h138.7Zm-37.1,49.9v-.8h.4v.4v-.4h.3l.4,-.3v.3h-.4l-.3,.4l-.4,.4Zm28.6,-23.5v-.4l.4,.4l-.4,.4v-.4Zm-26,20.9v-.4h.3v.4h-.3Zm3.7,-.4v-.3v.3Zm-1.9,-1.8h.4h-.4Zm14.3,-14.3v-.4h.4v.4h-.4Z" class="gj"/>
<path fill-rule="evenodd" d="M1145.6,735.5l-.4,.4v.3l-.4,.8v.3l-.3,.8l-.4,.3l-.7,.8l-.4,2.5l-.4,.4l-.3,1.1l.3,.4l-.3,.7l-.8,.7l-.3,.4v1.1l-.4,.7l-.7,1.1h-.4v.4l-.4,.4l-.3,.7l-.4,.7l-.4,.4h-.3l-.4,.4l-1.1,1.8l-.7,1.8v.8l.7,1.4v.4l.7,1.1l1.5,2.2l.4,.7h1.1l-.4,.4v.4l-.4,.3l-.3,.4l-.8,.7l-1.1,-1.1l.8,-1.1l-1.1,-1.1l-.8,-.7l-.3,-.4l-.8,-.3v-.4h-1.8v.4l-.7,.3l-.4,.8h-.4v.3h-.3l-1.5,1.5v.7h-.7v.4l-.4,.4l-.7,.3v.4l-.4,.4h-.4v.3l-1.1,1.1v.8h.4v.3l-.4,-.3l-.3,.3h-.4v.4l-.7,.7l-.8,1.1l-.7,1.9l-.4,.7l-.3,.7v.8l-.4,.7v.4H1121l-.4,.3l-.7,.4v.4h-.4v.3l-.3,.4l-.4,.7v.8h-.4v.3v-1.1h.4h-.4v-.3v.3h-1.1v-.3h-.3v-.4l-.4,-.4v-1.1h.7v.4v-.4h.4l.4,-.3h-.4V774h-.4l-.3,-.4h-.4l.4,.4v.4h-.8v2.2l-.3,.3l.3,.4v.7l.4,.4h.4v.7h-.4l-.4,.4v-.4h-.3v-.3l-.8,-.4l-.3,-.4h-.4v-.3h-.4v.7h.4v.4h-.4h.4v.3h-.4v.4h-.4v.4h-1.1v.3h-.3v1.1h.3v.4l-.3,.4h-.8v-.4v.7v-.3h-.3v.3h-.8v.8l-.3,.3h-.4l-.7,.4v.4h-.4v.7l-.4,.4v.3h-.3l-.4,.4v-.4h-.4v.8h-.3v.3l.3,-.3v.3l-.3,.4h-.4v.4h-.4v.3l.4,-.3l.4,-.4l.3,-.4h.8v-.3h.3v-.4h-.3v.4v-.8h.3v-.3h.4h-.4v.7l.4,.4v.7v-1.1l-.4,-.4h.4v-.3h.4V785h.3v-.4l.4,-.3h.4l.3,-.4l.4,-.4l-.4,.4l-.3,.4v.3h-.4l.4,.4h-.4v.4h.4V785l.3,.4l-.3,.3v.4l-.4,.4h.4h-.4v.3h.4v-.3h.3v-.8h.4l.7,-.3v-.8h.4v-.3h.7v-.4h.8l.3,-.4l.4,-.3v-.4l.4,-.4h.4l-.4,.4v.7h.4v-1.1h.3v-.3l.8,-.4h.3h-.3v-.4h.3v.4h.4l.4,.4l.3,1.1l.4,1.4v.8l.4,.3l-.4,-.3v-2.2l-.7,-1.1v-.4h-.4l-.4,-.7v-1.5h.4v-.4h.4l.3,.4l.4,.4l.4,.3l.3,.4l.8,.4l.7,.3l.7,-.3h3v-.4h.3l-.3,-.4h.3l.4,-.3h-.4v-.4l.4,-.4l-.4,-.3h.4v-.4h.4h-.4h.4l.3,-.4v.4V778h.4l.4,-.3h.3v-.4l.4,-.4l1.5,-.3l.3,.7v.7l.4,.4l-.4,-1.8l1.1,-.4l.4,1.5v-1.5h.4l.3,1.5v-.8h.4v.8l.4,-.4v-1.1h.7v.4h1.1v.3h.4v-5.8h.3l.4,-.4h2.6v.4l.3,-.4l2.6,-.4l.4,6.6h.3l-.3,-1.1V770h1.4v.7l.4,-.7h.4l.3,4.7v-2.9l.4,-.7l1.1,.3v2.2l.4,.4l.7,-.4v-1.4l1.1,.3v2.6h.4l-.4,-2.6l1.5,-.3v.3l-.8,.4v.7l.4,.4h.4l.3,.4l.4,-.4l.4,.4v.3l.3,-.7h1.1l.4,-.4v-.3v.3v-.3l.4,.3l.3,.4l.4,.7h.4v.4h.7l.4,.4l.3,.7l.4,.4h.4v.7v-.7l-.4,-.4l-.7,-.7l-.4,-.4l-.4,-.4h-.3l-.4,-.3l-.4,-.4l-.3,-.4v-.3h-.8l-.3,-.4l-.4,-.4l-.7,-.3h-1.1l-1.1,-.8l-1.1,-.3h-.4l-.4,-.4l-2.9,-2.9l.7,-.8l-1.4,-1.8l-1.9,-1.8l-.3,.3v-.3l.3,-.4v-.4l.4,-.3v-.4h.4v-.4l.3,.4l.4,.7l.4,.4l.3,.4l.4,.7l.7,1.1l.8,.7l1.1,1.1l1.4,1.1l.8,.8l2.5,1.8l1.5,1.1l.4,.4v.3l.3,.4l1.1,.4l1.1,.7l1.9,1.1l.3,.4l.8,.3l.7,.4h.4v.4v-.4v.4l1.1,.3h2.5l.4,-.3h.4l.3,-.4h1.1v-.4h3l.3,.4h.8l.3,.4h2.2l.4,.3h2.2v-.3h1.1v-.4h1.1l.4,-.4l.3,-.3h3l.3,-.4h1.1l.8,.4h1.1l.7,.3V907.1H1006.9V735.5h138.7Zm-37.1,49.9v-.8h.4v.4v-.4h.3l.4,-.3v.3h-.4l-.3,.4l-.4,.4Zm28.6,-23.5v-.4l.4,.4l-.4,.4v-.4Zm-26,20.9v-.4h.3v.4h-.3Zm3.7,-.4v-.3v.3Zm-1.9,-1.8h.4h-.4Zm14.3,-14.3v-.4h.4v.4h-.4Z" class="gk"/>
<path d="M1108.5,771.4l-.7,-.3l-.4,-.4l-1.1,-.4l-.3,-.3m-84,75.1v0h-.4m.4,0h-.4M1105.9,770h-.3l-.8,-.4m-5.1,-2.2l-1.1,-.4l-1.5,-1.1l-1.8,-.7m25.7,-2.6l.4,-1.1l.3,-1.8l.8,-2.2l.3,-.7v-.4l.4,-.7v-.4l.4,-.7m26,17.6l-.7,-.4l-.8,-.7l-1.8,-1.1l-.7,-.4l-.4,-.4h-.4v-.3l-.3,-.4l-1.1,-1.1V767m-107.9,90.2v-.3h.4l.4,-.4h.3m47,-31.2l.7,-.7l.7,-.4m-68.2,12.5l-1.1,-1.5l-.3,-.7m-.8,-92.4l-.3,-.4l-.4,-.3l-.7,-.8l-.4,-.7l-.7,-.7l-.4,-.8l-.4,-.3l-.3,-.4h-.4v-.4h-.4l-.3,-.3m5.5,97.5l-.8,-.7m94.7,-31.6h-1.9l-.3,.4h-.4M1069.3,796v0m59,4.8l-1.8,.3h-1.1m-4,28.3h-5.5l-.4,-.4h-.4v-.4h-.3l-1.9,-1.8v-.4h-.3v-.3l-.4,-.4l-2.2,-3.3V822l-.4,-.3v-.8m-55.7,-26h-.8M1132,756.8l-2.6,-1.1M1069.3,796l.3,-.4m-40.3,62.7l-1.1,.4h-1.1m85.8,-57.2h-1.1m16.2,53.2h-.8m-70.4,-59.4l-1.1,-.4h-1.1m12.8,42.5l1.1,-1.1l.4,-.3h.4l.3,-.4v-.4h.4v-.3h.4l1.4,-2.2l.4,-.4v-.4h.4v-.3h.3v-.4h.4v-.4h.7v-.3h1.1l.8,-.4h.7l.4,-.4h1.1v-.3h.7V829h.7v-.4h.4l.4,-.3h.3v-.4h.4l.4,-.4l.3,-.3v-.4h.4m-13.2,-30.4v0m-.4,-.4v0m.4,.4V796h-.4m0,0h-.3m46.6,-22.7l1.8,-1.5v-.4l.4,-.3v-.4l1.1,-1.5l.3,-.7l.8,-1.1v-.7l.3,-.4m7.7,-17.6l.4,-.4V748h.4v-.4m-4.4,.7V748h-.4v-1.1l-.4,-.8l-.3,-1.1l-.4,-.3l-.4,-.8v-.3l-.3,-.8l-.4,-.7l-.4,-1.1l-.3,-.7v-.4l-.4,-.7l-.4,-.4v-.4l-.3,-1.1m27.8,65.3h.4v-.4h.4l.3,-.3M1068.2,796h-1.9l-.7,-.4h-.7m43.3,21.3l-.4,-.4l-.4,-.3v-.8l-.3,-.3l-.4,-.4l-.4,-.7m44.4,-25l.4,-.3v-.4h.3v-1.8m-44.7,13.2v-1.5h.4v-.4l.3,-.3l.8,-.8l.3,-.3h.4V796h.4l1.4,-1.1m37.8,4l.4,-.3v-.4l.3,-1.1v-.4l.4,-.3V796l-.4,-1.1v-.4m-.3,4.8v-1.5l.3,-.7v-.4h.4v-2.2m-106.7,58.7l1.4,-.7m123.6,46.9l1.1,-.7M1156.9,778h-.3l-.4,-.3h-.4l-.3,-.4v-.4m-48.8,22.8v-1.5h.4v-.4h.3l.4,-.7h.4l.3,-.7h.4V796h.4l.3,-.4h.4l.7,-.3m40.7,-9.2h.4v-.4l.4,-.3l.3,-.4l.4,-.4m-1.5,2.6v-.7h.4v-.8h.4v-.3h.3V785h.4v-.4m-5.5,18l.4,-.4h.3v-.3l.4,-.4v-.4h.4v-1.8m6.6,-22.4l-.8,-.3l-.3,-.4m-70.5,9.9h.4l.4,-.4l.3,-.3m63.1,16.5l.4,-.4v-.7h.4v-1.1l-.4,-.4v-.4M1128,847.3l-.4,-.7v-2.2M1154,780.2v-1.1h.4v-.3m-40,-1.5h-.4v-.7h-.3v-.8h.3v-.3m-70.4,77.3l1.1,-.3h.4m-.8,0h.4l2.2,-1.1M1070,753.5l-1.5,-.8l-1.1,-.3l-.3,-.4m-21.7,-8.1v0m133.2,33.4h-4.8l-.7,.4m-54.7,127.6l.4,-1.5v-2.2l.4,-.4v-1.1l.3,-1.1v-.7h.4M1078.4,757.5l-1.1,-.4m-53.5,95.4l-1.5,-4.1v-.3l-.3,-1.5v-1.5m-6.3,-52.4h-2.2l-.7,-.4h-.7m45.8,3h-1.1m48,-25.7v0m-20.9,16.5v0m-38.8,66.4l1.8,-.8m57.6,-82.5h-.8l-1.1,-.7m48.8,19.8v-1.1m-67.5,-27.1l-1.4,-.8l-3.3,-1.4l-.8,-.4m-40.7,97.9l.8,-.4h.3v-.3h.8l.3,-.4l1.5,-.7l1.1,-.4h.4m108.5,-66.7v-.4m-27.8,-31.9l.3,-.4v-.3l.4,-.4l.4,-.4l.3,-.3h.4V752h.4v-.4h.3m-.7,120.7l-.4,-.8v-.3l-.3,-.4h-.4v-.4h-.7l-.4,-.3h-.4l-.3,-.4l-.4,-.4v-6.2l.4,-.4v-2.5h.3v-.4l.8,-1.1V858h.3v-1.9l.4,-.7m23.1,-52.8h-.4l-.3,.4h-.8m7,-18.4l.4,-.3v-.8m-49.2,30.1v-.4h.4v-.7h.3v-.7l.4,-.4v-1.1m-58.3,41.4l2.9,-1.4l1.1,-.4l1.1,-.4h.4l.4,-.3h.3l.4,-.4l.4,-.4l1.4,-1.1m97.6,-62.7v-.3l.4,-.4l.3,-.7v-1.1m-50.2,32.6v-.4h.3V814l.4,-.4m-.7,1.1v-.4h.3V814h.4v-.4l.4,-.4l.3,-.3v-.8l.4,-.3V811l.4,-1.1m-3,5.2h.4v-.4h.4m2.2,-1.8h-.4v-2.2l.4,-.8m44,-15.4v-3.6l.4,-.4m-.8,4v-1.8l.4,-.4v-1.4m-95.7,-44v-.4m0,0l-.8,-.4l-1.1,-.7l-.3,-.4h-.8m-33.7,48.1l-1.1,-.4h-.4m114.1,-48v-.4h.4l.3,-1.5l.4,-1.8l.4,-1.1m-91,2.9h-.4l-.7,-.3m15.4,52.4h-.7m96.1,-5.1h.3v-.4l.8,-.4v-.3h.3v-.4m-48.8,-19.8h-.3m12.1,8.8h-.4v-.4l-.3,-.3v-.8m4,8.1v-1.1h-.4v-.7l-.3,-.8l-.4,-.3v-1.1l-.4,-.4v-.7h-.3v-.4h-.4V778l-.7,-.3h-.4v-.4m12.8,77.4h-1.4m-69,-107.5v-.3h-1.5m78.9,53.9h-2.6m31.2,-23.1h-.4l-.7,.3h-4.8M1045.4,743.9l-.7,-.3h-1.8M1022,793.4h-3l-1.1,-.3h-.7m113.3,8h-2.2M1016.1,744.3l-.4,-.7m128,57.9h-.3v-.4h-.4l-.4,-.3h-.7l-.4,-.4h-.3l-1.1,.4m-50.3,-38.2h-.4m34.9,38.5h-1.8m-40.8,-13.5l.8,-.4l.3,-.4l.8,-.3l.3,-.4m32.7,2.2l.4,-.4l.7,-.3v-.4m-89.5,71.5h-1.5l-.7,.4l-2.2,.3h-.7m12.1,-2.2h.3l.4,-.3h.4l.7,-.8m48.4,-70.7V785h.4m60.1,18v-.4h-1.1v-.4h-.3v-.3h-.4l-.4,-.4m-116.6,57.2l-.4,.4l-1.8,.3h-1.5l-2.2,.4h-.3m41.8,-110l-.4,-.4h-.4l-.7,-.3m-16.1,45.1h-3.3l-1.9,-.4h-2.5l-1.5,-.4h-.4M1162.1,778h-5.9v-.3h-.4v-.4h-.3l-.4,-.4m-40.7,13.6l.7,-.4l.4,-.3h.4v-.4l.3,-.4v-.3h.4v-.4M1014.3,888.4L1011,884m93.8,-114.4v0M1050.9,745l-.7,-.3h-.4m55,24.9v0m-35.9,26.8v0m48.8,-12.9v-.7l-.4,-.4v-.3L1117,781l-.4,-.4v-1.1h-.4v-.7l-.3,-.4l-.4,-.4h-.4l-.3,-.3h-.4v-.4m-92.8,67.1v-1.1l-.4,-.4v-.3l-2.9,-4.1m104.5,-81.7l.4,-.8v-.3l.4,-.8v-.7m-54.7,42.2h.4V796m-41.5,-2.6h-.3l-1.5,-.3v-.4h-1.8M1006.9,752l.8,-.4l.7,-.3l.4,-.4l.7,-.4l.4,-.3l.3,-.4l.4,-.4l.7,-.3l.8,-.4l.7,-.4l.7,-.7l1.1,-.7m90.2,23.4v-.7M1048,794.5h-1.5m55.8,-26l-.4,-.4h-.7m-9.6,-4.4l-1.4,-.7l-.4,-.4m-54.6,30.8H1033m94.6,51v-3.3m-58.7,-44.7v0m16.5,-11l.4,-.4m9.1,-6.2h.4l.7,-.4l.8,-.7l.7,-.4l.4,-.4m-25.3,-22.3h-.8m67.2,46.2h-2.6M1085.8,785l.7,-.4m41.5,70.1v-.8m.3,-52.8h-1.1m-22.7,-30.4h.3v-.4M1015,742.8l-.4,-.7m24.6,.4l-.4,-.4l-1.1,-.4h-.3l-.4,-.3l-.4,-.4l-.3,-.4h-.4l-.4,-.3h-.3l-1.9,-.8m73,65.3l.4,-.7V803l.3,-.4v-1.8l-.3,-.8v-.3m-16.2,-18l.8,-.4m-1.9,-18.7l-.3,-.3l-3.7,-1.5l-.4,-.4m-16.1,36V796h-.4m-54.2,66.7l4,-2.2l.7,-.3l1.5,-.4h.4m86.2,-57.9v-1.5h-.4v-.7m48.4,-22.8l-.4,-.3l-.3,-.4l-.4,-.4M1016.1,744.3v-.4l-.7,-.7m57.2,11.7v-.3M1033,793.4h-1.1m42.5,-37.7l-.7,-.4l-1.1,-.4m-5.5,-2.9h-.4l-1.1,-.7l-1.5,-.8h-.3m41,19.8v-.7m-35.9,26.8h.4V796m35.5,-26.4h-.3v-.4m-32.7,-14.6l-.7,-.8l-1.1,-.3m34.8,16.1v0m-80.6,23.1h-.4l-.4,.4h-.7l-.4,.3h-.3m50.6,-38.8h-.8m-50.2,90.5v-.3m115.2,-84.7l-.4,-.4l-.4,-.4l-.3,-.3v-.4h-.4v-.4h-.4v-.3h-.3l-.4,-.4h-.7l-.4,-.4h-.4l-.7,-.3h-.4m-117,-9.9l.8,-.4l.7,-.7l.7,-.4l.4,-.4l1.1,-.7l.7,-.4v-.3h.4m49.5,52.8v0m3.7,-41.5v-.3m25.3,22.3l.3,-.3m-11.7,8l.7,-.7l.4,-.4m39.6,17.6h-2.9m-6.6,-13.9h.4v-.4h.3v-1.4h-.3v-1.1l-.4,-.4M1014.3,747.2l2.5,-1.8l1.1,-.7m17.6,48.7h-.3m1.4,63.1l1.1,-1.1m47.3,-95l-1.1,-.3m26.8,34.8h.4l1.1,-.7l.4,-.4h.3v-.4h.4v-.3h.4v-1.5h.3v-.7m-3.3,4.4l2.2,-1.5l.4,-.4l.4,-.3V792l.3,-.4v-.7h.4v-.4m13.6,63.4v-6.6m8.4,-46.5h-2.2m-9.9,54.6v-.7m-106.7,37.7l-1.9,-2.5l-1.4,-1.5M1085.8,785v0m37.4,99l1.5,-7.3m-89.5,-19.5h-.4l-.4,.4l-2.9,.4l-2.2,.3m90.6,40v-.7l.7,-2.6l.8,-4M1104.8,769.6v0l-.3,-.4m13.2,18h.4v-.4h.3v-1.4l-.3,-.4v-.7l-.4,-.4v-.4m3.7,107.5l.7,-3l.4,-2.2l.3,-1.4l.4,-.4M1021.6,844.8v-.4m94.3,-55V789h.3v-.3l.4,-.4m-15.4,-20.2l-1.1,-.7h-.4m-53.2,27.1l-1.4,-.3m44.7,-31.6h-.4m17.3,52.1l-.4,-.4V814h-.3v-.4h-.4v-.4h-.4m1.1,.8h-.4l-.3,-.8v-.3m-10.3,-47.7v0m31.9,71.1V833m-63.4,-82.5l-.4,-.3h-.4l-.3,-.4m13.5,41.8l.4,-.7h.4v-.4m1.4,-.7h.4l.7,-.8l2.2,-1.4m-28.6,7.3h-.3l-.8,.4h-2.9l-1.1,-.8m-26.4,50.6v-.3m67.5,-62l.7,-.4l.7,-.7m40,19.1h-2.2m-20.1,16.1l-.4,-.4v-.3l-.7,-.8l-.4,-.3v-.4M1006.9,752h.4l1.1,-.7l.7,-.4l5.2,-3.7m78.4,33l2.2,-1.4M1055.3,847l.4,-.4l1.1,-.7l1.8,-1.5l1.1,-1.1l2.2,-1.5l1.1,-.7l1.1,-1.1l.4,-.4l.7,-.7l.8,-.4l1.4,-1.4m-48,-93.5l.4,-.4h.7l.4,-.4h.3l.8,-.3l.7,-.4h.7l1.1,-.4l1.1,-.3l.8,-.4h.7v-.4h.7v-.3h.4l.4,-.4h.3v-.4h.4v-.3h.4m67.1,78.4v.4h-1.9l-.3,-.4h-1.5m-23.5,-22h.4l1.1,-.7l1.1,-.7l.4,-.4l1.1,-.4l.3,-.3m54,-45.5l.3,-.7l.8,-.4v-.4m-7.7,55h-3m8.1,-51.7l.4,-.3l.3,-.8l.4,-.3m-48.1,41v0m-14.6,6.6h-.4m-.4,0h-2.9l-.4,-.3h-2.9m69.7,45.8v-3.7l-.4,-1.1M1085.8,785v0m12.4,-8.4l.8,-.4l.7,-.4l.4,-.3l.7,-.4l.4,-.4h.3v-.3h.8l.7,-.8h.4v-.3h.3v-.8h.4l.4,-1.1v-.7m-9.2,-5.5l-1.5,-.7l-1.4,-.8m31.2,-9.1v-.8l.7,-1.1v-.3l.4,-.4v-.4m2.5,81.4v-.7m-112.6,1.5l-.3,-.4V833l-.4,-.7l-1.8,-2.6l-.8,-.3m83.6,-11.8h-2.2m21,-41.8v-.3l.3,-.8l.4,-.3v-.8h.4v-.3m15.7,-30.8l.8,-1.9m4.7,18.7V759l-.3,-.4h-.4v-.4h-.4v-.3h-.3v-.4h-1.1l-.4,-.4h-.4l-.7,-.3m-70.8,-7.7l-1.5,-.8l-1.1,-.3l-1.4,-.8h-.4m-39.2,159.9V902l.3,-4.1v-1.4l.4,-1.5v-1.5l-.4,-.3v-.4h-.3v-.4m25.3,-148.8l-.8,-.4M1154,775.8l-1.1,-.7l-.4,-.4v-.3h-.3V774h-.4l-.4,-.4M1042.1,743.2h-1.8v-.4m137.9,34.5h-5.5M1017.9,744.7l.8,-.8h.3l.4,-.3h.4l.3,-.4h.4l.4,-.4h.7l.7,-.3h.4l.4,-.4l1.1,-.4h.7l.7,-.3l1.1,-.4h.4l.4,-.4h.3l.4,-.3l.4,-.4m63.8,23.8h-.8m-6.6,21.7h.4m-8.1,-28.3l-1.1,-.7l-1.4,-.7h-.4m51.4,99h-1.1m0,22l.3,-.8v-1.4l.4,-.4v-.7l.4,-.8l-.4,-.3m46.9,23.8l.8,-.7l.3,-.4m-106,-57.9l.4,-.4l.7,-.4l.4,-.3l.4,-.4h.3v-.4h.4v-.3l.4,-.4l.3,-.4l.4,-.7l.7,-1.1l.4,-.4l.4,-.3l.3,-.4l.4,-.4h.4l.3,-.3h.8l.3,-.4h1.1l.4,-.4h1.1v-.3h.7l.4,-.4h.4l.3,-.4h.4v-.3h.4l.3,-.4l.4,-.4l.4,-.3l.3,-.4h.4M1127.6,748l.4,-.4l.3,-.4l.4,-.7m-19.1,74.4l-.3,-1.4l-.4,-1.1V818h-.4v-.7h-.3v-.4m-58.4,-72.2h-.3l-.8,-.4h-.7l-2.6,-.4m126.2,152.6l.7,-.4m-117,-149.2h-1.4m55.7,55l-.3,.3m-77.4,-8.8h-4.1m27.5,53.9l1.9,-1.4l.3,-.4l.8,-.7l.7,-.8l1.1,-.7l.7,-.4l.4,-.3l1.5,-1.5l1.8,-1.5l.7,-.3l.4,-.4l.4,-.4l1.4,-1.1m43,-65.2l-.4,-.4l-.7,-.4l-.8,-.3m-26.4,55.7l.7,-.7l.8,-.8m-1.5,1.5l.4,-.4l.7,-.7l1.1,-1.1M1105.9,770h-.3m67.1,7.3h-.4l-1.1,.4h-8.4m-49.1,-4.1h-.4l-.4,-.3h-.3l-.4,-.4l-.7,-.4l-.8,-.3h-.3m19,-16.5h-.7v-.4h-.4l-.3,-.4h-.4m-14.7,18.4h-.3l-.4,-.4h-.4l-.7,-.4l-1.1,-.3l-.7,-.4l-.8,-.4m42.9,2.2l-.3,-.3h-.4l-.7,-.8l-.4,-.3m-41.1,-1.1l-1.1,-.4L1106,770m-18.4,13.5h.4l1.1,-.7m-12.1,7.7l1.4,-.7m11.4,-27.2v0m31.6,-1.1l1.4,-4.7m26.8,34.1v-.4l.4,-.4v-.3l.3,-.4l.4,-.4m-52.8,28.3h.7v-.4h1.1v-.4h.7l.4,-.3l1.1,-.4l.4,-.7h.3l.4,-.4h.4m16.1,-48.4l.4,-.7l.4,-.8v-.3l.3,-.8l.4,-1.1m7.7,-16.1l.4,-.4v-.3h.3v-.4l.4,-.4v-.3m24.2,36.6v-1.8l.4,-.4v-.3h.3v-.4m-56.1,38.9l.7,-.4h.4l.4,-.4h.7v-.3l.7,-.4l.8,-.4l.3,-.3m2.6,-4.8v-.4l.4,-.7v-1.5l.3,-.7v-1.1l.4,-.4v-.7M1150,790.5v-.7m-131.7,48.7l-1.1,-1.1v-.3l-.4,-.4m152.2,62l.4,-.4l.7,-.4M1014.3,862.7l3.6,-2.2h.4l.4,-.3h.7m70.4,-97.6v0m32.7,66.4l-1.1,.4m5.8,3.6h-1.8v-.3l-.4,-.4v-.7l-.3,-.4v-.7l-.4,-.4l-.4,-.4l-.3,-.3h-.8l-.3,-.4m3.6,-77.4v-1.4h.4v-.8h.4l.3,-.7M1074,793.1l1.5,-1.1h.4v-.4h.3m-11.7,4h-.4m27.2,-14.3l.7,-.3l.7,-.8m32,-28.6l.3,-.3l.4,-.4M1105.6,770l-.8,-.4m20.6,-18.7l.4,-.4v-.3l.3,-.4l.4,-.4m-1.8,105.3h-.4m15.8,-54.3l-1.9,.4h-.7m-50.3,20.9l1.5,-1.1l.4,-.4l.3,-.4l.8,-.3l.3,-.4v-.4h.4v-.3h.7V818h.8l.3,-.4m32.7,-16.5h-1.1M1085,824.2l.4,-.7l.4,-.4l1.4,-1.4M1143.4,767l-.4,-.3l-.4,-.4v-.4h-.3l-.8,-.7l-.7,-.7l-.4,-.8l-.7,-.3l-.4,-.8l-.3,-.3l-.4,-.4l-.4,-.4l-.7,-.7l-.4,-.7h-.3l-.4,-.8h-.4m-1.8,41.5h-1.1m3.3,0h-2.2m19.1,-17.3l.3,-.7v-.4l.4,-.3v-.8m-.4,.8v-.8h.4v-1.1m-116.3,75.6l.8,-.4l.3,-.4l.4,-.3h.7l1.9,-1.1l1.8,-.8m100.9,-50.9h-.4l-.7,-.8h-.4v-.3h-.7l-.4,-.4h-1.8M1014.6,742.1l-.3,-.4l-.4,-.3l-1.8,-2.6l-.4,-.4v-.3h-.4v-.4h-.3l-.4,-.4l-.7,-.3m88,80.3l-.8,.3h-.7v.4h-1.1v-.4h-.4M1015,742.8l-.4,-.7m158.5,35.6h-9.6l-.7,.3h-.7m-33,-22.3h-.4l-.4,-.4h-.3v-.4h-.4v-.3h-.4l-.3,-.4m16.5,12.8l-.4,-.3l-.4,-.4l-.3,-.4l-.4,-.3l-1.1,-1.1l-.7,-.8l-1.5,-1.8l-.4,-.4l-.7,-.7l-.7,-.7M1114,775.5v-.4l.4,-.4v-.3l.4,-.4v-.4l.3,-.3v-.4l.8,-.4m33.3,-.7l-1.1,-.7l-1.8,-1.1l-.7,-.4v-.4h-.4v-.3h-.4l-1.1,-1.1v-.4l-.3,-.4m-16.5,-12.8l-.4,-.4v-.3h-.4v-.4h-.3v-.7h-.4v-1.1l.4,-.4v-.7h.3l.4,-.4v-.4m-111.1,-6.2l-.4,-.4m139.4,33.4l-1.1,-1.1l-.4,-.4l-.4,-.3h-.3l-.4,-.4m-65.3,48.4l1.5,-1.1m25.3,-19.8h-1.8v.4h-.8m3.3,-11h.4v-.4l.7,-.4l.4,-.3l.4,-.4m-95,70.4l-1.5,.4m113.7,-59.4h-.7l-1.9,.3M1088,821.3l.7,-.4l.7,-.7l.4,-.4l.4,-.3v-.4h.3v-.4h.4l.4,-.3h.3l.4,-.4h.7v-.4h.4m16.5,-15.4h-.7m-73.4,55h-1.4l-2.6,.8l-2.2,.3m7.7,-2.2l.7,-.3m46.6,-31.2l.7,-.7l.8,-.4l.7,-1.1m41.1,-67.5v-.3h-.4v-.4h-.3v-.4l-.4,-.3l-.4,-.4l-.3,-.4v-2.2l.3,-.3l.4,-.8h.4v-.3l.3,-.4m-20.9,56.1l.4,-.7l.3,-1.5v-.7m11.4,-.8h-3.6l-.4,.4h-1.1m-100.1,62l1.1,-.8m110,-61.6h-1.8m-99.4,58.3l-1.9,.4h-.3m97.5,-58.7h-2.5l-.4,.4h-2.6m-83.6,56.8l-1.1,.4m77.4,-48.8l.3,-2.5l.4,-1.1v-1.5m16.2,-3.7h-3m3,0h-1.1m-1.9,0h-1.1m21.7,-.3H1139M1151.8,774v-.4h-.4v-.3h-.7v-.4l-.7,-.4l-.4,-.3l-.4,-.4m-17.6,29h-1.1m-19.8,1.1h-1.1m-11,15.4h-.4l-.7,.3h-.7m26.8,-68.9l-.4,-.7v-.8l-.4,-.3l-.3,-.8v-.3l-.4,-.8l-.4,-1.1l-.3,-1.1l-.4,-1.1l-.4,-.7l-.3,-.4v-.3l-.4,-.8v-.3l-.4,-.4v-.4M1013.2,863.5l1.1,-.8m1.4,-119.1l-.7,-.8m132,59.8h-1.8v-.4h-.4l-.3,-.3m-97.6,49.5l3.7,-1.5h.3l1.1,-.4l.4,-.3h.4l.3,-.4h.4l.4,-.4l.3,-.3l1.1,-1.1m73.8,-100.9l.3,-.3v-.4l.4,-.4v-.3l.4,-.4v-.4l.3,-1.4m7,58.3h-1.1m-19.8,-12.5l.4,-.4h.3v-.3l.4,-.4m-5.9,14.3v.4h-.7l-1.5,.3m6.3,-29.7l.3,-.3l.4,-.4l.4,-.4v-.3l.3,-.4v-.4l.8,-.7v-.4l.7,-1.1l.4,-.7V767l.3,-.7m-10.6,35.9h-1.1l-.7,.4m12.4,-36.3l.4,-.7l.4,-.4v-.4l.3,-.3v-.4l.8,-2.6m10.2,-4.7l-2.2,-.8l-.3,-.3M1173.4,895h.4l.4,-.4l.3,-.3l.4,-.4l.4,-.4h.3l.4,-.3l.4,-.4l.3,-.4l1.5,-1.1m-13.6,11l1.1,-.7l.4,-.4l1.8,-1.8" class="gl"/>
</g>
<path d="M1055.3,781v.3h.4v.4h.4v.7h.3v.4h.4v.7h.4v.4h.3v.7h.4v.8h.4v.3h.3v.4h.4h-.4v.4h.4v.3h.4v.8h.3v.3l.4,.4v.4h.4v.3l.3,.4v.4h.4v.7h.4v.4h.3v.7h.4v.4h.4v.7h.3v.4h.4v.3h.7v.4h.4v.4h.4v.7h.3v.7h-.3v.4h.3v.4h.4v.7h.4v.7h.3v1.5l.4,.4v.3h.4v.8h.3v.3h.4v.8h.4v.7h.3h-.3v.4l-.4,.3v.4h-.4v.4l-.3,.3v.4h-.4v1.1h.4v.7h.3v.8h.4v.3l.4,.4v.4h.3v.7h.4v.7h.4v.8h.7v.3h.4v.8h.3v.3h.4v.4h.4v.7h.3v.4h.4v.4h2.9v.3h1.9v.4h.3v.4h.8v.7h.3v.7h.4v.4h.4v.4h-.4l.4,.3v.4h.7v.4h.4v.7h.3v.7h.4v.4h.4v.7h.3v.8h.4v.3h.4v.8h.3v.3h.4v.8h.4v.3l.3,.4v.4h.4v.7h.4v.4l.3,.3v.4h.4v.7h.4v.4h.3v.7h.4v.4h.4v.4h.3v.3h.4v.4h.7l.4,.4h.7v.3h1.5v-.3h2.9v.3h.4v.4h.7v.4h.4v.7h.4v.4l.3,.3l.4,.4l.4,-.4h1.4v-.3h1.5v-.4h1.1v-.4h.4l.3,-.3h.4v-.4h.4l.3,-.4h.4v-.3h4.1v.3h1.1v-.3h2.5v-.4h2.2l.4,-.4h7v-.3h3.3v.3h.3v.4h.4v.7h.4v1.1h2.2v.4h2.2v-1.1h.3v-.7h-.3h.3v-1.1h1.5V829h7.7l.4,-.4h3.3v-.3h.3" class="gm"/>
<path d="M1055.3,781v.3h.4v.4h.4v.7h.3v.4h.4v.7h.4v.4h.3v.7h.4v.8h.4v.3h.3v.4h.4h-.4v.4h.4v.3h.4v.8h.3v.3l.4,.4v.4h.4v.3l.3,.4v.4h.4v.7h.4v.4h.3v.7h.4v.4h.4v.7h.3v.4h.4v.3h.7v.4h.4v.4h.4v.7h.3v.7h-.3v.4h.3v.4h.4v.7h.4v.7h.3v1.5l.4,.4v.3h.4v.8h.3v.3h.4v.8h.4v.7h.3h-.3v.4l-.4,.3v.4h-.4v.4l-.3,.3v.4h-.4v1.1h.4v.7h.3v.8h.4v.3l.4,.4v.4h.3v.7h.4v.7h.4v.8h.7v.3h.4v.8h.3v.3h.4v.4h.4v.7h.3v.4h.4v.4h2.9v.3h1.9v.4h.3v.4h.8v.7h.3v.7h.4v.4h.4v.4h-.4l.4,.3v.4h.7v.4h.4v.7h.3v.7h.4v.4h.4v.7h.3v.8h.4v.3h.4v.8h.3v.3h.4v.8h.4v.3l.3,.4v.4h.4v.7h.4v.4l.3,.3v.4h.4v.7h.4v.4h.3v.7h.4v.4h.4v.4h.3v.3h.4v.4h.7l.4,.4h.7v.3h1.5v-.3h2.9v.3h.4v.4h.7v.4h.4v.7h.4v.4l.3,.3l.4,.4l.4,-.4h1.4v-.3h1.5v-.4h1.1v-.4h.4l.3,-.3h.4v-.4h.4l.3,-.4h.4v-.3h4.1v.3h1.1v-.3h2.5v-.4h2.2l.4,-.4h7v-.3h3.3v.3h.3v.4h.4v.7h.4v1.1h2.2v.4h2.2v-1.1h.3v-.7h-.3h.3v-1.1h1.5V829h7.7l.4,-.4h3.3v-.3h.3" class="gn"/>
<path d="M1055.3,781v.3h.4v.4h.4v.7h.3v.4h.4v.7h.4v.4h.3v.7h.4v.8h.4v.3h.3v.4h.4h-.4v.4h.4v.3h.4v.8h.3v.3l.4,.4v.4h.4v.3l.3,.4v.4h.4v.7h.4v.4h.3v.7h.4v.4h.4v.7h.3v.4h.4v.3h.7v.4h.4v.4h.4v.7h.3v.7h-.3v.4h.3v.4h.4v.7h.4v.7h.3v1.5l.4,.4v.3h.4v.8h.3v.3h.4v.8h.4v.7h.3h-.3v.4l-.4,.3v.4h-.4v.4l-.3,.3v.4h-.4v1.1h.4v.7h.3v.8h.4v.3l.4,.4v.4h.3v.7h.4v.7h.4v.8h.7v.3h.4v.8h.3v.3h.4v.4h.4v.7h.3v.4h.4v.4h2.9v.3h1.9v.4h.3v.4h.8v.7h.3v.7h.4v.4h.4v.4h-.4l.4,.3v.4h.7v.4h.4v.7h.3v.7h.4v.4h.4v.7h.3v.8h.4v.3h.4v.8h.3v.3h.4v.8h.4v.3l.3,.4v.4h.4v.7h.4v.4l.3,.3v.4h.4v.7h.4v.4h.3v.7h.4v.4h.4v.4h.3v.3h.4v.4h.7l.4,.4h.7v.3h1.5v-.3h2.9v.3h.4v.4h.7v.4h.4v.7h.4v.4l.3,.3l.4,.4l.4,-.4h1.4v-.3h1.5v-.4h1.1v-.4h.4l.3,-.3h.4v-.4h.4l.3,-.4h.4v-.3h4.1v.3h1.1v-.3h2.5v-.4h2.2l.4,-.4h7v-.3h3.3v.3h.3v.4h.4v.7h.4v1.1h2.2v.4h2.2v-1.1h.3v-.7h-.3h.3v-1.1h1.5V829h7.7l.4,-.4h3.3v-.3h.3" class="go"/>
<path d="M1055.3,781v.3h.4v.4h.4v.7h.3v.4h.4v.7h.4v.4h.3v.7h.4v.8h.4v.3h.3v.4h.4h-.4v.4h.4v.3h.4v.8h.3v.3l.4,.4v.4h.4v.3l.3,.4v.4h.4v.7h.4v.4h.3v.7h.4v.4h.4v.7h.3v.4h.4v.3h.7v.4h.4v.4h.4v.7h.3v.7h-.3v.4h.3v.4h.4v.7h.4v.7h.3v1.5l.4,.4v.3h.4v.8h.3v.3h.4v.8h.4v.7h.3h-.3v.4l-.4,.3v.4h-.4v.4l-.3,.3v.4h-.4v1.1h.4v.7h.3v.8h.4v.3l.4,.4v.4h.3v.7h.4v.7h.4v.8h.7v.3h.4v.8h.3v.3h.4v.4h.4v.7h.3v.4h.4v.4h2.9v.3h1.9v.4h.3v.4h.8v.7h.3v.7h.4v.4h.4v.4h-.4l.4,.3v.4h.7v.4h.4v.7h.3v.7h.4v.4h.4v.7h.3v.8h.4v.3h.4v.8h.3v.3h.4v.8h.4v.3l.3,.4v.4h.4v.7h.4v.4l.3,.3v.4h.4v.7h.4v.4h.3v.7h.4v.4h.4v.4h.3v.3h.4v.4h.7l.4,.4h.7v.3h1.5v-.3h2.9v.3h.4v.4h.7v.4h.4v.7h.4v.4l.3,.3l.4,.4l.4,-.4h1.4v-.3h1.5v-.4h1.1v-.4h.4l.3,-.3h.4v-.4h.4l.3,-.4h.4v-.3h4.1v.3h1.1v-.3h2.5v-.4h2.2l.4,-.4h7v-.3h3.3v.3h.3v.4h.4v.7h.4v1.1h2.2v.4h2.2v-1.1h.3v-.7h-.3h.3v-1.1h1.5V829h7.7l.4,-.4h3.3v-.3h.3" class="gp"/>
<path fill-rule="evenodd" d="M1128,784.6c0,-1.6,-1.4,-2.9,-3,-2.9c-1.6,0,-2.9,1.3,-2.9,2.9c0,1.6,1.3,3,2.9,3c1.6,0,3,-1.4,3,-3Z" class="gq"/>
<path d="M1131.6,831.6l-4,1.4l-1.1,-2.9l4,-1.5l1.1,3M1064.5,800l4.4,-1.8l1.1,3.3l-4.4,1.5l-1.1,-3m11,14.7l4.4,-1.5l1.1,3.3l-4.4,1.5l-1.1,-3.3m63.8,13.2l4.1,-1.5l1.1,3l-4.1,1.4l-1.1,-2.9m-73.7,-20.2l4,-1.4l1.5,3.3l-4.4,1.4l-1.1,-3.3m26,22l4.1,-1.4l1.1,2.9l-4.1,1.8l-1.1,-3.3m-20.1,-16.5l4,-1.4l1.1,3.3l-4,1.4l-1.1,-3.3" class="gr"/>
<path d="M1139.3,827.9l.4,-.4h.7l.4,-.3h.7l.4,-.4h.7v-.4h.8l.3,.4v.7l.4,.4v.7h.4v1.1h-1.1l-.4,.4h-.7v.4h-1.1v.3h-.8l-.3,-.3v-.8l-.4,-.3v-.8h-.4v-.7" class="gs"/>
<path d="M1046.5,882.2l.4,1.8l1.1,1.5l1.1,1.1h3.3l1.5,-1.1l.7,-1.5l.4,-1.8l-.4,-1.9l-.7,-1.4l-1.5,-1.1l-1.5,-.4l-1.8,.4l-1.1,1.1l-.7,1.1l-.4,1.1l-.4,1.1m1.9,0v-1.5l.7,-1.1l.7,-.4l1.1,-.3l.8,.3l1.1,.4l.3,1.1v2.9l-.3,.8l-1.1,.7h-1.9l-.7,-.7l-.7,-.8v-1.4m8.4,4.4h1.8v-5.9l3.7,5.9h1.5v-8.8h-1.5v5.8l-3.7,-5.8h-1.8v8.8m11.7,0h1.5v-7.4h2.6v-1.4H1066v1.4h2.5v7.4m12.5,0l-2.9,-8.8h-1.9l-3.3,8.8h1.9l.7,-2.2h3.3l.7,2.2h1.5m-2.9,-3.7h-2.2L1077,880l1.1,2.9m5.1,3.7h1.8v-3.7h1.5l.4,.4l.3,.3l.8,.8l1.4,2.2h1.9l-1.1,-1.9l-.8,-.7l-.3,-.7l-.8,-.8l1.1,-.3l.4,-.4l.7,-.7v-1.5l-.3,-.7l-.4,-.8h-.7l-.8,-.3h-5.1v8.8m1.8,-5.2v-2.2h3l.7,.4v1.5l-.7,.3h-3m7.7,5.2h1.9v-8.8h-1.9v8.8m3.7,-4.4l.4,1.8l.7,1.5l1.5,1.1h3.3l1.5,-1.1l.7,-1.5l.4,-1.8l-.4,-1.9l-.7,-1.4l-1.5,-1.1l-1.5,-.4l-1.8,.4l-1.1,1.1l-1.1,1.1v1.1l-.4,1.1m1.9,0v-1.5l.7,-1.1l.7,-.4l1.1,-.3l.8,.3l.7,.4l.7,1.1v2.9l-.7,.8l-.7,.7h-1.9l-.7,-.7l-.7,-.8v-1.4" class="gt"/>
<path d="M1085.8,780.6v-5.9h-1.1v2.2h-2.2v-2.2h-1.1v5.9h1.1V778h2.2v2.6h1.1m5.1,0v-3.7l-.4,-.3l-.3,-.4h-1.9l-.3,.4h-.4v.7h1.1l.4,-.4l.3,.4h.4v.7h-1.1l-.7,.4l-.4,.4l-.4,.7l.4,.4v.7h.7l.4,.4l.7,-.4l.8,-.4v.4h.7m-1.1,-1.8v.7l-.4,.4h-.7l-.4,-.4l.4,-.4v-.3h1.1m9.5,1.8v-3.3l-.3,-.7l-.4,-.4h-.7l-.4,.4h-.4l-.3,.3l-.4,-.3l-.4,-.4h-.7l-.7,.4l-.8,.3v-.3l-.3,-.4l-.4,.4v4h1.1v-2.9l.4,-.4l.3,-.4l.4,.4h.4v3.3h1.1v-2.9l.7,-.4l.4,-.4v.4h.3v3.3h1.1m3,0v-4h-.4l-.4,-.4v.4h-.3v4h1.1m0,-5.5v-.4h-1.1v1.1h1.1v-.7m2.9,5.5v-6.2h-1.1v6.2h1.1m4,-.4v-.3h-.7l-.4,-.8v-1.8h1.1v-1.1h-1.1v-.7l-.3,-.4l-.4,.4h-.4v.7h-.3v1.1h.3v2.2l.4,.4v.7h.4l.7,.4l.4,-.4h.3v-.4m5.9,-1.8l-.4,-.7l-.3,-.8l-.4,-.7h-1.8l-.8,.7l-.3,.8l-.4,.7l.4,1.1l.3,.7l.4,.4l1.1,.4l.7,-.4l.8,-.4l.3,-.7l.4,-1.1m-1.1,0v.7l-.4,.4l-.3,.4h-.8l-.3,-.4l-.4,-.4V778l.4,-.3l.3,-.4l.4,-.4l.4,.4l.3,.4l.4,.3v.4m6.3,2.2v-3.3l-.4,-.7l-.4,-.4h-.7l-.7,.4l-.8,.3v-.3l-.4,-.4l-.3,.4v4h1.1v-2.9l.4,-.4l.3,-.4l.4,.4h.4v3.3h1.1" class="gu"/>
<path d="M1015,821.3V743.2h159.5V899.4H1015V821.3" class="gv"/>
<image preserveAspectRatio="none" x="1017" y="80" width="156" height="35" xlink:href="img/4.png"/>
<path d="M1018.3,555.5v-9.6h21.3v9.6h-21.3" class="gw"/>
<path d="M1017.9,507.1h22" class="gx"/>
<path d="M1017.9,507.1h7.7m7.7,0h6.6" class="gy"/>
<path d="M1017.9,485.4h7.7m3,0h7.7m2.9,0h.7" class="gz"/>
<path d="M1017.9,463.8h22" class="g10"/>
<path d="M1017.9,440.7h22" class="g11"/>
<image preserveAspectRatio="none" x="1037" y="629" width="119" height="33" xlink:href="img/5.png"/>
<path d="M1017.9,408.8h22" class="g8"/>
<path d="M1017.9,408.8h22" class="g12"/>
<path d="M1017.9,366.6h22" class="g8"/>
<path d="M1017.9,366.6h22" class="g13"/>
<path d="M1018.3,533.8v-9.9h21.3v9.9h-21.3" class="g14"/>
</svg>