<?xml version="1.0" encoding="UTF-8" standalone="no"?>
<!DOCTYPE svg PUBLIC "-//W3C//DTD SVG 1.1//EN"
"http://www.w3.org/Graphics/SVG/1.1/DTD/svg11.dtd">
<svg viewBox="0 0 935 1210" version="1.1" xmlns="http://www.w3.org/2000/svg" xmlns:xlink="http://www.w3.org/1999/xlink">
<defs>
<style type="text/css"><![CDATA[
.g0_37{
fill: #00755C;
}
]]></style>
</defs>
<path d="M86.6,66.5H263.4V65H86.6v1.5Z" class="g0_37"/>
<path d="M263.4,66.5h1.4V65h-1.4v1.5Z" class="g0_37"/>
<path d="M264.8,66.5H848.9V65H264.8v1.5Z" class="g0_37"/>
<path d="M85.5,120H263.4v-1.5H85.5V120Z" class="g0_37"/>
<path d="M262.3,120h1.4v-1.5h-1.4V120Z" class="g0_37"/>
<path d="M263.7,120H848.9v-1.5H263.7V120Z" class="g0_37"/>
<path d="M84.5,1113.8H432v-.7H84.5v.7Z" class="g0_37"/>
<path d="M432,1113.8h.8v-.7H432v.7Z" class="g0_37"/>
<path d="M432.8,1113.8h66.6v-.7H432.8v.7Z" class="g0_37"/>
<path d="M499.4,1113.8h.7v-.7h-.7v.7Z" class="g0_37"/>
<path d="M500.1,1113.8H846.8v-.7H500.1v.7Z" class="g0_37"/>
<image preserveAspectRatio="none" x="89" y="67" width="172" height="51" xlink:href="img/1.png"/>
<image preserveAspectRatio="none" x="739" y="1124" width="107" height="42" xlink:href="img/2.png"/>
<path fill-rule="evenodd" d="M86.6,345.9H284.8v-2.3H86.6v2.3Z" class="g0_37"/>
<path fill-rule="evenodd" d="M284.8,345.9h2.3v-2.3h-2.3v2.3Z" class="g0_37"/>
<path fill-rule="evenodd" d="M287.1,345.9h567v-2.3h-567v2.3Z" class="g0_37"/>
<path fill-rule="evenodd" d="M284.8,364.7h2.3V345.9h-2.3v18.8Z" class="g0_37"/>
<path fill-rule="evenodd" d="M86.6,367H284.8v-2.3H86.6V367Z" class="g0_37"/>
<path fill-rule="evenodd" d="M284.8,367h2.3v-2.3h-2.3V367Z" class="g0_37"/>
<path fill-rule="evenodd" d="M287.1,367h567v-2.3h-567V367Z" class="g0_37"/>
<path fill-rule="evenodd" d="M284.8,385.9h2.3V367h-2.3v18.9Z" class="g0_37"/>
<path fill-rule="evenodd" d="M86.6,388.2H284.8v-2.3H86.6v2.3Z" class="g0_37"/>
<path fill-rule="evenodd" d="M284.8,388.2h2.3v-2.3h-2.3v2.3Z" class="g0_37"/>
<path fill-rule="evenodd" d="M287.1,388.2h567v-2.3h-567v2.3Z" class="g0_37"/>
<path fill-rule="evenodd" d="M284.8,422.9h2.3V388.2h-2.3v34.7Z" class="g0_37"/>
<path fill-rule="evenodd" d="M86.6,425.1H284.8v-2.2H86.6v2.2Z" class="g0_37"/>
<path fill-rule="evenodd" d="M284.8,425.1h2.3v-2.2h-2.3v2.2Z" class="g0_37"/>
<path fill-rule="evenodd" d="M287.1,425.1h567v-2.2h-567v2.2Z" class="g0_37"/>
<path fill-rule="evenodd" d="M284.8,527.7h2.3V425.1h-2.3V527.7Z" class="g0_37"/>
<path fill-rule="evenodd" d="M86.6,530H284.8v-2.3H86.6V530Z" class="g0_37"/>
<path fill-rule="evenodd" d="M284.8,530h2.3v-2.3h-2.3V530Z" class="g0_37"/>
<path fill-rule="evenodd" d="M287.1,530h567v-2.3h-567V530Z" class="g0_37"/>
<path fill-rule="evenodd" d="M284.8,548.8h2.3V530h-2.3v18.8Z" class="g0_37"/>
<path fill-rule="evenodd" d="M86.6,551.1H284.8v-2.3H86.6v2.3Z" class="g0_37"/>
<path fill-rule="evenodd" d="M284.8,551.1h2.3v-2.3h-2.3v2.3Z" class="g0_37"/>
<path fill-rule="evenodd" d="M287.1,551.1h567v-2.3h-567v2.3Z" class="g0_37"/>
<path fill-rule="evenodd" d="M284.8,585.8h2.3V551.1h-2.3v34.7Z" class="g0_37"/>
<path fill-rule="evenodd" d="M86.6,588.1H284.8v-2.3H86.6v2.3Z" class="g0_37"/>
<path fill-rule="evenodd" d="M284.8,588.1h2.3v-2.3h-2.3v2.3Z" class="g0_37"/>
<path fill-rule="evenodd" d="M287.1,588.1h567v-2.3h-567v2.3Z" class="g0_37"/>
<path fill-rule="evenodd" d="M284.8,622.8h2.3V588.1h-2.3v34.7Z" class="g0_37"/>
<path fill-rule="evenodd" d="M86.6,625.1H284.8v-2.3H86.6v2.3Z" class="g0_37"/>
<path fill-rule="evenodd" d="M284.8,625.1h2.3v-2.3h-2.3v2.3Z" class="g0_37"/>
<path fill-rule="evenodd" d="M287.1,625.1h567v-2.3h-567v2.3Z" class="g0_37"/>
<path fill-rule="evenodd" d="M284.8,644h2.3V625.1h-2.3V644Z" class="g0_37"/>
<path fill-rule="evenodd" d="M86.6,646.3H284.8V644H86.6v2.3Z" class="g0_37"/>
<path fill-rule="evenodd" d="M284.8,646.3h2.3V644h-2.3v2.3Z" class="g0_37"/>
<path fill-rule="evenodd" d="M287.1,646.3h567V644h-567v2.3Z" class="g0_37"/>
<path fill-rule="evenodd" d="M284.8,680.9h2.3V646.3h-2.3v34.6Z" class="g0_37"/>
<path fill-rule="evenodd" d="M86.6,683.2H284.8v-2.3H86.6v2.3Z" class="g0_37"/>
<path fill-rule="evenodd" d="M284.8,683.2h2.3v-2.3h-2.3v2.3Z" class="g0_37"/>
<path fill-rule="evenodd" d="M287.1,683.2h567v-2.3h-567v2.3Z" class="g0_37"/>
<path fill-rule="evenodd" d="M284.8,702.1h2.3V683.2h-2.3v18.9Z" class="g0_37"/>
<path fill-rule="evenodd" d="M86.6,704.4H284.8v-2.3H86.6v2.3Z" class="g0_37"/>
<path fill-rule="evenodd" d="M284.8,704.4h2.3v-2.3h-2.3v2.3Z" class="g0_37"/>
<path fill-rule="evenodd" d="M287.1,704.4h567v-2.3h-567v2.3Z" class="g0_37"/>
<path fill-rule="evenodd" d="M284.8,723.2h2.3V704.4h-2.3v18.8Z" class="g0_37"/>
<path fill-rule="evenodd" d="M86.6,725.5H284.8v-2.3H86.6v2.3Z" class="g0_37"/>
<path fill-rule="evenodd" d="M284.8,725.5h2.3v-2.3h-2.3v2.3Z" class="g0_37"/>
<path fill-rule="evenodd" d="M287.1,725.5h567v-2.3h-567v2.3Z" class="g0_37"/>
<path fill-rule="evenodd" d="M284.8,744.4h2.3V725.5h-2.3v18.9Z" class="g0_37"/>
<path fill-rule="evenodd" d="M86.6,746.7H284.8v-2.3H86.6v2.3Z" class="g0_37"/>
<path fill-rule="evenodd" d="M284.8,746.7h2.3v-2.3h-2.3v2.3Z" class="g0_37"/>
<path fill-rule="evenodd" d="M287.1,746.7h567v-2.3h-567v2.3Z" class="g0_37"/>
<path fill-rule="evenodd" d="M284.8,765.5h2.3V746.7h-2.3v18.8Z" class="g0_37"/>
<path fill-rule="evenodd" d="M86.6,767.8H284.8v-2.3H86.6v2.3Z" class="g0_37"/>
<path fill-rule="evenodd" d="M284.8,767.8h2.3v-2.3h-2.3v2.3Z" class="g0_37"/>
<path fill-rule="evenodd" d="M287.1,767.8h567v-2.3h-567v2.3Z" class="g0_37"/>
<path fill-rule="evenodd" d="M284.8,786.7h2.3V767.8h-2.3v18.9Z" class="g0_37"/>
<path fill-rule="evenodd" d="M86.6,789H284.8v-2.3H86.6V789Z" class="g0_37"/>
<path fill-rule="evenodd" d="M284.8,789h2.3v-2.3h-2.3V789Z" class="g0_37"/>
<path fill-rule="evenodd" d="M287.1,789h567v-2.3h-567V789Z" class="g0_37"/>
<path fill-rule="evenodd" d="M284.8,823.6h2.3V789h-2.3v34.6Z" class="g0_37"/>
<path fill-rule="evenodd" d="M86.6,825.9H284.8v-2.3H86.6v2.3Z" class="g0_37"/>
<path fill-rule="evenodd" d="M284.8,825.9h2.3v-2.3h-2.3v2.3Z" class="g0_37"/>
<path fill-rule="evenodd" d="M287.1,825.9h567v-2.3h-567v2.3Z" class="g0_37"/>
<path fill-rule="evenodd" d="M284.8,844.8h2.3V825.9h-2.3v18.9Z" class="g0_37"/>
<path fill-rule="evenodd" d="M86.6,847.1H284.8v-2.3H86.6v2.3Z" class="g0_37"/>
<path fill-rule="evenodd" d="M284.8,847.1h2.3v-2.3h-2.3v2.3Z" class="g0_37"/>
<path fill-rule="evenodd" d="M287.1,847.1h567v-2.3h-567v2.3Z" class="g0_37"/>
<path fill-rule="evenodd" d="M85.5,868.3H284.8V866H85.5v2.3Z" class="g0_37"/>
<path fill-rule="evenodd" d="M284.8,866h2.3V847.1h-2.3V866Z" class="g0_37"/>
<path fill-rule="evenodd" d="M284.8,868.3h2.3V866h-2.3v2.3Z" class="g0_37"/>
<path fill-rule="evenodd" d="M287.1,868.3h567V866h-567v2.3Z" class="g0_37"/>
</svg>