<?xml version="1.0" encoding="UTF-8" standalone="no"?>
<!DOCTYPE svg PUBLIC "-//W3C//DTD SVG 1.1//EN"
"http://www.w3.org/Graphics/SVG/1.1/DTD/svg11.dtd">
<svg viewBox="0 0 935 1210" version="1.1" xmlns="http://www.w3.org/2000/svg" xmlns:xlink="http://www.w3.org/1999/xlink">
<defs>
<style type="text/css"><![CDATA[
.g0_7{
}
]]></style>
</defs>
<path d="M110,568.2h49.1v-.8H110v.8Z" class="g0_7"/>
<path d="M159.1,568.2h.8v-.8h-.8v.8Z" class="g0_7"/>
<path d="M159.9,568.2H204v-.8H159.9v.8Z" class="g0_7"/>
<path d="M204,568.2h.8v-.8H204v.8Z" class="g0_7"/>
<path d="M204.8,568.2H311.3v-.8H204.8v.8Z" class="g0_7"/>
<path d="M311.3,568.2h.7v-.8h-.7v.8Z" class="g0_7"/>
<path d="M312,568.2h92.8v-.8H312v.8Z" class="g0_7"/>
<path d="M404.8,568.2h.7v-.8h-.7v.8Z" class="g0_7"/>
<path d="M405.5,568.2H501v-.8H405.5v.8Z" class="g0_7"/>
<path d="M501,568.2h.8v-.8H501v.8Z" class="g0_7"/>
<path d="M501.8,568.2H746.7v-.8H501.8v.8Z" class="g0_7"/>
<path d="M746.7,568.2h.8v-.8h-.8v.8Z" class="g0_7"/>
<path d="M747.4,568.2H825v-.8H747.4v.8Z" class="g0_7"/>
<path d="M110,631.6h49.1v-.8H110v.8Z" class="g0_7"/>
<path d="M159.1,631.6h.8v-.8h-.8v.8Z" class="g0_7"/>
<path d="M159.9,631.6H204v-.8H159.9v.8Z" class="g0_7"/>
<path d="M204,631.6h.8v-.8H204v.8Z" class="g0_7"/>
<path d="M204.8,631.6H311.3v-.8H204.8v.8Z" class="g0_7"/>
<path d="M311.3,631.6h.7v-.8h-.7v.8Z" class="g0_7"/>
<path d="M312,631.6h92.8v-.8H312v.8Z" class="g0_7"/>
<path d="M404.8,631.6h.7v-.8h-.7v.8Z" class="g0_7"/>
<path d="M405.5,631.6H501v-.8H405.5v.8Z" class="g0_7"/>
<path d="M501,631.6h.8v-.8H501v.8Z" class="g0_7"/>
<path d="M501.8,631.6H746.7v-.8H501.8v.8Z" class="g0_7"/>
<path d="M746.7,631.6h.8v-.8h-.8v.8Z" class="g0_7"/>
<path d="M747.4,631.6H825v-.8H747.4v.8Z" class="g0_7"/>
<path d="M110,678.2h49.1v-.8H110v.8Z" class="g0_7"/>
<path d="M159.1,678.2h.8v-.8h-.8v.8Z" class="g0_7"/>
<path d="M159.9,678.2H204v-.8H159.9v.8Z" class="g0_7"/>
<path d="M204,678.2h.8v-.8H204v.8Z" class="g0_7"/>
<path d="M204.8,678.2H311.3v-.8H204.8v.8Z" class="g0_7"/>
<path d="M311.3,678.2h.7v-.8h-.7v.8Z" class="g0_7"/>
<path d="M312,678.2h92.8v-.8H312v.8Z" class="g0_7"/>
<path d="M404.8,678.2h.7v-.8h-.7v.8Z" class="g0_7"/>
<path d="M405.5,678.2H501v-.8H405.5v.8Z" class="g0_7"/>
<path d="M501,678.2h.8v-.8H501v.8Z" class="g0_7"/>
<path d="M501.8,678.2H746.7v-.8H501.8v.8Z" class="g0_7"/>
<path d="M746.7,678.2h.8v-.8h-.8v.8Z" class="g0_7"/>
<path d="M747.4,678.2H825v-.8H747.4v.8Z" class="g0_7"/>
<path d="M110,724.7h49.1V724H110v.7Z" class="g0_7"/>
<path d="M159.1,724.7h.8V724h-.8v.7Z" class="g0_7"/>
<path d="M159.9,724.7H204V724H159.9v.7Z" class="g0_7"/>
<path d="M204,724.7h.8V724H204v.7Z" class="g0_7"/>
<path d="M204.8,724.7H311.3V724H204.8v.7Z" class="g0_7"/>
<path d="M311.3,724.7h.7V724h-.7v.7Z" class="g0_7"/>
<path d="M312,724.7h92.8V724H312v.7Z" class="g0_7"/>
<path d="M404.8,724.7h.7V724h-.7v.7Z" class="g0_7"/>
<path d="M405.5,724.7H501V724H405.5v.7Z" class="g0_7"/>
<path d="M501,724.7h.8V724H501v.7Z" class="g0_7"/>
<path d="M501.8,724.7H746.7V724H501.8v.7Z" class="g0_7"/>
<path d="M746.7,724.7h.8V724h-.8v.7Z" class="g0_7"/>
<path d="M747.4,724.7H825V724H747.4v.7Z" class="g0_7"/>
<path d="M110,788h49.1v-.8H110v.8Z" class="g0_7"/>
<path d="M159.1,788h.8v-.8h-.8v.8Z" class="g0_7"/>
<path d="M159.9,788H204v-.8H159.9v.8Z" class="g0_7"/>
<path d="M204,788h.8v-.8H204v.8Z" class="g0_7"/>
<path d="M204.8,788H311.3v-.8H204.8v.8Z" class="g0_7"/>
<path d="M311.3,788h.7v-.8h-.7v.8Z" class="g0_7"/>
<path d="M312,788h92.8v-.8H312v.8Z" class="g0_7"/>
<path d="M404.8,788h.7v-.8h-.7v.8Z" class="g0_7"/>
<path d="M405.5,788H501v-.8H405.5v.8Z" class="g0_7"/>
<path d="M501,788h.8v-.8H501v.8Z" class="g0_7"/>
<path d="M501.8,788H746.7v-.8H501.8v.8Z" class="g0_7"/>
<path d="M746.7,788h.8v-.8h-.8v.8Z" class="g0_7"/>
<path d="M747.4,788H825v-.8H747.4v.8Z" class="g0_7"/>
<path d="M110,851.4h49.1v-.7H110v.7Z" class="g0_7"/>
<path d="M159.1,851.4h.8v-.7h-.8v.7Z" class="g0_7"/>
<path d="M159.9,851.4H204v-.7H159.9v.7Z" class="g0_7"/>
<path d="M204,851.4h.8v-.7H204v.7Z" class="g0_7"/>
<path d="M204.8,851.4H311.3v-.7H204.8v.7Z" class="g0_7"/>
<path d="M311.3,851.4h.7v-.7h-.7v.7Z" class="g0_7"/>
<path d="M312,851.4h92.8v-.7H312v.7Z" class="g0_7"/>
<path d="M404.8,851.4h.7v-.7h-.7v.7Z" class="g0_7"/>
<path d="M405.5,851.4H501v-.7H405.5v.7Z" class="g0_7"/>
<path d="M501,851.4h.8v-.7H501v.7Z" class="g0_7"/>
<path d="M501.8,851.4H746.7v-.7H501.8v.7Z" class="g0_7"/>
<path d="M746.7,851.4h.8v-.7h-.8v.7Z" class="g0_7"/>
<path d="M747.4,851.4H825v-.7H747.4v.7Z" class="g0_7"/>
<path d="M110,914.6h49.1v-.7H110v.7Z" class="g0_7"/>
<path d="M159.1,914.6h.8v-.7h-.8v.7Z" class="g0_7"/>
<path d="M159.9,914.6H204v-.7H159.9v.7Z" class="g0_7"/>
<path d="M204,914.6h.8v-.7H204v.7Z" class="g0_7"/>
<path d="M204.8,914.6H311.3v-.7H204.8v.7Z" class="g0_7"/>
<path d="M311.3,914.6h.7v-.7h-.7v.7Z" class="g0_7"/>
<path d="M312,914.6h92.8v-.7H312v.7Z" class="g0_7"/>
<path d="M404.8,914.6h.7v-.7h-.7v.7Z" class="g0_7"/>
<path d="M405.5,914.6H501v-.7H405.5v.7Z" class="g0_7"/>
<path d="M501,914.6h.8v-.7H501v.7Z" class="g0_7"/>
<path d="M501.8,914.6H746.7v-.7H501.8v.7Z" class="g0_7"/>
<path d="M746.7,914.6h.8v-.7h-.8v.7Z" class="g0_7"/>
<path d="M747.4,914.6H825v-.7H747.4v.7Z" class="g0_7"/>
<path d="M110,961.2h49.1v-.7H110v.7Z" class="g0_7"/>
<path d="M159.1,961.2h.8v-.7h-.8v.7Z" class="g0_7"/>
<path d="M159.9,961.2H204v-.7H159.9v.7Z" class="g0_7"/>
<path d="M204,961.2h.8v-.7H204v.7Z" class="g0_7"/>
<path d="M204.8,961.2H311.3v-.7H204.8v.7Z" class="g0_7"/>
<path d="M311.3,961.2h.7v-.7h-.7v.7Z" class="g0_7"/>
<path d="M312,961.2h92.8v-.7H312v.7Z" class="g0_7"/>
<path d="M404.8,961.2h.7v-.7h-.7v.7Z" class="g0_7"/>
<path d="M405.5,961.2H501v-.7H405.5v.7Z" class="g0_7"/>
<path d="M501,961.2h.8v-.7H501v.7Z" class="g0_7"/>
<path d="M501.8,961.2H746.7v-.7H501.8v.7Z" class="g0_7"/>
<path d="M746.7,961.2h.8v-.7h-.8v.7Z" class="g0_7"/>
<path d="M747.4,961.2H825v-.7H747.4v.7Z" class="g0_7"/>
<path d="M110,1024.7h49.1v-.8H110v.8Z" class="g0_7"/>
<path d="M159.1,1024.7h.8v-.8h-.8v.8Z" class="g0_7"/>
<path d="M159.9,1024.7H204v-.8H159.9v.8Z" class="g0_7"/>
<path d="M204,1024.7h.8v-.8H204v.8Z" class="g0_7"/>
<path d="M204.8,1024.7H311.3v-.8H204.8v.8Z" class="g0_7"/>
<path d="M311.3,1024.7h.7v-.8h-.7v.8Z" class="g0_7"/>
<path d="M312,1024.7h92.8v-.8H312v.8Z" class="g0_7"/>
<path d="M404.8,1024.7h.7v-.8h-.7v.8Z" class="g0_7"/>
<path d="M405.5,1024.7H501v-.8H405.5v.8Z" class="g0_7"/>
<path d="M501,1024.7h.8v-.8H501v.8Z" class="g0_7"/>
<path d="M501.8,1024.7H746.7v-.8H501.8v.8Z" class="g0_7"/>
<path d="M746.7,1024.7h.8v-.8h-.8v.8Z" class="g0_7"/>
<path d="M747.4,1024.7H825v-.8H747.4v.8Z" class="g0_7"/>
</svg>