<?xml version="1.0" encoding="UTF-8" standalone="no"?>
<!DOCTYPE svg PUBLIC "-//W3C//DTD SVG 1.1//EN"
"http://www.w3.org/Graphics/SVG/1.1/DTD/svg11.dtd">
<svg viewBox="0 0 935 1210" version="1.1" xmlns="http://www.w3.org/2000/svg" xmlns:xlink="http://www.w3.org/1999/xlink">
<defs>
<style type="text/css"><![CDATA[
.g0_63{
fill: #00755C;
}
]]></style>
</defs>
<path d="M86.5,66.5H263.3V65.1H86.5v1.4Z" class="g0_63"/>
<path d="M263.3,66.5h1.4V65.1h-1.4v1.4Z" class="g0_63"/>
<path d="M264.7,66.5H848.8V65.1H264.7v1.4Z" class="g0_63"/>
<path d="M85.4,120.1H263.3v-1.5H85.4v1.5Z" class="g0_63"/>
<path d="M262.2,120.1h1.4v-1.5h-1.4v1.5Z" class="g0_63"/>
<path d="M263.6,120.1H848.8v-1.5H263.6v1.5Z" class="g0_63"/>
<path d="M84.3,1113.8H431.9v-.8H84.3v.8Z" class="g0_63"/>
<path d="M431.9,1113.8h.8v-.8h-.8v.8Z" class="g0_63"/>
<path d="M432.7,1113.8h66.5v-.8H432.7v.8Z" class="g0_63"/>
<path d="M499.2,1113.8h.8v-.8h-.8v.8Z" class="g0_63"/>
<path d="M499.9,1113.8H846.6v-.8H499.9v.8Z" class="g0_63"/>
<image preserveAspectRatio="none" x="87" y="67" width="172" height="51" xlink:href="img/1.png"/>
<image preserveAspectRatio="none" x="741" y="1125" width="106" height="41" xlink:href="img/2.png"/>
<path fill-rule="evenodd" d="M86.4,382.4H209.2v-2.2H86.4v2.2Z" class="g0_63"/>
<path d="M209.2,382.6h2.2v-.2h-2.2v.2Z" class="g0_63"/>
<path fill-rule="evenodd" d="M209.2,382.4h2.2v-2.2h-2.2v2.2Z" class="g0_63"/>
<path fill-rule="evenodd" d="M211.4,382.4H848.6v-2.2H211.4v2.2Z" class="g0_63"/>
<path fill-rule="evenodd" d="M209.2,410.7h2.2V382.6h-2.2v28.1Z" class="g0_63"/>
<path fill-rule="evenodd" d="M86.4,412.9H209.2v-2.2H86.4v2.2Z" class="g0_63"/>
<path fill-rule="evenodd" d="M209.2,412.9h2.2v-2.2h-2.2v2.2Z" class="g0_63"/>
<path fill-rule="evenodd" d="M211.4,412.9H848.6v-2.2H211.4v2.2Z" class="g0_63"/>
<path fill-rule="evenodd" d="M86.4,434H209.2v-2.2H86.4V434Z" class="g0_63"/>
<path d="M209.2,434.1h2.2V434h-2.2v.1Z" class="g0_63"/>
<path fill-rule="evenodd" d="M209.2,434h2.2v-2.2h-2.2V434Z" class="g0_63"/>
<path fill-rule="evenodd" d="M211.4,434H848.6v-2.2H211.4V434Z" class="g0_63"/>
<path fill-rule="evenodd" d="M209.2,468.8h2.2V434.1h-2.2v34.7Z" class="g0_63"/>
<path fill-rule="evenodd" d="M86.4,471H209.2v-2.2H86.4V471Z" class="g0_63"/>
<path fill-rule="evenodd" d="M209.2,471.2h2.2v-2.4h-2.2v2.4Z" class="g0_63"/>
<path fill-rule="evenodd" d="M211.4,471H848.6v-2.2H211.4V471Z" class="g0_63"/>
<path fill-rule="evenodd" d="M209.2,505.6h2.2V471.2h-2.2v34.4Z" class="g0_63"/>
<path fill-rule="evenodd" d="M86.4,507.8H209.2v-2.2H86.4v2.2Z" class="g0_63"/>
<path fill-rule="evenodd" d="M209.2,507.8h2.2v-2.2h-2.2v2.2Z" class="g0_63"/>
<path fill-rule="evenodd" d="M211.4,507.8H848.6v-2.2H211.4v2.2Z" class="g0_63"/>
<path fill-rule="evenodd" d="M86.4,529.1H209.2v-2.2H86.4v2.2Z" class="g0_63"/>
<path d="M209.2,529.3h2.2v-.2h-2.2v.2Z" class="g0_63"/>
<path fill-rule="evenodd" d="M209.2,529.1h2.2v-2.2h-2.2v2.2Z" class="g0_63"/>
<path fill-rule="evenodd" d="M211.4,529.1H848.6v-2.2H211.4v2.2Z" class="g0_63"/>
<path fill-rule="evenodd" d="M209.2,579.7h2.2V529.3h-2.2v50.4Z" class="g0_63"/>
<path fill-rule="evenodd" d="M86.4,581.9H209.2v-2.2H86.4v2.2Z" class="g0_63"/>
<path fill-rule="evenodd" d="M209.2,582.1h2.2v-2.4h-2.2v2.4Z" class="g0_63"/>
<path fill-rule="evenodd" d="M211.4,581.9H848.6v-2.2H211.4v2.2Z" class="g0_63"/>
<path fill-rule="evenodd" d="M85.2,618.9h124v-2.2H85.2v2.2Z" class="g0_63"/>
<path fill-rule="evenodd" d="M209.2,616.7h2.2V582.1h-2.2v34.6Z" class="g0_63"/>
<path fill-rule="evenodd" d="M209.2,618.9h2.2v-2.2h-2.2v2.2Z" class="g0_63"/>
<path fill-rule="evenodd" d="M211.4,618.9H848.6v-2.2H211.4v2.2Z" class="g0_63"/>
</svg>