<?xml version="1.0" encoding="UTF-8" standalone="no"?>
<!DOCTYPE svg PUBLIC "-//W3C//DTD SVG 1.1//EN"
"http://www.w3.org/Graphics/SVG/1.1/DTD/svg11.dtd">
<svg viewBox="0 0 1210 935" version="1.1" xmlns="http://www.w3.org/2000/svg" xmlns:xlink="http://www.w3.org/1999/xlink">
<defs>
<style type="text/css"><![CDATA[
.g0_51{
fill: #00755C;
}
]]></style>
</defs>
<path d="M86.9,66.4h172V64.9H86.9v1.5Z" class="g0_51"/>
<path d="M258.9,66.4h1.4V64.9h-1.4v1.5Z" class="g0_51"/>
<path d="M260.3,66.4h862.8V64.9H260.3v1.5Z" class="g0_51"/>
<path d="M85.8,119.9H258.9v-1.5H85.8v1.5Z" class="g0_51"/>
<path d="M257.8,119.9h1.4v-1.5h-1.4v1.5Z" class="g0_51"/>
<path d="M259.2,119.9h863.9v-1.5H259.2v1.5Z" class="g0_51"/>
<path d="M84.7,838.2H558.2v-.7H84.7v.7Z" class="g0_51"/>
<path d="M558.2,838.2h.8v-.7h-.8v.7Z" class="g0_51"/>
<path d="M559,838.2h90.7v-.7H559v.7Z" class="g0_51"/>
<path d="M649.7,838.2h.8v-.7h-.8v.7Z" class="g0_51"/>
<path d="M650.5,838.2h472.6v-.7H650.5v.7Z" class="g0_51"/>
<image preserveAspectRatio="none" x="87" y="67" width="172" height="51" xlink:href="img/1.png"/>
<image preserveAspectRatio="none" x="1018" y="849" width="105" height="41" xlink:href="img/2.png"/>
<path fill-rule="evenodd" d="M86.9,192.3H292.1v-2.2H86.9v2.2Z" class="g0_51"/>
<path d="M292.1,192.5h2.2v-.2h-2.2v.2Z" class="g0_51"/>
<path fill-rule="evenodd" d="M292.1,192.3h2.2v-2.2h-2.2v2.2Z" class="g0_51"/>
<path fill-rule="evenodd" d="M294.3,192.3H509.1v-2.2H294.3v2.2Z" class="g0_51"/>
<path d="M509.1,192.5h2.2v-.2h-2.2v.2Z" class="g0_51"/>
<path fill-rule="evenodd" d="M509.1,192.3h2.2v-2.2h-2.2v2.2Z" class="g0_51"/>
<path fill-rule="evenodd" d="M511.3,192.3H730.2v-2.2H511.3v2.2Z" class="g0_51"/>
<path d="M730.2,192.5h2.2v-.2h-2.2v.2Z" class="g0_51"/>
<path fill-rule="evenodd" d="M730.2,192.3h2.2v-2.2h-2.2v2.2Z" class="g0_51"/>
<path fill-rule="evenodd" d="M732.4,192.3h396.2v-2.2H732.4v2.2Z" class="g0_51"/>
<path fill-rule="evenodd" d="M292.1,211.4h2.2V192.5h-2.2v18.9Z" class="g0_51"/>
<path fill-rule="evenodd" d="M509.1,211.4h2.2V192.5h-2.2v18.9Z" class="g0_51"/>
<path fill-rule="evenodd" d="M730.2,211.4h2.2V192.5h-2.2v18.9Z" class="g0_51"/>
<path fill-rule="evenodd" d="M86.9,213.6H201.3v-2.2H86.9v2.2Z" class="g0_51"/>
<path d="M201.3,213.8h2.2v-.2h-2.2v.2Z" class="g0_51"/>
<path fill-rule="evenodd" d="M201.3,213.6h2.2v-2.2h-2.2v2.2Z" class="g0_51"/>
<path fill-rule="evenodd" d="M203.5,213.6h88.6v-2.2H203.5v2.2Z" class="g0_51"/>
<path fill-rule="evenodd" d="M292.1,213.8h2.2v-2.4h-2.2v2.4Z" class="g0_51"/>
<path fill-rule="evenodd" d="M294.3,213.6H509.1v-2.2H294.3v2.2Z" class="g0_51"/>
<path fill-rule="evenodd" d="M509.1,213.8h2.2v-2.4h-2.2v2.4Z" class="g0_51"/>
<path fill-rule="evenodd" d="M511.3,213.6H730.2v-2.2H511.3v2.2Z" class="g0_51"/>
<path fill-rule="evenodd" d="M730.2,213.8h2.2v-2.4h-2.2v2.4Z" class="g0_51"/>
<path fill-rule="evenodd" d="M732.4,213.6h396.2v-2.2H732.4v2.2Z" class="g0_51"/>
<path fill-rule="evenodd" d="M201.3,277.9h2.2V213.8h-2.2v64.1Z" class="g0_51"/>
<path fill-rule="evenodd" d="M292.1,277.9h2.2V213.8h-2.2v64.1Z" class="g0_51"/>
<path fill-rule="evenodd" d="M509.1,277.9h2.2V213.8h-2.2v64.1Z" class="g0_51"/>
<path fill-rule="evenodd" d="M730.2,277.9h2.2V213.8h-2.2v64.1Z" class="g0_51"/>
<path fill-rule="evenodd" d="M201.3,280.3h2.2v-2.4h-2.2v2.4Z" class="g0_51"/>
<path fill-rule="evenodd" d="M292.1,280.3h2.2v-2.4h-2.2v2.4Z" class="g0_51"/>
<path fill-rule="evenodd" d="M294.3,280.1H509.1v-2.2H294.3v2.2Z" class="g0_51"/>
<path fill-rule="evenodd" d="M509.1,280.3h2.2v-2.4h-2.2v2.4Z" class="g0_51"/>
<path fill-rule="evenodd" d="M511.3,280.1H730.2v-2.2H511.3v2.2Z" class="g0_51"/>
<path fill-rule="evenodd" d="M730.2,280.3h2.2v-2.4h-2.2v2.4Z" class="g0_51"/>
<path fill-rule="evenodd" d="M732.4,280.1h396.2v-2.2H732.4v2.2Z" class="g0_51"/>
<path fill-rule="evenodd" d="M201.3,339.3h2.2v-59h-2.2v59Z" class="g0_51"/>
<path fill-rule="evenodd" d="M292.1,339.3h2.2v-59h-2.2v59Z" class="g0_51"/>
<path fill-rule="evenodd" d="M509.1,339.3h2.2v-59h-2.2v59Z" class="g0_51"/>
<path fill-rule="evenodd" d="M730.2,339.3h2.2v-59h-2.2v59Z" class="g0_51"/>
<path fill-rule="evenodd" d="M201.3,341.7h2.2v-2.4h-2.2v2.4Z" class="g0_51"/>
<path fill-rule="evenodd" d="M292.1,341.7h2.2v-2.4h-2.2v2.4Z" class="g0_51"/>
<path fill-rule="evenodd" d="M294.3,341.5H509.1v-2.2H294.3v2.2Z" class="g0_51"/>
<path fill-rule="evenodd" d="M509.1,341.7h2.2v-2.4h-2.2v2.4Z" class="g0_51"/>
<path fill-rule="evenodd" d="M511.3,341.5H730.2v-2.2H511.3v2.2Z" class="g0_51"/>
<path fill-rule="evenodd" d="M730.2,341.7h2.2v-2.4h-2.2v2.4Z" class="g0_51"/>
<path fill-rule="evenodd" d="M732.4,341.5h396.2v-2.2H732.4v2.2Z" class="g0_51"/>
<path fill-rule="evenodd" d="M201.3,385h2.2V341.7h-2.2V385Z" class="g0_51"/>
<path fill-rule="evenodd" d="M292.1,385h2.2V341.7h-2.2V385Z" class="g0_51"/>
<path fill-rule="evenodd" d="M509.1,385h2.2V341.7h-2.2V385Z" class="g0_51"/>
<path fill-rule="evenodd" d="M730.2,385h2.2V341.7h-2.2V385Z" class="g0_51"/>
<path fill-rule="evenodd" d="M201.3,387.4h2.2V385h-2.2v2.4Z" class="g0_51"/>
<path fill-rule="evenodd" d="M292.1,387.4h2.2V385h-2.2v2.4Z" class="g0_51"/>
<path fill-rule="evenodd" d="M294.3,387.2H509.1V385H294.3v2.2Z" class="g0_51"/>
<path fill-rule="evenodd" d="M509.1,387.4h2.2V385h-2.2v2.4Z" class="g0_51"/>
<path fill-rule="evenodd" d="M511.3,387.2H730.2V385H511.3v2.2Z" class="g0_51"/>
<path fill-rule="evenodd" d="M730.2,387.4h2.2V385h-2.2v2.4Z" class="g0_51"/>
<path fill-rule="evenodd" d="M732.4,387.2h396.2V385H732.4v2.2Z" class="g0_51"/>
<path fill-rule="evenodd" d="M201.3,446.6h2.2V387.4h-2.2v59.2Z" class="g0_51"/>
<path fill-rule="evenodd" d="M292.1,446.6h2.2V387.4h-2.2v59.2Z" class="g0_51"/>
<path fill-rule="evenodd" d="M509.1,446.6h2.2V387.4h-2.2v59.2Z" class="g0_51"/>
<path fill-rule="evenodd" d="M730.2,446.6h2.2V387.4h-2.2v59.2Z" class="g0_51"/>
<path fill-rule="evenodd" d="M201.3,449h2.2v-2.4h-2.2V449Z" class="g0_51"/>
<path fill-rule="evenodd" d="M203.5,448.8h88.6v-2.2H203.5v2.2Z" class="g0_51"/>
<path fill-rule="evenodd" d="M292.1,449h2.2v-2.4h-2.2V449Z" class="g0_51"/>
<path fill-rule="evenodd" d="M294.3,448.8H509.1v-2.2H294.3v2.2Z" class="g0_51"/>
<path fill-rule="evenodd" d="M509.1,449h2.2v-2.4h-2.2V449Z" class="g0_51"/>
<path fill-rule="evenodd" d="M511.3,448.8H730.2v-2.2H511.3v2.2Z" class="g0_51"/>
<path fill-rule="evenodd" d="M730.2,449h2.2v-2.4h-2.2V449Z" class="g0_51"/>
<path fill-rule="evenodd" d="M732.4,448.8h396.2v-2.2H732.4v2.2Z" class="g0_51"/>
<path fill-rule="evenodd" d="M201.3,487.1h2.2V449h-2.2v38.1Z" class="g0_51"/>
<path fill-rule="evenodd" d="M292.1,487.1h2.2V449h-2.2v38.1Z" class="g0_51"/>
<path fill-rule="evenodd" d="M509.1,487.1h2.2V449h-2.2v38.1Z" class="g0_51"/>
<path fill-rule="evenodd" d="M730.2,487.1h2.2V449h-2.2v38.1Z" class="g0_51"/>
<path fill-rule="evenodd" d="M201.3,489.5h2.2v-2.4h-2.2v2.4Z" class="g0_51"/>
<path fill-rule="evenodd" d="M292.1,489.5h2.2v-2.4h-2.2v2.4Z" class="g0_51"/>
<path fill-rule="evenodd" d="M294.3,489.3H509.1v-2.2H294.3v2.2Z" class="g0_51"/>
<path fill-rule="evenodd" d="M509.1,489.5h2.2v-2.4h-2.2v2.4Z" class="g0_51"/>
<path fill-rule="evenodd" d="M511.3,489.3H730.2v-2.2H511.3v2.2Z" class="g0_51"/>
<path fill-rule="evenodd" d="M730.2,489.5h2.2v-2.4h-2.2v2.4Z" class="g0_51"/>
<path fill-rule="evenodd" d="M732.4,489.3h396.2v-2.2H732.4v2.2Z" class="g0_51"/>
<path fill-rule="evenodd" d="M201.3,527.6h2.2V489.5h-2.2v38.1Z" class="g0_51"/>
<path fill-rule="evenodd" d="M292.1,527.6h2.2V489.5h-2.2v38.1Z" class="g0_51"/>
<path fill-rule="evenodd" d="M509.1,527.6h2.2V489.5h-2.2v38.1Z" class="g0_51"/>
<path fill-rule="evenodd" d="M730.2,527.6h2.2V489.5h-2.2v38.1Z" class="g0_51"/>
<path fill-rule="evenodd" d="M86.9,529.8H201.3v-2.2H86.9v2.2Z" class="g0_51"/>
<path fill-rule="evenodd" d="M201.3,529.8h2.2v-2.2h-2.2v2.2Z" class="g0_51"/>
<path fill-rule="evenodd" d="M203.5,529.8h88.6v-2.2H203.5v2.2Z" class="g0_51"/>
<path fill-rule="evenodd" d="M292.1,530h2.2v-2.4h-2.2V530Z" class="g0_51"/>
<path fill-rule="evenodd" d="M294.3,529.8H509.1v-2.2H294.3v2.2Z" class="g0_51"/>
<path fill-rule="evenodd" d="M509.1,530h2.2v-2.4h-2.2V530Z" class="g0_51"/>
<path fill-rule="evenodd" d="M511.3,529.8H730.2v-2.2H511.3v2.2Z" class="g0_51"/>
<path fill-rule="evenodd" d="M730.2,530h2.2v-2.4h-2.2V530Z" class="g0_51"/>
<path fill-rule="evenodd" d="M732.4,529.8h396.2v-2.2H732.4v2.2Z" class="g0_51"/>
<path fill-rule="evenodd" d="M292.1,568.2h2.2V530h-2.2v38.2Z" class="g0_51"/>
<path fill-rule="evenodd" d="M509.1,568.2h2.2V530h-2.2v38.2Z" class="g0_51"/>
<path fill-rule="evenodd" d="M730.2,568.2h2.2V530h-2.2v38.2Z" class="g0_51"/>
<path fill-rule="evenodd" d="M292.1,570.5h2.2v-2.3h-2.2v2.3Z" class="g0_51"/>
<path fill-rule="evenodd" d="M294.3,570.4H509.1v-2.2H294.3v2.2Z" class="g0_51"/>
<path fill-rule="evenodd" d="M509.1,570.5h2.2v-2.3h-2.2v2.3Z" class="g0_51"/>
<path fill-rule="evenodd" d="M511.3,570.4H730.2v-2.2H511.3v2.2Z" class="g0_51"/>
<path fill-rule="evenodd" d="M730.2,570.5h2.2v-2.3h-2.2v2.3Z" class="g0_51"/>
<path fill-rule="evenodd" d="M732.4,570.4h396.2v-2.2H732.4v2.2Z" class="g0_51"/>
<path fill-rule="evenodd" d="M292.1,682.2h2.2V570.5h-2.2V682.2Z" class="g0_51"/>
<path fill-rule="evenodd" d="M509.1,682.2h2.2V570.5h-2.2V682.2Z" class="g0_51"/>
<path fill-rule="evenodd" d="M730.2,682.2h2.2V570.5h-2.2V682.2Z" class="g0_51"/>
<path fill-rule="evenodd" d="M86.9,684.4H292.1v-2.2H86.9v2.2Z" class="g0_51"/>
<path fill-rule="evenodd" d="M292.1,684.6h2.2v-2.4h-2.2v2.4Z" class="g0_51"/>
<path fill-rule="evenodd" d="M294.3,684.4H509.1v-2.2H294.3v2.2Z" class="g0_51"/>
<path fill-rule="evenodd" d="M509.1,684.6h2.2v-2.4h-2.2v2.4Z" class="g0_51"/>
<path fill-rule="evenodd" d="M511.3,684.4H730.2v-2.2H511.3v2.2Z" class="g0_51"/>
<path fill-rule="evenodd" d="M730.2,684.6h2.2v-2.4h-2.2v2.4Z" class="g0_51"/>
<path fill-rule="evenodd" d="M732.4,684.4h396.2v-2.2H732.4v2.2Z" class="g0_51"/>
<path fill-rule="evenodd" d="M85.8,768.9H292.1v-2.2H85.8v2.2Z" class="g0_51"/>
<path fill-rule="evenodd" d="M292.1,766.7h2.2V684.6h-2.2v82.1Z" class="g0_51"/>
<path fill-rule="evenodd" d="M292.1,768.9h2.2v-2.2h-2.2v2.2Z" class="g0_51"/>
<path fill-rule="evenodd" d="M294.3,768.9H509.1v-2.2H294.3v2.2Z" class="g0_51"/>
<path fill-rule="evenodd" d="M509.1,766.7h2.2V684.6h-2.2v82.1Z" class="g0_51"/>
<path fill-rule="evenodd" d="M509.1,768.9h2.2v-2.2h-2.2v2.2Z" class="g0_51"/>
<path fill-rule="evenodd" d="M511.3,768.9H730.2v-2.2H511.3v2.2Z" class="g0_51"/>
<path fill-rule="evenodd" d="M730.2,766.7h2.2V684.6h-2.2v82.1Z" class="g0_51"/>
<path fill-rule="evenodd" d="M730.2,768.9h2.2v-2.2h-2.2v2.2Z" class="g0_51"/>
<path fill-rule="evenodd" d="M732.4,768.9h396.2v-2.2H732.4v2.2Z" class="g0_51"/>
</svg>