<?xml version="1.0" encoding="UTF-8" standalone="no"?>
<!DOCTYPE svg PUBLIC "-//W3C//DTD SVG 1.1//EN"
"http://www.w3.org/Graphics/SVG/1.1/DTD/svg11.dtd">
<svg viewBox="0 0 935 1210" version="1.1" xmlns="http://www.w3.org/2000/svg" xmlns:xlink="http://www.w3.org/1999/xlink">
<defs>
<style type="text/css"><![CDATA[
.g0_40{
fill: #00755C;
}
]]></style>
</defs>
<path d="M86.5,66.5H263.3V65.1H86.5v1.4Z" class="g0_40"/>
<path d="M263.3,66.5h1.4V65.1h-1.4v1.4Z" class="g0_40"/>
<path d="M264.7,66.5H848.8V65.1H264.7v1.4Z" class="g0_40"/>
<path d="M85.4,120.1H263.3v-1.5H85.4v1.5Z" class="g0_40"/>
<path d="M262.2,120.1h1.4v-1.5h-1.4v1.5Z" class="g0_40"/>
<path d="M263.6,120.1H848.8v-1.5H263.6v1.5Z" class="g0_40"/>
<path d="M84.3,1113.8H431.9v-.8H84.3v.8Z" class="g0_40"/>
<path d="M431.9,1113.8h.8v-.8h-.8v.8Z" class="g0_40"/>
<path d="M432.7,1113.8h66.5v-.8H432.7v.8Z" class="g0_40"/>
<path d="M499.2,1113.8h.8v-.8h-.8v.8Z" class="g0_40"/>
<path d="M499.9,1113.8H846.6v-.8H499.9v.8Z" class="g0_40"/>
<image preserveAspectRatio="none" x="89" y="67" width="172" height="51" xlink:href="img/1.png"/>
<image preserveAspectRatio="none" x="739" y="1124" width="107" height="42" xlink:href="img/2.png"/>
<path fill-rule="evenodd" d="M86.5,192.5H222.9v-2.2H86.5v2.2Z" class="g0_40"/>
<path d="M222.9,192.7h2.2v-.2h-2.2v.2Z" class="g0_40"/>
<path fill-rule="evenodd" d="M222.9,192.5h2.2v-2.2h-2.2v2.2Z" class="g0_40"/>
<path fill-rule="evenodd" d="M225.1,192.5H854v-2.2H225.1v2.2Z" class="g0_40"/>
<path fill-rule="evenodd" d="M222.9,243.1h2.2V192.7h-2.2v50.4Z" class="g0_40"/>
<path fill-rule="evenodd" d="M86.5,245.3H222.9v-2.2H86.5v2.2Z" class="g0_40"/>
<path fill-rule="evenodd" d="M222.9,245.5h2.2v-2.4h-2.2v2.4Z" class="g0_40"/>
<path fill-rule="evenodd" d="M225.1,245.3H854v-2.2H225.1v2.2Z" class="g0_40"/>
<path fill-rule="evenodd" d="M222.9,295.9h2.2V245.5h-2.2v50.4Z" class="g0_40"/>
<path fill-rule="evenodd" d="M86.5,298.1H222.9v-2.2H86.5v2.2Z" class="g0_40"/>
<path fill-rule="evenodd" d="M222.9,298.3h2.2v-2.4h-2.2v2.4Z" class="g0_40"/>
<path fill-rule="evenodd" d="M225.1,298.1H854v-2.2H225.1v2.2Z" class="g0_40"/>
<path fill-rule="evenodd" d="M222.9,348.7h2.2V298.3h-2.2v50.4Z" class="g0_40"/>
<path fill-rule="evenodd" d="M86.5,350.9H222.9v-2.2H86.5v2.2Z" class="g0_40"/>
<path fill-rule="evenodd" d="M222.9,351.1h2.2v-2.4h-2.2v2.4Z" class="g0_40"/>
<path fill-rule="evenodd" d="M225.1,350.9H854v-2.2H225.1v2.2Z" class="g0_40"/>
<path fill-rule="evenodd" d="M222.9,448.8h2.2V351.1h-2.2v97.7Z" class="g0_40"/>
<path fill-rule="evenodd" d="M86.5,451H222.9v-2.2H86.5V451Z" class="g0_40"/>
<path fill-rule="evenodd" d="M222.9,451.2h2.2v-2.4h-2.2v2.4Z" class="g0_40"/>
<path fill-rule="evenodd" d="M225.1,451H854v-2.2H225.1V451Z" class="g0_40"/>
<path fill-rule="evenodd" d="M222.9,549.1h2.2V451.2h-2.2v97.9Z" class="g0_40"/>
<path fill-rule="evenodd" d="M86.5,551.3H222.9v-2.2H86.5v2.2Z" class="g0_40"/>
<path fill-rule="evenodd" d="M222.9,551.5h2.2v-2.4h-2.2v2.4Z" class="g0_40"/>
<path fill-rule="evenodd" d="M225.1,551.3H854v-2.2H225.1v2.2Z" class="g0_40"/>
<path fill-rule="evenodd" d="M222.9,617.7h2.2V551.5h-2.2v66.2Z" class="g0_40"/>
<path fill-rule="evenodd" d="M86.5,619.9H222.9v-2.2H86.5v2.2Z" class="g0_40"/>
<path fill-rule="evenodd" d="M222.9,620h2.2v-2.3h-2.2V620Z" class="g0_40"/>
<path fill-rule="evenodd" d="M225.1,619.9H854v-2.2H225.1v2.2Z" class="g0_40"/>
<path fill-rule="evenodd" d="M85.4,704.4H222.9v-2.2H85.4v2.2Z" class="g0_40"/>
<path fill-rule="evenodd" d="M222.9,702.2h2.2V620h-2.2v82.2Z" class="g0_40"/>
<path fill-rule="evenodd" d="M222.9,704.4h2.2v-2.2h-2.2v2.2Z" class="g0_40"/>
<path fill-rule="evenodd" d="M225.1,704.4H854v-2.2H225.1v2.2Z" class="g0_40"/>
</svg>