<?xml version="1.0" encoding="UTF-8" standalone="no"?>
<!DOCTYPE svg PUBLIC "-//W3C//DTD SVG 1.1//EN"
"http://www.w3.org/Graphics/SVG/1.1/DTD/svg11.dtd">
<svg viewBox="0 0 1210 935" version="1.1" xmlns="http://www.w3.org/2000/svg" xmlns:xlink="http://www.w3.org/1999/xlink">
<defs>
<style type="text/css"><![CDATA[
.g0_53{
fill: #00755C;
}
]]></style>
</defs>
<path d="M86.9,66.4h172V64.9H86.9v1.5Z" class="g0_53"/>
<path d="M258.9,66.4h1.4V64.9h-1.4v1.5Z" class="g0_53"/>
<path d="M260.3,66.4h862.8V64.9H260.3v1.5Z" class="g0_53"/>
<path d="M85.8,119.9H258.9v-1.5H85.8v1.5Z" class="g0_53"/>
<path d="M257.8,119.9h1.4v-1.5h-1.4v1.5Z" class="g0_53"/>
<path d="M259.2,119.9h863.9v-1.5H259.2v1.5Z" class="g0_53"/>
<path d="M84.7,838.2H558.2v-.7H84.7v.7Z" class="g0_53"/>
<path d="M558.2,838.2h.8v-.7h-.8v.7Z" class="g0_53"/>
<path d="M559,838.2h90.7v-.7H559v.7Z" class="g0_53"/>
<path d="M649.7,838.2h.8v-.7h-.8v.7Z" class="g0_53"/>
<path d="M650.5,838.2h472.6v-.7H650.5v.7Z" class="g0_53"/>
<image preserveAspectRatio="none" x="87" y="67" width="172" height="51" xlink:href="img/1.png"/>
<image preserveAspectRatio="none" x="1018" y="849" width="105" height="41" xlink:href="img/2.png"/>
<path fill-rule="evenodd" d="M86.9,192.3H292.1v-2.2H86.9v2.2Z" class="g0_53"/>
<path d="M292.1,192.5h2.2v-.2h-2.2v.2Z" class="g0_53"/>
<path fill-rule="evenodd" d="M292.1,192.3h2.2v-2.2h-2.2v2.2Z" class="g0_53"/>
<path fill-rule="evenodd" d="M294.3,192.3H509.1v-2.2H294.3v2.2Z" class="g0_53"/>
<path d="M509.1,192.5h2.2v-.2h-2.2v.2Z" class="g0_53"/>
<path fill-rule="evenodd" d="M509.1,192.3h2.2v-2.2h-2.2v2.2Z" class="g0_53"/>
<path fill-rule="evenodd" d="M511.3,192.3H730.2v-2.2H511.3v2.2Z" class="g0_53"/>
<path d="M730.2,192.5h2.2v-.2h-2.2v.2Z" class="g0_53"/>
<path fill-rule="evenodd" d="M730.2,192.3h2.2v-2.2h-2.2v2.2Z" class="g0_53"/>
<path fill-rule="evenodd" d="M732.4,192.3h396.2v-2.2H732.4v2.2Z" class="g0_53"/>
<path fill-rule="evenodd" d="M292.1,211.4h2.2V192.5h-2.2v18.9Z" class="g0_53"/>
<path fill-rule="evenodd" d="M509.1,211.4h2.2V192.5h-2.2v18.9Z" class="g0_53"/>
<path fill-rule="evenodd" d="M730.2,211.4h2.2V192.5h-2.2v18.9Z" class="g0_53"/>
<path fill-rule="evenodd" d="M86.9,213.6H292.1v-2.2H86.9v2.2Z" class="g0_53"/>
<path fill-rule="evenodd" d="M292.1,213.8h2.2v-2.4h-2.2v2.4Z" class="g0_53"/>
<path fill-rule="evenodd" d="M294.3,213.6H509.1v-2.2H294.3v2.2Z" class="g0_53"/>
<path fill-rule="evenodd" d="M509.1,213.6h2.2v-2.2h-2.2v2.2Z" class="g0_53"/>
<path fill-rule="evenodd" d="M511.3,213.6H730.2v-2.2H511.3v2.2Z" class="g0_53"/>
<path fill-rule="evenodd" d="M730.2,213.6h2.2v-2.2h-2.2v2.2Z" class="g0_53"/>
<path fill-rule="evenodd" d="M732.4,213.6h396.2v-2.2H732.4v2.2Z" class="g0_53"/>
<path fill-rule="evenodd" d="M292.1,248.4h2.2V213.8h-2.2v34.6Z" class="g0_53"/>
<path fill-rule="evenodd" d="M86.9,250.6H292.1v-2.2H86.9v2.2Z" class="g0_53"/>
<path fill-rule="evenodd" d="M292.1,250.8h2.2v-2.4h-2.2v2.4Z" class="g0_53"/>
<path fill-rule="evenodd" d="M294.3,250.6H509.1v-2.2H294.3v2.2Z" class="g0_53"/>
<path d="M509.1,250.8h2.2v-.2h-2.2v.2Z" class="g0_53"/>
<path fill-rule="evenodd" d="M509.1,250.6h2.2v-2.2h-2.2v2.2Z" class="g0_53"/>
<path fill-rule="evenodd" d="M511.3,250.6H730.2v-2.2H511.3v2.2Z" class="g0_53"/>
<path d="M730.2,250.8h2.2v-.2h-2.2v.2Z" class="g0_53"/>
<path fill-rule="evenodd" d="M730.2,250.6h2.2v-2.2h-2.2v2.2Z" class="g0_53"/>
<path fill-rule="evenodd" d="M732.4,250.6h396.2v-2.2H732.4v2.2Z" class="g0_53"/>
<path fill-rule="evenodd" d="M292.1,309.8h2.2v-59h-2.2v59Z" class="g0_53"/>
<path fill-rule="evenodd" d="M509.1,309.8h2.2v-59h-2.2v59Z" class="g0_53"/>
<path fill-rule="evenodd" d="M730.2,309.8h2.2v-59h-2.2v59Z" class="g0_53"/>
<path fill-rule="evenodd" d="M292.1,312.2h2.2v-2.4h-2.2v2.4Z" class="g0_53"/>
<path fill-rule="evenodd" d="M294.3,312H509.1v-2.2H294.3V312Z" class="g0_53"/>
<path fill-rule="evenodd" d="M509.1,312.2h2.2v-2.4h-2.2v2.4Z" class="g0_53"/>
<path fill-rule="evenodd" d="M511.3,312H730.2v-2.2H511.3V312Z" class="g0_53"/>
<path fill-rule="evenodd" d="M730.2,312.2h2.2v-2.4h-2.2v2.4Z" class="g0_53"/>
<path fill-rule="evenodd" d="M732.4,312h396.2v-2.2H732.4V312Z" class="g0_53"/>
<path fill-rule="evenodd" d="M292.1,355.5h2.2V312.2h-2.2v43.3Z" class="g0_53"/>
<path fill-rule="evenodd" d="M509.1,355.5h2.2V312.2h-2.2v43.3Z" class="g0_53"/>
<path fill-rule="evenodd" d="M730.2,355.5h2.2V312.2h-2.2v43.3Z" class="g0_53"/>
<path fill-rule="evenodd" d="M86.9,357.7H292.1v-2.2H86.9v2.2Z" class="g0_53"/>
<path fill-rule="evenodd" d="M292.1,357.9h2.2v-2.4h-2.2v2.4Z" class="g0_53"/>
<path fill-rule="evenodd" d="M294.3,357.7H509.1v-2.2H294.3v2.2Z" class="g0_53"/>
<path fill-rule="evenodd" d="M509.1,357.9h2.2v-2.4h-2.2v2.4Z" class="g0_53"/>
<path fill-rule="evenodd" d="M511.3,357.7H730.2v-2.2H511.3v2.2Z" class="g0_53"/>
<path fill-rule="evenodd" d="M730.2,357.9h2.2v-2.4h-2.2v2.4Z" class="g0_53"/>
<path fill-rule="evenodd" d="M732.4,357.7h396.2v-2.2H732.4v2.2Z" class="g0_53"/>
<path fill-rule="evenodd" d="M292.1,396h2.2V357.9h-2.2V396Z" class="g0_53"/>
<path fill-rule="evenodd" d="M509.1,396h2.2V357.9h-2.2V396Z" class="g0_53"/>
<path fill-rule="evenodd" d="M730.2,396h2.2V357.9h-2.2V396Z" class="g0_53"/>
<path fill-rule="evenodd" d="M86.9,398.2H292.1V396H86.9v2.2Z" class="g0_53"/>
<path fill-rule="evenodd" d="M292.1,398.2h2.2V396h-2.2v2.2Z" class="g0_53"/>
<path fill-rule="evenodd" d="M294.3,398.2H509.1V396H294.3v2.2Z" class="g0_53"/>
<path fill-rule="evenodd" d="M509.1,398.2h2.2V396h-2.2v2.2Z" class="g0_53"/>
<path fill-rule="evenodd" d="M511.3,398.2H730.2V396H511.3v2.2Z" class="g0_53"/>
<path fill-rule="evenodd" d="M730.2,398.2h2.2V396h-2.2v2.2Z" class="g0_53"/>
<path fill-rule="evenodd" d="M732.4,398.2h396.2V396H732.4v2.2Z" class="g0_53"/>
<path fill-rule="evenodd" d="M86.9,419.5H201.3v-2.2H86.9v2.2Z" class="g0_53"/>
<path d="M201.3,419.6h2.2v-.1h-2.2v.1Z" class="g0_53"/>
<path fill-rule="evenodd" d="M201.3,419.5h2.2v-2.2h-2.2v2.2Z" class="g0_53"/>
<path fill-rule="evenodd" d="M203.5,419.5h88.6v-2.2H203.5v2.2Z" class="g0_53"/>
<path d="M292.1,419.6h2.2v-.1h-2.2v.1Z" class="g0_53"/>
<path fill-rule="evenodd" d="M292.1,419.5h2.2v-2.2h-2.2v2.2Z" class="g0_53"/>
<path fill-rule="evenodd" d="M294.3,419.5H509.1v-2.2H294.3v2.2Z" class="g0_53"/>
<path d="M509.1,419.6h2.2v-.1h-2.2v.1Z" class="g0_53"/>
<path fill-rule="evenodd" d="M509.1,419.5h2.2v-2.2h-2.2v2.2Z" class="g0_53"/>
<path fill-rule="evenodd" d="M511.3,419.5H730.2v-2.2H511.3v2.2Z" class="g0_53"/>
<path d="M730.2,419.6h2.2v-.1h-2.2v.1Z" class="g0_53"/>
<path fill-rule="evenodd" d="M730.2,419.5h2.2v-2.2h-2.2v2.2Z" class="g0_53"/>
<path fill-rule="evenodd" d="M732.4,419.5h396.2v-2.2H732.4v2.2Z" class="g0_53"/>
<path fill-rule="evenodd" d="M201.3,494.5h2.2V419.7h-2.2v74.8Z" class="g0_53"/>
<path fill-rule="evenodd" d="M292.1,494.5h2.2V419.7h-2.2v74.8Z" class="g0_53"/>
<path fill-rule="evenodd" d="M509.1,494.5h2.2V419.7h-2.2v74.8Z" class="g0_53"/>
<path fill-rule="evenodd" d="M730.2,494.5h2.2V419.7h-2.2v74.8Z" class="g0_53"/>
<path fill-rule="evenodd" d="M201.3,496.8h2.2v-2.3h-2.2v2.3Z" class="g0_53"/>
<path fill-rule="evenodd" d="M203.5,496.6h88.6v-2.2H203.5v2.2Z" class="g0_53"/>
<path fill-rule="evenodd" d="M292.1,496.8h2.2v-2.3h-2.2v2.3Z" class="g0_53"/>
<path fill-rule="evenodd" d="M294.3,496.6H509.1v-2.2H294.3v2.2Z" class="g0_53"/>
<path fill-rule="evenodd" d="M509.1,496.8h2.2v-2.3h-2.2v2.3Z" class="g0_53"/>
<path fill-rule="evenodd" d="M511.3,496.6H730.2v-2.2H511.3v2.2Z" class="g0_53"/>
<path fill-rule="evenodd" d="M730.2,496.8h2.2v-2.3h-2.2v2.3Z" class="g0_53"/>
<path fill-rule="evenodd" d="M732.4,496.6h396.2v-2.2H732.4v2.2Z" class="g0_53"/>
<path fill-rule="evenodd" d="M201.3,547.3h2.2V496.8h-2.2v50.5Z" class="g0_53"/>
<path fill-rule="evenodd" d="M292.1,547.3h2.2V496.8h-2.2v50.5Z" class="g0_53"/>
<path fill-rule="evenodd" d="M509.1,547.3h2.2V496.8h-2.2v50.5Z" class="g0_53"/>
<path fill-rule="evenodd" d="M730.2,547.3h2.2V496.8h-2.2v50.5Z" class="g0_53"/>
<path fill-rule="evenodd" d="M201.3,549.6h2.2v-2.3h-2.2v2.3Z" class="g0_53"/>
<path fill-rule="evenodd" d="M292.1,549.6h2.2v-2.3h-2.2v2.3Z" class="g0_53"/>
<path fill-rule="evenodd" d="M294.3,549.5H509.1v-2.2H294.3v2.2Z" class="g0_53"/>
<path fill-rule="evenodd" d="M509.1,549.6h2.2v-2.3h-2.2v2.3Z" class="g0_53"/>
<path fill-rule="evenodd" d="M511.3,549.5H730.2v-2.2H511.3v2.2Z" class="g0_53"/>
<path fill-rule="evenodd" d="M730.2,549.6h2.2v-2.3h-2.2v2.3Z" class="g0_53"/>
<path fill-rule="evenodd" d="M732.4,549.5h396.2v-2.2H732.4v2.2Z" class="g0_53"/>
<path fill-rule="evenodd" d="M201.3,587.8h2.2V549.6h-2.2v38.2Z" class="g0_53"/>
<path fill-rule="evenodd" d="M292.1,587.8h2.2V549.6h-2.2v38.2Z" class="g0_53"/>
<path fill-rule="evenodd" d="M509.1,587.8h2.2V549.6h-2.2v38.2Z" class="g0_53"/>
<path fill-rule="evenodd" d="M730.2,587.8h2.2V549.6h-2.2v38.2Z" class="g0_53"/>
<path fill-rule="evenodd" d="M201.3,590.2h2.2v-2.4h-2.2v2.4Z" class="g0_53"/>
<path fill-rule="evenodd" d="M292.1,590.2h2.2v-2.4h-2.2v2.4Z" class="g0_53"/>
<path fill-rule="evenodd" d="M294.3,590H509.1v-2.2H294.3V590Z" class="g0_53"/>
<path fill-rule="evenodd" d="M509.1,590.2h2.2v-2.4h-2.2v2.4Z" class="g0_53"/>
<path fill-rule="evenodd" d="M511.3,590H730.2v-2.2H511.3V590Z" class="g0_53"/>
<path fill-rule="evenodd" d="M730.2,590.2h2.2v-2.4h-2.2v2.4Z" class="g0_53"/>
<path fill-rule="evenodd" d="M732.4,590h396.2v-2.2H732.4V590Z" class="g0_53"/>
<path fill-rule="evenodd" d="M201.3,628.3h2.2V590.2h-2.2v38.1Z" class="g0_53"/>
<path fill-rule="evenodd" d="M292.1,628.3h2.2V590.2h-2.2v38.1Z" class="g0_53"/>
<path fill-rule="evenodd" d="M509.1,628.3h2.2V590.2h-2.2v38.1Z" class="g0_53"/>
<path fill-rule="evenodd" d="M730.2,628.3h2.2V590.2h-2.2v38.1Z" class="g0_53"/>
<path fill-rule="evenodd" d="M201.3,630.7h2.2v-2.4h-2.2v2.4Z" class="g0_53"/>
<path fill-rule="evenodd" d="M292.1,630.7h2.2v-2.4h-2.2v2.4Z" class="g0_53"/>
<path fill-rule="evenodd" d="M294.3,630.5H509.1v-2.2H294.3v2.2Z" class="g0_53"/>
<path fill-rule="evenodd" d="M509.1,630.7h2.2v-2.4h-2.2v2.4Z" class="g0_53"/>
<path fill-rule="evenodd" d="M511.3,630.5H730.2v-2.2H511.3v2.2Z" class="g0_53"/>
<path fill-rule="evenodd" d="M730.2,630.7h2.2v-2.4h-2.2v2.4Z" class="g0_53"/>
<path fill-rule="evenodd" d="M732.4,630.5h396.2v-2.2H732.4v2.2Z" class="g0_53"/>
<path fill-rule="evenodd" d="M201.3,681.1h2.2V630.7h-2.2v50.4Z" class="g0_53"/>
<path fill-rule="evenodd" d="M292.1,681.1h2.2V630.7h-2.2v50.4Z" class="g0_53"/>
<path fill-rule="evenodd" d="M509.1,681.1h2.2V630.7h-2.2v50.4Z" class="g0_53"/>
<path fill-rule="evenodd" d="M730.2,681.1h2.2V630.7h-2.2v50.4Z" class="g0_53"/>
<path fill-rule="evenodd" d="M201.3,683.5h2.2v-2.4h-2.2v2.4Z" class="g0_53"/>
<path fill-rule="evenodd" d="M292.1,683.5h2.2v-2.4h-2.2v2.4Z" class="g0_53"/>
<path fill-rule="evenodd" d="M294.3,683.3H509.1v-2.2H294.3v2.2Z" class="g0_53"/>
<path fill-rule="evenodd" d="M509.1,683.5h2.2v-2.4h-2.2v2.4Z" class="g0_53"/>
<path fill-rule="evenodd" d="M511.3,683.3H730.2v-2.2H511.3v2.2Z" class="g0_53"/>
<path fill-rule="evenodd" d="M730.2,683.5h2.2v-2.4h-2.2v2.4Z" class="g0_53"/>
<path fill-rule="evenodd" d="M732.4,683.3h396.2v-2.2H732.4v2.2Z" class="g0_53"/>
<path fill-rule="evenodd" d="M201.3,721.6h2.2V683.5h-2.2v38.1Z" class="g0_53"/>
<path fill-rule="evenodd" d="M292.1,721.6h2.2V683.5h-2.2v38.1Z" class="g0_53"/>
<path fill-rule="evenodd" d="M509.1,721.6h2.2V683.5h-2.2v38.1Z" class="g0_53"/>
<path fill-rule="evenodd" d="M730.2,721.6h2.2V683.5h-2.2v38.1Z" class="g0_53"/>
<path fill-rule="evenodd" d="M201.3,724h2.2v-2.4h-2.2V724Z" class="g0_53"/>
<path fill-rule="evenodd" d="M292.1,724h2.2v-2.4h-2.2V724Z" class="g0_53"/>
<path fill-rule="evenodd" d="M294.3,723.8H509.1v-2.2H294.3v2.2Z" class="g0_53"/>
<path fill-rule="evenodd" d="M509.1,724h2.2v-2.4h-2.2V724Z" class="g0_53"/>
<path fill-rule="evenodd" d="M511.3,723.8H730.2v-2.2H511.3v2.2Z" class="g0_53"/>
<path fill-rule="evenodd" d="M730.2,724h2.2v-2.4h-2.2V724Z" class="g0_53"/>
<path fill-rule="evenodd" d="M732.4,723.8h396.2v-2.2H732.4v2.2Z" class="g0_53"/>
<path fill-rule="evenodd" d="M201.3,762.3h2.2V724h-2.2v38.3Z" class="g0_53"/>
<path fill-rule="evenodd" d="M292.1,762.3h2.2V724h-2.2v38.3Z" class="g0_53"/>
<path fill-rule="evenodd" d="M509.1,762.3h2.2V724h-2.2v38.3Z" class="g0_53"/>
<path fill-rule="evenodd" d="M730.2,762.3h2.2V724h-2.2v38.3Z" class="g0_53"/>
<path fill-rule="evenodd" d="M201.3,764.7h2.2v-2.4h-2.2v2.4Z" class="g0_53"/>
<path fill-rule="evenodd" d="M292.1,764.7h2.2v-2.4h-2.2v2.4Z" class="g0_53"/>
<path fill-rule="evenodd" d="M294.3,764.5H509.1v-2.2H294.3v2.2Z" class="g0_53"/>
<path fill-rule="evenodd" d="M509.1,764.7h2.2v-2.4h-2.2v2.4Z" class="g0_53"/>
<path fill-rule="evenodd" d="M511.3,764.5H730.2v-2.2H511.3v2.2Z" class="g0_53"/>
<path fill-rule="evenodd" d="M730.2,764.7h2.2v-2.4h-2.2v2.4Z" class="g0_53"/>
<path fill-rule="evenodd" d="M732.4,764.5h396.2v-2.2H732.4v2.2Z" class="g0_53"/>
<path fill-rule="evenodd" d="M86.9,805H201.3v-2.2H86.9V805Z" class="g0_53"/>
<path fill-rule="evenodd" d="M201.3,802.8h2.2V764.7h-2.2v38.1Z" class="g0_53"/>
<path fill-rule="evenodd" d="M201.3,805h2.2v-2.2h-2.2V805Z" class="g0_53"/>
<path fill-rule="evenodd" d="M203.5,805h88.6v-2.2H203.5V805Z" class="g0_53"/>
<path fill-rule="evenodd" d="M292.1,802.8h2.2V764.7h-2.2v38.1Z" class="g0_53"/>
<path fill-rule="evenodd" d="M292.1,805h2.2v-2.2h-2.2V805Z" class="g0_53"/>
<path fill-rule="evenodd" d="M294.3,805H509.1v-2.2H294.3V805Z" class="g0_53"/>
<path fill-rule="evenodd" d="M509.1,802.8h2.2V764.7h-2.2v38.1Z" class="g0_53"/>
<path fill-rule="evenodd" d="M509.1,805h2.2v-2.2h-2.2V805Z" class="g0_53"/>
<path fill-rule="evenodd" d="M511.3,805H730.2v-2.2H511.3V805Z" class="g0_53"/>
<path fill-rule="evenodd" d="M730.2,802.8h2.2V764.7h-2.2v38.1Z" class="g0_53"/>
<path fill-rule="evenodd" d="M730.2,805h2.2v-2.2h-2.2V805Z" class="g0_53"/>
<path fill-rule="evenodd" d="M732.4,805h396.2v-2.2H732.4V805Z" class="g0_53"/>
</svg>