<?xml version="1.0" encoding="UTF-8" standalone="no"?>
<!DOCTYPE svg PUBLIC "-//W3C//DTD SVG 1.1//EN"
"http://www.w3.org/Graphics/SVG/1.1/DTD/svg11.dtd">
<svg viewBox="0 0 935 1210" version="1.1" xmlns="http://www.w3.org/2000/svg" xmlns:xlink="http://www.w3.org/1999/xlink">
<defs>
<style type="text/css"><![CDATA[
.g0_8{
}
]]></style>
</defs>
<path d="M110,321.4H378.2v-.7H110v.7Z" class="g0_8"/>
<path d="M378.2,321.4h.7v-.7h-.7v.7Z" class="g0_8"/>
<path d="M378.9,321.4H646.3v-.7H378.9v.7Z" class="g0_8"/>
<path d="M646.3,321.4h.7v-.7h-.7v.7Z" class="g0_8"/>
<path d="M647,321.4H825v-.7H647v.7Z" class="g0_8"/>
<path d="M110,351.1H378.2v-.7H110v.7Z" class="g0_8"/>
<path d="M378.2,351.1h.7v-.7h-.7v.7Z" class="g0_8"/>
<path d="M378.9,351.1H646.3v-.7H378.9v.7Z" class="g0_8"/>
<path d="M646.3,351.1h.7v-.7h-.7v.7Z" class="g0_8"/>
<path d="M647,351.1H825v-.7H647v.7Z" class="g0_8"/>
<path d="M110,380.8H378.2v-.7H110v.7Z" class="g0_8"/>
<path d="M378.2,380.8h.7v-.7h-.7v.7Z" class="g0_8"/>
<path d="M378.9,380.8H646.3v-.7H378.9v.7Z" class="g0_8"/>
<path d="M646.3,380.8h.7v-.7h-.7v.7Z" class="g0_8"/>
<path d="M647,380.8H825v-.7H647v.7Z" class="g0_8"/>
<path d="M110,410.7H378.2v-.8H110v.8Z" class="g0_8"/>
<path d="M378.2,410.7h.7v-.8h-.7v.8Z" class="g0_8"/>
<path d="M378.9,410.7H646.3v-.8H378.9v.8Z" class="g0_8"/>
<path d="M646.3,410.7h.7v-.8h-.7v.8Z" class="g0_8"/>
<path d="M647,410.7H825v-.8H647v.8Z" class="g0_8"/>
<path d="M110,440.4H378.2v-.8H110v.8Z" class="g0_8"/>
<path d="M378.2,440.4h.7v-.8h-.7v.8Z" class="g0_8"/>
<path d="M378.9,440.4H646.3v-.8H378.9v.8Z" class="g0_8"/>
<path d="M646.3,440.4h.7v-.8h-.7v.8Z" class="g0_8"/>
<path d="M647,440.4H825v-.8H647v.8Z" class="g0_8"/>
<path d="M108.9,470.2H378.2v-.7H108.9v.7Z" class="g0_8"/>
<path d="M377.1,470.2h.7v-.7h-.7v.7Z" class="g0_8"/>
<path d="M377.9,470.2H646.3v-.7H377.9v.7Z" class="g0_8"/>
<path d="M645.2,470.2h.7v-.7h-.7v.7Z" class="g0_8"/>
<path d="M645.9,470.2H825v-.7H645.9v.7Z" class="g0_8"/>
</svg>