<?xml version="1.0" encoding="UTF-8" standalone="no"?>
<!DOCTYPE svg PUBLIC "-//W3C//DTD SVG 1.1//EN"
"http://www.w3.org/Graphics/SVG/1.1/DTD/svg11.dtd">
<svg viewBox="0 0 935 1210" version="1.1" xmlns="http://www.w3.org/2000/svg" xmlns:xlink="http://www.w3.org/1999/xlink">
<defs>
<style type="text/css"><![CDATA[
.g0_41{
}
]]></style>
</defs>
<path d="M110,129.6H303.1v-.7H110v.7Z" class="g0_41"/>
<path d="M303.1,129.6h.7v-.7h-.7v.7Z" class="g0_41"/>
<path d="M303.8,129.6H530.4v-.7H303.8v.7Z" class="g0_41"/>
<path d="M530.4,129.6h.7v-.7h-.7v.7Z" class="g0_41"/>
<path d="M531.1,129.6H825v-.7H531.1v.7Z" class="g0_41"/>
<path d="M110,176.2H303.1v-.7H110v.7Z" class="g0_41"/>
<path d="M303.1,176.2h.7v-.7h-.7v.7Z" class="g0_41"/>
<path d="M303.8,176.2H530.4v-.7H303.8v.7Z" class="g0_41"/>
<path d="M530.4,176.2h.7v-.7h-.7v.7Z" class="g0_41"/>
<path d="M531.1,176.2H825v-.7H531.1v.7Z" class="g0_41"/>
<path d="M110,206.1H303.1v-.8H110v.8Z" class="g0_41"/>
<path d="M303.1,206.1h.7v-.8h-.7v.8Z" class="g0_41"/>
<path d="M303.8,206.1H530.4v-.8H303.8v.8Z" class="g0_41"/>
<path d="M530.4,206.1h.7v-.8h-.7v.8Z" class="g0_41"/>
<path d="M531.1,206.1H825v-.8H531.1v.8Z" class="g0_41"/>
<path d="M110,370.2H303.1v-.8H110v.8Z" class="g0_41"/>
<path d="M303.1,370.2h.7v-.8h-.7v.8Z" class="g0_41"/>
<path d="M303.8,370.2H530.4v-.8H303.8v.8Z" class="g0_41"/>
<path d="M530.4,370.2h.7v-.8h-.7v.8Z" class="g0_41"/>
<path d="M531.1,370.2H825v-.8H531.1v.8Z" class="g0_41"/>
<path d="M110,433.4H303.1v-.7H110v.7Z" class="g0_41"/>
<path d="M303.1,433.4h.7v-.7h-.7v.7Z" class="g0_41"/>
<path d="M303.8,433.4H530.4v-.7H303.8v.7Z" class="g0_41"/>
<path d="M530.4,433.4h.7v-.7h-.7v.7Z" class="g0_41"/>
<path d="M531.1,433.4H825v-.7H531.1v.7Z" class="g0_41"/>
<path d="M110,463.1H303.1v-.7H110v.7Z" class="g0_41"/>
<path d="M303.1,463.1h.7v-.7h-.7v.7Z" class="g0_41"/>
<path d="M303.8,463.1H530.4v-.7H303.8v.7Z" class="g0_41"/>
<path d="M530.4,463.1h.7v-.7h-.7v.7Z" class="g0_41"/>
<path d="M531.1,463.1H825v-.7H531.1v.7Z" class="g0_41"/>
<path d="M110,795.1H303.1v-.7H110v.7Z" class="g0_41"/>
<path d="M303.1,795.1h.7v-.7h-.7v.7Z" class="g0_41"/>
<path d="M303.8,795.1H530.4v-.7H303.8v.7Z" class="g0_41"/>
<path d="M530.4,795.1h.7v-.7h-.7v.7Z" class="g0_41"/>
<path d="M531.1,795.1H825v-.7H531.1v.7Z" class="g0_41"/>
<path d="M110,858.4H303.1v-.8H110v.8Z" class="g0_41"/>
<path d="M303.1,858.4h.7v-.8h-.7v.8Z" class="g0_41"/>
<path d="M303.8,858.4H530.4v-.8H303.8v.8Z" class="g0_41"/>
<path d="M530.4,858.4h.7v-.8h-.7v.8Z" class="g0_41"/>
<path d="M531.1,858.4H825v-.8H531.1v.8Z" class="g0_41"/>
<path d="M110,921.8H303.1v-.7H110v.7Z" class="g0_41"/>
<path d="M303.1,921.8h.7v-.7h-.7v.7Z" class="g0_41"/>
<path d="M303.8,921.8H530.4v-.7H303.8v.7Z" class="g0_41"/>
<path d="M530.4,921.8h.7v-.7h-.7v.7Z" class="g0_41"/>
<path d="M531.1,921.8H825v-.7H531.1v.7Z" class="g0_41"/>
<path d="M108.9,1001.9H303.1v-.7H108.9v.7Z" class="g0_41"/>
<path d="M302,1001.9h.7v-.7H302v.7Z" class="g0_41"/>
<path d="M302.7,1001.9H530.4v-.7H302.7v.7Z" class="g0_41"/>
<path d="M529.3,1001.9h.7v-.7h-.7v.7Z" class="g0_41"/>
<path d="M530,1001.9H825v-.7H530v.7Z" class="g0_41"/>
</svg>