<?xml version="1.0" encoding="UTF-8" standalone="no"?>
<!DOCTYPE svg PUBLIC "-//W3C//DTD SVG 1.1//EN"
"http://www.w3.org/Graphics/SVG/1.1/DTD/svg11.dtd">
<svg viewBox="0 0 1210 935" version="1.1" xmlns="http://www.w3.org/2000/svg" xmlns:xlink="http://www.w3.org/1999/xlink">
<defs>
<style type="text/css"><![CDATA[
.g0_50{
fill: #00755C;
}
]]></style>
</defs>
<path d="M86.9,66.4h172V64.9H86.9v1.5Z" class="g0_50"/>
<path d="M258.9,66.4h1.4V64.9h-1.4v1.5Z" class="g0_50"/>
<path d="M260.3,66.4h862.8V64.9H260.3v1.5Z" class="g0_50"/>
<path d="M85.8,119.9H258.9v-1.5H85.8v1.5Z" class="g0_50"/>
<path d="M257.8,119.9h1.4v-1.5h-1.4v1.5Z" class="g0_50"/>
<path d="M259.2,119.9h863.9v-1.5H259.2v1.5Z" class="g0_50"/>
<path d="M84.7,838.2H558.2v-.7H84.7v.7Z" class="g0_50"/>
<path d="M558.2,838.2h.8v-.7h-.8v.7Z" class="g0_50"/>
<path d="M559,838.2h90.7v-.7H559v.7Z" class="g0_50"/>
<path d="M649.7,838.2h.8v-.7h-.8v.7Z" class="g0_50"/>
<path d="M650.5,838.2h472.6v-.7H650.5v.7Z" class="g0_50"/>
<image preserveAspectRatio="none" x="87" y="67" width="172" height="51" xlink:href="img/1.png"/>
<image preserveAspectRatio="none" x="1018" y="849" width="105" height="41" xlink:href="img/2.png"/>
<path fill-rule="evenodd" d="M86.9,193.6H292.1v-2.2H86.9v2.2Z" class="g0_50"/>
<path d="M292.1,193.8h2.2v-.2h-2.2v.2Z" class="g0_50"/>
<path fill-rule="evenodd" d="M292.1,193.6h2.2v-2.2h-2.2v2.2Z" class="g0_50"/>
<path fill-rule="evenodd" d="M294.3,193.6H509.1v-2.2H294.3v2.2Z" class="g0_50"/>
<path d="M509.1,193.8h2.2v-.2h-2.2v.2Z" class="g0_50"/>
<path fill-rule="evenodd" d="M509.1,193.6h2.2v-2.2h-2.2v2.2Z" class="g0_50"/>
<path fill-rule="evenodd" d="M511.3,193.6H730.2v-2.2H511.3v2.2Z" class="g0_50"/>
<path d="M730.2,193.8h2.2v-.2h-2.2v.2Z" class="g0_50"/>
<path fill-rule="evenodd" d="M730.2,193.6h2.2v-2.2h-2.2v2.2Z" class="g0_50"/>
<path fill-rule="evenodd" d="M732.4,193.6h396.2v-2.2H732.4v2.2Z" class="g0_50"/>
<path fill-rule="evenodd" d="M292.1,212.5h2.2V193.8h-2.2v18.7Z" class="g0_50"/>
<path fill-rule="evenodd" d="M509.1,212.5h2.2V193.8h-2.2v18.7Z" class="g0_50"/>
<path fill-rule="evenodd" d="M730.2,212.5h2.2V193.8h-2.2v18.7Z" class="g0_50"/>
<path fill-rule="evenodd" d="M86.9,214.7H292.1v-2.2H86.9v2.2Z" class="g0_50"/>
<path fill-rule="evenodd" d="M292.1,214.7h2.2v-2.2h-2.2v2.2Z" class="g0_50"/>
<path fill-rule="evenodd" d="M294.3,214.7H509.1v-2.2H294.3v2.2Z" class="g0_50"/>
<path fill-rule="evenodd" d="M509.1,214.7h2.2v-2.2h-2.2v2.2Z" class="g0_50"/>
<path fill-rule="evenodd" d="M511.3,214.7H730.2v-2.2H511.3v2.2Z" class="g0_50"/>
<path fill-rule="evenodd" d="M730.2,214.7h2.2v-2.2h-2.2v2.2Z" class="g0_50"/>
<path fill-rule="evenodd" d="M732.4,214.7h396.2v-2.2H732.4v2.2Z" class="g0_50"/>
<path fill-rule="evenodd" d="M86.9,236H292.1v-2.2H86.9V236Z" class="g0_50"/>
<path d="M292.1,236.1h2.2V236h-2.2v.1Z" class="g0_50"/>
<path fill-rule="evenodd" d="M292.1,236h2.2v-2.2h-2.2V236Z" class="g0_50"/>
<path fill-rule="evenodd" d="M294.3,236H509.1v-2.2H294.3V236Z" class="g0_50"/>
<path d="M509.1,236.1h2.2V236h-2.2v.1Z" class="g0_50"/>
<path fill-rule="evenodd" d="M509.1,236h2.2v-2.2h-2.2V236Z" class="g0_50"/>
<path fill-rule="evenodd" d="M511.3,236H730.2v-2.2H511.3V236Z" class="g0_50"/>
<path d="M730.2,236.1h2.2V236h-2.2v.1Z" class="g0_50"/>
<path fill-rule="evenodd" d="M730.2,236h2.2v-2.2h-2.2V236Z" class="g0_50"/>
<path fill-rule="evenodd" d="M732.4,236h396.2v-2.2H732.4V236Z" class="g0_50"/>
<path fill-rule="evenodd" d="M292.1,290h2.2V236.1h-2.2V290Z" class="g0_50"/>
<path fill-rule="evenodd" d="M509.1,290h2.2V236.1h-2.2V290Z" class="g0_50"/>
<path fill-rule="evenodd" d="M730.2,290h2.2V236.1h-2.2V290Z" class="g0_50"/>
<path fill-rule="evenodd" d="M292.1,292.4h2.2V290h-2.2v2.4Z" class="g0_50"/>
<path fill-rule="evenodd" d="M294.3,292.2H509.1V290H294.3v2.2Z" class="g0_50"/>
<path fill-rule="evenodd" d="M509.1,292.4h2.2V290h-2.2v2.4Z" class="g0_50"/>
<path fill-rule="evenodd" d="M511.3,292.2H730.2V290H511.3v2.2Z" class="g0_50"/>
<path fill-rule="evenodd" d="M730.2,292.4h2.2V290h-2.2v2.4Z" class="g0_50"/>
<path fill-rule="evenodd" d="M732.4,292.2h396.2V290H732.4v2.2Z" class="g0_50"/>
<path fill-rule="evenodd" d="M292.1,435.6h2.2V292.4h-2.2V435.6Z" class="g0_50"/>
<path fill-rule="evenodd" d="M509.1,435.6h2.2V292.4h-2.2V435.6Z" class="g0_50"/>
<path fill-rule="evenodd" d="M730.2,435.6h2.2V292.4h-2.2V435.6Z" class="g0_50"/>
<path fill-rule="evenodd" d="M86.9,437.8H292.1v-2.2H86.9v2.2Z" class="g0_50"/>
<path fill-rule="evenodd" d="M292.1,438h2.2v-2.4h-2.2V438Z" class="g0_50"/>
<path fill-rule="evenodd" d="M294.3,437.8H509.1v-2.2H294.3v2.2Z" class="g0_50"/>
<path fill-rule="evenodd" d="M509.1,438h2.2v-2.4h-2.2V438Z" class="g0_50"/>
<path fill-rule="evenodd" d="M511.3,437.8H730.2v-2.2H511.3v2.2Z" class="g0_50"/>
<path fill-rule="evenodd" d="M730.2,438h2.2v-2.4h-2.2V438Z" class="g0_50"/>
<path fill-rule="evenodd" d="M732.4,437.8h396.2v-2.2H732.4v2.2Z" class="g0_50"/>
<path fill-rule="evenodd" d="M292.1,513h2.2V438h-2.2v75Z" class="g0_50"/>
<path fill-rule="evenodd" d="M509.1,513h2.2V438h-2.2v75Z" class="g0_50"/>
<path fill-rule="evenodd" d="M730.2,513h2.2V438h-2.2v75Z" class="g0_50"/>
<path fill-rule="evenodd" d="M292.1,515.4h2.2V513h-2.2v2.4Z" class="g0_50"/>
<path fill-rule="evenodd" d="M509.1,515.4h2.2V513h-2.2v2.4Z" class="g0_50"/>
<path fill-rule="evenodd" d="M511.3,515.2H730.2V513H511.3v2.2Z" class="g0_50"/>
<path fill-rule="evenodd" d="M730.2,515.4h2.2V513h-2.2v2.4Z" class="g0_50"/>
<path fill-rule="evenodd" d="M732.4,515.2h396.2V513H732.4v2.2Z" class="g0_50"/>
<path fill-rule="evenodd" d="M292.1,569.3h2.2V515.4h-2.2v53.9Z" class="g0_50"/>
<path fill-rule="evenodd" d="M509.1,569.3h2.2V515.4h-2.2v53.9Z" class="g0_50"/>
<path fill-rule="evenodd" d="M730.2,569.3h2.2V515.4h-2.2v53.9Z" class="g0_50"/>
<path fill-rule="evenodd" d="M292.1,571.6h2.2v-2.3h-2.2v2.3Z" class="g0_50"/>
<path fill-rule="evenodd" d="M294.3,571.4H509.1v-2.2H294.3v2.2Z" class="g0_50"/>
<path fill-rule="evenodd" d="M509.1,571.6h2.2v-2.3h-2.2v2.3Z" class="g0_50"/>
<path fill-rule="evenodd" d="M511.3,571.4H730.2v-2.2H511.3v2.2Z" class="g0_50"/>
<path fill-rule="evenodd" d="M730.2,571.6h2.2v-2.3h-2.2v2.3Z" class="g0_50"/>
<path fill-rule="evenodd" d="M732.4,571.4h396.2v-2.2H732.4v2.2Z" class="g0_50"/>
<path fill-rule="evenodd" d="M292.1,694.1h2.2V571.6h-2.2V694.1Z" class="g0_50"/>
<path fill-rule="evenodd" d="M509.1,694.1h2.2V571.6h-2.2V694.1Z" class="g0_50"/>
<path fill-rule="evenodd" d="M730.2,694.1h2.2V571.6h-2.2V694.1Z" class="g0_50"/>
<path fill-rule="evenodd" d="M292.1,696.5h2.2v-2.4h-2.2v2.4Z" class="g0_50"/>
<path fill-rule="evenodd" d="M294.3,696.3H509.1v-2.2H294.3v2.2Z" class="g0_50"/>
<path fill-rule="evenodd" d="M509.1,696.5h2.2v-2.4h-2.2v2.4Z" class="g0_50"/>
<path fill-rule="evenodd" d="M511.3,696.3H730.2v-2.2H511.3v2.2Z" class="g0_50"/>
<path fill-rule="evenodd" d="M730.2,696.5h2.2v-2.4h-2.2v2.4Z" class="g0_50"/>
<path fill-rule="evenodd" d="M732.4,696.3h396.2v-2.2H732.4v2.2Z" class="g0_50"/>
<path fill-rule="evenodd" d="M292.1,771.3h2.2V696.5h-2.2v74.8Z" class="g0_50"/>
<path fill-rule="evenodd" d="M509.1,771.3h2.2V696.5h-2.2v74.8Z" class="g0_50"/>
<path fill-rule="evenodd" d="M730.2,771.3h2.2V696.5h-2.2v74.8Z" class="g0_50"/>
<path fill-rule="evenodd" d="M292.1,773.7h2.2v-2.4h-2.2v2.4Z" class="g0_50"/>
<path fill-rule="evenodd" d="M294.3,773.5H509.1v-2.2H294.3v2.2Z" class="g0_50"/>
<path fill-rule="evenodd" d="M509.1,773.7h2.2v-2.4h-2.2v2.4Z" class="g0_50"/>
<path fill-rule="evenodd" d="M511.3,773.5H730.2v-2.2H511.3v2.2Z" class="g0_50"/>
<path fill-rule="evenodd" d="M730.2,773.7h2.2v-2.4h-2.2v2.4Z" class="g0_50"/>
<path fill-rule="evenodd" d="M732.4,773.5h396.2v-2.2H732.4v2.2Z" class="g0_50"/>
<path fill-rule="evenodd" d="M86.9,814.2H292.1V812H86.9v2.2Z" class="g0_50"/>
<path fill-rule="evenodd" d="M292.1,812h2.2V773.7h-2.2V812Z" class="g0_50"/>
<path fill-rule="evenodd" d="M292.1,814.2h2.2V812h-2.2v2.2Z" class="g0_50"/>
<path fill-rule="evenodd" d="M294.3,814.2H509.1V812H294.3v2.2Z" class="g0_50"/>
<path fill-rule="evenodd" d="M509.1,812h2.2V773.7h-2.2V812Z" class="g0_50"/>
<path fill-rule="evenodd" d="M509.1,814.2h2.2V812h-2.2v2.2Z" class="g0_50"/>
<path fill-rule="evenodd" d="M511.3,814.2H730.2V812H511.3v2.2Z" class="g0_50"/>
<path fill-rule="evenodd" d="M730.2,812h2.2V773.7h-2.2V812Z" class="g0_50"/>
<path fill-rule="evenodd" d="M730.2,814.2h2.2V812h-2.2v2.2Z" class="g0_50"/>
<path fill-rule="evenodd" d="M732.4,814.2h396.2V812H732.4v2.2Z" class="g0_50"/>
</svg>