<?xml version="1.0" encoding="UTF-8" standalone="no"?>
<!DOCTYPE svg PUBLIC "-//W3C//DTD SVG 1.1//EN"
"http://www.w3.org/Graphics/SVG/1.1/DTD/svg11.dtd">
<svg viewBox="0 0 935 1210" version="1.1" xmlns="http://www.w3.org/2000/svg" xmlns:xlink="http://www.w3.org/1999/xlink">
<defs>
<style type="text/css"><![CDATA[
.g0_18{
fill: #00755C;
}
.g1_18{
}
]]></style>
</defs>
<path d="M86.5,66.5H263.3V65.1H86.5v1.4Z" class="g0_18"/>
<path d="M263.3,66.5h1.4V65.1h-1.4v1.4Z" class="g0_18"/>
<path d="M264.7,66.5H848.8V65.1H264.7v1.4Z" class="g0_18"/>
<path d="M85.4,120.1H263.3v-1.5H85.4v1.5Z" class="g0_18"/>
<path d="M262.2,120.1h1.4v-1.5h-1.4v1.5Z" class="g0_18"/>
<path d="M263.6,120.1H848.8v-1.5H263.6v1.5Z" class="g0_18"/>
<path d="M84.3,1113.8H430.1v-.8H84.3v.8Z" class="g0_18"/>
<path d="M430.1,1113.8h.7v-.8h-.7v.8Z" class="g0_18"/>
<path d="M430.8,1113.8H497v-.8H430.8v.8Z" class="g0_18"/>
<path d="M497,1113.8h.8v-.8H497v.8Z" class="g0_18"/>
<path d="M497.7,1113.8H846.6v-.8H497.7v.8Z" class="g0_18"/>
<image preserveAspectRatio="none" x="89" y="67" width="172" height="51" xlink:href="img/1.png"/>
<image preserveAspectRatio="none" x="735" y="1124" width="107" height="42" xlink:href="img/2.png"/>
<path d="M86.4,228.4H222.2v-.7H86.4v.7Z" class="g1_18"/>
<path d="M222.2,228.4h.7v-.7h-.7v.7Z" class="g1_18"/>
<path d="M222.9,228.4H848.6v-.7H222.9v.7Z" class="g1_18"/>
<path d="M86.4,252.8H222.2v-.7H86.4v.7Z" class="g1_18"/>
<path d="M222.2,252.8h.7v-.7h-.7v.7Z" class="g1_18"/>
<path d="M222.9,252.8H848.6v-.7H222.9v.7Z" class="g1_18"/>
<path d="M86.4,277.2H222.2v-.7H86.4v.7Z" class="g1_18"/>
<path d="M222.2,277.2h.7v-.7h-.7v.7Z" class="g1_18"/>
<path d="M222.9,277.2H848.6v-.7H222.9v.7Z" class="g1_18"/>
<path d="M86.4,301.8H222.2V301H86.4v.8Z" class="g1_18"/>
<path d="M222.2,301.8h.7V301h-.7v.8Z" class="g1_18"/>
<path d="M222.9,301.8H848.6V301H222.9v.8Z" class="g1_18"/>
<path d="M86.4,326.1H222.2v-.7H86.4v.7Z" class="g1_18"/>
<path d="M222.2,326.1h.7v-.7h-.7v.7Z" class="g1_18"/>
<path d="M222.9,326.1H848.6v-.7H222.9v.7Z" class="g1_18"/>
<path d="M86.4,350.5H222.2v-.7H86.4v.7Z" class="g1_18"/>
<path d="M222.2,350.5h.7v-.7h-.7v.7Z" class="g1_18"/>
<path d="M222.9,350.5H848.6v-.7H222.9v.7Z" class="g1_18"/>
<path d="M86.4,375.1H222.2v-.7H86.4v.7Z" class="g1_18"/>
<path d="M222.2,375.1h.7v-.7h-.7v.7Z" class="g1_18"/>
<path d="M222.9,375.1H848.6v-.7H222.9v.7Z" class="g1_18"/>
<path d="M86.4,399.5H222.2v-.7H86.4v.7Z" class="g1_18"/>
<path d="M222.2,399.5h.7v-.7h-.7v.7Z" class="g1_18"/>
<path d="M222.9,399.5H848.6v-.7H222.9v.7Z" class="g1_18"/>
<path d="M86.4,423.9H222.2v-.8H86.4v.8Z" class="g1_18"/>
<path d="M222.2,423.9h.7v-.8h-.7v.8Z" class="g1_18"/>
<path d="M222.9,423.9H848.6v-.8H222.9v.8Z" class="g1_18"/>
<path d="M86.4,448.4H222.2v-.7H86.4v.7Z" class="g1_18"/>
<path d="M222.2,448.4h.7v-.7h-.7v.7Z" class="g1_18"/>
<path d="M222.9,448.4H848.6v-.7H222.9v.7Z" class="g1_18"/>
<path d="M86.4,472.8H222.2v-.7H86.4v.7Z" class="g1_18"/>
<path d="M222.2,472.8h.7v-.7h-.7v.7Z" class="g1_18"/>
<path d="M222.9,472.8H848.6v-.7H222.9v.7Z" class="g1_18"/>
<path d="M86.4,497.2H222.2v-.7H86.4v.7Z" class="g1_18"/>
<path d="M222.2,497.2h.7v-.7h-.7v.7Z" class="g1_18"/>
<path d="M222.9,497.2H848.6v-.7H222.9v.7Z" class="g1_18"/>
<path d="M86.4,521.8H222.2V521H86.4v.8Z" class="g1_18"/>
<path d="M222.2,521.8h.7V521h-.7v.8Z" class="g1_18"/>
<path d="M222.9,521.8H848.6V521H222.9v.8Z" class="g1_18"/>
<path d="M86.4,546.1H222.2v-.7H86.4v.7Z" class="g1_18"/>
<path d="M222.2,546.1h.7v-.7h-.7v.7Z" class="g1_18"/>
<path d="M222.9,546.1H848.6v-.7H222.9v.7Z" class="g1_18"/>
<path d="M86.4,570.5H222.2v-.7H86.4v.7Z" class="g1_18"/>
<path d="M222.2,570.5h.7v-.7h-.7v.7Z" class="g1_18"/>
<path d="M222.9,570.5H848.6v-.7H222.9v.7Z" class="g1_18"/>
<path d="M86.4,595.1H222.2v-.7H86.4v.7Z" class="g1_18"/>
<path d="M222.2,595.1h.7v-.7h-.7v.7Z" class="g1_18"/>
<path d="M222.9,595.1H848.6v-.7H222.9v.7Z" class="g1_18"/>
<path d="M86.4,619.5H222.2v-.8H86.4v.8Z" class="g1_18"/>
<path d="M222.2,619.5h.7v-.8h-.7v.8Z" class="g1_18"/>
<path d="M222.9,619.5H848.6v-.8H222.9v.8Z" class="g1_18"/>
<path d="M86.4,643.9H222.2v-.8H86.4v.8Z" class="g1_18"/>
<path d="M222.2,643.9h.7v-.8h-.7v.8Z" class="g1_18"/>
<path d="M222.9,643.9H848.6v-.8H222.9v.8Z" class="g1_18"/>
<path d="M86.4,668.2H222.2v-.7H86.4v.7Z" class="g1_18"/>
<path d="M222.2,668.2h.7v-.7h-.7v.7Z" class="g1_18"/>
<path d="M222.9,668.2H848.6v-.7H222.9v.7Z" class="g1_18"/>
<path d="M86.4,692.8H222.2v-.7H86.4v.7Z" class="g1_18"/>
<path d="M222.2,692.8h.7v-.7h-.7v.7Z" class="g1_18"/>
<path d="M222.9,692.8H848.6v-.7H222.9v.7Z" class="g1_18"/>
<path d="M86.4,717.2H222.2v-.7H86.4v.7Z" class="g1_18"/>
<path d="M222.2,717.2h.7v-.7h-.7v.7Z" class="g1_18"/>
<path d="M222.9,717.2H848.6v-.7H222.9v.7Z" class="g1_18"/>
<path d="M86.4,741.6H222.2v-.8H86.4v.8Z" class="g1_18"/>
<path d="M222.2,741.6h.7v-.8h-.7v.8Z" class="g1_18"/>
<path d="M222.9,741.6H848.6v-.8H222.9v.8Z" class="g1_18"/>
<path d="M86.4,766.1H222.2v-.7H86.4v.7Z" class="g1_18"/>
<path d="M222.2,766.1h.7v-.7h-.7v.7Z" class="g1_18"/>
<path d="M222.9,766.1H848.6v-.7H222.9v.7Z" class="g1_18"/>
<path d="M86.4,790.5H222.2v-.7H86.4v.7Z" class="g1_18"/>
<path d="M222.2,790.5h.7v-.7h-.7v.7Z" class="g1_18"/>
<path d="M222.9,790.5H848.6v-.7H222.9v.7Z" class="g1_18"/>
<path d="M86.4,814.9H222.2v-.7H86.4v.7Z" class="g1_18"/>
<path d="M222.2,814.9h.7v-.7h-.7v.7Z" class="g1_18"/>
<path d="M222.9,814.9H848.6v-.7H222.9v.7Z" class="g1_18"/>
<path d="M86.4,839.5H222.2v-.7H86.4v.7Z" class="g1_18"/>
<path d="M222.2,839.5h.7v-.7h-.7v.7Z" class="g1_18"/>
<path d="M222.9,839.5H848.6v-.7H222.9v.7Z" class="g1_18"/>
<path d="M86.4,863.9H222.2v-.8H86.4v.8Z" class="g1_18"/>
<path d="M222.2,863.9h.7v-.8h-.7v.8Z" class="g1_18"/>
<path d="M222.9,863.9H848.6v-.8H222.9v.8Z" class="g1_18"/>
<path d="M86.4,888.2H222.2v-.7H86.4v.7Z" class="g1_18"/>
<path d="M222.2,888.2h.7v-.7h-.7v.7Z" class="g1_18"/>
<path d="M222.9,888.2H848.6v-.7H222.9v.7Z" class="g1_18"/>
<path d="M86.4,912.8H222.2v-.7H86.4v.7Z" class="g1_18"/>
<path d="M222.2,912.8h.7v-.7h-.7v.7Z" class="g1_18"/>
<path d="M222.9,912.8H848.6v-.7H222.9v.7Z" class="g1_18"/>
<path d="M86.4,937.2H222.2v-.7H86.4v.7Z" class="g1_18"/>
<path d="M222.2,937.2h.7v-.7h-.7v.7Z" class="g1_18"/>
<path d="M222.9,937.2H848.6v-.7H222.9v.7Z" class="g1_18"/>
<path d="M86.4,961.6H222.2v-.7H86.4v.7Z" class="g1_18"/>
<path d="M222.2,961.6h.7v-.7h-.7v.7Z" class="g1_18"/>
<path d="M222.9,961.6H848.6v-.7H222.9v.7Z" class="g1_18"/>
<path d="M86.4,986.2H222.2v-.8H86.4v.8Z" class="g1_18"/>
<path d="M222.2,986.2h.7v-.8h-.7v.8Z" class="g1_18"/>
<path d="M222.9,986.2H848.6v-.8H222.9v.8Z" class="g1_18"/>
<path d="M86.4,1010.5H222.2v-.7H86.4v.7Z" class="g1_18"/>
<path d="M222.2,1010.5h.7v-.7h-.7v.7Z" class="g1_18"/>
<path d="M222.9,1010.5H848.6v-.7H222.9v.7Z" class="g1_18"/>
<path d="M86.4,1034.9H222.2v-.7H86.4v.7Z" class="g1_18"/>
<path d="M222.2,1034.9h.7v-.7h-.7v.7Z" class="g1_18"/>
<path d="M222.9,1034.9H848.6v-.7H222.9v.7Z" class="g1_18"/>
<path d="M86.4,1059.5H222.2v-.8H86.4v.8Z" class="g1_18"/>
<path d="M222.2,1059.5h.7v-.8h-.7v.8Z" class="g1_18"/>
<path d="M222.9,1059.5H848.6v-.8H222.9v.8Z" class="g1_18"/>
<path d="M86.4,1083.9H222.2v-.8H86.4v.8Z" class="g1_18"/>
<path d="M222.2,1083.9h.7v-.8h-.7v.8Z" class="g1_18"/>
<path d="M222.9,1083.9H848.6v-.8H222.9v.8Z" class="g1_18"/>
<path d="M85.2,1108.4h137v-.7H85.2v.7Z" class="g1_18"/>
<path d="M221.1,1108.4h.7v-.7h-.7v.7Z" class="g1_18"/>
<path d="M221.8,1108.4H848.6v-.7H221.8v.7Z" class="g1_18"/>
</svg>