<?xml version="1.0" encoding="UTF-8" standalone="no"?>
<!DOCTYPE svg PUBLIC "-//W3C//DTD SVG 1.1//EN"
"http://www.w3.org/Graphics/SVG/1.1/DTD/svg11.dtd">
<svg viewBox="0 0 935 1210" version="1.1" xmlns="http://www.w3.org/2000/svg" xmlns:xlink="http://www.w3.org/1999/xlink">
<defs>
<clipPath id="c0_6"><path d="M593.9,318.1V110H740V318.1Z"/></clipPath>
<clipPath id="c1_6"><path d="M539.1,728.5V442.1H794.8V728.5Z"/></clipPath>
<style type="text/css"><![CDATA[
.g0_6{
fill: #FFFFFF;
}
.g1_6{
fill: none;
stroke: #212121;
stroke-width: 1.137;
stroke-linecap: round;
stroke-linejoin: round;
}
.g2_6{
fill: #212121;
}
.g3_6{
fill: none;
stroke: #212121;
stroke-width: 1.137;
stroke-linecap: butt;
stroke-linejoin: miter;
}
.g4_6{
fill: none;
stroke: #212121;
stroke-width: 2.842;
stroke-linecap: butt;
stroke-linejoin: round;
}
.g5_6{
fill: none;
stroke: #212121;
stroke-width: 2.842;
stroke-linecap: butt;
stroke-linejoin: miter;
}
.g6_6{
fill: none;
stroke: #212121;
stroke-width: 2.842;
stroke-linecap: round;
stroke-linejoin: round;
}
.g7_6{
fill: #E6E6E6;
}
.g8_6{
fill: none;
stroke: #212121;
stroke-width: 1.705;
stroke-linecap: round;
stroke-linejoin: round;
}
.g9_6{
fill: none;
stroke: #4C4C4C;
stroke-width: 1.705;
stroke-linecap: butt;
stroke-linejoin: round;
}
.ga_6{
fill: none;
stroke: #4C4C4C;
stroke-width: 1.705;
stroke-linecap: butt;
stroke-linejoin: miter;
}
.gb_6{
fill: #4C4C4C;
}
.gc_6{
fill: none;
stroke: #B3B3B3;
stroke-width: 0.568;
stroke-linecap: round;
stroke-linejoin: round;
}
.gd_6{
fill: none;
stroke: #9E9E9E;
stroke-width: 1.137;
stroke-linecap: round;
stroke-linejoin: round;
stroke-dasharray: 3,3;
}
.ge_6{
fill: #9E9E9E;
}
.gf_6{
fill: none;
stroke: #9E9E9E;
stroke-width: 1.137;
stroke-linecap: butt;
stroke-linejoin: miter;
}
.gg_6{
fill: none;
stroke: #000000;
stroke-width: 0.502;
stroke-linecap: butt;
stroke-linejoin: miter;
}
.gh_6{
fill: none;
stroke: #191919;
stroke-width: 3.561;
stroke-linecap: butt;
stroke-linejoin: round;
}
.gi_6{
fill: #191919;
}
.gj_6{
fill: none;
stroke: #191919;
stroke-width: 3.561;
stroke-linecap: butt;
stroke-linejoin: miter;
}
.gk_6{
fill: none;
stroke: #191919;
stroke-width: 1.424;
stroke-linecap: butt;
stroke-linejoin: round;
}
.gl_6{
fill: none;
stroke: #191919;
stroke-width: 1.424;
stroke-linecap: butt;
stroke-linejoin: miter;
}
.gm_6{
fill: none;
stroke: #FF0080;
stroke-width: 3.561;
stroke-linecap: butt;
stroke-linejoin: round;
}
.gn_6{
fill: #FF0080;
}
.go_6{
fill: none;
stroke: #FF0080;
stroke-width: 3.561;
stroke-linecap: butt;
stroke-linejoin: miter;
}
.gp_6{
fill: none;
stroke: #FF0080;
stroke-width: 1.424;
stroke-linecap: butt;
stroke-linejoin: round;
}
.gq_6{
fill: none;
stroke: #FF0080;
stroke-width: 1.424;
stroke-linecap: butt;
stroke-linejoin: miter;
}
.gr_6{
fill: none;
stroke: #808080;
stroke-width: 0.712;
stroke-linecap: round;
stroke-linejoin: round;
}
.gs_6{
fill: none;
stroke: #0080FF;
stroke-width: 3.561;
stroke-linecap: butt;
stroke-linejoin: round;
}
.gt_6{
fill: #0080FF;
}
.gu_6{
fill: none;
stroke: #0080FF;
stroke-width: 3.561;
stroke-linecap: butt;
stroke-linejoin: miter;
}
.gv_6{
fill: none;
stroke: #0096FF;
stroke-width: 1.424;
stroke-linecap: butt;
stroke-linejoin: round;
}
.gw_6{
fill: #0096FF;
}
.gx_6{
fill: none;
stroke: #0096FF;
stroke-width: 1.424;
stroke-linecap: butt;
stroke-linejoin: miter;
}
]]></style>
</defs>
<g clip-path="url(#c0_6)">
<path d="M462.3,1295.1h655V44.9h-655V1295.1Z" class="g0_6"/>
</g>
<path d="M617.5,169.7l-4.8,7.4c-.6,.9,-1,2,-1,3.1l-1,116.5c0,3.2,2.5,5.7,5.7,5.7h10.2" class="g1_6"/>
<path d="M620.5,165.2l-4.7,3.4l3.4,2.2Z" class="g2_6"/>
<path d="M620.5,165.2l-4.7,3.4l3.4,2.2Z" class="g3_6"/>
<path d="M609,163.6h-2.3c-3.1,0,-5.7,2.5,-5.7,5.7V305.9c0,3.1,2.6,5.6,5.7,5.6h60.2c3.1,0,5.7,-2.5,5.7,-5.6q0,-.1,0,-.1l-.2,-14.3" class="g1_6"/>
<path d="M614.5,163.6L609,161.5v4.1Z" class="g2_6"/>
<path d="M614.5,163.6L609,161.5v4.1Z" class="g3_6"/>
<path d="M626.4,163l.2,137.3" class="g4_6"/>
<path d="M625.1,300.9c.8,-.8,2.2,-.8,3,0c.9,.9,.9,2.2,0,3.1c-.8,.8,-2.2,.8,-3,0c-.9,-.9,-.9,-2.2,0,-3.1Z" class="g2_6"/>
<path d="M625.1,300.9c.8,-.8,2.2,-.8,3,0c.9,.9,.9,2.2,0,3.1c-.8,.8,-2.2,.8,-3,0c-.9,-.9,-.9,-2.2,0,-3.1" class="g5_6"/>
<path d="M627.9,162.4c-.9,.8,-2.2,.8,-3.1,0c-.8,-.8,-.8,-2.2,0,-3c.9,-.9,2.2,-.9,3.1,0c.8,.8,.8,2.1,0,3Z" class="g2_6"/>
<path d="M627.9,162.4c-.9,.8,-2.2,.8,-3.1,0c-.8,-.8,-.8,-2.2,0,-3c.9,-.9,2.2,-.9,3.1,0c.8,.8,.8,2.1,0,3" class="g5_6"/>
<path d="M626.6,148.2l-.1,4.7" class="g6_6"/>
<path d="M632.5,159.1c.2,-7.1,-12.1,-7.4,-12.2,-.2" class="g5_6"/>
<path d="M637.5,121.5c5.9,5.9,5.9,15.5,0,21.4c-5.9,5.9,-15.4,5.9,-21.3,0c-5.9,-5.9,-5.9,-15.5,0,-21.4c5.9,-5.9,15.4,-5.9,21.3,0Z" class="g7_6"/>
<path d="M637.5,121.5c5.9,5.9,5.9,15.5,0,21.4c-5.9,5.9,-15.4,5.9,-21.3,0c-5.9,-5.9,-5.9,-15.5,0,-21.4c5.9,-5.9,15.4,-5.9,21.3,0" class="g8_6"/>
<path d="M627.7,228.6l43.4,61.2" class="g6_6"/>
<path d="M670.3,291.1c.2,-1.1,1.3,-1.9,2.4,-1.7c1.2,.2,2,1.3,1.8,2.5c-.2,1.1,-1.3,1.9,-2.5,1.7c-1.2,-.2,-1.9,-1.3,-1.7,-2.5Z" class="g2_6"/>
<path d="M670.3,291.1c.2,-1.1,1.3,-1.9,2.4,-1.7c1.2,.2,2,1.3,1.8,2.5c-.2,1.1,-1.3,1.9,-2.5,1.7c-1.2,-.2,-1.9,-1.3,-1.7,-2.5" class="g5_6"/>
<path d="M628.6,227.2c-.2,1.2,-1.3,2,-2.5,1.8c-1.2,-.2,-1.9,-1.3,-1.7,-2.5c.2,-1.2,1.3,-2,2.4,-1.8c1.2,.2,2,1.4,1.8,2.5Z" class="g2_6"/>
<path d="M628.6,227.2c-.2,1.2,-1.3,2,-2.5,1.8c-1.2,-.2,-1.9,-1.3,-1.7,-2.5c.2,-1.2,1.3,-2,2.4,-1.8c1.2,.2,2,1.4,1.8,2.5" class="g5_6"/>
<path d="M653.3,260.5l7.8,-5.6" class="g9_6"/>
<path d="M663.4,256.3c-1.9,-.3,-3.3,-2.1,-3,-4.1c.3,-1.9,2.2,-3.3,4.1,-3c2,.3,3.3,2.2,3,4.1c-.3,2,-2.1,3.3,-4.1,3" class="ga_6"/>
<path d="M651.8,259.6c1.3,.2,2.2,1.4,1.9,2.7c-.2,1.3,-1.4,2.2,-2.7,2c-1.3,-.2,-2.2,-1.4,-2,-2.7c.2,-1.3,1.5,-2.2,2.8,-2Z" class="gb_6"/>
<path d="M651.8,259.6c1.3,.2,2.2,1.4,1.9,2.7c-.2,1.3,-1.4,2.2,-2.7,2c-1.3,-.2,-2.2,-1.4,-2,-2.7c.2,-1.3,1.5,-2.2,2.8,-2" class="ga_6"/>
<path d="M672.7,168.3h61.4V158H672.7v10.3Z" class="g7_6"/>
<path d="M672.7,158h61.4v10.3H672.7V158Z" class="gc_6"/>
<path d="M637.5,179.1l18.3,-14.3c1,-.8,2.2,-1.2,3.4,-1.2l13.2,-.2" class="gd_6"/>
<path d="M633.2,182.5l5.6,-1.8l-2.6,-3.2Z" class="ge_6"/>
<path d="M633.2,182.5l5.6,-1.8l-2.6,-3.2Z" class="gf_6"/>
<path d="M672.7,152.9h61.4V142.7H672.7v10.2Z" class="g7_6"/>
<path d="M672.7,142.7h61.4v10.2H672.7V142.7Z" class="gc_6"/>
<path d="M643.3,154.6L656,148c.9,-.5,1.8,-.7,2.7,-.7l13.7,.2" class="gd_6"/>
<path d="M638.5,157.2l5.8,-.8l-1.9,-3.6Z" class="ge_6"/>
<path d="M638.5,157.2l5.8,-.8l-1.9,-3.6Z" class="gf_6"/>
<path d="M672.7,183.6h61.4V173.4H672.7v10.2Z" class="g7_6"/>
<path d="M672.7,173.4h61.4v10.2H672.7V173.4Z" class="gc_6"/>
<path d="M635.6,213.2l20,-32c1.1,-1.7,2.9,-2.7,4.9,-2.7h11.9" class="gd_6"/>
<path d="M632.7,217.9l4.6,-3.6l-3.4,-2.2Z" class="ge_6"/>
<path d="M632.7,217.9l4.6,-3.6l-3.4,-2.2Z" class="gf_6"/>
<path d="M672.7,199h61.4V188.7H672.7V199Z" class="g7_6"/>
<path d="M672.7,188.7h61.4V199H672.7V188.7Z" class="gc_6"/>
<path d="M644.9,233.2l16,-36c.9,-2,3,-3.3,5.2,-3.3h6.3" class="gd_6"/>
<path d="M642.7,238.2l4.1,-4.2l-3.7,-1.6Z" class="ge_6"/>
<path d="M642.7,238.2l4.1,-4.2l-3.7,-1.6Z" class="gf_6"/>
<path d="M672.7,214.3h61.4V204.1H672.7v10.2Z" class="g7_6"/>
<path d="M672.7,204.1h61.4v10.2H672.7V204.1Z" class="gc_6"/>
<path d="M653.8,248.1l7.6,-34.4c.6,-2.6,2.9,-4.5,5.6,-4.5h5.4" class="gd_6"/>
<path d="M652.6,253.4l3.2,-4.9l-4,-.8Z" class="ge_6"/>
<path d="M652.6,253.4l3.2,-4.9l-4,-.8Z" class="gf_6"/>
<path d="M672.7,229.7h61.4V219.4H672.7v10.3Z" class="g7_6"/>
<path d="M672.7,219.4h61.4v10.3H672.7V219.4Z" class="gc_6"/>
<path d="M679.6,247.8l19.9,-6.6c2.3,-.8,3.9,-2.9,3.9,-5.4V230" class="gd_6"/>
<path d="M674.4,249.6l5.9,.2L679,245.9Z" class="ge_6"/>
<path d="M674.4,249.6l5.9,.2L679,245.9Z" class="gf_6"/>
<path d="M484.3,335.1H849.6" class="gg_6"/>
<g clip-path="url(#c1_6)">
<path d="M493.9,1189.7h820.5V-376.5H493.9V1189.7Z" class="g0_6"/>
</g>
<path d="M571.8,472.2v73.1" class="gh_6"/>
<path d="M570.5,545.8c.7,-.7,1.9,-.7,2.7,0c.7,.8,.7,2,0,2.7c-.8,.8,-2,.8,-2.7,0c-.8,-.7,-.8,-1.9,0,-2.7Z" class="gi_6"/>
<path d="M570.5,545.8c.7,-.7,1.9,-.7,2.7,0c.7,.8,.7,2,0,2.7c-.8,.8,-2,.8,-2.7,0c-.8,-.7,-.8,-1.9,0,-2.7" class="gj_6"/>
<path d="M573.2,471.6c-.8,.8,-2,.8,-2.7,0c-.8,-.7,-.8,-2,0,-2.7c.7,-.8,1.9,-.8,2.7,0c.7,.7,.7,2,0,2.7Z" class="gi_6"/>
<path d="M573.2,471.6c-.8,.8,-2,.8,-2.7,0c-.8,-.7,-.8,-2,0,-2.7c.7,-.8,1.9,-.8,2.7,0c.7,.7,.7,2,0,2.7" class="gj_6"/>
<path d="M571.8,547.2h15.4c2,0,3.6,-1.6,3.6,-3.6V486.3c0,-1,-.5,-2,-1.2,-2.7l-8.1,-7.3" class="gk_6"/>
<path d="M579,474l1.6,3.2l1.8,-1.9Z" class="gi_6"/>
<path d="M579,474l1.6,3.2l1.8,-1.9Z" class="gl_6"/>
<path d="M622.8,472.2v73.1" class="gm_6"/>
<path d="M621.5,545.8c.7,-.7,1.9,-.7,2.7,0c.7,.8,.7,2,0,2.7c-.8,.8,-2,.8,-2.7,0c-.8,-.7,-.8,-1.9,0,-2.7Z" class="gn_6"/>
<path d="M621.5,545.8c.7,-.7,1.9,-.7,2.7,0c.7,.8,.7,2,0,2.7c-.8,.8,-2,.8,-2.7,0c-.8,-.7,-.8,-1.9,0,-2.7" class="go_6"/>
<path d="M624.2,471.6c-.8,.8,-2,.8,-2.7,0c-.8,-.7,-.8,-2,0,-2.7c.7,-.8,1.9,-.8,2.7,0c.7,.7,.7,2,0,2.7Z" class="gn_6"/>
<path d="M624.2,471.6c-.8,.8,-2,.8,-2.7,0c-.8,-.7,-.8,-2,0,-2.7c.7,-.8,1.9,-.8,2.7,0c.7,.7,.7,2,0,2.7" class="go_6"/>
<path d="M622.8,547.2H606.4c-1.9,0,-3.5,-1.6,-3.5,-3.6V473.8c0,-1.9,-1.6,-3.5,-3.6,-3.5H583" class="gp_6"/>
<path d="M579.6,470.3l3.4,1.2V469Z" class="gn_6"/>
<path d="M579.6,470.3l3.4,1.2V469Z" class="gq_6"/>
<path d="M637.1,459.8v-9.5H608.6v9.5h10.7l3.5,4.8l3.6,-4.8Z" class="g7_6"/>
<path d="M637.1,459.8v-9.5H608.6v9.5h10.7l3.5,4.8l3.6,-4.8Z" class="gr_6"/>
<path d="M708.6,472.2v73.1" class="gh_6"/>
<path d="M707.2,545.8c.8,-.7,2,-.7,2.8,0c.7,.8,.7,2,0,2.7c-.8,.8,-2,.8,-2.8,0c-.7,-.7,-.7,-1.9,0,-2.7Z" class="gi_6"/>
<path d="M707.2,545.8c.8,-.7,2,-.7,2.8,0c.7,.8,.7,2,0,2.7c-.8,.8,-2,.8,-2.8,0c-.7,-.7,-.7,-1.9,0,-2.7" class="gj_6"/>
<path d="M710,471.6c-.8,.8,-2,.8,-2.8,0c-.7,-.7,-.7,-2,0,-2.7c.8,-.8,2,-.8,2.8,0c.7,.7,.7,2,0,2.7Z" class="gi_6"/>
<path d="M710,471.6c-.8,.8,-2,.8,-2.8,0c-.7,-.7,-.7,-2,0,-2.7c.8,-.8,2,-.8,2.8,0c.7,.7,.7,2,0,2.7" class="gj_6"/>
<path d="M708.6,547.2H724c2,0,3.6,-1.6,3.6,-3.5l.6,-54.5c0,-1.1,.6,-2.2,1.6,-2.9l19.3,-12.8" class="gk_6"/>
<path d="M751.9,471.6l-3.5,.8l1.4,2.1Z" class="gi_6"/>
<path d="M751.9,471.6l-3.5,.8l1.4,2.1Z" class="gl_6"/>
<path d="M759.6,472.2v73.1" class="gm_6"/>
<path d="M758.2,545.8c.8,-.7,2,-.7,2.7,0c.8,.8,.8,2,0,2.7c-.7,.8,-1.9,.8,-2.7,0c-.7,-.7,-.7,-1.9,0,-2.7Z" class="gn_6"/>
<path d="M758.2,545.8c.8,-.7,2,-.7,2.7,0c.8,.8,.8,2,0,2.7c-.7,.8,-1.9,.8,-2.7,0c-.7,-.7,-.7,-1.9,0,-2.7" class="go_6"/>
<path d="M760.9,471.6c-.7,.8,-1.9,.8,-2.7,0c-.7,-.7,-.7,-2,0,-2.7c.8,-.8,2,-.8,2.7,0c.8,.7,.8,2,0,2.7Z" class="gn_6"/>
<path d="M760.9,471.6c-.7,.8,-1.9,.8,-2.7,0c-.7,-.7,-.7,-2,0,-2.7c.8,-.8,2,-.8,2.7,0c.8,.7,.8,2,0,2.7" class="go_6"/>
<path d="M759.6,547.2H743.2c-2,0,-3.6,-1.6,-3.6,-3.6V489.3c0,-1.2,-.6,-2.3,-1.6,-3L718.8,473.5" class="gp_6"/>
<path d="M715.9,471.6l2.2,2.9l1.4,-2.1Z" class="gn_6"/>
<path d="M715.9,471.6l2.2,2.9l1.4,-2.1Z" class="gq_6"/>
<path d="M585.8,459.8v-9.5H557.3v9.5H568l3.5,4.8l3.6,-4.8Z" class="g7_6"/>
<path d="M585.8,459.8v-9.5H557.3v9.5H568l3.5,4.8l3.6,-4.8Z" class="gr_6"/>
<path d="M773.8,459.8v-9.5H745.3v9.5H756l3.6,4.8l3.5,-4.8Z" class="g7_6"/>
<path d="M773.8,459.8v-9.5H745.3v9.5H756l3.6,4.8l3.5,-4.8Z" class="gr_6"/>
<path d="M722.5,459.8v-9.5H694v9.5h10.7l3.6,4.8l3.5,-4.8Z" class="g7_6"/>
<path d="M722.5,459.8v-9.5H694v9.5h10.7l3.6,4.8l3.5,-4.8Z" class="gr_6"/>
<path d="M571.8,610.8l-.3,81.6" class="gh_6"/>
<path d="M570.2,693c.7,-.8,1.9,-.7,2.7,0c.7,.8,.7,2,0,2.7c-.8,.8,-2,.8,-2.7,0c-.8,-.7,-.8,-2,0,-2.7Z" class="gi_6"/>
<path d="M570.2,693c.7,-.8,1.9,-.7,2.7,0c.7,.8,.7,2,0,2.7c-.8,.8,-2,.8,-2.7,0c-.8,-.7,-.8,-2,0,-2.7" class="gj_6"/>
<path d="M573.2,610.3c-.8,.7,-2,.7,-2.7,-.1c-.8,-.7,-.8,-1.9,0,-2.7c.7,-.7,2,-.7,2.7,0c.8,.8,.7,2,0,2.8Z" class="gi_6"/>
<path d="M573.2,610.3c-.8,.7,-2,.7,-2.7,-.1c-.8,-.7,-.8,-1.9,0,-2.7c.7,-.7,2,-.7,2.7,0c.8,.8,.7,2,0,2.8" class="gj_6"/>
<path d="M669.4,610.8v73.1" class="gm_6"/>
<path d="M668.1,684.5c.7,-.8,1.9,-.8,2.7,0c.7,.7,.7,1.9,0,2.7c-.8,.7,-2,.7,-2.7,0c-.8,-.8,-.8,-2,0,-2.7Z" class="gn_6"/>
<path d="M668.1,684.5c.7,-.8,1.9,-.8,2.7,0c.7,.7,.7,1.9,0,2.7c-.8,.7,-2,.7,-2.7,0c-.8,-.8,-.8,-2,0,-2.7" class="go_6"/>
<path d="M670.8,610.2c-.8,.8,-2,.8,-2.7,0c-.8,-.7,-.8,-1.9,0,-2.7c.7,-.7,1.9,-.7,2.7,0c.7,.8,.7,2,0,2.7Z" class="gn_6"/>
<path d="M670.8,610.2c-.8,.8,-2,.8,-2.7,0c-.8,-.7,-.8,-1.9,0,-2.7c.7,-.7,1.9,-.7,2.7,0c.7,.8,.7,2,0,2.7" class="go_6"/>
<path d="M667.7,632.1l-36.3,16.7v35.1" class="gm_6"/>
<path d="M630,684.5c.8,-.8,2,-.8,2.7,0c.8,.7,.8,1.9,0,2.7c-.7,.7,-1.9,.7,-2.7,0c-.7,-.8,-.7,-2,0,-2.7Z" class="gn_6"/>
<path d="M630,684.5c.8,-.8,2,-.8,2.7,0c.8,.7,.8,1.9,0,2.7c-.7,.7,-1.9,.7,-2.7,0c-.7,-.8,-.7,-2,0,-2.7" class="go_6"/>
<path d="M668.8,633.1c-1,-.3,-1.6,-1.4,-1.2,-2.4c.4,-1,1.5,-1.5,2.5,-1.2c1,.4,1.5,1.5,1.1,2.5c-.3,1,-1.5,1.5,-2.4,1.1Z" class="gn_6"/>
<path d="M668.8,633.1c-1,-.3,-1.6,-1.4,-1.2,-2.4c.4,-1,1.5,-1.5,2.5,-1.2c1,.4,1.5,1.5,1.1,2.5c-.3,1,-1.5,1.5,-2.4,1.1" class="go_6"/>
<path d="M760.5,610.8v73.1" class="gs_6"/>
<path d="M759.2,684.5c.7,-.8,2,-.8,2.7,0c.8,.7,.8,1.9,0,2.7c-.7,.7,-2,.7,-2.7,0c-.8,-.8,-.8,-2,0,-2.7Z" class="gt_6"/>
<path d="M759.2,684.5c.7,-.8,2,-.8,2.7,0c.8,.7,.8,1.9,0,2.7c-.7,.7,-2,.7,-2.7,0c-.8,-.8,-.8,-2,0,-2.7" class="gu_6"/>
<path d="M761.9,610.2c-.7,.8,-2,.8,-2.7,0c-.8,-.7,-.8,-1.9,0,-2.7c.7,-.7,2,-.7,2.7,0c.8,.8,.8,2,0,2.7Z" class="gt_6"/>
<path d="M761.9,610.2c-.7,.8,-2,.8,-2.7,0c-.8,-.7,-.8,-1.9,0,-2.7c.7,-.7,2,-.7,2.7,0c.8,.8,.8,2,0,2.7" class="gu_6"/>
<path d="M760.5,685.8H776c1.9,0,3.5,-1.6,3.5,-3.5V624.9c0,-1,-.5,-2,-1.2,-2.6l-8.1,-7.4" class="gv_6"/>
<path d="M767.7,612.6l1.6,3.3l1.8,-1.9Z" class="gw_6"/>
<path d="M767.7,612.6l1.6,3.3l1.8,-1.9Z" class="gx_6"/>
<path d="M631.4,685.8H592.2c-2,0,-3.6,-1.6,-3.6,-3.5V612.4c0,-1.9,-1.6,-3.5,-3.5,-3.5H583" class="gp_6"/>
<path d="M579.6,608.9l3.4,1.3v-2.6Z" class="gn_6"/>
<path d="M579.6,608.9l3.4,1.3v-2.6Z" class="gq_6"/>
<path d="M571.5,694.4H782.6c2,0,3.6,-1.6,3.6,-3.6V612.4c0,-1.9,-1.6,-3.5,-3.6,-3.5H772" class="gk_6"/>
<path d="M768.6,608.9l3.4,1.3v-2.6Z" class="gi_6"/>
<path d="M768.6,608.9l3.4,1.3v-2.6Z" class="gl_6"/>
<path d="M669.4,685.8h47.7c2,0,3.6,-1.6,3.6,-3.5V612.4c0,-1.9,1.6,-3.5,3.5,-3.5h24.9" class="gp_6"/>
<path d="M752.5,608.9l-3.4,-1.3v2.6Z" class="gn_6"/>
<path d="M752.5,608.9l-3.4,-1.3v2.6Z" class="gq_6"/>
<path d="M683.7,598.4v-9.5H655.2v9.5h10.7l3.5,4.8l3.6,-4.8Z" class="g7_6"/>
<path d="M683.7,598.4v-9.5H655.2v9.5h10.7l3.5,4.8l3.6,-4.8Z" class="gr_6"/>
<path d="M585.8,598.4v-9.5H557.3v9.5H568l3.5,4.8l3.6,-4.8Z" class="g7_6"/>
<path d="M585.8,598.4v-9.5H557.3v9.5H568l3.5,4.8l3.6,-4.8Z" class="gr_6"/>
<path d="M774.8,598.4v-9.5H746.3v9.5H757l3.5,4.8l3.6,-4.8Z" class="g7_6"/>
<path d="M774.8,598.4v-9.5H746.3v9.5H757l3.5,4.8l3.6,-4.8Z" class="gr_6"/>
<path d="M484.3,745.5H849.6" class="gg_6"/>
</svg>