<?xml version="1.0" encoding="UTF-8" standalone="no"?>
<!DOCTYPE svg PUBLIC "-//W3C//DTD SVG 1.1//EN"
"http://www.w3.org/Graphics/SVG/1.1/DTD/svg11.dtd">
<svg viewBox="0 0 1210 935" version="1.1" xmlns="http://www.w3.org/2000/svg" xmlns:xlink="http://www.w3.org/1999/xlink">
<defs>
<clipPath id="c0_56"><path d="M60.1,879.2V88.7H993.7V879.2Z"/></clipPath>
<clipPath id="c1_56"><path d="M1015,899.8V743.2h159.9V899.8Z"/></clipPath>
<style type="text/css"><![CDATA[
.g0_56{
fill: none;
stroke: #000000;
stroke-width: 1.466;
stroke-linecap: square;
stroke-linejoin: miter;
}
.g1_56{
fill: none;
stroke: #FFFFFF;
stroke-width: 0.733;
stroke-linecap: round;
stroke-linejoin: round;
}
.g2_56{
fill: none;
stroke: #894444;
stroke-width: 1.466;
stroke-linecap: butt;
stroke-linejoin: round;
}
.g3_56{
fill: none;
stroke: #894444;
stroke-width: 1.466;
stroke-linecap: round;
stroke-linejoin: round;
}
.g4_56{
fill: none;
stroke: #FFFFFF;
stroke-width: 2.2;
stroke-linecap: butt;
stroke-linejoin: miter;
}
.g5_56{
fill: none;
stroke: #DF73FF;
stroke-width: 1.833;
stroke-linecap: round;
stroke-linejoin: round;
}
.g6_56{
fill: none;
stroke: #98E600;
stroke-width: 1.833;
stroke-linecap: round;
stroke-linejoin: round;
}
.g7_56{
fill: none;
stroke: #000000;
stroke-width: 4.766;
stroke-linecap: butt;
stroke-linejoin: round;
}
.g8_56{
fill: none;
stroke: #FFFF00;
stroke-width: 2.566;
stroke-linecap: butt;
stroke-linejoin: round;
}
.g9_56{
fill: none;
stroke: #FF00C5;
stroke-width: 2.566;
stroke-linecap: butt;
stroke-linejoin: round;
}
.ga_56{
fill: none;
stroke: #686868;
stroke-width: 2.2;
stroke-linecap: round;
stroke-linejoin: round;
}
.gb_56{
fill: none;
stroke: #B2B2B2;
stroke-width: 1.099;
stroke-linecap: round;
stroke-linejoin: round;
}
.gc_56{
fill: none;
stroke: #000000;
stroke-width: 1.466;
stroke-linecap: round;
stroke-linejoin: round;
}
.gd_56{
fill: none;
stroke: #FFFFFF;
stroke-width: 1.466;
stroke-linecap: round;
stroke-linejoin: round;
}
.ge_56{
fill: #FFFFFF;
stroke: #6E6E6E;
stroke-width: 1.466;
stroke-linecap: round;
stroke-linejoin: round;
}
.gf_56{
fill: none;
stroke: #FFFFFF;
stroke-width: 2.933;
stroke-linecap: round;
stroke-linejoin: round;
}
.gg_56{
stroke: #000000;
stroke-width: 1.466;
stroke-linecap: round;
stroke-linejoin: round;
}
.gh_56{
fill: none;
stroke: #000000;
stroke-width: 0.733;
stroke-linecap: round;
stroke-linejoin: round;
}
.gi_56{
fill: #BEE8FF;
}
.gj_56{
fill: #FFEBBE;
stroke: #828282;
stroke-width: 0.733;
stroke-linecap: round;
stroke-linejoin: round;
}
.gk_56{
fill: #FFEBBE;
stroke: #9C9C9C;
stroke-width: 0.733;
stroke-linecap: round;
stroke-linejoin: round;
}
.gl_56{
fill: none;
stroke: #894444;
stroke-width: 1.833;
stroke-linecap: round;
stroke-linejoin: round;
}
.gm_56{
fill: none;
stroke: #000000;
stroke-width: 1.466;
stroke-linecap: butt;
stroke-linejoin: round;
}
.gn_56{
fill: none;
stroke: #FFFF00;
stroke-width: 1.099;
stroke-linecap: butt;
stroke-linejoin: round;
}
.go_56{
fill: none;
stroke: #000000;
stroke-width: 2.933;
stroke-linecap: butt;
stroke-linejoin: round;
}
.gp_56{
fill: none;
stroke: #FFFF00;
stroke-width: 2.2;
stroke-linecap: butt;
stroke-linejoin: round;
}
.gq_56{
fill: #FFFFFF;
stroke: #000000;
stroke-width: 0.733;
stroke-linecap: round;
stroke-linejoin: round;
}
.gr_56{
fill: none;
stroke: #005CE6;
stroke-width: 1.466;
stroke-linecap: round;
stroke-linejoin: round;
}
.gs_56{
fill: none;
stroke: #FF0000;
stroke-width: 1.466;
stroke-linecap: square;
stroke-linejoin: miter;
}
.gt_56{
fill: none;
stroke: #343434;
stroke-width: 1.099;
stroke-linecap: round;
stroke-linejoin: round;
}
.gu_56{
fill: none;
stroke: #FFFFFF;
stroke-width: 2.2;
stroke-linecap: round;
stroke-linejoin: round;
}
.gv_56{
fill: none;
stroke: #000000;
stroke-width: 0.733;
stroke-linecap: square;
stroke-linejoin: miter;
}
.gw_56{
fill: none;
stroke: #DF73FF;
stroke-width: 2.2;
stroke-linecap: round;
stroke-linejoin: round;
}
.gx_56{
fill: none;
stroke: #686868;
stroke-width: 2.933;
stroke-linecap: butt;
stroke-linejoin: round;
}
.gy_56{
fill: none;
stroke: #CCCCCC;
stroke-width: 2.2;
stroke-linecap: butt;
stroke-linejoin: round;
}
.gz_56{
fill: none;
stroke: #894444;
stroke-width: 1.466;
stroke-linecap: square;
stroke-linejoin: round;
}
.g10_56{
fill: none;
stroke: #894444;
stroke-width: 2.566;
stroke-linecap: butt;
stroke-linejoin: round;
}
.g11_56{
fill: none;
stroke: #FF00C5;
stroke-width: 2.933;
stroke-linecap: butt;
stroke-linejoin: round;
}
.g12_56{
fill: none;
stroke: #FFFF00;
stroke-width: 2.933;
stroke-linecap: butt;
stroke-linejoin: round;
}
.g13_56{
fill: none;
stroke: #98E600;
stroke-width: 2.2;
stroke-linecap: round;
stroke-linejoin: round;
}
]]></style>
</defs>
<path d="M41.8,484V66H1177.1V902H41.8V484" class="g0_56"/>
<image preserveAspectRatio="none" x="60" y="89" width="934" height="302" xlink:href="img/1.png"/>
<image preserveAspectRatio="none" x="60" y="390" width="934" height="302" xlink:href="img/2.png"/>
<image preserveAspectRatio="none" x="60" y="691" width="934" height="189" xlink:href="img/3.png"/>
<g clip-path="url(#c0_56)">
<path d="M200.2,88.7L161.3,879.2M824,88.7l169.7,8.5m-832.4,782L200.2,88.7m793.5,8.5L824,88.7" class="g1_56"/>
<path d="M166.8,118.4l1.1,-1.4l3,-4.8m1.4,-2.9l3.7,-6.6m1.5,-2.6l4,-6.6M183,90.9l1.1,-2.2m-61.3,19.8l6.3,2.2m2.9,1.1l7.3,2.6m2.6,.7l7.3,2.6m3,1.1l4,1.5l2.9,.7h.4m2.9,-.4l2.2,-.7l1.5,-.7l.7,-.8" class="g2_56"/>
<path d="M993.7,844L745.9,753.5L333.7,603.1L290.1,587L60.1,504.5" class="g3_56"/>
<path d="M122.8,108.5L115.5,106m-2.9,-1.1l-7.4,-2.6m-2.5,-1.1L95.3,98.6M92.4,97.5L85.1,95m-2.6,-.8L75.2,91.7m-3,-1.1L67.1,88.7m29.7,89.1l.7,-1.8m1.1,-2.9l2.2,-5.9l.4,-1.1m1.1,-2.9l2.9,-7.4m.8,-2.9l2.9,-7M110,143l2.6,-7.3m1.1,-2.6l2.5,-7.3m1.1,-3l2.6,-6.9m1.1,-3l1.8,-4.4M71.1,247.1l1.1,-2.5m1.1,-3l.4,-1.4l2.2,-5.5m1.1,-3l2.6,-7.3m1.1,-2.6l2.5,-7.3m1.1,-2.9l2.6,-7M88,201.7l2.9,-7.4M92,191.8l2.6,-7.4m1.1,-2.9l1.1,-3.7M60.1,277.2L62.3,271m1.1,-3l1.1,-2.9l1.9,-4m.7,-3L70,250.8m1.1,-2.9v-.8M96.8,177.8l-6.2,-2.2m-3,-1.1L80.3,172m-2.9,-1.1l-7,-2.6m-2.9,-.7L60.1,165m11,82.1L66,245.3m-2.9,-.7l-3,-1.1" class="g2_56"/>
<path d="M60.1,469.7l62,-168.3L163.9,192.5l19.4,-45.1l5.9,-11l4.8,-11l5.8,-11l14,-25.7" class="g3_56"/>
</g>
<path d="M397.1,750.5l7.4,-20.1l28.6,-77.8l4.4,-4.7l14.6,5.1l-18.7,49.9l-44,68.2l7.7,-20.6m50.3,-38.8l-1.9,-.8l-44,68.6l-.3,.4l-.4,.7l-.4,.4l-.3,.3l-.4,.4l-.4,.4l-6.6,5.1l-.3,.4l-.4,.3h-.4l-.3,.4h-.4v.4h-.7l-.4,.3l-7.7,2.6l2.6,-7.3l2.9,-1.1h.7v-.4h.4l.4,-.4l6.2,-5.1l.7,-.4l.4,-.7l45.1,-69.7v-.7l16.9,-44.7l1.8,-5.2l5.5,2.2l22.7,8.5L448.8,712l-1.4,-.3" class="g4_56"/>
<path d="M389.4,771.1l15.1,-40.7l28.6,-77.8l4.4,-4.7l14.6,5.1l-18.7,49.9l-44,68.2M448.8,712l-3.3,-1.1l-44,68.6l-.3,.4l-.4,.7l-.4,.4l-.3,.3l-.4,.4l-.4,.4l-6.6,5.1l-.3,.4l-.4,.3h-.4l-.3,.4h-.4v.4h-.7l-.4,.3l-7.7,2.6l2.6,-7.3l2.9,-1.1h.7v-.4h.4l.4,-.4l6.2,-5.1l.7,-.4l.4,-.7l45.1,-69.7v-.7l16.9,-44.7l1.8,-5.2l5.5,2.2l22.7,8.5L448.8,712" class="g5_56"/>
<path d="M327.8,779.1l-8.4,-1.4l-22,-8.1l5.5,-14.7l.7,-2.5l34.5,12.4l31.2,-.7l7.3,-2.6l1.1,-1.1l20.9,-32.6l-11.7,-4.4l22,-43.6l24.2,-27.2l-28.6,77.8l-.8,2.2l-13.9,38.1l-.4,.4l-5.1,4.4l-12.5,4l-35.2,1.1l-8.8,-1.5m8.5,9.9h9.1l12.1,-.3l15.4,-.4h.8v-.4h.3l10.7,-3.6l-2.6,7.3l-5.9,2.2h-1.1l-.3,.4h-1.5l-15.8,.3l-12.1,.4l-8.8,.4h-2.2L316.5,792h-.8l-.7,-.4h-.4L293,783.5l-.7,-.3l2.2,-5.5l22.3,8.4h.8l17.9,2.9h.8" class="g4_56"/>
<path d="M336.6,780.6l-17.2,-2.9l-22,-8.1l5.5,-14.7l.7,-2.5l34.5,12.4l31.2,-.7l7.3,-2.6l1.1,-1.1l20.9,-32.6l-11.7,-4.4l22,-43.6l24.2,-27.2l-28.6,77.8l-.8,2.2l-13.9,38.1l-.4,.4l-5.1,4.4l-12.5,4l-35.2,1.1m-.7,8.4h9.5l12.1,-.3l15.4,-.4h.8v-.4h.3l10.7,-3.6l-2.6,7.3l-5.9,2.2h-1.1l-.3,.4h-1.5l-15.8,.3l-12.1,.4l-8.8,.4h-2.2L316.5,792h-.8l-.7,-.4h-.4L293,783.5l-.7,-.3l2.2,-5.5l22.3,8.4h.8l17.9,2.9h.4" class="g5_56"/>
<path d="M60.1,630.3l9.6,3.3l2.2,-5.9l70.7,26l9.2,3.7l-7.7,20.2l9.2,3.6l-5.5,14.3L60.1,663.6m0,9.6L144.8,704l-1.4,3.3l-83.3,-29" class="g4_56"/>
<path d="M60.1,630.3l9.6,3.3l2.2,-5.9l70.7,26l9.2,3.7l-7.7,20.2l9.2,3.6l-5.5,14.3L60.1,663.6m0,9.6L144.8,704l-1.4,3.3l-83.3,-29" class="g5_56"/>
<path d="M245.3,750.2L193.2,731.1l-6.9,-2.6l-3.7,-4.7l-5.5,-7l6.2,-16.9l9.2,11.4l111.1,41.1l-.7,1.8l-5.5,15.4L245.3,750.2m48.1,30.4L174.5,737l-3.3,-4.1l2.2,-6.6l2.6,3l4.4,5.5l.4,.3l.3,.4l.8,.4l.3,.3l8.1,3l104.2,38.5l-1.1,2.9" class="g4_56"/>
<path d="M297.4,769.6L193.2,731.1l-6.9,-2.6l-3.7,-4.7l-5.5,-7l6.2,-16.9l9.2,11.4l111.1,41.1l-.7,1.8l-5.5,15.4m-4,11L174.5,737l-3.3,-4.1l2.2,-6.6l2.6,3l4.4,5.5l.4,.3l.3,.4l.8,.4l.3,.3l8.1,3l104.2,38.5l-1.1,2.9" class="g5_56"/>
<path d="M173.4,712l-4,-4.7l-3.3,-4.4l-.4,-.4l-.7,-.4l-.4,-.3h-.3L158,699.6l-10.2,-4.1l5.5,-14.3l10.2,3.7l11,3.7l3.7,4.7l3.7,4.4l1.4,2.2l-6.2,16.9L173.4,712m-8.8,12.9L158,716.8l-1.8,-2.2l-2.9,-1.5l-10.7,-3.6l.8,-2.2l1.4,-3.3l10.3,3.6l4.8,1.9l2.9,3.3l10.6,13.5l-2.2,6.6l-6.6,-8" class="g4_56"/>
<path d="M177.1,716.8l-7.7,-9.5l-3.3,-4.4l-.4,-.4l-.7,-.4l-.4,-.3h-.3L158,699.6l-10.2,-4.1l5.5,-14.3l10.2,3.7l11,3.7l3.7,4.7l3.7,4.4l1.4,2.2l-6.2,16.9m-5.9,16.1L158,716.8l-1.8,-2.2l-2.9,-1.5l-10.7,-3.6l.8,-2.2l1.4,-3.3l10.3,3.6l4.8,1.9l2.9,3.3l10.6,13.5l-2.2,6.6" class="g5_56"/>
<path d="M444.8,650.4l-7.3,-2.5L442.2,635l14.7,5.2L452.1,653l-7.3,-2.6m22.7,8.5l-7.3,-3L465,643.1l14.6,5.1l-4.7,13.2l-7.4,-2.5" class="g4_56"/>
<path d="M452.1,653l-14.6,-5.1L442.2,635l14.7,5.2L452.1,653m22.8,8.4l-14.7,-5.5L465,643.1l14.6,5.1l-4.7,13.2" class="g5_56"/>
<path d="M449.6,637.6L442.2,635l-14.6,-5.5l12.8,-39.6l3.3,-20.5l.7,-5.9L443,561L378.4,537.5l30.5,-83.2l68.5,23.4l40,13.6l88,-75.5l16.9,-14l-4.1,11l-8.8,7.4l-89.8,77.3l-.4,.4l-.3,.4l-20.6,28.9l-.3,1.1l-32.7,89.1l-1.4,4.1l-1.9,4.4l-2.9,7.7l-2.2,6.6l-7.3,-2.6m86.1,-27.1l-9.9,-3.7l-27.5,-9.5l-11,30l-3.6,10.3l-1.9,4.4l-2.2,6.2L465,643.1l2.5,-6.6l4.4,-11.7l1.5,-4.4L505.7,532l19.8,-28.2L612.4,429l-10.7,29.7L545.6,613.8l-9.9,-3.3" class="g4_56"/>
<path d="M456.9,640.2L442.2,635l-14.6,-5.5l12.8,-39.6l3.3,-20.5l.7,-5.9L443,561L378.4,537.5l30.5,-83.2l68.5,23.4l40,13.6l88,-75.5l16.9,-14l-4.1,11l-8.8,7.4l-89.8,77.3l-.4,.4l-.3,.4l-20.6,28.9l-.3,1.1l-32.7,89.1l-1.4,4.1l-1.9,4.4l-2.9,7.7l-2.2,6.6m88.7,-26.4l-19.8,-7l-27.5,-9.5l-11,30l-3.6,10.3l-1.9,4.4l-2.2,6.2L465,643.1l2.5,-6.6l4.4,-11.7l1.5,-4.4L505.7,532l19.8,-28.2L612.4,429l-10.7,29.7L545.6,613.8" class="g5_56"/>
<path d="M993.7,252.6L940.6,233.9l1.8,-4.7l26.8,9.1l24.5,8.8m0,29.4L950.5,260.7l-17.3,-6.2l5.2,-14.7l17.2,6.2l38.1,14" class="g4_56"/>
<path d="M993.7,252.6L940.6,233.9l1.8,-4.7l26.8,9.1l24.5,8.8m0,29.4L950.5,260.7l-17.3,-6.2l5.2,-14.7l17.2,6.2l38.1,14" class="g5_56"/>
<path d="M839.4,197.6L737.8,161.7l-23.8,11h-.4l-.4,.7l-.7,.4l-.4,.7l-.3,.4v.4L627.4,405.1l-9.2,7.7l4.1,-11L705.2,174.9l9.9,-26.4l20.5,7.3l21.6,7.4l32.3,11.7l19.8,6.6l31.9,11.4l34.5,12.4l11.3,4.1l33,11.7l20.6,7.3l1.8,.8l-1.8,4.7L839.4,197.6M929.9,253l-3.3,-1.1l-23.1,-8.4l-16.8,-6.3l-26.4,-9.1L836.8,220L789.1,203.1L753.2,190.7l-11.4,-4.1l-10.2,4.8l-83.3,228L623,440.3l-21.3,18.4L612.4,429L634,411.4l.4,-.4l.3,-.7l.4,-.4v-.4L719.1,180l22,-10.2l17.2,6.2l36,12.5l47.6,16.8l23.5,8.1l26.4,9.2l16.9,6.2l23.1,8.4l6.6,2.6l-5.2,14.7L929.9,253" class="g4_56"/>
<path d="M940.6,233.9L737.8,161.7l-23.8,11h-.4l-.4,.7l-.7,.4l-.4,.7l-.3,.4v.4L627.4,405.1l-9.2,7.7l4.1,-11L705.2,174.9l9.9,-26.4l20.5,7.3l21.6,7.4l32.3,11.7l19.8,6.6l31.9,11.4l34.5,12.4l11.3,4.1l33,11.7l20.6,7.3l1.8,.8l-1.8,4.7m-7.4,20.6l-6.6,-2.6l-23.1,-8.4l-16.8,-6.3l-26.4,-9.1L836.8,220L789.1,203.1L753.2,190.7l-11.4,-4.1l-10.2,4.8l-83.3,228L623,440.3l-21.3,18.4L612.4,429L634,411.4l.4,-.4l.3,-.7l.4,-.4v-.4L719.1,180l22,-10.2l17.2,6.2l36,12.5l47.6,16.8l23.5,8.1l26.4,9.2l16.9,6.2l23.1,8.4l6.6,2.6l-5.2,14.7" class="g5_56"/>
<path d="M335.9,789h-.4l-18.3,-2.9h-.4l-22.3,-8.4l2.9,-8.1l22,8.1l17.2,2.9l8.5,-.4l12.1,-.3l14.6,-.4l12.5,-4l5.1,-4.4l.4,-.4l-5.1,13.6L374,787.9l-.3,.4h-.8l-15.4,.4l-8,.3H335.9" class="g4_56"/>
<path d="M335.9,789h-.4l-18.3,-2.9h-.4l-22.3,-8.4l2.9,-8.1l22,8.1l17.2,2.9l8.5,-.4l12.1,-.3l14.6,-.4l12.5,-4l5.1,-4.4l.4,-.4l-5.1,13.6L374,787.9l-.3,.4h-.8l-15.4,.4l-8,.3H335.9" class="g6_56"/>
<path d="M60.1,663.6l87.7,31.9l-3,8.5L60.1,673.2" class="g4_56"/>
<path d="M60.1,663.6l87.7,31.9l-3,8.5L60.1,673.2" class="g6_56"/>
<path d="M242.4,758.2l-52.1,-19l-8.1,-3l-.3,-.3l-.8,-.4l-.3,-.4l-.4,-.3L176,729.3l-2.6,-3l3.7,-9.5l5.5,7l3.7,4.7l6.9,2.6l104.2,38.5l-2.9,8.1L242.4,758.2" class="g4_56"/>
<path d="M294.5,777.7L190.3,739.2l-8.1,-3l-.3,-.3l-.8,-.4l-.3,-.4l-.4,-.3L176,729.3l-2.6,-3l3.7,-9.5l5.5,7l3.7,4.7l6.9,2.6l104.2,38.5l-2.9,8.1" class="g6_56"/>
<path d="M168.3,719.7l-5.5,-6.9l-2.9,-3.3l-4.8,-1.9L144.8,704l3,-8.5l10.2,4.1l6.3,2.2h.3l.4,.3l.7,.4l.4,.4l3.3,4.4l7.7,9.5l-3.7,9.5l-5.1,-6.6" class="g4_56"/>
<path d="M173.4,726.3L162.8,712.8l-2.9,-3.3l-4.8,-1.9L144.8,704l3,-8.5l10.2,4.1l6.3,2.2h.3l.4,.3l.7,.4l.4,.4l3.3,4.4l7.7,9.5l-3.7,9.5" class="g6_56"/>
<path d="M456.2,654.5L452.1,653l4.8,-12.8l8.1,2.9l-4.8,12.8l-4,-1.4" class="g4_56"/>
<path d="M460.2,655.9L452.1,653l4.8,-12.8l8.1,2.9l-4.8,12.8" class="g6_56"/>
<path d="M993.7,260L955.6,246l-17.2,-6.2l2.2,-5.9l53.1,18.7" class="g4_56"/>
<path d="M993.7,260L955.6,246l-17.2,-6.2l2.2,-5.9l53.1,18.7" class="g6_56"/>
<path d="M935.1,238.3l-3.3,-1.1l-23.1,-8.4l-16.9,-6.2l-26.4,-9.2l-23.5,-8.1L794.3,188.5L758.3,176l-17.2,-6.2l-22,10.2l-84,229.5v.4l-.4,.4l-.3,.7l-.4,.4L612.4,429l5.8,-16.2l9.2,-7.7L711.8,175.3v-.4l.3,-.4l.4,-.7l.7,-.4l.4,-.7h.4l23.8,-11l202.8,72.2l-2.2,5.9l-3.3,-1.5" class="g4_56"/>
<path d="M938.4,239.8l-6.6,-2.6l-23.1,-8.4l-16.9,-6.2l-26.4,-9.2l-23.5,-8.1L794.3,188.5L758.3,176l-17.2,-6.2l-22,10.2l-84,229.5v.4l-.4,.4l-.3,.7l-.4,.4L612.4,429l5.8,-16.2l9.2,-7.7L711.8,175.3v-.4l.3,-.4l.4,-.7l.7,-.4l.4,-.7h.4l23.8,-11l202.8,72.2l-2.2,5.9" class="g6_56"/>
<path d="M387.2,777.3l2.6,-6.6l44,-68.6l7.7,-20.9l8.8,-23.4l1.8,-4.8l8.1,2.9l-1.8,5.2l-16.5,44.3l-.4,.4v.7l-45.1,69.7l-.4,.7l-.7,.4l-6.2,5.1l-.8,.4l-.7,.4l-2.9,1.1l2.5,-7" class="g4_56"/>
<path d="M384.7,784.3l5.1,-13.6l44,-68.6l7.7,-20.9l8.8,-23.4l1.8,-4.8l8.1,2.9l-1.8,5.2l-16.5,44.3l-.4,.4v.7l-45.1,69.7l-.4,.7l-.7,.4l-6.2,5.1l-.8,.4l-.7,.4l-2.9,1.1" class="g6_56"/>
<path d="M460.9,641.6l-4,-1.4l2.2,-6.6l2.9,-7.7l3.3,-8.5L498,528.3V528l.3,-.8l20.6,-28.9l.3,-.4l.4,-.4l89.8,-77.3l8.8,-7.4L612.4,429l-86.9,74.8L505.7,532l-32.3,88.4l-1.8,4.4h.3l-4.4,11.7l-2.5,6.6l-4.1,-1.5" class="g4_56"/>
<path d="M465,643.1l-8.1,-2.9l2.2,-6.6l2.9,-7.7l3.3,-8.5L498,528.3V528l.3,-.8l20.6,-28.9l.3,-.4l.4,-.4l89.8,-77.3l8.8,-7.4L612.4,429l-86.9,74.8L505.7,532l-32.3,88.4l-1.8,4.4h.3l-4.4,11.7l-2.5,6.6" class="g6_56"/>
<g clip-path="url(#c0_56)">
<path d="M60.1,668.4l2.2,.7l8.1,3l8.1,2.9l8,2.9l8.5,3l8,3.3l8.1,2.9l8.1,2.9l8,3l8.5,2.9l8,2.9l8.1,3l4.8,1.8l2.9,1.8l6.6,4.8l.4,.4l5.5,6.6l5.5,6.9l1.8,2.2l4.4,3.3l7.3,4.8l.8,.7l7.3,2.6l8.1,2.9l8.1,3.3l8,3l8.1,2.9l8.4,2.9l8.1,3L256,759l8,2.9l8.1,2.9l8.1,3l8.4,2.9l8.1,3.3l8,2.9l8.1,3l8.1,2.9l8,2.9L337,789l8.4,3l8.1,2.9l2.2,.7h6.2l8.8,-.3h3.7l4.4,-1.5l8.4,-2.9L392,789l2.6,-2.2l6.6,-5.1l.3,-.4l4.8,-7.3l2.9,-4.8l1.1,-2.5l3.7,-8.1l3.3,-7.7l3.7,-8.1l3.3,-8l3.6,-7.7l3.3,-8.1l3.7,-7.7l1.1,-2.6l2.2,-5.5l2.9,-8l3,-8.5l2.9,-8l2.9,-8.1l3.3,-8.1l3,-8l2.9,-8.1l2.9,-8.1l3.3,-8.4l3,-8.1l1.1,-2.9l2.2,-4.8h.3l7,-5.1l2.6,-1.8l5.1,-1.5l8.4,-2.6l4.8,-1.1l3.7,-.3l8.8,-.4l8.4,-.7h.7l8.1,-.4l4.8,-.4l3.6,-1.1l2.2,-.7l4.4,-3.3l.4,-.7l2.6,-8.1l2.2,-5.5l.7,-2.6l3.3,-8.4l.7,-1.8l2.2,-6.3l3,-8l2.9,-8.1l.4,-1.1l2.5,-7l2.6,-7.7l.4,-.7l2.9,-8.1l2.9,-8l.8,-2.2l2.2,-5.9l2.5,-8.1l.4,-.3L583,488l3,-8.1l2.9,-8l1.8,-5.5l1.1,-2.6l3,-8.4l.3,-.8l2.6,-7.3l2.9,-8.1l.8,-2.5l2.2,-5.5v-.8l6.2,-5.1l7,-5.5l6.6,-5.5l6.6,-5.5l1.1,-.7l2.5,-7l3,-8.1l2.9,-8l2.9,-8.1l3,-8.4l2.9,-8.1l3.3,-8.1l2.9,-8l3,-8.1l2.9,-8.4l3,-8.1l2.9,-8.1l2.9,-8l3,-8.1l2.9,-8l3.3,-8.5l2.9,-8l3,-8.1l2.9,-8.1l2.9,-8l3,-8.5l2.9,-8l2.9,-8.1l3,-8.1l3.3,-8l2.9,-8.1l2.9,-8.4l3,-8.1l1.8,-4.8l2.9,-1.4l8.1,-3.7l7,-3.3h.7l8.8,-.4h5.5l2.9,1.1l8.1,3h.4l8,2.9l6.3,2.2l1.8,.4l8.1,2.9l8.4,2.9l2.9,1.1l5.2,1.9l8,2.9l8.5,2.9l6.2,2.2l1.8,.4l8.1,2.9l8.1,3l1.8,.7l6.6,2.2l8.1,2.9l8,2.6l.8,.4l7.7,2.5l8,3l8.1,2.9l2.6,.7l5.5,2.2l8.4,3l2.9,1.1l5.2,1.8l8,2.9l8.1,3l2.2,.7l5.9,2.2l8.4,2.9l8.1,3l1.4,.7l6.6,2.6l8.1,2.9l8.1,2.9l7.7,2.6l.3,.4l5.5,1.8" class="g7_56"/>
<path d="M60.1,668.4l2.2,.7l8.1,3l8.1,2.9l8,2.9l8.5,3l8,3.3l8.1,2.9l8.1,2.9l8,3l8.5,2.9l8,2.9l8.1,3l4.8,1.8l2.9,1.8l6.6,4.8l.4,.4l5.5,6.6l5.5,6.9l1.8,2.2l4.4,3.3l7.3,4.8l.8,.7l7.3,2.6l8.1,2.9l8.1,3.3l8,3l8.1,2.9l8.4,2.9l8.1,3L256,759l8,2.9l8.1,2.9l8.1,3l8.4,2.9l8.1,3.3l8,2.9l8.1,3l8.1,2.9l8,2.9L337,789l8.4,3l8.1,2.9l2.2,.7h6.2l8.8,-.3h3.7l4.4,-1.5l8.4,-2.9L392,789l2.6,-2.2l6.6,-5.1l.3,-.4l4.8,-7.3l2.9,-4.8l1.1,-2.5l3.7,-8.1l3.3,-7.7l3.7,-8.1l3.3,-8l3.6,-7.7l3.3,-8.1l3.7,-7.7l1.1,-2.6l2.2,-5.5l2.9,-8l3,-8.5l2.9,-8l2.9,-8.1l3.3,-8.1l3,-8l2.9,-8.1l2.9,-8.1l3.3,-8.4l3,-8.1l1.1,-2.9l2.2,-4.8h.3l7,-5.1l2.6,-1.8l5.1,-1.5l8.4,-2.6l4.8,-1.1l3.7,-.3l8.8,-.4l8.4,-.7h.7l8.1,-.4l4.8,-.4l3.6,-1.1l2.2,-.7l4.4,-3.3l.4,-.7l2.6,-8.1l2.2,-5.5l.7,-2.6l3.3,-8.4l.7,-1.8l2.2,-6.3l3,-8l2.9,-8.1l.4,-1.1l2.5,-7l2.6,-7.7l.4,-.7l2.9,-8.1l2.9,-8l.8,-2.2l2.2,-5.9l2.5,-8.1l.4,-.3L583,488l3,-8.1l2.9,-8l1.8,-5.5l1.1,-2.6l3,-8.4l.3,-.8l2.6,-7.3l2.9,-8.1l.8,-2.5l2.2,-5.5v-.8l6.2,-5.1l7,-5.5l6.6,-5.5l6.6,-5.5l1.1,-.7l2.5,-7l3,-8.1l2.9,-8l2.9,-8.1l3,-8.4l2.9,-8.1l3.3,-8.1l2.9,-8l3,-8.1l2.9,-8.4l3,-8.1l2.9,-8.1l2.9,-8l3,-8.1l2.9,-8l3.3,-8.5l2.9,-8l3,-8.1l2.9,-8.1l2.9,-8l3,-8.5l2.9,-8l2.9,-8.1l3,-8.1l3.3,-8l2.9,-8.1l2.9,-8.4l3,-8.1l1.8,-4.8l2.9,-1.4l8.1,-3.7l7,-3.3h.7l8.8,-.4h5.5l2.9,1.1l8.1,3h.4l8,2.9l6.3,2.2l1.8,.4l8.1,2.9l8.4,2.9l2.9,1.1l5.2,1.9l8,2.9l8.5,2.9l6.2,2.2l1.8,.4l8.1,2.9l8.1,3l1.8,.7l6.6,2.2l8.1,2.9l8,2.6l.8,.4l7.7,2.5l8,3l8.1,2.9l2.6,.7l5.5,2.2l8.4,3l2.9,1.1l5.2,1.8l8,2.9l8.1,3l2.2,.7l5.9,2.2l8.4,2.9l8.1,3l1.4,.7l6.6,2.6l8.1,2.9l8.1,2.9l7.7,2.6l.3,.4l5.5,1.8" class="g8_56"/>
</g>
<path d="M469.7,618.2l3,-8.1l2.9,-8.1l2.9,-8l3,-8.5l2.9,-8l2.9,-8.1l3,-8.1l2.9,-8l3.3,-8.1l2.9,-8.4l2.6,-7l.7,-.7l4.8,-7.4l5.1,-6.9l4.8,-7l4.8,-7l.3,-.3l6.6,-5.5l6.6,-5.5l6.6,-5.9l6.6,-5.5l6.6,-5.9l6.3,-5.5l6.6,-5.5l6.6,-5.8l6.6,-5.5l6.6,-5.9l6.6,-5.5l6.6,-5.5" class="g7_56"/>
<path d="M469.7,618.2l3,-8.1l2.9,-8.1l2.9,-8l3,-8.5l2.9,-8l2.9,-8.1l3,-8.1l2.9,-8l3.3,-8.1l2.9,-8.4l2.6,-7l.7,-.7l4.8,-7.4l5.1,-6.9l4.8,-7l4.8,-7l.3,-.3l6.6,-5.5l6.6,-5.5l6.6,-5.9l6.6,-5.5l6.6,-5.9l6.3,-5.5l6.6,-5.5l6.6,-5.8l6.6,-5.5l6.6,-5.9l6.6,-5.5l6.6,-5.5" class="g9_56"/>
<path d="M475.6,431.2V433h2.2l.4,.4v.7h-2.6V437h-1.1v-6.6l.4,-.3h3.3v1.1h-2.6m-3.3,-.4l.7,1.1v3.3l-.7,1.1l-1.1,.7h-2.9l-.8,-.7l-.7,-1.1v-2.9l.7,-1.1l1.1,-.8l1.5,-.3h1.1l1.1,.7m-3.7,4.8l.4,.3h1.8l.4,-.7l.4,-.7v-1.9l-.4,-.7l-.4,-.7H469l-.4,.7l-.3,.7v1.9l.3,1.1m-4.7,-4.8l-1.9,3.7V437h-1.4v-2.5l-1.9,-3.7v.4h-1.8V437h-1.5v-5.8h-1.8v-1.1h4.8l.3,.3l.4,-.3h.7l.4,.3l.7,1.9v.3l.4,.4l.4,-.4v-.3l.7,-1.9h.4v-.3h.7l.4,.3v.4M451.8,437h-.4v-6.6l.4,-.3h.3l.4,.3V437h-.7m-2.2,-6.9l.3,.3h.4v1.1h-.7l-.4,-.3h-1.5l-.3,.7l-.4,.7v2.2l.4,.8l.3,.3h1.9l.3,-.3h.4v1.1h-.4l-.3,.3H447l-.7,-.7l-.8,-1.1v-2.9l.8,-1.1l1.1,-.8l1.1,-.3h1.1m35.2,13.2v.3h.3v6.3h-.3v.3h-1.5l-.4,-.3v-.4l-1.4,-3.7l-.4,-.3l-.4,-.8v5.5h-1.1v-6.6l.4,-.3h.7l.4,.3h.4l.3,.4l1.1,2.6l.4,.3v.8l.4,.3v-4.4l.3,-.3h.8m-7.4,.7l.8,1.1v3.3l-.8,1.1l-1.1,.7h-2.9l-.7,-.7l-.8,-1.1v-2.9l.8,-1.1l1.1,-.8l1.4,-.3l1.1,.3l1.1,.4m-3.6,4.8l.3,.3H476l.3,-.7l.4,-.7v-1.9l-.4,-.7l-.3,-.7h-1.9l-.3,.7l-.4,.7v1.9l.4,1.1m-2.2,-5.5v.3h.3v.8h-1.8v5.8h-1.5v-5.8h-1.8v-.8l.4,-.3h4.4m-6.6,.3v5.5h2.2l.3,.4v.4l-.3,.3h-3.3v-6.6l.3,-.3h.4l.4,.3m-3.7,6.6h-.4v-6.6l.4,-.3h.4l.3,.3v6.6h-.7m-2.6,-6.9v.3h.4v6.6H458v-5.8l-2.2,5.5v.3h-1.1l-.4,-.3l-1.8,-5.5v5.8h-1.1v-6.6l.4,-.3h1.1l.3,.3l.4,.4v.4l1.5,4l1.8,-4V444l.4,-.4l.3,-.3h1.1m-10.2,.3l2.2,5.9v.7h-1.5v-.3l-.4,-1.1h-2.5l-.4,1.1v.3h-1.1l-.4,-.3l.4,-.4l1.8,-5.9h.4v-.3h1.1l.4,.3m-1.1,1.1l-.8,3h1.9l-1.1,-3m-3.7,-1.1v6.6h-1.1v-2.9h-2.9v2.9h-1.1v-6.6l.3,-.3h.4l.4,.3v2.6h2.9v-2.6l.4,-.3h.3l.4,.3" class="ga_56"/>
<path d="M146.3,427.1l-1.1,1.1l-1.1,1.5l-.7,1.5l-.4,.7v.7h-1.1v-.7l.4,-.7l1.1,-1.9l1.1,-1.8h-2.6V426l4.4,.4v.7m-5.1,0l-1.1,.8l-1.1,1.4l-.8,1.9v.7l-.3,.7h-1.1v-.7l.3,-.7l1.1,-2.2l1.1,-1.9h-2.5V426h4.4v1.1m-4.8,-.3l-1.1,1.1l-1.1,1.4l-.7,1.5v.7l-.4,.8H132v-.8l.4,-.7l1.1,-1.8l1.1,-1.9H132v-1.4l4.4,.3v.8m-5.9,-.8l.4,.8v.3l-.4,1.1l-.7,.4l.7,.7v1.5l-.3,.7l-1.1,.4l-.8,.4h-1.1l-.3,-.8l-.4,-.3l-.4,-.8l.8,-1.1l.7,-.7l-.4,-.7v-1.5l.8,-.7h1.8l.7,.3m-2.2,1.9l.8,.3l.3,-.3l.4,-.8v-.3l-.7,-.4l-.4,.4l-.4,.7v.4m-.7,2.5v.8h1.1l.4,-.4l.3,-.7l-.3,-.8l-.4,-.3l-.4,.3H128l-.4,1.1m-1.1,-4.7l-.4,1.1l-1.8,-.4l-1.5,5.5h-1.1l1.1,-5.5H121l.4,-1.1l5.1,.4m-6.2,-.4l-1.5,6.6h-1.1l-1.8,-4.4l-1.1,4.4l-1.1,-.4l1.4,-6.2h1.5l1.5,4.4l1.1,-4.4h1.1m-17.6,-.7l-1.5,6.6H99.7l1.1,-4.4l-.7,.3l-1.1,.4l.4,-1.1l1.4,-.7l1.1,-1.1h.8m11.7,.7l-.4,1.1l-1.8,-.4l-1.5,5.5h-1.1l1.1,-5.5h-1.8l.4,-1.1l5.1,.4m-6.2,.7l-1.1,.8l-.8,1.4l-.7,1.9l-.4,.7l-.3,.7h-1.1v-.7l.3,-.7l1.1,-2.2l1.1,-1.9h-2.5l.3,-1.1h4.1V426m548.9,82.9H656v-.7l.4,-.8l1.1,-1.8l1.1,-1.8l-2.6,-.4v-1.1l4.4,.4v.7l-1.1,1.1l-1.1,1.5l-.7,1.4v.8l-.4,.7m-7,-5.9v.8l-.3,.7l-.8,.7l.8,.8v1.4l-.4,.4l-1.1,.7l-.7,.4l-1.1,-.4l-.4,-.3l-.4,-.4l-.3,-.7l.7,-1.5l.7,-.7l-.3,-.4V503l.7,-.7l1.1,-.4l.7,.4l.8,.4l.3,.3m-2.5,1.1v.4h1.1l.3,-.7v-.4l-.7,-.4l-.4,.4l-.3,.7m-.8,3.3l.8,.4h.3l.4,-.4l.4,-1.1l-.4,-.3l-.4,-.4h-.3l-.4,.4l-.4,1.1v.3m-8.4,-4.7l-1.5,5.5h-1.1l1.1,-5.5h-1.8l.4,-1.1h5.1l-.4,1.1h-1.8m16.9,.3l-1.1,1.1l-1.1,1.5l-.8,1.5v1.1l-.3,.3h-1.1v-.3l.3,-.8l1.1,-2.2l1.1,-1.8h-2.5v-1.1h4.4v.7m-24.6,-1.4l1.5,4.4l1.1,-4.4h1.1l-1.5,6.6h-1.1L630,503.4l-1.1,4.4h-1.1l1.4,-6.6l1.5,.4M645,503v.8l-.4,.7l-.7,.4l.7,.7v1.5l-.3,.7l-1.1,.7h-1.9l-.3,-.3l-.4,-.8l-.4,-.7l.8,-1.1l.7,-.7l-.4,-.8v-1.4l.8,-.4l1.1,-.4h.7l.7,.4l.4,.7m-2.6,1.1l.8,.4l.3,-.4l.4,-.3V503h-1.1l-.4,.8v.3m-.7,2.6v.7h1.1l.4,-.3l.3,-.8l-.3,-.7h-.8l-.3,.4l-.4,.7m-15.4,-4.4l-1.1,5.5h-1.5l1.1,-5.5H623l.4,-1.1h5.1l-.4,1.1h-1.8m-9.5,-1.5l-1.5,6.6h-1.5l1.1,-4.7l-.7,.7h-1.1l.4,-1.1l1.4,-.7l1.1,-.8h.8m5.5,1.1l-1.1,1.1l-.8,1.5l-.7,1.5l-.4,1.1l-.3,.3h-1.1v-.3l.3,-.8l1.1,-2.2l1.1,-1.8h-2.5l.3,-1.1h4.1v.7" class="gb_56"/>
<path d="M476,689.7v7.7h-1.5v-6.3H473l.8,-1.4H476m-4.8,1.1v.7l-.4,1.1l-.7,.7l1.1,.8l.4,.3v1.9l-.8,.7l-.7,.4l-1.1,.3l-1.1,-.3l-.7,-.4l-.4,-.7l-.4,-1.1h1.5l.4,1.1h1.1l.3,-.4l.4,-.7v-.4l-.4,-.4l-.3,-.3h-.8v-1.5h.8l.3,-.4v-1.1l-.7,-.3l-.4,.3l-.3,.4h-1.5l.4,-.7l.3,-.4l.8,-.7h1.8l.4,.3l.7,.8m-8.8,0l.4,1.1l-.4,.7v.7l-1.1,.4l-.7,.4h-.8v3.3h-1.4v-7.7h2.5l.8,.3l.7,.8m-2.6,.3v1.5h1.1v-.4l.4,-.3l-.4,-.8h-1.1m-2.9,-1.4l-2.6,3.3l3,4.4h-1.9l-2.2,-3.3v3.3h-1.4v-7.7h1.4v2.9l1.9,-2.9h1.8m528,-461.6l.4,1.1l-.4,.7v.7l-.7,.8l-.7,1.1l-.8,1.1h2.6v1.1h-5.1v-.8l2.2,-2.2l.7,-1.1l.4,-.3l.3,-1.1l-.3,-.8l-.8,-.3l-.7,.3l-.4,1.1h-1.4l.3,-1.1l.4,-.7l.7,-.7h1.1l1.1,.3l1.1,.8m-5.8,0v.7l-.4,1.1l-.7,.7l1.1,.8l.3,.3v1.9l-.7,.7l-.7,.4l-1.1,.3l-1.1,-.3l-.8,-.4l-.3,-.7l-.4,-1.1h1.5l.3,1.1h1.1l.4,-.4l.4,-.7v-.4l-.4,-.4l-.4,-.3h-.7v-1.5h.7l.4,-.4v-1.1l-.7,-.3l-.4,.3l-.4,.4h-1.4l.3,-.7l.4,-.4l.7,-.7H978l.7,.3l.4,.8m-8.8,0l.3,1.1l-.3,.7v.7l-1.1,.4l-.8,.4h-.7v3.3h-1.5V227h2.6l.7,.3l.8,.8m-2.6,.3v1.5h1.1v-.4l.4,-.3l-.4,-.8h-1.1M964.8,227l-2.6,3.3l2.9,4.4h-1.8l-2.2,-3.3v3.3h-1.5V227h1.5v2.9l1.8,-2.9h1.9M350.9,770v.7l-.3,1.1l-.8,.7l1.1,.8l.4,.3v.8l-.4,.7l-.3,1.1l-.8,.4h-2.2l-.7,-.4l-.4,-.7l-.3,-1.1h1.4l.4,.7l.7,.4h.4l.4,-.4l.3,-.7V774l-.3,-.4l-.8,-.3l-.7,-.4v-1.1h1.1l.4,-.4v-.7l-.4,-.4l-.4,-.3l-.3,.3l-.4,.4h-1.5l.4,-.7l.4,-.8l.7,-.3l.7,-.4l.8,.4l.7,.3l.7,.8m4.4,-1.1v7.7h-1.4V770h-1.5l1.1,-1.1h1.8M342.1,770l.4,1.1l-.4,.7l-.3,.4l-1.1,.7h-1.1v3.7h-1.5v-7.7h2.2l.7,.3l1.1,.8m-2.5,0v1.8h.7l.4,-.4l.3,-.3l-.3,-.8h-.4l-.7,-.3m-3,-1.1l-2.5,3.3l2.9,4.4h-1.8L333,773.3v3.3h-1.5v-7.7H333v2.5l1.8,-2.5h1.8M511.9,622.2v.7l-.4,1.1l-.7,.8l1.1,.7l.4,.4v1.4l-.8,1.1l-.7,.4l-1.1,.4l-1.1,-.4l-.7,-.4l-.4,-.7l-.4,-1.1h1.5l.4,.7l.7,.4h.4l.3,-.4l.4,-.7v-.4l-.4,-.3l-.7,-.4h-.4V624h.8l.3,-.3v-1.1l-.7,-.4l-.4,.4l-.3,.3h-1.5l.4,-.7l.3,-.7l.8,-.4l.7,-.4l.7,.4l.8,.4l.7,.7m-15,0v.7l-.4,1.1l-.7,.8l1.1,.7l.3,.4v1.4l-.7,1.1l-.7,.4l-1.1,.4l-1.1,-.4l-.8,-.4l-.3,-.7l-.4,-1.1h1.5l.3,.7l.8,.4h.3l.4,-.4l.4,-.7v-.4l-.4,-.3l-.7,-.4h-.4V624h.7l.4,-.3v-1.1l-.7,-.4l-.4,.4l-.4,.3h-1.4l.3,-.7l.4,-.7l.7,-.4l.8,-.4l1.1,.4l.3,.4l.8,.7m4.7,-1.1v7.7h-1.4v-6.6h-1.5l.7,-1.1h2.2m-13.5,1.1l.3,1.1l-.3,.7l-.4,.4l-.7,.7h-.8l-.7,.4v3.3H484v-7.7h2.6l.4,.4l1.1,.7m-2.6,0V624h.7l.4,-.3l.4,-.4l-.4,-.7h-.4l-.3,-.4h-.4m-2.9,-1.1l-2.6,3.3l2.9,4.4h-1.8l-2.2,-3.3v3.3h-1.5v-7.7h1.5v2.6l1.8,-2.6h1.9m23.1,7.7l-.4,.4l-.7,-.4v-1.1l.7,-.4l.4,.4l.3,.4l-.3,.7M595.5,424.2l.4,1.1l-.4,.7l-.4,1.1l-.7,.4h-1.8l-.8,-.7l-.7,-.8v-1.4l.4,-.4v-.7l2.2,-4.1l1.1,.8l-1.1,2.5l.7,.4l.7,.4l.4,.7m-2.6,1.8l.4,.4l.7,-.4l.4,-.7l-.4,-.7l-.7,-.4l-.4,.4l-.3,.7l.3,.7m-12.4,-5.1v1.8l-1.1,.4l1.1,.7l.3,.8V426l-.7,.8l-.7,.7h-1.9l-1.1,-.4l-.3,-.7l-.4,-1.1h1.5l.3,.7l.8,.4h.7V426l.4,-.7v-.4l-.4,-.7h-.4l-.7,-.4v-1.1l.7,-.3l.4,-.4v-.7l-.7,-.4h-.4l-.4,.7h-1.4l.3,-.7l.4,-.7l.7,-.4l1.1,-.4l.8,.4l.7,.4l.4,.7m4.7,-1.1v7.7h-1.4v-6.6h-1.5l.7,-1.1h2.2m-13.5,.7l.3,1.5v.7l-.3,.4l-1.1,.7h-1.5v3.7h-1.5v-7.7h3.3l.8,.7m-2.6,.4v1.8h1.1l.4,-.3V422l-.4,-.7l-.4,-.4h-.7m-2.9,-1.1l-2.6,3.3l2.9,4.4h-1.8l-2.6,-3.7v3.7h-1.4v-7.7h1.4v2.6l2.2,-2.6h1.9m22.7,7.7h-.7v-1.1l.7,-.4l.7,.4v1.1h-.7M842.7,177.1l.3,1.1l-.3,.7v.8l-.8,.7l-.7,1.1l-1.1,1.1H843v1.1h-5.1V183l2.2,-2.6l.7,-.7l.4,-.4l.4,-1.1l-.4,-.7l-.7,-.4l-.8,.4l-.3,1.1h-1.5l.4,-1.1l.3,-1.1l.8,-.4h2.2l1.1,1.1m-5.9,0v.7l-.4,1.1l-.7,.8l1.1,.7l.4,.4v1.8l-.8,.7l-.7,.4l-1.1,.4l-1.1,-.4l-.7,-.4l-.4,-.7l-.4,-1.1h1.5l.4,.7l.7,.4h.4l.3,-.4l.4,-.7v-.4l-.4,-.3l-.7,-.4h-.4v-1.5h.8l.3,-.3v-1.1l-.7,-.4l-.4,.4l-.3,.3h-1.5l.4,-.7l.3,-.7l.8,-.4h1.8l.4,.4l.7,.7m-8.8,0l.4,1.1l-.4,.7v.4l-1.1,.7l-.7,.4h-.8v3.3H824V176h2.5l.4,.4l1.1,.7m-2.6,.4v1.4h1.1v-.3l.4,-.4l-.4,-.7h-1.1M822.5,176l-2.6,3.3l3,4.4H821l-2.2,-3.3v3.3h-1.4V176h1.4v2.6l1.9,-2.6h1.8" class="gc_56"/>
<g clip-path="url(#c0_56)">
<path d="M108.9,96.1l1.5,.3h.3l.4,.4h.4l.3,.7l.4,.4l-.4,.7l-.3,.8l-.4,.7h-2.2l-.4,1.8h-.7l-.4,-.3h-.3l1.4,-5.2v-.3h.4m.4,1.1l-.4,1.8h.7l.4,.4l.4,-.4l.3,-.4V97.5l-.3,-.3h-1.1m4,0l1.5,.3h.7l.7,.4l.4,.4v1.8l-.4,.4h-.3l-.8,.3h.4v.4l.4,.4v2.2h-.4l-.4,-.4h-.3l-.4,-1.5v-.7l-.4,-.4h-.7l-.4,2.2h-.7v-.3h-.4l1.1,-5.2l.4,-.3m.4,2.5l.7,.4h.4l.3,-.4l.4,-.3V99l-.4,-.4l-.3,-.3H114l-.3,1.4m8.8,0l.3,1.1v1.1l-.7,1.5l-.7,.7l-.8,.4h-1.4l-1.1,-.4l-.8,-.7v-2.6l.4,-1.1l.7,-.7l1.1,-.4h1.1l1.1,.4l.8,.7m-4.1,3l.4,.7h1.8l.8,-.7v-.8l.3,-.7l-.3,-.7l-.4,-.8h-1.8l-.4,.8l-.4,.7v1.5m5.9,-3.3v.3h.4l.3,4.8l2.2,-4h1.1v.3l-2.9,4.8h-1.5v-.4l-.7,-5.5v-.3h1.1m5.9,1.8l-1.1,5.5h-.8v-.4H128l1.1,-5.5h1.1v.4m4.4,.7l.7,.8l.4,1.1l-.4,1.1l-.4,1.4l-.7,.8l-1.1,.3l-1.5,-.3l-1.1,-.4h-.3v-.4l1.1,-4.7l.3,-.4l1.5,.4l1.5,.3m-3.3,4.1l.7,.3h.7l.8,-.3l.3,-.4l.4,-.7v-1.5l-.4,-.7l-1.1,-.4h-.3l-1.1,3.7m6.2,-3.7l2.6,.7h.3v.8h-.3v.3l-2.2,-.7v1.5l1.4,.3v1.1l-1.8,-.3l-.4,1.4l2.2,.4v.7l-.3,.4l-3,-.7v-.4l1.1,-5.1l.4,-.4m5.5,2.2l.7,2.2v.7l.4,.4v.7l.4,-.7v-.7l.7,-2.6h.7v.4l-1.1,5.1h-1.1l-.3,-.4v-.3L142.3,106v-1.1l-.4,.7v.7l-.7,3h-1.1v-.4l1.4,-5.1h1.1l.4,.3v.4m8.1,1.1v1.1l-1.5,-.4l-1.1,4.4h-1.1v-.3l.7,-4.4l-1.1,-.4h-.3v-.4l.3,-.3l4.1,.7m3.3,1.1v4.4l1.8,-4h1.5v4.7l2.2,-4H161v.4h-.4l-2.2,4.7l-.4,.4h-.7l-.4,-.4h-.3v-4l-1.9,3.3v.4h-.3l-.4,-.4h-.7v-.4l-.4,-5.1v-.4h1.5v.4m8.8,1.5l.3,.3h.4v.4l.7,5.1v.4l-.3,.4l-.4,-.4h-.7v-1.5l-2.2,-.3l-.4,1.1h-1.1l-.4,-.4l.4,-.4l2.9,-4.4v-.3h.8m-1.9,3.6l1.9,.4l-.4,-2.9l-1.5,2.5m4.8,-2.9v.4h.4v1.4l.3,.8v.3l.4,-.3v-.4l1.1,-1.5h.7l.4,.4v.4l-2.2,2.5l-.4,2.2h-1.1v-.3h-.3l.7,-1.9L165,109.3v-.4h1.1m-53.5,2.6l2.5,2.5l1.9,.8v.7h-.4v.4l-1.8,-.8l-3.7,.4h-.4v-.7l.4,-.4l.4,-.4H114l-.3,-.3l-.4,-.4l-1.1,-1.1h-.4v-.4l.4,-.3v-.4h.4v.4m-2.2,5.1l5.5,.4h.3v.7l-.3,.4h-1.5l-.7,1.8l1.1,.7v.8l-.4,.3H114l-4,-3.3l-.4,-.3l.4,-.4V117h.4v-.4m.7,1.1l1.8,1.8l.8,-1.4l-2.6,-.4m-1.5,2.2l4.4,2.9v.8l-.3,.3v.4h-.4l-3.7,-.4l3,2.2h.3v.8l-.3,.3v.4h-.4l-5.1,-.4h-.4v-1.1h.4v-.3l4.7,.7l-4,-2.6v-.7l.4,-.4h.3l4.4,.4l-3.6,-2.6h-.4v-.7h.4v-.4h.3v.4m-.7,14.7l-.4,-.4h.4v-.4l.4,-.3l.3,-.4V132h-1.1l-.3,.4l-.4,.3l-.4,.4h-.3l-.8,.4l-.3,-.4l-.8,-.4l-.3,-.3v-1.5l.3,-.4v-.3l.4,-.4h.7l.4,.4l-.4,.3l-.3,.4v.4l-.4,.3h.4v.4h.7l.4,-.4l.3,-.3l.4,-.4l.7,-.4h1.1l.4,.8l.7,.3v.8l-.3,1.1v.3l-.4,.4l-.4,.4h-.7m0,0l.4,.3h.3l-1.1,3v.3l-.3,-.3l-4.8,-1.5L103,136v-.3l1.1,-2.6h.8v.4l-.8,1.8l1.5,.7l.7,-1.8h.8v.4l-.8,1.4l1.9,.8l.3,-1.9l.4,-.3m-5.9,2.9l4.8,1.8l.4,.4h-.4v.7h-.4L103,139l4.1,3.3v.3l-.4,.4v.4h-.4l-4.7,-.4l4.4,1.8v.8l-.4,.3l-4.8,-1.8l-.3,-.4v-.3l.3,-.8v-.3h4.4l-2.5,-2.6l-.4,-.4v-1.4h.4v-.4h.3m1.9,9.9v.4l-1.5,-.4l-.7,2.2l1.1,.7v1.1H103l-4,-3.6h-.4l.4,-.4v-.7l.4,-.4h5.8v1.1h-.3m-4.8,0l1.8,1.8l.8,-1.8h-2.6m2.9,5.1v.8h-.3l-2.2,-.8l-.8,1.9l2.2,1.1v.7l-.3,.4l-5.2,-1.9v-1.1h.4v-.3l1.8,1.1l.8,-2.2l-1.9,-.8v-.7l.4,-.4l5.1,1.9v.3m-6.6,4.4l4.4,1.5v.7l-.3,.4L96.1,158l-.4,1.1l-.4,.4l-.3,-.4h-.4v-.3l1.5,-3.7h.7v.4l-.4,1.4m70.1,7.7l4.4,1.9v1.1h-.4l-4.4,-1.9l-.4,1.5h-1.1v-.4l1.5,-3.6h1.1v.3l-.7,1.1m-1.9,5.2l1.1,.3l.8,-1.4h.7v.3l-.7,1.5l1.8,.7l.7,-1.8h.8v.4l-1.1,2.5v.4h-.4l-4.8,-2.2h-.3v-.4l1.1,-2.5h1.1v.3l-.8,1.9m-1.8,4l1.5,.4l.3,-1.5h.8l.3,.4l-.7,1.4l1.5,.8l.7,-1.9h.7l.4,.4h-.4l-.7,2.6l-.4,.3h-.3l-4.4,-2.2h-.4v-.3l1.1,-2.6h.7v.4l-.7,1.8m-.7,2.2l.3,.4h.4l.4,.3l.3,.8v.3l.4,-.3h2.6v.3l-.4,.4v.4h-2.2l-.4,.3l-.3,.4v.4l1.8,.7h.4v.4l-.4,.3v.4h-.4l-4.7,-2.2h-.4l.4,-.4l.3,-1.4l.4,-.4l.4,-.7h.3l.8,-.4m-1.1,2.6l1.4,.7v-.7l.4,-.4v-.4l-.4,-.3h-1.1v.3l-.3,.4v.4m-1.5,3.3l4.4,1.8v.4l-.4,.3v.4h-.3L159.1,183l-.7,1.4h-.7v-.3l1.4,-3.7h.8v.4l-.4,1.1m-1.8,4.7v.4h1.1l.3,-.4l.4,-.3l.4,-.4h.3l.4,-.4l.7,.4l.8,.4l.3,.7v.7l-.3,.8v.3l-.4,.4l-.4,.4h-1.1v-.4h.4v-.4l.4,-.3l.3,-.4V187h-1.1l-.3,.4l-.4,.3l-.4,.4h-.3l-.4,.4l-.7,-.4l-.8,-.4l-.3,-.3v-.8l.3,-.7v-.4l.4,-.3v-.4h1.1v.4l-.4,.3v.4l-.3,.4v.3m-2.6,5.9l.4,.4h.7l.4,-.4l.3,-.4l.4,-.3h.4l.7,-.4l.4,.4l.7,.3l.4,.8v1.4l-.4,.4l-.4,.4v.3H158v-.3l.4,-.4l.4,-.4V194l.3,-.4v-.4l-.3,-.3H158l-.3,.3l-.4,.4l-.4,.4h-.7l-.4,.3l-.7,-.3l-.4,-.4l-.3,-.4v-1.4l.3,-.4V191l.4,-.3h.7l.4,.3h-.4v.4l-.3,.4l-.4,.3v.4m-1.5,4l1.1,.8l.8,-1.9h.7v.4l-.7,1.8l1.8,.4l.7,-1.8h.8v.3l-1.1,2.6v.4h-.4l-4.8,-1.9l-.3,-.3l.3,-.4l.8,-2.6h.7l.4,.4l-.8,1.8m-1.4,2.2l4.7,1.9v.7l-.3,.4l-4.4,-1.9l3.6,3.3v.8l-.3,.3v.4l-5.2,-.4l4.4,1.9v.7h-.3L149.6,205h-.4v-.4l.4,-.7v-.4l.4,-.4h4l-2.6,-2.2v-.3l-.3,-.4v-.4l.3,-.7v-.4h.8m-3.7,8.5l5.1,.3h.4v.8l-.4,.3h-1.1l-1.1,1.9l1.1,.7v.7l-.3,.4h-.4l-4,-3.7v-.7l.3,-.4v-.3h.4m.4,1.1l1.8,1.8l.7,-1.5l-2.5,-.3m2.9,5.5l-.4,.7v.4l-.3,.3h-.4l-.4,-.3H150l.3,-.4v-.4h.4v-.3h-.4l-.3,-.4l-3.7,-1.5v-.3l.4,-.4v-.4l3.6,1.5l.8,.4l.3,.7l.4,.4m-4.8,3.6v.4h.4l.4,-.4H150v1.1h-2.2l-.4,.4H147v.4l-.3,.3l2.2,.8v.7l-.4,.4l-4.8,-1.9l-.3,-.3v-.4l.7,-1.1v-.7l.4,-.4l.7,-.4l.4,-.3l.7,.3l.4,.4l.3,.4v.3m-2.5,1.1l1.4,.8l.4,-.8v-.7l-.4,-.4h-.7l-.4,.4v.4l-.3,.3m-1.5,4.1l1.1,.7l.7,-1.8h.4l.4,.3l-.8,1.9l1.9,.3l.7,-1.8h.7v.4l-1.1,2.5v.4h-.3l-4.8,-1.8v-.8l1.1,-2.5h.4l.3,.3l-.7,1.9m1.1,3.3v.7l-.4,1.1v.4l1.9,.7v.4l-.4,.3v.4h-.4l-4.7,-1.8v-.8l.3,-1.1v-.3l.4,-.4l.4,-.4l.3,-.3H143l.7,.3l.4,.8m-2.9,1.1l1.8,.7v-1.5l-.4,-.3h-1.1v.3l-.3,.4v.4m1.1,3.3v.7l-.4,1.1v.4l1.8,.7v.4l-.3,.3v.4H143l-4.8,-1.8v-.8l.4,-1.1v-.3l.4,-.4l.3,-.4l.4,-.3h1.5l.7,.3l.4,.8m-3,1.1l1.9,.7v-1.5l-.4,-.3h-1.1v.3l-.4,.4v.4m2.6,6.2l-.4,1.1l-.7,.4l-.7,.3l-1.1,-.3l-3,-1.5v-.7h.4v-.4l2.9,1.5h1.5l.4,-.8v-.7l-.4,-.4l-.4,-.3l-3.3,-1.5v-.4l.4,-.3l3.3,1.1l.7,.7l.8,.4v1.1l-.4,.7m96.8,321.5l.4,.4h.7v.4l-.7,4.4l2.6,-3.7v-.4h.3l.4,.4h.4v.4l-.4,4.4l2.6,-3.7h.7l.4,.4l-.4,.3l-2.9,4.1v.3h-.4l-.4,-.3h-.7v-.4l.4,-4l-2.2,3.3v.3l-.4,-.3h-.7L238,565v-.4l.4,-5.1l.3,-.4m8.5,3v.3h.7v.4l-.7,1.8l1.8,.8l.7,-1.9v-.3h.4l.4,.3h.3v.4L249,569h-.7v-.3h-.4l.7,-2.2l-1.8,-.8l-.7,2.2h-.8l-.3,-.3l1.8,-5.5h.4m5.5,1.8v.4h.7v.3l-1.8,5.2h-.8l-.3,-.4l1.8,-5.5h.4m4.7,2.6v.3l-1.4,-.3l-1.5,4.4h-.7l-.4,-.4v-.4l1.5,-4l-1.5,-.7V565l.4,-.4l4,1.1v.8h-.4m4.4,1.1v.7h-.3l-1.9,-.7l-.3,1.4l1.4,.4v.7l-.3,.4l-1.5,-.7l-.7,1.4l2.2,.8v.3l-.4,.4l-2.9,-.7v-.8l1.4,-4.4l.4,-.3h.4l2.5,1.1m4.1,1.4l1.1,.4h.3l.4,.4h.4v1.4h-.4v-.3h-.4l-.3,-.4l-.4,-.4h-.7l-.4,.4l-.4,.4l-.3,.7l-.4,.7v.8l.4,.7h.7l.4,.4h.3l.4,-.4l.4,.4l-.4,.3v.4h-1.8l-.8,-.7l-.7,-.8v-2.2l.7,-1.1l.8,-.7l1.1,-.4m3.6,1.1l.4,.4h.7v.4l-.7,1.8l1.8,.7l.8,-1.8v-.4h.3l.4,.4h.4v.4l-1.9,5.1H271v-.4h-.4l.8,-2.2l-1.9,-.7l-.7,2.2h-.7l-.4,-.4h-.4l2.2,-5.5m5.2,1.9l.3,.3h.8v.4l-1.5,2.9v1.1l.4,.4l.3,.4h1.1l.4,-.4v-.4l1.5,-3.3h.7l.4,.4l-1.5,3.3l-.4,.7l-.7,.4l-.7,.4l-1.1,-.4l-.8,-.4l-.7,-.7v-1.5l1.1,-3.6h.4m6.2,2.2l1.1,.7h.7l.4,.7l.4,.4l.3,.4l-.3,.7v.4l-.4,.3l-.4,.4h-.3v2.2l.3,.4l-.3,.3l-.4,-.3h-.7v-2.6h-.4l-.4,-.4l-1.1,2.2h-.3l-.4,-.3h-.4l1.9,-5.2l.3,-.3h.4m.4,1.1l-.8,1.8h.8l.3,.4l.4,-.4h.4v-.7L282,576v-.4h-.4l-.3,-.3m6.2,1.4l.7,.4h.4v.4l.4,.3v.4l-.4,.4h-.4v-.4l-.3,-.4h-.4l-.7,-.3l-.8,.3l-.3,.4l-.4,.7l-.4,1.1l.4,.8l.4,.3l.3,.4h1.5v.7h-.4v.4H286l-.3,-.4l-1.1,-.3l-.8,-.8V580l.4,-1.4l.4,-1.1l1.1,-.8h1.8m2.6,.8l.3,.3h.4v.4l-.7,1.8l2.2,.8l.7,-1.9v-.3l.4,.3h.7v.4l-2.2,5.1h-.4l-.3,-.3h-.4l1.1,-2.2l-2.2,-.8l-.7,2.2h-.8V583h-.3l1.8,-5.2v-.3h.4m9.9,4l.3,.4V583l-.3,.7l-.4,.4h-.7v.7l.3,.4V587h-1.1v-1.8l-.3,-.4v-.7h-.4l-.4,-.4l-.7,2.2h-1.1v-.4l1.8,-4.7v-.4h.4l1.5,.4l.3,.3l.8,.4m-2.6,1.5l.4,.3h.7l.4,-.3h.3v-.8l-.3,-.3h-.4v-.4h-.7l-.4,1.5m7.7,.3l.7,.8l.4,1.1l-.4,1.1l-.7,1.1l-.7,.7l-1.1,.4l-1.1,-.4l-1.1,-.4l-.8,-.7v-1.1l.4,-1.5l.4,-1.1l1.1,-.7h2.2l.7,.7m-3.3,3.7l.7,.4h1.1l.8,-.8l.3,-.7v-1.5l-.3,-.3l-.4,-.4l-.7,-.4l-.8,.4l-.3,.4l-.4,.7l-.4,1.1v.7l.4,.4m7.3,-2.6v.4h.8V591l-.4,-.3h-.7v-1.5l-1.9,-.7l-.7,1.1h-.7l-.4,-.4v-.4l3.3,-4.4h.7m-1.8,3.3l1.5,.4v-2.6l-1.5,2.2m8.1,-.7l.7,.7v2.2l-.7,1.5l-.8,.4l-1.1,.3l-1.4,-.3l-1.1,-.4l-.4,-.4l1.8,-4.7v-.4h.4l1.5,.4l1.1,.7m-3.3,3.7l.3,.3h1.5l.7,-.7l.4,-.7v-1.5l-.4,-.4l-.7,-.3l-.7,-.4l-1.1,3.7m8.4,-2.2l2.6,1.1h.3v.3h-.3v.8l-.4,-.4l-1.8,-.4l-.4,1.1l1.5,.8h.3v.3H322v.4l-1.9,-.4l-.3,1.5l1.8,.7v.4l3.7,-4.4h.3l.4,.4h.7v5.8l-.3,.4H326l-.4,-.4h-.3v-.3l.3,-1.1l-2.2,-.8l-.7,1.1H322l-.4,-.3h-.4L318.7,594h-.4v-.4l1.8,-4.8v-.3h.4m5.1,5.5v-2.6l-1.8,2.2l1.8,.4m6.6,-.4l-.3,.4l-.4,-.4l-.4,-.4H330v1.1h.4l.4,.4l.3,.4l.4,.7v1.1l-.7,.7l-.4,.4h-.7l-1.1,-.4h-.4l-.4,-.3l-.3,-.4v-.7l.3,-.4v.4l.4,.3h.4l.3,.4H330v-1.1l-.3,-.4l-.4,-.3l-.4,-.4l-.3,-.4v-1.1l.3,-.7l.8,-.4h1.4l.4,.4h.4l.3,.4v.7m0,0h.4v-.4l4,1.5v.7h-.3l-1.5,-.3l-1.5,4.4h-.7v-.4h-.4l1.5,-4.4l-1.1,-.7h-.4v-.4M95.3,242.7L93.9,246v2.2H92.8V246l-1.9,-3.3v-.3H92l.8,1.4l.3,.4v.7l.4,-.3v-.8l.7,-1.4h1.5l-.4,.3m-5.8,-.3l1.8,5.5h.4v.3H90.2v-.3l-.4,-1.1H87.6l-.3,1.1v.3H86.2v-.3L88,242.4h1.5m-.8,1.1L88,246h1.5l-.8,-2.5m-2.2,-.8l-1.4,5.2v.3H83.6v-.3l-1.1,-3.7l-.7,3.7h-.4v.3H80.3l-.4,-.3l-1.1,-5.2l-.3,-.3h1.4l1.1,4.7l.8,-4.4l.3,-.3h1.1v.3l1.1,4.4l1.1,-4.7h1.1v.3m-10.2,0L74.8,246v2.2H73.7V246l-1.8,-3.3v-.3H73l.7,1.4l.4,.4v.7l.3,-.3v-.8l.8,-1.4h1.4l-.3,.3m-5.5,0l.3,.8v1.1l-.3,.3l-.4,.4H70l.4,.4l.4,.3l.3,.4l.4,1.1v.7H70.4v-.3l-.7,-1.1v-.4l-.4,-.4l-.4,-.3h-.7v2.5H67.1v-5.5l.4,-.3h2.9l.4,.3m-2.6,.4v1.8h1.1l.4,-.3l.3,-.4l-.3,-.7l-.4,-.4H68.2m-2.2,4l-.4,.8l-.7,.3H62.7l-.7,-.3l-.4,-.8L61.2,246v-3.6h1.1V246l.4,.8v.3l.4,.4h1.1l.3,-.4l.4,-.3v-4.4H66v4.7m-5.5,0l-.4,.4v-2.2l.4,.7v1.1M214.9,92.4v1.5h1.8V95h-1.8v1.4h2.2v1.1h-3.3V91.7h3.3v.7h-2.2M213,92l-1.8,5.2v.3h-1.5v-.3L207.9,92v-.3H209l1.5,4.7l1.4,-4.7H213V92m-6.6,5.5h-.3V91.7h1.1v5.8h-.8M204.6,92l.4,.8v1.1l-.4,.3l-.4,.4h-.3V95h.3l.4,.3v.4l.7,1.1v.7h-1.1l-.3,-.3l-.4,-1.1l-.4,-.4v-.4l-.3,-.3H202v2.5h-1.1V91.7h3.3l.4,.3m-2.6,.4v1.8h1.1l.4,-.3V92.8l-.4,-.4H202m-2.9,0l.4,.7l.3,1.5l-.3,1.1l-.4,1.1l-1.1,.4l-1.1,.3h-1.8V91.7H198l1.1,.7m-2.9,0v4h1.4l.4,-.3l.4,-.8V93.9l-.4,-.8l-.4,-.3l-.7,-.4h-.7m-4.8,0l.4,.7l.3,1.5l-.3,1.1l-.4,1.1l-1.1,.4l-1.1,.3h-1.8V91.7h2.9l1.1,.7m-2.9,0v4h1.4l.4,-.3l.4,-.8V93.9l-.4,-.8l-.4,-.3l-.7,-.4h-.7m-3.7,-.7l1.8,5.5v.3h-1.1v-.3l-.3,-1.1H183l-.4,1.1v.3h-1.1v-.3l1.8,-5.5h1.5m-.7,1.1l-.8,2.5h1.5l-.7,-2.5m-5.5,-.4v1.5h1.8V95h-1.8v1.4h2.2v1.1h-3.3V91.7h3.3v.7h-2.2m-7.7,-1.1l.3,.4h.8v1.1h-.4v-.4h-1.5v1.1h.4l.4,.4l.3,.3h.4l.4,.4l.3,.4v1.4l-.7,.8l-.7,.3H169l-.3,-.3v-.8h.3l.4,.4h1.1l.4,-.4l.3,-.3l-.3,-.4l-.4,-.4l-.4,-.3h-.3l-.4,-.4l-.4,-.4l-.3,-.3V92.4l.7,-.4l.4,-.3l.7,-.4h.4m4,1.1v5.1h-1.1V92.4h-1.5v-.7h4.1v.7h-1.5m-9.5,0v1.5h1.8v.3l.4,.4h-.4V95h-1.8v1.4h2.2v.4l.3,.4h-.3v.3h-3.3V91.7h3.3l.3,.3l-.3,.4h-2.2m-2.6,-.7V92h.4v5.2l-.4,.3h-.7V92.4l-1.9,4.8v.3h-1.1v-.3l-1.8,-4.8v5.1h-1.1V91.7H158V92l.4,.4l1.1,3.3L161,92.4V92l.3,-.3h1.5m-8.1,.3l.4,1.1l.4,1.5l-.4,1.1l-.4,1.1l-1.1,.7h-2.2l-1.1,-.7l-.3,-.7v-3l.7,-.7l.7,-.7l1.1,-.4l1.1,.4l1.1,.3m-2.9,4.4l.7,.4l.8,-.4l.3,-.3l.4,-.8V93.5l-.4,-.7l-.3,-.4h-1.5l-.4,.7l-.3,.4v1.8l.3,.8l.4,.3m-2.6,-4.7v5.8h-1.1V95h-2.5v2.5h-1.1V91.7h1.1v2.2h2.5V91.7h1.1m-37,77l-1.8,3.3v2.2h-1.1V172l-1.5,-3.3h-.4v-.4h1.5v.4l.7,1.4v.4l.4,.4v-.4l.4,-.4l.7,-1.4v-.4h1.1v.4m-5.9,0l1.9,5.1v.4h-1.1l-.4,-1.1h-2.6v.7l-.3,.4h-1.1v-.4h.3l1.5,-5.1l.4,-.4h1.4v.4m-1.1,.7l-.7,2.6h1.8l-1.1,-2.6m-2.5,-.7l-1.1,5.1l-.4,.4H99.7v-.4l-1.1,-3.7l-.7,3.7v.4H96.4v-.4L95,168.7v-.4h1.1v.4l1.1,4.4l1.1,-4.4v-.4h1.1v.4l1.1,4.4l1.1,-4.4l.3,-.4h.8l.3,.4h-.3m-9.9,0L90.9,172v2.2H89.8V172l-1.4,-3.3H88l.4,-.4h1.1v.4l.7,1.4v.4l.4,.4v-.4l.3,-.4l.8,-1.4v-.4h1.1v.4m-5.2,.7l.4,.4v.7l-.4,.4l-.3,.3l-.4,.4l.4,.4l.3,.3l.4,1.5h.4v.4H86.9l-.4,-1.5l-.3,-.4V172H85.1v2.2H84v-5.9h2.5l.4,.4l.7,.3v.4m-2.5,0v1.5h1.1l.3,-.4v-1.1H85.1m-2.6,3.7l-.4,.7l-.7,.4l-1.1,.3l-1.1,-.3l-.7,-.4l-.4,-.7v-4.8h1.1v4.4l.4,.4l.3,.3H81l.4,-.3l.4,-.4v-4.4h1.1V172l-.4,1.1M76.6,169l.4,.8v.3l-.4,.4l-.3,.4h-.4l.7,.3l.4,.4l.4,.4v1.1l-.4,.3l-.4,.4l-.3,.4H73v-5.9h2.5l.8,.4l.3,.3m-2.5,.4v1.5h.7l.4,-.4h.3l.4,-.4v-.3l-.4,-.4H74.1m0,2.2v1.8h.7l.7,-.3l.4,-.4V172h-.4l-.3,-.4H74.1m-2.6,-2.9v5.1l-.4,.4H70l-.3,-.4v-.4l-1.5,-2.9l-.4,-.4v4.1H66.7v-5.9h1.5l.4,.4v.3l1.1,2.2l.3,.4v.7l.4,.4v-4.4h1.1v.4m-7.3,0l1.8,5.1v.4H64.9l-.4,-1.1H62.3l-.3,.7v.4H60.9v-.4l1.8,-5.1v-.4h1.5v.4m-.8,.7L62.3,172h1.9l-.8,-2.6m-2.9,1.8l-.4,1.5v-2.9l.4,1.4" class="gd_56"/>
</g>
<path d="M60.1,879.2V88.7H993.7V879.2H60.1Z" class="gc_56"/>
<path fill-rule="evenodd" d="M84,121l10.6,38.1L82.5,150.3L69.7,158L84,121ZM82.1,105.6l5.5,7.3l.4,-5.5v-.7l-.4,-.4h-.3l-.4,-.3h2.9v.3H88.7l-.3,.4l-.4,8.4h-.4l-5.5,-7.3l-.3,5.1v1.5h1.1v.4l-3,-.4h.8L81,114v-.3l.4,-.8v-6.2l-.4,-.4l-.7,-.3h-.7l.3,-.4h2.2Z" class="ge_56"/>
<path d="M84,121l10.6,38.1L82.5,150.3L69.7,158L84,121M82.1,105.6l5.5,7.3l.4,-5.5v-.7l-.4,-.4h-.3l-.4,-.3h2.9v.3H88.7l-.3,.4l-.4,8.4h-.4l-5.5,-7.3l-.3,5.1v1.5h1.1v.4l-3,-.4h.8L81,114v-.3l.4,-.8v-6.2l-.4,-.4l-.7,-.3h-.7l.3,-.4h2.2" class="gf_56"/>
<path fill-rule="evenodd" d="M1048,589.9v-4.4h43.3v4.4H1048Z" class="gg_56"/>
<path d="M1091.3,589.9v-4.4h43.3v4.4h-43.3ZM1012.1,66V901.2" class="gc_56"/>
<path d="M1012.1,723h165m-82.5,.4v16.5m-82.5,-33.4h165M1012.1,671h165m-165,-50.3h165m-165,-53.5h165m-165,-436.7h165m-165,20.2h165m-165,112.9h165m-165,13.6h165m-165,463.1h165" class="gh_56"/>
<path fill-rule="evenodd" d="M1015,899.4V743.2h159.5V899.4H1015Z" class="gi_56"/>
<g clip-path="url(#c1_56)">
<path fill-rule="evenodd" d="M1015,899.4V743.2h159.5V899.4H1015Z" class="gi_56"/>
<path fill-rule="evenodd" d="M1145.6,735.5l-.4,.4v.3l-.4,.8v.3l-.3,.8l-.4,.3l-.7,.8l-.4,2.5l-.4,.4l-.3,1.1l.3,.4l-.3,.7l-.8,.7l-.3,.4v1.1l-.4,.7l-.7,1.1h-.4v.4l-.4,.4l-.3,.7l-.4,.7l-.4,.4h-.3l-.4,.4l-1.1,1.8l-.7,1.8v.8l.7,1.4v.4l.7,1.1l1.5,2.2l.4,.7h1.1l-.4,.4v.4l-.4,.3l-.3,.4l-.8,.7l-1.1,-1.1l.8,-1.1l-1.1,-1.1l-.8,-.7l-.3,-.4l-.8,-.3v-.4h-1.8v.4l-.7,.3l-.4,.8h-.4v.3h-.3l-1.5,1.5v.7h-.7v.4l-.4,.4l-.7,.3v.4l-.4,.4h-.4v.3l-1.1,1.1v.8h.4v.3l-.4,-.3l-.3,.3h-.4v.4l-.7,.7l-.8,1.1l-.7,1.9l-.4,.7l-.3,.7v.8l-.4,.7v.4H1121l-.4,.3l-.7,.4v.4h-.4v.3l-.3,.4l-.4,.7v.8h-.4v.3v-1.1h.4h-.4v-.3v.3h-1.1v-.3h-.3v-.4l-.4,-.4v-1.1h.7v.4v-.4h.4l.4,-.3h-.4V774h-.4l-.3,-.4h-.4l.4,.4v.4h-.8v2.2l-.3,.3l.3,.4v.7l.4,.4h.4v.7h-.4l-.4,.4v-.4h-.3v-.3l-.8,-.4l-.3,-.4h-.4v-.3h-.4v.7h.4v.4h-.4h.4v.3h-.4v.4h-.4v.4h-1.1v.3h-.3v1.1h.3v.4l-.3,.4h-.8v-.4v.7v-.3h-.3v.3h-.8v.8l-.3,.3h-.4l-.7,.4v.4h-.4v.7l-.4,.4v.3h-.3l-.4,.4v-.4h-.4v.8h-.3v.3l.3,-.3v.3l-.3,.4h-.4v.4h-.4v.3l.4,-.3l.4,-.4l.3,-.4h.8v-.3h.3v-.4h-.3v.4v-.8h.3v-.3h.4h-.4v.7l.4,.4v.7v-1.1l-.4,-.4h.4v-.3h.4V785h.3v-.4l.4,-.3h.4l.3,-.4l.4,-.4l-.4,.4l-.3,.4v.3h-.4l.4,.4h-.4v.4h.4V785l.3,.4l-.3,.3v.4l-.4,.4h.4h-.4v.3h.4v-.3h.3v-.8h.4l.7,-.3v-.8h.4v-.3h.7v-.4h.8l.3,-.4l.4,-.3v-.4l.4,-.4h.4l-.4,.4v.7h.4v-1.1h.3v-.3l.8,-.4h.3h-.3v-.4h.3v.4h.4l.4,.4l.3,1.1l.4,1.4v.8l.4,.3l-.4,-.3v-2.2l-.7,-1.1v-.4h-.4l-.4,-.7v-1.5h.4v-.4h.4l.3,.4l.4,.4l.4,.3l.3,.4l.8,.4l.7,.3l.7,-.3h3v-.4h.3l-.3,-.4h.3l.4,-.3h-.4v-.4l.4,-.4l-.4,-.3h.4v-.4h.4h-.4h.4l.3,-.4v.4V778h.4l.4,-.3h.3v-.4l.4,-.4l1.5,-.3l.3,.7v.7l.4,.4l-.4,-1.8l1.1,-.4l.4,1.5v-1.5h.4l.3,1.5v-.8h.4v.8l.4,-.4v-1.1h.7v.4h1.1v.3h.4v-5.8h.3l.4,-.4h2.6v.4l.3,-.4l2.6,-.4l.4,6.6h.3l-.3,-1.1V770h1.4v.7l.4,-.7h.4l.3,4.7v-2.9l.4,-.7l1.1,.3v2.2l.4,.4l.7,-.4v-1.4l1.1,.3v2.6h.4l-.4,-2.6l1.5,-.3v.3l-.8,.4v.7l.4,.4h.4l.3,.4l.4,-.4l.4,.4v.3l.3,-.7h1.1l.4,-.4v-.3v.3v-.3l.4,.3l.3,.4l.4,.7h.4v.4h.7l.4,.4l.3,.7l.4,.4h.4v.7v-.7l-.4,-.4l-.7,-.7l-.4,-.4l-.4,-.4h-.3l-.4,-.3l-.4,-.4l-.3,-.4v-.3h-.8l-.3,-.4l-.4,-.4l-.7,-.3h-1.1l-1.1,-.8l-1.1,-.3h-.4l-.4,-.4l-2.9,-2.9l.7,-.8l-1.4,-1.8l-1.9,-1.8l-.3,.3v-.3l.3,-.4v-.4l.4,-.3v-.4h.4v-.4l.3,.4l.4,.7l.4,.4l.3,.4l.4,.7l.7,1.1l.8,.7l1.1,1.1l1.4,1.1l.8,.8l2.5,1.8l1.5,1.1l.4,.4v.3l.3,.4l1.1,.4l1.1,.7l1.9,1.1l.3,.4l.8,.3l.7,.4h.4v.4v-.4v.4l1.1,.3h2.5l.4,-.3h.4l.3,-.4h1.1v-.4h3l.3,.4h.8l.3,.4h2.2l.4,.3h2.2v-.3h1.1v-.4h1.1l.4,-.4l.3,-.3h3l.3,-.4h1.1l.8,.4h1.1l.7,.3V907.1H1006.9V735.5h138.7Zm-37.1,49.9v-.8h.4v.4v-.4h.3l.4,-.3v.3h-.4l-.3,.4l-.4,.4Zm28.6,-23.5v-.4l.4,.4l-.4,.4v-.4Zm-26,20.9v-.4h.3v.4h-.3Zm3.7,-.4v-.3v.3Zm-1.9,-1.8h.4h-.4Zm14.3,-14.3v-.4h.4v.4h-.4Z" class="gj_56"/>
<path fill-rule="evenodd" d="M1145.6,735.5l-.4,.4v.3l-.4,.8v.3l-.3,.8l-.4,.3l-.7,.8l-.4,2.5l-.4,.4l-.3,1.1l.3,.4l-.3,.7l-.8,.7l-.3,.4v1.1l-.4,.7l-.7,1.1h-.4v.4l-.4,.4l-.3,.7l-.4,.7l-.4,.4h-.3l-.4,.4l-1.1,1.8l-.7,1.8v.8l.7,1.4v.4l.7,1.1l1.5,2.2l.4,.7h1.1l-.4,.4v.4l-.4,.3l-.3,.4l-.8,.7l-1.1,-1.1l.8,-1.1l-1.1,-1.1l-.8,-.7l-.3,-.4l-.8,-.3v-.4h-1.8v.4l-.7,.3l-.4,.8h-.4v.3h-.3l-1.5,1.5v.7h-.7v.4l-.4,.4l-.7,.3v.4l-.4,.4h-.4v.3l-1.1,1.1v.8h.4v.3l-.4,-.3l-.3,.3h-.4v.4l-.7,.7l-.8,1.1l-.7,1.9l-.4,.7l-.3,.7v.8l-.4,.7v.4H1121l-.4,.3l-.7,.4v.4h-.4v.3l-.3,.4l-.4,.7v.8h-.4v.3v-1.1h.4h-.4v-.3v.3h-1.1v-.3h-.3v-.4l-.4,-.4v-1.1h.7v.4v-.4h.4l.4,-.3h-.4V774h-.4l-.3,-.4h-.4l.4,.4v.4h-.8v2.2l-.3,.3l.3,.4v.7l.4,.4h.4v.7h-.4l-.4,.4v-.4h-.3v-.3l-.8,-.4l-.3,-.4h-.4v-.3h-.4v.7h.4v.4h-.4h.4v.3h-.4v.4h-.4v.4h-1.1v.3h-.3v1.1h.3v.4l-.3,.4h-.8v-.4v.7v-.3h-.3v.3h-.8v.8l-.3,.3h-.4l-.7,.4v.4h-.4v.7l-.4,.4v.3h-.3l-.4,.4v-.4h-.4v.8h-.3v.3l.3,-.3v.3l-.3,.4h-.4v.4h-.4v.3l.4,-.3l.4,-.4l.3,-.4h.8v-.3h.3v-.4h-.3v.4v-.8h.3v-.3h.4h-.4v.7l.4,.4v.7v-1.1l-.4,-.4h.4v-.3h.4V785h.3v-.4l.4,-.3h.4l.3,-.4l.4,-.4l-.4,.4l-.3,.4v.3h-.4l.4,.4h-.4v.4h.4V785l.3,.4l-.3,.3v.4l-.4,.4h.4h-.4v.3h.4v-.3h.3v-.8h.4l.7,-.3v-.8h.4v-.3h.7v-.4h.8l.3,-.4l.4,-.3v-.4l.4,-.4h.4l-.4,.4v.7h.4v-1.1h.3v-.3l.8,-.4h.3h-.3v-.4h.3v.4h.4l.4,.4l.3,1.1l.4,1.4v.8l.4,.3l-.4,-.3v-2.2l-.7,-1.1v-.4h-.4l-.4,-.7v-1.5h.4v-.4h.4l.3,.4l.4,.4l.4,.3l.3,.4l.8,.4l.7,.3l.7,-.3h3v-.4h.3l-.3,-.4h.3l.4,-.3h-.4v-.4l.4,-.4l-.4,-.3h.4v-.4h.4h-.4h.4l.3,-.4v.4V778h.4l.4,-.3h.3v-.4l.4,-.4l1.5,-.3l.3,.7v.7l.4,.4l-.4,-1.8l1.1,-.4l.4,1.5v-1.5h.4l.3,1.5v-.8h.4v.8l.4,-.4v-1.1h.7v.4h1.1v.3h.4v-5.8h.3l.4,-.4h2.6v.4l.3,-.4l2.6,-.4l.4,6.6h.3l-.3,-1.1V770h1.4v.7l.4,-.7h.4l.3,4.7v-2.9l.4,-.7l1.1,.3v2.2l.4,.4l.7,-.4v-1.4l1.1,.3v2.6h.4l-.4,-2.6l1.5,-.3v.3l-.8,.4v.7l.4,.4h.4l.3,.4l.4,-.4l.4,.4v.3l.3,-.7h1.1l.4,-.4v-.3v.3v-.3l.4,.3l.3,.4l.4,.7h.4v.4h.7l.4,.4l.3,.7l.4,.4h.4v.7v-.7l-.4,-.4l-.7,-.7l-.4,-.4l-.4,-.4h-.3l-.4,-.3l-.4,-.4l-.3,-.4v-.3h-.8l-.3,-.4l-.4,-.4l-.7,-.3h-1.1l-1.1,-.8l-1.1,-.3h-.4l-.4,-.4l-2.9,-2.9l.7,-.8l-1.4,-1.8l-1.9,-1.8l-.3,.3v-.3l.3,-.4v-.4l.4,-.3v-.4h.4v-.4l.3,.4l.4,.7l.4,.4l.3,.4l.4,.7l.7,1.1l.8,.7l1.1,1.1l1.4,1.1l.8,.8l2.5,1.8l1.5,1.1l.4,.4v.3l.3,.4l1.1,.4l1.1,.7l1.9,1.1l.3,.4l.8,.3l.7,.4h.4v.4v-.4v.4l1.1,.3h2.5l.4,-.3h.4l.3,-.4h1.1v-.4h3l.3,.4h.8l.3,.4h2.2l.4,.3h2.2v-.3h1.1v-.4h1.1l.4,-.4l.3,-.3h3l.3,-.4h1.1l.8,.4h1.1l.7,.3V907.1H1006.9V735.5h138.7Zm-37.1,49.9v-.8h.4v.4v-.4h.3l.4,-.3v.3h-.4l-.3,.4l-.4,.4Zm28.6,-23.5v-.4l.4,.4l-.4,.4v-.4Zm-26,20.9v-.4h.3v.4h-.3Zm3.7,-.4v-.3v.3Zm-1.9,-1.8h.4h-.4Zm14.3,-14.3v-.4h.4v.4h-.4Z" class="gk_56"/>
<path d="M1108.5,771.4l-.7,-.3l-.4,-.4l-1.1,-.4l-.3,-.3m-84,75.1v0h-.4m.4,0h-.4M1105.9,770h-.3l-.8,-.4m-5.1,-2.2l-1.1,-.4l-1.5,-1.1l-1.8,-.7m25.7,-2.6l.4,-1.1l.3,-1.8l.8,-2.2l.3,-.7v-.4l.4,-.7v-.4l.4,-.7m26,17.6l-.7,-.4l-.8,-.7l-1.8,-1.1l-.7,-.4l-.4,-.4h-.4v-.3l-.3,-.4l-1.1,-1.1V767m-107.9,90.2v-.3h.4l.4,-.4h.3m47,-31.2l.7,-.7l.7,-.4m-68.2,12.5l-1.1,-1.5l-.3,-.7m-.8,-92.4l-.3,-.4l-.4,-.3l-.7,-.8l-.4,-.7l-.7,-.7l-.4,-.8l-.4,-.3l-.3,-.4h-.4v-.4h-.4l-.3,-.3m5.5,97.5l-.8,-.7m94.7,-31.6h-1.9l-.3,.4h-.4M1069.3,796v0m59,4.8l-1.8,.3h-1.1m-4,28.3h-5.5l-.4,-.4h-.4v-.4h-.3l-1.9,-1.8v-.4h-.3v-.3l-.4,-.4l-2.2,-3.3V822l-.4,-.3v-.8m-55.7,-26h-.8M1132,756.8l-2.6,-1.1M1069.3,796l.3,-.4m-40.3,62.7l-1.1,.4h-1.1m85.8,-57.2h-1.1m16.2,53.2h-.8m-70.4,-59.4l-1.1,-.4h-1.1m12.8,42.5l1.1,-1.1l.4,-.3h.4l.3,-.4v-.4h.4v-.3h.4l1.4,-2.2l.4,-.4v-.4h.4v-.3h.3v-.4h.4v-.4h.7v-.3h1.1l.8,-.4h.7l.4,-.4h1.1v-.3h.7V829h.7v-.4h.4l.4,-.3h.3v-.4h.4l.4,-.4l.3,-.3v-.4h.4m-13.2,-30.4v0m-.4,-.4v0m.4,.4V796h-.4m0,0h-.3m46.6,-22.7l1.8,-1.5v-.4l.4,-.3v-.4l1.1,-1.5l.3,-.7l.8,-1.1v-.7l.3,-.4m7.7,-17.6l.4,-.4V748h.4v-.4m-4.4,.7V748h-.4v-1.1l-.4,-.8l-.3,-1.1l-.4,-.3l-.4,-.8v-.3l-.3,-.8l-.4,-.7l-.4,-1.1l-.3,-.7v-.4l-.4,-.7l-.4,-.4v-.4l-.3,-1.1m27.8,65.3h.4v-.4h.4l.3,-.3M1068.2,796h-1.9l-.7,-.4h-.7m43.3,21.3l-.4,-.4l-.4,-.3v-.8l-.3,-.3l-.4,-.4l-.4,-.7m44.4,-25l.4,-.3v-.4h.3v-1.8m-44.7,13.2v-1.5h.4v-.4l.3,-.3l.8,-.8l.3,-.3h.4V796h.4l1.4,-1.1m37.8,4l.4,-.3v-.4l.3,-1.1v-.4l.4,-.3V796l-.4,-1.1v-.4m-.3,4.8v-1.5l.3,-.7v-.4h.4v-2.2m-106.7,58.7l1.4,-.7m123.6,46.9l1.1,-.7M1156.9,778h-.3l-.4,-.3h-.4l-.3,-.4v-.4m-48.8,22.8v-1.5h.4v-.4h.3l.4,-.7h.4l.3,-.7h.4V796h.4l.3,-.4h.4l.7,-.3m40.7,-9.2h.4v-.4l.4,-.3l.3,-.4l.4,-.4m-1.5,2.6v-.7h.4v-.8h.4v-.3h.3V785h.4v-.4m-5.5,18l.4,-.4h.3v-.3l.4,-.4v-.4h.4v-1.8m6.6,-22.4l-.8,-.3l-.3,-.4m-70.5,9.9h.4l.4,-.4l.3,-.3m63.1,16.5l.4,-.4v-.7h.4v-1.1l-.4,-.4v-.4M1128,847.3l-.4,-.7v-2.2M1154,780.2v-1.1h.4v-.3m-40,-1.5h-.4v-.7h-.3v-.8h.3v-.3m-70.4,77.3l1.1,-.3h.4m-.8,0h.4l2.2,-1.1M1070,753.5l-1.5,-.8l-1.1,-.3l-.3,-.4m-21.7,-8.1v0m133.2,33.4h-4.8l-.7,.4m-54.7,127.6l.4,-1.5v-2.2l.4,-.4v-1.1l.3,-1.1v-.7h.4M1078.4,757.5l-1.1,-.4m-53.5,95.4l-1.5,-4.1v-.3l-.3,-1.5v-1.5m-6.3,-52.4h-2.2l-.7,-.4h-.7m45.8,3h-1.1m48,-25.7v0m-20.9,16.5v0m-38.8,66.4l1.8,-.8m57.6,-82.5h-.8l-1.1,-.7m48.8,19.8v-1.1m-67.5,-27.1l-1.4,-.8l-3.3,-1.4l-.8,-.4m-40.7,97.9l.8,-.4h.3v-.3h.8l.3,-.4l1.5,-.7l1.1,-.4h.4m108.5,-66.7v-.4m-27.8,-31.9l.3,-.4v-.3l.4,-.4l.4,-.4l.3,-.3h.4V752h.4v-.4h.3m-.7,120.7l-.4,-.8v-.3l-.3,-.4h-.4v-.4h-.7l-.4,-.3h-.4l-.3,-.4l-.4,-.4v-6.2l.4,-.4v-2.5h.3v-.4l.8,-1.1V858h.3v-1.9l.4,-.7m23.1,-52.8h-.4l-.3,.4h-.8m7,-18.4l.4,-.3v-.8m-49.2,30.1v-.4h.4v-.7h.3v-.7l.4,-.4v-1.1m-58.3,41.4l2.9,-1.4l1.1,-.4l1.1,-.4h.4l.4,-.3h.3l.4,-.4l.4,-.4l1.4,-1.1m97.6,-62.7v-.3l.4,-.4l.3,-.7v-1.1m-50.2,32.6v-.4h.3V814l.4,-.4m-.7,1.1v-.4h.3V814h.4v-.4l.4,-.4l.3,-.3v-.8l.4,-.3V811l.4,-1.1m-3,5.2h.4v-.4h.4m2.2,-1.8h-.4v-2.2l.4,-.8m44,-15.4v-3.6l.4,-.4m-.8,4v-1.8l.4,-.4v-1.4m-95.7,-44v-.4m0,0l-.8,-.4l-1.1,-.7l-.3,-.4h-.8m-33.7,48.1l-1.1,-.4h-.4m114.1,-48v-.4h.4l.3,-1.5l.4,-1.8l.4,-1.1m-91,2.9h-.4l-.7,-.3m15.4,52.4h-.7m96.1,-5.1h.3v-.4l.8,-.4v-.3h.3v-.4m-48.8,-19.8h-.3m12.1,8.8h-.4v-.4l-.3,-.3v-.8m4,8.1v-1.1h-.4v-.7l-.3,-.8l-.4,-.3v-1.1l-.4,-.4v-.7h-.3v-.4h-.4V778l-.7,-.3h-.4v-.4m12.8,77.4h-1.4m-69,-107.5v-.3h-1.5m78.9,53.9h-2.6m31.2,-23.1h-.4l-.7,.3h-4.8M1045.4,743.9l-.7,-.3h-1.8M1022,793.4h-3l-1.1,-.3h-.7m113.3,8h-2.2M1016.1,744.3l-.4,-.7m128,57.9h-.3v-.4h-.4l-.4,-.3h-.7l-.4,-.4h-.3l-1.1,.4m-50.3,-38.2h-.4m34.9,38.5h-1.8m-40.8,-13.5l.8,-.4l.3,-.4l.8,-.3l.3,-.4m32.7,2.2l.4,-.4l.7,-.3v-.4m-89.5,71.5h-1.5l-.7,.4l-2.2,.3h-.7m12.1,-2.2h.3l.4,-.3h.4l.7,-.8m48.4,-70.7V785h.4m60.1,18v-.4h-1.1v-.4h-.3v-.3h-.4l-.4,-.4m-116.6,57.2l-.4,.4l-1.8,.3h-1.5l-2.2,.4h-.3m41.8,-110l-.4,-.4h-.4l-.7,-.3m-16.1,45.1h-3.3l-1.9,-.4h-2.5l-1.5,-.4h-.4M1162.1,778h-5.9v-.3h-.4v-.4h-.3l-.4,-.4m-40.7,13.6l.7,-.4l.4,-.3h.4v-.4l.3,-.4v-.3h.4v-.4M1014.3,888.4L1011,884m93.8,-114.4v0M1050.9,745l-.7,-.3h-.4m55,24.9v0m-35.9,26.8v0m48.8,-12.9v-.7l-.4,-.4v-.3L1117,781l-.4,-.4v-1.1h-.4v-.7l-.3,-.4l-.4,-.4h-.4l-.3,-.3h-.4v-.4m-92.8,67.1v-1.1l-.4,-.4v-.3l-2.9,-4.1m104.5,-81.7l.4,-.8v-.3l.4,-.8v-.7m-54.7,42.2h.4V796m-41.5,-2.6h-.3l-1.5,-.3v-.4h-1.8M1006.9,752l.8,-.4l.7,-.3l.4,-.4l.7,-.4l.4,-.3l.3,-.4l.4,-.4l.7,-.3l.8,-.4l.7,-.4l.7,-.7l1.1,-.7m90.2,23.4v-.7M1048,794.5h-1.5m55.8,-26l-.4,-.4h-.7m-9.6,-4.4l-1.4,-.7l-.4,-.4m-54.6,30.8H1033m94.6,51v-3.3m-58.7,-44.7v0m16.5,-11l.4,-.4m9.1,-6.2h.4l.7,-.4l.8,-.7l.7,-.4l.4,-.4m-25.3,-22.3h-.8m67.2,46.2h-2.6M1085.8,785l.7,-.4m41.5,70.1v-.8m.3,-52.8h-1.1m-22.7,-30.4h.3v-.4M1015,742.8l-.4,-.7m24.6,.4l-.4,-.4l-1.1,-.4h-.3l-.4,-.3l-.4,-.4l-.3,-.4h-.4l-.4,-.3h-.3l-1.9,-.8m73,65.3l.4,-.7V803l.3,-.4v-1.8l-.3,-.8v-.3m-16.2,-18l.8,-.4m-1.9,-18.7l-.3,-.3l-3.7,-1.5l-.4,-.4m-16.1,36V796h-.4m-54.2,66.7l4,-2.2l.7,-.3l1.5,-.4h.4m86.2,-57.9v-1.5h-.4v-.7m48.4,-22.8l-.4,-.3l-.3,-.4l-.4,-.4M1016.1,744.3v-.4l-.7,-.7m57.2,11.7v-.3M1033,793.4h-1.1m42.5,-37.7l-.7,-.4l-1.1,-.4m-5.5,-2.9h-.4l-1.1,-.7l-1.5,-.8h-.3m41,19.8v-.7m-35.9,26.8h.4V796m35.5,-26.4h-.3v-.4m-32.7,-14.6l-.7,-.8l-1.1,-.3m34.8,16.1v0m-80.6,23.1h-.4l-.4,.4h-.7l-.4,.3h-.3m50.6,-38.8h-.8m-50.2,90.5v-.3m115.2,-84.7l-.4,-.4l-.4,-.4l-.3,-.3v-.4h-.4v-.4h-.4v-.3h-.3l-.4,-.4h-.7l-.4,-.4h-.4l-.7,-.3h-.4m-117,-9.9l.8,-.4l.7,-.7l.7,-.4l.4,-.4l1.1,-.7l.7,-.4v-.3h.4m49.5,52.8v0m3.7,-41.5v-.3m25.3,22.3l.3,-.3m-11.7,8l.7,-.7l.4,-.4m39.6,17.6h-2.9m-6.6,-13.9h.4v-.4h.3v-1.4h-.3v-1.1l-.4,-.4M1014.3,747.2l2.5,-1.8l1.1,-.7m17.6,48.7h-.3m1.4,63.1l1.1,-1.1m47.3,-95l-1.1,-.3m26.8,34.8h.4l1.1,-.7l.4,-.4h.3v-.4h.4v-.3h.4v-1.5h.3v-.7m-3.3,4.4l2.2,-1.5l.4,-.4l.4,-.3V792l.3,-.4v-.7h.4v-.4m13.6,63.4v-6.6m8.4,-46.5h-2.2m-9.9,54.6v-.7m-106.7,37.7l-1.9,-2.5l-1.4,-1.5M1085.8,785v0m37.4,99l1.5,-7.3m-89.5,-19.5h-.4l-.4,.4l-2.9,.4l-2.2,.3m90.6,40v-.7l.7,-2.6l.8,-4M1104.8,769.6v0l-.3,-.4m13.2,18h.4v-.4h.3v-1.4l-.3,-.4v-.7l-.4,-.4v-.4m3.7,107.5l.7,-3l.4,-2.2l.3,-1.4l.4,-.4M1021.6,844.8v-.4m94.3,-55V789h.3v-.3l.4,-.4m-15.4,-20.2l-1.1,-.7h-.4m-53.2,27.1l-1.4,-.3m44.7,-31.6h-.4m17.3,52.1l-.4,-.4V814h-.3v-.4h-.4v-.4h-.4m1.1,.8h-.4l-.3,-.8v-.3m-10.3,-47.7v0m31.9,71.1V833m-63.4,-82.5l-.4,-.3h-.4l-.3,-.4m13.5,41.8l.4,-.7h.4v-.4m1.4,-.7h.4l.7,-.8l2.2,-1.4m-28.6,7.3h-.3l-.8,.4h-2.9l-1.1,-.8m-26.4,50.6v-.3m67.5,-62l.7,-.4l.7,-.7m40,19.1h-2.2m-20.1,16.1l-.4,-.4v-.3l-.7,-.8l-.4,-.3v-.4M1006.9,752h.4l1.1,-.7l.7,-.4l5.2,-3.7m78.4,33l2.2,-1.4M1055.3,847l.4,-.4l1.1,-.7l1.8,-1.5l1.1,-1.1l2.2,-1.5l1.1,-.7l1.1,-1.1l.4,-.4l.7,-.7l.8,-.4l1.4,-1.4m-48,-93.5l.4,-.4h.7l.4,-.4h.3l.8,-.3l.7,-.4h.7l1.1,-.4l1.1,-.3l.8,-.4h.7v-.4h.7v-.3h.4l.4,-.4h.3v-.4h.4v-.3h.4m67.1,78.4v.4h-1.9l-.3,-.4h-1.5m-23.5,-22h.4l1.1,-.7l1.1,-.7l.4,-.4l1.1,-.4l.3,-.3m54,-45.5l.3,-.7l.8,-.4v-.4m-7.7,55h-3m8.1,-51.7l.4,-.3l.3,-.8l.4,-.3m-48.1,41v0m-14.6,6.6h-.4m-.4,0h-2.9l-.4,-.3h-2.9m69.7,45.8v-3.7l-.4,-1.1M1085.8,785v0m12.4,-8.4l.8,-.4l.7,-.4l.4,-.3l.7,-.4l.4,-.4h.3v-.3h.8l.7,-.8h.4v-.3h.3v-.8h.4l.4,-1.1v-.7m-9.2,-5.5l-1.5,-.7l-1.4,-.8m31.2,-9.1v-.8l.7,-1.1v-.3l.4,-.4v-.4m2.5,81.4v-.7m-112.6,1.5l-.3,-.4V833l-.4,-.7l-1.8,-2.6l-.8,-.3m83.6,-11.8h-2.2m21,-41.8v-.3l.3,-.8l.4,-.3v-.8h.4v-.3m15.7,-30.8l.8,-1.9m4.7,18.7V759l-.3,-.4h-.4v-.4h-.4v-.3h-.3v-.4h-1.1l-.4,-.4h-.4l-.7,-.3m-70.8,-7.7l-1.5,-.8l-1.1,-.3l-1.4,-.8h-.4m-39.2,159.9V902l.3,-4.1v-1.4l.4,-1.5v-1.5l-.4,-.3v-.4h-.3v-.4m25.3,-148.8l-.8,-.4M1154,775.8l-1.1,-.7l-.4,-.4v-.3h-.3V774h-.4l-.4,-.4M1042.1,743.2h-1.8v-.4m137.9,34.5h-5.5M1017.9,744.7l.8,-.8h.3l.4,-.3h.4l.3,-.4h.4l.4,-.4h.7l.7,-.3h.4l.4,-.4l1.1,-.4h.7l.7,-.3l1.1,-.4h.4l.4,-.4h.3l.4,-.3l.4,-.4m63.8,23.8h-.8m-6.6,21.7h.4m-8.1,-28.3l-1.1,-.7l-1.4,-.7h-.4m51.4,99h-1.1m0,22l.3,-.8v-1.4l.4,-.4v-.7l.4,-.8l-.4,-.3m46.9,23.8l.8,-.7l.3,-.4m-106,-57.9l.4,-.4l.7,-.4l.4,-.3l.4,-.4h.3v-.4h.4v-.3l.4,-.4l.3,-.4l.4,-.7l.7,-1.1l.4,-.4l.4,-.3l.3,-.4l.4,-.4h.4l.3,-.3h.8l.3,-.4h1.1l.4,-.4h1.1v-.3h.7l.4,-.4h.4l.3,-.4h.4v-.3h.4l.3,-.4l.4,-.4l.4,-.3l.3,-.4h.4M1127.6,748l.4,-.4l.3,-.4l.4,-.7m-19.1,74.4l-.3,-1.4l-.4,-1.1V818h-.4v-.7h-.3v-.4m-58.4,-72.2h-.3l-.8,-.4h-.7l-2.6,-.4m126.2,152.6l.7,-.4m-117,-149.2h-1.4m55.7,55l-.3,.3m-77.4,-8.8h-4.1m27.5,53.9l1.9,-1.4l.3,-.4l.8,-.7l.7,-.8l1.1,-.7l.7,-.4l.4,-.3l1.5,-1.5l1.8,-1.5l.7,-.3l.4,-.4l.4,-.4l1.4,-1.1m43,-65.2l-.4,-.4l-.7,-.4l-.8,-.3m-26.4,55.7l.7,-.7l.8,-.8m-1.5,1.5l.4,-.4l.7,-.7l1.1,-1.1M1105.9,770h-.3m67.1,7.3h-.4l-1.1,.4h-8.4m-49.1,-4.1h-.4l-.4,-.3h-.3l-.4,-.4l-.7,-.4l-.8,-.3h-.3m19,-16.5h-.7v-.4h-.4l-.3,-.4h-.4m-14.7,18.4h-.3l-.4,-.4h-.4l-.7,-.4l-1.1,-.3l-.7,-.4l-.8,-.4m42.9,2.2l-.3,-.3h-.4l-.7,-.8l-.4,-.3m-41.1,-1.1l-1.1,-.4L1106,770m-18.4,13.5h.4l1.1,-.7m-12.1,7.7l1.4,-.7m11.4,-27.2v0m31.6,-1.1l1.4,-4.7m26.8,34.1v-.4l.4,-.4v-.3l.3,-.4l.4,-.4m-52.8,28.3h.7v-.4h1.1v-.4h.7l.4,-.3l1.1,-.4l.4,-.7h.3l.4,-.4h.4m16.1,-48.4l.4,-.7l.4,-.8v-.3l.3,-.8l.4,-1.1m7.7,-16.1l.4,-.4v-.3h.3v-.4l.4,-.4v-.3m24.2,36.6v-1.8l.4,-.4v-.3h.3v-.4m-56.1,38.9l.7,-.4h.4l.4,-.4h.7v-.3l.7,-.4l.8,-.4l.3,-.3m2.6,-4.8v-.4l.4,-.7v-1.5l.3,-.7v-1.1l.4,-.4v-.7M1150,790.5v-.7m-131.7,48.7l-1.1,-1.1v-.3l-.4,-.4m152.2,62l.4,-.4l.7,-.4M1014.3,862.7l3.6,-2.2h.4l.4,-.3h.7m70.4,-97.6v0m32.7,66.4l-1.1,.4m5.8,3.6h-1.8v-.3l-.4,-.4v-.7l-.3,-.4v-.7l-.4,-.4l-.4,-.4l-.3,-.3h-.8l-.3,-.4m3.6,-77.4v-1.4h.4v-.8h.4l.3,-.7M1074,793.1l1.5,-1.1h.4v-.4h.3m-11.7,4h-.4m27.2,-14.3l.7,-.3l.7,-.8m32,-28.6l.3,-.3l.4,-.4M1105.6,770l-.8,-.4m20.6,-18.7l.4,-.4v-.3l.3,-.4l.4,-.4m-1.8,105.3h-.4m15.8,-54.3l-1.9,.4h-.7m-50.3,20.9l1.5,-1.1l.4,-.4l.3,-.4l.8,-.3l.3,-.4v-.4h.4v-.3h.7V818h.8l.3,-.4m32.7,-16.5h-1.1M1085,824.2l.4,-.7l.4,-.4l1.4,-1.4M1143.4,767l-.4,-.3l-.4,-.4v-.4h-.3l-.8,-.7l-.7,-.7l-.4,-.8l-.7,-.3l-.4,-.8l-.3,-.3l-.4,-.4l-.4,-.4l-.7,-.7l-.4,-.7h-.3l-.4,-.8h-.4m-1.8,41.5h-1.1m3.3,0h-2.2m19.1,-17.3l.3,-.7v-.4l.4,-.3v-.8m-.4,.8v-.8h.4v-1.1m-116.3,75.6l.8,-.4l.3,-.4l.4,-.3h.7l1.9,-1.1l1.8,-.8m100.9,-50.9h-.4l-.7,-.8h-.4v-.3h-.7l-.4,-.4h-1.8M1014.6,742.1l-.3,-.4l-.4,-.3l-1.8,-2.6l-.4,-.4v-.3h-.4v-.4h-.3l-.4,-.4l-.7,-.3m88,80.3l-.8,.3h-.7v.4h-1.1v-.4h-.4M1015,742.8l-.4,-.7m158.5,35.6h-9.6l-.7,.3h-.7m-33,-22.3h-.4l-.4,-.4h-.3v-.4h-.4v-.3h-.4l-.3,-.4m16.5,12.8l-.4,-.3l-.4,-.4l-.3,-.4l-.4,-.3l-1.1,-1.1l-.7,-.8l-1.5,-1.8l-.4,-.4l-.7,-.7l-.7,-.7M1114,775.5v-.4l.4,-.4v-.3l.4,-.4v-.4l.3,-.3v-.4l.8,-.4m33.3,-.7l-1.1,-.7l-1.8,-1.1l-.7,-.4v-.4h-.4v-.3h-.4l-1.1,-1.1v-.4l-.3,-.4m-16.5,-12.8l-.4,-.4v-.3h-.4v-.4h-.3v-.7h-.4v-1.1l.4,-.4v-.7h.3l.4,-.4v-.4m-111.1,-6.2l-.4,-.4m139.4,33.4l-1.1,-1.1l-.4,-.4l-.4,-.3h-.3l-.4,-.4m-65.3,48.4l1.5,-1.1m25.3,-19.8h-1.8v.4h-.8m3.3,-11h.4v-.4l.7,-.4l.4,-.3l.4,-.4m-95,70.4l-1.5,.4m113.7,-59.4h-.7l-1.9,.3M1088,821.3l.7,-.4l.7,-.7l.4,-.4l.4,-.3v-.4h.3v-.4h.4l.4,-.3h.3l.4,-.4h.7v-.4h.4m16.5,-15.4h-.7m-73.4,55h-1.4l-2.6,.8l-2.2,.3m7.7,-2.2l.7,-.3m46.6,-31.2l.7,-.7l.8,-.4l.7,-1.1m41.1,-67.5v-.3h-.4v-.4h-.3v-.4l-.4,-.3l-.4,-.4l-.3,-.4v-2.2l.3,-.3l.4,-.8h.4v-.3l.3,-.4m-20.9,56.1l.4,-.7l.3,-1.5v-.7m11.4,-.8h-3.6l-.4,.4h-1.1m-100.1,62l1.1,-.8m110,-61.6h-1.8m-99.4,58.3l-1.9,.4h-.3m97.5,-58.7h-2.5l-.4,.4h-2.6m-83.6,56.8l-1.1,.4m77.4,-48.8l.3,-2.5l.4,-1.1v-1.5m16.2,-3.7h-3m3,0h-1.1m-1.9,0h-1.1m21.7,-.3H1139M1151.8,774v-.4h-.4v-.3h-.7v-.4l-.7,-.4l-.4,-.3l-.4,-.4m-17.6,29h-1.1m-19.8,1.1h-1.1m-11,15.4h-.4l-.7,.3h-.7m26.8,-68.9l-.4,-.7v-.8l-.4,-.3l-.3,-.8v-.3l-.4,-.8l-.4,-1.1l-.3,-1.1l-.4,-1.1l-.4,-.7l-.3,-.4v-.3l-.4,-.8v-.3l-.4,-.4v-.4M1013.2,863.5l1.1,-.8m1.4,-119.1l-.7,-.8m132,59.8h-1.8v-.4h-.4l-.3,-.3m-97.6,49.5l3.7,-1.5h.3l1.1,-.4l.4,-.3h.4l.3,-.4h.4l.4,-.4l.3,-.3l1.1,-1.1m73.8,-100.9l.3,-.3v-.4l.4,-.4v-.3l.4,-.4v-.4l.3,-1.4m7,58.3h-1.1m-19.8,-12.5l.4,-.4h.3v-.3l.4,-.4m-5.9,14.3v.4h-.7l-1.5,.3m6.3,-29.7l.3,-.3l.4,-.4l.4,-.4v-.3l.3,-.4v-.4l.8,-.7v-.4l.7,-1.1l.4,-.7V767l.3,-.7m-10.6,35.9h-1.1l-.7,.4m12.4,-36.3l.4,-.7l.4,-.4v-.4l.3,-.3v-.4l.8,-2.6m10.2,-4.7l-2.2,-.8l-.3,-.3M1173.4,895h.4l.4,-.4l.3,-.3l.4,-.4l.4,-.4h.3l.4,-.3l.4,-.4l.3,-.4l1.5,-1.1m-13.6,11l1.1,-.7l.4,-.4l1.8,-1.8" class="gl_56"/>
</g>
<path d="M1055.3,781v.3h.4v.4h.4v.7h.3v.4h.4v.7h.4v.4h.3v.7h.4v.8h.4v.3h.3v.4h.4h-.4v.4h.4v.3h.4v.8h.3v.3l.4,.4v.4h.4v.3l.3,.4v.4h.4v.7h.4v.4h.3v.7h.4v.4h.4v.7h.3v.4h.4v.3h.7v.4h.4v.4h.4v.7h.3v.7h-.3v.4h.3v.4h.4v.7h.4v.7h.3v1.5l.4,.4v.3h.4v.8h.3v.3h.4v.8h.4v.7h.3h-.3v.4l-.4,.3v.4h-.4v.4l-.3,.3v.4h-.4v1.1h.4v.7h.3v.8h.4v.3l.4,.4v.4h.3v.7h.4v.7h.4v.8h.7v.3h.4v.8h.3v.3h.4v.4h.4v.7h.3v.4h.4v.4h2.9v.3h1.9v.4h.3v.4h.8v.7h.3v.7h.4v.4h.4v.4h-.4l.4,.3v.4h.7v.4h.4v.7h.3v.7h.4v.4h.4v.7h.3v.8h.4v.3h.4v.8h.3v.3h.4v.8h.4v.3l.3,.4v.4h.4v.7h.4v.4l.3,.3v.4h.4v.7h.4v.4h.3v.7h.4v.4h.4v.4h.3v.3h.4v.4h.7l.4,.4h.7v.3h1.5v-.3h2.9v.3h.4v.4h.7v.4h.4v.7h.4v.4l.3,.3l.4,.4l.4,-.4h1.4v-.3h1.5v-.4h1.1v-.4h.4l.3,-.3h.4v-.4h.4l.3,-.4h.4v-.3h4.1v.3h1.1v-.3h2.5v-.4h2.2l.4,-.4h7v-.3h3.3v.3h.3v.4h.4v.7h.4v1.1h2.2v.4h2.2v-1.1h.3v-.7h-.3h.3v-1.1h1.5V829h7.7l.4,-.4h3.3v-.3h.3" class="gm_56"/>
<path d="M1055.3,781v.3h.4v.4h.4v.7h.3v.4h.4v.7h.4v.4h.3v.7h.4v.8h.4v.3h.3v.4h.4h-.4v.4h.4v.3h.4v.8h.3v.3l.4,.4v.4h.4v.3l.3,.4v.4h.4v.7h.4v.4h.3v.7h.4v.4h.4v.7h.3v.4h.4v.3h.7v.4h.4v.4h.4v.7h.3v.7h-.3v.4h.3v.4h.4v.7h.4v.7h.3v1.5l.4,.4v.3h.4v.8h.3v.3h.4v.8h.4v.7h.3h-.3v.4l-.4,.3v.4h-.4v.4l-.3,.3v.4h-.4v1.1h.4v.7h.3v.8h.4v.3l.4,.4v.4h.3v.7h.4v.7h.4v.8h.7v.3h.4v.8h.3v.3h.4v.4h.4v.7h.3v.4h.4v.4h2.9v.3h1.9v.4h.3v.4h.8v.7h.3v.7h.4v.4h.4v.4h-.4l.4,.3v.4h.7v.4h.4v.7h.3v.7h.4v.4h.4v.7h.3v.8h.4v.3h.4v.8h.3v.3h.4v.8h.4v.3l.3,.4v.4h.4v.7h.4v.4l.3,.3v.4h.4v.7h.4v.4h.3v.7h.4v.4h.4v.4h.3v.3h.4v.4h.7l.4,.4h.7v.3h1.5v-.3h2.9v.3h.4v.4h.7v.4h.4v.7h.4v.4l.3,.3l.4,.4l.4,-.4h1.4v-.3h1.5v-.4h1.1v-.4h.4l.3,-.3h.4v-.4h.4l.3,-.4h.4v-.3h4.1v.3h1.1v-.3h2.5v-.4h2.2l.4,-.4h7v-.3h3.3v.3h.3v.4h.4v.7h.4v1.1h2.2v.4h2.2v-1.1h.3v-.7h-.3h.3v-1.1h1.5V829h7.7l.4,-.4h3.3v-.3h.3" class="gn_56"/>
<path d="M1055.3,781v.3h.4v.4h.4v.7h.3v.4h.4v.7h.4v.4h.3v.7h.4v.8h.4v.3h.3v.4h.4h-.4v.4h.4v.3h.4v.8h.3v.3l.4,.4v.4h.4v.3l.3,.4v.4h.4v.7h.4v.4h.3v.7h.4v.4h.4v.7h.3v.4h.4v.3h.7v.4h.4v.4h.4v.7h.3v.7h-.3v.4h.3v.4h.4v.7h.4v.7h.3v1.5l.4,.4v.3h.4v.8h.3v.3h.4v.8h.4v.7h.3h-.3v.4l-.4,.3v.4h-.4v.4l-.3,.3v.4h-.4v1.1h.4v.7h.3v.8h.4v.3l.4,.4v.4h.3v.7h.4v.7h.4v.8h.7v.3h.4v.8h.3v.3h.4v.4h.4v.7h.3v.4h.4v.4h2.9v.3h1.9v.4h.3v.4h.8v.7h.3v.7h.4v.4h.4v.4h-.4l.4,.3v.4h.7v.4h.4v.7h.3v.7h.4v.4h.4v.7h.3v.8h.4v.3h.4v.8h.3v.3h.4v.8h.4v.3l.3,.4v.4h.4v.7h.4v.4l.3,.3v.4h.4v.7h.4v.4h.3v.7h.4v.4h.4v.4h.3v.3h.4v.4h.7l.4,.4h.7v.3h1.5v-.3h2.9v.3h.4v.4h.7v.4h.4v.7h.4v.4l.3,.3l.4,.4l.4,-.4h1.4v-.3h1.5v-.4h1.1v-.4h.4l.3,-.3h.4v-.4h.4l.3,-.4h.4v-.3h4.1v.3h1.1v-.3h2.5v-.4h2.2l.4,-.4h7v-.3h3.3v.3h.3v.4h.4v.7h.4v1.1h2.2v.4h2.2v-1.1h.3v-.7h-.3h.3v-1.1h1.5V829h7.7l.4,-.4h3.3v-.3h.3" class="go_56"/>
<path d="M1055.3,781v.3h.4v.4h.4v.7h.3v.4h.4v.7h.4v.4h.3v.7h.4v.8h.4v.3h.3v.4h.4h-.4v.4h.4v.3h.4v.8h.3v.3l.4,.4v.4h.4v.3l.3,.4v.4h.4v.7h.4v.4h.3v.7h.4v.4h.4v.7h.3v.4h.4v.3h.7v.4h.4v.4h.4v.7h.3v.7h-.3v.4h.3v.4h.4v.7h.4v.7h.3v1.5l.4,.4v.3h.4v.8h.3v.3h.4v.8h.4v.7h.3h-.3v.4l-.4,.3v.4h-.4v.4l-.3,.3v.4h-.4v1.1h.4v.7h.3v.8h.4v.3l.4,.4v.4h.3v.7h.4v.7h.4v.8h.7v.3h.4v.8h.3v.3h.4v.4h.4v.7h.3v.4h.4v.4h2.9v.3h1.9v.4h.3v.4h.8v.7h.3v.7h.4v.4h.4v.4h-.4l.4,.3v.4h.7v.4h.4v.7h.3v.7h.4v.4h.4v.7h.3v.8h.4v.3h.4v.8h.3v.3h.4v.8h.4v.3l.3,.4v.4h.4v.7h.4v.4l.3,.3v.4h.4v.7h.4v.4h.3v.7h.4v.4h.4v.4h.3v.3h.4v.4h.7l.4,.4h.7v.3h1.5v-.3h2.9v.3h.4v.4h.7v.4h.4v.7h.4v.4l.3,.3l.4,.4l.4,-.4h1.4v-.3h1.5v-.4h1.1v-.4h.4l.3,-.3h.4v-.4h.4l.3,-.4h.4v-.3h4.1v.3h1.1v-.3h2.5v-.4h2.2l.4,-.4h7v-.3h3.3v.3h.3v.4h.4v.7h.4v1.1h2.2v.4h2.2v-1.1h.3v-.7h-.3h.3v-1.1h1.5V829h7.7l.4,-.4h3.3v-.3h.3" class="gp_56"/>
<path fill-rule="evenodd" d="M1128,784.6c0,-1.6,-1.4,-2.9,-3,-2.9c-1.6,0,-2.9,1.3,-2.9,2.9c0,1.6,1.3,3,2.9,3c1.6,0,3,-1.4,3,-3Z" class="gq_56"/>
<path d="M1131.6,831.6l-4,1.4l-1.1,-2.9l4,-1.5l1.1,3M1064.5,800l4.4,-1.8l1.1,3.3l-4.4,1.5l-1.1,-3m11,14.7l4.4,-1.5l1.1,3.3l-4.4,1.5l-1.1,-3.3m63.8,13.2l4.1,-1.5l1.1,3l-4.1,1.4l-1.1,-2.9m-73.7,-20.2l4,-1.4l1.5,3.3l-4.4,1.4l-1.1,-3.3m26,22l4.1,-1.4l1.1,2.9l-4.1,1.8l-1.1,-3.3m-20.1,-16.5l4,-1.4l1.1,3.3l-4,1.4l-1.1,-3.3" class="gr_56"/>
<path d="M1131.6,831.6l-.3,.3h-1.1v.4h-.8l-.3,.4h-.8v.3h-.7l-.4,-.3v-.8l-.3,-.3v-.8h-.4v-1.1h1.1v-.3h.7l.4,-.4h.7l.4,-.4h.7l.4,.4v.7h.4v1.1l.3,.4v.4" class="gs_56"/>
<path d="M1046.5,882.2l.4,1.8l1.1,1.5l1.1,1.1h3.3l1.5,-1.1l.7,-1.5l.4,-1.8l-.4,-1.9l-.7,-1.4l-1.5,-1.1l-1.5,-.4l-1.8,.4l-1.1,1.1l-.7,1.1l-.4,1.1l-.4,1.1m1.9,0v-1.5l.7,-1.1l.7,-.4l1.1,-.3l.8,.3l1.1,.4l.3,1.1v2.9l-.3,.8l-1.1,.7h-1.9l-.7,-.7l-.7,-.8v-1.4m8.4,4.4h1.8v-5.9l3.7,5.9h1.5v-8.8h-1.5v5.8l-3.7,-5.8h-1.8v8.8m11.7,0h1.5v-7.4h2.6v-1.4H1066v1.4h2.5v7.4m12.5,0l-2.9,-8.8h-1.9l-3.3,8.8h1.9l.7,-2.2h3.3l.7,2.2h1.5m-2.9,-3.7h-2.2L1077,880l1.1,2.9m5.1,3.7h1.8v-3.7h1.5l.4,.4l.3,.3l.8,.8l1.4,2.2h1.9l-1.1,-1.9l-.8,-.7l-.3,-.7l-.8,-.8l1.1,-.3l.4,-.4l.7,-.7v-1.5l-.3,-.7l-.4,-.8h-.7l-.8,-.3h-5.1v8.8m1.8,-5.2v-2.2h3l.7,.4v1.5l-.7,.3h-3m7.7,5.2h1.9v-8.8h-1.9v8.8m3.7,-4.4l.4,1.8l.7,1.5l1.5,1.1h3.3l1.5,-1.1l.7,-1.5l.4,-1.8l-.4,-1.9l-.7,-1.4l-1.5,-1.1l-1.5,-.4l-1.8,.4l-1.1,1.1l-1.1,1.1v1.1l-.4,1.1m1.9,0v-1.5l.7,-1.1l.7,-.4l1.1,-.3l.8,.3l.7,.4l.7,1.1v2.9l-.7,.8l-.7,.7h-1.9l-.7,-.7l-.7,-.8v-1.4" class="gt_56"/>
<path d="M1085.8,780.6v-5.9h-1.1v2.2h-2.2v-2.2h-1.1v5.9h1.1V778h2.2v2.6h1.1m5.1,0v-3.7l-.4,-.3l-.3,-.4h-1.9l-.3,.4h-.4v.7h1.1l.4,-.4l.3,.4h.4v.7h-1.1l-.7,.4l-.4,.4l-.4,.7l.4,.4v.7h.7l.4,.4l.7,-.4l.8,-.4v.4h.7m-1.1,-1.8v.7l-.4,.4h-.7l-.4,-.4l.4,-.4v-.3h1.1m9.5,1.8v-3.3l-.3,-.7l-.4,-.4h-.7l-.4,.4h-.4l-.3,.3l-.4,-.3l-.4,-.4h-.7l-.7,.4l-.8,.3v-.3l-.3,-.4l-.4,.4v4h1.1v-2.9l.4,-.4l.3,-.4l.4,.4h.4v3.3h1.1v-2.9l.7,-.4l.4,-.4v.4h.3v3.3h1.1m3,0v-4h-.4l-.4,-.4v.4h-.3v4h1.1m0,-5.5v-.4h-1.1v1.1h1.1v-.7m2.9,5.5v-6.2h-1.1v6.2h1.1m4,-.4v-.3h-.7l-.4,-.8v-1.8h1.1v-1.1h-1.1v-.7l-.3,-.4l-.4,.4h-.4v.7h-.3v1.1h.3v2.2l.4,.4v.7h.4l.7,.4l.4,-.4h.3v-.4m5.9,-1.8l-.4,-.7l-.3,-.8l-.4,-.7h-1.8l-.8,.7l-.3,.8l-.4,.7l.4,1.1l.3,.7l.4,.4l1.1,.4l.7,-.4l.8,-.4l.3,-.7l.4,-1.1m-1.1,0v.7l-.4,.4l-.3,.4h-.8l-.3,-.4l-.4,-.4V778l.4,-.3l.3,-.4l.4,-.4l.4,.4l.3,.4l.4,.3v.4m6.3,2.2v-3.3l-.4,-.7l-.4,-.4h-.7l-.7,.4l-.8,.3v-.3l-.4,-.4l-.3,.4v4h1.1v-2.9l.4,-.4l.3,-.4l.4,.4h.4v3.3h1.1" class="gu_56"/>
<path d="M1015,821.3V743.2h159.5V899.4H1015V821.3" class="gv_56"/>
<image preserveAspectRatio="none" x="1017" y="80" width="156" height="35" xlink:href="img/4.png"/>
<path d="M1018.3,555.5v-9.6h21.3v9.6h-21.3" class="gw_56"/>
<path d="M1017.9,507.1h22" class="gx_56"/>
<path d="M1017.9,507.1h7.7m7.7,0h6.6" class="gy_56"/>
<path d="M1017.9,485.4h7.7m3,0h7.7m2.9,0h.7" class="g2_56"/>
<path d="M1017.9,463.8h22" class="gz_56"/>
<path d="M1017.9,440.7h22" class="g10_56"/>
<image preserveAspectRatio="none" x="1037" y="629" width="119" height="33" xlink:href="img/5.png"/>
<path d="M1017.9,408.8h22" class="g7_56"/>
<path d="M1017.9,408.8h22" class="g11_56"/>
<path d="M1017.9,366.6h22" class="g7_56"/>
<path d="M1017.9,366.6h22" class="g12_56"/>
<path d="M1018.3,533.8v-9.9h21.3v9.9h-21.3" class="g13_56"/>
</svg>