<?xml version="1.0" encoding="UTF-8" standalone="no"?>
<!DOCTYPE svg PUBLIC "-//W3C//DTD SVG 1.1//EN"
"http://www.w3.org/Graphics/SVG/1.1/DTD/svg11.dtd">
<svg viewBox="0 0 1210 935" version="1.1" xmlns="http://www.w3.org/2000/svg" xmlns:xlink="http://www.w3.org/1999/xlink">
<defs>
<style type="text/css"><![CDATA[
.g0_14{
}
]]></style>
</defs>
<path d="M110,111.1H219.1v-.7H110v.7Z" class="g0_14"/>
<path d="M219.1,111.1h.7v-.7h-.7v.7Z" class="g0_14"/>
<path d="M219.8,111.1H393.6v-.7H219.8v.7Z" class="g0_14"/>
<path d="M393.6,111.1h.8v-.7h-.8v.7Z" class="g0_14"/>
<path d="M394.3,111.1h63.9v-.7H394.3v.7Z" class="g0_14"/>
<path d="M458.2,111.1h.7v-.7h-.7v.7Z" class="g0_14"/>
<path d="M458.9,111.1h89.6v-.7H458.9v.7Z" class="g0_14"/>
<path d="M548.5,111.1h.8v-.7h-.8v.7Z" class="g0_14"/>
<path d="M549.3,111.1H779.9v-.7H549.3v.7Z" class="g0_14"/>
<path d="M779.9,111.1h.7v-.7h-.7v.7Z" class="g0_14"/>
<path d="M780.6,111.1H884.2v-.7H780.6v.7Z" class="g0_14"/>
<path d="M884.2,111.1h.7v-.7h-.7v.7Z" class="g0_14"/>
<path d="M884.9,111.1h137.4v-.7H884.9v.7Z" class="g0_14"/>
<path d="M1022.3,111.1h.7v-.7h-.7v.7Z" class="g0_14"/>
<path d="M1023,111.1h77v-.7h-77v.7Z" class="g0_14"/>
<path d="M110,191.2H219.1v-.7H110v.7Z" class="g0_14"/>
<path d="M219.1,191.2h.7v-.7h-.7v.7Z" class="g0_14"/>
<path d="M219.8,191.2H393.6v-.7H219.8v.7Z" class="g0_14"/>
<path d="M393.6,191.2h.8v-.7h-.8v.7Z" class="g0_14"/>
<path d="M394.3,191.2h63.9v-.7H394.3v.7Z" class="g0_14"/>
<path d="M458.2,191.2h.7v-.7h-.7v.7Z" class="g0_14"/>
<path d="M458.9,191.2h89.6v-.7H458.9v.7Z" class="g0_14"/>
<path d="M548.5,191.2h.8v-.7h-.8v.7Z" class="g0_14"/>
<path d="M549.3,191.2H779.9v-.7H549.3v.7Z" class="g0_14"/>
<path d="M779.9,191.2h.7v-.7h-.7v.7Z" class="g0_14"/>
<path d="M780.6,191.2H884.2v-.7H780.6v.7Z" class="g0_14"/>
<path d="M884.2,191.2h.7v-.7h-.7v.7Z" class="g0_14"/>
<path d="M884.9,191.2h137.4v-.7H884.9v.7Z" class="g0_14"/>
<path d="M1022.3,191.2h.7v-.7h-.7v.7Z" class="g0_14"/>
<path d="M1023,191.2h77v-.7h-77v.7Z" class="g0_14"/>
<path d="M219.1,288H393.6v-.7H219.1v.7Z" class="g0_14"/>
<path d="M393.6,288h.8v-.7h-.8v.7Z" class="g0_14"/>
<path d="M394.3,288h63.9v-.7H394.3v.7Z" class="g0_14"/>
<path d="M458.2,288h.7v-.7h-.7v.7Z" class="g0_14"/>
<path d="M458.9,288h89.6v-.7H458.9v.7Z" class="g0_14"/>
<path d="M548.5,288h.8v-.7h-.8v.7Z" class="g0_14"/>
<path d="M549.3,288H779.9v-.7H549.3v.7Z" class="g0_14"/>
<path d="M779.9,288h.7v-.7h-.7v.7Z" class="g0_14"/>
<path d="M780.6,288H884.2v-.7H780.6v.7Z" class="g0_14"/>
<path d="M884.2,288h.7v-.7h-.7v.7Z" class="g0_14"/>
<path d="M884.9,288h137.4v-.7H884.9v.7Z" class="g0_14"/>
<path d="M1022.3,288h.7v-.7h-.7v.7Z" class="g0_14"/>
<path d="M1023,288h77v-.7h-77v.7Z" class="g0_14"/>
<path d="M219.1,368.1H393.6v-.7H219.1v.7Z" class="g0_14"/>
<path d="M393.6,368.1h.8v-.7h-.8v.7Z" class="g0_14"/>
<path d="M394.3,368.1h63.9v-.7H394.3v.7Z" class="g0_14"/>
<path d="M458.2,368.1h.7v-.7h-.7v.7Z" class="g0_14"/>
<path d="M458.9,368.1h89.6v-.7H458.9v.7Z" class="g0_14"/>
<path d="M548.5,368.1h.8v-.7h-.8v.7Z" class="g0_14"/>
<path d="M549.3,368.1H779.9v-.7H549.3v.7Z" class="g0_14"/>
<path d="M779.9,368.1h.7v-.7h-.7v.7Z" class="g0_14"/>
<path d="M780.6,368.1H884.2v-.7H780.6v.7Z" class="g0_14"/>
<path d="M884.2,368.1h.7v-.7h-.7v.7Z" class="g0_14"/>
<path d="M884.9,368.1h137.4v-.7H884.9v.7Z" class="g0_14"/>
<path d="M1022.3,368.1h.7v-.7h-.7v.7Z" class="g0_14"/>
<path d="M1023,368.1h77v-.7h-77v.7Z" class="g0_14"/>
<path d="M110,498.7H219.1v-.8H110v.8Z" class="g0_14"/>
<path d="M219.1,498.7h.7v-.8h-.7v.8Z" class="g0_14"/>
<path d="M219.8,498.7H393.6v-.8H219.8v.8Z" class="g0_14"/>
<path d="M393.6,498.7h.8v-.8h-.8v.8Z" class="g0_14"/>
<path d="M394.3,498.7h63.9v-.8H394.3v.8Z" class="g0_14"/>
<path d="M458.2,498.7h.7v-.8h-.7v.8Z" class="g0_14"/>
<path d="M458.9,498.7h89.6v-.8H458.9v.8Z" class="g0_14"/>
<path d="M548.5,498.7h.8v-.8h-.8v.8Z" class="g0_14"/>
<path d="M549.3,498.7H779.9v-.8H549.3v.8Z" class="g0_14"/>
<path d="M779.9,498.7h.7v-.8h-.7v.8Z" class="g0_14"/>
<path d="M780.6,498.7H884.2v-.8H780.6v.8Z" class="g0_14"/>
<path d="M884.2,498.7h.7v-.8h-.7v.8Z" class="g0_14"/>
<path d="M884.9,498.7h137.4v-.8H884.9v.8Z" class="g0_14"/>
<path d="M1022.3,498.7h.7v-.8h-.7v.8Z" class="g0_14"/>
<path d="M1023,498.7h77v-.8h-77v.8Z" class="g0_14"/>
<path d="M108.9,713.2H219.1v-.8H108.9v.8Z" class="g0_14"/>
<path d="M218,713.2h.7v-.8H218v.8Z" class="g0_14"/>
<path d="M218.7,713.2H393.6v-.8H218.7v.8Z" class="g0_14"/>
<path d="M392.5,713.2h.8v-.8h-.8v.8Z" class="g0_14"/>
<path d="M393.2,713.2h65v-.8h-65v.8Z" class="g0_14"/>
<path d="M457.1,713.2h.7v-.8h-.7v.8Z" class="g0_14"/>
<path d="M457.8,713.2h90.7v-.8H457.8v.8Z" class="g0_14"/>
<path d="M547.4,713.2h.8v-.8h-.8v.8Z" class="g0_14"/>
<path d="M548.2,713.2H779.9v-.8H548.2v.8Z" class="g0_14"/>
<path d="M778.8,713.2h.7v-.8h-.7v.8Z" class="g0_14"/>
<path d="M779.5,713.2H884.2v-.8H779.5v.8Z" class="g0_14"/>
<path d="M883.1,713.2h.7v-.8h-.7v.8Z" class="g0_14"/>
<path d="M883.9,713.2h138.4v-.8H883.9v.8Z" class="g0_14"/>
<path d="M1021.2,713.2h.7v-.8h-.7v.8Z" class="g0_14"/>
<path d="M1021.9,713.2H1100v-.8h-78.1v.8Z" class="g0_14"/>
</svg>