<?xml version="1.0" encoding="UTF-8" standalone="no"?>
<!DOCTYPE svg PUBLIC "-//W3C//DTD SVG 1.1//EN"
"http://www.w3.org/Graphics/SVG/1.1/DTD/svg11.dtd">
<svg viewBox="0 0 935 1210" version="1.1" xmlns="http://www.w3.org/2000/svg" xmlns:xlink="http://www.w3.org/1999/xlink">
<defs>
<style type="text/css"><![CDATA[
.g0_31{
}
]]></style>
</defs>
<path d="M110,111.1h75.7v-.7H110v.7Z" class="g0_31"/>
<path d="M185.7,111.1h.8v-.7h-.8v.7Z" class="g0_31"/>
<path d="M186.5,111.1h74.8v-.7H186.5v.7Z" class="g0_31"/>
<path d="M261.3,111.1h.7v-.7h-.7v.7Z" class="g0_31"/>
<path d="M262,111.1h95.5v-.7H262v.7Z" class="g0_31"/>
<path d="M357.5,111.1h.7v-.7h-.7v.7Z" class="g0_31"/>
<path d="M358.2,111.1H825v-.7H358.2v.7Z" class="g0_31"/>
<path d="M365.7,162.4H481.6v-.9H365.7v.9Z" class="g0_31"/>
<path d="M365.7,376h53.2v-.9H365.7v.9Z" class="g0_31"/>
<path d="M365.7,472.1h61.5v-.9H365.7v.9Z" class="g0_31"/>
<path d="M365.7,601.9H610.3V601H365.7v.9Z" class="g0_31"/>
<path d="M110,140.8h75.7v-.7H110v.7Z" class="g0_31"/>
<path d="M185.7,140.8h.8v-.7h-.8v.7Z" class="g0_31"/>
<path d="M186.5,140.8h74.8v-.7H186.5v.7Z" class="g0_31"/>
<path d="M261.3,140.8h.7v-.7h-.7v.7Z" class="g0_31"/>
<path d="M262,140.8h95.5v-.7H262v.7Z" class="g0_31"/>
<path d="M357.5,140.8h.7v-.7h-.7v.7Z" class="g0_31"/>
<path d="M358.2,140.8H825v-.7H358.2v.7Z" class="g0_31"/>
<path d="M365.7,828.5H520.1v-.9H365.7v.9Z" class="g0_31"/>
<path d="M365.7,941.4H481.6v-.9H365.7v.9Z" class="g0_31"/>
<path d="M110,733.7h75.7V733H110v.7Z" class="g0_31"/>
<path d="M185.7,733.7h.8V733h-.8v.7Z" class="g0_31"/>
<path d="M186.5,733.7h74.8V733H186.5v.7Z" class="g0_31"/>
<path d="M261.3,733.7h.7V733h-.7v.7Z" class="g0_31"/>
<path d="M262,733.7h95.5V733H262v.7Z" class="g0_31"/>
<path d="M357.5,733.7h.7V733h-.7v.7Z" class="g0_31"/>
<path d="M358.2,733.7H825V733H358.2v.7Z" class="g0_31"/>
<path d="M108.9,1090.1h76.8v-.7H108.9v.7Z" class="g0_31"/>
<path d="M184.6,1090.1h.8v-.7h-.8v.7Z" class="g0_31"/>
<path d="M185.4,1090.1h75.9v-.7H185.4v.7Z" class="g0_31"/>
<path d="M260.2,1090.1h.7v-.7h-.7v.7Z" class="g0_31"/>
<path d="M260.9,1090.1h96.6v-.7H260.9v.7Z" class="g0_31"/>
<path d="M356.4,1090.1h.7v-.7h-.7v.7Z" class="g0_31"/>
<path d="M357.1,1090.1H825v-.7H357.1v.7Z" class="g0_31"/>
</svg>