<?xml version="1.0" encoding="UTF-8" standalone="no"?>
<!DOCTYPE svg PUBLIC "-//W3C//DTD SVG 1.1//EN"
"http://www.w3.org/Graphics/SVG/1.1/DTD/svg11.dtd">
<svg viewBox="0 0 1210 935" version="1.1" xmlns="http://www.w3.org/2000/svg" xmlns:xlink="http://www.w3.org/1999/xlink">
<defs>
<style type="text/css"><![CDATA[
.g0_17{
}
]]></style>
</defs>
<path d="M110,111.1H219.1v-.7H110v.7Z" class="g0_17"/>
<path d="M219.1,111.1h.7v-.7h-.7v.7Z" class="g0_17"/>
<path d="M219.8,111.1H393.6v-.7H219.8v.7Z" class="g0_17"/>
<path d="M393.6,111.1h.8v-.7h-.8v.7Z" class="g0_17"/>
<path d="M394.3,111.1h63.9v-.7H394.3v.7Z" class="g0_17"/>
<path d="M458.2,111.1h.7v-.7h-.7v.7Z" class="g0_17"/>
<path d="M458.9,111.1h89.6v-.7H458.9v.7Z" class="g0_17"/>
<path d="M548.5,111.1h.8v-.7h-.8v.7Z" class="g0_17"/>
<path d="M549.3,111.1H779.9v-.7H549.3v.7Z" class="g0_17"/>
<path d="M779.9,111.1h.7v-.7h-.7v.7Z" class="g0_17"/>
<path d="M780.6,111.1H884.2v-.7H780.6v.7Z" class="g0_17"/>
<path d="M884.2,111.1h.7v-.7h-.7v.7Z" class="g0_17"/>
<path d="M884.9,111.1h137.4v-.7H884.9v.7Z" class="g0_17"/>
<path d="M1022.3,111.1h.7v-.7h-.7v.7Z" class="g0_17"/>
<path d="M1023,111.1h77v-.7h-77v.7Z" class="g0_17"/>
<path d="M110,191.2H219.1v-.7H110v.7Z" class="g0_17"/>
<path d="M219.1,191.2h.7v-.7h-.7v.7Z" class="g0_17"/>
<path d="M219.8,191.2H393.6v-.7H219.8v.7Z" class="g0_17"/>
<path d="M393.6,191.2h.8v-.7h-.8v.7Z" class="g0_17"/>
<path d="M394.3,191.2h63.9v-.7H394.3v.7Z" class="g0_17"/>
<path d="M458.2,191.2h.7v-.7h-.7v.7Z" class="g0_17"/>
<path d="M458.9,191.2h89.6v-.7H458.9v.7Z" class="g0_17"/>
<path d="M548.5,191.2h.8v-.7h-.8v.7Z" class="g0_17"/>
<path d="M549.3,191.2H779.9v-.7H549.3v.7Z" class="g0_17"/>
<path d="M779.9,191.2h.7v-.7h-.7v.7Z" class="g0_17"/>
<path d="M780.6,191.2H884.2v-.7H780.6v.7Z" class="g0_17"/>
<path d="M884.2,191.2h.7v-.7h-.7v.7Z" class="g0_17"/>
<path d="M884.9,191.2h137.4v-.7H884.9v.7Z" class="g0_17"/>
<path d="M1022.3,191.2h.7v-.7h-.7v.7Z" class="g0_17"/>
<path d="M1023,191.2h77v-.7h-77v.7Z" class="g0_17"/>
<path d="M219.1,237.8H393.6v-.7H219.1v.7Z" class="g0_17"/>
<path d="M393.6,237.8h.8v-.7h-.8v.7Z" class="g0_17"/>
<path d="M394.3,237.8h63.9v-.7H394.3v.7Z" class="g0_17"/>
<path d="M458.2,237.8h.7v-.7h-.7v.7Z" class="g0_17"/>
<path d="M458.9,237.8h89.6v-.7H458.9v.7Z" class="g0_17"/>
<path d="M548.5,237.8h.8v-.7h-.8v.7Z" class="g0_17"/>
<path d="M549.3,237.8H779.9v-.7H549.3v.7Z" class="g0_17"/>
<path d="M779.9,237.8h.7v-.7h-.7v.7Z" class="g0_17"/>
<path d="M780.6,237.8H884.2v-.7H780.6v.7Z" class="g0_17"/>
<path d="M884.2,237.8h.7v-.7h-.7v.7Z" class="g0_17"/>
<path d="M884.9,237.8h137.4v-.7H884.9v.7Z" class="g0_17"/>
<path d="M1022.3,237.8h.7v-.7h-.7v.7Z" class="g0_17"/>
<path d="M1023,237.8h77v-.7h-77v.7Z" class="g0_17"/>
<path d="M219.1,385H393.6v-.7H219.1v.7Z" class="g0_17"/>
<path d="M393.6,385h.8v-.7h-.8v.7Z" class="g0_17"/>
<path d="M394.3,385h63.9v-.7H394.3v.7Z" class="g0_17"/>
<path d="M458.2,385h.7v-.7h-.7v.7Z" class="g0_17"/>
<path d="M458.9,385h89.6v-.7H458.9v.7Z" class="g0_17"/>
<path d="M548.5,385h.8v-.7h-.8v.7Z" class="g0_17"/>
<path d="M549.3,385H779.9v-.7H549.3v.7Z" class="g0_17"/>
<path d="M779.9,385h.7v-.7h-.7v.7Z" class="g0_17"/>
<path d="M780.6,385H884.2v-.7H780.6v.7Z" class="g0_17"/>
<path d="M884.2,385h.7v-.7h-.7v.7Z" class="g0_17"/>
<path d="M884.9,385h137.4v-.7H884.9v.7Z" class="g0_17"/>
<path d="M1022.3,385h.7v-.7h-.7v.7Z" class="g0_17"/>
<path d="M1023,385h77v-.7h-77v.7Z" class="g0_17"/>
<path d="M219.1,465.1H393.6v-.7H219.1v.7Z" class="g0_17"/>
<path d="M393.6,465.1h.8v-.7h-.8v.7Z" class="g0_17"/>
<path d="M394.3,465.1h63.9v-.7H394.3v.7Z" class="g0_17"/>
<path d="M458.2,465.1h.7v-.7h-.7v.7Z" class="g0_17"/>
<path d="M458.9,465.1h89.6v-.7H458.9v.7Z" class="g0_17"/>
<path d="M548.5,465.1h.8v-.7h-.8v.7Z" class="g0_17"/>
<path d="M549.3,465.1H779.9v-.7H549.3v.7Z" class="g0_17"/>
<path d="M779.9,465.1h.7v-.7h-.7v.7Z" class="g0_17"/>
<path d="M780.6,465.1H884.2v-.7H780.6v.7Z" class="g0_17"/>
<path d="M884.2,465.1h.7v-.7h-.7v.7Z" class="g0_17"/>
<path d="M884.9,465.1h137.4v-.7H884.9v.7Z" class="g0_17"/>
<path d="M1022.3,465.1h.7v-.7h-.7v.7Z" class="g0_17"/>
<path d="M1023,465.1h77v-.7h-77v.7Z" class="g0_17"/>
<path d="M110,797.1H219.1v-.7H110v.7Z" class="g0_17"/>
<path d="M219.1,797.1h.7v-.7h-.7v.7Z" class="g0_17"/>
<path d="M219.8,797.1H393.6v-.7H219.8v.7Z" class="g0_17"/>
<path d="M393.6,797.1h.8v-.7h-.8v.7Z" class="g0_17"/>
<path d="M394.3,797.1h63.9v-.7H394.3v.7Z" class="g0_17"/>
<path d="M458.2,797.1h.7v-.7h-.7v.7Z" class="g0_17"/>
<path d="M458.9,797.1h89.6v-.7H458.9v.7Z" class="g0_17"/>
<path d="M548.5,797.1h.8v-.7h-.8v.7Z" class="g0_17"/>
<path d="M549.3,797.1H779.9v-.7H549.3v.7Z" class="g0_17"/>
<path d="M779.9,797.1h.7v-.7h-.7v.7Z" class="g0_17"/>
<path d="M780.6,797.1H884.2v-.7H780.6v.7Z" class="g0_17"/>
<path d="M884.2,797.1h.7v-.7h-.7v.7Z" class="g0_17"/>
<path d="M884.9,797.1h137.4v-.7H884.9v.7Z" class="g0_17"/>
<path d="M1022.3,797.1h.7v-.7h-.7v.7Z" class="g0_17"/>
<path d="M1023,797.1h77v-.7h-77v.7Z" class="g0_17"/>
</svg>