<?xml version="1.0" encoding="UTF-8" standalone="no"?>
<!DOCTYPE svg PUBLIC "-//W3C//DTD SVG 1.1//EN"
"http://www.w3.org/Graphics/SVG/1.1/DTD/svg11.dtd">
<svg viewBox="0 0 1210 935" version="1.1" xmlns="http://www.w3.org/2000/svg" xmlns:xlink="http://www.w3.org/1999/xlink">
<defs>
<clipPath id="c0_54"><path d="M60.1,879.2V88.7H993.7V879.2Z"/></clipPath>
<clipPath id="c1_54"><path d="M1015,899.8V743.2h159.9V899.8Z"/></clipPath>
<style type="text/css"><![CDATA[
.g0_54{
fill: none;
stroke: #000000;
stroke-width: 1.466;
stroke-linecap: square;
stroke-linejoin: miter;
}
.g1_54{
fill: none;
stroke: #FFFFFF;
stroke-width: 0.733;
stroke-linecap: round;
stroke-linejoin: round;
}
.g2_54{
fill: none;
stroke: #894444;
stroke-width: 1.466;
stroke-linecap: butt;
stroke-linejoin: round;
}
.g3_54{
fill: none;
stroke: #894444;
stroke-width: 1.466;
stroke-linecap: round;
stroke-linejoin: round;
}
.g4_54{
fill: none;
stroke: #FFFFFF;
stroke-width: 2.2;
stroke-linecap: butt;
stroke-linejoin: miter;
}
.g5_54{
fill: none;
stroke: #DF73FF;
stroke-width: 1.833;
stroke-linecap: round;
stroke-linejoin: round;
}
.g6_54{
fill: none;
stroke: #98E600;
stroke-width: 1.833;
stroke-linecap: round;
stroke-linejoin: round;
}
.g7_54{
fill: none;
stroke: #000000;
stroke-width: 4.766;
stroke-linecap: butt;
stroke-linejoin: round;
}
.g8_54{
fill: none;
stroke: #FFFF00;
stroke-width: 2.566;
stroke-linecap: butt;
stroke-linejoin: round;
}
.g9_54{
fill: none;
stroke: #FF00C5;
stroke-width: 2.566;
stroke-linecap: butt;
stroke-linejoin: round;
}
.ga_54{
fill: none;
stroke: #686868;
stroke-width: 2.2;
stroke-linecap: round;
stroke-linejoin: round;
}
.gb_54{
fill: none;
stroke: #B2B2B2;
stroke-width: 1.099;
stroke-linecap: round;
stroke-linejoin: round;
}
.gc_54{
fill: none;
stroke: #000000;
stroke-width: 1.466;
stroke-linecap: round;
stroke-linejoin: round;
}
.gd_54{
fill: none;
stroke: #FFFFFF;
stroke-width: 1.466;
stroke-linecap: round;
stroke-linejoin: round;
}
.ge_54{
fill: #FFFFFF;
stroke: #6E6E6E;
stroke-width: 1.466;
stroke-linecap: round;
stroke-linejoin: round;
}
.gf_54{
fill: none;
stroke: #FFFFFF;
stroke-width: 2.933;
stroke-linecap: round;
stroke-linejoin: round;
}
.gg_54{
stroke: #000000;
stroke-width: 1.466;
stroke-linecap: round;
stroke-linejoin: round;
}
.gh_54{
fill: none;
stroke: #000000;
stroke-width: 0.733;
stroke-linecap: round;
stroke-linejoin: round;
}
.gi_54{
fill: #BEE8FF;
}
.gj_54{
fill: #FFEBBE;
stroke: #828282;
stroke-width: 0.733;
stroke-linecap: round;
stroke-linejoin: round;
}
.gk_54{
fill: #FFEBBE;
stroke: #9C9C9C;
stroke-width: 0.733;
stroke-linecap: round;
stroke-linejoin: round;
}
.gl_54{
fill: none;
stroke: #894444;
stroke-width: 1.833;
stroke-linecap: round;
stroke-linejoin: round;
}
.gm_54{
fill: none;
stroke: #000000;
stroke-width: 1.466;
stroke-linecap: butt;
stroke-linejoin: round;
}
.gn_54{
fill: none;
stroke: #FFFF00;
stroke-width: 1.099;
stroke-linecap: butt;
stroke-linejoin: round;
}
.go_54{
fill: none;
stroke: #000000;
stroke-width: 2.933;
stroke-linecap: butt;
stroke-linejoin: round;
}
.gp_54{
fill: none;
stroke: #FFFF00;
stroke-width: 2.2;
stroke-linecap: butt;
stroke-linejoin: round;
}
.gq_54{
fill: #FFFFFF;
stroke: #000000;
stroke-width: 0.733;
stroke-linecap: round;
stroke-linejoin: round;
}
.gr_54{
fill: none;
stroke: #005CE6;
stroke-width: 1.466;
stroke-linecap: round;
stroke-linejoin: round;
}
.gs_54{
fill: none;
stroke: #FF0000;
stroke-width: 1.466;
stroke-linecap: square;
stroke-linejoin: miter;
}
.gt_54{
fill: none;
stroke: #343434;
stroke-width: 1.099;
stroke-linecap: round;
stroke-linejoin: round;
}
.gu_54{
fill: none;
stroke: #FFFFFF;
stroke-width: 2.2;
stroke-linecap: round;
stroke-linejoin: round;
}
.gv_54{
fill: none;
stroke: #000000;
stroke-width: 0.733;
stroke-linecap: square;
stroke-linejoin: miter;
}
.gw_54{
fill: none;
stroke: #DF73FF;
stroke-width: 2.2;
stroke-linecap: round;
stroke-linejoin: round;
}
.gx_54{
fill: none;
stroke: #686868;
stroke-width: 2.933;
stroke-linecap: butt;
stroke-linejoin: round;
}
.gy_54{
fill: none;
stroke: #CCCCCC;
stroke-width: 2.2;
stroke-linecap: butt;
stroke-linejoin: round;
}
.gz_54{
fill: none;
stroke: #894444;
stroke-width: 1.466;
stroke-linecap: square;
stroke-linejoin: round;
}
.g10_54{
fill: none;
stroke: #894444;
stroke-width: 2.566;
stroke-linecap: butt;
stroke-linejoin: round;
}
.g11_54{
fill: none;
stroke: #FF00C5;
stroke-width: 2.933;
stroke-linecap: butt;
stroke-linejoin: round;
}
.g12_54{
fill: none;
stroke: #FFFF00;
stroke-width: 2.933;
stroke-linecap: butt;
stroke-linejoin: round;
}
.g13_54{
fill: none;
stroke: #98E600;
stroke-width: 2.2;
stroke-linecap: round;
stroke-linejoin: round;
}
]]></style>
</defs>
<path d="M41.8,484V66H1177.1V902H41.8V484" class="g0_54"/>
<image preserveAspectRatio="none" x="60" y="89" width="934" height="302" xlink:href="img/1.png"/>
<image preserveAspectRatio="none" x="60" y="390" width="934" height="302" xlink:href="img/2.png"/>
<image preserveAspectRatio="none" x="60" y="691" width="934" height="189" xlink:href="img/3.png"/>
<g clip-path="url(#c0_54)">
<path d="M60.1,779.5l179.7,9.2l-4.4,90.5M274.3,88.7l-34.5,700L60.1,779.5m175.3,99.7l4.4,-90.5l753.9,36.6L239.8,788.7l34.5,-700" class="g1_54"/>
</g>
<path d="M60.1,602L66,600.9m2.9,-.3l7.7,-1.5m3,-.4l7.7,-1.4m2.9,-.4l1.8,-.4l5.5,-1.1m3,-.3l7.7,-1.5m2.9,-.4l7.7,-1.4m2.9,-.4l7.4,-1.5m3.3,-.3l7.3,-1.5m2.9,-.4l7.7,-1.4m3,-.4l7.7,-1.5m2.9,-.3l7.3,-1.5m3.3,-.4l7.4,-1.4m2.9,-.4l7.7,-1.5m2.9,-.7l7.7,-1.1m3,-.7l7.3,-1.1m2.9,-.8l7.7,-1.1m3,-.7l7.7,-1.1m2.9,-.7l7.4,-1.1m3.3,-.8l7.3,-1.1m2.9,-.7l7.7,-1.1m3,-.7l7.7,-1.1m2.9,-.8l7.3,-1.4m3.3,-.4l7.4,-1.5m2.9,-.3l7.7,-1.5m2.9,-.4l7.7,-1.4m3,-.4l7.3,-1.5m2.9,-.3l7.7,-1.5m3,-.4l7.7,-1.4m2.9,-.4l7.3,-1.5m3.3,-.3l7.4,-1.5m2.9,-.4l7.7,-1.4m2.9,-.4l7.7,-1.5m3,-.3l7.3,-1.5m3.3,-.4l7.3,-1.4m3,-.8l7.7,-1.1m2.9,-.7l7.3,-1.1m3.3,-.7l7.4,-1.1m2.9,-.8l7.7,-1.1m2.9,-.7l7.7,-1.1m3,-.7l7.3,-1.1m3.3,-.8l7.3,-1.1m3,-.7L498,525m2.9,-.3l7.7,-1.5m2.9,-.4l7.4,-1.4m3.3,-.4l7.3,-1.5m2.9,-.3l3.3,-.8l4.4,-.7m3,-.4l7.3,-1.4m3.3,-.8l7.3,-1.4m3,-.4l7.7,-1.5m2.9,-.7l7.3,-1.1m3.3,-.7l7.4,-1.5m2.9,-.4l7.7,-1.4m2.9,-.8l7.4,-1.4m3.3,-.4l7.3,-1.5m2.9,-.3l7.7,-1.1m3,-.8l1.8,-.3" class="g2_54"/>
<g clip-path="url(#c0_54)">
<path d="M993.7,547.8l-5.5,-5.2L947.5,502.3l-8,-8.1L931,485.8l-7.3,-8.1l-7.3,-8L909,460.5l-7.3,-8.8l-5.9,-9.2l-.3,-.7l-6.6,-9.5L883,422.4l-5.9,-9.9l-6.2,-12.9L865,386.8l-5.1,-13.2l-4.8,-13.2l-4.4,-13.6l-3.6,-13.5l-3.3,-14l-2.6,-13.9L839,291.5l-1.5,-13.9l-1.1,-21.3L835.7,235l.7,-21.2l1.5,-20.9l2.2,-21.3l3.3,-20.9l4,-20.9l4.8,-20.5l5.9,-20.2v-.4" class="g3_54"/>
<path d="M639.5,499.4h.4l7.3,-1.1m2.9,-.8l7.7,-1.4m3,-.4l7.3,-1.5m3.3,-.3l7.4,-1.5m2.9,-.4l7.7,-1.4m2.9,-.4l7.7,-1.5m3,-.7l7.3,-1.1m2.9,-.7l7.7,-1.1m3,-.8l7.7,-1.4m2.9,-.4l7.3,-1.5m3.3,-.3l7.4,-1.5m2.9,-.4l7.7,-1.4M766,477l7.4,-1.5m3.3,-.7l4,-.7l3.3,-.8m2.9,-.7l7.4,-1.8m3.3,-.4l7.3,-1.8m2.9,-.8l7.4,-1.8m2.9,-.7l7.3,-2.2m3,-.8l7.3,-2.2m2.9,-1.1l7.4,-1.8m2.9,-1.1l7.3,-1.8m3,-1.1l7.3,-2.2m2.9,-.8l7.4,-2.2m2.9,-.7l7.3,-2.2m3,-.7l5.8,-1.9M639.5,499.4v-1.5m-.7,-2.9l-1.5,-7.7m-.7,-3L635.1,477m-.4,-2.9l-1.4,-7.7m-.8,-3l-1.4,-7.3m-.8,-3.3l-1.4,-7.3m-.4,-3L627,434.8m-.7,-2.9l-1.5,-7.3m-.7,-3l-1.5,-7.7m-.3,-2.9l-1.5,-7.3m-.7,-3.3L618.6,393m-.7,-2.9l-1.5,-7.7m-.4,-2.9l-1.4,-7.4m-.8,-2.9l-1.4,-7.7m-.4,-2.9l-1.5,-7.7m-.7,-3l-1.5,-7.3m-.7,-2.9L606.1,330m-.3,-3l-1.5,-7.3m-.7,-3.3l-1.5,-7.3m-.7,-2.9l-1.5,-7.7m-.4,-3l-1.4,-7.3m-.8,-2.9l-1.4,-7.7m-.8,-3l-1.4,-7.3m-.4,-3.3l-1.5,-7.3m-.7,-3L589.6,246m-.7,-2.9l-1.5,-7.3m-.3,-3l-1.5,-7.7m-.7,-2.9l-1.5,-7.3m-.7,-3.3l-1.5,-7.4m-.7,-2.9L579,193.6m-.7,-2.9l-1.9,-7.4m-.7,-2.9l-1.8,-7.3m-.8,-3l-1.8,-6.9l-.4,-.4m-.7,-2.9l-1.8,-6.3l-.4,-1.1m-.7,-2.9l-1.9,-5.9l-.3,-1.4m-.8,-3l-1.8,-5.1l-.7,-2.2m-.8,-2.9l-1.4,-4.4l-1.1,-3m-.8,-2.9l-1.4,-3.7l-1.5,-3.3m-1.1,-2.9l-2.6,-7.3M550,99l-2.9,-7.3m-1.5,-2.6v-.4" class="g2_54"/>
</g>
<path d="M707,879.2l-4.4,-26.4l-5.9,-35.2l-9.1,-49.1L675.5,696.3L662.6,629.5L648.3,554l-7.7,-45.5l5.1,-1.1l7.7,45.5l14.4,75.9l12.8,66.7l12.1,71.9l9.2,49.5l5.8,35.2l4.4,27.1m-136.8,0l1.5,-4.7l.4,-.4v-.7l.7,-9.2v-.7l-.7,-8.1V855l-5.9,-28.6L559.6,762.6L548.2,702.5l-2.6,-88v-.7l1.5,-25.7l-.7,-30.8v-.4L542,533.5l-1.1,-7l11,-1.8l32.2,-5.9l1.5,6.6l4,23.5l.4,.7v1.1l.4,1.1v4l.7,14.7l-26,4.8l.3,11.7v1.8L564,614.9l2.2,85.4l11.3,59l11.8,63.8l5.5,28.3l.3,.7v1.8l.8,7.7l.3,1.5l-.3,.7v1.9l-.8,9.1v1.9l-.3,1.4l-.4,.8v.3m-32.3,0l1.5,-2.2l1.5,-5.5l.7,-7.7l-.7,-6.9L546,754.6L535.7,701.8v-6.6l-.3,-8.1L535,673.2V661.1l-.4,-13.2l-.3,-9.9l-.8,-13.6v-8.8l-2.5,-15l-1.5,-8.1l-6.2,-34.8l-1.9,-12.1L520,539.3L518.5,532v-1.5l3.3,-.3l3.7,-.8l5.1,-1.1h1.5l1.4,7l4.1,22.4l.3,12.1l.8,17.9l-.4,7.7l1.8,10.7l3.7,96.4l30.8,168.7l-4.8,8" class="g4_54"/>
<path d="M707,879.2l-4.4,-26.4l-5.9,-35.2l-9.1,-49.1L675.5,696.3L662.6,629.5L648.3,554l-7.7,-45.5l5.1,-1.1l7.7,45.5l14.4,75.9l12.8,66.7l12.1,71.9l9.2,49.5l5.8,35.2l4.4,27.1m-136.8,0l1.5,-4.7l.4,-.4v-.7l.7,-9.2v-.7l-.7,-8.1V855l-5.9,-28.6L559.6,762.6L548.2,702.5l-2.6,-88v-.7l1.5,-25.7l-.7,-30.8v-.4L542,533.5l-1.1,-7l11,-1.8l32.2,-5.9l1.5,6.6l4,23.5l.4,.7v1.1l.4,1.1v4l.7,14.7l-26,4.8l.3,11.7v1.8L564,614.9l2.2,85.4l11.3,59l11.8,63.8l5.5,28.3l.3,.7v1.8l.8,7.7l.3,1.5l-.3,.7v1.9l-.8,9.1v1.9l-.3,1.4l-.4,.8v.3m-32.3,0l1.5,-2.2l1.5,-5.5l.7,-7.7l-.7,-6.9L546,754.6L535.7,701.8v-6.6l-.3,-8.1L535,673.2V661.1l-.4,-13.2l-.3,-9.9l-.8,-13.6v-8.8l-2.5,-15l-1.5,-8.1l-6.2,-34.8l-1.9,-12.1L520,539.3L518.5,532v-1.5l3.3,-.3l3.7,-.8l5.1,-1.1h1.5l1.4,7l4.1,22.4l.3,12.1l.8,17.9l-.4,7.7l1.8,10.7l3.7,96.4l30.8,168.7l-4.8,8" class="g5_54"/>
<path d="M539,518.1l-1.4,-8.5l17.9,-3.3l3,16.9l-17.6,3.3L539,518.1m-22.7,-4.8l2.9,-.4l-2.9,.4" class="g4_54"/>
<path d="M540.9,526.5l-3.3,-16.9l17.9,-3.3l3,16.9l-17.6,3.3M516.3,513.3l2.9,-.4l-2.9,.4" class="g5_54"/>
<g clip-path="url(#c0_54)">
<path d="M382.5,88.7l15.7,7l53.2,19.4L447,128.3L398.6,110.7l5.9,44l55,-15.4h1.1l.3,.4l14.7,5.9l34.1,-8.8l16.1,-9.6L536.5,117v-.4h.3l.4,-.4h.4l15.7,-3.6h1.1l.4,.3h.7l.4,.4v.4l.4,.3l6.6,12.1v.4l.3,.4L585.6,198v.4l13.2,79.9l20.5,113.6l19.8,99L634,492L614.2,393L593.7,279.4L580.5,199.5L558.1,128.7l-5.5,-10.6L539.4,121l-9.9,10.3l-.4,.3h-.3l-16.9,9.9v.4h-.4L476,150.7h-1.5l-14.7,-5.9l-70,19.1l-.7,-5.1l-3.7,-28.6l-5.1,-5.9l-3,-4v-.4L349.8,91.3l-2.2,-2.6m-12.1,0l8.1,8.5l27.1,28.6l1.9,2.2l1.4,12.1l1.5,11.3l2.2,12.9l1.8,12.8h.4l2.6,12.1l2.5,11.7l1.9,11.8l1.4,12.4l1.5,12.5l4,30.8l2.2,15v.8l.4,.7l.4,.4l7.7,11.7l.3,.4l.4,.3l.7,.8l.4,.3h1.1l4.8,1.1l9.1,1.5l-7.7,-10.3l-7.7,-9.9l-1.1,-9.1l16.9,2.2l10.3,1.4l25.3,-20.1l47.6,62.3l-16.5,12.8l16.9,21.6l.4,.4L515.9,367l14,17.6v.4l.7,.7l.4,.7l.3,.8l.4,.7l.4,.7l.3,.8l.4,.7l.4,1.1l.3,.7v.8l.4,1.1v.3L545.6,455v.4l38.2,-7l9.1,51l-12.1,2.2l-32.6,5.8l-10.6,2.2l-9.9,-51.3L515.9,397.4v-1.1l-.3,-.3l-14,-17.6L491,363.3L456.5,319L438.9,296.6l-.3,-.7l-.8,-.4l-.7,-.3h-.7l63,82.8l3,15.4l5.5,6.6l11.3,59.8l9.9,51.3l-1.8,.4l-2.2,.3l-6.2,1.1l-10.3,1.9l-2.9,.3L494.3,455.7l9.9,-1.8l-1.5,-7.3l-5.1,-26.4l-3.7,-20.6L491.4,389l-2.2,-5.1l-1.5,-3.7L481.5,371l-2.2,-2.2l-2.6,-3.6l-2.9,-4.4l-1.9,-2.2l-2.2,-3l-3.6,-4.7l-6.6,-8.1l-4.4,-5.9l-30.8,5.5l-39.6,-6.9l-5.2,-4.8l-11,-21.6l11.4,-19.8l.7,-3.3l-.3,-.7l-1.9,-14.7l-4,-31.2L372.9,227l-1.4,-12.1l-1.9,-11l-2.2,-11.4l-2.9,-11.7V180l-.4,-.3l-1.8,-12.9l-2.2,-13.2v-.3l-1.5,-11.4l-1.1,-7.3L332.2,107.8L319.8,94.2L304,88.7" class="g4_54"/>
<path d="M382.5,88.7l15.7,7l53.2,19.4L447,128.3L398.6,110.7l5.9,44l55,-15.4h1.1l.3,.4l14.7,5.9l34.1,-8.8l16.1,-9.6L536.5,117v-.4h.3l.4,-.4h.4l15.7,-3.6h1.1l.4,.3h.7l.4,.4v.4l.4,.3l6.6,12.1v.4l.3,.4L585.6,198v.4l13.2,79.9l20.5,113.6l19.8,99L634,492L614.2,393L593.7,279.4L580.5,199.5L558.1,128.7l-5.5,-10.6L539.4,121l-9.9,10.3l-.4,.3h-.3l-16.9,9.9v.4h-.4L476,150.7h-1.5l-14.7,-5.9l-70,19.1l-.7,-5.1l-3.7,-28.6l-5.1,-5.9l-3,-4v-.4L349.8,91.3l-2.2,-2.6m-12.1,0l8.1,8.5l27.1,28.6l1.9,2.2l1.4,12.1l1.5,11.3l2.2,12.9l1.8,12.8h.4l2.6,12.1l2.5,11.7l1.9,11.8l1.4,12.4l1.5,12.5l4,30.8l2.2,15v.8l.4,.7l.4,.4l7.7,11.7l.3,.4l.4,.3l.7,.8l.4,.3h1.1l4.8,1.1l9.1,1.5l-7.7,-10.3l-7.7,-9.9l-1.1,-9.1l16.9,2.2l10.3,1.4l25.3,-20.1l47.6,62.3l-16.5,12.8l16.9,21.6l.4,.4L515.9,367l14,17.6v.4l.7,.7l.4,.7l.3,.8l.4,.7l.4,.7l.3,.8l.4,.7l.4,1.1l.3,.7v.8l.4,1.1v.3L545.6,455v.4l38.2,-7l9.1,51l-12.1,2.2l-32.6,5.8l-10.6,2.2l-9.9,-51.3L515.9,397.4v-1.1l-.3,-.3l-14,-17.6L491,363.3L456.5,319L438.9,296.6l-.3,-.7l-.8,-.4l-.7,-.3h-.7l63,82.8l3,15.4l5.5,6.6l11.3,59.8l9.9,51.3l-1.8,.4l-2.2,.3l-6.2,1.1l-10.3,1.9l-2.9,.3L494.3,455.7l9.9,-1.8l-1.5,-7.3l-5.1,-26.4l-3.7,-20.6L491.4,389l-2.2,-5.1l-1.5,-3.7L481.5,371l-2.2,-2.2l-2.6,-3.6l-2.9,-4.4l-1.9,-2.2l-2.2,-3l-3.6,-4.7l-6.6,-8.1l-4.4,-5.9l-30.8,5.5l-39.6,-6.9l-5.2,-4.8l-11,-21.6l11.4,-19.8l.7,-3.3l-.3,-.7l-1.9,-14.7l-4,-31.2L372.9,227l-1.4,-12.1l-1.9,-11l-2.2,-11.4l-2.9,-11.7V180l-.4,-.3l-1.8,-12.9l-2.2,-13.2v-.3l-1.5,-11.4l-1.1,-7.3L332.2,107.8L319.8,94.2L304,88.7" class="g5_54"/>
</g>
<path d="M569.8,879.2l4.8,-8L543.8,702.5l-3.7,-96.4l-1.8,-10.7l.4,-7.7l-.8,-17.9l-.3,-12.1l-4.1,-22.4l-1.4,-7l8.8,-1.8l1.1,7l4.4,23.4v.4l.7,30.8l-1.5,25.7v.7l2.6,88l11.4,60.1l11.7,63.8l5.9,28.6v.4l.7,8.1v.7l-.7,9.2v.7l-.4,.4l-1.5,4.7" class="g4_54"/>
<path d="M569.8,879.2l4.8,-8L543.8,702.5l-3.7,-96.4l-1.8,-10.7l.4,-7.7l-.8,-17.9l-.3,-12.1l-4.1,-22.4l-1.4,-7l8.8,-1.8l1.1,7l4.4,23.4v.4l.7,30.8l-1.5,25.7v.7l2.6,88l11.4,60.1l11.7,63.8l5.9,28.6v.4l.7,8.1v.7l-.7,9.2v.7l-.4,.4l-1.5,4.7" class="g6_54"/>
<g clip-path="url(#c0_54)">
<path d="M347.6,88.7l2.2,2.6l27.5,28.6v.4l3,4l5.1,5.9l3.7,28.6l.7,5.1l15,108.2l1.5,9.1l7.3,9.9l7.7,10.3l-9.1,-1.5l-4.8,-1.1h-1.1l-.4,-.3l-.7,-.8l-.4,-.3l-.3,-.4l-7.7,-11.7l-.4,-.4l-.4,-.7v-.8l-2.2,-15l-4,-30.8l-1.5,-12.5l-1.4,-12.4L385,200.9l-2.5,-11.7l-2.6,-12.1h-.4l-1.8,-12.8l-2.2,-12.9L374,140.1L372.6,128l-1.9,-2.2L343.6,97.2l-8.1,-8.5M524,485.4l-4.8,-25.6L507.9,400l-5.5,-6.6l-3,-15.4l-63,-82.8h.7l.7,.3l.8,.4l.3,.7L456.5,319L491,363.3l10.6,15.1l14,17.6l.3,.3v1.1l11.8,60.9l9.9,51.3l-8.5,1.5L524,485.4" class="g4_54"/>
<path d="M347.6,88.7l2.2,2.6l27.5,28.6v.4l3,4l5.1,5.9l3.7,28.6l.7,5.1l15,108.2l1.5,9.1l7.3,9.9l7.7,10.3l-9.1,-1.5l-4.8,-1.1h-1.1l-.4,-.3l-.7,-.8l-.4,-.3l-.3,-.4l-7.7,-11.7l-.4,-.4l-.4,-.7v-.8l-2.2,-15l-4,-30.8l-1.5,-12.5l-1.4,-12.4L385,200.9l-2.5,-11.7l-2.6,-12.1h-.4l-1.8,-12.8l-2.2,-12.9L374,140.1L372.6,128l-1.9,-2.2L343.6,97.2l-8.1,-8.5M529.1,511.1l-9.9,-51.3L507.9,400l-5.5,-6.6l-3,-15.4l-63,-82.8h.7l.7,.3l.8,.4l.3,.7L456.5,319L491,363.3l10.6,15.1l14,17.6l.3,.3v1.1l11.8,60.9l9.9,51.3l-8.5,1.5" class="g6_54"/>
</g>
<path d="M530.6,519.5l-1.5,-8.4l8.5,-1.5l3.3,16.9l-8.8,1.8l-1.5,-8.8" class="g4_54"/>
<path d="M532.1,528.3l-3,-17.2l8.5,-1.5l3.3,16.9l-8.8,1.8" class="g6_54"/>
<g clip-path="url(#c0_54)">
<path d="M341.8,88.7l.3,.4l4.8,5.1l1.1,1.5l6.2,6.2l5.9,6.3l5.9,6.2l5.8,6.2l3.7,3.7l1.5,2.6l.3,.3v.4l.8,8.4l.3,2.2l.8,6.3l.7,6.2l.4,2.6l1.4,8.4v1.8l1.1,7l1.1,5.9l.8,2.5l1.8,8.5l.4,.7l1.4,7.7l1.1,4.4l.4,4l1.5,7.7v.8l1.1,8.8l.3,2.9l.8,5.5l.7,7v1.8l1.1,7.3l.4,1.1l1.1,8.8v2.2l1.1,6.3l.3,3.6l.8,4.8l.7,5.1l1.5,3.3l3.3,8.1l1.1,2.2l2.5,3.3l2.2,.4l8.5,1.1l8.4,1.4l7.3,1.5l.8,.7l1.1,1.5l4.4,5.5l5.1,6.9l5.1,6.6l1.1,1.5l4.4,5.5l5.2,7l5.1,6.9l1.5,1.9l4,4.7l5.5,7l5.1,6.6l1.9,2.6l3.6,4.4l2.6,3.6l2.2,3.7l2.9,4.8l1.1,2.9l1.5,2.9l1.1,5.2l1.5,6.2l.3,2.2l1.9,8.4l1.4,8.5l.4,1.8l1.5,7l1.4,8.4l1.5,8.4l.7,2.6l1.1,5.9l1.5,8.4l1.5,8.8l.7,2.9l1.1,5.5l1.5,8.5l1.8,8.4l.7,5.5l.8,3.3l1.4,8.4l.8,4.1l.3,3.6l.4,.8v.7l1.1,6.2V528l.4,2.2l1.1,6.2l1.4,8.4l.8,4.1l.7,4.4l1.8,8.8l1.5,8.4l.7,2.9l1.1,5.5l1.5,8.5l1.8,8.4l.4,2.6l1.1,6.2l1.1,8.4l.4,1.5v9.9l.3,5.9l.4,8.8v8.4l.4,2.6v6.2l.3,8.8l.4,8.4v8.8l.4,8.5v5.5l.3,3.3v.3l1.5,8.1l1.5,8.4l1.8,8.8l1.5,8.5l1.4,8.4l1.9,8.4l1.4,8.8l1.5,8.5l1.8,8.4l1.5,8.4l1.5,8.5l1.8,8.8l1.5,8.4l1.4,8.4l1.9,8.5l1.4,8.8l1.5,8.4l1.8,8.4l.8,4.1l.3,4.4l.4,2.5l-.4,6.3l-.3,2.9l-1.5,5.5l-.4,.7" class="g7_54"/>
<path d="M341.8,88.7l.3,.4l4.8,5.1l1.1,1.5l6.2,6.2l5.9,6.3l5.9,6.2l5.8,6.2l3.7,3.7l1.5,2.6l.3,.3v.4l.8,8.4l.3,2.2l.8,6.3l.7,6.2l.4,2.6l1.4,8.4v1.8l1.1,7l1.1,5.9l.8,2.5l1.8,8.5l.4,.7l1.4,7.7l1.1,4.4l.4,4l1.5,7.7v.8l1.1,8.8l.3,2.9l.8,5.5l.7,7v1.8l1.1,7.3l.4,1.1l1.1,8.8v2.2l1.1,6.3l.3,3.6l.8,4.8l.7,5.1l1.5,3.3l3.3,8.1l1.1,2.2l2.5,3.3l2.2,.4l8.5,1.1l8.4,1.4l7.3,1.5l.8,.7l1.1,1.5l4.4,5.5l5.1,6.9l5.1,6.6l1.1,1.5l4.4,5.5l5.2,7l5.1,6.9l1.5,1.9l4,4.7l5.5,7l5.1,6.6l1.9,2.6l3.6,4.4l2.6,3.6l2.2,3.7l2.9,4.8l1.1,2.9l1.5,2.9l1.1,5.2l1.5,6.2l.3,2.2l1.9,8.4l1.4,8.5l.4,1.8l1.5,7l1.4,8.4l1.5,8.4l.7,2.6l1.1,5.9l1.5,8.4l1.5,8.8l.7,2.9l1.1,5.5l1.5,8.5l1.8,8.4l.7,5.5l.8,3.3l1.4,8.4l.8,4.1l.3,3.6l.4,.8v.7l1.1,6.2V528l.4,2.2l1.1,6.2l1.4,8.4l.8,4.1l.7,4.4l1.8,8.8l1.5,8.4l.7,2.9l1.1,5.5l1.5,8.5l1.8,8.4l.4,2.6l1.1,6.2l1.1,8.4l.4,1.5v9.9l.3,5.9l.4,8.8v8.4l.4,2.6v6.2l.3,8.8l.4,8.4v8.8l.4,8.5v5.5l.3,3.3v.3l1.5,8.1l1.5,8.4l1.8,8.8l1.5,8.5l1.4,8.4l1.9,8.4l1.4,8.8l1.5,8.5l1.8,8.4l1.5,8.4l1.5,8.5l1.8,8.8l1.5,8.4l1.4,8.4l1.9,8.5l1.4,8.8l1.5,8.4l1.8,8.4l.8,4.1l.3,4.4l.4,2.5l-.4,6.3l-.3,2.9l-1.5,5.5l-.4,.7" class="g8_54"/>
</g>
<path d="M496.9,378.7l.3,.8l.8,1.1l4.7,5.8l5.2,6.6l4,5.2l.4,2.2l1.4,8.4l1.9,8.8L517,426l1.9,8.5l1.4,8.4l1.9,8.4l1.4,7.7v1.1l1.9,8.5l1.4,8.4l1.5,8.4l1.8,8.5l1.5,8.8l1.8,8.4l1.5,8.4l1.5,8.5l1.4,6.2l.4,2.2l1.5,8.8l1.4,8.4l.8,3.7l.3,4.8v8.8l.4,8.8l.4,8v.4l-.8,8.8l-.3,8.4l-.4,8.8V616" class="g7_54"/>
<path d="M496.9,378.7l.3,.8l.8,1.1l4.7,5.8l5.2,6.6l4,5.2l.4,2.2l1.4,8.4l1.9,8.8L517,426l1.9,8.5l1.4,8.4l1.9,8.4l1.4,7.7v1.1l1.9,8.5l1.4,8.4l1.5,8.4l1.8,8.5l1.5,8.8l1.8,8.4l1.5,8.4l1.5,8.5l1.4,6.2l.4,2.2l1.5,8.8l1.4,8.4l.8,3.7l.3,4.8v8.8l.4,8.8l.4,8v.4l-.8,8.8l-.3,8.4l-.4,8.8V616" class="g9_54"/>
<path d="M456.9,449.9v1.8h2.2v.4h.4v.7h-2.6v2.9h-1.1v-6.6l.4,-.3h3.3v1.1h-2.6m-3.3,-.4l.7,1.1v3.3l-.7,1.1l-1.1,.7h-2.6l-1.1,-.7l-.7,-1.1V451l.7,-1.1l1.1,-.8l1.5,-.3l1.1,.3l1.1,.4m-3.7,4.8l.4,.3h1.8l.4,-.7l.4,-.7v-1.9l-.4,-.7l-.4,-.7H451l-.7,.3l-.4,.4l-.3,.7v2.2l.3,.8m-5.5,-5.5l.4,.3h.4v.4l-1.9,3.7v2.5h-1.4v-2.5L440,449.5v.4h-1.8v5.8h-1.5v-5.8h-1.8v-.8h.4v-.3h4.4v.3h.7l.4,-.3l.3,.3h.4l.7,1.9l.4,.3v.8l.4,-.8V451l.7,-1.9h.4l.3,-.3m-11.3,0l.3,.3h.4v6.6h-1.1v-6.6h.4v-.3m-2.2,0l.3,.3h.4v1.1h-.7l-.4,-.3H429l-.3,.7l-.4,.7v2.2l.4,.8l.7,.3h1.5l.3,-.3h.4v1.1l-.4,.3h-2.5l-1.1,-.7l-.8,-1.1V451l.8,-1.1l1.1,-.8l1.1,-.3h1.1M465.7,462l.4,.3h.3v6.3l-.3,.3h-1.5l-.4,-.3v-.4l-1.4,-3.3l-.4,-.7l-.4,-.8v5.5h-1.1v-6.6l.4,-.3h.7l.4,.3h.4v.4h.3l1.1,2.6l.4,.3v.8l.4,.3v-4.4h.3l.4,-.3m-7,.7l.8,1.1v3.3l-.8,1.1l-1.1,.7l-1.4,.4l-1.5,-.4l-.7,-.7l-.8,-1.1v-2.9l.8,-1.1l1.1,-.8l1.4,-.3l1.1,.3l1.1,.4m-3.3,5.1l.8,.4l1.1,-.4l.3,-.3l.4,-1.1v-1.9l-.4,-.7l-.3,-.7h-1.1l-.8,.3l-.3,.4l-.4,.7v2.2l.4,.8l.3,.3M452.9,462v.3h.3v.8h-1.8v5.8h-1.5v-5.8h-1.8v-.8l.4,-.3h4.4m-7.4,0l.4,.3h.4v5.5h2.5v1.1h-3.6v-6.6h.3V462m-2.9,0l.4,.3h.3v6.6h-1.1v-6.6h.4V462m-2.6,0v.3h.4v6.6h-1.1v-5.8l-2.2,5.5v.3H436l-.4,-.3l-1.8,-5.5v5.8h-1.1v-6.6l.4,-.3h1.1l.3,.3l.4,.4v.4l1.5,4h.3l1.5,-4v-.4l.4,-.4l.3,-.3H440m-11,0l.4,.3h.4l2.2,6.3v.3h-1.5v-.3l-.4,-1.1h-2.5l-.4,1.1v.3h-1.1l-.4,-.3h.4l1.8,-6.3h.4l.7,-.3m-.3,1.4l-.8,3h1.9l-.8,-3h-.3M424.6,462v.3h.4v6.6h-1.1V466H421v2.9h-1.1v-6.6h.3l.4,-.3v.3h.4v2.6h2.9v-2.6h.4l.3,-.3" class="ga_54"/>
<path d="M170.1,829.4l-.3,.7h1.4l.4,.4l.4,.7l.3,.7l-.3,.8l-.4,.7l-.7,.7l-.8,.4h-1.4l-.4,-.4l-.4,-.7l-.3,-.7l1.4,-.4v1.1h1.1l.4,-.4l.4,-.3v-1.5l-.8,-.4l-.3,.4l-.8,.4l-.7,-.4l1.1,-3.3l3.3,.4l-.4,1.1h-2.2m-19.4,-1.1l-1.5,5.5h-1.1l1.1,-5.5h-1.8l.4,-1.1h5.1l-.4,1.1h-1.8m9.5,.7l-.3,.7h1.4l.4,.4l.4,.7l.3,.8l-.3,.7l-.4,.7l-.7,.8l-.8,.3h-1.4l-.4,-.3L158,833l-.3,-.7l1.4,-.4V833h1.1l.4,-.3l.4,-.4v-1.5l-.8,-.3l-.3,.3l-.8,.4l-.7,-.4l1.1,-3.3l3.3,.4l-.4,1.1h-2.2m7,-.4v.8l-.4,.7l-.7,.7l.7,.8V833l-.3,.8l-1.1,.3l-1.1,.4l-.8,-.4l-.3,-.3l-.4,-.4l-.4,-.7l.4,-1.5l1.1,-.4l-.4,-.7l-.3,-.7l.3,-.8l.8,-.7h1.8l.7,.4l.4,.3m-2.6,1.5l.4,.4l.7,-.4l.4,-.7l-.4,-.4l-.3,-.4l-.8,.4v1.1m-.7,2.9l.7,.4h.4l.4,-.4l.3,-1.1l-.3,-.3l-.4,-.4l-.7,.4l-.4,1.1v.3m-6.2,-4.4l-1.1,.8l-1.1,1.4l-.8,1.5l-.3,1.1v.4h-1.1v-.4l.3,-.7l.8,-2.2l1.4,-1.9h-2.5v-1.1h4.4v1.1M143,827.2l1.5,4.4l1.1,-4.4h1.1l-1.5,6.6h-1.5L142.3,829l-1.1,4.4h-1.1l1.4,-6.6l1.5,.4m-4.4,.7l-1.5,5.5H136l1.1,-5.5h-1.8l.4,-1.1h5.1l-.4,1.1h-1.8m-9.5,-1.5l-1.5,6.6h-1.5l1.1,-4.4l-.7,.4l-1.1,.4l.4,-1.5l1.4,-.7l1.1,-.8h.8m5.5,1.5l-1.1,.7l-1.1,1.5l-.8,1.5v1.1l-.3,.3h-1.1v-.3l.3,-.8l1.1,-2.2l1.1,-1.8h-2.5l.3,-1.1h4.1v1.1M185.2,426.4l.7,.4h.4l.3,.7v.7h-1.1v-.3l-.3,-.4l-.8,.4l-.3,.3l-.4,.8l1.1,-.4l.4,.4l.7,.3l.4,.8v1.4l-.4,.4l-.7,1.1H183l-.8,-1.1V429l.8,-1.5l1.1,-.7l1.1,-.4m-1.5,5.5l.4,.4l.3,-.4h.4v-.7l.4,-.8l-.4,-.7h-.7l-.4,.7l-.4,.8l.4,.7m-9.2,-4.4l-.3,.7h1.4l.4,.8l.4,.3v1.5l-.4,.7l-.7,1.1h-2.2l-.4,-.3l-.4,-.8l-.3,-.7h1.4v.7l.8,.4l.3,-.4h.4l.4,-.7v-1.5h-1.1l-.8,.4l-.7,-.4l1.1,-3.3l3.3,.4l-.4,1.1h-2.2m6.6,-.7l.4,.7v.4l-.4,1.1l-.7,.3l.7,.8v1.4l-.3,.8l-1.1,.7h-1.9l-.3,-.7l-.4,-.4l-.4,-.7l.4,-1.1l1.1,-.8l-.4,-.7l-.3,-.7l.3,-.8l.8,-.7h1.8l.7,.4m-2.2,1.8l.4,.4l.7,-.4l.4,-.7l-.4,-.4l-.3,-.4l-.8,.4v1.1m-.7,2.6v.7h1.1l.4,-.4l.3,-.7l-.3,-.7l-.4,-.4l-.7,.4l-.4,1.1M172,427.1l-1.1,.8l-1.1,1.4l-.8,1.9l-.3,.7v.7h-1.1v-.7l.3,-.7l.8,-2.2l1.4,-1.9h-2.5V426H172v1.1m-19.1,-.7l-1.5,5.5h-1.1l1.1,-5.5h-1.8l.4,-1.1h5.1l-.4,1.1h-1.8m14.3,-.4l-.4,1.1l-1.8,-.3l-1.5,5.5h-1.1l1.1,-5.5h-1.8l.4,-1.1l5.1,.3m-6.2,-.3l-1.5,6.6H158l-1.4,-4.4l-1.1,4.4l-1.1,-.4l1.4,-6.2h1.5l1.5,4.4l1.1,-4.4H161m-12.1,.3l-1.1,1.1l-1.1,1.5l-.8,1.5l-.3,.7v.7h-1.1v-.7l.3,-.7l1.1,-1.9l1.1,-1.8h-2.5v-1.5l4.4,.4v.7m-5.5,-1.1l-1.5,6.6h-1.5l1.1,-4.7l-.7,.3l-1.1,.4l.4,-1.1l1.4,-.7l1.1,-.8h.8M545.3,837.4v.8h-1.1v-.8h-.8l-.3,.4l-.4,.4l-.4,.7l1.1,-.4l.4,.4l.7,.4l.4,.3v1.5l-.4,.7l-.7,1.1h-1.1l-1.1,-.3l-.7,-.8v-2.9l.7,-1.5l1.1,-.7l1.1,-.4h.7l.4,.4l.4,.7m-3.3,3.7v.7h1.4v-.7l.4,-.7l-.4,-.8l-.3,-.3l-.4,.3l-.7,.4v1.1m11,-2.9l-.4,.7h1.5l.3,.4l.4,.7v1.5l-.4,.7l-.7,.7l-.7,.4h-1.5l-.4,-.4l-.7,-.7v-.7l1.5,-.4v1.1H553l.3,-.4l.4,-.3v-.8l-.4,-.7l-.3,-.4l-.4,.4l-.7,.4l-1.1,-.4l1.1,-3.3l3.3,.4v1.1H553m-19.5,-1.1l-1.4,5.5H531l1.1,-5.5h-1.9l.4,-1.1h5.1l-.3,1.1h-1.9m16.5,.3v.8l-.3,1.1l-.8,.3l.4,.8l.4,.7v.7l-.4,.8l-1.1,.3l-1.1,.4l-.7,-.4l-.4,-.3l-.4,-.4l-.3,-.7l.3,-1.5l1.1,-.4l-.3,-.7l-.4,-.7l.4,-.8l.7,-.7h1.8l.8,.4l.3,.3m-2.5,1.5l.3,.4l.8,-.4l.3,-.7l-.3,-.4l-.4,-.4l-.7,.4v1.1m-.8,2.9l.8,.4h.3l.4,-.4l.4,-1.1l-.4,-.3l-.4,-.4l-.7,.4l-.4,1.1v.3m-6.2,-4.4l-1.1,.8l-1.1,1.4l-.7,1.5l-.4,1.1v.4h-1.1v-.4l.4,-.7l.7,-2.2l1.5,-1.9h-2.6v-1.1h4.4v1.1m-15,-1.4l1.8,4.4l1.1,-4.4h1.1l-1.5,6.6h-1.4l-1.5,-4.8l-1.1,4.4h-1.1l1.5,-6.6l1.1,.4m-4.1,.7l-1.4,5.5h-1.1l1.1,-5.5h-1.9l.4,-1.1h5.1l-.3,1.1h-1.9m-9.5,-1.5l-1.5,6.6H509l1.1,-4.4l-1.1,.4l-.8,.4l.4,-1.5l1.5,-.7l1.1,-.8h.7m5.5,1.5l-1.1,.7l-1.1,1.5l-.7,1.5l-.4,1.1v.3H513v-.3l.4,-.8l.7,-2.2l1.5,-1.8H513v-1.1h4.4v1.1M618.2,439.6l.4,.7h-1.5V440l-.3,-.4l-.8,.4l-.3,.3l-.4,.8l1.1,-.4l.7,.4l.4,.3l.4,.8v1.4l-.4,.4l-.7,1.1l-1.1,.4l-1.1,-.4l-.4,-1.1l-.4,-.4v-.7l.4,-1.8l.4,-1.5l1.1,-.7l1.1,-.4l.7,.4l.4,.3l.3,.4m-2.9,4.4l.4,.4h.3l.4,-.4l.4,-.7v-1.5h-1.1l-.4,.7l-.4,.8l.4,.7m-7,-4.8l.4,.8h-1.5v-.4l-.3,-.4l-.8,.4l-.3,.4l-.4,.7l1.1,-.4l.7,.4l.4,.4l.4,.7v1.5l-.4,.3l-.7,1.1l-1.1,.4l-1.1,-.4l-.4,-1.1l-.4,-.3v-.8l.4,-1.8l.4,-1.5l1.1,-.7l1.1,-.4l.7,.4l.4,.4l.3,.3m-2.9,4.4l.4,.4h.3l.4,-.4l.4,-.7v-1.5h-1.1l-.4,.8l-.4,.7l.4,.7m7.3,-4.7l.4,.7v1.5l-1.1,.3l.7,.8v1.4l-.3,.8l-.8,.7h-1.8l-.7,-.7l-.4,-.4v-.7l.4,-1.1l.7,-.8l-.4,-.7v-1.5l.8,-.7h2.2l.3,.4m-2.2,1.8l.8,.4l.3,-.4l.4,-.7v-.4l-.7,-.4l-.4,.4l-.4,.7v.4m-.7,2.6l.4,.7h.7l.4,-.4l.3,-.7l-.3,-.7l-.4,-.4l-.7,.4l-.4,1.1m-6.2,-4.1l-1.1,.8l-.8,1.4l-.7,1.9l-.4,.7l-.3,.7h-1.1V444l.3,-.7l1.1,-2.2l1.5,-1.9h-2.9l.3,-1.1h4.1v1.1m-15.1,-1.8l1.9,4.4l1.1,-4h1.1l-1.5,6.6l-1.5,-.4l-1.4,-4.4l-1.1,4.4h-1.5l1.8,-6.6h1.1m-4,1.1L583,444h-1.4l1.4,-5.5h-1.8l.4,-1.1h5.1l-.4,1.1h-1.8m14.3,-.4l-.4,1.1l-1.8,-.3l-1.1,5.5H594l1.5,-5.5h-2.2l.4,-1.1l5.1,.3m-18.7,0l-.7,1.1l-1.1,1.5l-.8,1.5l-.3,1.1v.3h-1.5l.4,-.7l.3,-.7l.8,-1.9l1.4,-1.8h-2.9l.4,-1.5l4.4,.4l-.4,.7M575,437l-1.9,6.6H572l1.1,-4.7l-1.1,.7h-.7v-1.1l1.8,-.7l1.1,-.8h.8" class="gb_54"/>
<path d="M493.9,404v.8l-.3,1.1l-.8,.3l1.1,.8l.4,.7v1.5l-.7,.7l-.8,.7h-2.2l-.7,-.3l-.4,-.8l-.3,-1.1h1.4l.4,.8l.7,.3h.4l.4,-.3l.3,-.8v-.7l-.3,-.4h-.8l-.3,-.3v-1.1l.7,-.4l.4,-.4V404h-1.1l-.4,.8h-1.5l.4,-.8l.4,-.7l.7,-.4l.7,-.3l1.1,.3l.4,.4l.7,.7M487,402.9v7.7h-1.5V404H484l.8,-1.1H487m-7.7,.8l.3,1.4l-.3,.8v.3l-1.1,.8h-1.5v3.6h-1.5v-7.7h3l1.1,.8m-2.6,.3v1.9h1.1v-.4l.4,-.4l-.4,-.7l-.4,-.4h-.7m-2.9,-1.1l-2.6,3.3l2.9,4.4h-1.8L470.1,407v3.6h-1.5v-7.7h1.5v2.6l1.8,-2.6h1.9m56.4,-33v.8l-.3,1.1l-.8,.7l1.1,.7l.4,.4v.7l-.4,1.1l-.3,.8l-.8,.3l-1.1,.4l-1.1,-.4l-.7,-.3l-.4,-.8l-.3,-1.1h1.4l.4,.8l.7,.3h.4l.4,-.3l.3,-.8V374l-.3,-.4l-.8,-.4h-.7v-1.4h1.1l.4,-.4v-.7l-.4,-.4l-.4,-.4l-.3,.4l-.4,.4h-1.5l.4,-.8l.4,-.3l.7,-.8h1.5l.7,.4l.7,.7m-7.3,-1.1v7.7h-1.5v-6.2H520l1.1,-1.5h1.8m-7.3,1.1l.3,1.1l-.3,.8l-.4,.7l-1.1,.4l-.4,.3H513v3.3h-1.5v-7.7h2.2l.8,.4l1.1,.7m-2.6,.4v1.5h.7l.4,-.4l.4,-.4l-.4,-.7H513m-2.9,-1.5l-2.6,3.3l2.9,4.4h-1.8l-2.2,-3.3v3.3h-1.5v-7.7h1.5v2.6l1.8,-2.6h1.9m73.7,243.5l.3,.7l-.3,1.1l-.8,.8l1.1,.7l.4,.4v.7l-.4,.7l-.3,1.1l-.8,.4h-2.2l-.7,-.4l-.7,-.7v-1.1h1.4l.4,.7l.7,.4h.4l.4,-.4l.3,-.7v-.4l-.3,-.3l-.8,-.4l-.7,-.4v-1.1h.7l.4,-.3l.4,-.8l-.4,-.3l-.4,-.4l-.3,.4l-.4,.3h-1.5v-.7l.4,-.7l.7,-.4l1.1,-.4l.8,.4l.7,.4l.4,.7m-9.2,0l.4,.7l-.4,1.1l-.7,.8l1.1,.7l.3,.4v.7l-.3,.7l-.4,1.1l-.7,.4h-2.2l-.8,-.4l-.7,-.7v-1.1h1.5l.3,.7l.8,.4h.3l.4,-.4l.4,-.7v-.4l-.4,-.3l-.7,-.4l-.8,-.4v-1.1h.8l.3,-.3l.4,-.8l-.4,-.3l-.3,-.4l-.4,.4l-.4,.3h-1.4v-.7l.3,-.7l1.1,-.4l.8,-.4l.7,.4l.7,.4l.4,.7m-7,-1.1v7.7h-1.4v-6.6h-1.5l1.1,-1.1h1.8m-7.3,1.1v1.8l-.4,.4l-1.1,.7h-1.4v3.7h-1.5v-7.7h2.6l.7,.4l1.1,.7m-2.9,0v1.8h1.1l.3,-.3v-1.1h-.3l-.8,-.4h-.3m-2.6,-1.1l-2.6,3.3l3,4.4h-1.9l-2.5,-3.3v3.3h-1.5v-7.7h1.5v2.6l2.2,-2.6h1.8m22.7,7.7h-.7l-.4,-.7l.4,-.4l.7,-.4l.4,.4l.4,.4l-.4,.7h-.4" class="gc_54"/>
<path d="M842.7,218.5l.3,2.2h2.2v1.1l-5.5,.4l-.3,-.4v-.7h.3l2.2,-.4v-2.2l-2.5,.4v-1.5h5.8v1.1h-2.5m2.5,5.5l-5.5,.4v-1.5h5.9V224h-.4m-.3,1.9l.7,1.1l.4,1.1v.7l-.4,.4v.3l-.4,.4h-.7v-.4l.4,-.7v-.7l-.4,-.8l-.4,-.3l-.7,-.4h-1.5l-.7,.4l-.4,.7v1.1l.4,.4h1.1v-1.5h.7l.4,2.2H843v.4h-2.5l-.4,-.4v-.7l-.4,-.4v-.4l.4,-1.4l.4,-.8l1.1,-.7l1.1,-.4l1.1,.4l1.1,.4m-1.5,6.6l.4,2.2H846v1.1l-5.5,.3l-.4,-.3V235h.4l2.2,-.3v-2.2l-2.6,.3v-1.4h5.5l.4,.3v.8h-2.6m-1.8,6.6l4.4,1.1h.3v1.1H846l-4.4,1.4l4.7,.8v1.1H846l-5.2,-1.1l-.3,-.4V242h.3l3.7,-1.5l-3.7,-.3l-.3,-.4v-1.5h.3l4.8,-1.4h.4l.3,.3v.4l-.3,.4l-4.4,1.1m4.7,6.9v.4h.4v1.5h-.4l-4.7,1.8l-.4,.4h-.4v-1.5h.4l1.1,-.4l-.4,-2.2l-1.1,-.3v-1.1h.4l5.1,1.4m-3.3,.4v1.5l2.6,-.8l-2.6,-.7m1.9,4.8l-.8,.3h.8l.3,.4l1.5,.4v1.4h-.4L843,252.3h-1.8l-.4,-.4v-.7h.4l1.8,-.4l3.3,-1.5V249h.4v1.4l-1.5,.8h-.3m2.2,5.1v2.9h-.8L846,257h-1.1v1.5l-.4,.7l-.4,.4l-.7,.4l-1.1,-.4l-.4,-.4l-.3,-.7l-.4,-.7v-1.5h.4l.3,-.4h.4v2.2l.4,.4h.7l.4,-.4l.3,-.3v-.4l-.3,-.4v-.7h.3l2.6,-.4l.4,.4m.3,6.2v.8l-.3,.3l-.4,.4l-.7,.4h-.4l-.7,-.4l-.8,-.4l-1.1,-.7l-.7,-.7l.4,2.2v.3h-1.1v-4h.7l.4,.4l1.1,1.1l.7,.3l.4,.4H846v-.4h.3v-.7l-.3,-.4v-.7h.7l.4,.4v.3l.3,.4v.7m.4,5.5v.4l-.4,.4l-.3,.3l-2.2,1.1h-.4l-.4,.4l-.3,.4h1.1l2.5,-.4l.4,.4v.7l-5.5,.4l-.4,-.4v-1.1h.4l.4,-.4l2.5,-1.4l.8,-.4l.3,-.4h-.7l-.7,.4h-3v-1.1l5.2,-.4l.3,.4l.4,.7m-.4,5.9l.4,.7l.4,1.1v1.1l-.8,1.1l-.7,.4l-1.5,.4h-1.1l-1.1,-.8l-.7,-.7V275l.4,-1.1l1.1,-.4l1.1,-.3h1.4l1.1,.7m-4,2.9l.4,.4h.7l.7,.4l.8,-.4h.7l.4,-.7V275l-.4,-.4l-.7,-.3h-.8l-1.1,.3h-.3l-.4,.8l-.4,.7l.4,.7m4.8,3v2.9l-.4,.4l-.4,.3h-1.8v-.3l-.4,-.4h-.3v.4h-.4l-.4,.3l-1.1,.4l-.3,.4v-1.5l1.1,-.4l.7,-.3l.4,-.4v-.7h-2.6v-1.1h.4l5.1,-.4l.4,.4m-2.6,1.1V282l.4,.3h1.1l.3,-.3v-1.1h-1.8m2.9,2.9v4.4h-.7v-1.5h-5.1v-1.1h.3l4.4,-.3v-1.5h1.1m0,5.1v.4h.4v.7l-.4,.4h-2.2l.4,2.2h2.2v1.1H843v-1.1h2.6v-2.2H843v-1.1l5.5,-.4M416.9,531.3l.8,4.7l-.4,.4h-.7l-.8,-4.8l-1.4,.4H414v-1.1l4,-.7h.4v1.1h-1.5m-3.3,.7v.4h-.3V532h-1.1l-.4,.4l-.4,.3l.4,.4l.4,.4h.7l.7,.3l.4,.4l.4,.4v1.1l-.4,.7l-.4,.4l-1.1,.3h-1.4V536h.3l.4,.4h.7l.4,-.4h.4v-1.1h-.4l-.4,-.3h-1.1l-.3,-.4l-.4,-.4l-.4,-.7v-.7l.4,-.4l.7,-.4l.8,-.3h1.4v.7m-6.2,1.1l.4,1.5l1.8,-.4v.7l-1.8,.4l.3,1.5l2.2,-.4v.7h.4v.4h-.4l-2.9,.4l-.4,-.4l-.7,-4.8v-.3h.4l2.5,-.8h.4v1.1l-2.2,.4m-2.2,0l-.4,5.1l-.3,.4H403l-1.5,-3.7l-.3,3.7v.4l-.4,.3h-1.1V539l-2.2,-4.8v-.4h1.1l1.8,4.4l.4,-4.7v-.4h1.1v.4l1.8,4l.4,-4.4v-.4h1.1v.4m-10.6,1.8l.3,1.1l.8,1.1v1.1l-.8,1.1l-.7,.8l-1.1,.3l-1.5,.4h-.3v-.4l-.8,-5.1v-.4H392l1.5,-.3l1.1,.3m-3,.8l.8,4h.3l1.1,-.4l.4,-.3v-2.6l-.4,-.4l-.7,-.3h-1.5m-4,0l2.9,4.7v.4h-.3l-.4,.4h-.4l-.3,-.4l-.4,-1.1l-2.2,.4v1.4h-.4l-.3,.4h-.4v-.7l.7,-5.2v-.3h1.5m-.7,1.1l-.4,2.5l1.8,-.3l-1.4,-2.2m-3.3,.3l.7,.8l.4,1.1v1.4l-.4,.8l-.7,.7l-1.1,.7h-1.1l-1.1,-.3l-.4,-1.1l-.4,-1.1l-.3,-1.5l.3,-.7l.8,-.8l1.4,-.3l1.1,-.4l.8,.7m-2.6,4.1l.7,.3h.8l.7,-.3l.4,-.4v-1.5l-.4,-.7l-.4,-.7l-.3,-.4h-.8l-.7,.4l-.4,.3v2.2l.4,.8m-4.4,-3.7l.4,.4h.7l.4,.3v1.9l-.4,.3h-.4l.4,.4l.4,.4l.3,.3l.8,1.1v.4h-1.1l-.8,-1.1l-.3,-.4l-.4,-.3h-.7l.3,2.2h-.3v.3h-.8L374,538.2l.4,-.3h1.5l.3,-.4h.4m-1.5,1.1l.4,1.8l.7,-.3h.4l.4,-.4V539l-.8,-.4h-1.1m-6.2,1.1l.4,1.5l1.4,-.4h.4v1.1l-1.8,.4l.3,1.4l1.9,-.3h.3v.7l-2.9,.7h-.4v-.3l-.7,-5.2V539l2.9,-.4l.4,.4v.3h-.4l-1.8,.4m-2.6,0l1.1,5.1v.4h-1.8v-.4l-1.8,-2.5l-.4,-.4l-.4,-.7v1.4l.8,3v.3h-1.1l-.8,-5.1v-.4l.4,-.3h1.1v.3h.4l1.4,1.9v.3l.4,.4l.4,.4v-1.1l-.8,-2.6h.4l.4,-.4h.3v.4m-5.8,6.6h-.4l-.7,-5.5v-.4h1.1l.7,5.5l-.4,.4h-.3m-3.7,-5.1l.7,4.4l1.9,-.4v1.1l-2.6,.4h-.4v-.4l-.7,-5.1h1.1m-5.9,.7l.4,.4h.7l.4,.3v1.9l-.4,.3h-.3l.3,.4l.4,.4l.4,.3l.7,1.1v.4h-1.1l-.7,-1.1l-.4,-.4l-.4,-.3h-.7l.4,2.2h-.4v.3h-.7l-1.1,-5.5l.3,-.3h1.5l.4,-.4h.3m-1.1,1.1v1.8l.8,-.3h.3l.4,-.4v-.7l-.7,-.4h-.8m-4.4,.7v1.5l1.9,-.4v.4l.3,.4l-.3,.3l-1.5,.4v1.5l2.2,-.4v.4h.4v.3H348l-2.6,.8h-.3v-.4L344,543.4l.3,-.4l3,-.4v.8l-1.9,.3m-2.2,0l-.7,5.2v.3h-.4l-.3,.4H341v-.4l-1.4,-3.3l-.4,3.7v.4h-1.5l-2.2,-4.8l-.3,-.4h.3l.4,-.3h.7v.3l1.9,4.1v-4.8h1.4l1.9,4l.3,-4.4v-.3h.8l.3,.3m-8,2.6l.3,1.5v1.1l-.3,1.1l-.8,.7l-1.1,.4h-1.1l-1.1,-.4l-.7,-.7l-.4,-1.5v-1.1l.4,-1.1l.7,-.7l1.1,-.4h1.1l1.1,.4l.8,.7m-3.3,3.7l.3,.3h.8l.7,-.3l.4,-.8l.3,-.3l-.3,-1.1V547l-.4,-.3l-.4,-.4h-1.4l-.4,.7l-.4,.8v.7l.4,.7l.4,.8m-2.6,-3v2.2l-.7,.4l-1.1,.4h-.4l.4,1.8l-.4,.4h-.7L325.3,547v-.3l.3,-.4h3l.3,.4l.4,.3m-2.6,0l.4,2.2l.4,-.3h.3l.4,-.4v-1.1l-.4,-.4h-1.1" class="gd_54"/>
<path d="M60.1,879.2V88.7H993.7V879.2H60.1Z" class="gc_54"/>
<path fill-rule="evenodd" d="M84,121l10.6,38.1L82.5,150.3L69.7,158L84,121ZM82.1,105.6l5.5,7.3l.4,-5.5v-.7l-.4,-.4h-.3l-.4,-.3h2.9v.3H88.7l-.3,.4l-.4,8.4h-.4l-5.5,-7.3l-.3,5.1v1.5h1.1v.4l-3,-.4h.8L81,114v-.3l.4,-.8v-6.2l-.4,-.4l-.7,-.3h-.7l.3,-.4h2.2Z" class="ge_54"/>
<path d="M84,121l10.6,38.1L82.5,150.3L69.7,158L84,121M82.1,105.6l5.5,7.3l.4,-5.5v-.7l-.4,-.4h-.3l-.4,-.3h2.9v.3H88.7l-.3,.4l-.4,8.4h-.4l-5.5,-7.3l-.3,5.1v1.5h1.1v.4l-3,-.4h.8L81,114v-.3l.4,-.8v-6.2l-.4,-.4l-.7,-.3h-.7l.3,-.4h2.2" class="gf_54"/>
<path fill-rule="evenodd" d="M1048,589.9v-4.4h43.3v4.4H1048Z" class="gg_54"/>
<path d="M1091.3,589.9v-4.4h43.3v4.4h-43.3ZM1012.1,66V901.2" class="gc_54"/>
<path d="M1012.1,723h165m-82.5,.4v16.5m-82.5,-33.4h165M1012.1,671h165m-165,-50.3h165m-165,-53.5h165m-165,-436.7h165m-165,20.2h165m-165,112.9h165m-165,13.6h165m-165,463.1h165" class="gh_54"/>
<path fill-rule="evenodd" d="M1015,899.4V743.2h159.5V899.4H1015Z" class="gi_54"/>
<g clip-path="url(#c1_54)">
<path fill-rule="evenodd" d="M1015,899.4V743.2h159.5V899.4H1015Z" class="gi_54"/>
<path fill-rule="evenodd" d="M1145.6,735.5l-.4,.4v.3l-.4,.8v.3l-.3,.8l-.4,.3l-.7,.8l-.4,2.5l-.4,.4l-.3,1.1l.3,.4l-.3,.7l-.8,.7l-.3,.4v1.1l-.4,.7l-.7,1.1h-.4v.4l-.4,.4l-.3,.7l-.4,.7l-.4,.4h-.3l-.4,.4l-1.1,1.8l-.7,1.8v.8l.7,1.4v.4l.7,1.1l1.5,2.2l.4,.7h1.1l-.4,.4v.4l-.4,.3l-.3,.4l-.8,.7l-1.1,-1.1l.8,-1.1l-1.1,-1.1l-.8,-.7l-.3,-.4l-.8,-.3v-.4h-1.8v.4l-.7,.3l-.4,.8h-.4v.3h-.3l-1.5,1.5v.7h-.7v.4l-.4,.4l-.7,.3v.4l-.4,.4h-.4v.3l-1.1,1.1v.8h.4v.3l-.4,-.3l-.3,.3h-.4v.4l-.7,.7l-.8,1.1l-.7,1.9l-.4,.7l-.3,.7v.8l-.4,.7v.4H1121l-.4,.3l-.7,.4v.4h-.4v.3l-.3,.4l-.4,.7v.8h-.4v.3v-1.1h.4h-.4v-.3v.3h-1.1v-.3h-.3v-.4l-.4,-.4v-1.1h.7v.4v-.4h.4l.4,-.3h-.4V774h-.4l-.3,-.4h-.4l.4,.4v.4h-.8v2.2l-.3,.3l.3,.4v.7l.4,.4h.4v.7h-.4l-.4,.4v-.4h-.3v-.3l-.8,-.4l-.3,-.4h-.4v-.3h-.4v.7h.4v.4h-.4h.4v.3h-.4v.4h-.4v.4h-1.1v.3h-.3v1.1h.3v.4l-.3,.4h-.8v-.4v.7v-.3h-.3v.3h-.8v.8l-.3,.3h-.4l-.7,.4v.4h-.4v.7l-.4,.4v.3h-.3l-.4,.4v-.4h-.4v.8h-.3v.3l.3,-.3v.3l-.3,.4h-.4v.4h-.4v.3l.4,-.3l.4,-.4l.3,-.4h.8v-.3h.3v-.4h-.3v.4v-.8h.3v-.3h.4h-.4v.7l.4,.4v.7v-1.1l-.4,-.4h.4v-.3h.4V785h.3v-.4l.4,-.3h.4l.3,-.4l.4,-.4l-.4,.4l-.3,.4v.3h-.4l.4,.4h-.4v.4h.4V785l.3,.4l-.3,.3v.4l-.4,.4h.4h-.4v.3h.4v-.3h.3v-.8h.4l.7,-.3v-.8h.4v-.3h.7v-.4h.8l.3,-.4l.4,-.3v-.4l.4,-.4h.4l-.4,.4v.7h.4v-1.1h.3v-.3l.8,-.4h.3h-.3v-.4h.3v.4h.4l.4,.4l.3,1.1l.4,1.4v.8l.4,.3l-.4,-.3v-2.2l-.7,-1.1v-.4h-.4l-.4,-.7v-1.5h.4v-.4h.4l.3,.4l.4,.4l.4,.3l.3,.4l.8,.4l.7,.3l.7,-.3h3v-.4h.3l-.3,-.4h.3l.4,-.3h-.4v-.4l.4,-.4l-.4,-.3h.4v-.4h.4h-.4h.4l.3,-.4v.4V778h.4l.4,-.3h.3v-.4l.4,-.4l1.5,-.3l.3,.7v.7l.4,.4l-.4,-1.8l1.1,-.4l.4,1.5v-1.5h.4l.3,1.5v-.8h.4v.8l.4,-.4v-1.1h.7v.4h1.1v.3h.4v-5.8h.3l.4,-.4h2.6v.4l.3,-.4l2.6,-.4l.4,6.6h.3l-.3,-1.1V770h1.4v.7l.4,-.7h.4l.3,4.7v-2.9l.4,-.7l1.1,.3v2.2l.4,.4l.7,-.4v-1.4l1.1,.3v2.6h.4l-.4,-2.6l1.5,-.3v.3l-.8,.4v.7l.4,.4h.4l.3,.4l.4,-.4l.4,.4v.3l.3,-.7h1.1l.4,-.4v-.3v.3v-.3l.4,.3l.3,.4l.4,.7h.4v.4h.7l.4,.4l.3,.7l.4,.4h.4v.7v-.7l-.4,-.4l-.7,-.7l-.4,-.4l-.4,-.4h-.3l-.4,-.3l-.4,-.4l-.3,-.4v-.3h-.8l-.3,-.4l-.4,-.4l-.7,-.3h-1.1l-1.1,-.8l-1.1,-.3h-.4l-.4,-.4l-2.9,-2.9l.7,-.8l-1.4,-1.8l-1.9,-1.8l-.3,.3v-.3l.3,-.4v-.4l.4,-.3v-.4h.4v-.4l.3,.4l.4,.7l.4,.4l.3,.4l.4,.7l.7,1.1l.8,.7l1.1,1.1l1.4,1.1l.8,.8l2.5,1.8l1.5,1.1l.4,.4v.3l.3,.4l1.1,.4l1.1,.7l1.9,1.1l.3,.4l.8,.3l.7,.4h.4v.4v-.4v.4l1.1,.3h2.5l.4,-.3h.4l.3,-.4h1.1v-.4h3l.3,.4h.8l.3,.4h2.2l.4,.3h2.2v-.3h1.1v-.4h1.1l.4,-.4l.3,-.3h3l.3,-.4h1.1l.8,.4h1.1l.7,.3V907.1H1006.9V735.5h138.7Zm-37.1,49.9v-.8h.4v.4v-.4h.3l.4,-.3v.3h-.4l-.3,.4l-.4,.4Zm28.6,-23.5v-.4l.4,.4l-.4,.4v-.4Zm-26,20.9v-.4h.3v.4h-.3Zm3.7,-.4v-.3v.3Zm-1.9,-1.8h.4h-.4Zm14.3,-14.3v-.4h.4v.4h-.4Z" class="gj_54"/>
<path fill-rule="evenodd" d="M1145.6,735.5l-.4,.4v.3l-.4,.8v.3l-.3,.8l-.4,.3l-.7,.8l-.4,2.5l-.4,.4l-.3,1.1l.3,.4l-.3,.7l-.8,.7l-.3,.4v1.1l-.4,.7l-.7,1.1h-.4v.4l-.4,.4l-.3,.7l-.4,.7l-.4,.4h-.3l-.4,.4l-1.1,1.8l-.7,1.8v.8l.7,1.4v.4l.7,1.1l1.5,2.2l.4,.7h1.1l-.4,.4v.4l-.4,.3l-.3,.4l-.8,.7l-1.1,-1.1l.8,-1.1l-1.1,-1.1l-.8,-.7l-.3,-.4l-.8,-.3v-.4h-1.8v.4l-.7,.3l-.4,.8h-.4v.3h-.3l-1.5,1.5v.7h-.7v.4l-.4,.4l-.7,.3v.4l-.4,.4h-.4v.3l-1.1,1.1v.8h.4v.3l-.4,-.3l-.3,.3h-.4v.4l-.7,.7l-.8,1.1l-.7,1.9l-.4,.7l-.3,.7v.8l-.4,.7v.4H1121l-.4,.3l-.7,.4v.4h-.4v.3l-.3,.4l-.4,.7v.8h-.4v.3v-1.1h.4h-.4v-.3v.3h-1.1v-.3h-.3v-.4l-.4,-.4v-1.1h.7v.4v-.4h.4l.4,-.3h-.4V774h-.4l-.3,-.4h-.4l.4,.4v.4h-.8v2.2l-.3,.3l.3,.4v.7l.4,.4h.4v.7h-.4l-.4,.4v-.4h-.3v-.3l-.8,-.4l-.3,-.4h-.4v-.3h-.4v.7h.4v.4h-.4h.4v.3h-.4v.4h-.4v.4h-1.1v.3h-.3v1.1h.3v.4l-.3,.4h-.8v-.4v.7v-.3h-.3v.3h-.8v.8l-.3,.3h-.4l-.7,.4v.4h-.4v.7l-.4,.4v.3h-.3l-.4,.4v-.4h-.4v.8h-.3v.3l.3,-.3v.3l-.3,.4h-.4v.4h-.4v.3l.4,-.3l.4,-.4l.3,-.4h.8v-.3h.3v-.4h-.3v.4v-.8h.3v-.3h.4h-.4v.7l.4,.4v.7v-1.1l-.4,-.4h.4v-.3h.4V785h.3v-.4l.4,-.3h.4l.3,-.4l.4,-.4l-.4,.4l-.3,.4v.3h-.4l.4,.4h-.4v.4h.4V785l.3,.4l-.3,.3v.4l-.4,.4h.4h-.4v.3h.4v-.3h.3v-.8h.4l.7,-.3v-.8h.4v-.3h.7v-.4h.8l.3,-.4l.4,-.3v-.4l.4,-.4h.4l-.4,.4v.7h.4v-1.1h.3v-.3l.8,-.4h.3h-.3v-.4h.3v.4h.4l.4,.4l.3,1.1l.4,1.4v.8l.4,.3l-.4,-.3v-2.2l-.7,-1.1v-.4h-.4l-.4,-.7v-1.5h.4v-.4h.4l.3,.4l.4,.4l.4,.3l.3,.4l.8,.4l.7,.3l.7,-.3h3v-.4h.3l-.3,-.4h.3l.4,-.3h-.4v-.4l.4,-.4l-.4,-.3h.4v-.4h.4h-.4h.4l.3,-.4v.4V778h.4l.4,-.3h.3v-.4l.4,-.4l1.5,-.3l.3,.7v.7l.4,.4l-.4,-1.8l1.1,-.4l.4,1.5v-1.5h.4l.3,1.5v-.8h.4v.8l.4,-.4v-1.1h.7v.4h1.1v.3h.4v-5.8h.3l.4,-.4h2.6v.4l.3,-.4l2.6,-.4l.4,6.6h.3l-.3,-1.1V770h1.4v.7l.4,-.7h.4l.3,4.7v-2.9l.4,-.7l1.1,.3v2.2l.4,.4l.7,-.4v-1.4l1.1,.3v2.6h.4l-.4,-2.6l1.5,-.3v.3l-.8,.4v.7l.4,.4h.4l.3,.4l.4,-.4l.4,.4v.3l.3,-.7h1.1l.4,-.4v-.3v.3v-.3l.4,.3l.3,.4l.4,.7h.4v.4h.7l.4,.4l.3,.7l.4,.4h.4v.7v-.7l-.4,-.4l-.7,-.7l-.4,-.4l-.4,-.4h-.3l-.4,-.3l-.4,-.4l-.3,-.4v-.3h-.8l-.3,-.4l-.4,-.4l-.7,-.3h-1.1l-1.1,-.8l-1.1,-.3h-.4l-.4,-.4l-2.9,-2.9l.7,-.8l-1.4,-1.8l-1.9,-1.8l-.3,.3v-.3l.3,-.4v-.4l.4,-.3v-.4h.4v-.4l.3,.4l.4,.7l.4,.4l.3,.4l.4,.7l.7,1.1l.8,.7l1.1,1.1l1.4,1.1l.8,.8l2.5,1.8l1.5,1.1l.4,.4v.3l.3,.4l1.1,.4l1.1,.7l1.9,1.1l.3,.4l.8,.3l.7,.4h.4v.4v-.4v.4l1.1,.3h2.5l.4,-.3h.4l.3,-.4h1.1v-.4h3l.3,.4h.8l.3,.4h2.2l.4,.3h2.2v-.3h1.1v-.4h1.1l.4,-.4l.3,-.3h3l.3,-.4h1.1l.8,.4h1.1l.7,.3V907.1H1006.9V735.5h138.7Zm-37.1,49.9v-.8h.4v.4v-.4h.3l.4,-.3v.3h-.4l-.3,.4l-.4,.4Zm28.6,-23.5v-.4l.4,.4l-.4,.4v-.4Zm-26,20.9v-.4h.3v.4h-.3Zm3.7,-.4v-.3v.3Zm-1.9,-1.8h.4h-.4Zm14.3,-14.3v-.4h.4v.4h-.4Z" class="gk_54"/>
<path d="M1108.5,771.4l-.7,-.3l-.4,-.4l-1.1,-.4l-.3,-.3m-84,75.1v0h-.4m.4,0h-.4M1105.9,770h-.3l-.8,-.4m-5.1,-2.2l-1.1,-.4l-1.5,-1.1l-1.8,-.7m25.7,-2.6l.4,-1.1l.3,-1.8l.8,-2.2l.3,-.7v-.4l.4,-.7v-.4l.4,-.7m26,17.6l-.7,-.4l-.8,-.7l-1.8,-1.1l-.7,-.4l-.4,-.4h-.4v-.3l-.3,-.4l-1.1,-1.1V767m-107.9,90.2v-.3h.4l.4,-.4h.3m47,-31.2l.7,-.7l.7,-.4m-68.2,12.5l-1.1,-1.5l-.3,-.7m-.8,-92.4l-.3,-.4l-.4,-.3l-.7,-.8l-.4,-.7l-.7,-.7l-.4,-.8l-.4,-.3l-.3,-.4h-.4v-.4h-.4l-.3,-.3m5.5,97.5l-.8,-.7m94.7,-31.6h-1.9l-.3,.4h-.4M1069.3,796v0m59,4.8l-1.8,.3h-1.1m-4,28.3h-5.5l-.4,-.4h-.4v-.4h-.3l-1.9,-1.8v-.4h-.3v-.3l-.4,-.4l-2.2,-3.3V822l-.4,-.3v-.8m-55.7,-26h-.8M1132,756.8l-2.6,-1.1M1069.3,796l.3,-.4m-40.3,62.7l-1.1,.4h-1.1m85.8,-57.2h-1.1m16.2,53.2h-.8m-70.4,-59.4l-1.1,-.4h-1.1m12.8,42.5l1.1,-1.1l.4,-.3h.4l.3,-.4v-.4h.4v-.3h.4l1.4,-2.2l.4,-.4v-.4h.4v-.3h.3v-.4h.4v-.4h.7v-.3h1.1l.8,-.4h.7l.4,-.4h1.1v-.3h.7V829h.7v-.4h.4l.4,-.3h.3v-.4h.4l.4,-.4l.3,-.3v-.4h.4m-13.2,-30.4v0m-.4,-.4v0m.4,.4V796h-.4m0,0h-.3m46.6,-22.7l1.8,-1.5v-.4l.4,-.3v-.4l1.1,-1.5l.3,-.7l.8,-1.1v-.7l.3,-.4m7.7,-17.6l.4,-.4V748h.4v-.4m-4.4,.7V748h-.4v-1.1l-.4,-.8l-.3,-1.1l-.4,-.3l-.4,-.8v-.3l-.3,-.8l-.4,-.7l-.4,-1.1l-.3,-.7v-.4l-.4,-.7l-.4,-.4v-.4l-.3,-1.1m27.8,65.3h.4v-.4h.4l.3,-.3M1068.2,796h-1.9l-.7,-.4h-.7m43.3,21.3l-.4,-.4l-.4,-.3v-.8l-.3,-.3l-.4,-.4l-.4,-.7m44.4,-25l.4,-.3v-.4h.3v-1.8m-44.7,13.2v-1.5h.4v-.4l.3,-.3l.8,-.8l.3,-.3h.4V796h.4l1.4,-1.1m37.8,4l.4,-.3v-.4l.3,-1.1v-.4l.4,-.3V796l-.4,-1.1v-.4m-.3,4.8v-1.5l.3,-.7v-.4h.4v-2.2m-106.7,58.7l1.4,-.7m123.6,46.9l1.1,-.7M1156.9,778h-.3l-.4,-.3h-.4l-.3,-.4v-.4m-48.8,22.8v-1.5h.4v-.4h.3l.4,-.7h.4l.3,-.7h.4V796h.4l.3,-.4h.4l.7,-.3m40.7,-9.2h.4v-.4l.4,-.3l.3,-.4l.4,-.4m-1.5,2.6v-.7h.4v-.8h.4v-.3h.3V785h.4v-.4m-5.5,18l.4,-.4h.3v-.3l.4,-.4v-.4h.4v-1.8m6.6,-22.4l-.8,-.3l-.3,-.4m-70.5,9.9h.4l.4,-.4l.3,-.3m63.1,16.5l.4,-.4v-.7h.4v-1.1l-.4,-.4v-.4M1128,847.3l-.4,-.7v-2.2M1154,780.2v-1.1h.4v-.3m-40,-1.5h-.4v-.7h-.3v-.8h.3v-.3m-70.4,77.3l1.1,-.3h.4m-.8,0h.4l2.2,-1.1M1070,753.5l-1.5,-.8l-1.1,-.3l-.3,-.4m-21.7,-8.1v0m133.2,33.4h-4.8l-.7,.4m-54.7,127.6l.4,-1.5v-2.2l.4,-.4v-1.1l.3,-1.1v-.7h.4M1078.4,757.5l-1.1,-.4m-53.5,95.4l-1.5,-4.1v-.3l-.3,-1.5v-1.5m-6.3,-52.4h-2.2l-.7,-.4h-.7m45.8,3h-1.1m48,-25.7v0m-20.9,16.5v0m-38.8,66.4l1.8,-.8m57.6,-82.5h-.8l-1.1,-.7m48.8,19.8v-1.1m-67.5,-27.1l-1.4,-.8l-3.3,-1.4l-.8,-.4m-40.7,97.9l.8,-.4h.3v-.3h.8l.3,-.4l1.5,-.7l1.1,-.4h.4m108.5,-66.7v-.4m-27.8,-31.9l.3,-.4v-.3l.4,-.4l.4,-.4l.3,-.3h.4V752h.4v-.4h.3m-.7,120.7l-.4,-.8v-.3l-.3,-.4h-.4v-.4h-.7l-.4,-.3h-.4l-.3,-.4l-.4,-.4v-6.2l.4,-.4v-2.5h.3v-.4l.8,-1.1V858h.3v-1.9l.4,-.7m23.1,-52.8h-.4l-.3,.4h-.8m7,-18.4l.4,-.3v-.8m-49.2,30.1v-.4h.4v-.7h.3v-.7l.4,-.4v-1.1m-58.3,41.4l2.9,-1.4l1.1,-.4l1.1,-.4h.4l.4,-.3h.3l.4,-.4l.4,-.4l1.4,-1.1m97.6,-62.7v-.3l.4,-.4l.3,-.7v-1.1m-50.2,32.6v-.4h.3V814l.4,-.4m-.7,1.1v-.4h.3V814h.4v-.4l.4,-.4l.3,-.3v-.8l.4,-.3V811l.4,-1.1m-3,5.2h.4v-.4h.4m2.2,-1.8h-.4v-2.2l.4,-.8m44,-15.4v-3.6l.4,-.4m-.8,4v-1.8l.4,-.4v-1.4m-95.7,-44v-.4m0,0l-.8,-.4l-1.1,-.7l-.3,-.4h-.8m-33.7,48.1l-1.1,-.4h-.4m114.1,-48v-.4h.4l.3,-1.5l.4,-1.8l.4,-1.1m-91,2.9h-.4l-.7,-.3m15.4,52.4h-.7m96.1,-5.1h.3v-.4l.8,-.4v-.3h.3v-.4m-48.8,-19.8h-.3m12.1,8.8h-.4v-.4l-.3,-.3v-.8m4,8.1v-1.1h-.4v-.7l-.3,-.8l-.4,-.3v-1.1l-.4,-.4v-.7h-.3v-.4h-.4V778l-.7,-.3h-.4v-.4m12.8,77.4h-1.4m-69,-107.5v-.3h-1.5m78.9,53.9h-2.6m31.2,-23.1h-.4l-.7,.3h-4.8M1045.4,743.9l-.7,-.3h-1.8M1022,793.4h-3l-1.1,-.3h-.7m113.3,8h-2.2M1016.1,744.3l-.4,-.7m128,57.9h-.3v-.4h-.4l-.4,-.3h-.7l-.4,-.4h-.3l-1.1,.4m-50.3,-38.2h-.4m34.9,38.5h-1.8m-40.8,-13.5l.8,-.4l.3,-.4l.8,-.3l.3,-.4m32.7,2.2l.4,-.4l.7,-.3v-.4m-89.5,71.5h-1.5l-.7,.4l-2.2,.3h-.7m12.1,-2.2h.3l.4,-.3h.4l.7,-.8m48.4,-70.7V785h.4m60.1,18v-.4h-1.1v-.4h-.3v-.3h-.4l-.4,-.4m-116.6,57.2l-.4,.4l-1.8,.3h-1.5l-2.2,.4h-.3m41.8,-110l-.4,-.4h-.4l-.7,-.3m-16.1,45.1h-3.3l-1.9,-.4h-2.5l-1.5,-.4h-.4M1162.1,778h-5.9v-.3h-.4v-.4h-.3l-.4,-.4m-40.7,13.6l.7,-.4l.4,-.3h.4v-.4l.3,-.4v-.3h.4v-.4M1014.3,888.4L1011,884m93.8,-114.4v0M1050.9,745l-.7,-.3h-.4m55,24.9v0m-35.9,26.8v0m48.8,-12.9v-.7l-.4,-.4v-.3L1117,781l-.4,-.4v-1.1h-.4v-.7l-.3,-.4l-.4,-.4h-.4l-.3,-.3h-.4v-.4m-92.8,67.1v-1.1l-.4,-.4v-.3l-2.9,-4.1m104.5,-81.7l.4,-.8v-.3l.4,-.8v-.7m-54.7,42.2h.4V796m-41.5,-2.6h-.3l-1.5,-.3v-.4h-1.8M1006.9,752l.8,-.4l.7,-.3l.4,-.4l.7,-.4l.4,-.3l.3,-.4l.4,-.4l.7,-.3l.8,-.4l.7,-.4l.7,-.7l1.1,-.7m90.2,23.4v-.7M1048,794.5h-1.5m55.8,-26l-.4,-.4h-.7m-9.6,-4.4l-1.4,-.7l-.4,-.4m-54.6,30.8H1033m94.6,51v-3.3m-58.7,-44.7v0m16.5,-11l.4,-.4m9.1,-6.2h.4l.7,-.4l.8,-.7l.7,-.4l.4,-.4m-25.3,-22.3h-.8m67.2,46.2h-2.6M1085.8,785l.7,-.4m41.5,70.1v-.8m.3,-52.8h-1.1m-22.7,-30.4h.3v-.4M1015,742.8l-.4,-.7m24.6,.4l-.4,-.4l-1.1,-.4h-.3l-.4,-.3l-.4,-.4l-.3,-.4h-.4l-.4,-.3h-.3l-1.9,-.8m73,65.3l.4,-.7V803l.3,-.4v-1.8l-.3,-.8v-.3m-16.2,-18l.8,-.4m-1.9,-18.7l-.3,-.3l-3.7,-1.5l-.4,-.4m-16.1,36V796h-.4m-54.2,66.7l4,-2.2l.7,-.3l1.5,-.4h.4m86.2,-57.9v-1.5h-.4v-.7m48.4,-22.8l-.4,-.3l-.3,-.4l-.4,-.4M1016.1,744.3v-.4l-.7,-.7m57.2,11.7v-.3M1033,793.4h-1.1m42.5,-37.7l-.7,-.4l-1.1,-.4m-5.5,-2.9h-.4l-1.1,-.7l-1.5,-.8h-.3m41,19.8v-.7m-35.9,26.8h.4V796m35.5,-26.4h-.3v-.4m-32.7,-14.6l-.7,-.8l-1.1,-.3m34.8,16.1v0m-80.6,23.1h-.4l-.4,.4h-.7l-.4,.3h-.3m50.6,-38.8h-.8m-50.2,90.5v-.3m115.2,-84.7l-.4,-.4l-.4,-.4l-.3,-.3v-.4h-.4v-.4h-.4v-.3h-.3l-.4,-.4h-.7l-.4,-.4h-.4l-.7,-.3h-.4m-117,-9.9l.8,-.4l.7,-.7l.7,-.4l.4,-.4l1.1,-.7l.7,-.4v-.3h.4m49.5,52.8v0m3.7,-41.5v-.3m25.3,22.3l.3,-.3m-11.7,8l.7,-.7l.4,-.4m39.6,17.6h-2.9m-6.6,-13.9h.4v-.4h.3v-1.4h-.3v-1.1l-.4,-.4M1014.3,747.2l2.5,-1.8l1.1,-.7m17.6,48.7h-.3m1.4,63.1l1.1,-1.1m47.3,-95l-1.1,-.3m26.8,34.8h.4l1.1,-.7l.4,-.4h.3v-.4h.4v-.3h.4v-1.5h.3v-.7m-3.3,4.4l2.2,-1.5l.4,-.4l.4,-.3V792l.3,-.4v-.7h.4v-.4m13.6,63.4v-6.6m8.4,-46.5h-2.2m-9.9,54.6v-.7m-106.7,37.7l-1.9,-2.5l-1.4,-1.5M1085.8,785v0m37.4,99l1.5,-7.3m-89.5,-19.5h-.4l-.4,.4l-2.9,.4l-2.2,.3m90.6,40v-.7l.7,-2.6l.8,-4M1104.8,769.6v0l-.3,-.4m13.2,18h.4v-.4h.3v-1.4l-.3,-.4v-.7l-.4,-.4v-.4m3.7,107.5l.7,-3l.4,-2.2l.3,-1.4l.4,-.4M1021.6,844.8v-.4m94.3,-55V789h.3v-.3l.4,-.4m-15.4,-20.2l-1.1,-.7h-.4m-53.2,27.1l-1.4,-.3m44.7,-31.6h-.4m17.3,52.1l-.4,-.4V814h-.3v-.4h-.4v-.4h-.4m1.1,.8h-.4l-.3,-.8v-.3m-10.3,-47.7v0m31.9,71.1V833m-63.4,-82.5l-.4,-.3h-.4l-.3,-.4m13.5,41.8l.4,-.7h.4v-.4m1.4,-.7h.4l.7,-.8l2.2,-1.4m-28.6,7.3h-.3l-.8,.4h-2.9l-1.1,-.8m-26.4,50.6v-.3m67.5,-62l.7,-.4l.7,-.7m40,19.1h-2.2m-20.1,16.1l-.4,-.4v-.3l-.7,-.8l-.4,-.3v-.4M1006.9,752h.4l1.1,-.7l.7,-.4l5.2,-3.7m78.4,33l2.2,-1.4M1055.3,847l.4,-.4l1.1,-.7l1.8,-1.5l1.1,-1.1l2.2,-1.5l1.1,-.7l1.1,-1.1l.4,-.4l.7,-.7l.8,-.4l1.4,-1.4m-48,-93.5l.4,-.4h.7l.4,-.4h.3l.8,-.3l.7,-.4h.7l1.1,-.4l1.1,-.3l.8,-.4h.7v-.4h.7v-.3h.4l.4,-.4h.3v-.4h.4v-.3h.4m67.1,78.4v.4h-1.9l-.3,-.4h-1.5m-23.5,-22h.4l1.1,-.7l1.1,-.7l.4,-.4l1.1,-.4l.3,-.3m54,-45.5l.3,-.7l.8,-.4v-.4m-7.7,55h-3m8.1,-51.7l.4,-.3l.3,-.8l.4,-.3m-48.1,41v0m-14.6,6.6h-.4m-.4,0h-2.9l-.4,-.3h-2.9m69.7,45.8v-3.7l-.4,-1.1M1085.8,785v0m12.4,-8.4l.8,-.4l.7,-.4l.4,-.3l.7,-.4l.4,-.4h.3v-.3h.8l.7,-.8h.4v-.3h.3v-.8h.4l.4,-1.1v-.7m-9.2,-5.5l-1.5,-.7l-1.4,-.8m31.2,-9.1v-.8l.7,-1.1v-.3l.4,-.4v-.4m2.5,81.4v-.7m-112.6,1.5l-.3,-.4V833l-.4,-.7l-1.8,-2.6l-.8,-.3m83.6,-11.8h-2.2m21,-41.8v-.3l.3,-.8l.4,-.3v-.8h.4v-.3m15.7,-30.8l.8,-1.9m4.7,18.7V759l-.3,-.4h-.4v-.4h-.4v-.3h-.3v-.4h-1.1l-.4,-.4h-.4l-.7,-.3m-70.8,-7.7l-1.5,-.8l-1.1,-.3l-1.4,-.8h-.4m-39.2,159.9V902l.3,-4.1v-1.4l.4,-1.5v-1.5l-.4,-.3v-.4h-.3v-.4m25.3,-148.8l-.8,-.4M1154,775.8l-1.1,-.7l-.4,-.4v-.3h-.3V774h-.4l-.4,-.4M1042.1,743.2h-1.8v-.4m137.9,34.5h-5.5M1017.9,744.7l.8,-.8h.3l.4,-.3h.4l.3,-.4h.4l.4,-.4h.7l.7,-.3h.4l.4,-.4l1.1,-.4h.7l.7,-.3l1.1,-.4h.4l.4,-.4h.3l.4,-.3l.4,-.4m63.8,23.8h-.8m-6.6,21.7h.4m-8.1,-28.3l-1.1,-.7l-1.4,-.7h-.4m51.4,99h-1.1m0,22l.3,-.8v-1.4l.4,-.4v-.7l.4,-.8l-.4,-.3m46.9,23.8l.8,-.7l.3,-.4m-106,-57.9l.4,-.4l.7,-.4l.4,-.3l.4,-.4h.3v-.4h.4v-.3l.4,-.4l.3,-.4l.4,-.7l.7,-1.1l.4,-.4l.4,-.3l.3,-.4l.4,-.4h.4l.3,-.3h.8l.3,-.4h1.1l.4,-.4h1.1v-.3h.7l.4,-.4h.4l.3,-.4h.4v-.3h.4l.3,-.4l.4,-.4l.4,-.3l.3,-.4h.4M1127.6,748l.4,-.4l.3,-.4l.4,-.7m-19.1,74.4l-.3,-1.4l-.4,-1.1V818h-.4v-.7h-.3v-.4m-58.4,-72.2h-.3l-.8,-.4h-.7l-2.6,-.4m126.2,152.6l.7,-.4m-117,-149.2h-1.4m55.7,55l-.3,.3m-77.4,-8.8h-4.1m27.5,53.9l1.9,-1.4l.3,-.4l.8,-.7l.7,-.8l1.1,-.7l.7,-.4l.4,-.3l1.5,-1.5l1.8,-1.5l.7,-.3l.4,-.4l.4,-.4l1.4,-1.1m43,-65.2l-.4,-.4l-.7,-.4l-.8,-.3m-26.4,55.7l.7,-.7l.8,-.8m-1.5,1.5l.4,-.4l.7,-.7l1.1,-1.1M1105.9,770h-.3m67.1,7.3h-.4l-1.1,.4h-8.4m-49.1,-4.1h-.4l-.4,-.3h-.3l-.4,-.4l-.7,-.4l-.8,-.3h-.3m19,-16.5h-.7v-.4h-.4l-.3,-.4h-.4m-14.7,18.4h-.3l-.4,-.4h-.4l-.7,-.4l-1.1,-.3l-.7,-.4l-.8,-.4m42.9,2.2l-.3,-.3h-.4l-.7,-.8l-.4,-.3m-41.1,-1.1l-1.1,-.4L1106,770m-18.4,13.5h.4l1.1,-.7m-12.1,7.7l1.4,-.7m11.4,-27.2v0m31.6,-1.1l1.4,-4.7m26.8,34.1v-.4l.4,-.4v-.3l.3,-.4l.4,-.4m-52.8,28.3h.7v-.4h1.1v-.4h.7l.4,-.3l1.1,-.4l.4,-.7h.3l.4,-.4h.4m16.1,-48.4l.4,-.7l.4,-.8v-.3l.3,-.8l.4,-1.1m7.7,-16.1l.4,-.4v-.3h.3v-.4l.4,-.4v-.3m24.2,36.6v-1.8l.4,-.4v-.3h.3v-.4m-56.1,38.9l.7,-.4h.4l.4,-.4h.7v-.3l.7,-.4l.8,-.4l.3,-.3m2.6,-4.8v-.4l.4,-.7v-1.5l.3,-.7v-1.1l.4,-.4v-.7M1150,790.5v-.7m-131.7,48.7l-1.1,-1.1v-.3l-.4,-.4m152.2,62l.4,-.4l.7,-.4M1014.3,862.7l3.6,-2.2h.4l.4,-.3h.7m70.4,-97.6v0m32.7,66.4l-1.1,.4m5.8,3.6h-1.8v-.3l-.4,-.4v-.7l-.3,-.4v-.7l-.4,-.4l-.4,-.4l-.3,-.3h-.8l-.3,-.4m3.6,-77.4v-1.4h.4v-.8h.4l.3,-.7M1074,793.1l1.5,-1.1h.4v-.4h.3m-11.7,4h-.4m27.2,-14.3l.7,-.3l.7,-.8m32,-28.6l.3,-.3l.4,-.4M1105.6,770l-.8,-.4m20.6,-18.7l.4,-.4v-.3l.3,-.4l.4,-.4m-1.8,105.3h-.4m15.8,-54.3l-1.9,.4h-.7m-50.3,20.9l1.5,-1.1l.4,-.4l.3,-.4l.8,-.3l.3,-.4v-.4h.4v-.3h.7V818h.8l.3,-.4m32.7,-16.5h-1.1M1085,824.2l.4,-.7l.4,-.4l1.4,-1.4M1143.4,767l-.4,-.3l-.4,-.4v-.4h-.3l-.8,-.7l-.7,-.7l-.4,-.8l-.7,-.3l-.4,-.8l-.3,-.3l-.4,-.4l-.4,-.4l-.7,-.7l-.4,-.7h-.3l-.4,-.8h-.4m-1.8,41.5h-1.1m3.3,0h-2.2m19.1,-17.3l.3,-.7v-.4l.4,-.3v-.8m-.4,.8v-.8h.4v-1.1m-116.3,75.6l.8,-.4l.3,-.4l.4,-.3h.7l1.9,-1.1l1.8,-.8m100.9,-50.9h-.4l-.7,-.8h-.4v-.3h-.7l-.4,-.4h-1.8M1014.6,742.1l-.3,-.4l-.4,-.3l-1.8,-2.6l-.4,-.4v-.3h-.4v-.4h-.3l-.4,-.4l-.7,-.3m88,80.3l-.8,.3h-.7v.4h-1.1v-.4h-.4M1015,742.8l-.4,-.7m158.5,35.6h-9.6l-.7,.3h-.7m-33,-22.3h-.4l-.4,-.4h-.3v-.4h-.4v-.3h-.4l-.3,-.4m16.5,12.8l-.4,-.3l-.4,-.4l-.3,-.4l-.4,-.3l-1.1,-1.1l-.7,-.8l-1.5,-1.8l-.4,-.4l-.7,-.7l-.7,-.7M1114,775.5v-.4l.4,-.4v-.3l.4,-.4v-.4l.3,-.3v-.4l.8,-.4m33.3,-.7l-1.1,-.7l-1.8,-1.1l-.7,-.4v-.4h-.4v-.3h-.4l-1.1,-1.1v-.4l-.3,-.4m-16.5,-12.8l-.4,-.4v-.3h-.4v-.4h-.3v-.7h-.4v-1.1l.4,-.4v-.7h.3l.4,-.4v-.4m-111.1,-6.2l-.4,-.4m139.4,33.4l-1.1,-1.1l-.4,-.4l-.4,-.3h-.3l-.4,-.4m-65.3,48.4l1.5,-1.1m25.3,-19.8h-1.8v.4h-.8m3.3,-11h.4v-.4l.7,-.4l.4,-.3l.4,-.4m-95,70.4l-1.5,.4m113.7,-59.4h-.7l-1.9,.3M1088,821.3l.7,-.4l.7,-.7l.4,-.4l.4,-.3v-.4h.3v-.4h.4l.4,-.3h.3l.4,-.4h.7v-.4h.4m16.5,-15.4h-.7m-73.4,55h-1.4l-2.6,.8l-2.2,.3m7.7,-2.2l.7,-.3m46.6,-31.2l.7,-.7l.8,-.4l.7,-1.1m41.1,-67.5v-.3h-.4v-.4h-.3v-.4l-.4,-.3l-.4,-.4l-.3,-.4v-2.2l.3,-.3l.4,-.8h.4v-.3l.3,-.4m-20.9,56.1l.4,-.7l.3,-1.5v-.7m11.4,-.8h-3.6l-.4,.4h-1.1m-100.1,62l1.1,-.8m110,-61.6h-1.8m-99.4,58.3l-1.9,.4h-.3m97.5,-58.7h-2.5l-.4,.4h-2.6m-83.6,56.8l-1.1,.4m77.4,-48.8l.3,-2.5l.4,-1.1v-1.5m16.2,-3.7h-3m3,0h-1.1m-1.9,0h-1.1m21.7,-.3H1139M1151.8,774v-.4h-.4v-.3h-.7v-.4l-.7,-.4l-.4,-.3l-.4,-.4m-17.6,29h-1.1m-19.8,1.1h-1.1m-11,15.4h-.4l-.7,.3h-.7m26.8,-68.9l-.4,-.7v-.8l-.4,-.3l-.3,-.8v-.3l-.4,-.8l-.4,-1.1l-.3,-1.1l-.4,-1.1l-.4,-.7l-.3,-.4v-.3l-.4,-.8v-.3l-.4,-.4v-.4M1013.2,863.5l1.1,-.8m1.4,-119.1l-.7,-.8m132,59.8h-1.8v-.4h-.4l-.3,-.3m-97.6,49.5l3.7,-1.5h.3l1.1,-.4l.4,-.3h.4l.3,-.4h.4l.4,-.4l.3,-.3l1.1,-1.1m73.8,-100.9l.3,-.3v-.4l.4,-.4v-.3l.4,-.4v-.4l.3,-1.4m7,58.3h-1.1m-19.8,-12.5l.4,-.4h.3v-.3l.4,-.4m-5.9,14.3v.4h-.7l-1.5,.3m6.3,-29.7l.3,-.3l.4,-.4l.4,-.4v-.3l.3,-.4v-.4l.8,-.7v-.4l.7,-1.1l.4,-.7V767l.3,-.7m-10.6,35.9h-1.1l-.7,.4m12.4,-36.3l.4,-.7l.4,-.4v-.4l.3,-.3v-.4l.8,-2.6m10.2,-4.7l-2.2,-.8l-.3,-.3M1173.4,895h.4l.4,-.4l.3,-.3l.4,-.4l.4,-.4h.3l.4,-.3l.4,-.4l.3,-.4l1.5,-1.1m-13.6,11l1.1,-.7l.4,-.4l1.8,-1.8" class="gl_54"/>
</g>
<path d="M1055.3,781v.3h.4v.4h.4v.7h.3v.4h.4v.7h.4v.4h.3v.7h.4v.8h.4v.3h.3v.4h.4h-.4v.4h.4v.3h.4v.8h.3v.3l.4,.4v.4h.4v.3l.3,.4v.4h.4v.7h.4v.4h.3v.7h.4v.4h.4v.7h.3v.4h.4v.3h.7v.4h.4v.4h.4v.7h.3v.7h-.3v.4h.3v.4h.4v.7h.4v.7h.3v1.5l.4,.4v.3h.4v.8h.3v.3h.4v.8h.4v.7h.3h-.3v.4l-.4,.3v.4h-.4v.4l-.3,.3v.4h-.4v1.1h.4v.7h.3v.8h.4v.3l.4,.4v.4h.3v.7h.4v.7h.4v.8h.7v.3h.4v.8h.3v.3h.4v.4h.4v.7h.3v.4h.4v.4h2.9v.3h1.9v.4h.3v.4h.8v.7h.3v.7h.4v.4h.4v.4h-.4l.4,.3v.4h.7v.4h.4v.7h.3v.7h.4v.4h.4v.7h.3v.8h.4v.3h.4v.8h.3v.3h.4v.8h.4v.3l.3,.4v.4h.4v.7h.4v.4l.3,.3v.4h.4v.7h.4v.4h.3v.7h.4v.4h.4v.4h.3v.3h.4v.4h.7l.4,.4h.7v.3h1.5v-.3h2.9v.3h.4v.4h.7v.4h.4v.7h.4v.4l.3,.3l.4,.4l.4,-.4h1.4v-.3h1.5v-.4h1.1v-.4h.4l.3,-.3h.4v-.4h.4l.3,-.4h.4v-.3h4.1v.3h1.1v-.3h2.5v-.4h2.2l.4,-.4h7v-.3h3.3v.3h.3v.4h.4v.7h.4v1.1h2.2v.4h2.2v-1.1h.3v-.7h-.3h.3v-1.1h1.5V829h7.7l.4,-.4h3.3v-.3h.3" class="gm_54"/>
<path d="M1055.3,781v.3h.4v.4h.4v.7h.3v.4h.4v.7h.4v.4h.3v.7h.4v.8h.4v.3h.3v.4h.4h-.4v.4h.4v.3h.4v.8h.3v.3l.4,.4v.4h.4v.3l.3,.4v.4h.4v.7h.4v.4h.3v.7h.4v.4h.4v.7h.3v.4h.4v.3h.7v.4h.4v.4h.4v.7h.3v.7h-.3v.4h.3v.4h.4v.7h.4v.7h.3v1.5l.4,.4v.3h.4v.8h.3v.3h.4v.8h.4v.7h.3h-.3v.4l-.4,.3v.4h-.4v.4l-.3,.3v.4h-.4v1.1h.4v.7h.3v.8h.4v.3l.4,.4v.4h.3v.7h.4v.7h.4v.8h.7v.3h.4v.8h.3v.3h.4v.4h.4v.7h.3v.4h.4v.4h2.9v.3h1.9v.4h.3v.4h.8v.7h.3v.7h.4v.4h.4v.4h-.4l.4,.3v.4h.7v.4h.4v.7h.3v.7h.4v.4h.4v.7h.3v.8h.4v.3h.4v.8h.3v.3h.4v.8h.4v.3l.3,.4v.4h.4v.7h.4v.4l.3,.3v.4h.4v.7h.4v.4h.3v.7h.4v.4h.4v.4h.3v.3h.4v.4h.7l.4,.4h.7v.3h1.5v-.3h2.9v.3h.4v.4h.7v.4h.4v.7h.4v.4l.3,.3l.4,.4l.4,-.4h1.4v-.3h1.5v-.4h1.1v-.4h.4l.3,-.3h.4v-.4h.4l.3,-.4h.4v-.3h4.1v.3h1.1v-.3h2.5v-.4h2.2l.4,-.4h7v-.3h3.3v.3h.3v.4h.4v.7h.4v1.1h2.2v.4h2.2v-1.1h.3v-.7h-.3h.3v-1.1h1.5V829h7.7l.4,-.4h3.3v-.3h.3" class="gn_54"/>
<path d="M1055.3,781v.3h.4v.4h.4v.7h.3v.4h.4v.7h.4v.4h.3v.7h.4v.8h.4v.3h.3v.4h.4h-.4v.4h.4v.3h.4v.8h.3v.3l.4,.4v.4h.4v.3l.3,.4v.4h.4v.7h.4v.4h.3v.7h.4v.4h.4v.7h.3v.4h.4v.3h.7v.4h.4v.4h.4v.7h.3v.7h-.3v.4h.3v.4h.4v.7h.4v.7h.3v1.5l.4,.4v.3h.4v.8h.3v.3h.4v.8h.4v.7h.3h-.3v.4l-.4,.3v.4h-.4v.4l-.3,.3v.4h-.4v1.1h.4v.7h.3v.8h.4v.3l.4,.4v.4h.3v.7h.4v.7h.4v.8h.7v.3h.4v.8h.3v.3h.4v.4h.4v.7h.3v.4h.4v.4h2.9v.3h1.9v.4h.3v.4h.8v.7h.3v.7h.4v.4h.4v.4h-.4l.4,.3v.4h.7v.4h.4v.7h.3v.7h.4v.4h.4v.7h.3v.8h.4v.3h.4v.8h.3v.3h.4v.8h.4v.3l.3,.4v.4h.4v.7h.4v.4l.3,.3v.4h.4v.7h.4v.4h.3v.7h.4v.4h.4v.4h.3v.3h.4v.4h.7l.4,.4h.7v.3h1.5v-.3h2.9v.3h.4v.4h.7v.4h.4v.7h.4v.4l.3,.3l.4,.4l.4,-.4h1.4v-.3h1.5v-.4h1.1v-.4h.4l.3,-.3h.4v-.4h.4l.3,-.4h.4v-.3h4.1v.3h1.1v-.3h2.5v-.4h2.2l.4,-.4h7v-.3h3.3v.3h.3v.4h.4v.7h.4v1.1h2.2v.4h2.2v-1.1h.3v-.7h-.3h.3v-1.1h1.5V829h7.7l.4,-.4h3.3v-.3h.3" class="go_54"/>
<path d="M1055.3,781v.3h.4v.4h.4v.7h.3v.4h.4v.7h.4v.4h.3v.7h.4v.8h.4v.3h.3v.4h.4h-.4v.4h.4v.3h.4v.8h.3v.3l.4,.4v.4h.4v.3l.3,.4v.4h.4v.7h.4v.4h.3v.7h.4v.4h.4v.7h.3v.4h.4v.3h.7v.4h.4v.4h.4v.7h.3v.7h-.3v.4h.3v.4h.4v.7h.4v.7h.3v1.5l.4,.4v.3h.4v.8h.3v.3h.4v.8h.4v.7h.3h-.3v.4l-.4,.3v.4h-.4v.4l-.3,.3v.4h-.4v1.1h.4v.7h.3v.8h.4v.3l.4,.4v.4h.3v.7h.4v.7h.4v.8h.7v.3h.4v.8h.3v.3h.4v.4h.4v.7h.3v.4h.4v.4h2.9v.3h1.9v.4h.3v.4h.8v.7h.3v.7h.4v.4h.4v.4h-.4l.4,.3v.4h.7v.4h.4v.7h.3v.7h.4v.4h.4v.7h.3v.8h.4v.3h.4v.8h.3v.3h.4v.8h.4v.3l.3,.4v.4h.4v.7h.4v.4l.3,.3v.4h.4v.7h.4v.4h.3v.7h.4v.4h.4v.4h.3v.3h.4v.4h.7l.4,.4h.7v.3h1.5v-.3h2.9v.3h.4v.4h.7v.4h.4v.7h.4v.4l.3,.3l.4,.4l.4,-.4h1.4v-.3h1.5v-.4h1.1v-.4h.4l.3,-.3h.4v-.4h.4l.3,-.4h.4v-.3h4.1v.3h1.1v-.3h2.5v-.4h2.2l.4,-.4h7v-.3h3.3v.3h.3v.4h.4v.7h.4v1.1h2.2v.4h2.2v-1.1h.3v-.7h-.3h.3v-1.1h1.5V829h7.7l.4,-.4h3.3v-.3h.3" class="gp_54"/>
<path fill-rule="evenodd" d="M1128,784.6c0,-1.6,-1.4,-2.9,-3,-2.9c-1.6,0,-2.9,1.3,-2.9,2.9c0,1.6,1.3,3,2.9,3c1.6,0,3,-1.4,3,-3Z" class="gq_54"/>
<path d="M1131.6,831.6l-4,1.4l-1.1,-2.9l4,-1.5l1.1,3M1064.5,800l4.4,-1.8l1.1,3.3l-4.4,1.5l-1.1,-3m11,14.7l4.4,-1.5l1.1,3.3l-4.4,1.5l-1.1,-3.3m63.8,13.2l4.1,-1.5l1.1,3l-4.1,1.4l-1.1,-2.9m-73.7,-20.2l4,-1.4l1.5,3.3l-4.4,1.4l-1.1,-3.3m26,22l4.1,-1.4l1.1,2.9l-4.1,1.8l-1.1,-3.3m-20.1,-16.5l4,-1.4l1.1,3.3l-4,1.4l-1.1,-3.3" class="gr_54"/>
<path d="M1075.5,814.7h.7l.4,-.4h.7V814h.8l.3,-.4h.8l.3,-.4h.4v.8l.4,.3v.8l.3,.3v.8l.4,.3h-.7l-.4,.4h-.7l-.4,.4h-.7l-.4,.3h-.7v.4h-.4v-.7l-.4,-.4v-.7l-.3,-.4v-.4l-.4,-.3v-.4" class="gs_54"/>
<path d="M1046.5,882.2l.4,1.8l1.1,1.5l1.1,1.1h3.3l1.5,-1.1l.7,-1.5l.4,-1.8l-.4,-1.9l-.7,-1.4l-1.5,-1.1l-1.5,-.4l-1.8,.4l-1.1,1.1l-.7,1.1l-.4,1.1l-.4,1.1m1.9,0v-1.5l.7,-1.1l.7,-.4l1.1,-.3l.8,.3l1.1,.4l.3,1.1v2.9l-.3,.8l-1.1,.7h-1.9l-.7,-.7l-.7,-.8v-1.4m8.4,4.4h1.8v-5.9l3.7,5.9h1.5v-8.8h-1.5v5.8l-3.7,-5.8h-1.8v8.8m11.7,0h1.5v-7.4h2.6v-1.4H1066v1.4h2.5v7.4m12.5,0l-2.9,-8.8h-1.9l-3.3,8.8h1.9l.7,-2.2h3.3l.7,2.2h1.5m-2.9,-3.7h-2.2L1077,880l1.1,2.9m5.1,3.7h1.8v-3.7h1.5l.4,.4l.3,.3l.8,.8l1.4,2.2h1.9l-1.1,-1.9l-.8,-.7l-.3,-.7l-.8,-.8l1.1,-.3l.4,-.4l.7,-.7v-1.5l-.3,-.7l-.4,-.8h-.7l-.8,-.3h-5.1v8.8m1.8,-5.2v-2.2h3l.7,.4v1.5l-.7,.3h-3m7.7,5.2h1.9v-8.8h-1.9v8.8m3.7,-4.4l.4,1.8l.7,1.5l1.5,1.1h3.3l1.5,-1.1l.7,-1.5l.4,-1.8l-.4,-1.9l-.7,-1.4l-1.5,-1.1l-1.5,-.4l-1.8,.4l-1.1,1.1l-1.1,1.1v1.1l-.4,1.1m1.9,0v-1.5l.7,-1.1l.7,-.4l1.1,-.3l.8,.3l.7,.4l.7,1.1v2.9l-.7,.8l-.7,.7h-1.9l-.7,-.7l-.7,-.8v-1.4" class="gt_54"/>
<path d="M1085.8,780.6v-5.9h-1.1v2.2h-2.2v-2.2h-1.1v5.9h1.1V778h2.2v2.6h1.1m5.1,0v-3.7l-.4,-.3l-.3,-.4h-1.9l-.3,.4h-.4v.7h1.1l.4,-.4l.3,.4h.4v.7h-1.1l-.7,.4l-.4,.4l-.4,.7l.4,.4v.7h.7l.4,.4l.7,-.4l.8,-.4v.4h.7m-1.1,-1.8v.7l-.4,.4h-.7l-.4,-.4l.4,-.4v-.3h1.1m9.5,1.8v-3.3l-.3,-.7l-.4,-.4h-.7l-.4,.4h-.4l-.3,.3l-.4,-.3l-.4,-.4h-.7l-.7,.4l-.8,.3v-.3l-.3,-.4l-.4,.4v4h1.1v-2.9l.4,-.4l.3,-.4l.4,.4h.4v3.3h1.1v-2.9l.7,-.4l.4,-.4v.4h.3v3.3h1.1m3,0v-4h-.4l-.4,-.4v.4h-.3v4h1.1m0,-5.5v-.4h-1.1v1.1h1.1v-.7m2.9,5.5v-6.2h-1.1v6.2h1.1m4,-.4v-.3h-.7l-.4,-.8v-1.8h1.1v-1.1h-1.1v-.7l-.3,-.4l-.4,.4h-.4v.7h-.3v1.1h.3v2.2l.4,.4v.7h.4l.7,.4l.4,-.4h.3v-.4m5.9,-1.8l-.4,-.7l-.3,-.8l-.4,-.7h-1.8l-.8,.7l-.3,.8l-.4,.7l.4,1.1l.3,.7l.4,.4l1.1,.4l.7,-.4l.8,-.4l.3,-.7l.4,-1.1m-1.1,0v.7l-.4,.4l-.3,.4h-.8l-.3,-.4l-.4,-.4V778l.4,-.3l.3,-.4l.4,-.4l.4,.4l.3,.4l.4,.3v.4m6.3,2.2v-3.3l-.4,-.7l-.4,-.4h-.7l-.7,.4l-.8,.3v-.3l-.4,-.4l-.3,.4v4h1.1v-2.9l.4,-.4l.3,-.4l.4,.4h.4v3.3h1.1" class="gu_54"/>
<path d="M1015,821.3V743.2h159.5V899.4H1015V821.3" class="gv_54"/>
<image preserveAspectRatio="none" x="1017" y="80" width="156" height="35" xlink:href="img/4.png"/>
<path d="M1018.3,555.5v-9.6h21.3v9.6h-21.3" class="gw_54"/>
<path d="M1017.9,507.1h22" class="gx_54"/>
<path d="M1017.9,507.1h7.7m7.7,0h6.6" class="gy_54"/>
<path d="M1017.9,485.4h7.7m3,0h7.7m2.9,0h.7" class="g2_54"/>
<path d="M1017.9,463.8h22" class="gz_54"/>
<path d="M1017.9,440.7h22" class="g10_54"/>
<image preserveAspectRatio="none" x="1037" y="629" width="119" height="33" xlink:href="img/5.png"/>
<path d="M1017.9,408.8h22" class="g7_54"/>
<path d="M1017.9,408.8h22" class="g11_54"/>
<path d="M1017.9,366.6h22" class="g7_54"/>
<path d="M1017.9,366.6h22" class="g12_54"/>
<path d="M1018.3,533.8v-9.9h21.3v9.9h-21.3" class="g13_54"/>
</svg>