<?xml version="1.0" encoding="UTF-8" standalone="no"?>
<!DOCTYPE svg PUBLIC "-//W3C//DTD SVG 1.1//EN"
"http://www.w3.org/Graphics/SVG/1.1/DTD/svg11.dtd">
<svg viewBox="0 0 935 1210" version="1.1" xmlns="http://www.w3.org/2000/svg" xmlns:xlink="http://www.w3.org/1999/xlink">
<defs>
<style type="text/css"><![CDATA[
.g0_61{
fill: #00755C;
}
]]></style>
</defs>
<path d="M86.5,66.5H263.3V65.1H86.5v1.4Z" class="g0_61"/>
<path d="M263.3,66.5h1.4V65.1h-1.4v1.4Z" class="g0_61"/>
<path d="M264.7,66.5H848.8V65.1H264.7v1.4Z" class="g0_61"/>
<path d="M85.4,120.1H263.3v-1.5H85.4v1.5Z" class="g0_61"/>
<path d="M262.2,120.1h1.4v-1.5h-1.4v1.5Z" class="g0_61"/>
<path d="M263.6,120.1H848.8v-1.5H263.6v1.5Z" class="g0_61"/>
<path d="M84.3,1113.8H431.9v-.8H84.3v.8Z" class="g0_61"/>
<path d="M431.9,1113.8h.8v-.8h-.8v.8Z" class="g0_61"/>
<path d="M432.7,1113.8h66.5v-.8H432.7v.8Z" class="g0_61"/>
<path d="M499.2,1113.8h.8v-.8h-.8v.8Z" class="g0_61"/>
<path d="M499.9,1113.8H846.6v-.8H499.9v.8Z" class="g0_61"/>
<image preserveAspectRatio="none" x="87" y="67" width="172" height="51" xlink:href="img/1.png"/>
<image preserveAspectRatio="none" x="741" y="1125" width="106" height="41" xlink:href="img/2.png"/>
<path fill-rule="evenodd" d="M86.5,193H649.2v-2.2H86.5V193Z" class="g0_61"/>
<path d="M649.2,193.2h2.2V193h-2.2v.2Z" class="g0_61"/>
<path fill-rule="evenodd" d="M649.2,193h2.2v-2.2h-2.2V193Z" class="g0_61"/>
<path fill-rule="evenodd" d="M651.4,193H854v-2.2H651.4V193Z" class="g0_61"/>
<path fill-rule="evenodd" d="M649.2,221.1h2.2V193.2h-2.2v27.9Z" class="g0_61"/>
<path fill-rule="evenodd" d="M86.5,223.3H273.3v-2.2H86.5v2.2Z" class="g0_61"/>
<path d="M273.3,223.5h2.3v-.2h-2.3v.2Z" class="g0_61"/>
<path fill-rule="evenodd" d="M273.3,223.3h2.3v-2.2h-2.3v2.2Z" class="g0_61"/>
<path fill-rule="evenodd" d="M275.6,223.3H461.3v-2.2H275.6v2.2Z" class="g0_61"/>
<path d="M461.3,223.5h2.2v-.2h-2.2v.2Z" class="g0_61"/>
<path fill-rule="evenodd" d="M461.3,223.3h2.2v-2.2h-2.2v2.2Z" class="g0_61"/>
<path fill-rule="evenodd" d="M463.5,223.3H649.2v-2.2H463.5v2.2Z" class="g0_61"/>
<path fill-rule="evenodd" d="M649.2,223.5h2.2v-2.4h-2.2v2.4Z" class="g0_61"/>
<path fill-rule="evenodd" d="M273.3,242.4h2.3V223.5h-2.3v18.9Z" class="g0_61"/>
<path fill-rule="evenodd" d="M461.3,242.4h2.2V223.5h-2.2v18.9Z" class="g0_61"/>
<path fill-rule="evenodd" d="M649.2,242.4h2.2V223.5h-2.2v18.9Z" class="g0_61"/>
<path fill-rule="evenodd" d="M86.5,244.6H273.3v-2.2H86.5v2.2Z" class="g0_61"/>
<path fill-rule="evenodd" d="M273.3,244.8h2.3v-2.4h-2.3v2.4Z" class="g0_61"/>
<path fill-rule="evenodd" d="M275.6,244.6H461.3v-2.2H275.6v2.2Z" class="g0_61"/>
<path fill-rule="evenodd" d="M461.3,244.8h2.2v-2.4h-2.2v2.4Z" class="g0_61"/>
<path fill-rule="evenodd" d="M463.5,244.6H649.2v-2.2H463.5v2.2Z" class="g0_61"/>
<path fill-rule="evenodd" d="M649.2,244.8h2.2v-2.4h-2.2v2.4Z" class="g0_61"/>
<path fill-rule="evenodd" d="M651.4,244.6H854v-2.2H651.4v2.2Z" class="g0_61"/>
<path fill-rule="evenodd" d="M273.3,315.5h2.3V244.8h-2.3v70.7Z" class="g0_61"/>
<path fill-rule="evenodd" d="M461.3,315.5h2.2V244.8h-2.2v70.7Z" class="g0_61"/>
<path fill-rule="evenodd" d="M649.2,315.5h2.2V244.8h-2.2v70.7Z" class="g0_61"/>
<path fill-rule="evenodd" d="M86.5,317.7H273.3v-2.2H86.5v2.2Z" class="g0_61"/>
<path fill-rule="evenodd" d="M273.3,317.9h2.3v-2.4h-2.3v2.4Z" class="g0_61"/>
<path fill-rule="evenodd" d="M275.6,317.7H461.3v-2.2H275.6v2.2Z" class="g0_61"/>
<path fill-rule="evenodd" d="M461.3,317.9h2.2v-2.4h-2.2v2.4Z" class="g0_61"/>
<path fill-rule="evenodd" d="M463.5,317.7H649.2v-2.2H463.5v2.2Z" class="g0_61"/>
<path fill-rule="evenodd" d="M649.2,317.9h2.2v-2.4h-2.2v2.4Z" class="g0_61"/>
<path fill-rule="evenodd" d="M651.4,317.7H854v-2.2H651.4v2.2Z" class="g0_61"/>
<path fill-rule="evenodd" d="M273.3,336.6h2.3V317.9h-2.3v18.7Z" class="g0_61"/>
<path fill-rule="evenodd" d="M461.3,336.6h2.2V317.9h-2.2v18.7Z" class="g0_61"/>
<path fill-rule="evenodd" d="M649.2,336.6h2.2V317.9h-2.2v18.7Z" class="g0_61"/>
<path fill-rule="evenodd" d="M273.3,339h2.3v-2.4h-2.3V339Z" class="g0_61"/>
<path fill-rule="evenodd" d="M461.3,339h2.2v-2.4h-2.2V339Z" class="g0_61"/>
<path fill-rule="evenodd" d="M463.5,338.8H649.2v-2.2H463.5v2.2Z" class="g0_61"/>
<path fill-rule="evenodd" d="M649.2,339h2.2v-2.4h-2.2V339Z" class="g0_61"/>
<path fill-rule="evenodd" d="M651.4,338.8H854v-2.2H651.4v2.2Z" class="g0_61"/>
<path fill-rule="evenodd" d="M273.3,357.9h2.3V339h-2.3v18.9Z" class="g0_61"/>
<path fill-rule="evenodd" d="M461.3,357.9h2.2V339h-2.2v18.9Z" class="g0_61"/>
<path fill-rule="evenodd" d="M649.2,357.9h2.2V339h-2.2v18.9Z" class="g0_61"/>
<path fill-rule="evenodd" d="M273.3,360.2h2.3v-2.3h-2.3v2.3Z" class="g0_61"/>
<path fill-rule="evenodd" d="M461.3,360.2h2.2v-2.3h-2.2v2.3Z" class="g0_61"/>
<path fill-rule="evenodd" d="M463.5,360.1H649.2v-2.2H463.5v2.2Z" class="g0_61"/>
<path fill-rule="evenodd" d="M649.2,360.2h2.2v-2.3h-2.2v2.3Z" class="g0_61"/>
<path fill-rule="evenodd" d="M651.4,360.1H854v-2.2H651.4v2.2Z" class="g0_61"/>
<path fill-rule="evenodd" d="M273.3,378.9h2.3V360.2h-2.3v18.7Z" class="g0_61"/>
<path fill-rule="evenodd" d="M461.3,378.9h2.2V360.2h-2.2v18.7Z" class="g0_61"/>
<path fill-rule="evenodd" d="M649.2,378.9h2.2V360.2h-2.2v18.7Z" class="g0_61"/>
<path fill-rule="evenodd" d="M273.3,381.3h2.3v-2.4h-2.3v2.4Z" class="g0_61"/>
<path fill-rule="evenodd" d="M461.3,381.3h2.2v-2.4h-2.2v2.4Z" class="g0_61"/>
<path fill-rule="evenodd" d="M463.5,381.1H649.2v-2.2H463.5v2.2Z" class="g0_61"/>
<path fill-rule="evenodd" d="M649.2,381.3h2.2v-2.4h-2.2v2.4Z" class="g0_61"/>
<path fill-rule="evenodd" d="M651.4,381.1H854v-2.2H651.4v2.2Z" class="g0_61"/>
<path fill-rule="evenodd" d="M273.3,400h2.3V381.3h-2.3V400Z" class="g0_61"/>
<path fill-rule="evenodd" d="M461.3,400h2.2V381.3h-2.2V400Z" class="g0_61"/>
<path fill-rule="evenodd" d="M649.2,400h2.2V381.3h-2.2V400Z" class="g0_61"/>
<path fill-rule="evenodd" d="M273.3,402.4h2.3V400h-2.3v2.4Z" class="g0_61"/>
<path fill-rule="evenodd" d="M275.6,402.2H461.3V400H275.6v2.2Z" class="g0_61"/>
<path fill-rule="evenodd" d="M461.3,402.4h2.2V400h-2.2v2.4Z" class="g0_61"/>
<path fill-rule="evenodd" d="M463.5,402.2H649.2V400H463.5v2.2Z" class="g0_61"/>
<path fill-rule="evenodd" d="M649.2,402.4h2.2V400h-2.2v2.4Z" class="g0_61"/>
<path fill-rule="evenodd" d="M651.4,402.2H854V400H651.4v2.2Z" class="g0_61"/>
<path fill-rule="evenodd" d="M273.3,421.3h2.3V402.4h-2.3v18.9Z" class="g0_61"/>
<path fill-rule="evenodd" d="M461.3,421.3h2.2V402.4h-2.2v18.9Z" class="g0_61"/>
<path fill-rule="evenodd" d="M649.2,421.3h2.2V402.4h-2.2v18.9Z" class="g0_61"/>
<path fill-rule="evenodd" d="M273.3,423.7h2.3v-2.4h-2.3v2.4Z" class="g0_61"/>
<path fill-rule="evenodd" d="M461.3,423.7h2.2v-2.4h-2.2v2.4Z" class="g0_61"/>
<path fill-rule="evenodd" d="M463.5,423.5H649.2v-2.2H463.5v2.2Z" class="g0_61"/>
<path fill-rule="evenodd" d="M649.2,423.7h2.2v-2.4h-2.2v2.4Z" class="g0_61"/>
<path fill-rule="evenodd" d="M651.4,423.5H854v-2.2H651.4v2.2Z" class="g0_61"/>
<path fill-rule="evenodd" d="M273.3,442.4h2.3V423.7h-2.3v18.7Z" class="g0_61"/>
<path fill-rule="evenodd" d="M461.3,442.4h2.2V423.7h-2.2v18.7Z" class="g0_61"/>
<path fill-rule="evenodd" d="M649.2,442.4h2.2V423.7h-2.2v18.7Z" class="g0_61"/>
<path fill-rule="evenodd" d="M273.3,444.8h2.3v-2.4h-2.3v2.4Z" class="g0_61"/>
<path fill-rule="evenodd" d="M461.3,444.8h2.2v-2.4h-2.2v2.4Z" class="g0_61"/>
<path fill-rule="evenodd" d="M463.5,444.6H649.2v-2.2H463.5v2.2Z" class="g0_61"/>
<path fill-rule="evenodd" d="M649.2,444.8h2.2v-2.4h-2.2v2.4Z" class="g0_61"/>
<path fill-rule="evenodd" d="M651.4,444.6H854v-2.2H651.4v2.2Z" class="g0_61"/>
<path fill-rule="evenodd" d="M273.3,463.6h2.3V444.8h-2.3v18.8Z" class="g0_61"/>
<path fill-rule="evenodd" d="M461.3,463.6h2.2V444.8h-2.2v18.8Z" class="g0_61"/>
<path fill-rule="evenodd" d="M649.2,463.6h2.2V444.8h-2.2v18.8Z" class="g0_61"/>
<path fill-rule="evenodd" d="M273.3,466h2.3v-2.3h-2.3V466Z" class="g0_61"/>
<path fill-rule="evenodd" d="M461.3,466h2.2v-2.3h-2.2V466Z" class="g0_61"/>
<path fill-rule="evenodd" d="M463.5,465.8H649.2v-2.2H463.5v2.2Z" class="g0_61"/>
<path fill-rule="evenodd" d="M649.2,466h2.2v-2.3h-2.2V466Z" class="g0_61"/>
<path fill-rule="evenodd" d="M651.4,465.8H854v-2.2H651.4v2.2Z" class="g0_61"/>
<path fill-rule="evenodd" d="M273.3,484.7h2.3V466h-2.3v18.7Z" class="g0_61"/>
<path fill-rule="evenodd" d="M461.3,484.7h2.2V466h-2.2v18.7Z" class="g0_61"/>
<path fill-rule="evenodd" d="M649.2,484.7h2.2V466h-2.2v18.7Z" class="g0_61"/>
<path fill-rule="evenodd" d="M273.3,487.1h2.3v-2.4h-2.3v2.4Z" class="g0_61"/>
<path fill-rule="evenodd" d="M275.6,486.9H461.3v-2.2H275.6v2.2Z" class="g0_61"/>
<path fill-rule="evenodd" d="M461.3,487.1h2.2v-2.4h-2.2v2.4Z" class="g0_61"/>
<path fill-rule="evenodd" d="M463.5,486.9H649.2v-2.2H463.5v2.2Z" class="g0_61"/>
<path fill-rule="evenodd" d="M649.2,487.1h2.2v-2.4h-2.2v2.4Z" class="g0_61"/>
<path fill-rule="evenodd" d="M651.4,486.9H854v-2.2H651.4v2.2Z" class="g0_61"/>
<path fill-rule="evenodd" d="M273.3,505.8h2.3V487.1h-2.3v18.7Z" class="g0_61"/>
<path fill-rule="evenodd" d="M461.3,505.8h2.2V487.1h-2.2v18.7Z" class="g0_61"/>
<path fill-rule="evenodd" d="M649.2,505.8h2.2V487.1h-2.2v18.7Z" class="g0_61"/>
<path fill-rule="evenodd" d="M273.3,508.2h2.3v-2.4h-2.3v2.4Z" class="g0_61"/>
<path fill-rule="evenodd" d="M461.3,508.2h2.2v-2.4h-2.2v2.4Z" class="g0_61"/>
<path fill-rule="evenodd" d="M463.5,508H649.2v-2.2H463.5V508Z" class="g0_61"/>
<path fill-rule="evenodd" d="M649.2,508.2h2.2v-2.4h-2.2v2.4Z" class="g0_61"/>
<path fill-rule="evenodd" d="M651.4,508H854v-2.2H651.4V508Z" class="g0_61"/>
<path fill-rule="evenodd" d="M273.3,527.1h2.3V508.2h-2.3v18.9Z" class="g0_61"/>
<path fill-rule="evenodd" d="M461.3,527.1h2.2V508.2h-2.2v18.9Z" class="g0_61"/>
<path fill-rule="evenodd" d="M649.2,527.1h2.2V508.2h-2.2v18.9Z" class="g0_61"/>
<path fill-rule="evenodd" d="M273.3,529.5h2.3v-2.4h-2.3v2.4Z" class="g0_61"/>
<path fill-rule="evenodd" d="M461.3,529.5h2.2v-2.4h-2.2v2.4Z" class="g0_61"/>
<path fill-rule="evenodd" d="M463.5,529.3H649.2v-2.2H463.5v2.2Z" class="g0_61"/>
<path fill-rule="evenodd" d="M649.2,529.5h2.2v-2.4h-2.2v2.4Z" class="g0_61"/>
<path fill-rule="evenodd" d="M651.4,529.3H854v-2.2H651.4v2.2Z" class="g0_61"/>
<path fill-rule="evenodd" d="M273.3,548.2h2.3V529.5h-2.3v18.7Z" class="g0_61"/>
<path fill-rule="evenodd" d="M461.3,548.2h2.2V529.5h-2.2v18.7Z" class="g0_61"/>
<path fill-rule="evenodd" d="M649.2,548.2h2.2V529.5h-2.2v18.7Z" class="g0_61"/>
<path fill-rule="evenodd" d="M273.3,550.5h2.3v-2.3h-2.3v2.3Z" class="g0_61"/>
<path fill-rule="evenodd" d="M461.3,550.5h2.2v-2.3h-2.2v2.3Z" class="g0_61"/>
<path fill-rule="evenodd" d="M463.5,550.4H649.2v-2.2H463.5v2.2Z" class="g0_61"/>
<path fill-rule="evenodd" d="M649.2,550.5h2.2v-2.3h-2.2v2.3Z" class="g0_61"/>
<path fill-rule="evenodd" d="M651.4,550.4H854v-2.2H651.4v2.2Z" class="g0_61"/>
<path fill-rule="evenodd" d="M273.3,569.4h2.3V550.6h-2.3v18.8Z" class="g0_61"/>
<path fill-rule="evenodd" d="M461.3,569.4h2.2V550.6h-2.2v18.8Z" class="g0_61"/>
<path fill-rule="evenodd" d="M649.2,569.4h2.2V550.6h-2.2v18.8Z" class="g0_61"/>
<path fill-rule="evenodd" d="M86.5,571.6H273.3v-2.2H86.5v2.2Z" class="g0_61"/>
<path fill-rule="evenodd" d="M273.3,571.8h2.3v-2.4h-2.3v2.4Z" class="g0_61"/>
<path fill-rule="evenodd" d="M275.6,571.6H461.3v-2.2H275.6v2.2Z" class="g0_61"/>
<path fill-rule="evenodd" d="M461.3,571.8h2.2v-2.4h-2.2v2.4Z" class="g0_61"/>
<path fill-rule="evenodd" d="M463.5,571.6H649.2v-2.2H463.5v2.2Z" class="g0_61"/>
<path fill-rule="evenodd" d="M649.2,571.8h2.2v-2.4h-2.2v2.4Z" class="g0_61"/>
<path fill-rule="evenodd" d="M651.4,571.6H854v-2.2H651.4v2.2Z" class="g0_61"/>
<path fill-rule="evenodd" d="M273.3,590.5h2.3V571.8h-2.3v18.7Z" class="g0_61"/>
<path fill-rule="evenodd" d="M461.3,590.5h2.2V571.8h-2.2v18.7Z" class="g0_61"/>
<path fill-rule="evenodd" d="M649.2,590.5h2.2V571.8h-2.2v18.7Z" class="g0_61"/>
<path fill-rule="evenodd" d="M273.3,592.9h2.3v-2.4h-2.3v2.4Z" class="g0_61"/>
<path fill-rule="evenodd" d="M461.3,592.9h2.2v-2.4h-2.2v2.4Z" class="g0_61"/>
<path fill-rule="evenodd" d="M463.5,592.7H649.2v-2.2H463.5v2.2Z" class="g0_61"/>
<path fill-rule="evenodd" d="M649.2,592.9h2.2v-2.4h-2.2v2.4Z" class="g0_61"/>
<path fill-rule="evenodd" d="M651.4,592.7H854v-2.2H651.4v2.2Z" class="g0_61"/>
<path fill-rule="evenodd" d="M273.3,611.8h2.3V592.9h-2.3v18.9Z" class="g0_61"/>
<path fill-rule="evenodd" d="M461.3,611.8h2.2V592.9h-2.2v18.9Z" class="g0_61"/>
<path fill-rule="evenodd" d="M649.2,611.8h2.2V592.9h-2.2v18.9Z" class="g0_61"/>
<path fill-rule="evenodd" d="M273.3,614.2h2.3v-2.4h-2.3v2.4Z" class="g0_61"/>
<path fill-rule="evenodd" d="M461.3,614.2h2.2v-2.4h-2.2v2.4Z" class="g0_61"/>
<path fill-rule="evenodd" d="M463.5,614H649.2v-2.2H463.5V614Z" class="g0_61"/>
<path fill-rule="evenodd" d="M649.2,614.2h2.2v-2.4h-2.2v2.4Z" class="g0_61"/>
<path fill-rule="evenodd" d="M651.4,614H854v-2.2H651.4V614Z" class="g0_61"/>
<path fill-rule="evenodd" d="M273.3,632.9h2.3V614.2h-2.3v18.7Z" class="g0_61"/>
<path fill-rule="evenodd" d="M461.3,632.9h2.2V614.2h-2.2v18.7Z" class="g0_61"/>
<path fill-rule="evenodd" d="M649.2,632.9h2.2V614.2h-2.2v18.7Z" class="g0_61"/>
<path fill-rule="evenodd" d="M273.3,635.2h2.3v-2.3h-2.3v2.3Z" class="g0_61"/>
<path fill-rule="evenodd" d="M461.3,635.2h2.2v-2.3h-2.2v2.3Z" class="g0_61"/>
<path fill-rule="evenodd" d="M463.5,635.1H649.2v-2.2H463.5v2.2Z" class="g0_61"/>
<path fill-rule="evenodd" d="M649.2,635.2h2.2v-2.3h-2.2v2.3Z" class="g0_61"/>
<path fill-rule="evenodd" d="M651.4,635.1H854v-2.2H651.4v2.2Z" class="g0_61"/>
<path fill-rule="evenodd" d="M273.3,654h2.3V635.3h-2.3V654Z" class="g0_61"/>
<path fill-rule="evenodd" d="M461.3,654h2.2V635.3h-2.2V654Z" class="g0_61"/>
<path fill-rule="evenodd" d="M649.2,654h2.2V635.3h-2.2V654Z" class="g0_61"/>
<path fill-rule="evenodd" d="M273.3,656.3h2.3V654h-2.3v2.3Z" class="g0_61"/>
<path fill-rule="evenodd" d="M275.6,656.1H461.3v-2.2H275.6v2.2Z" class="g0_61"/>
<path fill-rule="evenodd" d="M461.3,656.3h2.2V654h-2.2v2.3Z" class="g0_61"/>
<path fill-rule="evenodd" d="M463.5,656.1H649.2v-2.2H463.5v2.2Z" class="g0_61"/>
<path fill-rule="evenodd" d="M649.2,656.3h2.2V654h-2.2v2.3Z" class="g0_61"/>
<path fill-rule="evenodd" d="M651.4,656.1H854v-2.2H651.4v2.2Z" class="g0_61"/>
<path fill-rule="evenodd" d="M273.3,675.2h2.3V656.3h-2.3v18.9Z" class="g0_61"/>
<path fill-rule="evenodd" d="M461.3,675.2h2.2V656.3h-2.2v18.9Z" class="g0_61"/>
<path fill-rule="evenodd" d="M649.2,675.2h2.2V656.3h-2.2v18.9Z" class="g0_61"/>
<path fill-rule="evenodd" d="M273.3,677.6h2.3v-2.4h-2.3v2.4Z" class="g0_61"/>
<path fill-rule="evenodd" d="M461.3,677.6h2.2v-2.4h-2.2v2.4Z" class="g0_61"/>
<path fill-rule="evenodd" d="M463.5,677.4H649.2v-2.2H463.5v2.2Z" class="g0_61"/>
<path fill-rule="evenodd" d="M649.2,677.6h2.2v-2.4h-2.2v2.4Z" class="g0_61"/>
<path fill-rule="evenodd" d="M651.4,677.4H854v-2.2H651.4v2.2Z" class="g0_61"/>
<path fill-rule="evenodd" d="M273.3,696.3h2.3V677.6h-2.3v18.7Z" class="g0_61"/>
<path fill-rule="evenodd" d="M461.3,696.3h2.2V677.6h-2.2v18.7Z" class="g0_61"/>
<path fill-rule="evenodd" d="M649.2,696.3h2.2V677.6h-2.2v18.7Z" class="g0_61"/>
<path fill-rule="evenodd" d="M273.3,698.7h2.3v-2.4h-2.3v2.4Z" class="g0_61"/>
<path fill-rule="evenodd" d="M461.3,698.7h2.2v-2.4h-2.2v2.4Z" class="g0_61"/>
<path fill-rule="evenodd" d="M463.5,698.5H649.2v-2.2H463.5v2.2Z" class="g0_61"/>
<path fill-rule="evenodd" d="M649.2,698.7h2.2v-2.4h-2.2v2.4Z" class="g0_61"/>
<path fill-rule="evenodd" d="M651.4,698.5H854v-2.2H651.4v2.2Z" class="g0_61"/>
<path fill-rule="evenodd" d="M273.3,717.6h2.3V698.7h-2.3v18.9Z" class="g0_61"/>
<path fill-rule="evenodd" d="M461.3,717.6h2.2V698.7h-2.2v18.9Z" class="g0_61"/>
<path fill-rule="evenodd" d="M649.2,717.6h2.2V698.7h-2.2v18.9Z" class="g0_61"/>
<path fill-rule="evenodd" d="M273.3,719.9h2.3v-2.3h-2.3v2.3Z" class="g0_61"/>
<path fill-rule="evenodd" d="M461.3,719.9h2.2v-2.3h-2.2v2.3Z" class="g0_61"/>
<path fill-rule="evenodd" d="M463.5,719.8H649.2v-2.2H463.5v2.2Z" class="g0_61"/>
<path fill-rule="evenodd" d="M649.2,719.9h2.2v-2.3h-2.2v2.3Z" class="g0_61"/>
<path fill-rule="evenodd" d="M651.4,719.8H854v-2.2H651.4v2.2Z" class="g0_61"/>
<path fill-rule="evenodd" d="M273.3,738.6h2.3V719.9h-2.3v18.7Z" class="g0_61"/>
<path fill-rule="evenodd" d="M461.3,738.6h2.2V719.9h-2.2v18.7Z" class="g0_61"/>
<path fill-rule="evenodd" d="M649.2,738.6h2.2V719.9h-2.2v18.7Z" class="g0_61"/>
<path fill-rule="evenodd" d="M273.3,741h2.3v-2.3h-2.3V741Z" class="g0_61"/>
<path fill-rule="evenodd" d="M275.6,740.8H461.3v-2.2H275.6v2.2Z" class="g0_61"/>
<path fill-rule="evenodd" d="M461.3,741h2.2v-2.3h-2.2V741Z" class="g0_61"/>
<path fill-rule="evenodd" d="M463.5,740.8H649.2v-2.2H463.5v2.2Z" class="g0_61"/>
<path fill-rule="evenodd" d="M649.2,741h2.2v-2.3h-2.2V741Z" class="g0_61"/>
<path fill-rule="evenodd" d="M651.4,740.8H854v-2.2H651.4v2.2Z" class="g0_61"/>
<path fill-rule="evenodd" d="M273.3,759.7h2.3V741h-2.3v18.7Z" class="g0_61"/>
<path fill-rule="evenodd" d="M461.3,759.7h2.2V741h-2.2v18.7Z" class="g0_61"/>
<path fill-rule="evenodd" d="M649.2,759.7h2.2V741h-2.2v18.7Z" class="g0_61"/>
<path fill-rule="evenodd" d="M273.3,762.1h2.3v-2.4h-2.3v2.4Z" class="g0_61"/>
<path fill-rule="evenodd" d="M461.3,762.1h2.2v-2.4h-2.2v2.4Z" class="g0_61"/>
<path fill-rule="evenodd" d="M463.5,761.9H649.2v-2.2H463.5v2.2Z" class="g0_61"/>
<path fill-rule="evenodd" d="M649.2,762.1h2.2v-2.4h-2.2v2.4Z" class="g0_61"/>
<path fill-rule="evenodd" d="M651.4,761.9H854v-2.2H651.4v2.2Z" class="g0_61"/>
<path fill-rule="evenodd" d="M273.3,781h2.3V762.1h-2.3V781Z" class="g0_61"/>
<path fill-rule="evenodd" d="M461.3,781h2.2V762.1h-2.2V781Z" class="g0_61"/>
<path fill-rule="evenodd" d="M649.2,781h2.2V762.1h-2.2V781Z" class="g0_61"/>
<path fill-rule="evenodd" d="M273.3,783.4h2.3V781h-2.3v2.4Z" class="g0_61"/>
<path fill-rule="evenodd" d="M461.3,783.4h2.2V781h-2.2v2.4Z" class="g0_61"/>
<path fill-rule="evenodd" d="M463.5,783.2H649.2V781H463.5v2.2Z" class="g0_61"/>
<path fill-rule="evenodd" d="M649.2,783.4h2.2V781h-2.2v2.4Z" class="g0_61"/>
<path fill-rule="evenodd" d="M651.4,783.2H854V781H651.4v2.2Z" class="g0_61"/>
<path fill-rule="evenodd" d="M273.3,802.1h2.3V783.4h-2.3v18.7Z" class="g0_61"/>
<path fill-rule="evenodd" d="M461.3,802.1h2.2V783.4h-2.2v18.7Z" class="g0_61"/>
<path fill-rule="evenodd" d="M649.2,802.1h2.2V783.4h-2.2v18.7Z" class="g0_61"/>
<path fill-rule="evenodd" d="M273.3,804.5h2.3v-2.4h-2.3v2.4Z" class="g0_61"/>
<path fill-rule="evenodd" d="M461.3,804.5h2.2v-2.4h-2.2v2.4Z" class="g0_61"/>
<path fill-rule="evenodd" d="M463.5,804.3H649.2v-2.2H463.5v2.2Z" class="g0_61"/>
<path fill-rule="evenodd" d="M649.2,804.5h2.2v-2.4h-2.2v2.4Z" class="g0_61"/>
<path fill-rule="evenodd" d="M651.4,804.3H854v-2.2H651.4v2.2Z" class="g0_61"/>
<path fill-rule="evenodd" d="M273.3,823.4h2.3V804.5h-2.3v18.9Z" class="g0_61"/>
<path fill-rule="evenodd" d="M461.3,823.4h2.2V804.5h-2.2v18.9Z" class="g0_61"/>
<path fill-rule="evenodd" d="M649.2,823.4h2.2V804.5h-2.2v18.9Z" class="g0_61"/>
<path fill-rule="evenodd" d="M86.5,825.6H273.3v-2.2H86.5v2.2Z" class="g0_61"/>
<path fill-rule="evenodd" d="M273.3,825.7h2.3v-2.3h-2.3v2.3Z" class="g0_61"/>
<path fill-rule="evenodd" d="M275.6,825.6H461.3v-2.2H275.6v2.2Z" class="g0_61"/>
<path fill-rule="evenodd" d="M461.3,825.7h2.2v-2.3h-2.2v2.3Z" class="g0_61"/>
<path fill-rule="evenodd" d="M463.5,825.6H649.2v-2.2H463.5v2.2Z" class="g0_61"/>
<path fill-rule="evenodd" d="M649.2,825.7h2.2v-2.3h-2.2v2.3Z" class="g0_61"/>
<path fill-rule="evenodd" d="M651.4,825.6H854v-2.2H651.4v2.2Z" class="g0_61"/>
<path fill-rule="evenodd" d="M273.3,844.4h2.3V825.7h-2.3v18.7Z" class="g0_61"/>
<path fill-rule="evenodd" d="M461.3,844.4h2.2V825.7h-2.2v18.7Z" class="g0_61"/>
<path fill-rule="evenodd" d="M649.2,844.4h2.2V825.7h-2.2v18.7Z" class="g0_61"/>
<path fill-rule="evenodd" d="M273.3,846.8h2.3v-2.4h-2.3v2.4Z" class="g0_61"/>
<path fill-rule="evenodd" d="M461.3,846.8h2.2v-2.4h-2.2v2.4Z" class="g0_61"/>
<path fill-rule="evenodd" d="M463.5,846.6H649.2v-2.2H463.5v2.2Z" class="g0_61"/>
<path fill-rule="evenodd" d="M649.2,846.8h2.2v-2.4h-2.2v2.4Z" class="g0_61"/>
<path fill-rule="evenodd" d="M651.4,846.6H854v-2.2H651.4v2.2Z" class="g0_61"/>
<path fill-rule="evenodd" d="M273.3,865.5h2.3V846.8h-2.3v18.7Z" class="g0_61"/>
<path fill-rule="evenodd" d="M461.3,865.5h2.2V846.8h-2.2v18.7Z" class="g0_61"/>
<path fill-rule="evenodd" d="M649.2,865.5h2.2V846.8h-2.2v18.7Z" class="g0_61"/>
<path fill-rule="evenodd" d="M273.3,867.9h2.3v-2.4h-2.3v2.4Z" class="g0_61"/>
<path fill-rule="evenodd" d="M461.3,867.9h2.2v-2.4h-2.2v2.4Z" class="g0_61"/>
<path fill-rule="evenodd" d="M463.5,867.7H649.2v-2.2H463.5v2.2Z" class="g0_61"/>
<path fill-rule="evenodd" d="M649.2,867.9h2.2v-2.4h-2.2v2.4Z" class="g0_61"/>
<path fill-rule="evenodd" d="M651.4,867.7H854v-2.2H651.4v2.2Z" class="g0_61"/>
<path fill-rule="evenodd" d="M273.3,886.8h2.3V867.9h-2.3v18.9Z" class="g0_61"/>
<path fill-rule="evenodd" d="M461.3,886.8h2.2V867.9h-2.2v18.9Z" class="g0_61"/>
<path fill-rule="evenodd" d="M649.2,886.8h2.2V867.9h-2.2v18.9Z" class="g0_61"/>
<path fill-rule="evenodd" d="M273.3,889.2h2.3v-2.4h-2.3v2.4Z" class="g0_61"/>
<path fill-rule="evenodd" d="M461.3,889.2h2.2v-2.4h-2.2v2.4Z" class="g0_61"/>
<path fill-rule="evenodd" d="M463.5,889H649.2v-2.2H463.5V889Z" class="g0_61"/>
<path fill-rule="evenodd" d="M649.2,889.2h2.2v-2.4h-2.2v2.4Z" class="g0_61"/>
<path fill-rule="evenodd" d="M651.4,889H854v-2.2H651.4V889Z" class="g0_61"/>
<path fill-rule="evenodd" d="M273.3,907.9h2.3V889.2h-2.3v18.7Z" class="g0_61"/>
<path fill-rule="evenodd" d="M461.3,907.9h2.2V889.2h-2.2v18.7Z" class="g0_61"/>
<path fill-rule="evenodd" d="M649.2,907.9h2.2V889.2h-2.2v18.7Z" class="g0_61"/>
<path fill-rule="evenodd" d="M273.3,910.2h2.3v-2.3h-2.3v2.3Z" class="g0_61"/>
<path fill-rule="evenodd" d="M275.6,910.1H461.3v-2.2H275.6v2.2Z" class="g0_61"/>
<path fill-rule="evenodd" d="M461.3,910.2h2.2v-2.3h-2.2v2.3Z" class="g0_61"/>
<path fill-rule="evenodd" d="M463.5,910.1H649.2v-2.2H463.5v2.2Z" class="g0_61"/>
<path fill-rule="evenodd" d="M649.2,910.2h2.2v-2.3h-2.2v2.3Z" class="g0_61"/>
<path fill-rule="evenodd" d="M651.4,910.1H854v-2.2H651.4v2.2Z" class="g0_61"/>
<path fill-rule="evenodd" d="M273.3,929.1h2.3V910.2h-2.3v18.9Z" class="g0_61"/>
<path fill-rule="evenodd" d="M461.3,929.1h2.2V910.2h-2.2v18.9Z" class="g0_61"/>
<path fill-rule="evenodd" d="M649.2,929.1h2.2V910.2h-2.2v18.9Z" class="g0_61"/>
<path fill-rule="evenodd" d="M273.3,931.5h2.3v-2.4h-2.3v2.4Z" class="g0_61"/>
<path fill-rule="evenodd" d="M461.3,931.5h2.2v-2.4h-2.2v2.4Z" class="g0_61"/>
<path fill-rule="evenodd" d="M463.5,931.3H649.2v-2.2H463.5v2.2Z" class="g0_61"/>
<path fill-rule="evenodd" d="M649.2,931.5h2.2v-2.4h-2.2v2.4Z" class="g0_61"/>
<path fill-rule="evenodd" d="M651.4,931.3H854v-2.2H651.4v2.2Z" class="g0_61"/>
<path fill-rule="evenodd" d="M273.3,950.2h2.3V931.5h-2.3v18.7Z" class="g0_61"/>
<path fill-rule="evenodd" d="M461.3,950.2h2.2V931.5h-2.2v18.7Z" class="g0_61"/>
<path fill-rule="evenodd" d="M649.2,950.2h2.2V931.5h-2.2v18.7Z" class="g0_61"/>
<path fill-rule="evenodd" d="M273.3,952.6h2.3v-2.4h-2.3v2.4Z" class="g0_61"/>
<path fill-rule="evenodd" d="M461.3,952.6h2.2v-2.4h-2.2v2.4Z" class="g0_61"/>
<path fill-rule="evenodd" d="M463.5,952.4H649.2v-2.2H463.5v2.2Z" class="g0_61"/>
<path fill-rule="evenodd" d="M649.2,952.6h2.2v-2.4h-2.2v2.4Z" class="g0_61"/>
<path fill-rule="evenodd" d="M651.4,952.4H854v-2.2H651.4v2.2Z" class="g0_61"/>
<path fill-rule="evenodd" d="M273.3,971.3h2.3V952.6h-2.3v18.7Z" class="g0_61"/>
<path fill-rule="evenodd" d="M461.3,971.3h2.2V952.6h-2.2v18.7Z" class="g0_61"/>
<path fill-rule="evenodd" d="M649.2,971.3h2.2V952.6h-2.2v18.7Z" class="g0_61"/>
<path fill-rule="evenodd" d="M273.3,973.7h2.3v-2.4h-2.3v2.4Z" class="g0_61"/>
<path fill-rule="evenodd" d="M461.3,973.7h2.2v-2.4h-2.2v2.4Z" class="g0_61"/>
<path fill-rule="evenodd" d="M463.5,973.5H649.2v-2.2H463.5v2.2Z" class="g0_61"/>
<path fill-rule="evenodd" d="M649.2,973.7h2.2v-2.4h-2.2v2.4Z" class="g0_61"/>
<path fill-rule="evenodd" d="M651.4,973.5H854v-2.2H651.4v2.2Z" class="g0_61"/>
<path fill-rule="evenodd" d="M273.3,992.6h2.3V973.7h-2.3v18.9Z" class="g0_61"/>
<path fill-rule="evenodd" d="M461.3,992.6h2.2V973.7h-2.2v18.9Z" class="g0_61"/>
<path fill-rule="evenodd" d="M649.2,992.6h2.2V973.7h-2.2v18.9Z" class="g0_61"/>
<path fill-rule="evenodd" d="M273.3,994.9h2.3v-2.3h-2.3v2.3Z" class="g0_61"/>
<path fill-rule="evenodd" d="M275.6,994.8H461.3v-2.2H275.6v2.2Z" class="g0_61"/>
<path fill-rule="evenodd" d="M461.3,994.9h2.2v-2.3h-2.2v2.3Z" class="g0_61"/>
<path fill-rule="evenodd" d="M463.5,994.8H649.2v-2.2H463.5v2.2Z" class="g0_61"/>
<path fill-rule="evenodd" d="M649.2,994.9h2.2v-2.3h-2.2v2.3Z" class="g0_61"/>
<path fill-rule="evenodd" d="M651.4,994.8H854v-2.2H651.4v2.2Z" class="g0_61"/>
<path fill-rule="evenodd" d="M273.3,1013.7h2.3V994.9h-2.3v18.8Z" class="g0_61"/>
<path fill-rule="evenodd" d="M461.3,1013.7h2.2V994.9h-2.2v18.8Z" class="g0_61"/>
<path fill-rule="evenodd" d="M649.2,1013.7h2.2V994.9h-2.2v18.8Z" class="g0_61"/>
<path fill-rule="evenodd" d="M273.3,1016h2.3v-2.3h-2.3v2.3Z" class="g0_61"/>
<path fill-rule="evenodd" d="M461.3,1016h2.2v-2.3h-2.2v2.3Z" class="g0_61"/>
<path fill-rule="evenodd" d="M463.5,1015.9H649.2v-2.2H463.5v2.2Z" class="g0_61"/>
<path fill-rule="evenodd" d="M649.2,1016h2.2v-2.3h-2.2v2.3Z" class="g0_61"/>
<path fill-rule="evenodd" d="M651.4,1015.9H854v-2.2H651.4v2.2Z" class="g0_61"/>
<path fill-rule="evenodd" d="M273.3,1034.9h2.3V1016h-2.3v18.9Z" class="g0_61"/>
<path fill-rule="evenodd" d="M461.3,1034.9h2.2V1016h-2.2v18.9Z" class="g0_61"/>
<path fill-rule="evenodd" d="M649.2,1034.9h2.2V1016h-2.2v18.9Z" class="g0_61"/>
<path fill-rule="evenodd" d="M273.3,1037.3h2.3v-2.4h-2.3v2.4Z" class="g0_61"/>
<path fill-rule="evenodd" d="M461.3,1037.3h2.2v-2.4h-2.2v2.4Z" class="g0_61"/>
<path fill-rule="evenodd" d="M463.5,1037.1H649.2v-2.2H463.5v2.2Z" class="g0_61"/>
<path fill-rule="evenodd" d="M649.2,1037.3h2.2v-2.4h-2.2v2.4Z" class="g0_61"/>
<path fill-rule="evenodd" d="M651.4,1037.1H854v-2.2H651.4v2.2Z" class="g0_61"/>
<path fill-rule="evenodd" d="M273.3,1056h2.3v-18.7h-2.3V1056Z" class="g0_61"/>
<path fill-rule="evenodd" d="M461.3,1056h2.2v-18.7h-2.2V1056Z" class="g0_61"/>
<path fill-rule="evenodd" d="M649.2,1056h2.2v-18.7h-2.2V1056Z" class="g0_61"/>
<path fill-rule="evenodd" d="M273.3,1058.4h2.3V1056h-2.3v2.4Z" class="g0_61"/>
<path fill-rule="evenodd" d="M461.3,1058.4h2.2V1056h-2.2v2.4Z" class="g0_61"/>
<path fill-rule="evenodd" d="M463.5,1058.2H649.2V1056H463.5v2.2Z" class="g0_61"/>
<path fill-rule="evenodd" d="M649.2,1058.4h2.2V1056h-2.2v2.4Z" class="g0_61"/>
<path fill-rule="evenodd" d="M651.4,1058.2H854V1056H651.4v2.2Z" class="g0_61"/>
<path fill-rule="evenodd" d="M86.5,1079.5H273.3v-2.2H86.5v2.2Z" class="g0_61"/>
<path fill-rule="evenodd" d="M273.3,1077.3h2.3v-18.9h-2.3v18.9Z" class="g0_61"/>
<path fill-rule="evenodd" d="M273.3,1079.5h2.3v-2.2h-2.3v2.2Z" class="g0_61"/>
<path fill-rule="evenodd" d="M275.6,1079.5H461.3v-2.2H275.6v2.2Z" class="g0_61"/>
<path fill-rule="evenodd" d="M461.3,1077.3h2.2v-18.9h-2.2v18.9Z" class="g0_61"/>
<path fill-rule="evenodd" d="M461.3,1079.5h2.2v-2.2h-2.2v2.2Z" class="g0_61"/>
<path fill-rule="evenodd" d="M463.5,1079.5H649.2v-2.2H463.5v2.2Z" class="g0_61"/>
<path fill-rule="evenodd" d="M649.2,1077.3h2.2v-18.9h-2.2v18.9Z" class="g0_61"/>
<path fill-rule="evenodd" d="M649.2,1079.5h2.2v-2.2h-2.2v2.2Z" class="g0_61"/>
<path fill-rule="evenodd" d="M651.4,1079.5H854v-2.2H651.4v2.2Z" class="g0_61"/>
</svg>