<?xml version="1.0" encoding="UTF-8" standalone="no"?>
<!DOCTYPE svg PUBLIC "-//W3C//DTD SVG 1.1//EN"
"http://www.w3.org/Graphics/SVG/1.1/DTD/svg11.dtd">
<svg viewBox="0 0 935 1210" version="1.1" xmlns="http://www.w3.org/2000/svg" xmlns:xlink="http://www.w3.org/1999/xlink">
<defs>
<style type="text/css"><![CDATA[
.g0_35{
fill: #00755C;
}
]]></style>
</defs>
<path d="M86.5,66.5H263.3V65.1H86.5v1.4Z" class="g0_35"/>
<path d="M263.3,66.5h1.4V65.1h-1.4v1.4Z" class="g0_35"/>
<path d="M264.7,66.5H848.8V65.1H264.7v1.4Z" class="g0_35"/>
<path d="M85.4,120.1H263.3v-1.5H85.4v1.5Z" class="g0_35"/>
<path d="M262.2,120.1h1.4v-1.5h-1.4v1.5Z" class="g0_35"/>
<path d="M263.6,120.1H848.8v-1.5H263.6v1.5Z" class="g0_35"/>
<path d="M84.3,1113.8H431.9v-.8H84.3v.8Z" class="g0_35"/>
<path d="M431.9,1113.8h.8v-.8h-.8v.8Z" class="g0_35"/>
<path d="M432.7,1113.8h66.5v-.8H432.7v.8Z" class="g0_35"/>
<path d="M499.2,1113.8h.8v-.8h-.8v.8Z" class="g0_35"/>
<path d="M499.9,1113.8H846.6v-.8H499.9v.8Z" class="g0_35"/>
<image preserveAspectRatio="none" x="89" y="67" width="172" height="51" xlink:href="img/1.png"/>
<image preserveAspectRatio="none" x="739" y="1124" width="107" height="42" xlink:href="img/2.png"/>
<path fill-rule="evenodd" d="M86.5,236.3H341.2v-2.2H86.5v2.2Z" class="g0_35"/>
<path d="M341.2,236.5h2.2v-.2h-2.2v.2Z" class="g0_35"/>
<path fill-rule="evenodd" d="M341.2,236.3h2.2v-2.2h-2.2v2.2Z" class="g0_35"/>
<path fill-rule="evenodd" d="M343.4,236.3H596.9v-2.2H343.4v2.2Z" class="g0_35"/>
<path d="M596.9,236.5h2.2v-.2h-2.2v.2Z" class="g0_35"/>
<path fill-rule="evenodd" d="M596.9,236.3h2.2v-2.2h-2.2v2.2Z" class="g0_35"/>
<path fill-rule="evenodd" d="M599.1,236.3H854v-2.2H599.1v2.2Z" class="g0_35"/>
<path fill-rule="evenodd" d="M341.2,271h2.2V236.5h-2.2V271Z" class="g0_35"/>
<path fill-rule="evenodd" d="M596.9,271h2.2V236.5h-2.2V271Z" class="g0_35"/>
<path fill-rule="evenodd" d="M86.5,273.2H341.2V271H86.5v2.2Z" class="g0_35"/>
<path fill-rule="evenodd" d="M341.2,273.3h2.2V271h-2.2v2.3Z" class="g0_35"/>
<path fill-rule="evenodd" d="M343.4,273.2H596.9V271H343.4v2.2Z" class="g0_35"/>
<path fill-rule="evenodd" d="M596.9,273.3h2.2V271h-2.2v2.3Z" class="g0_35"/>
<path fill-rule="evenodd" d="M599.1,273.2H854V271H599.1v2.2Z" class="g0_35"/>
<path fill-rule="evenodd" d="M85.4,310.2H341.2V308H85.4v2.2Z" class="g0_35"/>
<path fill-rule="evenodd" d="M341.2,308h2.2V273.3h-2.2V308Z" class="g0_35"/>
<path fill-rule="evenodd" d="M341.2,310.2h2.2V308h-2.2v2.2Z" class="g0_35"/>
<path fill-rule="evenodd" d="M343.4,310.2H596.9V308H343.4v2.2Z" class="g0_35"/>
<path fill-rule="evenodd" d="M596.9,308h2.2V273.3h-2.2V308Z" class="g0_35"/>
<path fill-rule="evenodd" d="M596.9,310.2h2.2V308h-2.2v2.2Z" class="g0_35"/>
<path fill-rule="evenodd" d="M599.1,310.2H854V308H599.1v2.2Z" class="g0_35"/>
</svg>