<?xml version="1.0" encoding="UTF-8" standalone="no"?>
<!DOCTYPE svg PUBLIC "-//W3C//DTD SVG 1.1//EN"
"http://www.w3.org/Graphics/SVG/1.1/DTD/svg11.dtd">
<svg viewBox="0 0 935 1210" version="1.1" xmlns="http://www.w3.org/2000/svg" xmlns:xlink="http://www.w3.org/1999/xlink">
<defs>
<style type="text/css"><![CDATA[
.g0_36{
fill: #00755C;
}
]]></style>
</defs>
<path d="M86.6,66.5H263.4V65H86.6v1.5Z" class="g0_36"/>
<path d="M263.4,66.5h1.4V65h-1.4v1.5Z" class="g0_36"/>
<path d="M264.8,66.5H848.9V65H264.8v1.5Z" class="g0_36"/>
<path d="M85.5,120H263.4v-1.5H85.5V120Z" class="g0_36"/>
<path d="M262.3,120h1.4v-1.5h-1.4V120Z" class="g0_36"/>
<path d="M263.7,120H848.9v-1.5H263.7V120Z" class="g0_36"/>
<path d="M84.5,1113.8H432v-.7H84.5v.7Z" class="g0_36"/>
<path d="M432,1113.8h.8v-.7H432v.7Z" class="g0_36"/>
<path d="M432.8,1113.8h66.6v-.7H432.8v.7Z" class="g0_36"/>
<path d="M499.4,1113.8h.7v-.7h-.7v.7Z" class="g0_36"/>
<path d="M500.1,1113.8H846.8v-.7H500.1v.7Z" class="g0_36"/>
<image preserveAspectRatio="none" x="89" y="67" width="172" height="51" xlink:href="img/1.png"/>
<image preserveAspectRatio="none" x="739" y="1124" width="107" height="42" xlink:href="img/2.png"/>
</svg>