<?xml version="1.0" encoding="UTF-8" standalone="no"?>
<!DOCTYPE svg PUBLIC "-//W3C//DTD SVG 1.1//EN"
"http://www.w3.org/Graphics/SVG/1.1/DTD/svg11.dtd">
<svg viewBox="0 0 1210 935" version="1.1" xmlns="http://www.w3.org/2000/svg" xmlns:xlink="http://www.w3.org/1999/xlink">
<defs>
<style type="text/css"><![CDATA[
.g0_12{
}
]]></style>
</defs>
<path d="M110,111.1H219.1v-.7H110v.7Z" class="g0_12"/>
<path d="M219.1,111.1h.7v-.7h-.7v.7Z" class="g0_12"/>
<path d="M219.8,111.1H393.6v-.7H219.8v.7Z" class="g0_12"/>
<path d="M393.6,111.1h.8v-.7h-.8v.7Z" class="g0_12"/>
<path d="M394.3,111.1h63.9v-.7H394.3v.7Z" class="g0_12"/>
<path d="M458.2,111.1h.7v-.7h-.7v.7Z" class="g0_12"/>
<path d="M458.9,111.1h89.6v-.7H458.9v.7Z" class="g0_12"/>
<path d="M548.5,111.1h.8v-.7h-.8v.7Z" class="g0_12"/>
<path d="M549.3,111.1H779.9v-.7H549.3v.7Z" class="g0_12"/>
<path d="M779.9,111.1h.7v-.7h-.7v.7Z" class="g0_12"/>
<path d="M780.6,111.1H884.2v-.7H780.6v.7Z" class="g0_12"/>
<path d="M884.2,111.1h.7v-.7h-.7v.7Z" class="g0_12"/>
<path d="M884.9,111.1h137.4v-.7H884.9v.7Z" class="g0_12"/>
<path d="M1022.3,111.1h.7v-.7h-.7v.7Z" class="g0_12"/>
<path d="M1023,111.1h77v-.7h-77v.7Z" class="g0_12"/>
<path d="M110,191.2H219.1v-.7H110v.7Z" class="g0_12"/>
<path d="M219.1,191.2h.7v-.7h-.7v.7Z" class="g0_12"/>
<path d="M219.8,191.2H393.6v-.7H219.8v.7Z" class="g0_12"/>
<path d="M393.6,191.2h.8v-.7h-.8v.7Z" class="g0_12"/>
<path d="M394.3,191.2h63.9v-.7H394.3v.7Z" class="g0_12"/>
<path d="M458.2,191.2h.7v-.7h-.7v.7Z" class="g0_12"/>
<path d="M458.9,191.2h89.6v-.7H458.9v.7Z" class="g0_12"/>
<path d="M548.5,191.2h.8v-.7h-.8v.7Z" class="g0_12"/>
<path d="M549.3,191.2H779.9v-.7H549.3v.7Z" class="g0_12"/>
<path d="M779.9,191.2h.7v-.7h-.7v.7Z" class="g0_12"/>
<path d="M780.6,191.2H884.2v-.7H780.6v.7Z" class="g0_12"/>
<path d="M884.2,191.2h.7v-.7h-.7v.7Z" class="g0_12"/>
<path d="M884.9,191.2h137.4v-.7H884.9v.7Z" class="g0_12"/>
<path d="M1022.3,191.2h.7v-.7h-.7v.7Z" class="g0_12"/>
<path d="M1023,191.2h77v-.7h-77v.7Z" class="g0_12"/>
<path d="M110,220.9H219.1v-.7H110v.7Z" class="g0_12"/>
<path d="M219.1,220.9h.7v-.7h-.7v.7Z" class="g0_12"/>
<path d="M219.8,220.9H393.6v-.7H219.8v.7Z" class="g0_12"/>
<path d="M393.6,220.9h.8v-.7h-.8v.7Z" class="g0_12"/>
<path d="M394.3,220.9h63.9v-.7H394.3v.7Z" class="g0_12"/>
<path d="M458.2,220.9h.7v-.7h-.7v.7Z" class="g0_12"/>
<path d="M458.9,220.9h89.6v-.7H458.9v.7Z" class="g0_12"/>
<path d="M548.5,220.9h.8v-.7h-.8v.7Z" class="g0_12"/>
<path d="M549.3,220.9H779.9v-.7H549.3v.7Z" class="g0_12"/>
<path d="M779.9,220.9h.7v-.7h-.7v.7Z" class="g0_12"/>
<path d="M780.6,220.9H884.2v-.7H780.6v.7Z" class="g0_12"/>
<path d="M884.2,220.9h.7v-.7h-.7v.7Z" class="g0_12"/>
<path d="M884.9,220.9h137.4v-.7H884.9v.7Z" class="g0_12"/>
<path d="M1022.3,220.9h.7v-.7h-.7v.7Z" class="g0_12"/>
<path d="M1023,220.9h77v-.7h-77v.7Z" class="g0_12"/>
<path d="M219.1,418.5H393.6v-.7H219.1v.7Z" class="g0_12"/>
<path d="M393.6,418.5h.8v-.7h-.8v.7Z" class="g0_12"/>
<path d="M394.3,418.5h63.9v-.7H394.3v.7Z" class="g0_12"/>
<path d="M458.2,418.5h.7v-.7h-.7v.7Z" class="g0_12"/>
<path d="M458.9,418.5h89.6v-.7H458.9v.7Z" class="g0_12"/>
<path d="M548.5,418.5h.8v-.7h-.8v.7Z" class="g0_12"/>
<path d="M549.3,418.5H779.9v-.7H549.3v.7Z" class="g0_12"/>
<path d="M779.9,418.5h.7v-.7h-.7v.7Z" class="g0_12"/>
<path d="M780.6,418.5H884.2v-.7H780.6v.7Z" class="g0_12"/>
<path d="M884.2,418.5h.7v-.7h-.7v.7Z" class="g0_12"/>
<path d="M884.9,418.5h137.4v-.7H884.9v.7Z" class="g0_12"/>
<path d="M1022.3,418.5h.7v-.7h-.7v.7Z" class="g0_12"/>
<path d="M1023,418.5h77v-.7h-77v.7Z" class="g0_12"/>
<path d="M219.1,549.1H393.6v-.7H219.1v.7Z" class="g0_12"/>
<path d="M393.6,549.1h.8v-.7h-.8v.7Z" class="g0_12"/>
<path d="M394.3,549.1h63.9v-.7H394.3v.7Z" class="g0_12"/>
<path d="M458.2,549.1h.7v-.7h-.7v.7Z" class="g0_12"/>
<path d="M458.9,549.1h89.6v-.7H458.9v.7Z" class="g0_12"/>
<path d="M548.5,549.1h.8v-.7h-.8v.7Z" class="g0_12"/>
<path d="M549.3,549.1H779.9v-.7H549.3v.7Z" class="g0_12"/>
<path d="M779.9,549.1h.7v-.7h-.7v.7Z" class="g0_12"/>
<path d="M780.6,549.1H884.2v-.7H780.6v.7Z" class="g0_12"/>
<path d="M884.2,549.1h.7v-.7h-.7v.7Z" class="g0_12"/>
<path d="M884.9,549.1h137.4v-.7H884.9v.7Z" class="g0_12"/>
<path d="M1022.3,549.1h.7v-.7h-.7v.7Z" class="g0_12"/>
<path d="M1023,549.1h77v-.7h-77v.7Z" class="g0_12"/>
<path d="M110,679.6H219.1v-.7H110v.7Z" class="g0_12"/>
<path d="M219.1,679.6h.7v-.7h-.7v.7Z" class="g0_12"/>
<path d="M219.8,679.6H393.6v-.7H219.8v.7Z" class="g0_12"/>
<path d="M393.6,679.6h.8v-.7h-.8v.7Z" class="g0_12"/>
<path d="M394.3,679.6h63.9v-.7H394.3v.7Z" class="g0_12"/>
<path d="M458.2,679.6h.7v-.7h-.7v.7Z" class="g0_12"/>
<path d="M458.9,679.6h89.6v-.7H458.9v.7Z" class="g0_12"/>
<path d="M548.5,679.6h.8v-.7h-.8v.7Z" class="g0_12"/>
<path d="M549.3,679.6H779.9v-.7H549.3v.7Z" class="g0_12"/>
<path d="M779.9,679.6h.7v-.7h-.7v.7Z" class="g0_12"/>
<path d="M780.6,679.6H884.2v-.7H780.6v.7Z" class="g0_12"/>
<path d="M884.2,679.6h.7v-.7h-.7v.7Z" class="g0_12"/>
<path d="M884.9,679.6h137.4v-.7H884.9v.7Z" class="g0_12"/>
<path d="M1022.3,679.6h.7v-.7h-.7v.7Z" class="g0_12"/>
<path d="M1023,679.6h77v-.7h-77v.7Z" class="g0_12"/>
</svg>