<?xml version="1.0" encoding="UTF-8" standalone="no"?>
<!DOCTYPE svg PUBLIC "-//W3C//DTD SVG 1.1//EN"
"http://www.w3.org/Graphics/SVG/1.1/DTD/svg11.dtd">
<svg viewBox="0 0 935 1210" version="1.1" xmlns="http://www.w3.org/2000/svg" xmlns:xlink="http://www.w3.org/1999/xlink">
<defs>
<style type="text/css"><![CDATA[
.g0_33{
}
]]></style>
</defs>
<path d="M110,111.1h75.7v-.7H110v.7Z" class="g0_33"/>
<path d="M185.7,111.1h.8v-.7h-.8v.7Z" class="g0_33"/>
<path d="M186.5,111.1h74.8v-.7H186.5v.7Z" class="g0_33"/>
<path d="M261.3,111.1h.7v-.7h-.7v.7Z" class="g0_33"/>
<path d="M262,111.1h95.5v-.7H262v.7Z" class="g0_33"/>
<path d="M357.5,111.1h.7v-.7h-.7v.7Z" class="g0_33"/>
<path d="M358.2,111.1H825v-.7H358.2v.7Z" class="g0_33"/>
<path d="M365.7,162.4H481.6v-.9H365.7v.9Z" class="g0_33"/>
<path d="M365.7,325.6h61.5v-.9H365.7v.9Z" class="g0_33"/>
<path d="M365.7,438.5H610.3v-.9H365.7v.9Z" class="g0_33"/>
<path d="M110,140.8h75.7v-.7H110v.7Z" class="g0_33"/>
<path d="M185.7,140.8h.8v-.7h-.8v.7Z" class="g0_33"/>
<path d="M186.5,140.8h74.8v-.7H186.5v.7Z" class="g0_33"/>
<path d="M261.3,140.8h.7v-.7h-.7v.7Z" class="g0_33"/>
<path d="M262,140.8h95.5v-.7H262v.7Z" class="g0_33"/>
<path d="M357.5,140.8h.7v-.7h-.7v.7Z" class="g0_33"/>
<path d="M358.2,140.8H825v-.7H358.2v.7Z" class="g0_33"/>
<path d="M110,520.1h75.7v-.7H110v.7Z" class="g0_33"/>
<path d="M185.7,520.1h.8v-.7h-.8v.7Z" class="g0_33"/>
<path d="M186.5,520.1h74.8v-.7H186.5v.7Z" class="g0_33"/>
<path d="M261.3,520.1h.7v-.7h-.7v.7Z" class="g0_33"/>
<path d="M262,520.1h95.5v-.7H262v.7Z" class="g0_33"/>
<path d="M357.5,520.1h.7v-.7h-.7v.7Z" class="g0_33"/>
<path d="M358.2,520.1H825v-.7H358.2v.7Z" class="g0_33"/>
<path d="M365.7,695H520.3v-.9H365.7v.9Z" class="g0_33"/>
<path d="M365.7,864.4H481.6v-.9H365.7v.9Z" class="g0_33"/>
<path d="M365.7,994h61.5v-.9H365.7v.9Z" class="g0_33"/>
<path d="M110,600.2h75.7v-.7H110v.7Z" class="g0_33"/>
<path d="M185.7,600.2h.8v-.7h-.8v.7Z" class="g0_33"/>
<path d="M186.5,600.2h74.8v-.7H186.5v.7Z" class="g0_33"/>
<path d="M261.3,600.2h.7v-.7h-.7v.7Z" class="g0_33"/>
<path d="M262,600.2h95.5v-.7H262v.7Z" class="g0_33"/>
<path d="M357.5,600.2h.7v-.7h-.7v.7Z" class="g0_33"/>
<path d="M358.2,600.2H825v-.7H358.2v.7Z" class="g0_33"/>
<path d="M108.9,1042.1h76.8v-.8H108.9v.8Z" class="g0_33"/>
<path d="M184.6,1042.1h.8v-.8h-.8v.8Z" class="g0_33"/>
<path d="M185.4,1042.1h75.9v-.8H185.4v.8Z" class="g0_33"/>
<path d="M260.2,1042.1h.7v-.8h-.7v.8Z" class="g0_33"/>
<path d="M260.9,1042.1h96.6v-.8H260.9v.8Z" class="g0_33"/>
<path d="M356.4,1042.1h.7v-.8h-.7v.8Z" class="g0_33"/>
<path d="M357.1,1042.1H825v-.8H357.1v.8Z" class="g0_33"/>
</svg>