<?xml version="1.0" encoding="UTF-8" standalone="no"?>
<!DOCTYPE svg PUBLIC "-//W3C//DTD SVG 1.1//EN"
"http://www.w3.org/Graphics/SVG/1.1/DTD/svg11.dtd">
<svg viewBox="0 0 935 1210" version="1.1" xmlns="http://www.w3.org/2000/svg" xmlns:xlink="http://www.w3.org/1999/xlink">
<defs>
<style type="text/css"><![CDATA[
.g0_19{
fill: #00755C;
}
.g1_19{
}
]]></style>
</defs>
<path d="M86.5,66.5H263.3V65.1H86.5v1.4Z" class="g0_19"/>
<path d="M263.3,66.5h1.4V65.1h-1.4v1.4Z" class="g0_19"/>
<path d="M264.7,66.5H848.8V65.1H264.7v1.4Z" class="g0_19"/>
<path d="M85.4,120.1H263.3v-1.5H85.4v1.5Z" class="g0_19"/>
<path d="M262.2,120.1h1.4v-1.5h-1.4v1.5Z" class="g0_19"/>
<path d="M263.6,120.1H848.8v-1.5H263.6v1.5Z" class="g0_19"/>
<path d="M84.3,1113.8H430.1v-.8H84.3v.8Z" class="g0_19"/>
<path d="M430.1,1113.8h.7v-.8h-.7v.8Z" class="g0_19"/>
<path d="M430.8,1113.8H497v-.8H430.8v.8Z" class="g0_19"/>
<path d="M497,1113.8h.8v-.8H497v.8Z" class="g0_19"/>
<path d="M497.7,1113.8H846.6v-.8H497.7v.8Z" class="g0_19"/>
<image preserveAspectRatio="none" x="89" y="67" width="172" height="51" xlink:href="img/1.png"/>
<image preserveAspectRatio="none" x="735" y="1124" width="107" height="42" xlink:href="img/2.png"/>
<path d="M86.4,197.6H222.2v-.7H86.4v.7Z" class="g1_19"/>
<path d="M222.2,197.6h.7v-.7h-.7v.7Z" class="g1_19"/>
<path d="M222.9,197.6H848.6v-.7H222.9v.7Z" class="g1_19"/>
<path d="M86.4,222H222.2v-.7H86.4v.7Z" class="g1_19"/>
<path d="M222.2,222h.7v-.7h-.7v.7Z" class="g1_19"/>
<path d="M222.9,222H848.6v-.7H222.9v.7Z" class="g1_19"/>
<path d="M86.4,246.6H222.2v-.7H86.4v.7Z" class="g1_19"/>
<path d="M222.2,246.6h.7v-.7h-.7v.7Z" class="g1_19"/>
<path d="M222.9,246.6H848.6v-.7H222.9v.7Z" class="g1_19"/>
<path d="M86.4,271H222.2v-.8H86.4v.8Z" class="g1_19"/>
<path d="M222.2,271h.7v-.8h-.7v.8Z" class="g1_19"/>
<path d="M222.9,271H848.6v-.8H222.9v.8Z" class="g1_19"/>
<path d="M86.4,295.4H222.2v-.8H86.4v.8Z" class="g1_19"/>
<path d="M222.2,295.4h.7v-.8h-.7v.8Z" class="g1_19"/>
<path d="M222.9,295.4H848.6v-.8H222.9v.8Z" class="g1_19"/>
<path d="M86.4,319.9H222.2v-.7H86.4v.7Z" class="g1_19"/>
<path d="M222.2,319.9h.7v-.7h-.7v.7Z" class="g1_19"/>
<path d="M222.9,319.9H848.6v-.7H222.9v.7Z" class="g1_19"/>
<path d="M86.4,344.3H222.2v-.7H86.4v.7Z" class="g1_19"/>
<path d="M222.2,344.3h.7v-.7h-.7v.7Z" class="g1_19"/>
<path d="M222.9,344.3H848.6v-.7H222.9v.7Z" class="g1_19"/>
<path d="M86.4,368.7H222.2V368H86.4v.7Z" class="g1_19"/>
<path d="M222.2,368.7h.7V368h-.7v.7Z" class="g1_19"/>
<path d="M222.9,368.7H848.6V368H222.9v.7Z" class="g1_19"/>
<path d="M86.4,393.3H222.2v-.8H86.4v.8Z" class="g1_19"/>
<path d="M222.2,393.3h.7v-.8h-.7v.8Z" class="g1_19"/>
<path d="M222.9,393.3H848.6v-.8H222.9v.8Z" class="g1_19"/>
<path d="M86.4,417.6H222.2v-.7H86.4v.7Z" class="g1_19"/>
<path d="M222.2,417.6h.7v-.7h-.7v.7Z" class="g1_19"/>
<path d="M222.9,417.6H848.6v-.7H222.9v.7Z" class="g1_19"/>
<path d="M86.4,442H222.2v-.7H86.4v.7Z" class="g1_19"/>
<path d="M222.2,442h.7v-.7h-.7v.7Z" class="g1_19"/>
<path d="M222.9,442H848.6v-.7H222.9v.7Z" class="g1_19"/>
<path d="M86.4,466.6H222.2v-.8H86.4v.8Z" class="g1_19"/>
<path d="M222.2,466.6h.7v-.8h-.7v.8Z" class="g1_19"/>
<path d="M222.9,466.6H848.6v-.8H222.9v.8Z" class="g1_19"/>
<path d="M86.4,491H222.2v-.8H86.4v.8Z" class="g1_19"/>
<path d="M222.2,491h.7v-.8h-.7v.8Z" class="g1_19"/>
<path d="M222.9,491H848.6v-.8H222.9v.8Z" class="g1_19"/>
<path d="M86.4,515.4H222.2v-.8H86.4v.8Z" class="g1_19"/>
<path d="M222.2,515.4h.7v-.8h-.7v.8Z" class="g1_19"/>
<path d="M222.9,515.4H848.6v-.8H222.9v.8Z" class="g1_19"/>
<path d="M86.4,539.9H222.2v-.7H86.4v.7Z" class="g1_19"/>
<path d="M222.2,539.9h.7v-.7h-.7v.7Z" class="g1_19"/>
<path d="M222.9,539.9H848.6v-.7H222.9v.7Z" class="g1_19"/>
<path d="M86.4,564.3H222.2v-.7H86.4v.7Z" class="g1_19"/>
<path d="M222.2,564.3h.7v-.7h-.7v.7Z" class="g1_19"/>
<path d="M222.9,564.3H848.6v-.7H222.9v.7Z" class="g1_19"/>
<path d="M86.4,588.7H222.2v-.8H86.4v.8Z" class="g1_19"/>
<path d="M222.2,588.7h.7v-.8h-.7v.8Z" class="g1_19"/>
<path d="M222.9,588.7H848.6v-.8H222.9v.8Z" class="g1_19"/>
<path d="M86.4,613.2H222.2v-.7H86.4v.7Z" class="g1_19"/>
<path d="M222.2,613.2h.7v-.7h-.7v.7Z" class="g1_19"/>
<path d="M222.9,613.2H848.6v-.7H222.9v.7Z" class="g1_19"/>
<path d="M86.4,637.6H222.2v-.7H86.4v.7Z" class="g1_19"/>
<path d="M222.2,637.6h.7v-.7h-.7v.7Z" class="g1_19"/>
<path d="M222.9,637.6H848.6v-.7H222.9v.7Z" class="g1_19"/>
<path d="M86.4,662H222.2v-.7H86.4v.7Z" class="g1_19"/>
<path d="M222.2,662h.7v-.7h-.7v.7Z" class="g1_19"/>
<path d="M222.9,662H848.6v-.7H222.9v.7Z" class="g1_19"/>
<path d="M86.4,686.6H222.2v-.8H86.4v.8Z" class="g1_19"/>
<path d="M222.2,686.6h.7v-.8h-.7v.8Z" class="g1_19"/>
<path d="M222.9,686.6H848.6v-.8H222.9v.8Z" class="g1_19"/>
<path d="M86.4,711H222.2v-.8H86.4v.8Z" class="g1_19"/>
<path d="M222.2,711h.7v-.8h-.7v.8Z" class="g1_19"/>
<path d="M222.9,711H848.6v-.8H222.9v.8Z" class="g1_19"/>
<path d="M86.4,735.4H222.2v-.8H86.4v.8Z" class="g1_19"/>
<path d="M222.2,735.4h.7v-.8h-.7v.8Z" class="g1_19"/>
<path d="M222.9,735.4H848.6v-.8H222.9v.8Z" class="g1_19"/>
<path d="M86.4,759.9H222.2v-.7H86.4v.7Z" class="g1_19"/>
<path d="M222.2,759.9h.7v-.7h-.7v.7Z" class="g1_19"/>
<path d="M222.9,759.9H848.6v-.7H222.9v.7Z" class="g1_19"/>
<path d="M86.4,784.3H222.2v-.7H86.4v.7Z" class="g1_19"/>
<path d="M222.2,784.3h.7v-.7h-.7v.7Z" class="g1_19"/>
<path d="M222.9,784.3H848.6v-.7H222.9v.7Z" class="g1_19"/>
<path d="M86.4,808.7H222.2V808H86.4v.7Z" class="g1_19"/>
<path d="M222.2,808.7h.7V808h-.7v.7Z" class="g1_19"/>
<path d="M222.9,808.7H848.6V808H222.9v.7Z" class="g1_19"/>
<path d="M86.4,833.2H222.2v-.7H86.4v.7Z" class="g1_19"/>
<path d="M222.2,833.2h.7v-.7h-.7v.7Z" class="g1_19"/>
<path d="M222.9,833.2H848.6v-.7H222.9v.7Z" class="g1_19"/>
<path d="M86.4,857.6H222.2v-.7H86.4v.7Z" class="g1_19"/>
<path d="M222.2,857.6h.7v-.7h-.7v.7Z" class="g1_19"/>
<path d="M222.9,857.6H848.6v-.7H222.9v.7Z" class="g1_19"/>
<path d="M86.4,882H222.2v-.7H86.4v.7Z" class="g1_19"/>
<path d="M222.2,882h.7v-.7h-.7v.7Z" class="g1_19"/>
<path d="M222.9,882H848.6v-.7H222.9v.7Z" class="g1_19"/>
<path d="M86.4,906.6H222.2v-.7H86.4v.7Z" class="g1_19"/>
<path d="M222.2,906.6h.7v-.7h-.7v.7Z" class="g1_19"/>
<path d="M222.9,906.6H848.6v-.7H222.9v.7Z" class="g1_19"/>
<path d="M86.4,931H222.2v-.8H86.4v.8Z" class="g1_19"/>
<path d="M222.2,931h.7v-.8h-.7v.8Z" class="g1_19"/>
<path d="M222.9,931H848.6v-.8H222.9v.8Z" class="g1_19"/>
<path d="M86.4,955.3H222.2v-.7H86.4v.7Z" class="g1_19"/>
<path d="M222.2,955.3h.7v-.7h-.7v.7Z" class="g1_19"/>
<path d="M222.9,955.3H848.6v-.7H222.9v.7Z" class="g1_19"/>
<path d="M86.4,979.9H222.2v-.7H86.4v.7Z" class="g1_19"/>
<path d="M222.2,979.9h.7v-.7h-.7v.7Z" class="g1_19"/>
<path d="M222.9,979.9H848.6v-.7H222.9v.7Z" class="g1_19"/>
<path d="M86.4,1004.3H222.2v-.7H86.4v.7Z" class="g1_19"/>
<path d="M222.2,1004.3h.7v-.7h-.7v.7Z" class="g1_19"/>
<path d="M222.9,1004.3H848.6v-.7H222.9v.7Z" class="g1_19"/>
<path d="M86.4,1028.7H222.2v-.8H86.4v.8Z" class="g1_19"/>
<path d="M222.2,1028.7h.7v-.8h-.7v.8Z" class="g1_19"/>
<path d="M222.9,1028.7H848.6v-.8H222.9v.8Z" class="g1_19"/>
<path d="M86.4,1053.2H222.2v-.7H86.4v.7Z" class="g1_19"/>
<path d="M222.2,1053.2h.7v-.7h-.7v.7Z" class="g1_19"/>
<path d="M222.9,1053.2H848.6v-.7H222.9v.7Z" class="g1_19"/>
<path d="M86.4,1077.6H222.2v-.7H86.4v.7Z" class="g1_19"/>
<path d="M222.2,1077.6h.7v-.7h-.7v.7Z" class="g1_19"/>
<path d="M222.9,1077.6H848.6v-.7H222.9v.7Z" class="g1_19"/>
<path d="M85.2,1102h137v-.7H85.2v.7Z" class="g1_19"/>
<path d="M221.1,1102h.7v-.7h-.7v.7Z" class="g1_19"/>
<path d="M221.8,1102H848.6v-.7H221.8v.7Z" class="g1_19"/>
</svg>