<?xml version="1.0" encoding="UTF-8" standalone="no"?>
<!DOCTYPE svg PUBLIC "-//W3C//DTD SVG 1.1//EN"
"http://www.w3.org/Graphics/SVG/1.1/DTD/svg11.dtd">
<svg viewBox="0 0 935 1210" version="1.1" xmlns="http://www.w3.org/2000/svg" xmlns:xlink="http://www.w3.org/1999/xlink">
<defs>
<clipPath id="c0_10"><path d="M756.6,430V408.9H585.9V430Zm-272.4,6.6V111.5H857.9V436.6Z"/></clipPath>
<clipPath id="c1_10"><path d="M581.4,380.6v-262H844v262Z"/></clipPath>
<style type="text/css"><![CDATA[
.g0_10{
fill: #FFFFFF;
}
.g1_10{
fill: none;
stroke: #868686;
stroke-width: 0.63;
stroke-linecap: butt;
stroke-linejoin: round;
}
.g2_10{
fill: #D9D9D9;
}
.g3_10{
fill: none;
stroke: #000000;
stroke-width: 0.63;
stroke-linecap: butt;
stroke-linejoin: round;
}
.g4_10{
fill: #262626;
}
.g5_10{
fill: none;
stroke: #000000;
stroke-width: 0.502;
stroke-linecap: butt;
stroke-linejoin: miter;
}
]]></style>
</defs>
<path fill-rule="evenodd" d="M484.2,436.6H857.9V111.5H484.2V436.6Z" class="g0_10"/>
<path fill-rule="evenodd" d="M581.4,380.6H844v-262H581.4v262Z" class="g0_10"/>
<g clip-path="url(#c0_10)">
<path d="M607.7,118.6v262m26.2,-262v262m26.3,-262v262m26.2,-262v262m26.3,-262v262m26.2,-262v262m26.3,-262v262m26.2,-262v262m26.3,-262v262M844,118.6v262" class="g1_10"/>
</g>
<path d="M593.6,378.9H581.4v-6.7h12.2ZM581.4,368.8h.2v-6.7h-.2Zm25.4,-10.1H581.4V352h25.4ZM844,348.7H581.4v-6.8H844ZM581.4,338.6h.2v-6.7h-.2Zm0,-10.1h.2v-6.7h-.2Zm0,-10.1h.2v-6.7h-.2Zm0,-10h.2v-6.7h-.2Zm0,-10.1h.2v-6.7h-.2Zm0,-10.1h.2v-6.7h-.2Zm0,-10.1h.2v-6.7h-.2ZM844,268.1H581.4v-6.7H844ZM583.1,258h-1.7v-6.7h1.7Zm1,-10.1h-2.7v-6.7h2.7Zm-2,-10h-.7v-6.8h.7Zm54.6,-10.1H581.4v-6.7h55.3ZM843.8,217.7H581.4V211H843.8ZM581.4,207.6h.2v-6.7h-.2Zm0,-10h.2v-6.8h-.2Zm0,-10.1h.2v-6.7h-.2Zm90.9,-10.1H581.4v-6.7h90.9ZM581.4,167.3h.2v-6.7h-.2Zm0,-10h.2v-6.8h-.2ZM705.8,147.2H581.4v-6.7H705.8Zm41.7,-10.1H581.4v-6.7H747.5ZM581.4,127h.2v-6.7h-.2Z" class="g2_10"/>
<g clip-path="url(#c1_10)">
<path d="M593.6,378.9H581.4v-6.7h12.2ZM581.4,368.8h.2v-6.7h-.2Zm25.4,-10.1H581.4V352h25.4ZM844,348.7H581.4v-6.8H844ZM581.4,338.6h.2v-6.7h-.2Zm0,-10.1h.2v-6.7h-.2Zm0,-10.1h.2v-6.7h-.2Zm0,-10h.2v-6.7h-.2Zm0,-10.1h.2v-6.7h-.2Zm0,-10.1h.2v-6.7h-.2Zm0,-10.1h.2v-6.7h-.2ZM844,268.1H581.4v-6.7H844ZM583.1,258h-1.7v-6.7h1.7Zm1,-10.1h-2.7v-6.7h2.7Zm-2,-10h-.7v-6.8h.7Zm54.6,-10.1H581.4v-6.7h55.3ZM843.8,217.7H581.4V211H843.8ZM581.4,207.6h.2v-6.7h-.2Zm0,-10h.2v-6.8h-.2Zm0,-10.1h.2v-6.7h-.2Zm90.9,-10.1H581.4v-6.7h90.9ZM581.4,167.3h.2v-6.7h-.2Zm0,-10h.2v-6.8h-.2ZM705.8,147.2H581.4v-6.7H705.8Zm41.7,-10.1H581.4v-6.7H747.5ZM581.4,127h.2v-6.7h-.2Z" class="g3_10"/>
<path d="M844,378.9H593.6v-6.7H844Zm0,-10.1H581.5v-6.7H844Zm0,-10.1H606.8V352H844Zm0,-20.1H581.5v-6.7H844Zm0,-10.1H581.6v-6.7H844Zm0,-10.1H581.4v-6.7H844Zm0,-10H581.4v-6.7H844Zm0,-10.1H581.4v-6.7H844Zm0,-10.1H581.4v-6.7H844Zm0,-10.1H581.4v-6.7H844ZM844,258H583.1v-6.7H844Zm0,-10.1H584.1v-6.7H844Zm0,-10H582.1v-6.8H844Zm0,-10.1H636.7v-6.7H844Zm-.2,-10.1h.2V211h-.2Zm.2,-10.1H581.4v-6.7H844Zm0,-10H581.5v-6.8H844Zm0,-10.1H581.5v-6.7H844Zm0,-10.1H672.3v-6.7H844Zm0,-10.1H581.5v-6.7H844Zm0,-10H581.5v-6.8H844Zm0,-10.1H705.8v-6.7H844Zm0,-10.1H747.5v-6.7H844ZM844,127H581.6v-6.7H844Z" class="g4_10"/>
<path d="M844,378.9H593.6v-6.7H844Zm0,-10.1H581.5v-6.7H844Zm0,-10.1H606.8V352H844Zm0,-20.1H581.5v-6.7H844Zm0,-10.1H581.6v-6.7H844Zm0,-10.1H581.4v-6.7H844Zm0,-10H581.4v-6.7H844Zm0,-10.1H581.4v-6.7H844Zm0,-10.1H581.4v-6.7H844Zm0,-10.1H581.4v-6.7H844ZM844,258H583.1v-6.7H844Zm0,-10.1H584.1v-6.7H844Zm0,-10H582.1v-6.8H844Zm0,-10.1H636.7v-6.7H844Zm-.2,-10.1h.2V211h-.2Zm.2,-10.1H581.4v-6.7H844Zm0,-10H581.5v-6.8H844Zm0,-10.1H581.5v-6.7H844Zm0,-10.1H672.3v-6.7H844Zm0,-10.1H581.5v-6.7H844Zm0,-10H581.5v-6.8H844Zm0,-10.1H705.8v-6.7H844Zm0,-10.1H747.5v-6.7H844ZM844,127H581.6v-6.7H844Z" class="g3_10"/>
</g>
<path d="M581.4,380.6H844m-262.6,0v2.6m26.3,-2.6v2.6m26.2,-2.6v2.6m26.3,-2.6v2.6m26.2,-2.6v2.6m26.3,-2.6v2.6m26.2,-2.6v2.6m26.3,-2.6v2.6m26.2,-2.6v2.6m26.3,-2.6v2.6M844,380.6v2.6M581.4,380.6v-262m-2.1,262h2.1m-2.1,-10.1h2.1m-2.1,-10.1h2.1m-2.1,-10.1h2.1m-2.1,-10h2.1m-2.1,-10.1h2.1m-2.1,-10.1h2.1M579.3,310h2.1m-2.1,-10h2.1m-2.1,-10.1h2.1m-2.1,-10.1h2.1m-2.1,-10h2.1m-2.1,-10.1h2.1m-2.1,-10.1h2.1m-2.1,-10.1h2.1m-2.1,-10h2.1m-2.1,-10.1h2.1m-2.1,-10.1h2.1m-2.1,-10.1h2.1m-2.1,-10h2.1m-2.1,-10.1h2.1M579.3,169h2.1m-2.1,-10.1h2.1m-2.1,-10h2.1m-2.1,-10.1h2.1m-2.1,-10.1h2.1m-2.1,-10.1h2.1" class="g1_10"/>
<path fill-rule="evenodd" d="M622.1,421.7h4.6v-4.6h-4.6v4.6Z" class="g2_10"/>
<path d="M622.1,417.1h4.6v4.6h-4.6v-4.6Z" class="g3_10"/>
<path fill-rule="evenodd" d="M695,421.7h4.7v-4.6H695v4.6Z" class="g4_10"/>
<path d="M695,417.1h4.7v4.6H695v-4.6Z" class="g3_10"/>
<path d="M484.2,111.5H857.9V436.6H484.2V111.5Z" class="g1_10"/>
<path d="M484.3,453.7H849.6" class="g5_10"/>
</svg>