<?xml version="1.0" encoding="UTF-8" standalone="no"?>
<!DOCTYPE svg PUBLIC "-//W3C//DTD SVG 1.1//EN"
"http://www.w3.org/Graphics/SVG/1.1/DTD/svg11.dtd">
<svg viewBox="0 0 935 1210" version="1.1" xmlns="http://www.w3.org/2000/svg" xmlns:xlink="http://www.w3.org/1999/xlink">
<defs>
<clipPath id="c0_7"><path d="M143.5,321.8V110H386.8V321.8Z"/></clipPath>
<clipPath id="c1_7"><path d="M584.8,293V110H749.2V293Z"/></clipPath>
<style type="text/css"><![CDATA[
.g0_7{
fill: #FFFFFF;
}
.g1_7{
fill: #E6E6E6;
}
.g2_7{
fill: none;
stroke: #B3B3B3;
stroke-width: 4.277;
stroke-linecap: round;
stroke-linejoin: round;
}
.g3_7{
fill: none;
stroke: #FFFFFF;
stroke-width: 2.138;
stroke-linecap: round;
stroke-linejoin: round;
}
.g4_7{
fill: none;
stroke: #B3B3B3;
stroke-width: 1.069;
stroke-linecap: round;
stroke-linejoin: round;
}
.g5_7{
fill: none;
stroke: #9E9E9E;
stroke-width: 1.604;
stroke-linecap: butt;
stroke-linejoin: round;
}
.g6_7{
fill: #9E9E9E;
}
.g7_7{
fill: none;
stroke: #9E9E9E;
stroke-width: 1.604;
stroke-linecap: butt;
stroke-linejoin: miter;
}
.g8_7{
fill: none;
stroke: #212121;
stroke-width: 4.277;
stroke-linecap: round;
stroke-linejoin: round;
}
.g9_7{
fill: none;
stroke: #212121;
stroke-width: 1.069;
stroke-linecap: round;
stroke-linejoin: round;
}
.ga_7{
fill: none;
stroke: #212121;
stroke-width: 1.604;
stroke-linecap: butt;
stroke-linejoin: round;
}
.gb_7{
fill: #212121;
}
.gc_7{
fill: none;
stroke: #212121;
stroke-width: 1.604;
stroke-linecap: butt;
stroke-linejoin: miter;
}
.gd_7{
fill: none;
stroke: #A9A9A9;
stroke-width: 2.673;
stroke-linecap: butt;
stroke-linejoin: round;
}
.ge_7{
fill: #A9A9A9;
}
.gf_7{
fill: none;
stroke: #A9A9A9;
stroke-width: 2.673;
stroke-linecap: butt;
stroke-linejoin: miter;
}
.gg_7{
fill: none;
stroke: #A9A9A9;
stroke-width: 2.673;
stroke-linecap: round;
stroke-linejoin: round;
}
.gh_7{
fill: none;
stroke: #4C4C4C;
stroke-width: 1.604;
stroke-linecap: butt;
stroke-linejoin: round;
}
.gi_7{
fill: none;
stroke: #4C4C4C;
stroke-width: 1.604;
stroke-linecap: butt;
stroke-linejoin: miter;
}
.gj_7{
fill: #4C4C4C;
}
.gk_7{
fill: none;
stroke: #212121;
stroke-width: 2.673;
stroke-linecap: butt;
stroke-linejoin: round;
}
.gl_7{
fill: none;
stroke: #212121;
stroke-width: 2.673;
stroke-linecap: butt;
stroke-linejoin: miter;
}
.gm_7{
fill: none;
stroke: #212121;
stroke-width: 2.673;
stroke-linecap: round;
stroke-linejoin: round;
}
.gn_7{
fill: none;
stroke: #212121;
stroke-width: 1.604;
stroke-linecap: round;
stroke-linejoin: round;
}
.go_7{
fill: none;
stroke: #191919;
stroke-width: 2.673;
stroke-linecap: round;
stroke-linejoin: round;
}
.gp_7{
fill: none;
stroke: #191919;
stroke-width: 2.673;
stroke-linecap: butt;
stroke-linejoin: miter;
}
.gq_7{
fill: #191919;
}
.gr_7{
fill: none;
stroke: #B3B3B3;
stroke-width: 1.604;
stroke-linecap: round;
stroke-linejoin: round;
}
.gs_7{
fill: none;
stroke: #191919;
stroke-width: 2.673;
stroke-linecap: butt;
stroke-linejoin: round;
}
.gt_7{
fill: none;
stroke: #B3B3B3;
stroke-width: 0.534;
stroke-linecap: round;
stroke-linejoin: round;
}
.gu_7{
fill: none;
stroke: #9E9E9E;
stroke-width: 1.069;
stroke-linecap: round;
stroke-linejoin: round;
stroke-dasharray: 3,3;
}
.gv_7{
fill: none;
stroke: #9E9E9E;
stroke-width: 1.069;
stroke-linecap: butt;
stroke-linejoin: miter;
}
.gw_7{
fill: none;
stroke: #191919;
stroke-width: 1.604;
stroke-linecap: butt;
stroke-linejoin: round;
}
.gx_7{
fill: none;
stroke: #191919;
stroke-width: 1.604;
stroke-linecap: butt;
stroke-linejoin: miter;
}
.gy_7{
fill: none;
stroke: #000000;
stroke-width: 0.502;
stroke-linecap: butt;
stroke-linejoin: miter;
}
.gz_7{
fill: none;
stroke: #B3B3B3;
stroke-width: 4.033;
stroke-linecap: round;
stroke-linejoin: round;
}
.g10_7{
fill: none;
stroke: #FFFFFF;
stroke-width: 2.016;
stroke-linecap: round;
stroke-linejoin: round;
}
.g11_7{
fill: none;
stroke: #9E9E9E;
stroke-width: 1.512;
stroke-linecap: butt;
stroke-linejoin: round;
}
.g12_7{
fill: none;
stroke: #9E9E9E;
stroke-width: 1.512;
stroke-linecap: butt;
stroke-linejoin: miter;
}
.g13_7{
fill: none;
stroke: #B3B3B3;
stroke-width: 1.008;
stroke-linecap: round;
stroke-linejoin: round;
}
.g14_7{
fill: none;
stroke: #191919;
stroke-width: 4.033;
stroke-linecap: round;
stroke-linejoin: round;
}
.g15_7{
fill: none;
stroke: #191919;
stroke-width: 1.008;
stroke-linecap: round;
stroke-linejoin: round;
}
.g16_7{
fill: none;
stroke: #191919;
stroke-width: 1.512;
stroke-linecap: butt;
stroke-linejoin: round;
}
.g17_7{
fill: none;
stroke: #191919;
stroke-width: 1.512;
stroke-linecap: butt;
stroke-linejoin: miter;
}
.g18_7{
fill: none;
stroke: #A9A9A9;
stroke-width: 2.521;
stroke-linecap: butt;
stroke-linejoin: round;
}
.g19_7{
fill: none;
stroke: #A9A9A9;
stroke-width: 2.521;
stroke-linecap: butt;
stroke-linejoin: miter;
}
.g1a_7{
fill: none;
stroke: #A9A9A9;
stroke-width: 2.521;
stroke-linecap: round;
stroke-linejoin: round;
}
.g1b_7{
fill: none;
stroke: #4C4C4C;
stroke-width: 1.512;
stroke-linecap: butt;
stroke-linejoin: round;
}
.g1c_7{
fill: none;
stroke: #4C4C4C;
stroke-width: 1.512;
stroke-linecap: butt;
stroke-linejoin: miter;
}
.g1d_7{
fill: none;
stroke: #191919;
stroke-width: 2.521;
stroke-linecap: round;
stroke-linejoin: round;
}
.g1e_7{
fill: none;
stroke: #191919;
stroke-width: 2.521;
stroke-linecap: butt;
stroke-linejoin: miter;
}
.g1f_7{
fill: none;
stroke: #B3B3B3;
stroke-width: 1.512;
stroke-linecap: round;
stroke-linejoin: round;
}
.g1g_7{
fill: none;
stroke: #191919;
stroke-width: 1.512;
stroke-linecap: round;
stroke-linejoin: round;
}
.g1h_7{
fill: none;
stroke: #9E9E9E;
stroke-width: 1.008;
stroke-linecap: round;
stroke-linejoin: round;
stroke-dasharray: 3,3;
}
.g1i_7{
fill: none;
stroke: #9E9E9E;
stroke-width: 1.008;
stroke-linecap: butt;
stroke-linejoin: miter;
}
.g1j_7{
fill: none;
stroke: #B3B3B3;
stroke-width: 0.504;
stroke-linecap: round;
stroke-linejoin: round;
}
]]></style>
</defs>
<g clip-path="url(#c0_7)">
<path d="M120.2,912.9h616V-262.9h-616V912.9Z" class="g0_7"/>
</g>
<path d="M213.5,153.9c3.7,3.7,3.7,9.8,0,13.6c-3.8,3.7,-9.8,3.7,-13.5,0c-3.7,-3.8,-3.7,-9.9,0,-13.6c3.7,-3.8,9.7,-3.8,13.5,0Z" class="g1_7"/>
<path d="M213.5,153.9c3.7,3.7,3.7,9.8,0,13.6c-3.8,3.7,-9.8,3.7,-13.5,0c-3.7,-3.8,-3.7,-9.9,0,-13.6c3.7,-3.8,9.7,-3.8,13.5,0" class="g2_7"/>
<path d="M213.5,153.9c3.7,3.7,3.7,9.8,0,13.6c-3.8,3.7,-9.8,3.7,-13.5,0c-3.7,-3.8,-3.7,-9.9,0,-13.6c3.7,-3.8,9.7,-3.8,13.5,0" class="g3_7"/>
<path d="M194,194.1c3.8,3.8,3.8,9.9,0,13.6c-3.7,3.8,-9.7,3.8,-13.4,0c-3.7,-3.7,-3.7,-9.8,0,-13.6c3.7,-3.7,9.7,-3.7,13.4,0Z" class="g1_7"/>
<path d="M194,194.1c3.8,3.8,3.8,9.9,0,13.6c-3.7,3.8,-9.7,3.8,-13.4,0c-3.7,-3.7,-3.7,-9.8,0,-13.6c3.7,-3.7,9.7,-3.7,13.4,0" class="g4_7"/>
<path d="M232.5,194.1c3.8,3.8,3.8,9.9,0,13.6c-3.7,3.8,-9.7,3.8,-13.4,0c-3.7,-3.7,-3.7,-9.8,0,-13.6c3.7,-3.7,9.7,-3.7,13.4,0Z" class="g1_7"/>
<path d="M232.5,194.1c3.8,3.8,3.8,9.9,0,13.6c-3.7,3.8,-9.7,3.8,-13.4,0c-3.7,-3.7,-3.7,-9.8,0,-13.6c3.7,-3.7,9.7,-3.7,13.4,0" class="g4_7"/>
<path d="M216,167.8l9.4,7.3l.2,9" class="g5_7"/>
<path d="M225.6,188.3l1.5,-4.3l-3.1,.1Z" class="g6_7"/>
<path d="M225.6,188.3l1.5,-4.3l-3.1,.1Z" class="g7_7"/>
<path d="M197.3,167.6l-10.4,7.5l.2,9" class="g5_7"/>
<path d="M187.1,188.3l1.5,-4.3l-3.1,.1Z" class="g6_7"/>
<path d="M187.1,188.3l1.5,-4.3l-3.1,.1Z" class="g7_7"/>
<path d="M213.7,227.5c3.8,3.7,3.8,9.8,0,13.5c-3.7,3.7,-9.7,3.7,-13.4,0c-3.8,-3.7,-3.8,-9.8,0,-13.5c3.7,-3.7,9.7,-3.7,13.4,0Z" class="g1_7"/>
<path d="M213.7,227.5c3.8,3.7,3.8,9.8,0,13.5c-3.7,3.7,-9.7,3.7,-13.4,0c-3.8,-3.7,-3.8,-9.8,0,-13.5c3.7,-3.7,9.7,-3.7,13.4,0" class="g4_7"/>
<path d="M225.7,211.1V218l-6.1,5.2" class="g5_7"/>
<path d="M216.5,226l4.2,-1.6l-2.1,-2.3Z" class="g6_7"/>
<path d="M216.5,226l4.2,-1.6l-2.1,-2.3Z" class="g7_7"/>
<path d="M187.2,211.1V218l6.8,5.6" class="g5_7"/>
<path d="M197.3,226.3L195,222.4l-2,2.4Z" class="g6_7"/>
<path d="M197.3,226.3L195,222.4l-2,2.4Z" class="g7_7"/>
<path d="M196.9,233.9L181,233.5c-4.1,-.1,-7.3,-3.5,-7.3,-7.5V168.4c0,-4.1,3.3,-7.4,7.4,-7.4l7.3,-.1" class="g5_7"/>
<path d="M192.5,160.8l-4.2,-1.5l.1,3.1Z" class="g6_7"/>
<path d="M192.5,160.8l-4.2,-1.5l.1,3.1Z" class="g7_7"/>
<path d="M213,120.6c3.7,3.8,3.7,9.8,0,13.6c-3.7,3.8,-9.7,3.8,-13.4,0c-3.8,-3.8,-3.8,-9.8,0,-13.6c3.7,-3.8,9.7,-3.8,13.4,0Z" class="g1_7"/>
<path d="M213,120.6c3.7,3.8,3.7,9.8,0,13.6c-3.7,3.8,-9.7,3.8,-13.4,0c-3.8,-3.8,-3.8,-9.8,0,-13.6c3.7,-3.8,9.7,-3.8,13.4,0" class="g8_7"/>
<path d="M213,120.6c3.7,3.8,3.7,9.8,0,13.6c-3.7,3.8,-9.7,3.8,-13.4,0c-3.8,-3.8,-3.8,-9.8,0,-13.6c3.7,-3.8,9.7,-3.8,13.4,0" class="g3_7"/>
<path d="M165.9,192.8c3.7,3.7,3.7,9.8,0,13.6c-3.7,3.7,-9.7,3.7,-13.5,0c-3.7,-3.8,-3.7,-9.9,0,-13.6c3.8,-3.8,9.8,-3.8,13.5,0Z" class="g1_7"/>
<path d="M165.9,192.8c3.7,3.7,3.7,9.8,0,13.6c-3.7,3.7,-9.7,3.7,-13.5,0c-3.7,-3.8,-3.7,-9.9,0,-13.6c3.8,-3.8,9.8,-3.8,13.5,0" class="g9_7"/>
<path d="M194.6,127.4H166.8c-4.2,0,-7.5,3.3,-7.5,7.5l-.1,47.8" class="ga_7"/>
<path d="M159.2,186.9l1.6,-4.2h-3.2Z" class="gb_7"/>
<path d="M159.2,186.9l1.6,-4.2h-3.2Z" class="gc_7"/>
<path d="M213,260.7c3.7,3.8,3.7,9.8,0,13.5c-3.7,3.7,-9.7,3.7,-13.4,0c-3.8,-3.7,-3.8,-9.7,0,-13.5c3.7,-3.7,9.7,-3.7,13.4,0Z" class="g1_7"/>
<path d="M213,260.7c3.7,3.8,3.7,9.8,0,13.5c-3.7,3.7,-9.7,3.7,-13.4,0c-3.8,-3.7,-3.8,-9.7,0,-13.5c3.7,-3.7,9.7,-3.7,13.4,0" class="g9_7"/>
<path d="M159.2,209.7l.1,49.9c0,4,3.3,7.4,7.4,7.4l22.8,.3" class="ga_7"/>
<path d="M193.7,267.3l-4.2,-1.6v3.2Z" class="gb_7"/>
<path d="M193.7,267.3l-4.2,-1.6v3.2Z" class="gc_7"/>
<path d="M216.4,267.3l17.3,-.2c4.1,-.1,7.4,-3.4,7.4,-7.5V134.9c0,-4.2,-3.4,-7.5,-7.5,-7.5h-8.9" class="ga_7"/>
<path d="M220.5,127.4l4.2,1.6v-3.2Z" class="gb_7"/>
<path d="M220.5,127.4l4.2,1.6v-3.2Z" class="gc_7"/>
<path d="M206.4,139.2l.1,3" class="ga_7"/>
<path d="M206.5,146.4l1.6,-4.2h-3.2Z" class="gb_7"/>
<path d="M206.5,146.4l1.6,-4.2h-3.2Z" class="gc_7"/>
<path d="M206.8,244.3l-.2,6.4" class="ga_7"/>
<path d="M206.6,254.9l1.6,-4.2h-3.1Z" class="gb_7"/>
<path d="M206.6,254.9l1.6,-4.2h-3.1Z" class="gc_7"/>
<path d="M323.2,219.2l-.1,32.8" class="gd_7"/>
<path d="M321.7,252.6c.7,-.8,2,-.8,2.8,0c.8,.8,.8,2.1,0,2.8c-.8,.8,-2.1,.8,-2.9,0c-.7,-.8,-.7,-2,.1,-2.8Z" class="ge_7"/>
<path d="M321.7,252.6c.7,-.8,2,-.8,2.8,0c.8,.8,.8,2.1,0,2.8c-.8,.8,-2.1,.8,-2.9,0c-.7,-.8,-.7,-2,.1,-2.8" class="gf_7"/>
<path d="M324.6,218.6c-.8,.8,-2.1,.8,-2.9,0c-.8,-.8,-.8,-2.1,0,-2.9c.8,-.8,2.1,-.7,2.9,0c.8,.8,.8,2.1,0,2.9Z" class="ge_7"/>
<path d="M324.6,218.6c-.8,.8,-2.1,.8,-2.9,0c-.8,-.8,-.8,-2.1,0,-2.9c.8,-.8,2.1,-.7,2.9,0c.8,.8,.8,2.1,0,2.9" class="gf_7"/>
<path d="M323.1,206.5v4.2" class="gg_7"/>
<path d="M328.9,216.4c0,-6.7,-11.5,-6.6,-11.5,.1" class="gf_7"/>
<path d="M324.5,229.3L341,247.7" class="gg_7"/>
<path d="M340.3,249.1c.1,-1.1,1,-2,2.1,-1.9c1.1,0,2,1,1.9,2.1c0,1.1,-1,2,-2.1,1.9c-1.1,0,-2,-1,-1.9,-2.1Z" class="ge_7"/>
<path d="M340.3,249.1c.1,-1.1,1,-2,2.1,-1.9c1.1,0,2,1,1.9,2.1c0,1.1,-1,2,-2.1,1.9c-1.1,0,-2,-1,-1.9,-2.1" class="gf_7"/>
<path d="M325.2,227.9c-.1,1.1,-1.1,2,-2.2,1.9c-1.1,0,-1.9,-1,-1.9,-2.1c.1,-1.1,1,-2,2.1,-1.9c1.2,.1,2,1,2,2.1Z" class="ge_7"/>
<path d="M325.2,227.9c-.1,1.1,-1.1,2,-2.2,1.9c-1.1,0,-1.9,-1,-1.9,-2.1c.1,-1.1,1,-2,2.1,-1.9c1.2,.1,2,1,2,2.1" class="gf_7"/>
<path d="M320.9,245.4L298.7,245" class="gh_7"/>
<path d="M297.4,241.8c1.8,1.8,1.7,4.6,-.1,6.3c-1.8,1.7,-4.6,1.7,-6.3,-.1c-1.8,-1.8,-1.7,-4.6,.1,-6.3c1.8,-1.8,4.6,-1.7,6.3,.1" class="gi_7"/>
<path d="M321.5,247c-.9,-.9,-.9,-2.3,0,-3.2c.9,-.8,2.4,-.8,3.2,.1c.9,.9,.8,2.3,0,3.2c-.9,.8,-2.4,.8,-3.2,-.1Z" class="gj_7"/>
<path d="M321.5,247c-.9,-.9,-.9,-2.3,0,-3.2c.9,-.8,2.4,-.8,3.2,.1c.9,.9,.8,2.3,0,3.2c-.9,.8,-2.4,.8,-3.2,-.1" class="gi_7"/>
<path d="M275,152.2V276.3" class="gk_7"/>
<path d="M273.5,276.9c.8,-.8,2.1,-.8,2.9,0c.8,.8,.8,2,0,2.8c-.8,.8,-2.1,.8,-2.9,0c-.8,-.8,-.8,-2,0,-2.8Z" class="gb_7"/>
<path d="M273.5,276.9c.8,-.8,2.1,-.8,2.9,0c.8,.8,.8,2,0,2.8c-.8,.8,-2.1,.8,-2.9,0c-.8,-.8,-.8,-2,0,-2.8" class="gl_7"/>
<path d="M276.4,151.6c-.8,.8,-2.1,.8,-2.9,0c-.7,-.8,-.7,-2.1,0,-2.9c.8,-.8,2.1,-.8,2.9,0c.8,.8,.8,2.1,0,2.9Z" class="gb_7"/>
<path d="M276.4,151.6c-.8,.8,-2.1,.8,-2.9,0c-.7,-.8,-.7,-2.1,0,-2.9c.8,-.8,2.1,-.8,2.9,0c.8,.8,.8,2.1,0,2.9" class="gl_7"/>
<path d="M275,139.5v3.4" class="gm_7"/>
<path d="M280.7,148.7c.1,-6.8,-11.5,-6.8,-11.5,-.1" class="gl_7"/>
<path d="M281.9,122.3c3.7,3.7,3.7,9.8,0,13.6c-3.8,3.8,-9.9,3.8,-13.7,0c-3.7,-3.8,-3.7,-9.9,0,-13.6c3.8,-3.8,9.9,-3.8,13.7,0Z" class="g1_7"/>
<path d="M281.9,122.3c3.7,3.7,3.7,9.8,0,13.6c-3.8,3.8,-9.9,3.8,-13.7,0c-3.7,-3.8,-3.7,-9.9,0,-13.6c3.8,-3.8,9.9,-3.8,13.7,0" class="gn_7"/>
<path d="M276.9,165.7l17.3,6.1v24.5l10.6,-.1" class="go_7"/>
<path d="M308.6,196.1l-3.8,.1m0,-1.5l3.8,1.4l-3.8,1.5" class="gp_7"/>
<path d="M276.8,164.1c.5,1,0,2.2,-1,2.7c-1,.5,-2.2,.1,-2.7,-1c-.4,-1,0,-2.2,1,-2.7c1,-.4,2.2,0,2.7,1Z" class="gq_7"/>
<path d="M276.8,164.1c.5,1,0,2.2,-1,2.7c-1,.5,-2.2,.1,-2.7,-1c-.4,-1,0,-2.2,1,-2.7c1,-.4,2.2,0,2.7,1" class="gp_7"/>
<path d="M329.9,189.2c3.7,3.8,3.7,9.9,0,13.6c-3.8,3.8,-9.9,3.8,-13.6,0c-3.8,-3.7,-3.8,-9.8,0,-13.6c3.7,-3.7,9.8,-3.7,13.6,0Z" class="g1_7"/>
<path d="M329.9,189.2c3.7,3.8,3.7,9.9,0,13.6c-3.8,3.8,-9.9,3.8,-13.6,0c-3.8,-3.7,-3.8,-9.8,0,-13.6c3.7,-3.7,9.8,-3.7,13.6,0" class="gr_7"/>
<path d="M294.2,246.3v30" class="gs_7"/>
<path d="M292.8,276.9c.8,-.8,2,-.8,2.8,0c.8,.8,.8,2,0,2.8c-.8,.8,-2,.8,-2.8,0c-.8,-.8,-.8,-2,0,-2.8Z" class="gq_7"/>
<path d="M292.8,276.9c.8,-.8,2,-.8,2.8,0c.8,.8,.8,2,0,2.8c-.8,.8,-2,.8,-2.8,0c-.8,-.8,-.8,-2,0,-2.8" class="gp_7"/>
<path d="M295.2,245.9c-.5,.6,-1.5,.6,-2,0c-.6,-.6,-.6,-1.5,0,-2c.5,-.6,1.5,-.6,2,0c.6,.5,.6,1.4,0,2Z" class="gq_7"/>
<path d="M295.2,245.9c-.5,.6,-1.5,.6,-2,0c-.6,-.6,-.6,-1.5,0,-2c.5,-.6,1.5,-.6,2,0c.6,.5,.6,1.4,0,2" class="gp_7"/>
<path d="M327.9,148.1H376v-9.6H327.9v9.6Z" class="g1_7"/>
<path d="M327.9,138.5H376v9.6H327.9v-9.6Z" class="gt_7"/>
<path d="M344.4,196.3h7c3,0,5.4,-2.4,5.4,-5.4V177.2" class="gu_7"/>
<path d="M339.3,196.3l5.1,1.9v-3.9Z" class="g6_7"/>
<path d="M339.3,196.3l5.1,1.9v-3.9Z" class="gv_7"/>
<path d="M313.5,128.9h48.1v-9.6H313.5v9.6Z" class="g1_7"/>
<path d="M313.5,119.3h48.1v9.6H313.5v-9.6Z" class="gt_7"/>
<path d="M295.9,126.7l7.1,-2.4c.5,-.1,1.1,-.2,1.7,-.2h8.5" class="gu_7"/>
<path d="M291.1,128.3l5.4,.2l-1.2,-3.6Z" class="g6_7"/>
<path d="M291.1,128.3l5.4,.2l-1.2,-3.6Z" class="gv_7"/>
<path d="M332.7,177h48.1v-9.6H332.7V177Z" class="g1_7"/>
<path d="M332.7,167.4h48.1V177H332.7v-9.6Z" class="gt_7"/>
<path d="M305.8,184.8l11.3,-37.7c.7,-2.2,2.8,-3.8,5.1,-3.8h5.4" class="gu_7"/>
<path d="M304.3,189.8l3.4,-4.4L304,184.3Z" class="g6_7"/>
<path d="M304.3,189.8l3.4,-4.4L304,184.3Z" class="gv_7"/>
<path d="M304.1,256.8l3,4.7c.9,1.6,2.7,2.6,4.5,2.6l20.8,.1" class="gu_7"/>
<path d="M301.4,252.4l1.1,5.4l3.2,-2.1Z" class="g6_7"/>
<path d="M301.4,252.4l1.1,5.4l3.2,-2.1Z" class="gv_7"/>
<path d="M332.7,269.1h48.1v-9.7H332.7v9.7Z" class="g1_7"/>
<path d="M332.7,259.4h48.1v9.7H332.7v-9.7Z" class="gt_7"/>
<path d="M206.6,276.6l-.1,6.4" class="gw_7"/>
<path d="M206.4,287.2L208,283l-3.1,-.1Z" class="gq_7"/>
<path d="M206.4,287.2L208,283l-3.1,-.1Z" class="gx_7"/>
<path d="M82.5,338.7H447.8M82.5,1050.4H265.1" class="gy_7"/>
<g clip-path="url(#c1_7)">
<path d="M575,434h580.8V-674.8H575V434Z" class="g0_7"/>
</g>
<path d="M617.5,153c3.1,3.1,3.1,8.2,0,11.4c-3.2,3.1,-8.3,3.1,-11.4,0c-3.2,-3.2,-3.2,-8.3,0,-11.4c3.1,-3.2,8.2,-3.2,11.4,0Z" class="g1_7"/>
<path d="M617.5,153c3.1,3.1,3.1,8.2,0,11.4c-3.2,3.1,-8.3,3.1,-11.4,0c-3.2,-3.2,-3.2,-8.3,0,-11.4c3.1,-3.2,8.2,-3.2,11.4,0" class="gz_7"/>
<path d="M617.5,153c3.1,3.1,3.1,8.2,0,11.4c-3.2,3.1,-8.3,3.1,-11.4,0c-3.2,-3.2,-3.2,-8.3,0,-11.4c3.1,-3.2,8.2,-3.2,11.4,0" class="g10_7"/>
<path d="M611.8,168.7V174" class="g11_7"/>
<path d="M611.8,178l1.4,-4h-2.9Z" class="g6_7"/>
<path d="M611.8,178l1.4,-4h-2.9Z" class="g12_7"/>
<path d="M617.5,183.2c3.1,3.2,3.1,8.3,0,11.4c-3.2,3.2,-8.3,3.2,-11.4,0c-3.2,-3.1,-3.2,-8.2,0,-11.4c3.1,-3.1,8.2,-3.1,11.4,0Z" class="g1_7"/>
<path d="M617.5,183.2c3.1,3.2,3.1,8.3,0,11.4c-3.2,3.2,-8.3,3.2,-11.4,0c-3.2,-3.1,-3.2,-8.2,0,-11.4c3.1,-3.1,8.2,-3.1,11.4,0" class="g13_7"/>
<path d="M603.2,188.9h-9.1c-1.4,0,-2.5,-1.1,-2.5,-2.5V163c0,-1.3,1,-2.4,2.3,-2.6l2.7,-.2" class="g11_7"/>
<path d="M599.4,159.9l-2.9,-.8l.2,2.1Z" class="g6_7"/>
<path d="M599.4,159.9l-2.9,-.8l.2,2.1Z" class="g12_7"/>
<path d="M617.5,120.7c3.1,3.1,3.1,8.2,0,11.4c-3.2,3.1,-8.3,3.1,-11.4,0c-3.2,-3.2,-3.2,-8.3,0,-11.4c3.1,-3.2,8.2,-3.2,11.4,0Z" class="g1_7"/>
<path d="M617.5,120.7c3.1,3.1,3.1,8.2,0,11.4c-3.2,3.1,-8.3,3.1,-11.4,0c-3.2,-3.2,-3.2,-8.3,0,-11.4c3.1,-3.2,8.2,-3.2,11.4,0" class="g14_7"/>
<path d="M617.5,120.7c3.1,3.1,3.1,8.2,0,11.4c-3.2,3.1,-8.3,3.1,-11.4,0c-3.2,-3.2,-3.2,-8.3,0,-11.4c3.1,-3.2,8.2,-3.2,11.4,0" class="g10_7"/>
<path d="M617.5,274c3.1,3.1,3.1,8.2,0,11.4c-3.2,3.1,-8.3,3.1,-11.4,0c-3.2,-3.2,-3.2,-8.3,0,-11.4c3.1,-3.2,8.2,-3.2,11.4,0Z" class="g1_7"/>
<path d="M617.5,274c3.1,3.1,3.1,8.2,0,11.4c-3.2,3.1,-8.3,3.1,-11.4,0c-3.2,-3.2,-3.2,-8.3,0,-11.4c3.1,-3.2,8.2,-3.2,11.4,0" class="g15_7"/>
<path d="M620.3,279.7h11.1c1.4,0,2.5,-1.2,2.5,-2.5V128.9c0,-1.4,-1.1,-2.5,-2.5,-2.5H627" class="g16_7"/>
<path d="M624.2,126.4l2.8,1v-2.1Z" class="gq_7"/>
<path d="M624.2,126.4l2.8,1v-2.1Z" class="g17_7"/>
<path d="M611.8,136.5v5.7" class="g16_7"/>
<path d="M611.8,146.2l1.4,-4h-2.9Z" class="gq_7"/>
<path d="M611.8,146.2l1.4,-4h-2.9Z" class="g17_7"/>
<path d="M617.5,215.5c3.1,3.1,3.1,8.2,0,11.4c-3.2,3.1,-8.3,3.1,-11.4,0c-3.2,-3.2,-3.2,-8.3,0,-11.4c3.1,-3.2,8.2,-3.2,11.4,0Z" class="g1_7"/>
<path d="M617.5,215.5c3.1,3.1,3.1,8.2,0,11.4c-3.2,3.1,-8.3,3.1,-11.4,0c-3.2,-3.2,-3.2,-8.3,0,-11.4c3.1,-3.2,8.2,-3.2,11.4,0" class="gz_7"/>
<path d="M617.5,215.5c3.1,3.1,3.1,8.2,0,11.4c-3.2,3.1,-8.3,3.1,-11.4,0c-3.2,-3.2,-3.2,-8.3,0,-11.4c3.1,-3.2,8.2,-3.2,11.4,0" class="g10_7"/>
<path d="M611.8,231.3V237" class="g11_7"/>
<path d="M611.8,241l1.4,-4h-2.9Z" class="g6_7"/>
<path d="M611.8,241l1.4,-4h-2.9Z" class="g12_7"/>
<path d="M617.5,245.7c3.1,3.2,3.1,8.3,0,11.4c-3.2,3.2,-8.3,3.2,-11.4,0c-3.2,-3.1,-3.2,-8.2,0,-11.4c3.1,-3.1,8.2,-3.1,11.4,0Z" class="g1_7"/>
<path d="M617.5,245.7c3.1,3.2,3.1,8.3,0,11.4c-3.2,3.2,-8.3,3.2,-11.4,0c-3.2,-3.1,-3.2,-8.2,0,-11.4c3.1,-3.1,8.2,-3.1,11.4,0" class="g13_7"/>
<path d="M603.2,251.4h-9.1c-1.4,0,-2.5,-1.1,-2.5,-2.5V225.5c0,-1.3,1,-2.4,2.3,-2.5l1.5,-.2" class="g11_7"/>
<path d="M599.4,222.4l-4.1,-1.1l.3,3Z" class="g6_7"/>
<path d="M599.4,222.4l-4.1,-1.1l.3,3Z" class="g12_7"/>
<path d="M611.8,197.5v7.3" class="g11_7"/>
<path d="M611.8,208.7l1.4,-3.9h-2.9Z" class="g6_7"/>
<path d="M611.8,208.7l1.4,-3.9h-2.9Z" class="g12_7"/>
<path d="M611.8,260v5.3" class="g16_7"/>
<path d="M611.8,269.2l1.4,-3.9h-2.9Z" class="gq_7"/>
<path d="M611.8,269.2l1.4,-3.9h-2.9Z" class="g17_7"/>
<path d="M686.4,180.3v20.8" class="g18_7"/>
<path d="M685,201.7c.8,-.8,2,-.8,2.7,0c.8,.7,.8,1.9,0,2.7c-.7,.7,-1.9,.7,-2.7,0c-.7,-.8,-.7,-2,0,-2.7Z" class="ge_7"/>
<path d="M685,201.7c.8,-.8,2,-.8,2.7,0c.8,.7,.8,1.9,0,2.7c-.7,.7,-1.9,.7,-2.7,0c-.7,-.8,-.7,-2,0,-2.7" class="g19_7"/>
<path d="M687.7,179.7c-.7,.8,-1.9,.8,-2.7,0c-.7,-.7,-.7,-1.9,0,-2.7c.8,-.7,2,-.7,2.7,0c.8,.8,.8,2,0,2.7Z" class="ge_7"/>
<path d="M687.7,179.7c-.7,.8,-1.9,.8,-2.7,0c-.7,-.7,-.7,-1.9,0,-2.7c.8,-.7,2,-.7,2.7,0c.8,.8,.8,2,0,2.7" class="g19_7"/>
<path d="M686.3,168.3l.1,4" class="g1a_7"/>
<path d="M691.8,177.7c0,-6.4,-10.9,-6.3,-10.9,0" class="g19_7"/>
<path d="M684.3,190.9l-20,5.1" class="g1b_7"/>
<path d="M662.3,193.3c2.1,1.3,2.7,3.9,1.5,5.9c-1.2,2,-3.8,2.6,-5.8,1.4c-2,-1.2,-2.7,-3.8,-1.5,-5.8c1.2,-2,3.8,-2.7,5.8,-1.5" class="g1c_7"/>
<path d="M685.3,192.2c-1,-.6,-1.3,-1.9,-.7,-2.9c.6,-1,1.9,-1.3,2.9,-.7c1,.6,1.3,1.9,.7,2.9c-.6,1,-1.9,1.3,-2.9,.7Z" class="gj_7"/>
<path d="M685.3,192.2c-1,-.6,-1.3,-1.9,-.7,-2.9c.6,-1,1.9,-1.3,2.9,-.7c1,.6,1.3,1.9,.7,2.9c-.6,1,-1.9,1.3,-2.9,.7" class="g1c_7"/>
<path d="M660.2,133.2v4.2" class="g1d_7"/>
<path d="M665.6,142.9c0,-6.4,-10.9,-6.4,-10.9,0" class="g1e_7"/>
<path d="M660.2,145.6v13.1l8.9,-.1" class="g1d_7"/>
<path d="M672.7,158.5l-3.6,.1m-.1,-1.4l3.7,1.3l-3.6,1.4" class="g1e_7"/>
<path d="M661.5,145c-.7,.8,-1.9,.8,-2.7,0c-.7,-.7,-.7,-1.9,0,-2.7c.8,-.7,2,-.7,2.7,0c.8,.8,.8,2,0,2.7Z" class="gq_7"/>
<path d="M661.5,145c-.7,.8,-1.9,.8,-2.7,0c-.7,-.7,-.7,-1.9,0,-2.7c.8,-.7,2,-.7,2.7,0c.8,.8,.8,2,0,2.7" class="g1e_7"/>
<path d="M692.7,152c3.6,3.6,3.6,9.3,0,12.9c-3.5,3.5,-9.3,3.5,-12.8,0c-3.6,-3.6,-3.6,-9.3,0,-12.9c3.5,-3.5,9.3,-3.5,12.8,0Z" class="g1_7"/>
<path d="M692.7,152c3.6,3.6,3.6,9.3,0,12.9c-3.5,3.5,-9.3,3.5,-12.8,0c-3.6,-3.6,-3.6,-9.3,0,-12.9c3.5,-3.5,9.3,-3.5,12.8,0" class="g1f_7"/>
<path d="M665.9,118.7c3.1,3.1,3.1,8.2,0,11.4c-3.2,3.1,-8.3,3.1,-11.4,0c-3.2,-3.2,-3.2,-8.3,0,-11.4c3.1,-3.2,8.2,-3.2,11.4,0Z" class="g1_7"/>
<path d="M665.9,118.7c3.1,3.1,3.1,8.2,0,11.4c-3.2,3.1,-8.3,3.1,-11.4,0c-3.2,-3.2,-3.2,-8.3,0,-11.4c3.1,-3.2,8.2,-3.2,11.4,0" class="g1g_7"/>
<path d="M660.2,198.3v26.9l8.7,-.1" class="g1d_7"/>
<path d="M672.5,225.1h-3.6m0,-1.3l3.6,1.3l-3.6,1.4" class="g1e_7"/>
<path d="M661.1,197.9c-.5,.6,-1.4,.6,-1.9,0c-.5,-.5,-.5,-1.4,0,-1.9c.5,-.5,1.4,-.5,1.9,0c.6,.5,.6,1.4,0,1.9Z" class="gq_7"/>
<path d="M661.1,197.9c-.5,.6,-1.4,.6,-1.9,0c-.5,-.5,-.5,-1.4,0,-1.9c.5,-.5,1.4,-.5,1.9,0c.6,.5,.6,1.4,0,1.9" class="g1e_7"/>
<path d="M686.4,246v24.9" class="g18_7"/>
<path d="M685,271.5c.8,-.7,2,-.7,2.7,0c.8,.7,.8,1.9,0,2.7c-.7,.7,-1.9,.7,-2.7,0c-.7,-.8,-.7,-2,0,-2.7Z" class="ge_7"/>
<path d="M685,271.5c.8,-.7,2,-.7,2.7,0c.8,.7,.8,1.9,0,2.7c-.7,.7,-1.9,.7,-2.7,0c-.7,-.8,-.7,-2,0,-2.7" class="g19_7"/>
<path d="M687.7,245.5c-.7,.7,-1.9,.7,-2.7,0c-.7,-.8,-.7,-2,0,-2.7c.8,-.8,2,-.8,2.7,0c.8,.7,.8,1.9,0,2.7Z" class="ge_7"/>
<path d="M687.7,245.5c-.7,.7,-1.9,.7,-2.7,0c-.7,-.8,-.7,-2,0,-2.7c.8,-.8,2,-.8,2.7,0c.8,.7,.8,1.9,0,2.7" class="g19_7"/>
<path d="M686.3,234l.1,4" class="g1a_7"/>
<path d="M691.8,243.5c0,-6.4,-10.9,-6.3,-10.9,0" class="g19_7"/>
<path d="M684.3,255.8l-20.1,5.8" class="g1b_7"/>
<path d="M662.2,259.1c2.1,1.1,2.8,3.7,1.7,5.7c-1.2,2.1,-3.7,2.8,-5.8,1.7c-2,-1.2,-2.8,-3.7,-1.6,-5.8c1.1,-2,3.7,-2.8,5.7,-1.6" class="g1c_7"/>
<path d="M685.4,257.1c-1.1,-.6,-1.4,-1.9,-.9,-2.9c.6,-1,1.9,-1.4,2.9,-.8c1,.5,1.4,1.8,.8,2.8c-.5,1.1,-1.8,1.4,-2.8,.9Z" class="gj_7"/>
<path d="M685.4,257.1c-1.1,-.6,-1.4,-1.9,-.9,-2.9c.6,-1,1.9,-1.4,2.9,-.8c1,.5,1.4,1.8,.8,2.8c-.5,1.1,-1.8,1.4,-2.8,.9" class="g1c_7"/>
<path d="M692.7,217.8c3.6,3.5,3.6,9.3,0,12.8c-3.5,3.6,-9.3,3.6,-12.8,0c-3.6,-3.5,-3.6,-9.3,0,-12.8c3.5,-3.6,9.3,-3.6,12.8,0Z" class="g1_7"/>
<path d="M692.7,217.8c3.6,3.5,3.6,9.3,0,12.8c-3.5,3.6,-9.3,3.6,-12.8,0c-3.6,-3.5,-3.6,-9.3,0,-12.8c3.5,-3.6,9.3,-3.6,12.8,0" class="g1f_7"/>
<path d="M660.2,264.1v14.2" class="g1d_7"/>
<path d="M659.2,278.7c.5,-.5,1.4,-.5,1.9,0c.6,.5,.6,1.4,0,1.9c-.5,.6,-1.4,.6,-1.9,0c-.5,-.5,-.5,-1.4,0,-1.9Z" class="gq_7"/>
<path d="M659.2,278.7c.5,-.5,1.4,-.5,1.9,0c.6,.5,.6,1.4,0,1.9c-.5,.6,-1.4,.6,-1.9,0c-.5,-.5,-.5,-1.4,0,-1.9" class="g1e_7"/>
<path d="M661.1,263.7c-.5,.6,-1.4,.6,-1.9,0c-.5,-.5,-.5,-1.4,0,-1.9c.5,-.5,1.4,-.5,1.9,0c.6,.5,.6,1.4,0,1.9Z" class="gq_7"/>
<path d="M661.1,263.7c-.5,.6,-1.4,.6,-1.9,0c-.5,-.5,-.5,-1.4,0,-1.9c.5,-.5,1.4,-.5,1.9,0c.6,.5,.6,1.4,0,1.9" class="g1e_7"/>
<path d="M672.3,206.1l2.5,3.1c1,1.2,2.4,1.9,3.9,1.9l19.5,.2" class="g1h_7"/>
<path d="M669.3,202.3l1.6,4.9l2.8,-2.2Z" class="g6_7"/>
<path d="M669.3,202.3l1.6,4.9l2.8,-2.2Z" class="g1i_7"/>
<path d="M698.5,216.1h45.4v-9H698.5v9Z" class="g1_7"/>
<path d="M698.5,207.1h45.4v9H698.5v-9Z" class="g1j_7"/>
<path d="M705.5,157.7h6.6c2.8,0,5,-2.3,5,-5.1V139.7" class="g1h_7"/>
<path d="M700.7,157.7l4.8,1.8v-3.6Z" class="g6_7"/>
<path d="M700.7,157.7l4.8,1.8v-3.6Z" class="g1i_7"/>
<path d="M694.5,139.5h45.3v-9.1H694.5v9.1Z" class="g1_7"/>
<path d="M694.5,130.4h45.3v9.1H694.5v-9.1Z" class="g1j_7"/>
<path d="M484.3,310H849.6" class="gy_7"/>
</svg>