<?xml version="1.0" encoding="UTF-8" standalone="no"?>
<!DOCTYPE svg PUBLIC "-//W3C//DTD SVG 1.1//EN"
"http://www.w3.org/Graphics/SVG/1.1/DTD/svg11.dtd">
<svg viewBox="0 0 1210 935" version="1.1" xmlns="http://www.w3.org/2000/svg" xmlns:xlink="http://www.w3.org/1999/xlink">
<defs>
<style type="text/css"><![CDATA[
.g0_54{
fill: #00755C;
}
]]></style>
</defs>
<path d="M86.9,66.4h172V64.9H86.9v1.5Z" class="g0_54"/>
<path d="M258.9,66.4h1.4V64.9h-1.4v1.5Z" class="g0_54"/>
<path d="M260.3,66.4h862.8V64.9H260.3v1.5Z" class="g0_54"/>
<path d="M85.8,119.9H258.9v-1.5H85.8v1.5Z" class="g0_54"/>
<path d="M257.8,119.9h1.4v-1.5h-1.4v1.5Z" class="g0_54"/>
<path d="M259.2,119.9h863.9v-1.5H259.2v1.5Z" class="g0_54"/>
<path d="M84.7,838.2H558.2v-.7H84.7v.7Z" class="g0_54"/>
<path d="M558.2,838.2h.8v-.7h-.8v.7Z" class="g0_54"/>
<path d="M559,838.2h90.7v-.7H559v.7Z" class="g0_54"/>
<path d="M649.7,838.2h.8v-.7h-.8v.7Z" class="g0_54"/>
<path d="M650.5,838.2h472.6v-.7H650.5v.7Z" class="g0_54"/>
<image preserveAspectRatio="none" x="87" y="67" width="172" height="51" xlink:href="img/1.png"/>
<image preserveAspectRatio="none" x="1018" y="849" width="105" height="41" xlink:href="img/2.png"/>
<path fill-rule="evenodd" d="M86.9,192.3H292.1v-2.2H86.9v2.2Z" class="g0_54"/>
<path d="M292.1,192.5h2.2v-.2h-2.2v.2Z" class="g0_54"/>
<path fill-rule="evenodd" d="M292.1,192.3h2.2v-2.2h-2.2v2.2Z" class="g0_54"/>
<path fill-rule="evenodd" d="M294.3,192.3H509.1v-2.2H294.3v2.2Z" class="g0_54"/>
<path d="M509.1,192.5h2.2v-.2h-2.2v.2Z" class="g0_54"/>
<path fill-rule="evenodd" d="M509.1,192.3h2.2v-2.2h-2.2v2.2Z" class="g0_54"/>
<path fill-rule="evenodd" d="M511.3,192.3H730.2v-2.2H511.3v2.2Z" class="g0_54"/>
<path d="M730.2,192.5h2.2v-.2h-2.2v.2Z" class="g0_54"/>
<path fill-rule="evenodd" d="M730.2,192.3h2.2v-2.2h-2.2v2.2Z" class="g0_54"/>
<path fill-rule="evenodd" d="M732.4,192.3h396.2v-2.2H732.4v2.2Z" class="g0_54"/>
<path fill-rule="evenodd" d="M292.1,211.4h2.2V192.5h-2.2v18.9Z" class="g0_54"/>
<path fill-rule="evenodd" d="M509.1,211.4h2.2V192.5h-2.2v18.9Z" class="g0_54"/>
<path fill-rule="evenodd" d="M730.2,211.4h2.2V192.5h-2.2v18.9Z" class="g0_54"/>
<path fill-rule="evenodd" d="M86.9,213.6H201.3v-2.2H86.9v2.2Z" class="g0_54"/>
<path d="M201.3,213.8h2.2v-.2h-2.2v.2Z" class="g0_54"/>
<path fill-rule="evenodd" d="M201.3,213.6h2.2v-2.2h-2.2v2.2Z" class="g0_54"/>
<path fill-rule="evenodd" d="M203.5,213.6h88.6v-2.2H203.5v2.2Z" class="g0_54"/>
<path fill-rule="evenodd" d="M292.1,213.8h2.2v-2.4h-2.2v2.4Z" class="g0_54"/>
<path fill-rule="evenodd" d="M294.3,213.6H509.1v-2.2H294.3v2.2Z" class="g0_54"/>
<path fill-rule="evenodd" d="M509.1,213.8h2.2v-2.4h-2.2v2.4Z" class="g0_54"/>
<path fill-rule="evenodd" d="M511.3,213.6H730.2v-2.2H511.3v2.2Z" class="g0_54"/>
<path fill-rule="evenodd" d="M730.2,213.8h2.2v-2.4h-2.2v2.4Z" class="g0_54"/>
<path fill-rule="evenodd" d="M732.4,213.6h396.2v-2.2H732.4v2.2Z" class="g0_54"/>
<path fill-rule="evenodd" d="M201.3,320.3h2.2V213.8h-2.2V320.3Z" class="g0_54"/>
<path fill-rule="evenodd" d="M292.1,320.3h2.2V213.8h-2.2V320.3Z" class="g0_54"/>
<path fill-rule="evenodd" d="M509.1,320.3h2.2V213.8h-2.2V320.3Z" class="g0_54"/>
<path fill-rule="evenodd" d="M730.2,320.3h2.2V213.8h-2.2V320.3Z" class="g0_54"/>
<path fill-rule="evenodd" d="M86.9,322.5H201.3v-2.2H86.9v2.2Z" class="g0_54"/>
<path fill-rule="evenodd" d="M201.3,322.5h2.2v-2.2h-2.2v2.2Z" class="g0_54"/>
<path fill-rule="evenodd" d="M203.5,322.5h88.6v-2.2H203.5v2.2Z" class="g0_54"/>
<path fill-rule="evenodd" d="M292.1,322.7h2.2v-2.4h-2.2v2.4Z" class="g0_54"/>
<path fill-rule="evenodd" d="M294.3,322.5H509.1v-2.2H294.3v2.2Z" class="g0_54"/>
<path fill-rule="evenodd" d="M509.1,322.7h2.2v-2.4h-2.2v2.4Z" class="g0_54"/>
<path fill-rule="evenodd" d="M511.3,322.5H730.2v-2.2H511.3v2.2Z" class="g0_54"/>
<path fill-rule="evenodd" d="M730.2,322.7h2.2v-2.4h-2.2v2.4Z" class="g0_54"/>
<path fill-rule="evenodd" d="M732.4,322.5h396.2v-2.2H732.4v2.2Z" class="g0_54"/>
<path fill-rule="evenodd" d="M292.1,397.5h2.2V322.7h-2.2v74.8Z" class="g0_54"/>
<path fill-rule="evenodd" d="M509.1,397.5h2.2V322.7h-2.2v74.8Z" class="g0_54"/>
<path fill-rule="evenodd" d="M730.2,397.5h2.2V322.7h-2.2v74.8Z" class="g0_54"/>
<path fill-rule="evenodd" d="M292.1,399.9h2.2v-2.4h-2.2v2.4Z" class="g0_54"/>
<path fill-rule="evenodd" d="M294.3,399.7H509.1v-2.2H294.3v2.2Z" class="g0_54"/>
<path fill-rule="evenodd" d="M509.1,399.9h2.2v-2.4h-2.2v2.4Z" class="g0_54"/>
<path fill-rule="evenodd" d="M511.3,399.7H730.2v-2.2H511.3v2.2Z" class="g0_54"/>
<path fill-rule="evenodd" d="M730.2,399.9h2.2v-2.4h-2.2v2.4Z" class="g0_54"/>
<path fill-rule="evenodd" d="M732.4,399.7h396.2v-2.2H732.4v2.2Z" class="g0_54"/>
<path fill-rule="evenodd" d="M292.1,474.8h2.2v-75h-2.2v75Z" class="g0_54"/>
<path fill-rule="evenodd" d="M509.1,474.8h2.2v-75h-2.2v75Z" class="g0_54"/>
<path fill-rule="evenodd" d="M730.2,474.8h2.2v-75h-2.2v75Z" class="g0_54"/>
<path fill-rule="evenodd" d="M292.1,477.2h2.2v-2.4h-2.2v2.4Z" class="g0_54"/>
<path fill-rule="evenodd" d="M294.3,477H509.1v-2.2H294.3V477Z" class="g0_54"/>
<path fill-rule="evenodd" d="M509.1,477.2h2.2v-2.4h-2.2v2.4Z" class="g0_54"/>
<path fill-rule="evenodd" d="M511.3,477H730.2v-2.2H511.3V477Z" class="g0_54"/>
<path fill-rule="evenodd" d="M730.2,477.2h2.2v-2.4h-2.2v2.4Z" class="g0_54"/>
<path fill-rule="evenodd" d="M732.4,477h396.2v-2.2H732.4V477Z" class="g0_54"/>
<path fill-rule="evenodd" d="M292.1,536.3h2.2V477.2h-2.2v59.1Z" class="g0_54"/>
<path fill-rule="evenodd" d="M509.1,536.3h2.2V477.2h-2.2v59.1Z" class="g0_54"/>
<path fill-rule="evenodd" d="M730.2,536.3h2.2V477.2h-2.2v59.1Z" class="g0_54"/>
<path fill-rule="evenodd" d="M292.1,538.6h2.2v-2.3h-2.2v2.3Z" class="g0_54"/>
<path fill-rule="evenodd" d="M294.3,538.5H509.1v-2.2H294.3v2.2Z" class="g0_54"/>
<path fill-rule="evenodd" d="M509.1,538.6h2.2v-2.3h-2.2v2.3Z" class="g0_54"/>
<path fill-rule="evenodd" d="M511.3,538.5H730.2v-2.2H511.3v2.2Z" class="g0_54"/>
<path fill-rule="evenodd" d="M730.2,538.6h2.2v-2.3h-2.2v2.3Z" class="g0_54"/>
<path fill-rule="evenodd" d="M732.4,538.5h396.2v-2.2H732.4v2.2Z" class="g0_54"/>
<path fill-rule="evenodd" d="M292.1,613.6h2.2v-75h-2.2v75Z" class="g0_54"/>
<path fill-rule="evenodd" d="M509.1,613.6h2.2v-75h-2.2v75Z" class="g0_54"/>
<path fill-rule="evenodd" d="M730.2,613.6h2.2v-75h-2.2v75Z" class="g0_54"/>
<path fill-rule="evenodd" d="M86.9,615.8H201.3v-2.2H86.9v2.2Z" class="g0_54"/>
<path d="M201.3,616h2.2v-.2h-2.2v.2Z" class="g0_54"/>
<path fill-rule="evenodd" d="M201.3,615.8h2.2v-2.2h-2.2v2.2Z" class="g0_54"/>
<path fill-rule="evenodd" d="M203.5,615.8h88.6v-2.2H203.5v2.2Z" class="g0_54"/>
<path fill-rule="evenodd" d="M292.1,616h2.2v-2.4h-2.2V616Z" class="g0_54"/>
<path fill-rule="evenodd" d="M294.3,615.8H509.1v-2.2H294.3v2.2Z" class="g0_54"/>
<path fill-rule="evenodd" d="M509.1,616h2.2v-2.4h-2.2V616Z" class="g0_54"/>
<path fill-rule="evenodd" d="M511.3,615.8H730.2v-2.2H511.3v2.2Z" class="g0_54"/>
<path fill-rule="evenodd" d="M730.2,616h2.2v-2.4h-2.2V616Z" class="g0_54"/>
<path fill-rule="evenodd" d="M732.4,615.8h396.2v-2.2H732.4v2.2Z" class="g0_54"/>
<path fill-rule="evenodd" d="M201.3,654.1h2.2V616h-2.2v38.1Z" class="g0_54"/>
<path fill-rule="evenodd" d="M292.1,654.1h2.2V616h-2.2v38.1Z" class="g0_54"/>
<path fill-rule="evenodd" d="M509.1,654.1h2.2V616h-2.2v38.1Z" class="g0_54"/>
<path fill-rule="evenodd" d="M730.2,654.1h2.2V616h-2.2v38.1Z" class="g0_54"/>
<path fill-rule="evenodd" d="M201.3,656.5h2.2v-2.4h-2.2v2.4Z" class="g0_54"/>
<path fill-rule="evenodd" d="M292.1,656.5h2.2v-2.4h-2.2v2.4Z" class="g0_54"/>
<path fill-rule="evenodd" d="M294.3,656.3H509.1v-2.2H294.3v2.2Z" class="g0_54"/>
<path fill-rule="evenodd" d="M509.1,656.5h2.2v-2.4h-2.2v2.4Z" class="g0_54"/>
<path fill-rule="evenodd" d="M511.3,656.3H730.2v-2.2H511.3v2.2Z" class="g0_54"/>
<path fill-rule="evenodd" d="M730.2,656.5h2.2v-2.4h-2.2v2.4Z" class="g0_54"/>
<path fill-rule="evenodd" d="M732.4,656.3h396.2v-2.2H732.4v2.2Z" class="g0_54"/>
<path fill-rule="evenodd" d="M201.3,694.6h2.2V656.5h-2.2v38.1Z" class="g0_54"/>
<path fill-rule="evenodd" d="M292.1,694.6h2.2V656.5h-2.2v38.1Z" class="g0_54"/>
<path fill-rule="evenodd" d="M509.1,694.6h2.2V656.5h-2.2v38.1Z" class="g0_54"/>
<path fill-rule="evenodd" d="M730.2,694.6h2.2V656.5h-2.2v38.1Z" class="g0_54"/>
<path fill-rule="evenodd" d="M201.3,697h2.2v-2.3h-2.2V697Z" class="g0_54"/>
<path fill-rule="evenodd" d="M292.1,697h2.2v-2.3h-2.2V697Z" class="g0_54"/>
<path fill-rule="evenodd" d="M294.3,696.8H509.1v-2.2H294.3v2.2Z" class="g0_54"/>
<path fill-rule="evenodd" d="M509.1,697h2.2v-2.3h-2.2V697Z" class="g0_54"/>
<path fill-rule="evenodd" d="M511.3,696.8H730.2v-2.2H511.3v2.2Z" class="g0_54"/>
<path fill-rule="evenodd" d="M730.2,697h2.2v-2.3h-2.2V697Z" class="g0_54"/>
<path fill-rule="evenodd" d="M732.4,696.8h396.2v-2.2H732.4v2.2Z" class="g0_54"/>
<path fill-rule="evenodd" d="M201.3,751.1h2.2V697h-2.2v54.1Z" class="g0_54"/>
<path fill-rule="evenodd" d="M292.1,751.1h2.2V697h-2.2v54.1Z" class="g0_54"/>
<path fill-rule="evenodd" d="M509.1,751.1h2.2V697h-2.2v54.1Z" class="g0_54"/>
<path fill-rule="evenodd" d="M730.2,751.1h2.2V697h-2.2v54.1Z" class="g0_54"/>
<path fill-rule="evenodd" d="M201.3,753.5h2.2v-2.4h-2.2v2.4Z" class="g0_54"/>
<path fill-rule="evenodd" d="M292.1,753.5h2.2v-2.4h-2.2v2.4Z" class="g0_54"/>
<path fill-rule="evenodd" d="M294.3,753.3H509.1v-2.2H294.3v2.2Z" class="g0_54"/>
<path fill-rule="evenodd" d="M509.1,753.5h2.2v-2.4h-2.2v2.4Z" class="g0_54"/>
<path fill-rule="evenodd" d="M511.3,753.3H730.2v-2.2H511.3v2.2Z" class="g0_54"/>
<path fill-rule="evenodd" d="M730.2,753.5h2.2v-2.4h-2.2v2.4Z" class="g0_54"/>
<path fill-rule="evenodd" d="M732.4,753.3h396.2v-2.2H732.4v2.2Z" class="g0_54"/>
<path fill-rule="evenodd" d="M86.9,793.8H201.3v-2.2H86.9v2.2Z" class="g0_54"/>
<path fill-rule="evenodd" d="M201.3,791.6h2.2V753.5h-2.2v38.1Z" class="g0_54"/>
<path fill-rule="evenodd" d="M201.3,793.8h2.2v-2.2h-2.2v2.2Z" class="g0_54"/>
<path fill-rule="evenodd" d="M203.5,793.8h88.6v-2.2H203.5v2.2Z" class="g0_54"/>
<path fill-rule="evenodd" d="M292.1,791.6h2.2V753.5h-2.2v38.1Z" class="g0_54"/>
<path fill-rule="evenodd" d="M292.1,793.8h2.2v-2.2h-2.2v2.2Z" class="g0_54"/>
<path fill-rule="evenodd" d="M294.3,793.8H509.1v-2.2H294.3v2.2Z" class="g0_54"/>
<path fill-rule="evenodd" d="M509.1,791.6h2.2V753.5h-2.2v38.1Z" class="g0_54"/>
<path fill-rule="evenodd" d="M509.1,793.8h2.2v-2.2h-2.2v2.2Z" class="g0_54"/>
<path fill-rule="evenodd" d="M511.3,793.8H730.2v-2.2H511.3v2.2Z" class="g0_54"/>
<path fill-rule="evenodd" d="M730.2,791.6h2.2V753.5h-2.2v38.1Z" class="g0_54"/>
<path fill-rule="evenodd" d="M730.2,793.8h2.2v-2.2h-2.2v2.2Z" class="g0_54"/>
<path fill-rule="evenodd" d="M732.4,793.8h396.2v-2.2H732.4v2.2Z" class="g0_54"/>
</svg>