<?xml version="1.0" encoding="UTF-8" standalone="no"?>
<!DOCTYPE svg PUBLIC "-//W3C//DTD SVG 1.1//EN"
"http://www.w3.org/Graphics/SVG/1.1/DTD/svg11.dtd">
<svg viewBox="0 0 935 1210" version="1.1" xmlns="http://www.w3.org/2000/svg" xmlns:xlink="http://www.w3.org/1999/xlink">
<defs>
<clipPath id="c0_13"><path d="M428,429.4V405.8H114.1v23.6Zm-345.6,8V111.5H456.8V437.4Z"/></clipPath>
<clipPath id="c1_13"><path d="M181.4,380.5v-260h260v260Z"/></clipPath>
<style type="text/css"><![CDATA[
.g0_13{
fill: #FFFFFF;
}
.g1_13{
fill: none;
stroke: #868686;
stroke-width: 0.63;
stroke-linecap: butt;
stroke-linejoin: round;
}
.g2_13{
fill: #F2F2F2;
}
.g3_13{
fill: none;
stroke: #000000;
stroke-width: 0.63;
stroke-linecap: butt;
stroke-linejoin: round;
}
.g4_13{
fill: #A6A6A6;
}
.g5_13{
fill: #404040;
}
.g6_13{
}
.g7_13{
fill: none;
stroke: #000000;
stroke-width: 0.502;
stroke-linecap: butt;
stroke-linejoin: miter;
}
]]></style>
</defs>
<path fill-rule="evenodd" d="M82.4,437.4H456.8V111.5H82.4V437.4Z" class="g0_13"/>
<path fill-rule="evenodd" d="M181.4,380.5h260v-260h-260v260Z" class="g0_13"/>
<g clip-path="url(#c0_13)">
<path d="M233.4,120.5v260m52,-260v260m52,-260v260m52,-260v260m52,-260v260" class="g1_13"/>
</g>
<g clip-path="url(#c1_13)">
<path d="M260.8,378.8H181.4v-6.6h79.4Zm-77.7,-10h-1.7v-6.6h1.7Zm50.7,-10H181.4v-6.6h52.4Zm204.6,-10h-257v-6.6h257Zm-256.2,-10h-.8v-6.6h.8Zm2.7,-10h-3.5v-6.6h3.5Zm-1.1,-10h-2.4v-6.6h2.4Zm9,-10H181.4v-6.6h11.4Zm-7.7,-10h-3.7v-6.6h3.7Zm3.7,-10h-7.4v-6.6h7.4Zm-6.1,-10h-1.3v-6.6h1.3Zm257.2,-10H181.4v-6.6H439.9Zm-238.2,-10H181.4v-6.6h20.3Zm-11.9,-10h-8.4v-6.6h8.4Zm5.1,-10H181.4v-6.6h13.5Zm192.2,-10H181.4v-6.6H387.1Zm51.3,-10h-257v-6.6h257Zm-249.1,-10h-7.9v-6.7h7.9Zm-4.8,-10h-3.1v-6.7h3.1Zm2.1,-10h-5.2v-6.7h5.2Zm95.1,-10H181.4v-6.7H281.7Zm-91.3,-10h-9v-6.7h9Zm-7.6,-10h-1.4v-6.7h1.4Zm206,-10H181.4v-6.7H388.8Zm24.5,-10H181.4v-6.7H413.3Zm-229.2,-10h-2.7v-6.7h2.7Z" class="g2_13"/>
<path d="M260.8,378.8H181.4v-6.6h79.4Zm-77.7,-10h-1.7v-6.6h1.7Zm50.7,-10H181.4v-6.6h52.4Zm204.6,-10h-257v-6.6h257Zm-256.2,-10h-.8v-6.6h.8Zm2.7,-10h-3.5v-6.6h3.5Zm-1.1,-10h-2.4v-6.6h2.4Zm9,-10H181.4v-6.6h11.4Zm-7.7,-10h-3.7v-6.6h3.7Zm3.7,-10h-7.4v-6.6h7.4Zm-6.1,-10h-1.3v-6.6h1.3Zm257.2,-10H181.4v-6.6H439.9Zm-238.2,-10H181.4v-6.6h20.3Zm-11.9,-10h-8.4v-6.6h8.4Zm5.1,-10H181.4v-6.6h13.5Zm192.2,-10H181.4v-6.6H387.1Zm51.3,-10h-257v-6.6h257Zm-249.1,-10h-7.9v-6.6h7.9Zm-4.8,-10h-3.1v-6.7h3.1Zm2.1,-10h-5.2v-6.7h5.2Zm95.1,-10H181.4v-6.7H281.7Zm-91.3,-10h-9v-6.7h9Zm-7.6,-10h-1.4v-6.7h1.4Zm206,-10H181.4v-6.7H388.8Zm24.5,-10H181.4v-6.7H413.3Zm-229.2,-10h-2.7v-6.7h2.7Z" class="g3_13"/>
</g>
<image x="260" y="371" width="20" height="9" xlink:href="shade/1.png"/>
<path d="M260.8,372.2h17.9v6.6H260.8v-6.6Z" class="g3_13"/>
<image x="182" y="361" width="6" height="10" xlink:href="shade/2.png"/>
<path d="M183.1,362.2h3v6.6h-3v-6.6Z" class="g3_13"/>
<image x="233" y="351" width="15" height="9" xlink:href="shade/3.png"/>
<path d="M233.8,352.2H246v6.6H233.8v-6.6Z" class="g3_13"/>
<image x="437" y="341" width="4" height="10" xlink:href="shade/4.png"/>
<path d="M438.4,342.2h1.2v6.6h-1.2v-6.6Z" class="g3_13"/>
<image x="181" y="331" width="12" height="9" xlink:href="shade/5.png"/>
<path d="M182.2,332.2h8.9v6.6h-8.9v-6.6Z" class="g3_13"/>
<image x="184" y="321" width="10" height="10" xlink:href="shade/6.png"/>
<path d="M184.9,322.2h7.5v6.6h-7.5v-6.6Z" class="g3_13"/>
<image x="183" y="311" width="9" height="9" xlink:href="shade/7.png"/>
<path d="M183.8,312.2H190v6.6h-6.2v-6.6Z" class="g3_13"/>
<image x="191" y="301" width="28" height="10" xlink:href="shade/8.png"/>
<path d="M192.8,302.2h24.6v6.6H192.8v-6.6Z" class="g3_13"/>
<image x="184" y="291" width="11" height="9" xlink:href="shade/9.png"/>
<path d="M185.1,292.2h8.1v6.6h-8.1v-6.6Z" class="g3_13"/>
<image x="188" y="281" width="12" height="10" xlink:href="shade/10.png"/>
<path d="M188.8,282.2h9.8v6.6h-9.8v-6.6Z" class="g3_13"/>
<image x="181" y="271" width="5" height="9" xlink:href="shade/11.png"/>
<path d="M182.7,272.2h2.7v6.6h-2.7v-6.6Z" class="g3_13"/>
<image x="439" y="261" width="3" height="9" xlink:href="shade/12.png"/>
<path d="M439.9,262.2h.6v6.6h-.6v-6.6Z" class="g3_13"/>
<image x="200" y="251" width="26" height="10" xlink:href="shade/13.png"/>
<path d="M201.7,252.2h23.4v6.6H201.7v-6.6Z" class="g3_13"/>
<image x="189" y="241" width="7" height="9" xlink:href="shade/14.png"/>
<path d="M189.8,242.2h3.5v6.6h-3.5v-6.6Z" class="g3_13"/>
<image x="194" y="231" width="15" height="10" xlink:href="shade/15.png"/>
<path d="M194.9,232.2h13.2v6.6H194.9v-6.6Z" class="g3_13"/>
<image x="386" y="221" width="15" height="9" xlink:href="shade/16.png"/>
<path d="M387.1,222.2h11.6v6.6H387.1v-6.6Z" class="g3_13"/>
<image x="437" y="211" width="3" height="10" xlink:href="shade/17.png"/>
<path d="M438.4,212.2h.7v6.6h-.7v-6.6Z" class="g3_13"/>
<image x="188" y="201" width="6" height="9" xlink:href="shade/18.png"/>
<path d="M189.3,202.2h3.6v6.6h-3.6v-6.6Z" class="g3_13"/>
<image x="183" y="191" width="7" height="10" xlink:href="shade/19.png"/>
<path d="M184.5,192.1H189v6.7h-4.5v-6.7Z" class="g3_13"/>
<image x="185" y="181" width="20" height="9" xlink:href="shade/20.png"/>
<path d="M186.6,182.1h16.6v6.7H186.6v-6.7Z" class="g3_13"/>
<image x="280" y="171" width="5" height="10" xlink:href="shade/21.png"/>
<path d="M281.7,172.1h1.9v6.7h-1.9v-6.7Z" class="g3_13"/>
<image x="189" y="161" width="6" height="10" xlink:href="shade/22.png"/>
<path d="M190.4,162.1h4.2v6.7h-4.2v-6.7Z" class="g3_13"/>
<image x="182" y="151" width="4" height="9" xlink:href="shade/23.png"/>
<path d="M182.8,152.1h1.7v6.7h-1.7v-6.7Z" class="g3_13"/>
<image x="388" y="141" width="3" height="10" xlink:href="shade/24.png"/>
<path d="M388.8,142.1h.5v6.7h-.5v-6.7Z" class="g3_13"/>
<image x="412" y="131" width="6" height="9" xlink:href="shade/25.png"/>
<path d="M413.3,132.1h4.4v6.7h-4.4v-6.7Z" class="g3_13"/>
<image x="183" y="121" width="5" height="10" xlink:href="shade/26.png"/>
<path d="M184.1,122.1h2.7v6.7h-2.7v-6.7Z" class="g3_13"/>
<path d="M316.9,378.8H278.7v-6.6h38.2Zm-127,-10h-3.8v-6.6h3.8Zm116.3,-10H246v-6.6h60.2Zm135.2,-10h-1.8v-6.6h1.8Zm-241.8,-10h-8.5v-6.6h8.5Zm20.4,-10H192.4v-6.6H220Zm-24.9,-10H190v-6.6h5.1Zm36.6,-10H217.4v-6.6h14.3Zm-34.6,-10h-3.9v-6.6h3.9Zm9.4,-10h-7.9v-6.6h7.9Zm-18.7,-10h-2.4v-6.6h2.4Zm253.6,-10h-.9v-6.6h.9Zm-184.5,-10H225.1v-6.6h31.8Zm61,-10H193.3v-6.6H317.9Zm-71.1,-10H208.1v-6.6h38.7Zm154.5,-10h-2.6v-6.6h2.6Zm39,-10h-1.2v-6.6h1.2Zm-243.4,-10h-4v-6.7h4Zm-.2,-10H189v-6.7h7.7Zm29.3,-10H203.2v-6.7H226Zm83.8,-10H283.6v-6.7h26.2ZM202,168.8h-7.4v-6.7H202Zm-14.7,-10h-2.8v-6.7h2.8Zm203.5,-10h-1.5v-6.7h1.5Zm30.8,-10h-3.9v-6.7h3.9Zm-230.2,-10h-4.6v-6.7h4.6Z" class="g4_13"/>
<path d="M316.9,378.8H278.7v-6.6h38.2Zm-127,-10h-3.8v-6.6h3.8Zm116.3,-10H246v-6.6h60.2Zm135.2,-10h-1.8v-6.6h1.8Zm-241.8,-10h-8.5v-6.6h8.5Zm20.4,-10H192.4v-6.6H220Zm-24.9,-10H190v-6.6h5.1Zm36.6,-10H217.4v-6.6h14.3Zm-34.6,-10h-3.9v-6.6h3.9Zm9.4,-10h-7.9v-6.6h7.9Zm-18.7,-10h-2.4v-6.6h2.4Zm253.6,-10h-.9v-6.6h.9Zm-184.5,-10H225.1v-6.6h31.8Zm61,-10H193.3v-6.6H317.9Zm-71.1,-10H208.1v-6.6h38.7Zm154.5,-10h-2.6v-6.6h2.6Zm39,-10h-1.2v-6.6h1.2Zm-243.4,-10h-4v-6.6h4Zm-.2,-10H189v-6.7h7.7Zm29.3,-10H203.2v-6.7H226Zm83.8,-10H283.6v-6.7h26.2ZM202,168.8h-7.4v-6.7H202Zm-14.7,-10h-2.8v-6.7h2.8Zm203.5,-10h-1.5v-6.7h1.5Zm30.8,-10h-3.9v-6.7h3.9Zm-230.2,-10h-4.6v-6.7h4.6Z" class="g3_13"/>
<image x="316" y="371" width="23" height="9" xlink:href="shade/27.png"/>
<path d="M316.9,372.2h19.4v6.6H316.9v-6.6Z" class="g3_13"/>
<image x="189" y="361" width="8" height="10" xlink:href="shade/28.png"/>
<path d="M189.9,362.2h4.7v6.6h-4.7v-6.6Z" class="g3_13"/>
<image x="305" y="351" width="52" height="9" xlink:href="shade/29.png"/>
<path d="M306.2,352.2h48.7v6.6H306.2v-6.6Z" class="g3_13"/>
<image x="198" y="331" width="14" height="9" xlink:href="shade/30.png"/>
<path d="M199.6,332.2h11.8v6.6H199.6v-6.6Z" class="g3_13"/>
<image x="219" y="321" width="27" height="10" xlink:href="shade/31.png"/>
<path d="M220,322.2h24.4v6.6H220v-6.6Z" class="g3_13"/>
<image x="194" y="311" width="9" height="9" xlink:href="shade/32.png"/>
<path d="M195.1,312.2h6.6v6.6h-6.6v-6.6Z" class="g3_13"/>
<image x="230" y="301" width="24" height="10" xlink:href="shade/33.png"/>
<path d="M231.7,302.2h21.4v6.6H231.7v-6.6Z" class="g3_13"/>
<image x="196" y="291" width="9" height="9" xlink:href="shade/34.png"/>
<path d="M197.1,292.2h5.8v6.6h-5.8v-6.6Z" class="g3_13"/>
<image x="205" y="281" width="12" height="10" xlink:href="shade/35.png"/>
<path d="M206.5,282.2h8.7v6.6h-8.7v-6.6Z" class="g3_13"/>
<image x="187" y="271" width="6" height="9" xlink:href="shade/36.png"/>
<path d="M187.8,272.2h3.7v6.6h-3.7v-6.6Z" class="g3_13"/>
<image x="256" y="251" width="38" height="10" xlink:href="shade/37.png"/>
<path d="M256.9,252.2h34.6v6.6H256.9v-6.6Z" class="g3_13"/>
<image x="317" y="241" width="65" height="9" xlink:href="shade/38.png"/>
<path d="M317.9,242.2h62.5v6.6H317.9v-6.6Z" class="g3_13"/>
<image x="246" y="231" width="40" height="10" xlink:href="shade/39.png"/>
<path d="M246.8,232.2h38.1v6.6H246.8v-6.6Z" class="g3_13"/>
<image x="400" y="221" width="3" height="9" xlink:href="shade/40.png"/>
<path d="M401.3,222.2h.6v6.6h-.6v-6.6Z" class="g3_13"/>
<image x="439" y="211" width="4" height="10" xlink:href="shade/41.png"/>
<path d="M440.3,212.2h1v6.6h-1v-6.6Z" class="g3_13"/>
<image x="196" y="201" width="8" height="9" xlink:href="shade/42.png"/>
<path d="M196.9,202.2H202v6.6h-5.1v-6.6Z" class="g3_13"/>
<image x="195" y="191" width="10" height="10" xlink:href="shade/43.png"/>
<path d="M196.7,192.1h7.5v6.7h-7.5v-6.7Z" class="g3_13"/>
<image x="225" y="181" width="38" height="9" xlink:href="shade/44.png"/>
<path d="M226,182.1h35.2v6.7H226v-6.7Z" class="g3_13"/>
<image x="309" y="171" width="3" height="10" xlink:href="shade/45.png"/>
<path d="M309.8,172.1h1v6.7h-1v-6.7Z" class="g3_13"/>
<image x="201" y="161" width="11" height="10" xlink:href="shade/46.png"/>
<path d="M202,162.1h8v6.7h-8v-6.7Z" class="g3_13"/>
<image x="186" y="151" width="5" height="9" xlink:href="shade/47.png"/>
<path d="M187.3,152.1h2.8v6.7h-2.8v-6.7Z" class="g3_13"/>
<image x="390" y="141" width="4" height="10" xlink:href="shade/48.png"/>
<path d="M390.8,142.1H392v6.7h-1.2v-6.7Z" class="g3_13"/>
<image x="420" y="131" width="7" height="9" xlink:href="shade/49.png"/>
<path d="M421.6,132.1h4.2v6.7h-4.2v-6.7Z" class="g3_13"/>
<image x="190" y="121" width="10" height="10" xlink:href="shade/50.png"/>
<path d="M191.4,122.1h7.1v6.7h-7.1v-6.7Z" class="g3_13"/>
<g clip-path="url(#c1_13)">
<path d="M360.2,378.8H336.3v-6.6h23.9ZM195,368.8h-.4v-6.6h.4Zm169,-10h-9.1v-6.6H364Zm-151.7,-20h-.9v-6.6h.9Zm34.1,-10h-2v-6.6h2Zm-44,-10h-.7v-6.6h.7Zm51.9,-10h-1.2v-6.6h1.2Zm-50.7,-10h-.7v-6.6h.7Zm12.2,-10h-.6v-6.6h.6Zm-23.9,-10h-.4v-6.6h.4Zm110.3,-20H291.5v-6.6h10.7Zm78.5,-10h-.3v-6.6h.3Zm-94,-10h-1.8v-6.6h1.8Zm141.2,-10h-26v-6.6h26Zm13.4,-10h.2v-6.6h-.2Zm-239,-10H202v-6.7h.3Zm2.2,-10h-.3v-6.7h.3Zm58.5,-10h-1.8v-6.7H263Zm47.8,-10h.2v-6.7h-.2Zm-100.4,-10H210v-6.7h.4Zm-20.3,-10h.2v-6.7h-.2ZM392,148.8h.2v-6.7H392Zm40.3,-10h-6.5v-6.7h6.5ZM199,128.8h-.5v-6.7h.5Z" class="g5_13"/>
<path d="M360.2,378.8H336.3v-6.6h23.9ZM195,368.8h-.4v-6.6h.4Zm169,-10h-9.1v-6.6H364Zm-151.7,-20h-.9v-6.6h.9Zm34.1,-10h-2v-6.6h2Zm-44,-10h-.7v-6.6h.7Zm51.9,-10h-1.2v-6.6h1.2Zm-50.7,-10h-.7v-6.6h.7Zm12.2,-10h-.6v-6.6h.6Zm-23.9,-10h-.4v-6.6h.4Zm110.3,-20H291.5v-6.6h10.7Zm78.5,-10h-.3v-6.6h.3Zm-94,-10h-1.8v-6.6h1.8Zm141.2,-10h-26v-6.6h26Zm13.4,-10h.2v-6.6h-.2Zm-239,-10H202v-6.6h.3Zm2.2,-10h-.3v-6.7h.3Zm58.5,-10h-1.8v-6.7H263Zm47.8,-10h.2v-6.7h-.2Zm-100.4,-10H210v-6.7h.4Zm-20.3,-10h.2v-6.7h-.2ZM392,148.8h.2v-6.7H392Zm40.3,-10h-6.5v-6.7h6.5ZM199,128.8h-.5v-6.7h.5Z" class="g3_13"/>
<path d="M441.4,378.8H360.2v-6.6h81.2Zm0,-10H195v-6.6H441.4Zm0,-10H364v-6.6h77.4Zm0,-20H212.3v-6.6H441.4Zm0,-10h-195v-6.6h195Zm0,-10h-239v-6.6h239Zm0,-10H254.3v-6.6H441.4Zm0,-10H203.6v-6.6H441.4Zm0,-10H215.8v-6.6H441.4Zm0,-10H191.9v-6.6H441.4Zm0,-20H302.2v-6.6H441.4Zm0,-10H380.7v-6.6h60.7Zm0,-10H286.7v-6.6H441.4Zm0,-10H427.9v-6.6h13.5Zm0,-10h.2v-6.6h-.2Zm0,-10H202.3v-6.7H441.4Zm0,-10H204.5v-6.7H441.4Zm0,-10H263v-6.7H441.4Zm0,-10H310.8v-6.7H441.4Zm0,-10h-231v-6.7h231Zm0,-10H190.2v-6.7H441.4Zm0,-10H392v-6.7h49.4Zm0,-10h-9.1v-6.7h9.1Zm0,-10H199v-6.7H441.4Z" class="g6_13"/>
<path d="M441.4,378.8H360.2v-6.6h81.2Zm0,-10H195v-6.6H441.4Zm0,-10H364v-6.6h77.4Zm0,-20H212.3v-6.6H441.4Zm0,-10h-195v-6.6h195Zm0,-10h-239v-6.6h239Zm0,-10H254.3v-6.6H441.4Zm0,-10H203.6v-6.6H441.4Zm0,-10H215.8v-6.6H441.4Zm0,-10H191.9v-6.6H441.4Zm0,-20H302.2v-6.6H441.4Zm0,-10H380.7v-6.6h60.7Zm0,-10H286.7v-6.6H441.4Zm0,-10H427.9v-6.6h13.5Zm0,-10h.2v-6.6h-.2Zm0,-10H202.3v-6.6H441.4Zm0,-10H204.5v-6.7H441.4Zm0,-10H263v-6.7H441.4Zm0,-10H310.8v-6.7H441.4Zm0,-10h-231v-6.7h231Zm0,-10H190.2v-6.7H441.4Zm0,-10H392v-6.7h49.4Zm0,-10h-9.1v-6.7h9.1Zm0,-10H199v-6.7H441.4Z" class="g3_13"/>
</g>
<path d="M181.4,380.5h260m-260,0v2.7m52,-2.7v2.7m52,-2.7v2.7m52,-2.7v2.7m52,-2.7v2.7m52,-2.7v2.7m-260,-2.7v-260m-2.1,260h2.1m-2.1,-10h2.1m-2.1,-10h2.1m-2.1,-10h2.1m-2.1,-10h2.1m-2.1,-10h2.1m-2.1,-10h2.1m-2.1,-10h2.1m-2.1,-10h2.1m-2.1,-10h2.1m-2.1,-10h2.1m-2.1,-10h2.1m-2.1,-10h2.1m-2.1,-10h2.1m-2.1,-10h2.1m-2.1,-10h2.1m-2.1,-10h2.1m-2.1,-10h2.1m-2.1,-10h2.1m-2.1,-10h2.1m-2.1,-10h2.1m-2.1,-10h2.1m-2.1,-10h2.1m-2.1,-10h2.1m-2.1,-10h2.1m-2.1,-10h2.1m-2.1,-10h2.1" class="g1_13"/>
<path fill-rule="evenodd" d="M128.8,419.9h4.6v-4.6h-4.6v4.6Z" class="g2_13"/>
<path d="M128.8,415.3h4.6v4.6h-4.6v-4.6Z" class="g3_13"/>
<image preserveAspectRatio="none" x="180" y="415" width="5" height="5" xlink:href="img/1.png"/>
<path d="M180.2,415.3h4.6v4.6h-4.6v-4.6Z" class="g3_13"/>
<path fill-rule="evenodd" d="M229.7,419.9h4.6v-4.6h-4.6v4.6Z" class="g4_13"/>
<path d="M229.7,415.3h4.6v4.6h-4.6v-4.6Z" class="g3_13"/>
<image preserveAspectRatio="none" x="274" y="415" width="5" height="5" xlink:href="img/2.png"/>
<path d="M274.3,415.3h4.6v4.6h-4.6v-4.6Z" class="g3_13"/>
<path fill-rule="evenodd" d="M323.3,419.9h4.6v-4.6h-4.6v4.6Z" class="g5_13"/>
<path d="M323.3,415.3h4.6v4.6h-4.6v-4.6Z" class="g3_13"/>
<path fill-rule="evenodd" d="M376.6,419.9h4.6v-4.6h-4.6v4.6Z" class="g6_13"/>
<path d="M376.6,415.3h4.6v4.6h-4.6v-4.6Z" class="g3_13"/>
<path d="M82.4,111.5H456.8V437.4H82.4V111.5Z" class="g1_13"/>
<path d="M82.5,454.3H447.8" class="g7_13"/>
</svg>