<?xml version="1.0" encoding="UTF-8" standalone="no"?>
<!DOCTYPE svg PUBLIC "-//W3C//DTD SVG 1.1//EN"
"http://www.w3.org/Graphics/SVG/1.1/DTD/svg11.dtd">
<svg viewBox="0 0 935 1210" version="1.1" xmlns="http://www.w3.org/2000/svg" xmlns:xlink="http://www.w3.org/1999/xlink">
<defs>
<style type="text/css"><![CDATA[
.g0_31{
fill: #00755C;
}
]]></style>
</defs>
<path d="M86.9,66.4H263.6V64.9H86.9v1.5Z" class="g0_31"/>
<path d="M263.6,66.4h1.5V64.9h-1.5v1.5Z" class="g0_31"/>
<path d="M265.1,66.4H849.2V64.9H265.1v1.5Z" class="g0_31"/>
<path d="M85.8,119.9H263.6v-1.5H85.8v1.5Z" class="g0_31"/>
<path d="M262.5,119.9H264v-1.5h-1.5v1.5Z" class="g0_31"/>
<path d="M264,119.9H849.2v-1.5H264v1.5Z" class="g0_31"/>
<path d="M84.7,1113.4H432.3v-.7H84.7v.7Z" class="g0_31"/>
<path d="M432.3,1113.4h.7v-.7h-.7v.7Z" class="g0_31"/>
<path d="M433,1113.4h66.6v-.7H433v.7Z" class="g0_31"/>
<path d="M499.6,1113.4h.7v-.7h-.7v.7Z" class="g0_31"/>
<path d="M500.3,1113.4H847v-.7H500.3v.7Z" class="g0_31"/>
<image preserveAspectRatio="none" x="89" y="67" width="172" height="51" xlink:href="img/1.png"/>
<image preserveAspectRatio="none" x="739" y="1124" width="107" height="41" xlink:href="img/2.png"/>
<path fill-rule="evenodd" d="M87.1,209.9h80.5v-2.2H87.1v2.2Z" class="g0_31"/>
<path d="M167.6,210.1h2.2v-.2h-2.2v.2Z" class="g0_31"/>
<path fill-rule="evenodd" d="M167.6,209.9h2.2v-2.2h-2.2v2.2Z" class="g0_31"/>
<path fill-rule="evenodd" d="M169.8,209.9H752v-2.2H169.8v2.2Z" class="g0_31"/>
<path d="M752,210.1h2.2v-.2H752v.2Z" class="g0_31"/>
<path fill-rule="evenodd" d="M752,209.9h2.2v-2.2H752v2.2Z" class="g0_31"/>
<path fill-rule="evenodd" d="M754.2,209.9h99.6v-2.2H754.2v2.2Z" class="g0_31"/>
<path fill-rule="evenodd" d="M167.6,260.5h2.2V210.1h-2.2v50.4Z" class="g0_31"/>
<path fill-rule="evenodd" d="M752,260.5h2.2V210.1H752v50.4Z" class="g0_31"/>
<path fill-rule="evenodd" d="M87.1,262.7h80.5v-2.2H87.1v2.2Z" class="g0_31"/>
<path fill-rule="evenodd" d="M167.6,262.7h2.2v-2.2h-2.2v2.2Z" class="g0_31"/>
<path fill-rule="evenodd" d="M169.8,262.7H752v-2.2H169.8v2.2Z" class="g0_31"/>
<path fill-rule="evenodd" d="M752,262.7h2.2v-2.2H752v2.2Z" class="g0_31"/>
<path fill-rule="evenodd" d="M754.2,262.7h99.6v-2.2H754.2v2.2Z" class="g0_31"/>
<path fill-rule="evenodd" d="M87.1,284h80.5v-2.2H87.1V284Z" class="g0_31"/>
<path d="M167.6,284.2h2.2V284h-2.2v.2Z" class="g0_31"/>
<path fill-rule="evenodd" d="M167.6,284h2.2v-2.2h-2.2V284Z" class="g0_31"/>
<path fill-rule="evenodd" d="M169.8,284H752v-2.2H169.8V284Z" class="g0_31"/>
<path d="M752,284.2h2.2V284H752v.2Z" class="g0_31"/>
<path fill-rule="evenodd" d="M752,284h2.2v-2.2H752V284Z" class="g0_31"/>
<path fill-rule="evenodd" d="M754.2,284h99.6v-2.2H754.2V284Z" class="g0_31"/>
<path fill-rule="evenodd" d="M167.6,320.3h2.2V284.2h-2.2v36.1Z" class="g0_31"/>
<path fill-rule="evenodd" d="M752,320.3h2.2V284.2H752v36.1Z" class="g0_31"/>
<path fill-rule="evenodd" d="M87.1,322.5h80.5v-2.2H87.1v2.2Z" class="g0_31"/>
<path fill-rule="evenodd" d="M167.6,322.7h2.2v-2.4h-2.2v2.4Z" class="g0_31"/>
<path fill-rule="evenodd" d="M169.8,322.5H752v-2.2H169.8v2.2Z" class="g0_31"/>
<path fill-rule="evenodd" d="M752,322.7h2.2v-2.4H752v2.4Z" class="g0_31"/>
<path fill-rule="evenodd" d="M754.2,322.5h99.6v-2.2H754.2v2.2Z" class="g0_31"/>
<path fill-rule="evenodd" d="M167.6,376h2.2V322.7h-2.2V376Z" class="g0_31"/>
<path fill-rule="evenodd" d="M752,376h2.2V322.7H752V376Z" class="g0_31"/>
<path fill-rule="evenodd" d="M87.1,378.2h80.5V376H87.1v2.2Z" class="g0_31"/>
<path fill-rule="evenodd" d="M167.6,378.4h2.2V376h-2.2v2.4Z" class="g0_31"/>
<path fill-rule="evenodd" d="M169.8,378.2H752V376H169.8v2.2Z" class="g0_31"/>
<path fill-rule="evenodd" d="M752,378.4h2.2V376H752v2.4Z" class="g0_31"/>
<path fill-rule="evenodd" d="M754.2,378.2h99.6V376H754.2v2.2Z" class="g0_31"/>
<path fill-rule="evenodd" d="M167.6,397.3h2.2V378.4h-2.2v18.9Z" class="g0_31"/>
<path fill-rule="evenodd" d="M752,397.3h2.2V378.4H752v18.9Z" class="g0_31"/>
<path fill-rule="evenodd" d="M87.1,399.5h80.5v-2.2H87.1v2.2Z" class="g0_31"/>
<path fill-rule="evenodd" d="M167.6,399.7h2.2v-2.4h-2.2v2.4Z" class="g0_31"/>
<path fill-rule="evenodd" d="M169.8,399.5H752v-2.2H169.8v2.2Z" class="g0_31"/>
<path fill-rule="evenodd" d="M752,399.7h2.2v-2.4H752v2.4Z" class="g0_31"/>
<path fill-rule="evenodd" d="M754.2,399.5h99.6v-2.2H754.2v2.2Z" class="g0_31"/>
<path fill-rule="evenodd" d="M167.6,434.1h2.2V399.7h-2.2v34.4Z" class="g0_31"/>
<path fill-rule="evenodd" d="M752,434.1h2.2V399.7H752v34.4Z" class="g0_31"/>
<path fill-rule="evenodd" d="M87.1,436.3h80.5v-2.2H87.1v2.2Z" class="g0_31"/>
<path fill-rule="evenodd" d="M167.6,436.3h2.2v-2.2h-2.2v2.2Z" class="g0_31"/>
<path fill-rule="evenodd" d="M169.8,436.3H752v-2.2H169.8v2.2Z" class="g0_31"/>
<path fill-rule="evenodd" d="M752,436.3h2.2v-2.2H752v2.2Z" class="g0_31"/>
<path fill-rule="evenodd" d="M754.2,436.3h99.6v-2.2H754.2v2.2Z" class="g0_31"/>
<path fill-rule="evenodd" d="M87.1,457.6h80.5v-2.2H87.1v2.2Z" class="g0_31"/>
<path d="M167.6,457.8h2.2v-.2h-2.2v.2Z" class="g0_31"/>
<path fill-rule="evenodd" d="M167.6,457.6h2.2v-2.2h-2.2v2.2Z" class="g0_31"/>
<path fill-rule="evenodd" d="M169.8,457.6H752v-2.2H169.8v2.2Z" class="g0_31"/>
<path d="M752,457.8h2.2v-.2H752v.2Z" class="g0_31"/>
<path fill-rule="evenodd" d="M752,457.6h2.2v-2.2H752v2.2Z" class="g0_31"/>
<path fill-rule="evenodd" d="M754.2,457.6h99.6v-2.2H754.2v2.2Z" class="g0_31"/>
<path fill-rule="evenodd" d="M167.6,508.2h2.2V457.8h-2.2v50.4Z" class="g0_31"/>
<path fill-rule="evenodd" d="M752,508.2h2.2V457.8H752v50.4Z" class="g0_31"/>
<path fill-rule="evenodd" d="M87.1,510.4h80.5v-2.2H87.1v2.2Z" class="g0_31"/>
<path fill-rule="evenodd" d="M167.6,510.6h2.2v-2.4h-2.2v2.4Z" class="g0_31"/>
<path fill-rule="evenodd" d="M169.8,510.4H752v-2.2H169.8v2.2Z" class="g0_31"/>
<path fill-rule="evenodd" d="M752,510.6h2.2v-2.4H752v2.4Z" class="g0_31"/>
<path fill-rule="evenodd" d="M754.2,510.4h99.6v-2.2H754.2v2.2Z" class="g0_31"/>
<path fill-rule="evenodd" d="M167.6,563.9h2.2V510.6h-2.2v53.3Z" class="g0_31"/>
<path fill-rule="evenodd" d="M752,563.9h2.2V510.6H752v53.3Z" class="g0_31"/>
<path fill-rule="evenodd" d="M87.1,566.1h80.5v-2.2H87.1v2.2Z" class="g0_31"/>
<path fill-rule="evenodd" d="M167.6,566.3h2.2v-2.4h-2.2v2.4Z" class="g0_31"/>
<path fill-rule="evenodd" d="M169.8,566.1H752v-2.2H169.8v2.2Z" class="g0_31"/>
<path fill-rule="evenodd" d="M752,566.3h2.2v-2.4H752v2.4Z" class="g0_31"/>
<path fill-rule="evenodd" d="M754.2,566.1h99.6v-2.2H754.2v2.2Z" class="g0_31"/>
<path fill-rule="evenodd" d="M167.6,602.4h2.2V566.3h-2.2v36.1Z" class="g0_31"/>
<path fill-rule="evenodd" d="M752,602.4h2.2V566.3H752v36.1Z" class="g0_31"/>
<path fill-rule="evenodd" d="M87.1,604.6h80.5v-2.2H87.1v2.2Z" class="g0_31"/>
<path fill-rule="evenodd" d="M167.6,604.8h2.2v-2.4h-2.2v2.4Z" class="g0_31"/>
<path fill-rule="evenodd" d="M169.8,604.6H752v-2.2H169.8v2.2Z" class="g0_31"/>
<path fill-rule="evenodd" d="M752,604.8h2.2v-2.4H752v2.4Z" class="g0_31"/>
<path fill-rule="evenodd" d="M754.2,604.6h99.6v-2.2H754.2v2.2Z" class="g0_31"/>
<path fill-rule="evenodd" d="M167.6,640.9h2.2V604.8h-2.2v36.1Z" class="g0_31"/>
<path fill-rule="evenodd" d="M752,640.9h2.2V604.8H752v36.1Z" class="g0_31"/>
<path fill-rule="evenodd" d="M87.1,643.1h80.5v-2.2H87.1v2.2Z" class="g0_31"/>
<path fill-rule="evenodd" d="M167.6,643.1h2.2v-2.2h-2.2v2.2Z" class="g0_31"/>
<path fill-rule="evenodd" d="M169.8,643.1H752v-2.2H169.8v2.2Z" class="g0_31"/>
<path fill-rule="evenodd" d="M752,643.1h2.2v-2.2H752v2.2Z" class="g0_31"/>
<path fill-rule="evenodd" d="M754.2,643.1h99.6v-2.2H754.2v2.2Z" class="g0_31"/>
<path fill-rule="evenodd" d="M87.1,664.2h80.5V662H87.1v2.2Z" class="g0_31"/>
<path d="M167.6,664.4h2.2v-.2h-2.2v.2Z" class="g0_31"/>
<path fill-rule="evenodd" d="M167.6,664.2h2.2V662h-2.2v2.2Z" class="g0_31"/>
<path fill-rule="evenodd" d="M169.8,664.2H752V662H169.8v2.2Z" class="g0_31"/>
<path d="M752,664.4h2.2v-.2H752v.2Z" class="g0_31"/>
<path fill-rule="evenodd" d="M752,664.2h2.2V662H752v2.2Z" class="g0_31"/>
<path fill-rule="evenodd" d="M754.2,664.2h99.6V662H754.2v2.2Z" class="g0_31"/>
<path fill-rule="evenodd" d="M167.6,683.3h2.2V664.4h-2.2v18.9Z" class="g0_31"/>
<path fill-rule="evenodd" d="M752,683.3h2.2V664.4H752v18.9Z" class="g0_31"/>
<path fill-rule="evenodd" d="M87.1,685.5h80.5v-2.2H87.1v2.2Z" class="g0_31"/>
<path fill-rule="evenodd" d="M167.6,685.7h2.2v-2.4h-2.2v2.4Z" class="g0_31"/>
<path fill-rule="evenodd" d="M169.8,685.5H752v-2.2H169.8v2.2Z" class="g0_31"/>
<path fill-rule="evenodd" d="M752,685.7h2.2v-2.4H752v2.4Z" class="g0_31"/>
<path fill-rule="evenodd" d="M754.2,685.5h99.6v-2.2H754.2v2.2Z" class="g0_31"/>
<path fill-rule="evenodd" d="M167.6,739h2.2V685.7h-2.2V739Z" class="g0_31"/>
<path fill-rule="evenodd" d="M752,739h2.2V685.7H752V739Z" class="g0_31"/>
<path fill-rule="evenodd" d="M87.1,741.2h80.5V739H87.1v2.2Z" class="g0_31"/>
<path fill-rule="evenodd" d="M167.6,741.4h2.2V739h-2.2v2.4Z" class="g0_31"/>
<path fill-rule="evenodd" d="M169.8,741.2H752V739H169.8v2.2Z" class="g0_31"/>
<path fill-rule="evenodd" d="M752,741.4h2.2V739H752v2.4Z" class="g0_31"/>
<path fill-rule="evenodd" d="M754.2,741.2h99.6V739H754.2v2.2Z" class="g0_31"/>
<path fill-rule="evenodd" d="M167.6,794.9h2.2V741.4h-2.2v53.5Z" class="g0_31"/>
<path fill-rule="evenodd" d="M752,794.9h2.2V741.4H752v53.5Z" class="g0_31"/>
<path fill-rule="evenodd" d="M87.1,797.1h80.5v-2.2H87.1v2.2Z" class="g0_31"/>
<path fill-rule="evenodd" d="M167.6,797.3h2.2v-2.4h-2.2v2.4Z" class="g0_31"/>
<path fill-rule="evenodd" d="M169.8,797.1H752v-2.2H169.8v2.2Z" class="g0_31"/>
<path fill-rule="evenodd" d="M752,797.3h2.2v-2.4H752v2.4Z" class="g0_31"/>
<path fill-rule="evenodd" d="M754.2,797.1h99.6v-2.2H754.2v2.2Z" class="g0_31"/>
<path fill-rule="evenodd" d="M167.6,850.9h2.2V797.3h-2.2v53.6Z" class="g0_31"/>
<path fill-rule="evenodd" d="M752,850.9h2.2V797.3H752v53.6Z" class="g0_31"/>
<path fill-rule="evenodd" d="M87.1,853.1h80.5v-2.2H87.1v2.2Z" class="g0_31"/>
<path fill-rule="evenodd" d="M167.6,853.2h2.2v-2.3h-2.2v2.3Z" class="g0_31"/>
<path fill-rule="evenodd" d="M169.8,853.1H752v-2.2H169.8v2.2Z" class="g0_31"/>
<path fill-rule="evenodd" d="M752,853.2h2.2v-2.3H752v2.3Z" class="g0_31"/>
<path fill-rule="evenodd" d="M754.2,853.1h99.6v-2.2H754.2v2.2Z" class="g0_31"/>
<path fill-rule="evenodd" d="M167.6,906.6h2.2V853.2h-2.2v53.4Z" class="g0_31"/>
<path fill-rule="evenodd" d="M752,906.6h2.2V853.2H752v53.4Z" class="g0_31"/>
<path fill-rule="evenodd" d="M87.1,908.8h80.5v-2.2H87.1v2.2Z" class="g0_31"/>
<path fill-rule="evenodd" d="M167.6,909h2.2v-2.4h-2.2V909Z" class="g0_31"/>
<path fill-rule="evenodd" d="M169.8,908.8H752v-2.2H169.8v2.2Z" class="g0_31"/>
<path fill-rule="evenodd" d="M752,909h2.2v-2.4H752V909Z" class="g0_31"/>
<path fill-rule="evenodd" d="M754.2,908.8h99.6v-2.2H754.2v2.2Z" class="g0_31"/>
<path fill-rule="evenodd" d="M167.6,962.5h2.2V909h-2.2v53.5Z" class="g0_31"/>
<path fill-rule="evenodd" d="M752,962.5h2.2V909H752v53.5Z" class="g0_31"/>
<path fill-rule="evenodd" d="M87.1,964.7h80.5v-2.2H87.1v2.2Z" class="g0_31"/>
<path fill-rule="evenodd" d="M167.6,964.9h2.2v-2.4h-2.2v2.4Z" class="g0_31"/>
<path fill-rule="evenodd" d="M169.8,964.7H752v-2.2H169.8v2.2Z" class="g0_31"/>
<path fill-rule="evenodd" d="M752,964.9h2.2v-2.4H752v2.4Z" class="g0_31"/>
<path fill-rule="evenodd" d="M754.2,964.7h99.6v-2.2H754.2v2.2Z" class="g0_31"/>
<path fill-rule="evenodd" d="M86,1020.6h81.6v-2.2H86v2.2Z" class="g0_31"/>
<path fill-rule="evenodd" d="M167.6,1018.4h2.2V964.9h-2.2v53.5Z" class="g0_31"/>
<path fill-rule="evenodd" d="M167.6,1020.6h2.2v-2.2h-2.2v2.2Z" class="g0_31"/>
<path fill-rule="evenodd" d="M169.8,1020.6H752v-2.2H169.8v2.2Z" class="g0_31"/>
<path fill-rule="evenodd" d="M752,1018.4h2.2V964.9H752v53.5Z" class="g0_31"/>
<path fill-rule="evenodd" d="M752,1020.6h2.2v-2.2H752v2.2Z" class="g0_31"/>
<path fill-rule="evenodd" d="M754.2,1020.6h99.6v-2.2H754.2v2.2Z" class="g0_31"/>
</svg>