<?xml version="1.0" encoding="UTF-8" standalone="no"?>
<!DOCTYPE svg PUBLIC "-//W3C//DTD SVG 1.1//EN"
"http://www.w3.org/Graphics/SVG/1.1/DTD/svg11.dtd">
<svg viewBox="0 0 1210 935" version="1.1" xmlns="http://www.w3.org/2000/svg" xmlns:xlink="http://www.w3.org/1999/xlink">
<defs>
<style type="text/css"><![CDATA[
.g0_20{
}
]]></style>
</defs>
<path d="M110,110.3v.7H780.6v-.7H110Z" class="g0_20"/>
<path d="M780.6,110.3H884.2v.7H780.6Z" class="g0_20"/>
<path d="M884.2,110.3v.7H1100v-.7H884.2Z" class="g0_20"/>
<path d="M110,190.5v.7H780.6v-.7H110Z" class="g0_20"/>
<path d="M780.6,190.5H884.2v.7H780.6Z" class="g0_20"/>
<path d="M884.2,190.5v.7H1100v-.7H884.2Z" class="g0_20"/>
<path d="M219,320.9v.8H780.6v-.8H219Z" class="g0_20"/>
<path d="M780.6,320.9H884.2v.8H780.6Z" class="g0_20"/>
<path d="M884.2,320.9v.8H1100v-.8H884.2Z" class="g0_20"/>
<path d="M219,434.6v.7H780.6v-.7H219Z" class="g0_20"/>
<path d="M780.6,434.6H884.2v.7H780.6Z" class="g0_20"/>
<path d="M884.2,434.6v.7H1100v-.7H884.2Z" class="g0_20"/>
<path d="M219,481.2v.7H780.6v-.7H219Z" class="g0_20"/>
<path d="M780.6,481.2H884.2v.7H780.6Z" class="g0_20"/>
<path d="M884.2,481.2v.7H1100v-.7H884.2Z" class="g0_20"/>
<path d="M219,594.8v.8H780.6v-.8H219Z" class="g0_20"/>
<path d="M780.6,594.8H884.2v.8H780.6Z" class="g0_20"/>
<path d="M884.2,594.8v.8H1100v-.8H884.2Z" class="g0_20"/>
<path d="M110,708.6v.7H780.6v-.7H110Z" class="g0_20"/>
<path d="M780.6,708.6H884.2v.7H780.6Z" class="g0_20"/>
<path d="M884.2,708.6v.7H1100v-.7H884.2Z" class="g0_20"/>
</svg>