<?xml version="1.0" encoding="UTF-8" standalone="no"?>
<!DOCTYPE svg PUBLIC "-//W3C//DTD SVG 1.1//EN"
"http://www.w3.org/Graphics/SVG/1.1/DTD/svg11.dtd">
<svg viewBox="0 0 935 1210" version="1.1" xmlns="http://www.w3.org/2000/svg" xmlns:xlink="http://www.w3.org/1999/xlink">
<defs>
<style type="text/css"><![CDATA[
.g0_36{
}
]]></style>
</defs>
<path d="M110,111.1h97.7v-.7H110v.7Z" class="g0_36"/>
<path d="M207.7,111.1h.8v-.7h-.8v.7Z" class="g0_36"/>
<path d="M208.5,111.1h45.4v-.7H208.5v.7Z" class="g0_36"/>
<path d="M253.9,111.1h.7v-.7h-.7v.7Z" class="g0_36"/>
<path d="M254.6,111.1H383.5v-.7H254.6v.7Z" class="g0_36"/>
<path d="M383.5,111.1h.8v-.7h-.8v.7Z" class="g0_36"/>
<path d="M384.3,111.1h97.9v-.7H384.3v.7Z" class="g0_36"/>
<path d="M482.2,111.1h.7v-.7h-.7v.7Z" class="g0_36"/>
<path d="M482.9,111.1H825v-.7H482.9v.7Z" class="g0_36"/>
<path d="M110,174.3h97.7v-.7H110v.7Z" class="g0_36"/>
<path d="M207.7,174.3h.8v-.7h-.8v.7Z" class="g0_36"/>
<path d="M208.5,174.3h45.4v-.7H208.5v.7Z" class="g0_36"/>
<path d="M253.9,174.3h.7v-.7h-.7v.7Z" class="g0_36"/>
<path d="M254.6,174.3H383.5v-.7H254.6v.7Z" class="g0_36"/>
<path d="M383.5,174.3h.8v-.7h-.8v.7Z" class="g0_36"/>
<path d="M384.3,174.3h97.9v-.7H384.3v.7Z" class="g0_36"/>
<path d="M482.2,174.3h.7v-.7h-.7v.7Z" class="g0_36"/>
<path d="M482.9,174.3H825v-.7H482.9v.7Z" class="g0_36"/>
<path d="M110,243.8h97.7v-.7H110v.7Z" class="g0_36"/>
<path d="M207.7,243.8h.8v-.7h-.8v.7Z" class="g0_36"/>
<path d="M208.5,243.8h45.4v-.7H208.5v.7Z" class="g0_36"/>
<path d="M253.9,243.8h.7v-.7h-.7v.7Z" class="g0_36"/>
<path d="M254.6,243.8H383.5v-.7H254.6v.7Z" class="g0_36"/>
<path d="M383.5,243.8h.8v-.7h-.8v.7Z" class="g0_36"/>
<path d="M384.3,243.8h97.9v-.7H384.3v.7Z" class="g0_36"/>
<path d="M482.2,243.8h.7v-.7h-.7v.7Z" class="g0_36"/>
<path d="M482.9,243.8H825v-.7H482.9v.7Z" class="g0_36"/>
<path d="M110,273.5h97.7v-.7H110v.7Z" class="g0_36"/>
<path d="M207.7,273.5h.8v-.7h-.8v.7Z" class="g0_36"/>
<path d="M208.5,273.5h45.4v-.7H208.5v.7Z" class="g0_36"/>
<path d="M253.9,273.5h.7v-.7h-.7v.7Z" class="g0_36"/>
<path d="M254.6,273.5H383.5v-.7H254.6v.7Z" class="g0_36"/>
<path d="M383.5,273.5h.8v-.7h-.8v.7Z" class="g0_36"/>
<path d="M384.3,273.5h97.9v-.7H384.3v.7Z" class="g0_36"/>
<path d="M482.2,273.5h.7v-.7h-.7v.7Z" class="g0_36"/>
<path d="M482.9,273.5H825v-.7H482.9v.7Z" class="g0_36"/>
<path d="M110,337h97.7v-.8H110v.8Z" class="g0_36"/>
<path d="M207.7,337h.8v-.8h-.8v.8Z" class="g0_36"/>
<path d="M208.5,337h45.4v-.8H208.5v.8Z" class="g0_36"/>
<path d="M253.9,337h.7v-.8h-.7v.8Z" class="g0_36"/>
<path d="M254.6,337H383.5v-.8H254.6v.8Z" class="g0_36"/>
<path d="M383.5,337h.8v-.8h-.8v.8Z" class="g0_36"/>
<path d="M384.3,337h97.9v-.8H384.3v.8Z" class="g0_36"/>
<path d="M482.2,337h.7v-.8h-.7v.8Z" class="g0_36"/>
<path d="M482.9,337H825v-.8H482.9v.8Z" class="g0_36"/>
<path d="M110,400.2h97.7v-.7H110v.7Z" class="g0_36"/>
<path d="M207.7,400.2h.8v-.7h-.8v.7Z" class="g0_36"/>
<path d="M208.5,400.2h45.4v-.7H208.5v.7Z" class="g0_36"/>
<path d="M253.9,400.2h.7v-.7h-.7v.7Z" class="g0_36"/>
<path d="M254.6,400.2H383.5v-.7H254.6v.7Z" class="g0_36"/>
<path d="M383.5,400.2h.8v-.7h-.8v.7Z" class="g0_36"/>
<path d="M384.3,400.2h97.9v-.7H384.3v.7Z" class="g0_36"/>
<path d="M482.2,400.2h.7v-.7h-.7v.7Z" class="g0_36"/>
<path d="M482.9,400.2H825v-.7H482.9v.7Z" class="g0_36"/>
<path d="M110,463.7h97.7v-.8H110v.8Z" class="g0_36"/>
<path d="M207.7,463.7h.8v-.8h-.8v.8Z" class="g0_36"/>
<path d="M208.5,463.7h45.4v-.8H208.5v.8Z" class="g0_36"/>
<path d="M253.9,463.7h.7v-.8h-.7v.8Z" class="g0_36"/>
<path d="M254.6,463.7H383.5v-.8H254.6v.8Z" class="g0_36"/>
<path d="M383.5,463.7h.8v-.8h-.8v.8Z" class="g0_36"/>
<path d="M384.3,463.7h97.9v-.8H384.3v.8Z" class="g0_36"/>
<path d="M482.2,463.7h.7v-.8h-.7v.8Z" class="g0_36"/>
<path d="M482.9,463.7H825v-.8H482.9v.8Z" class="g0_36"/>
<path d="M110,526.9h97.7v-.7H110v.7Z" class="g0_36"/>
<path d="M207.7,526.9h.8v-.7h-.8v.7Z" class="g0_36"/>
<path d="M208.5,526.9h45.4v-.7H208.5v.7Z" class="g0_36"/>
<path d="M253.9,526.9h.7v-.7h-.7v.7Z" class="g0_36"/>
<path d="M254.6,526.9H383.5v-.7H254.6v.7Z" class="g0_36"/>
<path d="M383.5,526.9h.8v-.7h-.8v.7Z" class="g0_36"/>
<path d="M384.3,526.9h97.9v-.7H384.3v.7Z" class="g0_36"/>
<path d="M482.2,526.9h.7v-.7h-.7v.7Z" class="g0_36"/>
<path d="M482.9,526.9H825v-.7H482.9v.7Z" class="g0_36"/>
<path d="M110,590.3h97.7v-.7H110v.7Z" class="g0_36"/>
<path d="M207.7,590.3h.8v-.7h-.8v.7Z" class="g0_36"/>
<path d="M208.5,590.3h45.4v-.7H208.5v.7Z" class="g0_36"/>
<path d="M253.9,590.3h.7v-.7h-.7v.7Z" class="g0_36"/>
<path d="M254.6,590.3H383.5v-.7H254.6v.7Z" class="g0_36"/>
<path d="M383.5,590.3h.8v-.7h-.8v.7Z" class="g0_36"/>
<path d="M384.3,590.3h97.9v-.7H384.3v.7Z" class="g0_36"/>
<path d="M482.2,590.3h.7v-.7h-.7v.7Z" class="g0_36"/>
<path d="M482.9,590.3H825v-.7H482.9v.7Z" class="g0_36"/>
<path d="M110,620h97.7v-.7H110v.7Z" class="g0_36"/>
<path d="M207.7,620h.8v-.7h-.8v.7Z" class="g0_36"/>
<path d="M208.5,620h45.4v-.7H208.5v.7Z" class="g0_36"/>
<path d="M253.9,620h.7v-.7h-.7v.7Z" class="g0_36"/>
<path d="M254.6,620H383.5v-.7H254.6v.7Z" class="g0_36"/>
<path d="M383.5,620h.8v-.7h-.8v.7Z" class="g0_36"/>
<path d="M384.3,620h97.9v-.7H384.3v.7Z" class="g0_36"/>
<path d="M482.2,620h.7v-.7h-.7v.7Z" class="g0_36"/>
<path d="M482.9,620H825v-.7H482.9v.7Z" class="g0_36"/>
<path d="M110,689.5h97.7v-.7H110v.7Z" class="g0_36"/>
<path d="M207.7,689.5h.8v-.7h-.8v.7Z" class="g0_36"/>
<path d="M208.5,689.5h45.4v-.7H208.5v.7Z" class="g0_36"/>
<path d="M253.9,689.5h.7v-.7h-.7v.7Z" class="g0_36"/>
<path d="M254.6,689.5H383.5v-.7H254.6v.7Z" class="g0_36"/>
<path d="M383.5,689.5h.8v-.7h-.8v.7Z" class="g0_36"/>
<path d="M384.3,689.5h97.9v-.7H384.3v.7Z" class="g0_36"/>
<path d="M482.2,689.5h.7v-.7h-.7v.7Z" class="g0_36"/>
<path d="M482.9,689.5H825v-.7H482.9v.7Z" class="g0_36"/>
<path d="M110,753h97.7v-.8H110v.8Z" class="g0_36"/>
<path d="M207.7,753h.8v-.8h-.8v.8Z" class="g0_36"/>
<path d="M208.5,753h45.4v-.8H208.5v.8Z" class="g0_36"/>
<path d="M253.9,753h.7v-.8h-.7v.8Z" class="g0_36"/>
<path d="M254.6,753H383.5v-.8H254.6v.8Z" class="g0_36"/>
<path d="M383.5,753h.8v-.8h-.8v.8Z" class="g0_36"/>
<path d="M384.3,753h97.9v-.8H384.3v.8Z" class="g0_36"/>
<path d="M482.2,753h.7v-.8h-.7v.8Z" class="g0_36"/>
<path d="M482.9,753H825v-.8H482.9v.8Z" class="g0_36"/>
</svg>