<?xml version="1.0" encoding="UTF-8" standalone="no"?>
<!DOCTYPE svg PUBLIC "-//W3C//DTD SVG 1.1//EN"
"http://www.w3.org/Graphics/SVG/1.1/DTD/svg11.dtd">
<svg viewBox="0 0 935 1210" version="1.1" xmlns="http://www.w3.org/2000/svg" xmlns:xlink="http://www.w3.org/1999/xlink">
<defs>
<style type="text/css"><![CDATA[
.g0_32{
}
]]></style>
</defs>
<path d="M110,111.1h75.7v-.7H110v.7Z" class="g0_32"/>
<path d="M185.7,111.1h.8v-.7h-.8v.7Z" class="g0_32"/>
<path d="M186.5,111.1h74.8v-.7H186.5v.7Z" class="g0_32"/>
<path d="M261.3,111.1h.7v-.7h-.7v.7Z" class="g0_32"/>
<path d="M262,111.1h95.5v-.7H262v.7Z" class="g0_32"/>
<path d="M357.5,111.1h.7v-.7h-.7v.7Z" class="g0_32"/>
<path d="M358.2,111.1H825v-.7H358.2v.7Z" class="g0_32"/>
<path d="M365.7,162.4h53.2v-.9H365.7v.9Z" class="g0_32"/>
<path d="M365.7,258.5h61.5v-.9H365.7v.9Z" class="g0_32"/>
<path d="M365.7,371.4H610.3v-.9H365.7v.9Z" class="g0_32"/>
<path d="M110,140.8h75.7v-.7H110v.7Z" class="g0_32"/>
<path d="M185.7,140.8h.8v-.7h-.8v.7Z" class="g0_32"/>
<path d="M186.5,140.8h74.8v-.7H186.5v.7Z" class="g0_32"/>
<path d="M261.3,140.8h.7v-.7h-.7v.7Z" class="g0_32"/>
<path d="M262,140.8h95.5v-.7H262v.7Z" class="g0_32"/>
<path d="M357.5,140.8h.7v-.7h-.7v.7Z" class="g0_32"/>
<path d="M358.2,140.8H825v-.7H358.2v.7Z" class="g0_32"/>
<path d="M110,626.8h75.7v-.7H110v.7Z" class="g0_32"/>
<path d="M185.7,626.8h.8v-.7h-.8v.7Z" class="g0_32"/>
<path d="M186.5,626.8h74.8v-.7H186.5v.7Z" class="g0_32"/>
<path d="M261.3,626.8h.7v-.7h-.7v.7Z" class="g0_32"/>
<path d="M262,626.8h95.5v-.7H262v.7Z" class="g0_32"/>
<path d="M357.5,626.8h.7v-.7h-.7v.7Z" class="g0_32"/>
<path d="M358.2,626.8H825v-.7H358.2v.7Z" class="g0_32"/>
<path d="M365.7,801.7H520.3v-.9H365.7v.9Z" class="g0_32"/>
<path d="M110,706.9h75.7v-.7H110v.7Z" class="g0_32"/>
<path d="M185.7,706.9h.8v-.7h-.8v.7Z" class="g0_32"/>
<path d="M186.5,706.9h74.8v-.7H186.5v.7Z" class="g0_32"/>
<path d="M261.3,706.9h.7v-.7h-.7v.7Z" class="g0_32"/>
<path d="M262,706.9h95.5v-.7H262v.7Z" class="g0_32"/>
<path d="M357.5,706.9h.7v-.7h-.7v.7Z" class="g0_32"/>
<path d="M358.2,706.9H825v-.7H358.2v.7Z" class="g0_32"/>
<path d="M108.9,973.3h76.8v-.7H108.9v.7Z" class="g0_32"/>
<path d="M184.6,973.3h.8v-.7h-.8v.7Z" class="g0_32"/>
<path d="M185.4,973.3h75.9v-.7H185.4v.7Z" class="g0_32"/>
<path d="M260.2,973.3h.7v-.7h-.7v.7Z" class="g0_32"/>
<path d="M260.9,973.3h96.6v-.7H260.9v.7Z" class="g0_32"/>
<path d="M356.4,973.3h.7v-.7h-.7v.7Z" class="g0_32"/>
<path d="M357.1,973.3H825v-.7H357.1v.7Z" class="g0_32"/>
</svg>