<?xml version="1.0" encoding="UTF-8" standalone="no"?>
<!DOCTYPE svg PUBLIC "-//W3C//DTD SVG 1.1//EN"
"http://www.w3.org/Graphics/SVG/1.1/DTD/svg11.dtd">
<svg viewBox="0 0 1210 935" version="1.1" xmlns="http://www.w3.org/2000/svg" xmlns:xlink="http://www.w3.org/1999/xlink">
<defs>
<style type="text/css"><![CDATA[
.g0_55{
fill: #00755C;
}
]]></style>
</defs>
<path d="M86.9,66.4h172V64.9H86.9v1.5Z" class="g0_55"/>
<path d="M258.9,66.4h1.4V64.9h-1.4v1.5Z" class="g0_55"/>
<path d="M260.3,66.4h862.8V64.9H260.3v1.5Z" class="g0_55"/>
<path d="M85.8,119.9H258.9v-1.5H85.8v1.5Z" class="g0_55"/>
<path d="M257.8,119.9h1.4v-1.5h-1.4v1.5Z" class="g0_55"/>
<path d="M259.2,119.9h863.9v-1.5H259.2v1.5Z" class="g0_55"/>
<path d="M84.7,838.2H558.2v-.7H84.7v.7Z" class="g0_55"/>
<path d="M558.2,838.2h.8v-.7h-.8v.7Z" class="g0_55"/>
<path d="M559,838.2h90.7v-.7H559v.7Z" class="g0_55"/>
<path d="M649.7,838.2h.8v-.7h-.8v.7Z" class="g0_55"/>
<path d="M650.5,838.2h472.6v-.7H650.5v.7Z" class="g0_55"/>
<image preserveAspectRatio="none" x="87" y="67" width="172" height="51" xlink:href="img/1.png"/>
<image preserveAspectRatio="none" x="1018" y="849" width="105" height="41" xlink:href="img/2.png"/>
<path fill-rule="evenodd" d="M86.9,192.3H292.1v-2.2H86.9v2.2Z" class="g0_55"/>
<path d="M292.1,192.5h2.2v-.2h-2.2v.2Z" class="g0_55"/>
<path fill-rule="evenodd" d="M292.1,192.3h2.2v-2.2h-2.2v2.2Z" class="g0_55"/>
<path fill-rule="evenodd" d="M294.3,192.3H509.1v-2.2H294.3v2.2Z" class="g0_55"/>
<path d="M509.1,192.5h2.2v-.2h-2.2v.2Z" class="g0_55"/>
<path fill-rule="evenodd" d="M509.1,192.3h2.2v-2.2h-2.2v2.2Z" class="g0_55"/>
<path fill-rule="evenodd" d="M511.3,192.3H730.2v-2.2H511.3v2.2Z" class="g0_55"/>
<path d="M730.2,192.5h2.2v-.2h-2.2v.2Z" class="g0_55"/>
<path fill-rule="evenodd" d="M730.2,192.3h2.2v-2.2h-2.2v2.2Z" class="g0_55"/>
<path fill-rule="evenodd" d="M732.4,192.3h396.2v-2.2H732.4v2.2Z" class="g0_55"/>
<path fill-rule="evenodd" d="M292.1,211.4h2.2V192.5h-2.2v18.9Z" class="g0_55"/>
<path fill-rule="evenodd" d="M509.1,211.4h2.2V192.5h-2.2v18.9Z" class="g0_55"/>
<path fill-rule="evenodd" d="M730.2,211.4h2.2V192.5h-2.2v18.9Z" class="g0_55"/>
<path fill-rule="evenodd" d="M86.9,213.6H201.3v-2.2H86.9v2.2Z" class="g0_55"/>
<path d="M201.3,213.8h2.2v-.2h-2.2v.2Z" class="g0_55"/>
<path fill-rule="evenodd" d="M201.3,213.6h2.2v-2.2h-2.2v2.2Z" class="g0_55"/>
<path fill-rule="evenodd" d="M203.5,213.6h88.6v-2.2H203.5v2.2Z" class="g0_55"/>
<path fill-rule="evenodd" d="M292.1,213.8h2.2v-2.4h-2.2v2.4Z" class="g0_55"/>
<path fill-rule="evenodd" d="M294.3,213.6H509.1v-2.2H294.3v2.2Z" class="g0_55"/>
<path fill-rule="evenodd" d="M509.1,213.8h2.2v-2.4h-2.2v2.4Z" class="g0_55"/>
<path fill-rule="evenodd" d="M511.3,213.6H730.2v-2.2H511.3v2.2Z" class="g0_55"/>
<path fill-rule="evenodd" d="M730.2,213.8h2.2v-2.4h-2.2v2.4Z" class="g0_55"/>
<path fill-rule="evenodd" d="M732.4,213.6h396.2v-2.2H732.4v2.2Z" class="g0_55"/>
<path fill-rule="evenodd" d="M201.3,251.9h2.2V213.8h-2.2v38.1Z" class="g0_55"/>
<path fill-rule="evenodd" d="M292.1,251.9h2.2V213.8h-2.2v38.1Z" class="g0_55"/>
<path fill-rule="evenodd" d="M509.1,251.9h2.2V213.8h-2.2v38.1Z" class="g0_55"/>
<path fill-rule="evenodd" d="M730.2,251.9h2.2V213.8h-2.2v38.1Z" class="g0_55"/>
<path fill-rule="evenodd" d="M201.3,254.3h2.2v-2.4h-2.2v2.4Z" class="g0_55"/>
<path fill-rule="evenodd" d="M292.1,254.3h2.2v-2.4h-2.2v2.4Z" class="g0_55"/>
<path fill-rule="evenodd" d="M294.3,254.1H509.1v-2.2H294.3v2.2Z" class="g0_55"/>
<path fill-rule="evenodd" d="M509.1,254.3h2.2v-2.4h-2.2v2.4Z" class="g0_55"/>
<path fill-rule="evenodd" d="M511.3,254.1H730.2v-2.2H511.3v2.2Z" class="g0_55"/>
<path fill-rule="evenodd" d="M730.2,254.3h2.2v-2.4h-2.2v2.4Z" class="g0_55"/>
<path fill-rule="evenodd" d="M732.4,254.1h396.2v-2.2H732.4v2.2Z" class="g0_55"/>
<path fill-rule="evenodd" d="M201.3,292.4h2.2V254.3h-2.2v38.1Z" class="g0_55"/>
<path fill-rule="evenodd" d="M292.1,292.4h2.2V254.3h-2.2v38.1Z" class="g0_55"/>
<path fill-rule="evenodd" d="M509.1,292.4h2.2V254.3h-2.2v38.1Z" class="g0_55"/>
<path fill-rule="evenodd" d="M730.2,292.4h2.2V254.3h-2.2v38.1Z" class="g0_55"/>
<path fill-rule="evenodd" d="M201.3,294.8h2.2v-2.4h-2.2v2.4Z" class="g0_55"/>
<path fill-rule="evenodd" d="M292.1,294.8h2.2v-2.4h-2.2v2.4Z" class="g0_55"/>
<path fill-rule="evenodd" d="M294.3,294.6H509.1v-2.2H294.3v2.2Z" class="g0_55"/>
<path fill-rule="evenodd" d="M509.1,294.8h2.2v-2.4h-2.2v2.4Z" class="g0_55"/>
<path fill-rule="evenodd" d="M511.3,294.6H730.2v-2.2H511.3v2.2Z" class="g0_55"/>
<path fill-rule="evenodd" d="M730.2,294.8h2.2v-2.4h-2.2v2.4Z" class="g0_55"/>
<path fill-rule="evenodd" d="M732.4,294.6h396.2v-2.2H732.4v2.2Z" class="g0_55"/>
<path fill-rule="evenodd" d="M201.3,332.9h2.2V294.8h-2.2v38.1Z" class="g0_55"/>
<path fill-rule="evenodd" d="M292.1,332.9h2.2V294.8h-2.2v38.1Z" class="g0_55"/>
<path fill-rule="evenodd" d="M509.1,332.9h2.2V294.8h-2.2v38.1Z" class="g0_55"/>
<path fill-rule="evenodd" d="M730.2,332.9h2.2V294.8h-2.2v38.1Z" class="g0_55"/>
<path fill-rule="evenodd" d="M86.9,335.1H201.3v-2.2H86.9v2.2Z" class="g0_55"/>
<path fill-rule="evenodd" d="M201.3,335.1h2.2v-2.2h-2.2v2.2Z" class="g0_55"/>
<path fill-rule="evenodd" d="M203.5,335.1h88.6v-2.2H203.5v2.2Z" class="g0_55"/>
<path fill-rule="evenodd" d="M292.1,335.3h2.2v-2.4h-2.2v2.4Z" class="g0_55"/>
<path fill-rule="evenodd" d="M294.3,335.1H509.1v-2.2H294.3v2.2Z" class="g0_55"/>
<path fill-rule="evenodd" d="M509.1,335.3h2.2v-2.4h-2.2v2.4Z" class="g0_55"/>
<path fill-rule="evenodd" d="M511.3,335.1H730.2v-2.2H511.3v2.2Z" class="g0_55"/>
<path fill-rule="evenodd" d="M730.2,335.3h2.2v-2.4h-2.2v2.4Z" class="g0_55"/>
<path fill-rule="evenodd" d="M732.4,335.1h396.2v-2.2H732.4v2.2Z" class="g0_55"/>
<path fill-rule="evenodd" d="M292.1,373.6h2.2V335.3h-2.2v38.3Z" class="g0_55"/>
<path fill-rule="evenodd" d="M509.1,373.6h2.2V335.3h-2.2v38.3Z" class="g0_55"/>
<path fill-rule="evenodd" d="M730.2,373.6h2.2V335.3h-2.2v38.3Z" class="g0_55"/>
<path fill-rule="evenodd" d="M292.1,376h2.2v-2.4h-2.2V376Z" class="g0_55"/>
<path fill-rule="evenodd" d="M294.3,375.8H509.1v-2.2H294.3v2.2Z" class="g0_55"/>
<path fill-rule="evenodd" d="M509.1,376h2.2v-2.4h-2.2V376Z" class="g0_55"/>
<path fill-rule="evenodd" d="M511.3,375.8H730.2v-2.2H511.3v2.2Z" class="g0_55"/>
<path fill-rule="evenodd" d="M730.2,376h2.2v-2.4h-2.2V376Z" class="g0_55"/>
<path fill-rule="evenodd" d="M732.4,375.8h396.2v-2.2H732.4v2.2Z" class="g0_55"/>
<path fill-rule="evenodd" d="M292.1,414.1h2.2V376h-2.2v38.1Z" class="g0_55"/>
<path fill-rule="evenodd" d="M509.1,414.1h2.2V376h-2.2v38.1Z" class="g0_55"/>
<path fill-rule="evenodd" d="M730.2,414.1h2.2V376h-2.2v38.1Z" class="g0_55"/>
<path fill-rule="evenodd" d="M292.1,416.5h2.2v-2.3h-2.2v2.3Z" class="g0_55"/>
<path fill-rule="evenodd" d="M294.3,416.3H509.1v-2.2H294.3v2.2Z" class="g0_55"/>
<path fill-rule="evenodd" d="M509.1,416.5h2.2v-2.3h-2.2v2.3Z" class="g0_55"/>
<path fill-rule="evenodd" d="M511.3,416.3H730.2v-2.2H511.3v2.2Z" class="g0_55"/>
<path fill-rule="evenodd" d="M730.2,416.5h2.2v-2.3h-2.2v2.3Z" class="g0_55"/>
<path fill-rule="evenodd" d="M732.4,416.3h396.2v-2.2H732.4v2.2Z" class="g0_55"/>
<path fill-rule="evenodd" d="M292.1,454.7h2.2V416.5h-2.2v38.2Z" class="g0_55"/>
<path fill-rule="evenodd" d="M509.1,454.7h2.2V416.5h-2.2v38.2Z" class="g0_55"/>
<path fill-rule="evenodd" d="M730.2,454.7h2.2V416.5h-2.2v38.2Z" class="g0_55"/>
<path fill-rule="evenodd" d="M292.1,457.1h2.2v-2.4h-2.2v2.4Z" class="g0_55"/>
<path fill-rule="evenodd" d="M294.3,456.9H509.1v-2.2H294.3v2.2Z" class="g0_55"/>
<path fill-rule="evenodd" d="M509.1,457.1h2.2v-2.4h-2.2v2.4Z" class="g0_55"/>
<path fill-rule="evenodd" d="M511.3,456.9H730.2v-2.2H511.3v2.2Z" class="g0_55"/>
<path fill-rule="evenodd" d="M730.2,457.1h2.2v-2.4h-2.2v2.4Z" class="g0_55"/>
<path fill-rule="evenodd" d="M732.4,456.9h396.2v-2.2H732.4v2.2Z" class="g0_55"/>
<path fill-rule="evenodd" d="M292.1,511h2.2V457.1h-2.2V511Z" class="g0_55"/>
<path fill-rule="evenodd" d="M509.1,511h2.2V457.1h-2.2V511Z" class="g0_55"/>
<path fill-rule="evenodd" d="M730.2,511h2.2V457.1h-2.2V511Z" class="g0_55"/>
<path fill-rule="evenodd" d="M292.1,513.3h2.2V511h-2.2v2.3Z" class="g0_55"/>
<path fill-rule="evenodd" d="M294.3,513.2H509.1V511H294.3v2.2Z" class="g0_55"/>
<path fill-rule="evenodd" d="M509.1,513.3h2.2V511h-2.2v2.3Z" class="g0_55"/>
<path fill-rule="evenodd" d="M511.3,513.2H730.2V511H511.3v2.2Z" class="g0_55"/>
<path fill-rule="evenodd" d="M730.2,513.3h2.2V511h-2.2v2.3Z" class="g0_55"/>
<path fill-rule="evenodd" d="M732.4,513.2h396.2V511H732.4v2.2Z" class="g0_55"/>
<path fill-rule="evenodd" d="M292.1,563.8h2.2V513.3h-2.2v50.5Z" class="g0_55"/>
<path fill-rule="evenodd" d="M509.1,563.8h2.2V513.3h-2.2v50.5Z" class="g0_55"/>
<path fill-rule="evenodd" d="M730.2,563.8h2.2V513.3h-2.2v50.5Z" class="g0_55"/>
<path fill-rule="evenodd" d="M86.9,566H292.1v-2.2H86.9V566Z" class="g0_55"/>
<path fill-rule="evenodd" d="M292.1,566.1h2.2v-2.3h-2.2v2.3Z" class="g0_55"/>
<path fill-rule="evenodd" d="M294.3,566H509.1v-2.2H294.3V566Z" class="g0_55"/>
<path fill-rule="evenodd" d="M509.1,566.1h2.2v-2.3h-2.2v2.3Z" class="g0_55"/>
<path fill-rule="evenodd" d="M511.3,566H730.2v-2.2H511.3V566Z" class="g0_55"/>
<path fill-rule="evenodd" d="M730.2,566.1h2.2v-2.3h-2.2v2.3Z" class="g0_55"/>
<path fill-rule="evenodd" d="M732.4,566h396.2v-2.2H732.4V566Z" class="g0_55"/>
<path fill-rule="evenodd" d="M292.1,604.5h2.2V566.1h-2.2v38.4Z" class="g0_55"/>
<path fill-rule="evenodd" d="M509.1,604.5h2.2V566.1h-2.2v38.4Z" class="g0_55"/>
<path fill-rule="evenodd" d="M730.2,604.5h2.2V566.1h-2.2v38.4Z" class="g0_55"/>
<path fill-rule="evenodd" d="M292.1,606.8h2.2v-2.3h-2.2v2.3Z" class="g0_55"/>
<path fill-rule="evenodd" d="M294.3,606.7H509.1v-2.2H294.3v2.2Z" class="g0_55"/>
<path fill-rule="evenodd" d="M509.1,606.8h2.2v-2.3h-2.2v2.3Z" class="g0_55"/>
<path fill-rule="evenodd" d="M511.3,606.7H730.2v-2.2H511.3v2.2Z" class="g0_55"/>
<path fill-rule="evenodd" d="M730.2,606.8h2.2v-2.3h-2.2v2.3Z" class="g0_55"/>
<path fill-rule="evenodd" d="M732.4,606.7h396.2v-2.2H732.4v2.2Z" class="g0_55"/>
<path fill-rule="evenodd" d="M86.9,647.2H292.1V645H86.9v2.2Z" class="g0_55"/>
<path fill-rule="evenodd" d="M292.1,645h2.2V606.8h-2.2V645Z" class="g0_55"/>
<path fill-rule="evenodd" d="M292.1,647.2h2.2V645h-2.2v2.2Z" class="g0_55"/>
<path fill-rule="evenodd" d="M294.3,647.2H509.1V645H294.3v2.2Z" class="g0_55"/>
<path fill-rule="evenodd" d="M509.1,645h2.2V606.8h-2.2V645Z" class="g0_55"/>
<path fill-rule="evenodd" d="M509.1,647.2h2.2V645h-2.2v2.2Z" class="g0_55"/>
<path fill-rule="evenodd" d="M511.3,647.2H730.2V645H511.3v2.2Z" class="g0_55"/>
<path fill-rule="evenodd" d="M730.2,645h2.2V606.8h-2.2V645Z" class="g0_55"/>
<path fill-rule="evenodd" d="M730.2,647.2h2.2V645h-2.2v2.2Z" class="g0_55"/>
<path fill-rule="evenodd" d="M732.4,647.2h396.2V645H732.4v2.2Z" class="g0_55"/>
</svg>