<?xml version="1.0" encoding="UTF-8" standalone="no"?>
<!DOCTYPE svg PUBLIC "-//W3C//DTD SVG 1.1//EN"
"http://www.w3.org/Graphics/SVG/1.1/DTD/svg11.dtd">
<svg viewBox="0 0 935 1210" version="1.1" xmlns="http://www.w3.org/2000/svg" xmlns:xlink="http://www.w3.org/1999/xlink">
<defs>
<style type="text/css"><![CDATA[
.g0_43{
}
]]></style>
</defs>
<path d="M110,129.6H303.1v-.7H110v.7Z" class="g0_43"/>
<path d="M303.1,129.6h.7v-.7h-.7v.7Z" class="g0_43"/>
<path d="M303.8,129.6H530.4v-.7H303.8v.7Z" class="g0_43"/>
<path d="M530.4,129.6h.7v-.7h-.7v.7Z" class="g0_43"/>
<path d="M531.1,129.6H825v-.7H531.1v.7Z" class="g0_43"/>
<path d="M110,176.2H303.1v-.7H110v.7Z" class="g0_43"/>
<path d="M303.1,176.2h.7v-.7h-.7v.7Z" class="g0_43"/>
<path d="M303.8,176.2H530.4v-.7H303.8v.7Z" class="g0_43"/>
<path d="M530.4,176.2h.7v-.7h-.7v.7Z" class="g0_43"/>
<path d="M531.1,176.2H825v-.7H531.1v.7Z" class="g0_43"/>
<path d="M110,323.6H303.1v-.7H110v.7Z" class="g0_43"/>
<path d="M303.1,323.6h.7v-.7h-.7v.7Z" class="g0_43"/>
<path d="M303.8,323.6H530.4v-.7H303.8v.7Z" class="g0_43"/>
<path d="M530.4,323.6h.7v-.7h-.7v.7Z" class="g0_43"/>
<path d="M531.1,323.6H825v-.7H531.1v.7Z" class="g0_43"/>
<path d="M110,386.8H303.1v-.7H110v.7Z" class="g0_43"/>
<path d="M303.1,386.8h.7v-.7h-.7v.7Z" class="g0_43"/>
<path d="M303.8,386.8H530.4v-.7H303.8v.7Z" class="g0_43"/>
<path d="M530.4,386.8h.7v-.7h-.7v.7Z" class="g0_43"/>
<path d="M531.1,386.8H825v-.7H531.1v.7Z" class="g0_43"/>
<path d="M110,584.5H303.1v-.8H110v.8Z" class="g0_43"/>
<path d="M303.1,584.5h.7v-.8h-.7v.8Z" class="g0_43"/>
<path d="M303.8,584.5H530.4v-.8H303.8v.8Z" class="g0_43"/>
<path d="M530.4,584.5h.7v-.8h-.7v.8Z" class="g0_43"/>
<path d="M531.1,584.5H825v-.8H531.1v.8Z" class="g0_43"/>
<path d="M108.9,832.5H303.1v-.7H108.9v.7Z" class="g0_43"/>
<path d="M302,832.5h.7v-.7H302v.7Z" class="g0_43"/>
<path d="M302.7,832.5H530.4v-.7H302.7v.7Z" class="g0_43"/>
<path d="M529.3,832.5h.7v-.7h-.7v.7Z" class="g0_43"/>
<path d="M530,832.5H825v-.7H530v.7Z" class="g0_43"/>
</svg>