<?xml version="1.0" encoding="UTF-8" standalone="no"?>
<!DOCTYPE svg PUBLIC "-//W3C//DTD SVG 1.1//EN"
"http://www.w3.org/Graphics/SVG/1.1/DTD/svg11.dtd">
<svg viewBox="0 0 935 1210" version="1.1" xmlns="http://www.w3.org/2000/svg" xmlns:xlink="http://www.w3.org/1999/xlink">
<defs>
<style type="text/css"><![CDATA[
.g0_42{
}
]]></style>
</defs>
<path d="M110,129.6H303.1v-.7H110v.7Z" class="g0_42"/>
<path d="M303.1,129.6h.7v-.7h-.7v.7Z" class="g0_42"/>
<path d="M303.8,129.6H530.4v-.7H303.8v.7Z" class="g0_42"/>
<path d="M530.4,129.6h.7v-.7h-.7v.7Z" class="g0_42"/>
<path d="M531.1,129.6H825v-.7H531.1v.7Z" class="g0_42"/>
<path d="M110,176.2H303.1v-.7H110v.7Z" class="g0_42"/>
<path d="M303.1,176.2h.7v-.7h-.7v.7Z" class="g0_42"/>
<path d="M303.8,176.2H530.4v-.7H303.8v.7Z" class="g0_42"/>
<path d="M530.4,176.2h.7v-.7h-.7v.7Z" class="g0_42"/>
<path d="M531.1,176.2H825v-.7H531.1v.7Z" class="g0_42"/>
<path d="M110,206.1H303.1v-.8H110v.8Z" class="g0_42"/>
<path d="M303.1,206.1h.7v-.8h-.7v.8Z" class="g0_42"/>
<path d="M303.8,206.1H530.4v-.8H303.8v.8Z" class="g0_42"/>
<path d="M530.4,206.1h.7v-.8h-.7v.8Z" class="g0_42"/>
<path d="M531.1,206.1H825v-.8H531.1v.8Z" class="g0_42"/>
<path d="M110,695H303.1v-.7H110v.7Z" class="g0_42"/>
<path d="M303.1,695h.7v-.7h-.7v.7Z" class="g0_42"/>
<path d="M303.8,695H530.4v-.7H303.8v.7Z" class="g0_42"/>
<path d="M530.4,695h.7v-.7h-.7v.7Z" class="g0_42"/>
<path d="M531.1,695H825v-.7H531.1v.7Z" class="g0_42"/>
<path d="M110,859.1H303.1v-.7H110v.7Z" class="g0_42"/>
<path d="M303.1,859.1h.7v-.7h-.7v.7Z" class="g0_42"/>
<path d="M303.8,859.1H530.4v-.7H303.8v.7Z" class="g0_42"/>
<path d="M530.4,859.1h.7v-.7h-.7v.7Z" class="g0_42"/>
<path d="M531.1,859.1H825v-.7H531.1v.7Z" class="g0_42"/>
<path d="M110,889H303.1v-.7H110v.7Z" class="g0_42"/>
<path d="M303.1,889h.7v-.7h-.7v.7Z" class="g0_42"/>
<path d="M303.8,889H530.4v-.7H303.8v.7Z" class="g0_42"/>
<path d="M530.4,889h.7v-.7h-.7v.7Z" class="g0_42"/>
<path d="M531.1,889H825v-.7H531.1v.7Z" class="g0_42"/>
<path d="M108.9,1086.6H303.1v-.7H108.9v.7Z" class="g0_42"/>
<path d="M302,1086.6h.7v-.7H302v.7Z" class="g0_42"/>
<path d="M302.7,1086.6H530.4v-.7H302.7v.7Z" class="g0_42"/>
<path d="M529.3,1086.6h.7v-.7h-.7v.7Z" class="g0_42"/>
<path d="M530,1086.6H825v-.7H530v.7Z" class="g0_42"/>
</svg>