<?xml version="1.0" encoding="UTF-8" standalone="no"?>
<!DOCTYPE svg PUBLIC "-//W3C//DTD SVG 1.1//EN"
"http://www.w3.org/Graphics/SVG/1.1/DTD/svg11.dtd">
<svg viewBox="0 0 935 1210" version="1.1" xmlns="http://www.w3.org/2000/svg" xmlns:xlink="http://www.w3.org/1999/xlink">
<defs>
<style type="text/css"><![CDATA[
.g0_29{
fill: #00755C;
}
]]></style>
</defs>
<path d="M86.9,66.4H263.6V64.9H86.9v1.5Z" class="g0_29"/>
<path d="M263.6,66.4h1.5V64.9h-1.5v1.5Z" class="g0_29"/>
<path d="M265.1,66.4H849.2V64.9H265.1v1.5Z" class="g0_29"/>
<path d="M85.8,119.9H263.6v-1.5H85.8v1.5Z" class="g0_29"/>
<path d="M262.5,119.9H264v-1.5h-1.5v1.5Z" class="g0_29"/>
<path d="M264,119.9H849.2v-1.5H264v1.5Z" class="g0_29"/>
<path d="M84.7,1113.4H432.3v-.7H84.7v.7Z" class="g0_29"/>
<path d="M432.3,1113.4h.7v-.7h-.7v.7Z" class="g0_29"/>
<path d="M433,1113.4h66.6v-.7H433v.7Z" class="g0_29"/>
<path d="M499.6,1113.4h.7v-.7h-.7v.7Z" class="g0_29"/>
<path d="M500.3,1113.4H847v-.7H500.3v.7Z" class="g0_29"/>
<image preserveAspectRatio="none" x="89" y="67" width="172" height="51" xlink:href="img/1.png"/>
<image preserveAspectRatio="none" x="739" y="1124" width="107" height="41" xlink:href="img/2.png"/>
<path fill-rule="evenodd" d="M87.1,292.2h80.5V290H87.1v2.2Z" class="g0_29"/>
<path d="M167.6,292.4h2.2v-.2h-2.2v.2Z" class="g0_29"/>
<path fill-rule="evenodd" d="M167.6,292.2h2.2V290h-2.2v2.2Z" class="g0_29"/>
<path fill-rule="evenodd" d="M169.8,292.2H752V290H169.8v2.2Z" class="g0_29"/>
<path d="M752,292.4h2.2v-.2H752v.2Z" class="g0_29"/>
<path fill-rule="evenodd" d="M752,292.2h2.2V290H752v2.2Z" class="g0_29"/>
<path fill-rule="evenodd" d="M754.2,292.2h99.6V290H754.2v2.2Z" class="g0_29"/>
<path fill-rule="evenodd" d="M167.6,342.8h2.2V292.4h-2.2v50.4Z" class="g0_29"/>
<path fill-rule="evenodd" d="M752,342.8h2.2V292.4H752v50.4Z" class="g0_29"/>
<path fill-rule="evenodd" d="M87.1,345h80.5v-2.2H87.1V345Z" class="g0_29"/>
<path fill-rule="evenodd" d="M167.6,345h2.2v-2.2h-2.2V345Z" class="g0_29"/>
<path fill-rule="evenodd" d="M169.8,345H752v-2.2H169.8V345Z" class="g0_29"/>
<path fill-rule="evenodd" d="M752,345h2.2v-2.2H752V345Z" class="g0_29"/>
<path fill-rule="evenodd" d="M754.2,345h99.6v-2.2H754.2V345Z" class="g0_29"/>
<path fill-rule="evenodd" d="M87.1,366.1h80.5v-2.2H87.1v2.2Z" class="g0_29"/>
<path d="M167.6,366.3h2.2v-.2h-2.2v.2Z" class="g0_29"/>
<path fill-rule="evenodd" d="M167.6,366.1h2.2v-2.2h-2.2v2.2Z" class="g0_29"/>
<path fill-rule="evenodd" d="M169.8,366.1H752v-2.2H169.8v2.2Z" class="g0_29"/>
<path d="M752,366.3h2.2v-.2H752v.2Z" class="g0_29"/>
<path fill-rule="evenodd" d="M752,366.1h2.2v-2.2H752v2.2Z" class="g0_29"/>
<path fill-rule="evenodd" d="M754.2,366.1h99.6v-2.2H754.2v2.2Z" class="g0_29"/>
<path fill-rule="evenodd" d="M167.6,401h2.2V366.3h-2.2V401Z" class="g0_29"/>
<path fill-rule="evenodd" d="M752,401h2.2V366.3H752V401Z" class="g0_29"/>
<path fill-rule="evenodd" d="M87.1,403.2h80.5V401H87.1v2.2Z" class="g0_29"/>
<path fill-rule="evenodd" d="M167.6,403.3h2.2V401h-2.2v2.3Z" class="g0_29"/>
<path fill-rule="evenodd" d="M169.8,403.2H752V401H169.8v2.2Z" class="g0_29"/>
<path fill-rule="evenodd" d="M752,403.3h2.2V401H752v2.3Z" class="g0_29"/>
<path fill-rule="evenodd" d="M754.2,403.2h99.6V401H754.2v2.2Z" class="g0_29"/>
<path fill-rule="evenodd" d="M167.6,504.2h2.2V403.3h-2.2V504.2Z" class="g0_29"/>
<path fill-rule="evenodd" d="M752,504.2h2.2V403.3H752V504.2Z" class="g0_29"/>
<path fill-rule="evenodd" d="M87.1,506.4h80.5v-2.2H87.1v2.2Z" class="g0_29"/>
<path fill-rule="evenodd" d="M167.6,506.6h2.2v-2.4h-2.2v2.4Z" class="g0_29"/>
<path fill-rule="evenodd" d="M169.8,506.4H752v-2.2H169.8v2.2Z" class="g0_29"/>
<path fill-rule="evenodd" d="M752,506.6h2.2v-2.4H752v2.4Z" class="g0_29"/>
<path fill-rule="evenodd" d="M754.2,506.4h99.6v-2.2H754.2v2.2Z" class="g0_29"/>
<path fill-rule="evenodd" d="M167.6,640.7h2.2V506.6h-2.2V640.7Z" class="g0_29"/>
<path fill-rule="evenodd" d="M752,640.7h2.2V506.6H752V640.7Z" class="g0_29"/>
<path fill-rule="evenodd" d="M87.1,642.9h80.5v-2.2H87.1v2.2Z" class="g0_29"/>
<path fill-rule="evenodd" d="M167.6,643.1h2.2v-2.4h-2.2v2.4Z" class="g0_29"/>
<path fill-rule="evenodd" d="M169.8,642.9H752v-2.2H169.8v2.2Z" class="g0_29"/>
<path fill-rule="evenodd" d="M752,643.1h2.2v-2.4H752v2.4Z" class="g0_29"/>
<path fill-rule="evenodd" d="M754.2,642.9h99.6v-2.2H754.2v2.2Z" class="g0_29"/>
<path fill-rule="evenodd" d="M167.6,709.3h2.2V643.1h-2.2v66.2Z" class="g0_29"/>
<path fill-rule="evenodd" d="M752,709.3h2.2V643.1H752v66.2Z" class="g0_29"/>
<path fill-rule="evenodd" d="M87.1,711.5h80.5v-2.2H87.1v2.2Z" class="g0_29"/>
<path fill-rule="evenodd" d="M167.6,711.7h2.2v-2.4h-2.2v2.4Z" class="g0_29"/>
<path fill-rule="evenodd" d="M169.8,711.5H752v-2.2H169.8v2.2Z" class="g0_29"/>
<path fill-rule="evenodd" d="M752,711.7h2.2v-2.4H752v2.4Z" class="g0_29"/>
<path fill-rule="evenodd" d="M754.2,711.5h99.6v-2.2H754.2v2.2Z" class="g0_29"/>
<path fill-rule="evenodd" d="M167.6,765.1h2.2V711.7h-2.2v53.4Z" class="g0_29"/>
<path fill-rule="evenodd" d="M752,765.1h2.2V711.7H752v53.4Z" class="g0_29"/>
<path fill-rule="evenodd" d="M87.1,767.2h80.5V765H87.1v2.2Z" class="g0_29"/>
<path fill-rule="evenodd" d="M167.6,767.2h2.2V765h-2.2v2.2Z" class="g0_29"/>
<path fill-rule="evenodd" d="M169.8,767.2H752V765H169.8v2.2Z" class="g0_29"/>
<path fill-rule="evenodd" d="M752,767.2h2.2V765H752v2.2Z" class="g0_29"/>
<path fill-rule="evenodd" d="M754.2,767.2h99.6V765H754.2v2.2Z" class="g0_29"/>
<path fill-rule="evenodd" d="M87.1,788.5H853.8v-2.2H87.1v2.2Z" class="g0_29"/>
<path fill-rule="evenodd" d="M87.1,809.6h80.5v-2.2H87.1v2.2Z" class="g0_29"/>
<path d="M167.6,809.8h2.2v-.2h-2.2v.2Z" class="g0_29"/>
<path fill-rule="evenodd" d="M167.6,809.6h2.2v-2.2h-2.2v2.2Z" class="g0_29"/>
<path fill-rule="evenodd" d="M169.8,809.6H752v-2.2H169.8v2.2Z" class="g0_29"/>
<path d="M752,809.8h2.2v-.2H752v.2Z" class="g0_29"/>
<path fill-rule="evenodd" d="M752,809.6h2.2v-2.2H752v2.2Z" class="g0_29"/>
<path fill-rule="evenodd" d="M754.2,809.6h99.6v-2.2H754.2v2.2Z" class="g0_29"/>
<path fill-rule="evenodd" d="M167.6,845.9h2.2V809.8h-2.2v36.1Z" class="g0_29"/>
<path fill-rule="evenodd" d="M752,845.9h2.2V809.8H752v36.1Z" class="g0_29"/>
<path fill-rule="evenodd" d="M87.1,848.1h80.5v-2.2H87.1v2.2Z" class="g0_29"/>
<path fill-rule="evenodd" d="M167.6,848.3h2.2v-2.4h-2.2v2.4Z" class="g0_29"/>
<path fill-rule="evenodd" d="M169.8,848.1H752v-2.2H169.8v2.2Z" class="g0_29"/>
<path fill-rule="evenodd" d="M752,848.3h2.2v-2.4H752v2.4Z" class="g0_29"/>
<path fill-rule="evenodd" d="M754.2,848.1h99.6v-2.2H754.2v2.2Z" class="g0_29"/>
<path fill-rule="evenodd" d="M167.6,947.7h2.2V848.3h-2.2v99.4Z" class="g0_29"/>
<path fill-rule="evenodd" d="M752,947.7h2.2V848.3H752v99.4Z" class="g0_29"/>
<path fill-rule="evenodd" d="M87.1,949.9h80.5v-2.2H87.1v2.2Z" class="g0_29"/>
<path fill-rule="evenodd" d="M167.6,949.9h2.2v-2.2h-2.2v2.2Z" class="g0_29"/>
<path fill-rule="evenodd" d="M169.8,949.9H752v-2.2H169.8v2.2Z" class="g0_29"/>
<path fill-rule="evenodd" d="M752,949.9h2.2v-2.2H752v2.2Z" class="g0_29"/>
<path fill-rule="evenodd" d="M754.2,949.9h99.6v-2.2H754.2v2.2Z" class="g0_29"/>
<path fill-rule="evenodd" d="M87.1,971.1h80.5v-2.2H87.1v2.2Z" class="g0_29"/>
<path d="M167.6,971.3h2.2v-.2h-2.2v.2Z" class="g0_29"/>
<path fill-rule="evenodd" d="M167.6,971.1h2.2v-2.2h-2.2v2.2Z" class="g0_29"/>
<path fill-rule="evenodd" d="M169.8,971.1H752v-2.2H169.8v2.2Z" class="g0_29"/>
<path d="M752,971.3h2.2v-.2H752v.2Z" class="g0_29"/>
<path fill-rule="evenodd" d="M752,971.1h2.2v-2.2H752v2.2Z" class="g0_29"/>
<path fill-rule="evenodd" d="M754.2,971.1h99.6v-2.2H754.2v2.2Z" class="g0_29"/>
<path fill-rule="evenodd" d="M167.6,1037.5h2.2V971.3h-2.2v66.2Z" class="g0_29"/>
<path fill-rule="evenodd" d="M752,1037.5h2.2V971.3H752v66.2Z" class="g0_29"/>
<path fill-rule="evenodd" d="M87.1,1039.7h80.5v-2.2H87.1v2.2Z" class="g0_29"/>
<path fill-rule="evenodd" d="M167.6,1039.9h2.2v-2.4h-2.2v2.4Z" class="g0_29"/>
<path fill-rule="evenodd" d="M169.8,1039.7H752v-2.2H169.8v2.2Z" class="g0_29"/>
<path fill-rule="evenodd" d="M752,1039.9h2.2v-2.4H752v2.4Z" class="g0_29"/>
<path fill-rule="evenodd" d="M754.2,1039.7h99.6v-2.2H754.2v2.2Z" class="g0_29"/>
<path fill-rule="evenodd" d="M86,1093.9h81.6v-2.2H86v2.2Z" class="g0_29"/>
<path fill-rule="evenodd" d="M167.6,1091.8h2.2v-51.9h-2.2v51.9Z" class="g0_29"/>
<path fill-rule="evenodd" d="M167.6,1093.9h2.2v-2.2h-2.2v2.2Z" class="g0_29"/>
<path fill-rule="evenodd" d="M169.8,1093.9H752v-2.2H169.8v2.2Z" class="g0_29"/>
<path fill-rule="evenodd" d="M752,1091.8h2.2v-51.9H752v51.9Z" class="g0_29"/>
<path fill-rule="evenodd" d="M752,1093.9h2.2v-2.2H752v2.2Z" class="g0_29"/>
<path fill-rule="evenodd" d="M754.2,1093.9h99.6v-2.2H754.2v2.2Z" class="g0_29"/>
</svg>