<?xml version="1.0" encoding="UTF-8" standalone="no"?>
<!DOCTYPE svg PUBLIC "-//W3C//DTD SVG 1.1//EN"
"http://www.w3.org/Graphics/SVG/1.1/DTD/svg11.dtd">
<svg viewBox="0 0 935 1210" version="1.1" xmlns="http://www.w3.org/2000/svg" xmlns:xlink="http://www.w3.org/1999/xlink">
<defs>
<clipPath id="c0_2"><path d="M484.3,576.3v-285H849.6v285Z"/></clipPath>
<style type="text/css"><![CDATA[
.g0_2{
fill: none;
stroke: #000000;
stroke-width: 0.502;
stroke-linecap: butt;
stroke-linejoin: miter;
}
.g1_2{
fill: #FFFFFF;
}
.g2_2{
fill: #EBEBEB;
}
.g3_2{
fill: none;
stroke: #000000;
stroke-width: 0.658;
stroke-linecap: round;
stroke-linejoin: round;
}
.g4_2{
fill: none;
stroke: #000000;
stroke-width: 0.658;
stroke-linecap: round;
stroke-linejoin: round;
stroke-dasharray: 3,3;
}
.g5_2{
}
.g6_2{
fill: none;
stroke: #000000;
stroke-width: 0.658;
stroke-linecap: butt;
stroke-linejoin: miter;
}
.g7_2{
fill: #BFBFBF;
}
]]></style>
</defs>
<path d="M484.3,213.8H849.6" class="g0_2"/>
<g clip-path="url(#c0_2)">
<path d="M484.3,576.3H849.6v-285H484.3v285Z" class="g1_2"/>
</g>
<image preserveAspectRatio="none" x="597" y="316" width="78" height="38" xlink:href="img/1.png"/>
<image preserveAspectRatio="none" x="592" y="382" width="88" height="38" xlink:href="img/2.png"/>
<image preserveAspectRatio="none" x="491" y="412" width="78" height="37" xlink:href="img/3.png"/>
<image preserveAspectRatio="none" x="689" y="472" width="99" height="38" xlink:href="img/4.png"/>
<image preserveAspectRatio="none" x="693" y="412" width="91" height="37" xlink:href="img/5.png"/>
<image preserveAspectRatio="none" x="491" y="472" width="78" height="38" xlink:href="img/6.png"/>
<image preserveAspectRatio="none" x="693" y="533" width="91" height="37" xlink:href="img/7.png"/>
<image preserveAspectRatio="none" x="759" y="323" width="67" height="28" xlink:href="img/8.png"/>
<image preserveAspectRatio="none" x="755" y="343" width="75" height="28" xlink:href="img/9.png"/>
<image preserveAspectRatio="none" x="755" y="362" width="75" height="27" xlink:href="img/10.png"/>
<path d="M613.4,320.6h44.7c5.2,0,9.5,5.3,9.5,11.9c0,6.5,-4.3,11.8,-9.5,11.8H613.4c-5.3,0,-9.6,-5.3,-9.6,-11.8c0,-6.6,4.3,-11.9,9.6,-11.9Z" class="g2_2"/>
<path d="M613.4,320.6h44.7c5.2,0,9.5,5.3,9.5,11.9c0,6.5,-4.3,11.8,-9.5,11.8H613.4c-5.3,0,-9.6,-5.3,-9.6,-11.8c0,-6.6,4.3,-11.9,9.6,-11.9" class="g3_2"/>
<path d="M609.7,386.4h52c6.2,0,11.2,5.3,11.2,11.9c0,6.5,-5,11.8,-11.2,11.8h-52c-6.2,0,-11.2,-5.3,-11.2,-11.8c0,-6.6,5,-11.9,11.2,-11.9Z" class="g1_2"/>
<path d="M609.7,386.4h52c6.2,0,11.2,5.3,11.2,11.9c0,6.5,-5,11.8,-11.2,11.8h-52c-6.2,0,-11.2,-5.3,-11.2,-11.8c0,-6.6,5,-11.9,11.2,-11.9" class="g4_2"/>
<path d="M635.7,344.6v35" class="g3_2"/>
<path d="M635.7,384.9l2,-5.3h-4Z" class="g5_2"/>
<path d="M635.7,384.9l2,-5.3h-4Z" class="g6_2"/>
<path d="M507.4,416.1h44.7c5.3,0,9.6,5.3,9.6,11.8c0,6.5,-4.3,11.9,-9.6,11.9H507.4c-5.3,0,-9.6,-5.4,-9.6,-11.9c0,-6.5,4.3,-11.8,9.6,-11.8Z" class="g2_2"/>
<path d="M507.4,416.1h44.7c5.3,0,9.6,5.3,9.6,11.8c0,6.5,-4.3,11.9,-9.6,11.9H507.4c-5.3,0,-9.6,-5.4,-9.6,-11.9c0,-6.5,4.3,-11.8,9.6,-11.8m95,-8.5l-36.8,10.3" class="g3_2"/>
<path d="M560.5,419.3l5.6,.5l-1,-3.8Z" class="g5_2"/>
<path d="M560.5,419.3l5.6,.5l-1,-3.8Z" class="g6_2"/>
<path d="M708.8,476.6h59.9c7.1,0,12.8,5.3,12.8,11.9c0,6.5,-5.7,11.8,-12.8,11.8H708.8c-7.1,0,-12.9,-5.3,-12.9,-11.8c0,-6.6,5.8,-11.9,12.9,-11.9Z" class="g7_2"/>
<path d="M708.8,476.6h59.9c7.1,0,12.8,5.3,12.8,11.9c0,6.5,-5.7,11.8,-12.8,11.8H708.8c-7.1,0,-12.9,-5.3,-12.9,-11.8c0,-6.6,5.8,-11.9,12.9,-11.9" class="g3_2"/>
<path d="M711.5,416.1h54.4c6.4,0,11.7,5.3,11.7,11.8c0,6.5,-5.3,11.9,-11.7,11.9H711.5c-6.4,0,-11.6,-5.4,-11.6,-11.9c0,-6.5,5.2,-11.8,11.6,-11.8Z" class="g1_2"/>
<path d="M711.5,416.1h54.4c6.4,0,11.7,5.3,11.7,11.8c0,6.5,-5.3,11.9,-11.7,11.9H711.5c-6.4,0,-11.6,-5.4,-11.6,-11.9c0,-6.5,5.2,-11.8,11.6,-11.8" class="g4_2"/>
<path d="M507.4,476.6h44.7c5.3,0,9.6,5.3,9.6,11.9c0,6.5,-4.3,11.8,-9.6,11.8H507.4c-5.3,0,-9.6,-5.3,-9.6,-11.8c0,-6.6,4.3,-11.9,9.6,-11.9Z" class="g1_2"/>
<path d="M507.4,476.6h44.7c5.3,0,9.6,5.3,9.6,11.9c0,6.5,-4.3,11.8,-9.6,11.8H507.4c-5.3,0,-9.6,-5.3,-9.6,-11.8c0,-6.6,4.3,-11.9,9.6,-11.9" class="g4_2"/>
<path d="M529.7,440.1v29.7" class="g3_2"/>
<path d="M529.7,475l2,-5.2h-3.9Z" class="g5_2"/>
<path d="M529.7,475l2,-5.2h-3.9Z" class="g6_2"/>
<path d="M538.5,415.8c9.2,-12.9,14.7,-26.7,27.8,-38.6c11.7,-10.6,29.5,-19.7,45.2,-29.3" class="g3_2"/>
<path d="M616,345.2l-5.5,1.1l2.1,3.3Z" class="g5_2"/>
<path d="M616,345.2l-5.5,1.1l2.1,3.3Z" class="g6_2"/>
<path d="M668.8,407.8l29.5,8.5" class="g3_2"/>
<path d="M703.4,417.7l-4.5,-3.3l-1.1,3.8Z" class="g5_2"/>
<path d="M703.4,417.7l-4.5,-3.3l-1.1,3.8Z" class="g6_2"/>
<path d="M738.7,440.1v29.7" class="g3_2"/>
<path d="M738.7,475l2,-5.2h-4Z" class="g5_2"/>
<path d="M738.7,475l2,-5.2h-4Z" class="g6_2"/>
<path d="M711.5,537.2h54.4c6.4,0,11.7,5.3,11.7,11.8c0,6.6,-5.3,11.9,-11.7,11.9H711.5c-6.4,0,-11.6,-5.3,-11.6,-11.9c0,-6.5,5.2,-11.8,11.6,-11.8Z" class="g1_2"/>
<path d="M711.5,537.2h54.4c6.4,0,11.7,5.3,11.7,11.8c0,6.6,-5.3,11.9,-11.7,11.9H711.5c-6.4,0,-11.6,-5.3,-11.6,-11.9c0,-6.5,5.2,-11.8,11.6,-11.8" class="g4_2"/>
<path d="M738.7,500.6v29.7" class="g3_2"/>
<path d="M738.7,535.6l2,-5.3h-4Z" class="g5_2"/>
<path d="M738.7,535.6l2,-5.3h-4Z" class="g6_2"/>
<path d="M755.7,537c21.3,-15.1,64.3,-29.1,64,-45.3c-.3,-14.9,-37.6,-31.8,-60.5,-47.9" class="g3_2"/>
<path d="M755,440.7l3.1,4.7l2.3,-3.2Z" class="g5_2"/>
<path d="M755,440.7l3.1,4.7l2.3,-3.2Z" class="g6_2"/>
<path d="M719.6,537c-23.9,-15.1,-58,-24.2,-71.7,-45.3c-12.7,-19.4,-8,-49,-9.9,-74.8" class="g3_2"/>
<path d="M637.4,411.7l-1.4,5.4l3.9,-.4Z" class="g5_2"/>
<path d="M637.4,411.7l-1.4,5.4l3.9,-.4Z" class="g6_2"/>
<path d="M655.9,386.3c6.5,-3.9,21.1,-4.8,19.6,-11.7c-1.2,-5.9,-14.1,-16.3,-23.8,-25.5" class="g3_2"/>
<path d="M648,345.4l2.4,5.1l2.8,-2.8Z" class="g5_2"/>
<path d="M648,345.4l2.4,5.1l2.8,-2.8Z" class="g6_2"/>
<path d="M692.6,493.7c-2.8,-6.8,-10.9,-16.8,-8.5,-20.4c1.8,-2.7,9.5,-1.8,16.5,-1.4" class="g3_2"/>
<path d="M705.9,472l-5.3,-2.1v4Z" class="g5_2"/>
<path d="M705.9,472l-5.3,-2.1v4Z" class="g6_2"/>
<path d="M559.4,480.2c13,-3.6,27.5,.8,39.1,-10.8c10.6,-10.6,18.9,-34.2,28,-53.2" class="g3_2"/>
<path d="M628.8,411.5l-4.1,3.9l3.5,1.7Z" class="g5_2"/>
<path d="M628.8,411.5l-4.1,3.9l3.5,1.7Z" class="g6_2"/>
<path d="M636,298.9l-.1,14.9" class="g3_2"/>
<path d="M635.8,319l2.1,-5.2h-4Z" class="g5_2"/>
<path d="M635.8,319l2.1,-5.2h-4Z" class="g6_2"/>
<path d="M773.7,327.2H811c4.4,0,8,3.2,8,7.2c0,4,-3.6,7.3,-8,7.3H773.7c-4.4,0,-8,-3.3,-8,-7.3c0,-4,3.6,-7.2,8,-7.2Z" class="g1_2"/>
<path d="M773.7,327.2H811c4.4,0,8,3.2,8,7.2c0,4,-3.6,7.3,-8,7.3H773.7c-4.4,0,-8,-3.3,-8,-7.3c0,-4,3.6,-7.2,8,-7.2" class="g4_2"/>
<path d="M770.9,346.9h42.9c5.1,0,9.2,3.3,9.2,7.3c0,4,-4.1,7.2,-9.2,7.2H770.9c-5,0,-9.1,-3.2,-9.1,-7.2c0,-4,4.1,-7.3,9.1,-7.3Z" class="g2_2"/>
<path d="M770.9,346.9h42.9c5.1,0,9.2,3.3,9.2,7.3c0,4,-4.1,7.2,-9.2,7.2H770.9c-5,0,-9.1,-3.2,-9.1,-7.2c0,-4,4.1,-7.3,9.1,-7.3" class="g3_2"/>
<path d="M770.9,366.7h42.9c5.1,0,9.2,2.9,9.2,6.6c0,3.6,-4.1,6.6,-9.2,6.6H770.9c-5,0,-9.1,-3,-9.1,-6.6c0,-3.7,4.1,-6.6,9.1,-6.6Z" class="g7_2"/>
<path d="M770.9,366.7h42.9c5.1,0,9.2,2.9,9.2,6.6c0,3.6,-4.1,6.6,-9.2,6.6H770.9c-5,0,-9.1,-3,-9.1,-6.6c0,-3.7,4.1,-6.6,9.1,-6.6M757.1,306.1h74.4v83H757.1v-83Z" class="g3_2"/>
<path d="M484.3,593.3H849.6" class="g0_2"/>
</svg>