<?xml version="1.0" encoding="UTF-8" standalone="no"?>
<!DOCTYPE svg PUBLIC "-//W3C//DTD SVG 1.1//EN"
"http://www.w3.org/Graphics/SVG/1.1/DTD/svg11.dtd">
<svg viewBox="0 0 935 1210" version="1.1" xmlns="http://www.w3.org/2000/svg" xmlns:xlink="http://www.w3.org/1999/xlink">
<defs>
<style type="text/css"><![CDATA[
.g0_41{
fill: #00755C;
}
]]></style>
</defs>
<path d="M86.5,66.5H263.3V65.1H86.5v1.4Z" class="g0_41"/>
<path d="M263.3,66.5h1.4V65.1h-1.4v1.4Z" class="g0_41"/>
<path d="M264.7,66.5H848.8V65.1H264.7v1.4Z" class="g0_41"/>
<path d="M85.4,120.1H263.3v-1.5H85.4v1.5Z" class="g0_41"/>
<path d="M262.2,120.1h1.4v-1.5h-1.4v1.5Z" class="g0_41"/>
<path d="M263.6,120.1H848.8v-1.5H263.6v1.5Z" class="g0_41"/>
<path d="M84.3,1113.8H431.9v-.8H84.3v.8Z" class="g0_41"/>
<path d="M431.9,1113.8h.8v-.8h-.8v.8Z" class="g0_41"/>
<path d="M432.7,1113.8h66.5v-.8H432.7v.8Z" class="g0_41"/>
<path d="M499.2,1113.8h.8v-.8h-.8v.8Z" class="g0_41"/>
<path d="M499.9,1113.8H846.6v-.8H499.9v.8Z" class="g0_41"/>
<image preserveAspectRatio="none" x="89" y="67" width="172" height="51" xlink:href="img/1.png"/>
<image preserveAspectRatio="none" x="739" y="1124" width="107" height="42" xlink:href="img/2.png"/>
<path fill-rule="evenodd" d="M86.5,431.4H346.7v-2.2H86.5v2.2Z" class="g0_41"/>
<path d="M346.7,431.6h2.2v-.2h-2.2v.2Z" class="g0_41"/>
<path fill-rule="evenodd" d="M346.7,431.4h2.2v-2.2h-2.2v2.2Z" class="g0_41"/>
<path fill-rule="evenodd" d="M348.9,431.4H854v-2.2H348.9v2.2Z" class="g0_41"/>
<path fill-rule="evenodd" d="M346.7,459.4h2.2V431.6h-2.2v27.8Z" class="g0_41"/>
<path fill-rule="evenodd" d="M86.5,461.6H346.7v-2.2H86.5v2.2Z" class="g0_41"/>
<path fill-rule="evenodd" d="M346.7,461.8h2.2v-2.4h-2.2v2.4Z" class="g0_41"/>
<path fill-rule="evenodd" d="M348.9,461.6H854v-2.2H348.9v2.2Z" class="g0_41"/>
<path fill-rule="evenodd" d="M346.7,496.5h2.2V461.8h-2.2v34.7Z" class="g0_41"/>
<path fill-rule="evenodd" d="M86.5,498.7H346.7v-2.2H86.5v2.2Z" class="g0_41"/>
<path fill-rule="evenodd" d="M346.7,498.8h2.2v-2.3h-2.2v2.3Z" class="g0_41"/>
<path fill-rule="evenodd" d="M348.9,498.7H854v-2.2H348.9v2.2Z" class="g0_41"/>
<path fill-rule="evenodd" d="M346.7,517.6h2.2V498.9h-2.2v18.7Z" class="g0_41"/>
<path fill-rule="evenodd" d="M86.5,519.7H346.7v-2.2H86.5v2.2Z" class="g0_41"/>
<path fill-rule="evenodd" d="M346.7,519.9h2.2v-2.3h-2.2v2.3Z" class="g0_41"/>
<path fill-rule="evenodd" d="M348.9,519.7H854v-2.2H348.9v2.2Z" class="g0_41"/>
<path fill-rule="evenodd" d="M346.7,538.8h2.2V519.9h-2.2v18.9Z" class="g0_41"/>
<path fill-rule="evenodd" d="M86.5,541H346.7v-2.2H86.5V541Z" class="g0_41"/>
<path fill-rule="evenodd" d="M346.7,541.2h2.2v-2.4h-2.2v2.4Z" class="g0_41"/>
<path fill-rule="evenodd" d="M348.9,541H854v-2.2H348.9V541Z" class="g0_41"/>
<path fill-rule="evenodd" d="M346.7,559.9h2.2V541.2h-2.2v18.7Z" class="g0_41"/>
<path fill-rule="evenodd" d="M86.5,562.1H346.7v-2.2H86.5v2.2Z" class="g0_41"/>
<path fill-rule="evenodd" d="M346.7,562.3h2.2v-2.4h-2.2v2.4Z" class="g0_41"/>
<path fill-rule="evenodd" d="M348.9,562.1H854v-2.2H348.9v2.2Z" class="g0_41"/>
<path fill-rule="evenodd" d="M346.7,581.2h2.2V562.3h-2.2v18.9Z" class="g0_41"/>
<path fill-rule="evenodd" d="M86.5,583.4H346.7v-2.2H86.5v2.2Z" class="g0_41"/>
<path fill-rule="evenodd" d="M346.7,583.5h2.2v-2.3h-2.2v2.3Z" class="g0_41"/>
<path fill-rule="evenodd" d="M348.9,583.4H854v-2.2H348.9v2.2Z" class="g0_41"/>
<path fill-rule="evenodd" d="M346.7,602.2h2.2V583.5h-2.2v18.7Z" class="g0_41"/>
<path fill-rule="evenodd" d="M86.5,604.4H346.7v-2.2H86.5v2.2Z" class="g0_41"/>
<path fill-rule="evenodd" d="M346.7,604.6h2.2v-2.3h-2.2v2.3Z" class="g0_41"/>
<path fill-rule="evenodd" d="M348.9,604.4H854v-2.2H348.9v2.2Z" class="g0_41"/>
<path fill-rule="evenodd" d="M346.7,623.3h2.2V604.6h-2.2v18.7Z" class="g0_41"/>
<path fill-rule="evenodd" d="M86.5,625.5H346.7v-2.2H86.5v2.2Z" class="g0_41"/>
<path fill-rule="evenodd" d="M346.7,625.7h2.2v-2.4h-2.2v2.4Z" class="g0_41"/>
<path fill-rule="evenodd" d="M348.9,625.5H854v-2.2H348.9v2.2Z" class="g0_41"/>
<path fill-rule="evenodd" d="M346.7,644.6h2.2V625.7h-2.2v18.9Z" class="g0_41"/>
<path fill-rule="evenodd" d="M86.5,646.8H346.7v-2.2H86.5v2.2Z" class="g0_41"/>
<path fill-rule="evenodd" d="M346.7,647h2.2v-2.4h-2.2V647Z" class="g0_41"/>
<path fill-rule="evenodd" d="M348.9,646.8H854v-2.2H348.9v2.2Z" class="g0_41"/>
<path fill-rule="evenodd" d="M346.7,665.7h2.2V647h-2.2v18.7Z" class="g0_41"/>
<path fill-rule="evenodd" d="M86.5,667.9H346.7v-2.2H86.5v2.2Z" class="g0_41"/>
<path fill-rule="evenodd" d="M346.7,668.1h2.2v-2.4h-2.2v2.4Z" class="g0_41"/>
<path fill-rule="evenodd" d="M348.9,667.9H854v-2.2H348.9v2.2Z" class="g0_41"/>
<path fill-rule="evenodd" d="M346.7,686.9h2.2V668.1h-2.2v18.8Z" class="g0_41"/>
<path fill-rule="evenodd" d="M86.5,689.1H346.7v-2.2H86.5v2.2Z" class="g0_41"/>
<path fill-rule="evenodd" d="M346.7,689.3h2.2v-2.4h-2.2v2.4Z" class="g0_41"/>
<path fill-rule="evenodd" d="M348.9,689.1H854v-2.2H348.9v2.2Z" class="g0_41"/>
<path fill-rule="evenodd" d="M346.7,708h2.2V689.3h-2.2V708Z" class="g0_41"/>
<path fill-rule="evenodd" d="M86.5,710.2H346.7V708H86.5v2.2Z" class="g0_41"/>
<path fill-rule="evenodd" d="M346.7,710.4h2.2V708h-2.2v2.4Z" class="g0_41"/>
<path fill-rule="evenodd" d="M348.9,710.2H854V708H348.9v2.2Z" class="g0_41"/>
<path fill-rule="evenodd" d="M346.7,729.1h2.2V710.4h-2.2v18.7Z" class="g0_41"/>
<path fill-rule="evenodd" d="M86.5,731.3H346.7v-2.2H86.5v2.2Z" class="g0_41"/>
<path fill-rule="evenodd" d="M346.7,731.5h2.2v-2.4h-2.2v2.4Z" class="g0_41"/>
<path fill-rule="evenodd" d="M348.9,731.3H854v-2.2H348.9v2.2Z" class="g0_41"/>
<path fill-rule="evenodd" d="M346.7,750.4h2.2V731.5h-2.2v18.9Z" class="g0_41"/>
<path fill-rule="evenodd" d="M86.5,752.6H346.7v-2.2H86.5v2.2Z" class="g0_41"/>
<path fill-rule="evenodd" d="M346.7,752.8h2.2v-2.4h-2.2v2.4Z" class="g0_41"/>
<path fill-rule="evenodd" d="M348.9,752.6H854v-2.2H348.9v2.2Z" class="g0_41"/>
<path fill-rule="evenodd" d="M346.7,787.2h2.2V752.8h-2.2v34.4Z" class="g0_41"/>
<path fill-rule="evenodd" d="M86.5,789.4H346.7v-2.2H86.5v2.2Z" class="g0_41"/>
<path fill-rule="evenodd" d="M346.7,789.6h2.2v-2.4h-2.2v2.4Z" class="g0_41"/>
<path fill-rule="evenodd" d="M348.9,789.4H854v-2.2H348.9v2.2Z" class="g0_41"/>
<path fill-rule="evenodd" d="M346.7,824.3h2.2V789.6h-2.2v34.7Z" class="g0_41"/>
<path fill-rule="evenodd" d="M86.5,826.5H346.7v-2.2H86.5v2.2Z" class="g0_41"/>
<path fill-rule="evenodd" d="M346.7,826.7h2.2v-2.4h-2.2v2.4Z" class="g0_41"/>
<path fill-rule="evenodd" d="M348.9,826.5H854v-2.2H348.9v2.2Z" class="g0_41"/>
<path fill-rule="evenodd" d="M346.7,861.3h2.2V826.6h-2.2v34.7Z" class="g0_41"/>
<path fill-rule="evenodd" d="M86.5,863.5H346.7v-2.2H86.5v2.2Z" class="g0_41"/>
<path fill-rule="evenodd" d="M346.7,863.7h2.2v-2.4h-2.2v2.4Z" class="g0_41"/>
<path fill-rule="evenodd" d="M348.9,863.5H854v-2.2H348.9v2.2Z" class="g0_41"/>
<path fill-rule="evenodd" d="M346.7,882.4h2.2V863.7h-2.2v18.7Z" class="g0_41"/>
<path fill-rule="evenodd" d="M86.5,884.6H346.7v-2.2H86.5v2.2Z" class="g0_41"/>
<path fill-rule="evenodd" d="M346.7,884.8h2.2v-2.4h-2.2v2.4Z" class="g0_41"/>
<path fill-rule="evenodd" d="M348.9,884.6H854v-2.2H348.9v2.2Z" class="g0_41"/>
<path fill-rule="evenodd" d="M346.7,919.4h2.2V884.8h-2.2v34.6Z" class="g0_41"/>
<path fill-rule="evenodd" d="M86.5,921.6H346.7v-2.2H86.5v2.2Z" class="g0_41"/>
<path fill-rule="evenodd" d="M346.7,921.8h2.2v-2.4h-2.2v2.4Z" class="g0_41"/>
<path fill-rule="evenodd" d="M348.9,921.6H854v-2.2H348.9v2.2Z" class="g0_41"/>
<path fill-rule="evenodd" d="M346.7,956.3h2.2V921.8h-2.2v34.5Z" class="g0_41"/>
<path fill-rule="evenodd" d="M86.5,958.5H346.7v-2.2H86.5v2.2Z" class="g0_41"/>
<path fill-rule="evenodd" d="M346.7,958.7h2.2v-2.4h-2.2v2.4Z" class="g0_41"/>
<path fill-rule="evenodd" d="M348.9,958.5H854v-2.2H348.9v2.2Z" class="g0_41"/>
<path fill-rule="evenodd" d="M85.4,1011.4H346.7v-2.2H85.4v2.2Z" class="g0_41"/>
<path fill-rule="evenodd" d="M346.7,1009.2h2.2V958.7h-2.2v50.5Z" class="g0_41"/>
<path fill-rule="evenodd" d="M346.7,1011.4h2.2v-2.2h-2.2v2.2Z" class="g0_41"/>
<path fill-rule="evenodd" d="M348.9,1011.4H854v-2.2H348.9v2.2Z" class="g0_41"/>
</svg>