<?xml version="1.0" encoding="UTF-8" standalone="no"?>
<!DOCTYPE svg PUBLIC "-//W3C//DTD SVG 1.1//EN"
"http://www.w3.org/Graphics/SVG/1.1/DTD/svg11.dtd">
<svg viewBox="0 0 935 1210" version="1.1" xmlns="http://www.w3.org/2000/svg" xmlns:xlink="http://www.w3.org/1999/xlink">
<defs>
<style type="text/css"><![CDATA[
.g0_33{
fill: #00755C;
}
]]></style>
</defs>
<path d="M86.5,66.5H263.3V65.1H86.5v1.4Z" class="g0_33"/>
<path d="M263.3,66.5h1.4V65.1h-1.4v1.4Z" class="g0_33"/>
<path d="M264.7,66.5H848.8V65.1H264.7v1.4Z" class="g0_33"/>
<path d="M85.4,120.1H263.3v-1.5H85.4v1.5Z" class="g0_33"/>
<path d="M262.2,120.1h1.4v-1.5h-1.4v1.5Z" class="g0_33"/>
<path d="M263.6,120.1H848.8v-1.5H263.6v1.5Z" class="g0_33"/>
<path d="M84.3,1113.8H431.9v-.8H84.3v.8Z" class="g0_33"/>
<path d="M431.9,1113.8h.8v-.8h-.8v.8Z" class="g0_33"/>
<path d="M432.7,1113.8h66.5v-.8H432.7v.8Z" class="g0_33"/>
<path d="M499.2,1113.8h.8v-.8h-.8v.8Z" class="g0_33"/>
<path d="M499.9,1113.8H846.6v-.8H499.9v.8Z" class="g0_33"/>
<image preserveAspectRatio="none" x="89" y="67" width="172" height="51" xlink:href="img/1.png"/>
<image preserveAspectRatio="none" x="739" y="1124" width="107" height="42" xlink:href="img/2.png"/>
<path fill-rule="evenodd" d="M86.4,346.1h569v-2.2H86.4v2.2Z" class="g0_33"/>
<path d="M655.4,346.3h2.2v-.2h-2.2v.2Z" class="g0_33"/>
<path fill-rule="evenodd" d="M655.4,346.1h2.2v-2.2h-2.2v2.2Z" class="g0_33"/>
<path fill-rule="evenodd" d="M657.6,346.1h87.8v-2.2H657.6v2.2Z" class="g0_33"/>
<path d="M745.4,346.3h2.2v-.2h-2.2v.2Z" class="g0_33"/>
<path fill-rule="evenodd" d="M745.4,346.1h2.2v-2.2h-2.2v2.2Z" class="g0_33"/>
<path fill-rule="evenodd" d="M747.6,346.1h101v-2.2h-101v2.2Z" class="g0_33"/>
<path fill-rule="evenodd" d="M655.4,405.9h2.2V346.3h-2.2v59.6Z" class="g0_33"/>
<path fill-rule="evenodd" d="M745.4,405.9h2.2V346.3h-2.2v59.6Z" class="g0_33"/>
<path fill-rule="evenodd" d="M86.4,408.1h569v-2.2H86.4v2.2Z" class="g0_33"/>
<path fill-rule="evenodd" d="M655.4,408.1h2.2v-2.2h-2.2v2.2Z" class="g0_33"/>
<path fill-rule="evenodd" d="M657.6,408.1h87.8v-2.2H657.6v2.2Z" class="g0_33"/>
<path fill-rule="evenodd" d="M745.4,408.1h2.2v-2.2h-2.2v2.2Z" class="g0_33"/>
<path fill-rule="evenodd" d="M747.6,408.1h101v-2.2h-101v2.2Z" class="g0_33"/>
<path fill-rule="evenodd" d="M86.4,429.2h569V427H86.4v2.2Z" class="g0_33"/>
<path d="M655.4,429.4h2.2v-.2h-2.2v.2Z" class="g0_33"/>
<path fill-rule="evenodd" d="M655.4,429.2h2.2V427h-2.2v2.2Z" class="g0_33"/>
<path fill-rule="evenodd" d="M657.6,429.2h87.8V427H657.6v2.2Z" class="g0_33"/>
<path d="M745.4,429.4h2.2v-.2h-2.2v.2Z" class="g0_33"/>
<path fill-rule="evenodd" d="M745.4,429.2h2.2V427h-2.2v2.2Z" class="g0_33"/>
<path fill-rule="evenodd" d="M747.6,429.2h101V427h-101v2.2Z" class="g0_33"/>
<path fill-rule="evenodd" d="M655.4,515h2.2V429.4h-2.2V515Z" class="g0_33"/>
<path fill-rule="evenodd" d="M745.4,515h2.2V429.4h-2.2V515Z" class="g0_33"/>
<path fill-rule="evenodd" d="M86.4,517.2h569V515H86.4v2.2Z" class="g0_33"/>
<path fill-rule="evenodd" d="M655.4,517.4h2.2V515h-2.2v2.4Z" class="g0_33"/>
<path fill-rule="evenodd" d="M657.6,517.2h87.8V515H657.6v2.2Z" class="g0_33"/>
<path fill-rule="evenodd" d="M745.4,517.4h2.2V515h-2.2v2.4Z" class="g0_33"/>
<path fill-rule="evenodd" d="M747.6,517.2h101V515h-101v2.2Z" class="g0_33"/>
<path fill-rule="evenodd" d="M655.4,553.5h2.2V517.4h-2.2v36.1Z" class="g0_33"/>
<path fill-rule="evenodd" d="M745.4,553.5h2.2V517.4h-2.2v36.1Z" class="g0_33"/>
<path fill-rule="evenodd" d="M86.4,555.7h569v-2.2H86.4v2.2Z" class="g0_33"/>
<path fill-rule="evenodd" d="M655.4,555.9h2.2v-2.4h-2.2v2.4Z" class="g0_33"/>
<path fill-rule="evenodd" d="M657.6,555.7h87.8v-2.2H657.6v2.2Z" class="g0_33"/>
<path fill-rule="evenodd" d="M745.4,555.9h2.2v-2.4h-2.2v2.4Z" class="g0_33"/>
<path fill-rule="evenodd" d="M747.6,555.7h101v-2.2h-101v2.2Z" class="g0_33"/>
<path fill-rule="evenodd" d="M655.4,625.7h2.2V555.9h-2.2v69.8Z" class="g0_33"/>
<path fill-rule="evenodd" d="M745.4,625.7h2.2V555.9h-2.2v69.8Z" class="g0_33"/>
<path fill-rule="evenodd" d="M86.4,627.9h569v-2.2H86.4v2.2Z" class="g0_33"/>
<path fill-rule="evenodd" d="M655.4,628.1h2.2v-2.4h-2.2v2.4Z" class="g0_33"/>
<path fill-rule="evenodd" d="M657.6,627.9h87.8v-2.2H657.6v2.2Z" class="g0_33"/>
<path fill-rule="evenodd" d="M745.4,628.1h2.2v-2.4h-2.2v2.4Z" class="g0_33"/>
<path fill-rule="evenodd" d="M747.6,627.9h101v-2.2h-101v2.2Z" class="g0_33"/>
<path fill-rule="evenodd" d="M655.4,680h2.2V628.1h-2.2V680Z" class="g0_33"/>
<path fill-rule="evenodd" d="M745.4,680h2.2V628.1h-2.2V680Z" class="g0_33"/>
<path fill-rule="evenodd" d="M86.4,682.2h569V680H86.4v2.2Z" class="g0_33"/>
<path fill-rule="evenodd" d="M655.4,682.4h2.2V680h-2.2v2.4Z" class="g0_33"/>
<path fill-rule="evenodd" d="M657.6,682.2h87.8V680H657.6v2.2Z" class="g0_33"/>
<path fill-rule="evenodd" d="M745.4,682.4h2.2V680h-2.2v2.4Z" class="g0_33"/>
<path fill-rule="evenodd" d="M747.6,682.2h101V680h-101v2.2Z" class="g0_33"/>
<path fill-rule="evenodd" d="M655.4,751.7h2.2V682.4h-2.2v69.3Z" class="g0_33"/>
<path fill-rule="evenodd" d="M745.4,751.7h2.2V682.4h-2.2v69.3Z" class="g0_33"/>
<path fill-rule="evenodd" d="M86.4,753.9h569v-2.2H86.4v2.2Z" class="g0_33"/>
<path fill-rule="evenodd" d="M655.4,754.1h2.2v-2.4h-2.2v2.4Z" class="g0_33"/>
<path fill-rule="evenodd" d="M657.6,753.9h87.8v-2.2H657.6v2.2Z" class="g0_33"/>
<path fill-rule="evenodd" d="M745.4,754.1h2.2v-2.4h-2.2v2.4Z" class="g0_33"/>
<path fill-rule="evenodd" d="M747.6,753.9h101v-2.2h-101v2.2Z" class="g0_33"/>
<path fill-rule="evenodd" d="M655.4,776.4h2.2V754h-2.2v22.4Z" class="g0_33"/>
<path fill-rule="evenodd" d="M745.4,776.4h2.2V754h-2.2v22.4Z" class="g0_33"/>
<path fill-rule="evenodd" d="M86.4,778.6h569v-2.2H86.4v2.2Z" class="g0_33"/>
<path fill-rule="evenodd" d="M655.4,778.8h2.2v-2.4h-2.2v2.4Z" class="g0_33"/>
<path fill-rule="evenodd" d="M657.6,778.6h87.8v-2.2H657.6v2.2Z" class="g0_33"/>
<path fill-rule="evenodd" d="M745.4,778.8h2.2v-2.4h-2.2v2.4Z" class="g0_33"/>
<path fill-rule="evenodd" d="M747.6,778.6h101v-2.2h-101v2.2Z" class="g0_33"/>
<path fill-rule="evenodd" d="M655.4,816.9h2.2V778.8h-2.2v38.1Z" class="g0_33"/>
<path fill-rule="evenodd" d="M745.4,816.9h2.2V778.8h-2.2v38.1Z" class="g0_33"/>
<path fill-rule="evenodd" d="M86.4,819.1h569v-2.2H86.4v2.2Z" class="g0_33"/>
<path fill-rule="evenodd" d="M655.4,819.3h2.2v-2.4h-2.2v2.4Z" class="g0_33"/>
<path fill-rule="evenodd" d="M657.6,819.1h87.8v-2.2H657.6v2.2Z" class="g0_33"/>
<path fill-rule="evenodd" d="M745.4,819.3h2.2v-2.4h-2.2v2.4Z" class="g0_33"/>
<path fill-rule="evenodd" d="M747.6,819.1h101v-2.2h-101v2.2Z" class="g0_33"/>
<path fill-rule="evenodd" d="M655.4,841.7h2.2V819.3h-2.2v22.4Z" class="g0_33"/>
<path fill-rule="evenodd" d="M745.4,841.7h2.2V819.3h-2.2v22.4Z" class="g0_33"/>
<path fill-rule="evenodd" d="M86.4,843.9h569v-2.2H86.4v2.2Z" class="g0_33"/>
<path fill-rule="evenodd" d="M655.4,844.1h2.2v-2.4h-2.2v2.4Z" class="g0_33"/>
<path fill-rule="evenodd" d="M657.6,843.9h87.8v-2.2H657.6v2.2Z" class="g0_33"/>
<path fill-rule="evenodd" d="M745.4,844.1h2.2v-2.4h-2.2v2.4Z" class="g0_33"/>
<path fill-rule="evenodd" d="M747.6,843.9h101v-2.2h-101v2.2Z" class="g0_33"/>
<path fill-rule="evenodd" d="M655.4,882.2h2.2V844.1h-2.2v38.1Z" class="g0_33"/>
<path fill-rule="evenodd" d="M745.4,882.2h2.2V844.1h-2.2v38.1Z" class="g0_33"/>
<path fill-rule="evenodd" d="M86.4,884.4h569v-2.2H86.4v2.2Z" class="g0_33"/>
<path fill-rule="evenodd" d="M655.4,884.6h2.2v-2.4h-2.2v2.4Z" class="g0_33"/>
<path fill-rule="evenodd" d="M657.6,884.4h87.8v-2.2H657.6v2.2Z" class="g0_33"/>
<path fill-rule="evenodd" d="M745.4,884.6h2.2v-2.4h-2.2v2.4Z" class="g0_33"/>
<path fill-rule="evenodd" d="M747.6,884.4h101v-2.2h-101v2.2Z" class="g0_33"/>
<path fill-rule="evenodd" d="M655.4,938.5h2.2V884.6h-2.2v53.9Z" class="g0_33"/>
<path fill-rule="evenodd" d="M745.4,938.5h2.2V884.6h-2.2v53.9Z" class="g0_33"/>
<path fill-rule="evenodd" d="M86.4,940.7h569v-2.2H86.4v2.2Z" class="g0_33"/>
<path fill-rule="evenodd" d="M655.4,940.7h2.2v-2.2h-2.2v2.2Z" class="g0_33"/>
<path fill-rule="evenodd" d="M657.6,940.7h87.8v-2.2H657.6v2.2Z" class="g0_33"/>
<path fill-rule="evenodd" d="M745.4,940.7h2.2v-2.2h-2.2v2.2Z" class="g0_33"/>
<path fill-rule="evenodd" d="M747.6,940.7h101v-2.2h-101v2.2Z" class="g0_33"/>
<path fill-rule="evenodd" d="M86.4,962h569v-2.2H86.4V962Z" class="g0_33"/>
<path d="M655.4,962.1h2.2V962h-2.2v.1Z" class="g0_33"/>
<path fill-rule="evenodd" d="M655.4,962h2.2v-2.2h-2.2V962Z" class="g0_33"/>
<path fill-rule="evenodd" d="M657.6,962h87.8v-2.2H657.6V962Z" class="g0_33"/>
<path d="M745.4,962.1h2.2V962h-2.2v.1Z" class="g0_33"/>
<path fill-rule="evenodd" d="M745.4,962h2.2v-2.2h-2.2V962Z" class="g0_33"/>
<path fill-rule="evenodd" d="M747.6,962h101v-2.2h-101V962Z" class="g0_33"/>
<path fill-rule="evenodd" d="M655.4,984.5h2.2V962.1h-2.2v22.4Z" class="g0_33"/>
<path fill-rule="evenodd" d="M745.4,984.5h2.2V962.1h-2.2v22.4Z" class="g0_33"/>
<path fill-rule="evenodd" d="M86.4,986.7h569v-2.2H86.4v2.2Z" class="g0_33"/>
<path fill-rule="evenodd" d="M655.4,986.9h2.2v-2.4h-2.2v2.4Z" class="g0_33"/>
<path fill-rule="evenodd" d="M657.6,986.7h87.8v-2.2H657.6v2.2Z" class="g0_33"/>
<path fill-rule="evenodd" d="M745.4,986.9h2.2v-2.4h-2.2v2.4Z" class="g0_33"/>
<path fill-rule="evenodd" d="M747.6,986.7h101v-2.2h-101v2.2Z" class="g0_33"/>
<path fill-rule="evenodd" d="M655.4,1009.2h2.2V986.9h-2.2v22.3Z" class="g0_33"/>
<path fill-rule="evenodd" d="M745.4,1009.2h2.2V986.9h-2.2v22.3Z" class="g0_33"/>
<path fill-rule="evenodd" d="M86.4,1011.4h569v-2.2H86.4v2.2Z" class="g0_33"/>
<path fill-rule="evenodd" d="M655.4,1011.6h2.2v-2.4h-2.2v2.4Z" class="g0_33"/>
<path fill-rule="evenodd" d="M657.6,1011.4h87.8v-2.2H657.6v2.2Z" class="g0_33"/>
<path fill-rule="evenodd" d="M745.4,1011.6h2.2v-2.4h-2.2v2.4Z" class="g0_33"/>
<path fill-rule="evenodd" d="M747.6,1011.4h101v-2.2h-101v2.2Z" class="g0_33"/>
<path fill-rule="evenodd" d="M85.2,1050H655.4v-2.2H85.2v2.2Z" class="g0_33"/>
<path fill-rule="evenodd" d="M655.4,1047.8h2.2v-36.2h-2.2v36.2Z" class="g0_33"/>
<path fill-rule="evenodd" d="M655.4,1050h2.2v-2.2h-2.2v2.2Z" class="g0_33"/>
<path fill-rule="evenodd" d="M657.6,1050h87.8v-2.2H657.6v2.2Z" class="g0_33"/>
<path fill-rule="evenodd" d="M745.4,1047.8h2.2v-36.2h-2.2v36.2Z" class="g0_33"/>
<path fill-rule="evenodd" d="M745.4,1050h2.2v-2.2h-2.2v2.2Z" class="g0_33"/>
<path fill-rule="evenodd" d="M747.6,1050h101v-2.2h-101v2.2Z" class="g0_33"/>
</svg>