<?xml version="1.0" encoding="UTF-8" standalone="no"?>
<!DOCTYPE svg PUBLIC "-//W3C//DTD SVG 1.1//EN"
"http://www.w3.org/Graphics/SVG/1.1/DTD/svg11.dtd">
<svg viewBox="0 0 935 1210" version="1.1" xmlns="http://www.w3.org/2000/svg" xmlns:xlink="http://www.w3.org/1999/xlink">
<defs>
<style type="text/css"><![CDATA[
.g0_30{
}
]]></style>
</defs>
<path d="M110,474.8h75.7v-.7H110v.7Z" class="g0_30"/>
<path d="M185.7,474.8h.8v-.7h-.8v.7Z" class="g0_30"/>
<path d="M186.5,474.8h74.8v-.7H186.5v.7Z" class="g0_30"/>
<path d="M261.3,474.8h.7v-.7h-.7v.7Z" class="g0_30"/>
<path d="M262,474.8h95.5v-.7H262v.7Z" class="g0_30"/>
<path d="M357.5,474.8h.7v-.7h-.7v.7Z" class="g0_30"/>
<path d="M358.2,474.8H825v-.7H358.2v.7Z" class="g0_30"/>
<path d="M365.7,599.3H520.3v-.9H365.7v.9Z" class="g0_30"/>
<path d="M365.7,678.7H610.3v-.9H365.7v.9Z" class="g0_30"/>
<path d="M110,504.5h75.7v-.7H110v.7Z" class="g0_30"/>
<path d="M185.7,504.5h.8v-.7h-.8v.7Z" class="g0_30"/>
<path d="M186.5,504.5h74.8v-.7H186.5v.7Z" class="g0_30"/>
<path d="M261.3,504.5h.7v-.7h-.7v.7Z" class="g0_30"/>
<path d="M262,504.5h95.5v-.7H262v.7Z" class="g0_30"/>
<path d="M357.5,504.5h.7v-.7h-.7v.7Z" class="g0_30"/>
<path d="M358.2,504.5H825v-.7H358.2v.7Z" class="g0_30"/>
<path d="M365.7,854.9H520.3V854H365.7v.9Z" class="g0_30"/>
<path d="M110,760.1h75.7v-.7H110v.7Z" class="g0_30"/>
<path d="M185.7,760.1h.8v-.7h-.8v.7Z" class="g0_30"/>
<path d="M186.5,760.1h74.8v-.7H186.5v.7Z" class="g0_30"/>
<path d="M261.3,760.1h.7v-.7h-.7v.7Z" class="g0_30"/>
<path d="M262,760.1h95.5v-.7H262v.7Z" class="g0_30"/>
<path d="M357.5,760.1h.7v-.7h-.7v.7Z" class="g0_30"/>
<path d="M358.2,760.1H825v-.7H358.2v.7Z" class="g0_30"/>
<path d="M108.9,1003.6h76.8v-.8H108.9v.8Z" class="g0_30"/>
<path d="M184.6,1003.6h.8v-.8h-.8v.8Z" class="g0_30"/>
<path d="M185.4,1003.6h75.9v-.8H185.4v.8Z" class="g0_30"/>
<path d="M260.2,1003.6h.7v-.8h-.7v.8Z" class="g0_30"/>
<path d="M260.9,1003.6h96.6v-.8H260.9v.8Z" class="g0_30"/>
<path d="M356.4,1003.6h.7v-.8h-.7v.8Z" class="g0_30"/>
<path d="M357.1,1003.6H825v-.8H357.1v.8Z" class="g0_30"/>
</svg>