<?xml version="1.0" encoding="UTF-8" standalone="no"?>
<!DOCTYPE svg PUBLIC "-//W3C//DTD SVG 1.1//EN"
"http://www.w3.org/Graphics/SVG/1.1/DTD/svg11.dtd">
<svg viewBox="0 0 935 1210" version="1.1" xmlns="http://www.w3.org/2000/svg" xmlns:xlink="http://www.w3.org/1999/xlink">
<defs>
<style type="text/css"><![CDATA[
.g0_28{
fill: #00755C;
}
]]></style>
</defs>
<path d="M86.9,66.4H263.6V64.9H86.9v1.5Z" class="g0_28"/>
<path d="M263.6,66.4h1.5V64.9h-1.5v1.5Z" class="g0_28"/>
<path d="M265.1,66.4H849.2V64.9H265.1v1.5Z" class="g0_28"/>
<path d="M85.8,119.9H263.6v-1.5H85.8v1.5Z" class="g0_28"/>
<path d="M262.5,119.9H264v-1.5h-1.5v1.5Z" class="g0_28"/>
<path d="M264,119.9H849.2v-1.5H264v1.5Z" class="g0_28"/>
<path d="M84.7,1113.4H432.3v-.7H84.7v.7Z" class="g0_28"/>
<path d="M432.3,1113.4h.7v-.7h-.7v.7Z" class="g0_28"/>
<path d="M433,1113.4h66.6v-.7H433v.7Z" class="g0_28"/>
<path d="M499.6,1113.4h.7v-.7h-.7v.7Z" class="g0_28"/>
<path d="M500.3,1113.4H847v-.7H500.3v.7Z" class="g0_28"/>
<image preserveAspectRatio="none" x="89" y="67" width="172" height="51" xlink:href="img/1.png"/>
<image preserveAspectRatio="none" x="739" y="1124" width="107" height="41" xlink:href="img/2.png"/>
<path fill-rule="evenodd" d="M86.4,597.1H469v-2.2H86.4v2.2Z" class="g0_28"/>
<path d="M469,597.3h2.2v-.2H469v.2Z" class="g0_28"/>
<path fill-rule="evenodd" d="M469,597.1h2.2v-2.2H469v2.2Z" class="g0_28"/>
<path fill-rule="evenodd" d="M471.2,597.1H853.8v-2.2H471.2v2.2Z" class="g0_28"/>
<path fill-rule="evenodd" d="M469,625.2h2.2V597.3H469v27.9Z" class="g0_28"/>
<path fill-rule="evenodd" d="M86.4,627.4H469v-2.2H86.4v2.2Z" class="g0_28"/>
<path fill-rule="evenodd" d="M469,627.6h2.2v-2.4H469v2.4Z" class="g0_28"/>
<path fill-rule="evenodd" d="M471.2,627.4H853.8v-2.2H471.2v2.2Z" class="g0_28"/>
<path fill-rule="evenodd" d="M469,715.7h2.2V627.5H469v88.2Z" class="g0_28"/>
<path fill-rule="evenodd" d="M86.4,717.9H469v-2.2H86.4v2.2Z" class="g0_28"/>
<path fill-rule="evenodd" d="M469,718.1h2.2v-2.4H469v2.4Z" class="g0_28"/>
<path fill-rule="evenodd" d="M471.2,717.9H853.8v-2.2H471.2v2.2Z" class="g0_28"/>
<path fill-rule="evenodd" d="M469,754.2h2.2V718.1H469v36.1Z" class="g0_28"/>
<path fill-rule="evenodd" d="M86.4,756.4H469v-2.2H86.4v2.2Z" class="g0_28"/>
<path fill-rule="evenodd" d="M469,756.6h2.2v-2.4H469v2.4Z" class="g0_28"/>
<path fill-rule="evenodd" d="M471.2,756.4H853.8v-2.2H471.2v2.2Z" class="g0_28"/>
<path fill-rule="evenodd" d="M85.2,1003H469v-2.2H85.2v2.2Z" class="g0_28"/>
<path fill-rule="evenodd" d="M469,1000.8h2.2V756.6H469v244.2Z" class="g0_28"/>
<path fill-rule="evenodd" d="M469,1003h2.2v-2.2H469v2.2Z" class="g0_28"/>
<path fill-rule="evenodd" d="M471.2,1003H853.8v-2.2H471.2v2.2Z" class="g0_28"/>
</svg>