<?xml version="1.0" encoding="UTF-8" standalone="no"?>
<!DOCTYPE svg PUBLIC "-//W3C//DTD SVG 1.1//EN"
"http://www.w3.org/Graphics/SVG/1.1/DTD/svg11.dtd">
<svg viewBox="0 0 935 1210" version="1.1" xmlns="http://www.w3.org/2000/svg" xmlns:xlink="http://www.w3.org/1999/xlink">
<defs>
<style type="text/css"><![CDATA[
.g0_39{
fill: #00755C;
}
]]></style>
</defs>
<path d="M86.5,66.5H263.3V65.1H86.5v1.4Z" class="g0_39"/>
<path d="M263.3,66.5h1.4V65.1h-1.4v1.4Z" class="g0_39"/>
<path d="M264.7,66.5H848.8V65.1H264.7v1.4Z" class="g0_39"/>
<path d="M85.4,120.1H263.3v-1.5H85.4v1.5Z" class="g0_39"/>
<path d="M262.2,120.1h1.4v-1.5h-1.4v1.5Z" class="g0_39"/>
<path d="M263.6,120.1H848.8v-1.5H263.6v1.5Z" class="g0_39"/>
<path d="M84.3,1113.8H431.9v-.8H84.3v.8Z" class="g0_39"/>
<path d="M431.9,1113.8h.8v-.8h-.8v.8Z" class="g0_39"/>
<path d="M432.7,1113.8h66.5v-.8H432.7v.8Z" class="g0_39"/>
<path d="M499.2,1113.8h.8v-.8h-.8v.8Z" class="g0_39"/>
<path d="M499.9,1113.8H846.6v-.8H499.9v.8Z" class="g0_39"/>
<image preserveAspectRatio="none" x="89" y="67" width="172" height="51" xlink:href="img/1.png"/>
<image preserveAspectRatio="none" x="739" y="1124" width="107" height="42" xlink:href="img/2.png"/>
<path fill-rule="evenodd" d="M86.5,544.3H222.9v-2.2H86.5v2.2Z" class="g0_39"/>
<path d="M222.9,544.5h2.2v-.2h-2.2v.2Z" class="g0_39"/>
<path fill-rule="evenodd" d="M222.9,544.3h2.2v-2.2h-2.2v2.2Z" class="g0_39"/>
<path fill-rule="evenodd" d="M225.1,544.3H854v-2.2H225.1v2.2Z" class="g0_39"/>
<path fill-rule="evenodd" d="M222.9,594.9h2.2V544.5h-2.2v50.4Z" class="g0_39"/>
<path fill-rule="evenodd" d="M86.5,597.1H222.9v-2.2H86.5v2.2Z" class="g0_39"/>
<path fill-rule="evenodd" d="M222.9,597.3h2.2v-2.4h-2.2v2.4Z" class="g0_39"/>
<path fill-rule="evenodd" d="M225.1,597.1H854v-2.2H225.1v2.2Z" class="g0_39"/>
<path fill-rule="evenodd" d="M222.9,647.5h2.2V597.3h-2.2v50.2Z" class="g0_39"/>
<path fill-rule="evenodd" d="M86.5,649.7H222.9v-2.2H86.5v2.2Z" class="g0_39"/>
<path fill-rule="evenodd" d="M222.9,649.9h2.2v-2.4h-2.2v2.4Z" class="g0_39"/>
<path fill-rule="evenodd" d="M225.1,649.7H854v-2.2H225.1v2.2Z" class="g0_39"/>
<path fill-rule="evenodd" d="M222.9,716.3h2.2V649.9h-2.2v66.4Z" class="g0_39"/>
<path fill-rule="evenodd" d="M86.5,718.5H222.9v-2.2H86.5v2.2Z" class="g0_39"/>
<path fill-rule="evenodd" d="M222.9,718.7h2.2v-2.4h-2.2v2.4Z" class="g0_39"/>
<path fill-rule="evenodd" d="M225.1,718.5H854v-2.2H225.1v2.2Z" class="g0_39"/>
<path fill-rule="evenodd" d="M222.9,800.6h2.2V718.7h-2.2v81.9Z" class="g0_39"/>
<path fill-rule="evenodd" d="M86.5,802.8H222.9v-2.2H86.5v2.2Z" class="g0_39"/>
<path fill-rule="evenodd" d="M222.9,803h2.2v-2.4h-2.2V803Z" class="g0_39"/>
<path fill-rule="evenodd" d="M225.1,802.8H854v-2.2H225.1v2.2Z" class="g0_39"/>
<path fill-rule="evenodd" d="M222.9,853.4h2.2V803h-2.2v50.4Z" class="g0_39"/>
<path fill-rule="evenodd" d="M86.5,855.6H222.9v-2.2H86.5v2.2Z" class="g0_39"/>
<path fill-rule="evenodd" d="M222.9,855.8h2.2v-2.4h-2.2v2.4Z" class="g0_39"/>
<path fill-rule="evenodd" d="M225.1,855.6H854v-2.2H225.1v2.2Z" class="g0_39"/>
<path fill-rule="evenodd" d="M222.9,890.3h2.2V855.8h-2.2v34.5Z" class="g0_39"/>
<path fill-rule="evenodd" d="M86.5,892.5H222.9v-2.2H86.5v2.2Z" class="g0_39"/>
<path fill-rule="evenodd" d="M222.9,892.7h2.2v-2.4h-2.2v2.4Z" class="g0_39"/>
<path fill-rule="evenodd" d="M225.1,892.5H854v-2.2H225.1v2.2Z" class="g0_39"/>
<path fill-rule="evenodd" d="M222.9,959h2.2V892.7h-2.2V959Z" class="g0_39"/>
<path fill-rule="evenodd" d="M86.5,961.2H222.9V959H86.5v2.2Z" class="g0_39"/>
<path fill-rule="evenodd" d="M222.9,961.4h2.2V959h-2.2v2.4Z" class="g0_39"/>
<path fill-rule="evenodd" d="M225.1,961.2H854V959H225.1v2.2Z" class="g0_39"/>
<path fill-rule="evenodd" d="M222.9,1011.8h2.2V961.4h-2.2v50.4Z" class="g0_39"/>
<path fill-rule="evenodd" d="M86.5,1014H222.9v-2.2H86.5v2.2Z" class="g0_39"/>
<path fill-rule="evenodd" d="M222.9,1014.2h2.2v-2.4h-2.2v2.4Z" class="g0_39"/>
<path fill-rule="evenodd" d="M225.1,1014H854v-2.2H225.1v2.2Z" class="g0_39"/>
<path fill-rule="evenodd" d="M85.4,1066.8H222.9v-2.2H85.4v2.2Z" class="g0_39"/>
<path fill-rule="evenodd" d="M222.9,1064.6h2.2v-50.4h-2.2v50.4Z" class="g0_39"/>
<path fill-rule="evenodd" d="M222.9,1066.8h2.2v-2.2h-2.2v2.2Z" class="g0_39"/>
<path fill-rule="evenodd" d="M225.1,1066.8H854v-2.2H225.1v2.2Z" class="g0_39"/>
</svg>