<?xml version="1.0" encoding="UTF-8" standalone="no"?>
<!DOCTYPE svg PUBLIC "-//W3C//DTD SVG 1.1//EN"
"http://www.w3.org/Graphics/SVG/1.1/DTD/svg11.dtd">
<svg viewBox="0 0 1210 935" version="1.1" xmlns="http://www.w3.org/2000/svg" xmlns:xlink="http://www.w3.org/1999/xlink">
<defs>
<style type="text/css"><![CDATA[
.g0_13{
}
]]></style>
</defs>
<path d="M110,111.1H219.1v-.7H110v.7Z" class="g0_13"/>
<path d="M219.1,111.1h.7v-.7h-.7v.7Z" class="g0_13"/>
<path d="M219.8,111.1H393.6v-.7H219.8v.7Z" class="g0_13"/>
<path d="M393.6,111.1h.8v-.7h-.8v.7Z" class="g0_13"/>
<path d="M394.3,111.1h63.9v-.7H394.3v.7Z" class="g0_13"/>
<path d="M458.2,111.1h.7v-.7h-.7v.7Z" class="g0_13"/>
<path d="M458.9,111.1h89.6v-.7H458.9v.7Z" class="g0_13"/>
<path d="M548.5,111.1h.8v-.7h-.8v.7Z" class="g0_13"/>
<path d="M549.3,111.1H779.9v-.7H549.3v.7Z" class="g0_13"/>
<path d="M779.9,111.1h.7v-.7h-.7v.7Z" class="g0_13"/>
<path d="M780.6,111.1H884.2v-.7H780.6v.7Z" class="g0_13"/>
<path d="M884.2,111.1h.7v-.7h-.7v.7Z" class="g0_13"/>
<path d="M884.9,111.1h137.4v-.7H884.9v.7Z" class="g0_13"/>
<path d="M1022.3,111.1h.7v-.7h-.7v.7Z" class="g0_13"/>
<path d="M1023,111.1h77v-.7h-77v.7Z" class="g0_13"/>
<path d="M110,191.2H219.1v-.7H110v.7Z" class="g0_13"/>
<path d="M219.1,191.2h.7v-.7h-.7v.7Z" class="g0_13"/>
<path d="M219.8,191.2H393.6v-.7H219.8v.7Z" class="g0_13"/>
<path d="M393.6,191.2h.8v-.7h-.8v.7Z" class="g0_13"/>
<path d="M394.3,191.2h63.9v-.7H394.3v.7Z" class="g0_13"/>
<path d="M458.2,191.2h.7v-.7h-.7v.7Z" class="g0_13"/>
<path d="M458.9,191.2h89.6v-.7H458.9v.7Z" class="g0_13"/>
<path d="M548.5,191.2h.8v-.7h-.8v.7Z" class="g0_13"/>
<path d="M549.3,191.2H779.9v-.7H549.3v.7Z" class="g0_13"/>
<path d="M779.9,191.2h.7v-.7h-.7v.7Z" class="g0_13"/>
<path d="M780.6,191.2H884.2v-.7H780.6v.7Z" class="g0_13"/>
<path d="M884.2,191.2h.7v-.7h-.7v.7Z" class="g0_13"/>
<path d="M884.9,191.2h137.4v-.7H884.9v.7Z" class="g0_13"/>
<path d="M1022.3,191.2h.7v-.7h-.7v.7Z" class="g0_13"/>
<path d="M1023,191.2h77v-.7h-77v.7Z" class="g0_13"/>
<path d="M110,220.9H219.1v-.7H110v.7Z" class="g0_13"/>
<path d="M219.1,220.9h.7v-.7h-.7v.7Z" class="g0_13"/>
<path d="M219.8,220.9H393.6v-.7H219.8v.7Z" class="g0_13"/>
<path d="M393.6,220.9h.8v-.7h-.8v.7Z" class="g0_13"/>
<path d="M394.3,220.9h63.9v-.7H394.3v.7Z" class="g0_13"/>
<path d="M458.2,220.9h.7v-.7h-.7v.7Z" class="g0_13"/>
<path d="M458.9,220.9h89.6v-.7H458.9v.7Z" class="g0_13"/>
<path d="M548.5,220.9h.8v-.7h-.8v.7Z" class="g0_13"/>
<path d="M549.3,220.9H779.9v-.7H549.3v.7Z" class="g0_13"/>
<path d="M779.9,220.9h.7v-.7h-.7v.7Z" class="g0_13"/>
<path d="M780.6,220.9H884.2v-.7H780.6v.7Z" class="g0_13"/>
<path d="M884.2,220.9h.7v-.7h-.7v.7Z" class="g0_13"/>
<path d="M884.9,220.9h137.4v-.7H884.9v.7Z" class="g0_13"/>
<path d="M1022.3,220.9h.7v-.7h-.7v.7Z" class="g0_13"/>
<path d="M1023,220.9h77v-.7h-77v.7Z" class="g0_13"/>
<path d="M110,469H219.1v-.8H110v.8Z" class="g0_13"/>
<path d="M219.1,469h.7v-.8h-.7v.8Z" class="g0_13"/>
<path d="M219.8,469H393.6v-.8H219.8v.8Z" class="g0_13"/>
<path d="M393.6,469h.8v-.8h-.8v.8Z" class="g0_13"/>
<path d="M394.3,469h63.9v-.8H394.3v.8Z" class="g0_13"/>
<path d="M458.2,469h.7v-.8h-.7v.8Z" class="g0_13"/>
<path d="M458.9,469h89.6v-.8H458.9v.8Z" class="g0_13"/>
<path d="M548.5,469h.8v-.8h-.8v.8Z" class="g0_13"/>
<path d="M549.3,469H779.9v-.8H549.3v.8Z" class="g0_13"/>
<path d="M779.9,469h.7v-.8h-.7v.8Z" class="g0_13"/>
<path d="M780.6,469H884.2v-.8H780.6v.8Z" class="g0_13"/>
<path d="M884.2,469h.7v-.8h-.7v.8Z" class="g0_13"/>
<path d="M884.9,469h137.4v-.8H884.9v.8Z" class="g0_13"/>
<path d="M1022.3,469h.7v-.8h-.7v.8Z" class="g0_13"/>
<path d="M1023,469h77v-.8h-77v.8Z" class="g0_13"/>
<path d="M110,633.1H219.1v-.8H110v.8Z" class="g0_13"/>
<path d="M219.1,633.1h.7v-.8h-.7v.8Z" class="g0_13"/>
<path d="M219.8,633.1H393.6v-.8H219.8v.8Z" class="g0_13"/>
<path d="M393.6,633.1h.8v-.8h-.8v.8Z" class="g0_13"/>
<path d="M394.3,633.1h63.9v-.8H394.3v.8Z" class="g0_13"/>
<path d="M458.2,633.1h.7v-.8h-.7v.8Z" class="g0_13"/>
<path d="M458.9,633.1h89.6v-.8H458.9v.8Z" class="g0_13"/>
<path d="M548.5,633.1h.8v-.8h-.8v.8Z" class="g0_13"/>
<path d="M549.3,633.1H779.9v-.8H549.3v.8Z" class="g0_13"/>
<path d="M779.9,633.1h.7v-.8h-.7v.8Z" class="g0_13"/>
<path d="M780.6,633.1H884.2v-.8H780.6v.8Z" class="g0_13"/>
<path d="M884.2,633.1h.7v-.8h-.7v.8Z" class="g0_13"/>
<path d="M884.9,633.1h137.4v-.8H884.9v.8Z" class="g0_13"/>
<path d="M1022.3,633.1h.7v-.8h-.7v.8Z" class="g0_13"/>
<path d="M1023,633.1h77v-.8h-77v.8Z" class="g0_13"/>
<path d="M108.9,763.4H219.1v-.7H108.9v.7Z" class="g0_13"/>
<path d="M218,763.4h.7v-.7H218v.7Z" class="g0_13"/>
<path d="M218.7,763.4H393.6v-.7H218.7v.7Z" class="g0_13"/>
<path d="M392.5,763.4h.8v-.7h-.8v.7Z" class="g0_13"/>
<path d="M393.2,763.4h65v-.7h-65v.7Z" class="g0_13"/>
<path d="M457.1,763.4h.7v-.7h-.7v.7Z" class="g0_13"/>
<path d="M457.8,763.4h90.7v-.7H457.8v.7Z" class="g0_13"/>
<path d="M547.4,763.4h.8v-.7h-.8v.7Z" class="g0_13"/>
<path d="M548.2,763.4H779.9v-.7H548.2v.7Z" class="g0_13"/>
<path d="M778.8,763.4h.7v-.7h-.7v.7Z" class="g0_13"/>
<path d="M779.5,763.4H884.2v-.7H779.5v.7Z" class="g0_13"/>
<path d="M883.1,763.4h.7v-.7h-.7v.7Z" class="g0_13"/>
<path d="M883.9,763.4h138.4v-.7H883.9v.7Z" class="g0_13"/>
<path d="M1021.2,763.4h.7v-.7h-.7v.7Z" class="g0_13"/>
<path d="M1021.9,763.4H1100v-.7h-78.1v.7Z" class="g0_13"/>
</svg>